<svg width="40" height="40" viewBox="0 0 40 40" fill="none" xmlns="http://www.w3.org/2000/svg">
<ellipse cx="19.713" cy="31.0927" rx="18.963" ry="3.55556" fill="#FDCFC3"/>
<path d="M5.43924 18.5514C4.63432 18.1534 3.85582 19.1348 4.42652 19.8281L8.31397 24.5502C8.37242 24.6212 8.41871 24.7014 8.45097 24.7875L10.5968 30.5153C10.9118 31.3561 12.151 31.1726 12.2088 30.2765L12.6966 22.7119C12.7183 22.3761 12.5359 22.0603 12.2344 21.9112L5.43924 18.5514Z" fill="#D63D4A"/>
<path d="M27.3211 15.2972C27.2218 14.3593 26.7299 13.5073 25.9673 12.9524L14.9534 4.93937C14.3078 4.46965 13.4461 4.4242 12.7547 4.82342C11.7883 5.38132 11.4572 6.61695 12.0152 7.58328L24.9948 30.0647C25.5527 31.031 26.7883 31.3621 27.7547 30.8042C28.4461 30.405 28.8376 29.636 28.7536 28.842L27.3211 15.2972Z" fill="#D63D4A"/>
<path d="M22.4629 11.3207C24.8058 9.61121 27.7097 8.85357 30.5891 9.20048C32.4856 9.42897 33.6317 11.4141 32.8813 13.1707C31.7421 15.8379 29.634 17.9739 26.9821 19.1482L11.9372 25.8103C10.6371 26.386 9.11221 25.8888 8.4013 24.6575C7.69039 23.4261 8.02228 21.8569 9.17087 21.0189L22.4629 11.3207Z" fill="#FA967C"/>
<path d="M26.1887 11.0821C25.9217 11.1871 25.8276 11.5071 25.9711 11.7556L28.3596 15.8926C28.503 16.141 28.8272 16.2196 29.0517 16.0408C29.9068 15.3597 30.5648 14.4281 30.9517 13.3268C31.3238 12.2676 30.5926 11.001 29.4892 10.7936C28.342 10.5781 27.2062 10.6821 26.1887 11.0821Z" fill="white"/>
</svg>
