<svg width="40" height="40" viewBox="0 0 40 40" fill="none" xmlns="http://www.w3.org/2000/svg">
<ellipse cx="19.713" cy="31.0932" rx="18.963" ry="3.55556" fill="#FDCFC3"/>
<path d="M3.65381 8.53167C2.64752 8.83828 2.08031 9.9026 2.38691 10.9089L3.49423 14.5431C3.49522 14.5465 3.49624 14.5499 3.49727 14.5533L5.44034 20.9305C7.5866 27.9746 15.0368 31.9451 22.0809 29.7988L24.814 28.9661C30.3487 27.2798 33.4683 21.426 31.782 15.8914C30.0956 10.3567 24.2419 7.23706 18.7072 8.92341L11.419 11.144C10.4127 11.4507 9.34841 10.8834 9.0418 9.87714L8.76413 8.96583C8.45753 7.95953 7.39321 7.39232 6.38691 7.69893L3.65381 8.53167Z" fill="#D63D4A"/>
<path d="M4.32998 17.2864C3.71677 15.2739 4.85119 13.1452 6.86378 12.532L18.7072 8.92344C24.2418 7.2371 30.0956 10.3568 31.7819 15.8914C33.4683 21.426 30.3486 27.2798 24.814 28.9661L22.0809 29.7989C15.0368 31.9451 7.58656 27.9747 5.44031 20.9306L4.32998 17.2864Z" fill="#FA967C"/>
<path d="M11.7394 21.9982C11.5861 21.495 11.8697 20.9629 12.3728 20.8096L25.1272 16.9234C25.6304 16.7701 26.1626 17.0537 26.3159 17.5569C26.4692 18.06 26.1856 18.5922 25.6824 18.7455L12.928 22.6316C12.4248 22.7849 11.8927 22.5013 11.7394 21.9982Z" fill="white"/>
<path d="M14.6717 25.0872C14.5184 24.584 14.802 24.0519 15.3052 23.8986L24.4155 21.1228C24.9186 20.9695 25.4508 21.2531 25.6041 21.7562C25.7574 22.2594 25.4738 22.7915 24.9707 22.9448L15.8603 25.7206C15.3572 25.8739 14.825 25.5903 14.6717 25.0872Z" fill="white"/>
<circle cx="30.3337" cy="23.3332" r="6.66667" fill="#D63D4A"/>
<g filter="url(#filter0_i_77_808)">
<circle cx="32.8335" cy="23.333" r="1.25" fill="#D63D4A"/>
</g>
<g filter="url(#filter1_i_77_808)">
<circle cx="30.3335" cy="26.6665" r="1.25" fill="#D63D4A"/>
</g>
<g filter="url(#filter2_i_77_808)">
<circle cx="32.0835" cy="26.25" r="1.25" fill="#D63D4A"/>
</g>
<g filter="url(#filter3_i_77_808)">
<circle cx="31.0835" cy="23.75" r="1.25" fill="#D63D4A"/>
</g>
<defs>
<filter id="filter0_i_77_808" x="31.5835" y="22.083" width="2.5" height="2.5" filterUnits="userSpaceOnUse" color-interpolation-filters="sRGB">
<feFlood flood-opacity="0" result="BackgroundImageFix"/>
<feBlend mode="normal" in="SourceGraphic" in2="BackgroundImageFix" result="shape"/>
<feColorMatrix in="SourceAlpha" type="matrix" values="0 0 0 0 0 0 0 0 0 0 0 0 0 0 0 0 0 0 127 0" result="hardAlpha"/>
<feOffset dx="-0.25" dy="-0.5"/>
<feComposite in2="hardAlpha" operator="arithmetic" k2="-1" k3="1"/>
<feColorMatrix type="matrix" values="0 0 0 0 1 0 0 0 0 1 0 0 0 0 1 0 0 0 0.5 0"/>
<feBlend mode="normal" in2="shape" result="effect1_innerShadow_77_808"/>
</filter>
<filter id="filter1_i_77_808" x="29.0835" y="25.4165" width="2.5" height="2.5" filterUnits="userSpaceOnUse" color-interpolation-filters="sRGB">
<feFlood flood-opacity="0" result="BackgroundImageFix"/>
<feBlend mode="normal" in="SourceGraphic" in2="BackgroundImageFix" result="shape"/>
<feColorMatrix in="SourceAlpha" type="matrix" values="0 0 0 0 0 0 0 0 0 0 0 0 0 0 0 0 0 0 127 0" result="hardAlpha"/>
<feOffset dx="-0.25" dy="-0.5"/>
<feComposite in2="hardAlpha" operator="arithmetic" k2="-1" k3="1"/>
<feColorMatrix type="matrix" values="0 0 0 0 1 0 0 0 0 1 0 0 0 0 1 0 0 0 0.5 0"/>
<feBlend mode="normal" in2="shape" result="effect1_innerShadow_77_808"/>
</filter>
<filter id="filter2_i_77_808" x="30.8335" y="25" width="2.5" height="2.5" filterUnits="userSpaceOnUse" color-interpolation-filters="sRGB">
<feFlood flood-opacity="0" result="BackgroundImageFix"/>
<feBlend mode="normal" in="SourceGraphic" in2="BackgroundImageFix" result="shape"/>
<feColorMatrix in="SourceAlpha" type="matrix" values="0 0 0 0 0 0 0 0 0 0 0 0 0 0 0 0 0 0 127 0" result="hardAlpha"/>
<feOffset dx="-0.25" dy="-0.5"/>
<feComposite in2="hardAlpha" operator="arithmetic" k2="-1" k3="1"/>
<feColorMatrix type="matrix" values="0 0 0 0 1 0 0 0 0 1 0 0 0 0 1 0 0 0 0.5 0"/>
<feBlend mode="normal" in2="shape" result="effect1_innerShadow_77_808"/>
</filter>
<filter id="filter3_i_77_808" x="29.8335" y="22.5" width="2.5" height="2.5" filterUnits="userSpaceOnUse" color-interpolation-filters="sRGB">
<feFlood flood-opacity="0" result="BackgroundImageFix"/>
<feBlend mode="normal" in="SourceGraphic" in2="BackgroundImageFix" result="shape"/>
<feColorMatrix in="SourceAlpha" type="matrix" values="0 0 0 0 0 0 0 0 0 0 0 0 0 0 0 0 0 0 127 0" result="hardAlpha"/>
<feOffset dx="-0.25" dy="-0.5"/>
<feComposite in2="hardAlpha" operator="arithmetic" k2="-1" k3="1"/>
<feColorMatrix type="matrix" values="0 0 0 0 1 0 0 0 0 1 0 0 0 0 1 0 0 0 0.5 0"/>
<feBlend mode="normal" in2="shape" result="effect1_innerShadow_77_808"/>
</filter>
</defs>
</svg>
