<svg width="24" height="24" viewBox="0 0 24 24" fill="none" xmlns="http://www.w3.org/2000/svg">
<g style="mix-blend-mode:multiply">
<path fill-rule="evenodd" clip-rule="evenodd" d="M16.0469 3.5C16.3731 3.50012 16.6934 3.59355 16.9756 3.77051C17.2577 3.94747 17.4915 4.20182 17.6533 4.50781L20.9668 10.7725C21.1268 11.0746 21.2118 11.4165 21.2119 11.7646V16.2627C21.2119 16.5725 21.1451 16.8794 21.0166 17.1562L19.9814 19.3926C19.8277 19.7247 19.5912 20.0039 19.2988 20.1992C19.2135 20.2562 19.1242 20.3047 19.0322 20.3457C18.8076 20.4468 18.5656 20.5 18.3203 20.5H17.5039C17.0131 20.4999 16.5424 20.289 16.1953 19.9141C15.8482 19.539 15.6533 19.0303 15.6533 18.5H8.25391C8.25351 19.0298 8.05774 19.5375 7.71094 19.9121C7.48302 20.1583 7.20171 20.3324 6.89648 20.4238C6.73528 20.4726 6.56784 20.5 6.39746 20.5H5.58105C5.23726 20.5 4.89985 20.3965 4.60742 20.2012C4.31524 20.006 4.07943 19.7265 3.92578 19.3945L3.4082 18.2764H3.41406L2.89551 17.1562C2.76717 16.8788 2.70023 16.5729 2.7002 16.2627V11.7646C2.70029 11.4166 2.7844 11.0746 2.94434 10.7725L6.25781 4.50781C6.41959 4.20186 6.65352 3.9475 6.93555 3.77051C7.21772 3.59351 7.53895 3.50011 7.86523 3.5H16.0469ZM14.2266 6.72461C13.9394 6.42493 13.4736 6.42487 13.1865 6.72461L10.2598 9.78125C10.0497 10.0009 9.98683 10.3314 10.1006 10.6182C10.2144 10.9051 10.4829 11.0918 10.7803 11.0918H11.9316L9.28516 13.8555C8.998 14.1554 8.99802 14.6415 9.28516 14.9414C9.57233 15.2413 10.038 15.2413 10.3252 14.9414L14.2266 10.8672C14.4369 10.6476 14.4996 10.3172 14.3857 10.0303C14.272 9.74344 14.0043 9.55583 13.707 9.55566H12.5557L14.2266 7.81055C14.5135 7.51063 14.5137 7.02444 14.2266 6.72461Z" fill="#6D7882"/>
</g>
</svg>
