<svg width="18" height="18" viewBox="0 0 18 18" fill="none" xmlns="http://www.w3.org/2000/svg">
<path d="M4.73012 9.45651L0.312034 15.4895L2.5476 15.7673L3.56944 17.6997L7.98753 11.6667L4.73012 9.45651Z" fill="white"/>
<path d="M4.67685 9.16061C4.7584 9.14703 4.84231 9.16516 4.90995 9.21105L8.16733 11.4212C8.30815 11.5168 8.34184 11.7042 8.24259 11.8397L3.82446 17.8727C3.76145 17.9587 3.65626 18.0067 3.54718 17.9992C3.4381 17.9917 3.34101 17.9298 3.29138 17.836L2.34423 16.0448L0.272119 15.7873C0.163679 15.7738 0.0703989 15.7068 0.0263789 15.6105C-0.0176339 15.5141 -0.00599866 15.4025 0.0570012 15.3165L4.47514 9.28349L4.49418 9.26003C4.54112 9.20782 4.60556 9.1725 4.67685 9.16061ZM0.865064 15.2555L2.58753 15.4695L2.60657 15.4725C2.70077 15.4899 2.78182 15.5482 2.82565 15.6311L3.61254 17.1194L7.55276 11.739L4.80543 9.875L0.865064 15.2555Z" fill="#3E3A39"/>
<path d="M5.88689 10.6844C5.98615 10.5488 6.18084 10.5164 6.32169 10.6119C6.46254 10.7075 6.49623 10.8949 6.39695 11.0304L3.4953 14.9928C3.39603 15.1284 3.20135 15.1608 3.06049 15.0653C2.9197 14.9697 2.88601 14.7825 2.98523 14.6469L5.88689 10.6844Z" fill="#3E3A39"/>
<path d="M13.2683 9.45651L17.688 15.4895L15.4524 15.7673L14.4306 17.6997L10.0109 11.6667L13.2683 9.45651Z" fill="white"/>
<path d="M13.1155 9.19463C13.2533 9.11993 13.4303 9.15641 13.5233 9.28349L17.943 15.3165C18.006 15.4025 18.0176 15.514 17.9736 15.6103C17.9296 15.7067 17.8364 15.7738 17.7279 15.7873L15.6556 16.0448L14.7086 17.836C14.659 17.9298 14.562 17.9917 14.453 17.9992C14.3439 18.0068 14.2386 17.9589 14.1756 17.8728L9.7559 11.8397C9.70824 11.7746 9.68938 11.694 9.70349 11.6155C9.7176 11.537 9.76353 11.4671 9.83116 11.4212L13.0885 9.21105L13.1155 9.19463ZM10.4457 11.739L14.3873 17.1194L15.1744 15.6311L15.1837 15.6149C15.2324 15.5353 15.3166 15.4815 15.4125 15.4695L17.1346 15.2555L13.1931 9.87485L10.4457 11.739Z" fill="#3E3A39"/>
<path d="M11.6767 10.6119C11.8175 10.5164 12.0122 10.5489 12.1115 10.6844L15.0147 14.6468C15.114 14.7823 15.0804 14.9697 14.9396 15.0653C14.7988 15.1608 14.6041 15.1285 14.5048 14.993L11.6014 11.0304C11.5022 10.8949 11.5359 10.7075 11.6767 10.6119Z" fill="#3E3A39"/>
<path d="M15.2481 7.12168L16.0874 5.29435L14.4119 4.11567L14.1872 2.12919L12.1233 1.91297L10.8986 0.300363L9.00001 1.10967L7.10142 0.300363L5.87521 1.91297L3.81281 2.12919L3.58816 4.11567L1.9111 5.29435L2.75197 7.12168L1.9111 8.949L3.58816 10.1292L3.81281 12.1157L5.87521 12.3304L7.10142 13.9445L9.00001 13.1352L10.8986 13.9445L12.1233 12.3304L14.1872 12.1157L14.4119 10.1292L16.0874 8.949L15.2481 7.12168Z" fill="white"/>
<path d="M10.7977 0.0161921C10.9258 -0.0260649 11.0693 0.0162143 11.1505 0.123086L12.2937 1.62869L14.2209 1.8306C14.3665 1.84585 14.4816 1.95661 14.4975 2.09674L14.7071 3.95132L16.2714 5.05194C16.3898 5.13523 16.432 5.28662 16.3727 5.41573L15.5892 7.12163L16.3727 8.82753C16.432 8.95659 16.3899 9.10799 16.2716 9.19133L14.7071 10.2933L14.4975 12.1481C14.4816 12.2883 14.3665 12.3991 14.2208 12.4143L12.2939 12.6146L11.1506 14.1216C11.0641 14.2358 10.9064 14.2762 10.7722 14.219L8.99992 13.4636L7.22779 14.219C7.09363 14.2762 6.93612 14.2358 6.84951 14.1218L5.7046 12.6146L3.77921 12.4143C3.63355 12.3991 3.51855 12.2883 3.50269 12.1481L3.29275 10.2933L1.72691 9.19147C1.60846 9.10812 1.56634 8.95652 1.62575 8.82739L2.41065 7.12163L1.62575 5.41602C1.5663 5.28683 1.6085 5.13512 1.72706 5.05179L3.29275 3.95132L3.50269 2.09674L3.50681 2.07078C3.53303 1.94312 3.64257 1.84491 3.77905 1.8306L5.70445 1.62869L6.84966 0.122939L6.86673 0.102558C6.95589 0.0044461 7.10206 -0.0278738 7.22779 0.0257231L8.99992 0.781165L10.7722 0.0257231L10.7977 0.0161921ZM6.12707 2.09029C6.07532 2.15834 5.99616 2.2024 5.90906 2.21155L4.09579 2.40144L3.89834 4.1481C3.88885 4.23207 3.84307 4.30841 3.7722 4.35823L2.29822 5.39403L3.03726 7.00007C3.0729 7.07752 3.0729 7.16589 3.03726 7.24333L2.29822 8.84938L3.77235 9.8868L3.79764 9.90659C3.85396 9.95569 3.89003 10.0232 3.89834 10.0966L4.09579 11.843L5.90875 12.0319L5.94105 12.0368C6.01539 12.0523 6.08173 12.0935 6.12707 12.1531L7.20479 13.5718L8.87363 12.8606L8.90425 12.8493C8.97683 12.8268 9.05595 12.8306 9.12638 12.8606L10.7949 13.5718L11.8713 12.1533C11.9231 12.085 12.0024 12.0409 12.0897 12.0319L13.9042 11.843L14.1017 10.0966C14.1112 10.0128 14.1569 9.93661 14.2276 9.8868L15.7004 8.84924L14.9627 7.24304C14.9272 7.16571 14.9272 7.07755 14.9627 7.00022L15.7003 5.39403L14.2278 4.35808C14.157 4.30826 14.1111 4.23203 14.1017 4.1481L13.9042 2.40158L12.0894 2.21155C12.0022 2.2024 11.9232 2.15828 11.8714 2.09014L10.7949 0.672952L9.12638 1.38426C9.04591 1.41856 8.95409 1.41856 8.87363 1.38426L7.20479 0.672805L6.12707 2.09029Z" fill="#3E3A39"/>
<path d="M9.00001 2.27033C6.2153 2.27033 3.9579 4.443 3.9579 7.12318C3.9579 9.80336 6.2153 11.976 9.00001 11.976C11.7847 11.976 14.0421 9.80336 14.0421 7.12318C14.0421 4.96252 12.5757 3.13219 10.5476 2.50306" fill="white"/>
<path d="M3.64588 7.12323C3.64588 4.2772 6.04303 1.97003 9.00006 1.97003C9.17236 1.97006 9.31207 2.1045 9.31207 2.27033C9.31207 2.43617 9.17236 2.57061 9.00006 2.57063C6.38767 2.57063 4.26991 4.6089 4.26991 7.12323C4.26993 9.63753 6.38769 11.6757 9.00006 11.6757C11.6124 11.6756 13.73 9.63752 13.7301 7.12323C13.7301 5.09673 12.3548 3.37913 10.4518 2.78882C10.2878 2.73791 10.1978 2.56878 10.2507 2.41095C10.3036 2.2531 10.4793 2.16637 10.6433 2.21725C12.7965 2.88519 14.3541 4.82841 14.3541 7.12323C14.3541 9.96922 11.957 12.2762 9.00006 12.2763C6.04305 12.2763 3.64591 9.96923 3.64588 7.12323Z" fill="#3E3A39"/>
<path d="M11.947 6.32889C11.8939 6.17273 11.7426 6.06762 11.5725 6.06762H9.89236L9.37286 4.52859C9.31982 4.37243 9.1685 4.26733 8.99845 4.26733C8.8284 4.26733 8.67708 4.37243 8.62404 4.52859L8.10454 6.06762H6.42435C6.2543 6.06762 6.10298 6.17273 6.04994 6.32889C5.99689 6.48504 6.05462 6.65621 6.19346 6.75231L7.55383 7.70276L7.03433 9.2418C6.98129 9.39795 7.03901 9.56912 7.17786 9.66522C7.31515 9.76132 7.50235 9.76132 7.63964 9.66522L9.00001 8.71477L10.3588 9.66522C10.4275 9.71327 10.5086 9.73729 10.5897 9.73729C10.6708 9.73729 10.752 9.71327 10.8206 9.66522C10.9579 9.56912 11.0156 9.39795 10.9641 9.2418L10.4446 7.70276L11.805 6.75231C11.9423 6.65621 12 6.48504 11.947 6.32889Z" fill="white"/>
<path d="M8.99838 3.96703C9.28397 3.96703 9.54025 4.13252 9.64952 4.3839L9.66948 4.43522L9.66963 4.4358L10.1191 5.76736H11.5725C11.8771 5.76736 12.1485 5.95558 12.2436 6.23555C12.3386 6.51531 12.2354 6.82228 11.9885 6.9951L11.9882 6.99539L10.8113 7.81741L11.2609 9.14896L11.2615 9.15101C11.3532 9.42923 11.251 9.73523 11.0041 9.90807C10.8804 9.99459 10.7347 10.0375 10.5897 10.0375C10.4447 10.0375 10.299 9.99456 10.1754 9.90807L8.99975 9.08591L7.823 9.90822C7.57678 10.0805 7.24226 10.0806 6.99575 9.90895C6.74621 9.73624 6.64267 9.42866 6.73782 9.14852L7.18694 7.81741L6.0102 6.99539L6.01035 6.99525C5.76157 6.8224 5.65831 6.51531 5.75333 6.23555C5.84843 5.95561 6.11968 5.76739 6.42428 5.76736H7.87785L8.32728 4.4358L8.32743 4.43522C8.42254 4.15529 8.69379 3.96705 8.99838 3.96703ZM8.99838 4.56763C8.96316 4.56765 8.93184 4.58928 8.92068 4.62129L8.40132 6.16048C8.35954 6.28418 8.2397 6.36796 8.10455 6.36796H6.42428C6.38885 6.36799 6.35741 6.38989 6.34643 6.42221C6.33689 6.45033 6.34483 6.4804 6.36578 6.50051L6.37568 6.50843L6.37675 6.50931L7.73708 7.45977C7.8465 7.53622 7.89236 7.67179 7.85058 7.79556L7.33107 9.3346L7.33091 9.33518C7.32003 9.36732 7.33189 9.40193 7.36001 9.4214L7.36138 9.42228C7.38925 9.44176 7.42828 9.44192 7.45615 9.42243L7.4563 9.42213L8.81678 8.47182L8.83765 8.45833C8.94443 8.39565 9.081 8.40013 9.18349 8.47182L10.5423 9.42228C10.5559 9.43184 10.5724 9.43694 10.5897 9.43694C10.6069 9.43694 10.6234 9.43197 10.6371 9.42243C10.6647 9.4031 10.678 9.36675 10.6668 9.33269L10.1479 7.79556C10.1061 7.67179 10.1519 7.53622 10.2614 7.45977L11.6217 6.50931C11.6492 6.4899 11.6614 6.45467 11.6503 6.42221C11.6393 6.38987 11.6079 6.36796 11.5725 6.36796H9.89237C9.75721 6.36796 9.63737 6.28419 9.59559 6.16048L9.07623 4.62188C9.06523 4.58956 9.03383 4.56763 8.99838 4.56763Z" fill="#3E3A39"/>
</svg>
