<svg width="20" height="21" viewBox="0 0 20 21" fill="none" xmlns="http://www.w3.org/2000/svg">
<g id="child discount">
<path id="Vector" d="M12.7942 8.76855H7.10742V20.7068H12.7942V8.76855Z" fill="#FA967C"/>
<g id="Group">
<g id="Vector_2" style="mix-blend-mode:multiply">
<path d="M9.99805 2.34961L14.8791 8.76875H18.2791L9.99805 2.34961Z" fill="#FA967C"/>
</g>
<g id="Vector_3" style="mix-blend-mode:multiply">
<path d="M1.7168 8.76875H5.1168L9.99951 2.34961L1.7168 8.76875Z" fill="#FA967C"/>
</g>
<g id="Vector_4" style="mix-blend-mode:multiply">
<path d="M5.11523 8.76875H8.22227L9.99795 2.34961L5.11523 8.76875Z" fill="#D63D4A"/>
</g>
<g id="Vector_5" style="mix-blend-mode:multiply">
<path d="M11.7721 8.76875H14.8791L9.99805 2.34961L11.7721 8.76875Z" fill="#D63D4A"/>
</g>
<path id="Vector_6" d="M8.22461 8.76875H11.7743L10.0003 2.34961L8.22461 8.76875Z" fill="#FA967C"/>
</g>
<path id="Vector_7" d="M18.095 20.7402H1.9072C1.29035 20.7402 0.789062 20.2389 0.789062 19.622C0.789062 19.0052 1.29035 18.5039 1.9072 18.5039H18.095C18.7119 18.5039 19.2132 19.0052 19.2132 19.622C19.2132 20.2405 18.7119 20.7402 18.095 20.7402Z" fill="#D63D4A"/>
<path id="Vector_8" d="M4.1398 15.0724C4.1398 15.0728 4.13943 15.0732 4.13899 15.0732C4.10833 15.0731 4.07767 15.0699 4.0454 15.0634C3.78011 15.0113 3.60758 14.7558 3.65967 14.4905L4.47345 10.3321C4.52553 10.0668 4.78106 9.89587 5.04636 9.94632C5.31165 9.99841 5.48417 10.2539 5.43209 10.5192L4.61831 14.6777C4.57279 14.9101 4.36815 15.0712 4.14061 15.0715C4.14017 15.0715 4.1398 15.0719 4.1398 15.0724Z" fill="#FA967C"/>
<path id="Vector_9" d="M15.9656 15.0748C15.9656 15.0743 15.9653 15.074 15.9648 15.074C15.7357 15.0736 15.5326 14.9125 15.4871 14.6801L14.6733 10.5216C14.6213 10.2563 14.7938 10.0008 15.0591 9.94873C15.3227 9.89665 15.5799 10.0692 15.632 10.3345L16.4458 14.4929C16.4978 14.7582 16.3253 15.0137 16.06 15.0658C16.0294 15.0723 15.9971 15.0755 15.9664 15.0756C15.966 15.0756 15.9656 15.0752 15.9656 15.0748Z" fill="#FA967C"/>
<path id="Vector_10" d="M4.65002 16.8395H3.29913C2.7067 16.8395 2.22656 16.3593 2.22656 15.7669C2.22656 15.1745 2.7067 14.6943 3.29913 14.6943H4.65002C5.24245 14.6943 5.72259 15.1745 5.72259 15.7669C5.72259 16.3593 5.24245 16.8395 4.65002 16.8395Z" fill="#FA967C"/>
<g id="Union" style="mix-blend-mode:multiply">
<path d="M9.9502 9.9375C10.2202 9.93769 10.4385 10.1557 10.4385 10.4258V14.584C10.4385 14.622 10.432 14.6588 10.4238 14.6943H10.627C11.2191 14.6945 11.699 15.1745 11.6992 15.7666C11.6992 16.3589 11.2192 16.8396 10.627 16.8398H9.27539C8.68309 16.8397 8.20312 16.3589 8.20312 15.7666C8.20335 15.1745 8.68322 14.6945 9.27539 14.6943H9.47559C9.46741 14.6588 9.46191 14.622 9.46191 14.584V10.4258C9.46191 10.1556 9.68002 9.9375 9.9502 9.9375Z" fill="#D63D4A"/>
</g>
<path id="Vector_11" d="M16.8004 16.8395H15.4495C14.8571 16.8395 14.377 16.3593 14.377 15.7669C14.377 15.1745 14.8571 14.6943 15.4495 14.6943H16.8004C17.3928 14.6943 17.873 15.1745 17.873 15.7669C17.873 16.3593 17.3928 16.8395 16.8004 16.8395Z" fill="#FA967C"/>
<path id="Vector_12" d="M10.0013 3.65684C10.8067 3.65684 11.4596 3.00394 11.4596 2.19854C11.4596 1.39314 10.8067 0.740234 10.0013 0.740234C9.19587 0.740234 8.54297 1.39314 8.54297 2.19854C8.54297 3.00394 9.19587 3.65684 10.0013 3.65684Z" fill="#D63D4A"/>
<path id="Vector_13" d="M18.7203 10.7975H1.27765C0.701488 10.7975 0.234375 10.3304 0.234375 9.75421C0.234375 9.17805 0.701488 8.71094 1.27765 8.71094H18.722C19.2981 8.71094 19.7652 9.17805 19.7652 9.75421C19.7652 10.3304 19.2981 10.7975 18.722 10.7975H18.7203Z" fill="#D63D4A"/>
</g>
</svg>
