<svg width="16" height="16" viewBox="0 0 16 16" fill="none" xmlns="http://www.w3.org/2000/svg">
<path d="M1.33398 8.00008C1.33398 11.682 4.31875 14.6667 8.00065 14.6667C11.6826 14.6667 14.6673 11.682 14.6673 8.00008C14.6673 4.31818 11.6826 1.33341 8.00065 1.33341C4.31875 1.33341 1.33398 4.31818 1.33398 8.00008Z" fill="#DE3412"/>
<path d="M9.62376 5.62313C9.83204 5.41485 10.1704 5.41485 10.3786 5.62313C10.5867 5.83132 10.5866 6.16879 10.3786 6.37703L8.75461 8.00106L10.3777 9.62313C10.5856 9.83132 10.5856 10.1688 10.3777 10.377C10.1694 10.5853 9.83106 10.5853 9.62278 10.377L8.00071 8.75496L6.37864 10.377C6.17036 10.5853 5.83203 10.5853 5.62376 10.377C5.41587 10.1688 5.41578 9.83132 5.62376 9.62313L7.2468 8.00106L5.62278 6.37703C5.41485 6.16879 5.41476 5.83132 5.62278 5.62313C5.83106 5.41485 6.16938 5.41485 6.37766 5.62313L8.00071 7.24618L9.62376 5.62313Z" fill="white"/>
</svg>
