<svg width="33" height="33" viewBox="0 0 33 33" fill="none" xmlns="http://www.w3.org/2000/svg">
<g id="icon/line/exclamation">
<path id="Ellipse 504 (Stroke)" fill-rule="evenodd" clip-rule="evenodd" d="M3.16699 16.4998C3.16699 9.13604 9.13653 3.1665 16.5003 3.1665C23.8641 3.1665 29.8337 9.13604 29.8337 16.4998C29.8337 23.8636 23.8641 29.8332 16.5003 29.8332C9.13653 29.8332 3.16699 23.8636 3.16699 16.4998Z" fill="#E6E8EA"/>
<path id="Union" fill-rule="evenodd" clip-rule="evenodd" d="M16.4993 9.8335C15.763 9.8335 15.166 10.4304 15.166 11.1668V17.8335C15.166 18.5699 15.763 19.1668 16.4993 19.1668C17.2357 19.1668 17.8327 18.5699 17.8327 17.8335V11.1668C17.8327 10.4304 17.2357 9.8335 16.4993 9.8335ZM16.4993 20.5002C15.763 20.5002 15.166 21.0971 15.166 21.8335C15.166 22.5699 15.763 23.1668 16.4993 23.1668C17.2357 23.1668 17.8327 22.5699 17.8327 21.8335C17.8327 21.0971 17.2357 20.5002 16.4993 20.5002Z" fill="#464C53"/>
</g>
</svg>
