<svg width="17" height="16" viewBox="0 0 17 16" fill="none" xmlns="http://www.w3.org/2000/svg">
<g id="icon/search">
<path id="Vector" fill-rule="evenodd" clip-rule="evenodd" d="M3.16554 7.26689C3.16554 4.72638 5.22503 2.66689 7.76554 2.66689C10.3061 2.66689 12.3655 4.72638 12.3655 7.26689C12.3655 8.47568 11.8993 9.57558 11.1368 10.3965C11.0865 10.4216 11.0393 10.4551 10.9974 10.497C10.9554 10.539 10.9218 10.5863 10.8968 10.6367C10.0756 11.4 8.97511 11.8669 7.76554 11.8669C5.22503 11.8669 3.16554 9.8074 3.16554 7.26689ZM11.3786 11.6325C10.3978 12.4451 9.13872 12.9336 7.76554 12.9336C4.63593 12.9336 2.09888 10.3965 2.09888 7.26689C2.09888 4.13727 4.63593 1.60022 7.76554 1.60022C10.8952 1.60022 13.4322 4.13727 13.4322 7.26689C13.4322 8.63921 12.9444 9.89761 12.1327 10.8781L14.3441 13.0896C14.5524 13.2978 14.5524 13.6355 14.3441 13.8438C14.1359 14.0521 13.7982 14.0521 13.5899 13.8438L11.3786 11.6325Z" fill="#4E5C6E"/>
</g>
</svg>
