<svg width="24" height="25" viewBox="0 0 24 25" fill="none" xmlns="http://www.w3.org/2000/svg">
<path d="M8.98694 4.56586C9.42452 4.43392 9.89409 4.45584 10.3175 4.62796C10.7409 4.80008 11.0925 5.11202 11.3139 5.51186L11.3879 5.66086L12.0499 7.13186C12.2505 7.57842 12.3155 8.07403 12.2369 8.5572C12.1583 9.04037 11.9396 9.48984 11.6079 9.84986L11.4749 9.98186L10.4319 10.9549C10.2439 11.1329 10.3849 11.8219 11.0649 12.9999C11.6769 14.0599 12.1749 14.5549 12.4199 14.5819H12.4629L12.5159 14.5719L14.5659 13.9449C14.8415 13.8604 15.1355 13.857 15.4128 13.9352C15.6902 14.0134 15.9392 14.1699 16.1299 14.3859L16.2209 14.5009L17.5779 16.3809C17.8439 16.7493 17.9764 17.1974 17.9537 17.6513C17.931 18.1052 17.7544 18.5378 17.4529 18.8779L17.3309 19.0039L16.7889 19.5179C16.3022 19.9788 15.6934 20.2902 15.0348 20.4152C14.3763 20.5402 13.6957 20.4734 13.0739 20.2229C11.1389 19.4429 9.38094 17.6609 7.78394 14.8949C6.18394 12.1219 5.51894 9.70486 5.81594 7.63486C5.90581 7.00912 6.16348 6.41941 6.56157 5.92835C6.95967 5.43729 7.48333 5.06322 8.07694 4.84586L8.26994 4.78186L8.98694 4.56586Z" fill="#33363D"/>
</svg>
