<svg width="20" height="20" viewBox="0 0 20 20" fill="none" xmlns="http://www.w3.org/2000/svg">
<g clip-path="url(#clip0_95_283)">
<path d="M17.9166 9.01769V15.7406C17.9166 16.2072 17.7313 16.6546 17.4014 16.9846C17.0714 17.3145 16.624 17.4998 16.1574 17.4998H3.84257C3.37599 17.4998 2.92851 17.3145 2.59859 16.9846C2.26866 16.6546 2.08331 16.2072 2.08331 15.7406V9.01769H17.9166ZM13.5185 1.6665C13.7518 1.6665 13.9755 1.75918 14.1405 1.92414C14.3055 2.0891 14.3981 2.31284 14.3981 2.54613V3.42576H16.1574C16.624 3.42576 17.0714 3.61111 17.4014 3.94104C17.7313 4.27096 17.9166 4.71844 17.9166 5.18502V7.32127H2.08331V5.18502C2.08331 4.71844 2.26866 4.27096 2.59859 3.94104C2.92851 3.61111 3.37599 3.42576 3.84257 3.42576H5.60183V2.54613C5.60183 2.31284 5.69451 2.0891 5.85947 1.92414C6.02443 1.75918 6.24817 1.6665 6.48146 1.6665C6.71475 1.6665 6.93849 1.75918 7.10345 1.92414C7.26841 2.0891 7.36109 2.31284 7.36109 2.54613V3.42576H12.6389V2.54613C12.6389 2.31284 12.7315 2.0891 12.8965 1.92414C13.0615 1.75918 13.2852 1.6665 13.5185 1.6665Z" fill="#6D7882"/>
</g>
<defs>
<clipPath id="clip0_95_283">
<rect width="20" height="20" fill="white"/>
</clipPath>
</defs>
</svg>
