<svg width="40" height="40" viewBox="0 0 40 40" fill="none" xmlns="http://www.w3.org/2000/svg">
<ellipse cx="19.7131" cy="31.0932" rx="18.963" ry="3.55556" fill="#FDCFC3"/>
<path d="M27.4072 5.4165C29.4527 5.4165 31.1117 7.07543 31.1117 9.12093V15.1756C31.6565 14.8601 32.2873 14.6761 32.9623 14.6759C35.0075 14.6759 36.6663 16.3336 36.6667 18.3787C36.6667 19.5574 36.1141 20.6049 35.2555 21.2824C34.9963 21.487 34.8145 21.7855 34.8145 22.1157V26.7121C34.8145 27.7348 33.985 28.5643 32.9623 28.5643H7.03777C6.01502 28.5643 5.18556 27.7348 5.18556 26.7121V22.1157C5.18556 21.7855 5.00375 21.487 4.74448 21.2824C3.8861 20.6052 3.33357 19.5587 3.33334 18.3804C3.33334 16.3349 4.99227 14.6759 7.03777 14.6759C7.7127 14.6761 8.34349 14.8601 8.88836 15.1756V9.12093C8.88836 7.07543 10.5473 5.4165 12.5928 5.4165H27.4072Z" fill="#FA967C"/>
<path d="M10.7406 29.4902C10.7406 30.0016 10.3258 30.4163 9.81447 30.4163H7.96226C7.45118 30.416 7.03778 30.0014 7.03778 29.4902V28.5641H10.7406V29.4902Z" fill="#D63D4A"/>
<path d="M32.9623 29.4902C32.9623 30.0014 32.5488 30.4159 32.0378 30.4163H30.1856C29.6742 30.4163 29.2595 30.0016 29.2595 29.4902V28.5641H32.9623V29.4902Z" fill="#D63D4A"/>
<path d="M27.4072 22.083C28.43 22.083 29.2595 22.9125 29.2595 23.9352V28.5641H10.7406V23.9352C10.7406 22.9125 11.57 22.083 12.5928 22.083H27.4072Z" fill="#D63D4A"/>
<path d="M15.8327 16.5275C16.5996 16.5275 17.2223 17.1245 17.2227 17.8605C17.2227 18.5969 16.5998 19.1952 15.8327 19.1952C15.0659 19.1949 14.4444 18.5967 14.4444 17.8605C14.4448 17.1246 15.0662 16.5278 15.8327 16.5275Z" fill="white"/>
<path d="M24.1661 16.5275C24.9329 16.5275 25.5556 17.1245 25.5561 17.8605C25.5561 18.5969 24.9331 19.1952 24.1661 19.1952C23.3993 19.1949 22.7777 18.5967 22.7777 17.8605C22.7781 17.1246 23.3995 16.5278 24.1661 16.5275Z" fill="white"/>
<path d="M15.8327 10.0464C16.5997 10.0464 17.2225 10.6432 17.2227 11.3794C17.2227 12.1158 16.5998 12.7124 15.8327 12.7124C15.0659 12.7121 14.4444 12.1156 14.4444 11.3794C14.4446 10.6433 15.066 10.0467 15.8327 10.0464Z" fill="white"/>
<path d="M24.1661 10.0464C24.933 10.0464 25.5559 10.6432 25.5561 11.3794C25.5561 12.1158 24.9331 12.7124 24.1661 12.7124C23.3993 12.7121 22.7777 12.1156 22.7777 11.3794C22.7779 10.6433 23.3994 10.0467 24.1661 10.0464Z" fill="white"/>
</svg>
