<svg width="20" height="20" viewBox="0 0 20 20" fill="none" xmlns="http://www.w3.org/2000/svg">
<path fill-rule="evenodd" clip-rule="evenodd" d="M10 2.99984C6.13403 2.99984 3.00002 6.13384 3.00002 9.99984C3.00002 13.8658 6.13403 16.9998 10 16.9998C13.866 16.9998 17 13.8658 17 9.99984C17 6.13384 13.866 2.99984 10 2.99984ZM1.66669 9.99984C1.66669 5.39746 5.39765 1.6665 10 1.6665C14.6024 1.6665 18.3334 5.39746 18.3334 9.99984C18.3334 14.6022 14.6024 18.3332 10 18.3332C5.39765 18.3332 1.66669 14.6022 1.66669 9.99984Z" fill="#33363D"/>
<path fill-rule="evenodd" clip-rule="evenodd" d="M8.94612 7.4043C8.73289 7.68387 8.66604 8.01635 8.66604 8.16667H7.3327C7.3327 7.76143 7.47419 7.13558 7.88595 6.5957C8.32289 6.02283 9.03869 5.58333 10.0827 5.58333C11.1013 5.58333 11.8233 5.97746 12.2367 6.58203C12.6249 7.14969 12.687 7.82753 12.5631 8.32717C12.3592 9.14921 11.8635 9.77808 11.526 10.0801C11.4319 10.1643 11.3507 10.2359 11.2802 10.2981C11.0206 10.527 10.9051 10.6288 10.8184 10.7667C10.7414 10.8893 10.6647 11.0899 10.6647 11.6667H9.3314C9.3314 10.9934 9.41544 10.4933 9.68957 10.0572C9.88919 9.73958 10.1876 9.47946 10.4669 9.23597C10.5247 9.18557 10.5817 9.13588 10.6368 9.08654C10.818 8.92438 11.1422 8.51746 11.269 8.00617C11.3104 7.83913 11.2892 7.55864 11.1361 7.33464C11.0081 7.14754 10.7308 6.91667 10.0827 6.91667C9.46005 6.91667 9.13418 7.15772 8.94612 7.4043Z" fill="#33363D"/>
<path d="M9.16604 13.3333C9.16604 12.8731 9.53913 12.5 9.99937 12.5C10.4596 12.5 10.8327 12.8731 10.8327 13.3333C10.8327 13.7936 10.4596 14.1667 9.99937 14.1667C9.53913 14.1667 9.16604 13.7936 9.16604 13.3333Z" fill="#33363D"/>
</svg>
