<svg width="20" height="20" viewBox="0 0 20 20" fill="none" xmlns="http://www.w3.org/2000/svg">
<g id="Component 10">
<path id="Union" fill-rule="evenodd" clip-rule="evenodd" d="M3.8119 6.61541C4.25324 3.30533 7.0768 0.833252 10.4162 0.833252C13.7556 0.833252 16.5791 3.30533 17.0205 6.61541L17.4328 10.9636C17.4766 11.4251 17.6341 11.8685 17.8912 12.2541L18.7319 13.5151C18.9844 13.8939 18.9345 14.3983 18.6126 14.7202C18.4335 14.8993 18.1906 14.9999 17.9373 14.9999H2.8951C2.64181 14.9999 2.3989 14.8993 2.2198 14.7202C1.8979 14.3983 1.84795 13.8939 2.10047 13.5151L2.94116 12.2541C3.19827 11.8685 3.35576 11.4251 3.39952 10.9636L3.8119 6.61541ZM7.20186 17.2297C6.9053 16.773 7.30153 16.2499 7.84602 16.2499H12.153C12.6975 16.2499 13.0937 16.773 12.7972 17.2297C12.2029 18.1447 11.1718 18.7499 9.99952 18.7499C8.82722 18.7499 7.7961 18.1447 7.20186 17.2297Z" fill="#838D9A"/>
</g>
</svg>
