<svg width="20" height="20" viewBox="0 0 20 20" fill="none" xmlns="http://www.w3.org/2000/svg">
<path fill-rule="evenodd" clip-rule="evenodd" d="M15.8925 4.10762C16.0208 4.23586 16.0912 4.41079 16.0877 4.5921L15.9698 10.6025C15.9626 10.9706 15.6583 11.2632 15.2902 11.256C14.9221 11.2488 14.6295 10.9445 14.6367 10.5764L14.7221 6.22083L5.0507 15.8923C4.79035 16.1526 4.36824 16.1526 4.10789 15.8923C3.84754 15.6319 3.84754 15.2098 4.10789 14.9495L13.7793 5.27802L9.42379 5.36342C9.05567 5.37064 8.7514 5.07807 8.74419 4.70995C8.73697 4.34183 9.02954 4.03756 9.39766 4.03034L15.4081 3.91249C15.5894 3.90894 15.7643 3.97939 15.8925 4.10762Z" fill="#33363D"/>
</svg>
