<svg width="36" height="36" viewBox="0 0 36 36" fill="none" xmlns="http://www.w3.org/2000/svg">
<g clip-path="url(#clip0_4078_330594)">
<rect x="0.0527344" y="27.8027" width="35.9524" height="4.73574" rx="2.36787" transform="rotate(0.631567 0.0527344 27.8027)" fill="#ACB1B6" fill-opacity="0.28"/>
<path d="M34.9929 19.665C34.9929 18.0009 33.9363 16.5213 32.3631 15.9804L29.8566 14.9999H2.7171C1.773 14.9999 1.0071 15.8859 1.0071 16.83V23.6275H34.9938L34.9929 19.665Z" fill="#3A7BA3"/>
<path d="M1.0071 23.6275V24.557C1.0071 25.4543 1.7343 26.1815 2.6316 26.1815H33.2829C34.227 26.1815 34.9929 25.4156 34.9929 24.4715L34.9938 23.6275H1.0071Z" fill="#3A7BA3"/>
<path d="M28.4391 31.3812C30.9244 31.3812 32.9391 29.3665 32.9391 26.8812C32.9391 24.3959 30.9244 22.3812 28.4391 22.3812C25.9538 22.3812 23.9391 24.3959 23.9391 26.8812C23.9391 29.3665 25.9538 31.3812 28.4391 31.3812Z" fill="#313D4C"/>
<path d="M28.4391 28.6812C29.4332 28.6812 30.2391 27.8753 30.2391 26.8812C30.2391 25.8871 29.4332 25.0812 28.4391 25.0812C27.445 25.0812 26.6391 25.8871 26.6391 26.8812C26.6391 27.8753 27.445 28.6812 28.4391 28.6812Z" fill="#6B7683"/>
<path d="M7.5609 31.3812C10.0462 31.3812 12.0609 29.3665 12.0609 26.8812C12.0609 24.3959 10.0462 22.3812 7.5609 22.3812C5.07562 22.3812 3.0609 24.3959 3.0609 26.8812C3.0609 29.3665 5.07562 31.3812 7.5609 31.3812Z" fill="#313D4C"/>
<path d="M7.5609 28.6812C8.55501 28.6812 9.3609 27.8753 9.3609 26.8812C9.3609 25.8871 8.55501 25.0812 7.5609 25.0812C6.56679 25.0812 5.7609 25.8871 5.7609 26.8812C5.7609 27.8753 6.56679 28.6812 7.5609 28.6812Z" fill="#6B7683"/>
<path d="M34.9929 21.8952H34.2801C33.6897 21.8952 33.2109 21.4164 33.2109 20.826C33.2109 20.2356 33.6897 19.7568 34.2801 19.7568H34.9929V21.8952Z" fill="white"/>
<path d="M24.8218 8.6752C23.9479 7.49981 21.8447 6.5296 20.4479 6.5296H8.8966C7.1641 6.5296 5.94788 7.99981 5.3587 9.4654L3.1095 15.0001H29.8107L24.8218 8.6752Z" fill="#3B4B60"/>
<path d="M8.85204 10.621C9.16504 9.88093 9.89054 9.40005 10.6941 9.40005H19.2503C20.187 9.40005 21.0699 9.83756 21.6373 10.5829L25 15H7L8.85204 10.621Z" fill="white"/>
<path d="M14 9H16.8V15H14V9Z" fill="#3B4B60"/>
</g>
<defs>
<clipPath id="clip0_4078_330594">
<rect width="36" height="36" fill="white"/>
</clipPath>
</defs>
</svg>
