<svg width="20" height="20" viewBox="0 0 20 20" fill="none" xmlns="http://www.w3.org/2000/svg">
<path d="M1.66699 9.99992C1.66699 14.6023 5.39795 18.3333 10.0003 18.3333C14.6027 18.3333 18.3337 14.6023 18.3337 9.99992C18.3337 5.39755 14.6027 1.66658 10.0003 1.66658C5.39795 1.66658 1.66699 5.39755 1.66699 9.99992Z" fill="#6D7882"/>
<path fill-rule="evenodd" clip-rule="evenodd" d="M13.5894 6.81943C13.8696 7.05267 13.9076 7.46889 13.6744 7.74908L9.31841 12.9816C9.19973 13.1241 9.02653 13.2102 8.84122 13.2187C8.6559 13.2271 8.47558 13.1572 8.34439 13.0261L5.99613 10.6784C5.73831 10.4206 5.73826 10.0027 5.99602 9.74485C6.25377 9.48703 6.67172 9.48698 6.92954 9.74473L8.76642 11.5812L12.6597 6.90441C12.893 6.62423 13.3092 6.58618 13.5894 6.81943Z" fill="white"/>
</svg>
