<svg width="24" height="24" viewBox="0 0 24 24" fill="none" xmlns="http://www.w3.org/2000/svg">
<mask id="path-1-inside-1_18336_63798" fill="white">
<path d="M0 12C0 5.37258 5.37258 0 12 0C18.6274 0 24 5.37258 24 12C24 18.6274 18.6274 24 12 24C5.37258 24 0 18.6274 0 12Z"/>
</mask>
<path d="M0 12C0 5.37258 5.37258 0 12 0C18.6274 0 24 5.37258 24 12C24 18.6274 18.6274 24 12 24C5.37258 24 0 18.6274 0 12Z" fill="white"/>
<path d="M12 24V23C5.92487 23 1 18.0751 1 12H0H-1C-1 19.1797 4.8203 25 12 25V24ZM24 12H23C23 18.0751 18.0751 23 12 23V24V25C19.1797 25 25 19.1797 25 12H24ZM12 0V1C18.0751 1 23 5.92487 23 12H24H25C25 4.8203 19.1797 -1 12 -1V0ZM12 0V-1C4.8203 -1 -1 4.8203 -1 12H0H1C1 5.92487 5.92487 1 12 1V0Z" fill="#CDD1D5" mask="url(#path-1-inside-1_18336_63798)"/>
<g clip-path="url(#clip0_18336_63798)">
<path d="M15.3154 8.11816C15.4716 7.96196 15.7246 7.96196 15.8809 8.11816C16.0369 8.27438 16.037 8.52744 15.8809 8.68359L12.5645 12L15.8828 15.3184C16.0389 15.4745 16.0389 15.7276 15.8828 15.8838C15.7266 16.04 15.4736 16.0399 15.3174 15.8838L11.999 12.5654L8.68066 15.8838C8.52446 16.04 8.27145 16.04 8.11523 15.8838C7.95907 15.7276 7.95904 15.4746 8.11523 15.3184L11.4336 12L8.11719 8.68359C7.96102 8.52741 7.96108 8.27438 8.11719 8.11816C8.2734 7.96196 8.52641 7.96195 8.68262 8.11816L11.999 11.4346L15.3154 8.11816Z" fill="#464C53"/>
</g>
<defs>
<clipPath id="clip0_18336_63798">
<rect width="12" height="12" fill="white" transform="translate(6 6)"/>
</clipPath>
</defs>
</svg>
