<svg width="32" height="32" viewBox="0 0 32 32" fill="none" xmlns="http://www.w3.org/2000/svg">
<g clip-path="url(#clip0_15889_398992)">
<path d="M4.97662 18.8322C6.48735 18.8322 7.71204 17.6075 7.71204 16.0967C7.71204 14.586 6.48735 13.3613 4.97662 13.3613C3.4659 13.3613 2.24121 14.586 2.24121 16.0967C2.24121 17.6075 3.4659 18.8322 4.97662 18.8322Z" fill="#FDD9BD"/>
<path d="M27.0255 18.8322C28.5362 18.8322 29.7609 17.6075 29.7609 16.0967C29.7609 14.586 28.5362 13.3613 27.0255 13.3613C25.5147 13.3613 24.29 14.586 24.29 16.0967C24.29 17.6075 25.5147 18.8322 27.0255 18.8322Z" fill="#FDD9BD"/>
<path d="M16.0005 27.0704C22.0609 27.0704 26.9738 22.1576 26.9738 16.0972C26.9738 10.0369 22.0609 5.12402 16.0005 5.12402C9.94022 5.12402 5.02734 10.0369 5.02734 16.0972C5.02734 22.1576 9.94022 27.0704 16.0005 27.0704Z" fill="#FDD9BD"/>
<ellipse cx="23.5475" cy="18.6964" rx="1.96158" ry="1.37311" fill="white"/>
<ellipse cx="8.54654" cy="18.6964" rx="1.96158" ry="1.37311" fill="white"/>
<path d="M12.923 16.7775C13.457 16.7775 13.8899 16.2823 13.8899 15.6715C13.8899 15.0606 13.457 14.5654 12.923 14.5654C12.389 14.5654 11.9561 15.0606 11.9561 15.6715C11.9561 16.2823 12.389 16.7775 12.923 16.7775Z" fill="#313D4C"/>
<path d="M20.0471 15.6715C20.0471 16.2826 19.6138 16.7775 19.0802 16.7775C18.5466 16.7775 18.1133 16.2826 18.1133 15.6715C18.1133 15.0603 18.5466 14.5654 19.0802 14.5654C19.6138 14.5654 20.0471 15.0603 20.0471 15.6715Z" fill="#313D4C"/>
<path d="M5.12695 15.1192C5.12695 15.1192 9.66817 13.2552 12.4157 8.48095C12.4157 8.48095 12.6536 10.811 11.8186 12.5586H20.1826C20.1826 12.5586 20.4205 11.044 19.8234 8.36445C19.8234 8.36445 22.3331 12.6751 26.8719 14.4202C26.8719 14.4202 26.9908 4.40332 16.1196 4.40332C5.24831 4.40332 5.12695 13.0222 5.12695 15.1192Z" fill="#313D4C"/>
<path d="M12.8262 18.3145C12.8262 20.0681 14.2469 21.4889 16.0006 21.4889C17.7543 21.4889 19.175 20.0681 19.175 18.3145H12.8285H12.8262Z" fill="#D63D4A"/>
</g>
<defs>
<clipPath id="clip0_15889_398992">
<rect width="32" height="32" fill="white"/>
</clipPath>
</defs>
</svg>
