<svg width="33" height="32" viewBox="0 0 33 32" fill="none" xmlns="http://www.w3.org/2000/svg">
<rect width="26.6667" height="26.6667" rx="13.3333" transform="matrix(1 0 0 -1 3.1665 29.3335)" fill="#CDD1D5"/>
<path d="M16.3656 12.5882C17.2493 12.5882 17.9656 11.8718 17.9656 10.9882C17.9656 10.1045 17.2493 9.38818 16.3656 9.38818C15.482 9.38818 14.7656 10.1045 14.7656 10.9882C14.7656 11.8718 15.482 12.5882 16.3656 12.5882Z" fill="white"/>
<path d="M15.3667 13.9084C15.2562 13.9084 15.1667 13.9979 15.1667 14.1084V15.5084V20.7918V22.1918C15.1667 22.3023 15.2562 22.3918 15.3667 22.3918H17.3667C17.4771 22.3918 17.5667 22.3023 17.5667 22.1918V20.7918V14.1084C17.5667 13.9979 17.4771 13.9084 17.3667 13.9084H15.3667Z" fill="white"/>
</svg>
