<svg width="16" height="16" viewBox="0 0 16 16" fill="none" xmlns="http://www.w3.org/2000/svg">
<path d="M2.33334 2.99984C2.33334 2.26346 2.9303 1.6665 3.66668 1.6665H12.3333C13.0697 1.6665 13.6667 2.26346 13.6667 2.99984V7.66409C13.6667 9.31779 12.7915 10.848 11.3661 11.6864L10.3661 12.2747C8.90568 13.1338 7.09435 13.1338 5.63392 12.2747L4.63392 11.6864C3.20854 10.848 2.33334 9.31779 2.33334 7.66409V2.99984Z" fill="#FA967C"/>
<path d="M5.33334 13.0002C5.33334 12.632 5.63182 12.3335 6.00001 12.3335H10C10.3682 12.3335 10.6667 12.632 10.6667 13.0002V13.6668C10.6667 14.035 10.3682 14.3335 10 14.3335H6.00001C5.63182 14.3335 5.33334 14.035 5.33334 13.6668V13.0002Z" fill="#D63D4A"/>
<path d="M8.66666 4.99984C8.66666 4.81574 8.51742 4.6665 8.33332 4.6665H7.66666C7.48256 4.6665 7.33332 4.81574 7.33332 4.99984V6.33317H5.99999C5.81589 6.33317 5.66666 6.48241 5.66666 6.6665V7.33317C5.66666 7.51727 5.8159 7.6665 5.99999 7.6665H7.33332V8.99984C7.33332 9.18393 7.48256 9.33317 7.66666 9.33317H8.33332C8.51742 9.33317 8.66666 9.18393 8.66666 8.99984V7.6665H9.99999C10.1841 7.6665 10.3333 7.51727 10.3333 7.33317V6.6665C10.3333 6.48241 10.1841 6.33317 9.99999 6.33317H8.66666V4.99984Z" fill="#D63D4A"/>
</svg>
