<svg width="32" height="32" viewBox="0 0 32 32" fill="none" xmlns="http://www.w3.org/2000/svg">
<path d="M2.66669 16.0002C2.66669 23.364 8.63622 29.3335 16 29.3335C23.3638 29.3335 29.3334 23.364 29.3334 16.0002C29.3334 8.63636 23.3638 2.66683 16 2.66683C8.63622 2.66683 2.66669 8.63636 2.66669 16.0002Z" fill="#DE3412"/>
<path d="M19.2472 11.2466C19.6637 10.8301 20.3385 10.8301 20.755 11.2466C21.1716 11.6631 21.1715 12.3378 20.755 12.7544L17.5079 16.0015L20.7531 19.2466C21.1695 19.6631 21.1695 20.3378 20.7531 20.7544C20.3365 21.1709 19.6618 21.1709 19.2452 20.7544L16.0001 17.5093L12.755 20.7544C12.3384 21.171 11.6638 21.171 11.2472 20.7544C10.8306 20.3378 10.8306 19.6631 11.2472 19.2466L14.4923 16.0015L11.2452 12.7544C10.8287 12.3378 10.8287 11.6631 11.2452 11.2466C11.6618 10.8301 12.3365 10.8301 12.7531 11.2466L16.0001 14.4937L19.2472 11.2466Z" fill="white"/>
</svg>
