<svg width="20" height="20" viewBox="0 0 20 20" fill="none" xmlns="http://www.w3.org/2000/svg">
<path d="M9.66602 2.5C10.0342 2.50004 10.333 2.79883 10.333 3.16699C10.3328 3.53501 10.0341 3.83296 9.66602 3.83301H4C3.90795 3.83301 3.83301 3.90795 3.83301 4L3.83496 16C3.83497 16.092 3.90901 16.1669 4.00098 16.167H15.999C16.0911 16.167 16.166 16.092 16.166 16V10.333C16.1663 9.96504 16.465 9.66699 16.833 9.66699C17.2008 9.66721 17.4988 9.96518 17.499 10.333V16C17.499 16.8284 16.8275 17.5 15.999 17.5H4.00098C3.17268 17.4999 2.50106 16.8283 2.50098 16L2.5 4C2.5 3.17158 3.17156 2.5 4 2.5H9.66602ZM16.833 2.5C17.201 2.50018 17.499 2.79891 17.499 3.16699V7.66699C17.4989 8.035 17.201 8.33381 16.833 8.33398C16.4649 8.33398 16.1661 8.03511 16.166 7.66699V4.77637L9.6377 11.3047C9.37735 11.565 8.95469 11.565 8.69434 11.3047C8.43426 11.0444 8.43437 10.6226 8.69434 10.3623L15.2236 3.83301H12.333C11.9649 3.83301 11.6662 3.53503 11.666 3.16699C11.666 2.7988 11.9648 2.5 12.333 2.5H16.833Z" fill="#33363D"/>
</svg>
