<svg width="16" height="16" viewBox="0 0 16 16" fill="none" xmlns="http://www.w3.org/2000/svg">
<path fill-rule="evenodd" clip-rule="evenodd" d="M5.19922 2.00001C5.19922 1.55818 5.55739 1.20001 5.99922 1.20001H9.99922C10.441 1.20001 10.7992 1.55818 10.7992 2.00001C10.7992 2.44184 10.441 2.80001 9.99922 2.80001H5.99922C5.55739 2.80001 5.19922 2.44184 5.19922 2.00001ZM1.19922 4.33335C1.19922 3.89152 1.55739 3.53335 1.99922 3.53335H13.9992C14.441 3.53335 14.7992 3.89152 14.7992 4.33335C14.7992 4.77517 14.441 5.13335 13.9992 5.13335H13.4659V12C13.4659 13.5464 12.2123 14.8 10.6659 14.8H5.33255C3.78615 14.8 2.53255 13.5464 2.53255 12V5.13335H1.99922C1.55739 5.13335 1.19922 4.77517 1.19922 4.33335ZM4.13255 5.13335V12C4.13255 12.6628 4.66981 13.2 5.33255 13.2H10.6659C11.3286 13.2 11.8659 12.6628 11.8659 12V5.13335H4.13255ZM7.46589 8.00001C7.46589 7.55818 7.10771 7.20001 6.66589 7.20001C6.22406 7.20001 5.86589 7.55818 5.86589 8.00001V10C5.86589 10.4418 6.22406 10.8 6.66589 10.8C7.10771 10.8 7.46589 10.4418 7.46589 10V8.00001ZM9.33255 7.20001C9.77438 7.20001 10.1326 7.55818 10.1326 8.00001V10C10.1326 10.4418 9.77438 10.8 9.33255 10.8C8.89073 10.8 8.53255 10.4418 8.53255 10V8.00001C8.53255 7.55818 8.89073 7.20001 9.33255 7.20001Z" fill="#33363D"/>
</svg>
