<svg width="16" height="16" viewBox="0 0 16 16" fill="none" xmlns="http://www.w3.org/2000/svg">
<rect width="13.3333" height="13.3333" rx="6.66667" transform="matrix(1 0 0 -1 1.33334 14.6665)" fill="#6D7882"/>
<path d="M7.93283 6.29385C8.37466 6.29385 8.73283 5.93568 8.73283 5.49385C8.73283 5.05202 8.37466 4.69385 7.93283 4.69385C7.49101 4.69385 7.13283 5.05202 7.13283 5.49385C7.13283 5.93568 7.49101 6.29385 7.93283 6.29385Z" fill="white"/>
<path d="M6.9995 6.95394C6.88904 6.95394 6.7995 7.04348 6.7995 7.15394V7.55394C6.7995 7.6644 6.88904 7.75394 6.9995 7.75394H7.33387C7.44433 7.75394 7.53387 7.84348 7.53387 7.95394V10.3957H6.86669C6.75623 10.3957 6.66669 10.4852 6.66669 10.5957V10.9957C6.66669 11.1061 6.75623 11.1957 6.86669 11.1957H9.13335C9.24381 11.1957 9.33335 11.1061 9.33335 10.9957V10.5957C9.33335 10.4852 9.24381 10.3957 9.13335 10.3957H8.73387V7.15394C8.73387 7.04348 8.64433 6.95394 8.53387 6.95394H6.9995Z" fill="white"/>
</svg>
