<svg width="24" height="24" viewBox="0 0 24 24" fill="none" xmlns="http://www.w3.org/2000/svg">
<ellipse cx="11.8277" cy="18.6558" rx="11.3778" ry="2.13333" fill="#FDCFC3"/>
<path fill-rule="evenodd" clip-rule="evenodd" d="M8.24277 3.19385C7.94312 3.19395 7.64882 3.27962 7.38969 3.44216C7.13056 3.60471 6.9158 3.83837 6.76717 4.11945L3.72417 9.87234C3.57714 10.15 3.49979 10.4643 3.49977 10.7842V14.9145C3.49979 15.1995 3.56119 15.4805 3.67912 15.7354L4.62942 17.7886C4.77057 18.0938 4.9876 18.3504 5.25619 18.5298C5.52478 18.7092 5.8343 18.8042 6.15007 18.8042H6.89977C7.35064 18.8042 7.78304 18.6107 8.10185 18.2663C8.42066 17.9219 8.59977 17.4548 8.59977 16.9677H15.3998C15.3998 17.4548 15.5789 17.9219 15.8977 18.2663C16.2165 18.6107 16.6489 18.8042 17.0998 18.8042H17.8495C18.1652 18.8042 18.4748 18.7092 18.7434 18.5298C19.0119 18.3504 19.229 18.0938 19.3701 17.7886L20.3204 15.7354C20.4386 15.4811 20.4998 15.1991 20.4998 14.9145V10.7842C20.4998 10.4643 20.4224 10.15 20.2754 9.87234L17.2324 4.11945C17.0837 3.83837 16.869 3.60471 16.6099 3.44216C16.3507 3.27962 16.0564 3.19395 15.7568 3.19385H8.24277Z" fill="#FA967C"/>
<g style="mix-blend-mode:multiply">
<path d="M5.2517 18.5315C4.98311 18.3521 4.76608 18.0954 4.62493 17.7903L4.14978 16.7637H19.8408L19.3656 17.7903C19.2245 18.0954 19.0075 18.3521 18.7389 18.5315C18.4703 18.7108 18.1608 18.8059 17.845 18.8059H17.0953C16.6444 18.8059 16.212 18.6124 15.8932 18.268C15.5744 17.9236 15.3953 17.4564 15.3953 16.9694H8.59528C8.59528 17.4564 8.41617 17.9236 8.09736 18.268C7.77855 18.6124 7.34615 18.8059 6.89528 18.8059H6.14558C5.82981 18.8059 5.52029 18.7108 5.2517 18.5315Z" fill="#D63D4A"/>
</g>
<g style="mix-blend-mode:multiply">
<path d="M6.32943 8.66328L7.71742 5.54031C7.84273 5.25836 8.12232 5.07666 8.43087 5.07666H15.744C16.0525 5.07666 16.3321 5.25837 16.4575 5.54031L17.8454 8.66328C18.0749 9.17957 17.697 9.76111 17.132 9.76111H7.04288C6.47789 9.76111 6.09997 9.17957 6.32943 8.66328Z" fill="#D63D4A"/>
</g>
<circle cx="7.79362" cy="13.343" r="1.17111" fill="white"/>
<circle cx="16.3819" cy="13.343" r="1.17111" fill="white"/>
</svg>
