<svg width="16" height="16" viewBox="0 0 16 16" fill="none" xmlns="http://www.w3.org/2000/svg">
<g clip-path="url(#clip0_97_723)">
<path d="M8.5297 2.77718C8.42267 2.70201 8.39246 2.55147 8.48494 2.45899C8.83854 2.10539 9.31813 1.90674 9.8182 1.90674C10.3183 1.90674 10.7979 2.10539 11.1515 2.45899C11.5051 2.8126 11.7037 3.29218 11.7037 3.79226C11.7037 4.29233 11.5051 4.77191 11.1515 5.12552C10.7979 5.47912 10.3183 5.67777 9.8182 5.67777C9.80262 5.67777 9.79079 5.66392 9.7928 5.64847C9.80963 5.51932 9.8182 5.38854 9.8182 5.25688C9.8182 4.4532 9.49893 3.68243 8.93064 3.11414C8.80612 2.98962 8.67188 2.87705 8.5297 2.77718Z" fill="#D63D4A"/>
<path d="M13.7089 11.1766C13.4132 11.325 13.1211 11.0658 13.0543 10.7418C12.8964 9.97689 12.5494 9.26119 12.0343 8.68171C11.3061 7.86242 10.2938 7.37809 9.21214 7.37809C9.11529 7.37809 9.06429 7.25942 9.1259 7.1847C9.25202 7.03175 9.36221 6.86754 9.45538 6.69468C9.52249 6.57016 9.64899 6.48585 9.79044 6.48585H11.9731C12.6875 6.48585 13.3726 6.80511 13.8777 7.3734C14.3829 7.94169 14.6667 8.71246 14.6667 9.51615C14.6667 9.99836 14.4964 10.4608 14.1933 10.8018C14.0522 10.9605 13.8877 11.0869 13.7089 11.1766Z" fill="#D63D4A"/>
<path d="M5.28796 3.75703C4.89015 4.15483 4.66667 4.69437 4.66667 5.25695C4.66667 5.81953 4.89015 6.35907 5.28796 6.75687C5.68576 7.15467 6.2253 7.37816 6.78787 7.37816C7.35045 7.37816 7.88999 7.15467 8.28779 6.75687C8.6856 6.35907 8.90908 5.81953 8.90908 5.25695C8.90908 4.69437 8.6856 4.15483 8.28779 3.75703C7.88999 3.35923 7.35045 3.13574 6.78787 3.13574C6.2253 3.13574 5.68576 3.35923 5.28796 3.75703Z" fill="#FA967C"/>
<path d="M2.2209 9.28574C2.78919 8.64641 3.55995 8.28724 4.36364 8.28724H9.21211C10.0158 8.28724 10.7866 8.64641 11.3549 9.28574C11.9231 9.92507 12.2424 10.7922 12.2424 11.6963C12.2424 12.2388 12.0508 12.7591 11.7099 13.1427C11.3689 13.5263 10.9064 13.7418 10.4242 13.7418H3.15152C2.66931 13.7418 2.20685 13.5263 1.86588 13.1427C1.5249 12.7591 1.33334 12.2388 1.33334 11.6963C1.33334 10.7922 1.65261 9.92507 2.2209 9.28574Z" fill="#FA967C"/>
</g>
<defs>
<clipPath id="clip0_97_723">
<rect width="16" height="16" fill="white"/>
</clipPath>
</defs>
</svg>
