<svg width="18" height="18" viewBox="0 0 18 18" fill="none" xmlns="http://www.w3.org/2000/svg">
<g id="Vector">
<rect id="20*20" x="17.3335" y="0.666687" width="16.6667" height="16.6667" rx="8.33333" transform="rotate(90 17.3335 0.666687)" fill="#CDD1D5"/>
<path id="Union" fill-rule="evenodd" clip-rule="evenodd" d="M5.72083 4.77876C5.46049 4.51841 5.03838 4.51841 4.77803 4.77876C4.51768 5.03911 4.51768 5.46122 4.77803 5.72157L8.05727 9.00081L4.77933 12.2788C4.51898 12.5391 4.51898 12.9612 4.77933 13.2216C5.03968 13.4819 5.46179 13.4819 5.72214 13.2216L9.00008 9.94362L12.278 13.2216C12.5384 13.4819 12.9605 13.4819 13.2208 13.2216C13.4812 12.9612 13.4812 12.5391 13.2208 12.2788L9.94289 9.00081L13.2221 5.72157C13.4825 5.46122 13.4825 5.03911 13.2221 4.77876C12.9618 4.51841 12.5397 4.51841 12.2793 4.77876L9.00008 8.05801L5.72083 4.77876Z" fill="#33363D"/>
</g>
</svg>
