<svg width="24" height="24" viewBox="0 0 24 24" fill="none" xmlns="http://www.w3.org/2000/svg">
<path d="M3.73198 14.1236C4.86502 14.1236 5.78354 13.2051 5.78354 12.0721C5.78354 10.939 4.86502 10.0205 3.73198 10.0205C2.59893 10.0205 1.68042 10.939 1.68042 12.0721C1.68042 13.2051 2.59893 14.1236 3.73198 14.1236Z" fill="#FA967C"/>
<path d="M20.2683 14.1236C21.4013 14.1236 22.3198 13.2051 22.3198 12.0721C22.3198 10.939 21.4013 10.0205 20.2683 10.0205C19.1352 10.0205 18.2167 10.939 18.2167 12.0721C18.2167 13.2051 19.1352 14.1236 20.2683 14.1236Z" fill="#FA967C"/>
<path d="M12.0002 20.3021C16.5454 20.3021 20.2301 16.6174 20.2301 12.0722C20.2301 7.52694 16.5454 3.84229 12.0002 3.84229C7.45492 3.84229 3.77026 7.52694 3.77026 12.0722C3.77026 16.6174 7.45492 20.3021 12.0002 20.3021Z" fill="#FA967C"/>
<ellipse cx="17.66" cy="14.0215" rx="1.47119" ry="1.02983" fill="white"/>
<ellipse cx="6.40951" cy="14.0215" rx="1.47119" ry="1.02983" fill="white"/>
<path d="M9.6914 12.5824C10.0919 12.5824 10.4166 12.211 10.4166 11.7529C10.4166 11.2947 10.0919 10.9233 9.6914 10.9233C9.29089 10.9233 8.96622 11.2947 8.96622 11.7529C8.96622 12.211 9.29089 12.5824 9.6914 12.5824Z" fill="#D63D4A"/>
<path d="M15.0343 11.7529C15.0343 12.2112 14.7093 12.5824 14.3091 12.5824C13.9089 12.5824 13.5839 12.2112 13.5839 11.7529C13.5839 11.2945 13.9089 10.9233 14.3091 10.9233C14.7093 10.9233 15.0343 11.2945 15.0343 11.7529Z" fill="#D63D4A"/>
<path d="M3.845 11.3392C3.845 11.3392 7.25092 9.94114 9.31158 6.36047C9.31158 6.36047 9.48997 8.10803 8.86377 9.4187H15.1368C15.1368 9.4187 15.3152 8.28278 14.8674 6.27309C14.8674 6.27309 16.7496 9.50607 20.1537 10.8149C20.1537 10.8149 20.2429 3.30225 12.0895 3.30225C3.93602 3.30225 3.845 9.76639 3.845 11.3392Z" fill="#D63D4A"/>
<path d="M9.61923 13.7354C9.61923 15.0506 10.6848 16.1162 12 16.1162C13.3153 16.1162 14.3808 15.0506 14.3808 13.7354H9.62094H9.61923Z" fill="#D63D4A"/>
</svg>
