<svg width="24" height="24" viewBox="0 0 24 24" fill="none" xmlns="http://www.w3.org/2000/svg">
<ellipse cx="11.8279" cy="18.6558" rx="11.3778" ry="2.13333" fill="#FDCFC3"/>
<path d="M19.325 14.7232C18.9 17.2637 17.3797 19.0184 11.9401 19.0184C6.50043 19.0184 4.98008 17.2637 4.55515 14.7232C4.33998 14.6626 4.13208 14.5681 3.93955 14.4397L3.3583 14.0522C3.05972 13.8532 2.88037 13.5181 2.88037 13.1592V12.52C2.88037 9.48779 4.33123 6.63865 6.78348 4.85519C6.94547 4.73738 7.14369 4.67392 7.34399 4.67392C7.63633 4.67392 7.89204 4.79478 8.0743 4.98239C9.20506 4.30702 10.5272 3.91895 11.9401 3.91895C13.3529 3.91895 14.6751 4.30702 15.8058 4.98239C15.9881 4.79478 16.2438 4.67392 16.5361 4.67392C16.7364 4.67392 16.9346 4.73738 17.0966 4.85519C19.5489 6.63865 20.9997 9.48779 20.9997 12.52V13.1592C20.9997 13.5181 20.8204 13.8532 20.5218 14.0522L19.9406 14.4397C19.748 14.5681 19.5401 14.6626 19.325 14.7232Z" fill="white"/>
<path d="M19.4898 11.4687C19.4898 15.6383 19.4898 19.0184 11.94 19.0184C4.39029 19.0184 4.39029 15.6383 4.39029 11.4687C4.39029 7.29908 7.77042 3.91895 11.94 3.91895C16.1096 3.91895 19.4898 7.29908 19.4898 11.4687Z" fill="#FA967C"/>
<ellipse cx="10.2414" cy="14.8663" rx="1.69869" ry="1.13246" fill="white"/>
<ellipse cx="13.6388" cy="14.8663" rx="1.69869" ry="1.13246" fill="white"/>
<path d="M10.0526 11.4684C10.0526 11.8853 9.7146 12.2233 9.29764 12.2233C8.88068 12.2233 8.54266 11.8853 8.54266 11.4684C8.54266 11.0514 8.88068 10.7134 9.29764 10.7134C9.7146 10.7134 10.0526 11.0514 10.0526 11.4684Z" fill="#D63D4A"/>
<path d="M13.45 13.5445C13.45 14.17 12.774 14.677 11.94 14.677C11.1061 14.677 10.4301 14.17 10.4301 13.5445C10.4301 12.9191 11.1061 12.4121 11.94 12.4121C12.774 12.4121 13.45 12.9191 13.45 13.5445Z" fill="#D63D4A"/>
<path d="M14.5825 12.2233C14.9994 12.2233 15.3374 11.8853 15.3374 11.4684C15.3374 11.0514 14.9994 10.7134 14.5825 10.7134C14.1655 10.7134 13.8275 11.0514 13.8275 11.4684C13.8275 11.8853 14.1655 12.2233 14.5825 12.2233Z" fill="#D63D4A"/>
<path d="M8.98564 4.02111C9.72996 3.82903 10.2283 4.76856 9.65181 5.27705L9.58353 5.33728C7.79725 6.91287 6.67496 9.10726 6.44305 11.4778L6.34371 12.4932C6.30089 12.931 6.11703 13.343 5.81982 13.6672C4.70591 14.8824 2.68461 14.3333 2.33875 12.7215L2.24066 12.2643C2.19286 12.0416 2.18629 11.8119 2.22128 11.5867L2.24018 11.4651C2.80051 7.85944 5.45244 4.93288 8.98564 4.02111Z" fill="#D63D4A"/>
<path d="M14.8944 4.02111C14.1501 3.82903 13.6518 4.76856 14.2283 5.27705L14.2966 5.33728C16.0828 6.91287 17.2051 9.10726 17.437 11.4778L17.5364 12.4932C17.5792 12.931 17.7631 13.343 18.0603 13.6672C19.1742 14.8824 21.1955 14.3333 21.5413 12.7215L21.6394 12.2643C21.6872 12.0416 21.6938 11.8119 21.6588 11.5867L21.6399 11.4651C21.0796 7.85944 18.4276 4.93288 14.8944 4.02111Z" fill="#D63D4A"/>
</svg>
