<svg width="17" height="20" viewBox="0 0 17 20" fill="none" xmlns="http://www.w3.org/2000/svg">
<path d="M1.83301 9.99984C1.83301 13.6817 4.81778 16.6665 8.49967 16.6665C12.1816 16.6665 15.1663 13.6817 15.1663 9.99984C15.1663 6.31794 12.1816 3.33317 8.49967 3.33317C4.81778 3.33317 1.83301 6.31794 1.83301 9.99984Z" fill="#DE3412"/>
<path fill-rule="evenodd" clip-rule="evenodd" d="M6.87628 7.62301C6.668 7.41473 6.33031 7.41473 6.12203 7.62301C5.91375 7.83129 5.91375 8.16897 6.12203 8.37725L7.74543 10.0007L6.12307 11.623C5.91479 11.8313 5.91479 12.169 6.12307 12.3773C6.33135 12.5855 6.66904 12.5855 6.87732 12.3773L8.49967 10.7549L10.122 12.3773C10.3303 12.5855 10.668 12.5855 10.8763 12.3773C11.0846 12.169 11.0846 11.8313 10.8763 11.623L9.25392 10.0007L10.8773 8.37725C11.0856 8.16897 11.0856 7.83129 10.8773 7.62301C10.669 7.41473 10.3314 7.41473 10.1231 7.62301L8.49967 9.2464L6.87628 7.62301Z" fill="white"/>
</svg>
