<svg width="24" height="24" viewBox="0 0 24 24" fill="none" xmlns="http://www.w3.org/2000/svg">
<g clip-path="url(#clip0_17162_186007)">
<path d="M8.38443 2.47912C8.90952 2.3208 9.47301 2.34711 9.98107 2.55365C10.4891 2.7602 10.9111 3.13453 11.1768 3.61432L11.2656 3.79312L12.06 5.55832C12.3006 6.0942 12.3787 6.68893 12.2844 7.26873C12.1901 7.84854 11.9276 8.3879 11.5296 8.81992L11.37 8.97832L10.1184 10.1459C9.89283 10.3595 10.062 11.1863 10.878 12.5999C11.6124 13.8719 12.21 14.4659 12.504 14.4983H12.5556L12.6192 14.4863L15.0792 13.7339C15.4098 13.6325 15.7627 13.6285 16.0955 13.7224C16.4283 13.8162 16.7271 14.004 16.956 14.2631L17.0652 14.4011L18.6936 16.6571C19.0128 17.0993 19.1718 17.637 19.1445 18.1817C19.1173 18.7263 18.9053 19.2454 18.5436 19.6535L18.3972 19.8047L17.7468 20.4215C17.1628 20.9746 16.4322 21.3484 15.6419 21.4984C14.8516 21.6483 14.0349 21.5682 13.2888 21.2675C10.9668 20.3315 8.85723 18.1931 6.94083 14.8739C5.02083 11.5463 4.22283 8.64592 4.57923 6.16192C4.68707 5.41104 4.99627 4.70339 5.47399 4.11412C5.9517 3.52485 6.58009 3.07596 7.29243 2.81512L7.52403 2.73832L8.38443 2.47912Z" fill="#33363D"/>
</g>
<defs>
<clipPath id="clip0_17162_186007">
<rect width="24" height="24" fill="white"/>
</clipPath>
</defs>
</svg>
