<svg width="20" height="20" viewBox="0 0 20 20" fill="none" xmlns="http://www.w3.org/2000/svg">
<path fill-rule="evenodd" clip-rule="evenodd" d="M2.99998 9.99984C2.99999 10.1812 3.08864 10.3547 3.2455 10.4804L8.4455 14.6471C8.76398 14.9023 9.27042 14.894 9.57665 14.6286C9.88289 14.3632 9.87296 13.9411 9.55447 13.6859L5.78621 10.6665L16.1992 10.6665C16.641 10.6665 16.9992 10.368 16.9992 9.99984C16.9992 9.63165 16.641 9.33317 16.1992 9.33317L5.7862 9.33317L9.55447 6.31373C9.87296 6.05853 9.88289 5.6365 9.57665 5.3711C9.27042 5.1057 8.76398 5.09742 8.4455 5.35262L3.2455 9.51928C3.08864 9.64497 2.99998 9.81849 2.99998 9.99984Z" fill="#33363D"/>
</svg>
