<svg width="32" height="32" viewBox="0 0 32 32" fill="none" xmlns="http://www.w3.org/2000/svg">
<g clip-path="url(#clip0_15889_399051)">
<path d="M6.35929 4.73438C6.35929 4.73438 9.85997 6.69516 15.111 6.69516C20.362 6.69516 23.8627 4.73438 23.8627 4.73438L29.642 22.3599C29.724 22.61 29.6468 22.8814 29.429 23.0293C28.2339 23.8405 23.8833 26.303 15.111 26.303C6.33868 26.303 1.98811 23.8405 0.792971 23.0293C0.575157 22.8814 0.497977 22.61 0.579997 22.3599L6.35929 4.73438Z" fill="#65B9EC"/>
<path d="M25.5002 9.74121C25.3091 10.3006 25.0152 10.9193 24.5878 11.5138C23.5609 12.9423 21.7805 14.2081 18.909 14.2082C17.7645 14.2082 16.9801 14.5155 16.4377 14.9573C16.171 15.1746 15.9535 15.4329 15.7771 15.7195C16.5938 16.0416 17.5844 16.8471 17.8431 17.1058C18.209 17.4716 19.3069 16.3742 19.6729 16.374C20.0389 16.374 20.0392 18.5693 19.3075 18.9356C18.722 19.2284 17.1116 18.3255 16.3795 17.8375C16.5015 18.5695 16.6723 20.3997 16.3795 21.8636C16.0133 23.6932 12.7196 24.4247 9.0601 22.229C6.46784 20.6737 6.21572 18.1439 6.49848 16.374C6.58221 15.85 6.85364 15.7322 6.60612 15.4287C5.86551 14.759 5.40039 13.7906 5.40039 12.7134C5.4005 10.6923 6.89228 9.34711 8.9134 9.34711C10.9345 9.34716 12.3534 10.6924 12.3535 12.7134C12.3535 13.1063 12.3043 13.4846 12.212 13.8393C12.3026 14.0562 12.3535 14.2943 12.3535 14.5441C12.3534 15.1418 12.065 15.6703 11.6217 16.0042V16.0077L12.3535 16.374C12.5975 15.0321 13.2324 12.4215 13.8179 12.7143C14.5492 13.0802 14.1834 13.4465 14.1834 15.2759C14.1833 16.7397 13.4512 18.0814 13.0853 18.5693L14.1834 18.9356C14.1834 18.759 14.1903 18.5482 14.2016 18.3193C14.2051 17.7163 14.2749 17.0685 14.4542 16.4452C14.4611 16.4213 14.4696 16.3979 14.4768 16.374C14.488 16.336 14.4994 16.2989 14.5115 16.2629C14.7557 15.512 15.1712 14.7849 15.8483 14.2334C16.5847 13.6336 17.5883 13.2742 18.909 13.2742C21.4608 13.2741 22.9668 12.1695 23.83 10.9686C24.2672 10.3604 24.544 9.7209 24.7007 9.17524C24.8416 8.68437 24.8756 8.30518 24.8648 8.10927L24.8578 8.03635L24.8526 7.94173C24.8544 7.9023 24.8613 7.86389 24.8726 7.82715L25.5002 9.74121Z" fill="white"/>
<path d="M28.4617 17.7412C28.0031 17.748 27.5546 17.869 27.1613 18.0922C26.768 18.3153 26.444 18.817 26.2219 19.1965C25.9998 18.817 25.6757 18.3153 25.2825 18.0922C24.8892 17.869 24.4406 17.748 23.9821 17.7412C23.251 17.7712 22.5623 18.0737 22.0663 18.5824C21.5703 19.0912 21.3074 19.7649 21.335 20.4564C21.335 23.0656 25.7967 26.3447 25.9865 26.4726C26.1289 26.5679 26.3148 26.5679 26.4573 26.4726C26.647 26.3455 31.1088 23.0656 31.1088 20.4564C31.1364 19.7649 30.8735 19.0912 30.3775 18.5824C29.8815 18.0737 29.1927 17.7712 28.4617 17.7412Z" fill="#D63D4A"/>
</g>
<defs>
<clipPath id="clip0_15889_399051">
<rect width="32" height="32" fill="white"/>
</clipPath>
</defs>
</svg>
