<svg width="24" height="24" viewBox="0 0 24 24" fill="none" xmlns="http://www.w3.org/2000/svg">
<path d="M5.16697 4.29883C5.67579 4.14542 6.2225 4.17095 6.71482 4.37109C7.20702 4.57126 7.61562 4.93458 7.87302 5.39941L7.95896 5.57227L8.72849 7.28223C8.96166 7.80149 9.03763 8.3786 8.94627 8.94043C8.85485 9.50213 8.60042 10.0248 8.21482 10.4434L8.06052 10.5967L6.84763 11.7285C6.6293 11.9358 6.79348 12.737 7.58396 14.1064C8.2954 15.3386 8.87428 15.9138 9.15916 15.9453H9.20896L9.27048 15.9336L11.6543 15.2051C11.9746 15.1068 12.3171 15.1024 12.6396 15.1934C12.9621 15.2843 13.2518 15.4667 13.4736 15.7178L13.5791 15.8516L15.1572 18.0371C15.4664 18.4656 15.6201 18.9869 15.5937 19.5146C15.5673 20.0424 15.3622 20.5459 15.0117 20.9414L14.8701 21.0879L14.2392 21.6855C13.6734 22.2213 12.9657 22.5832 12.2002 22.7285C11.4345 22.8738 10.6428 22.7962 9.9199 22.5049C7.6699 21.5979 5.62551 19.5258 3.76853 16.3096C1.90805 13.0851 1.13509 10.2742 1.48045 7.86719C1.58501 7.13975 1.88385 6.4537 2.34666 5.88281C2.80956 5.31183 3.41912 4.87774 4.10935 4.625L4.33396 4.5498L5.16697 4.29883Z" fill="#6D7882"/>
<path fill-rule="evenodd" clip-rule="evenodd" d="M16.001 1C19.3135 1.00023 22 3.45386 22 6.48047C21.9997 9.50689 19.3147 11.9597 16.001 11.96C15.6636 11.96 15.3322 11.9348 15.0097 11.8857C14.8888 11.8673 14.764 11.889 14.6592 11.9512C14.1597 12.2479 13.5216 12.6262 13.0127 12.9287C12.6792 13.1263 12.2532 12.8896 12.2519 12.5059L12.248 10.999C12.2475 10.8455 12.1737 10.7008 12.0517 10.6055C10.8546 9.6712 10.0001 8.60157 9.99998 6.48047C9.99998 3.45377 12.687 1.00008 16.001 1ZM18.6992 4.73242C18.483 4.51916 18.1333 4.51929 17.917 4.73242L15.539 7.07812L14.084 5.64258L13.997 5.57227C13.7822 5.4325 13.4909 5.45633 13.3017 5.64258C13.1125 5.82924 13.0885 6.11707 13.2304 6.3291L13.3017 6.41406L15.1474 8.23535L15.2344 8.30566C15.4492 8.4453 15.7405 8.42173 15.9297 8.23535L18.6992 5.50391C18.9152 5.29063 18.9152 4.94569 18.6992 4.73242Z" fill="#6D7882"/>
</svg>
