<svg width="32" height="32" viewBox="0 0 32 32" fill="none" xmlns="http://www.w3.org/2000/svg">
<rect x="4" y="4" width="24" height="8" rx="2.66667" fill="#D63D4A"/>
<path d="M6.66666 8H25.3333V25.3333C25.3333 26.8061 24.1394 28 22.6667 28H9.33332C7.86056 28 6.66666 26.8061 6.66666 25.3333V8Z" fill="#FA967C"/>
<g style="mix-blend-mode:multiply">
<path d="M16 12.2666L16.1094 12.2718C16.6471 12.3266 17.0664 12.7808 17.0664 13.333C17.0664 13.8852 16.6471 14.3394 16.1094 14.3942L16 14.3994H9.33334C8.74424 14.3994 8.26694 13.9221 8.26694 13.333C8.26694 12.7439 8.74424 12.2666 9.33334 12.2666H16Z" fill="#D63D4A"/>
</g>
<g style="mix-blend-mode:multiply">
<path d="M18.6667 16.7998L18.7761 16.805C19.3138 16.8598 19.7331 17.314 19.7331 17.8662C19.7331 18.4184 19.3138 18.8726 18.7761 18.9274L18.6667 18.9326H9.33334C8.74424 18.9326 8.26694 18.4553 8.26694 17.8662C8.26694 17.2771 8.74424 16.7998 9.33334 16.7998H18.6667Z" fill="#D63D4A"/>
</g>
</svg>
