<svg width="32" height="32" viewBox="0 0 32 32" fill="none" xmlns="http://www.w3.org/2000/svg">
<g clip-path="url(#clip0_19255_458)">
<g clip-path="url(#clip1_19255_458)">
<g clip-path="url(#clip2_19255_458)">
<path d="M13.9073 16.7071C14.0948 16.5196 14.2002 16.2652 14.2002 16C14.2002 15.7348 14.0948 15.4804 13.9073 15.2929C13.7198 15.1054 13.4654 15 13.2002 15C12.935 15 12.6806 15.1054 12.4931 15.2929C12.3056 15.4804 12.2002 15.7348 12.2002 16C12.2002 16.2652 12.3056 16.5196 12.4931 16.7071C12.6806 16.8946 12.935 17 13.2002 17C13.4654 17 13.7198 16.8946 13.9073 16.7071Z" fill="#33363D"/>
<path d="M16.9073 16.7071C17.0948 16.5196 17.2002 16.2652 17.2002 16C17.2002 15.7348 17.0948 15.4804 16.9073 15.2929C16.7198 15.1054 16.4654 15 16.2002 15C15.935 15 15.6806 15.1054 15.4931 15.2929C15.3056 15.4804 15.2002 15.7348 15.2002 16C15.2002 16.2652 15.3056 16.5196 15.4931 16.7071C15.6806 16.8946 15.935 17 16.2002 17C16.4654 17 16.7198 16.8946 16.9073 16.7071Z" fill="#33363D"/>
<path d="M19.9073 16.7071C20.0948 16.5196 20.2002 16.2652 20.2002 16C20.2002 15.7348 20.0948 15.4804 19.9073 15.2929C19.7198 15.1054 19.4654 15 19.2002 15C18.935 15 18.6806 15.1054 18.4931 15.2929C18.3056 15.4804 18.2002 15.7348 18.2002 16C18.2002 16.2652 18.3056 16.5196 18.4931 16.7071C18.6806 16.8946 18.935 17 19.2002 17C19.4654 17 19.7198 16.8946 19.9073 16.7071Z" fill="#33363D"/>
<path d="M21.5019 7.0769C24.9305 7.07711 27.7222 9.73998 27.83 13.0651C27.8372 13.2867 27.7509 13.5015 27.5917 13.6596L16.5917 24.5853C16.4357 24.7403 16.2224 24.8277 15.9999 24.8277C15.7774 24.8277 15.5642 24.7403 15.4081 24.5853L4.40813 13.6596C4.249 13.5015 4.16268 13.2867 4.16985 13.0651C4.27769 9.73998 7.06935 7.07711 10.498 7.0769C12.8539 7.0769 14.9095 8.33393 15.9999 10.1993C17.0903 8.33393 19.146 7.0769 21.5019 7.0769ZM21.5019 8.6992C18.9726 8.6992 16.9125 10.6641 16.8329 13.1166C16.8289 13.2401 16.7964 13.3614 16.7372 13.4707L16.7333 13.4764C16.5894 13.7417 16.3073 13.9077 15.9999 13.9077C15.6926 13.9077 15.4105 13.7417 15.2665 13.4764L15.2626 13.4707C15.2035 13.3614 15.171 13.2401 15.1669 13.1166C15.0874 10.6641 13.0273 8.6992 10.498 8.6992C8.08474 8.69939 6.09943 10.4882 5.85344 12.7826L15.9999 22.8599L26.1454 12.7826C25.8994 10.4882 23.9151 8.69939 21.5019 8.6992Z" fill="#33363D"/>
</g>
</g>
</g>
<defs>
<clipPath id="clip0_19255_458">
<rect width="32" height="32" fill="white"/>
</clipPath>
<clipPath id="clip1_19255_458">
<rect width="24" height="24" fill="white" transform="translate(4 4)"/>
</clipPath>
<clipPath id="clip2_19255_458">
<rect width="24" height="24" fill="white" transform="translate(4 4)"/>
</clipPath>
</defs>
</svg>
