<svg width="32" height="32" viewBox="0 0 32 32" fill="none" xmlns="http://www.w3.org/2000/svg">
<g style="mix-blend-mode:multiply">
<g style="mix-blend-mode:multiply">
<path d="M22.2519 20.0241L25.3152 29.3694L18.0827 29.3414L16.166 23.4945L13.8811 29.3251L6.64867 29.2971L10.301 19.9779L22.2519 20.0241Z" fill="#D63D4A"/>
</g>
<path d="M6.53336 14.9329C6.53336 20.1535 13.4182 24.0003 16 24.0003C18.5818 24.0003 25.4667 20.1535 25.4667 14.9329C25.4667 12.1848 25.4667 9.69772 25.4667 7.95832C25.4667 6.45404 24.4965 5.12375 23.068 4.66766L17.5656 2.9109C16.5471 2.58569 15.453 2.58569 14.4344 2.9109L8.93204 4.66766C7.50351 5.12375 6.53336 6.45404 6.53336 7.95832C6.53336 9.69772 6.53336 12.1848 6.53336 14.9329Z" fill="#D63D4A"/>
<path d="M6.53336 14.9329C6.53336 20.1535 13.4182 24.0003 16 24.0003C18.5818 24.0003 25.4667 20.1535 25.4667 14.9329C25.4667 12.1848 25.4667 9.69772 25.4667 7.95832C25.4667 6.45404 24.4965 5.12375 23.068 4.66766L17.5656 2.9109C16.5471 2.58569 15.453 2.58569 14.4344 2.9109L8.93204 4.66766C7.50351 5.12375 6.53336 6.45404 6.53336 7.95832C6.53336 9.69772 6.53336 12.1848 6.53336 14.9329Z" fill="#FA967C"/>
<path d="M19.5186 10.0212C19.9486 9.6193 20.6202 9.64261 21.0215 10.0732C21.4227 10.5039 21.3994 11.1765 20.9695 11.5785L15.2648 16.9118C14.8557 17.2943 14.2206 17.2943 13.8114 16.9118L11.5311 14.779C11.1011 14.377 11.0778 13.7018 11.4791 13.2712C11.8802 12.8419 12.5523 12.8185 12.982 13.2191L14.5368 14.6748L19.5186 10.0212Z" fill="white"/>
</g>
</svg>
