<svg width="120" height="24" viewBox="0 0 120 24" fill="none" xmlns="http://www.w3.org/2000/svg">
<g clip-path="url(#clip0_7439_19703)">
<path d="M40.341 5.44832V18.2658H38.4982L38.389 18.1157C38.4027 15.6313 38.2798 13.1197 38.3617 10.649C38.3617 10.5535 38.4027 10.4579 38.4163 10.3624H37.5291V18.1839L37.4472 18.2658H35.6317L35.5498 18.1839V5.51657L35.6317 5.43467H37.4472L37.5291 5.51657V8.3012C37.611 8.42405 38.2389 8.39675 38.3071 8.3558L38.3481 8.28755C38.43 7.46854 38.2662 6.51303 38.3481 5.70767C38.3481 5.58482 38.389 5.50292 38.4846 5.42102H40.3274L40.341 5.44832Z" fill="#FF7F32"/>
<path d="M22.5683 5.4483V8.38309H23.5102L23.5511 5.4483H25.3939L25.4758 5.51655V18.1839L25.3939 18.2521H23.5511L23.5102 10.3487H22.5683V18.2521H20.7119V5.4483H22.5683Z" fill="#FF7F32"/>
<path d="M6.25608 7.56404C6.22878 7.7142 6.43353 7.7688 6.50178 7.83705C7.19794 8.69701 7.25254 10.1439 6.63828 11.0585C5.45072 12.8194 2.28388 12.8057 1.12362 11.0039C0.482063 9.99377 0.563964 8.3967 1.54677 7.6323L1.41027 7.50944C1.20552 7.53674 0.427462 7.6323 0.331911 7.44119C0.27731 7.34564 0.290961 6.08983 0.331911 5.99428C0.331911 5.96698 0.427462 5.88508 0.441112 5.88508H2.77529L2.85719 5.80318V4.92957H4.90471L4.98661 5.01147V5.84413L5.06851 5.92603H7.34809C7.34809 5.92603 7.47094 6.04888 7.47094 6.10348C7.49824 6.23998 7.48459 7.38659 7.44364 7.46849C7.44364 7.49579 7.34809 7.57769 7.33444 7.57769H6.26973L6.25608 7.56404ZM3.7035 8.30115C2.65244 8.424 2.16103 9.69347 2.99369 10.4306C3.5943 10.9629 4.71361 10.7991 5.05486 10.062C5.50532 9.10651 4.69996 8.19195 3.7035 8.30115Z" fill="#FF7F32"/>
<path d="M35.058 7.48218C35.0171 7.61868 34.3209 7.52313 34.1844 7.50948L34.1298 7.64598C34.5393 7.90533 34.8942 8.62879 34.9488 9.0929C35.4402 13.0378 29.8983 13.7749 28.7517 10.5671C28.465 9.7754 28.6288 8.57419 29.1475 7.90533C29.2567 7.75518 29.5297 7.68693 29.4069 7.50948C29.1612 7.56408 28.7926 7.63233 28.5742 7.48218V5.98066C28.6152 5.91241 28.6834 5.91241 28.7517 5.89876C29.3113 5.83051 30.0348 5.92606 30.6081 5.93971C30.6627 5.93971 30.7992 5.84416 30.7992 5.81686V4.9569L30.8811 4.875H32.6966L32.7785 4.9569V5.83051L32.8604 5.91241H34.9898L35.0717 5.99431V7.49583L35.058 7.48218ZM32.7102 8.71069C31.5909 7.57773 29.8027 9.1475 30.7582 10.417C31.6592 11.6182 33.5292 10.5262 33.0105 9.2021C32.9559 9.05195 32.8194 8.81989 32.7102 8.69704V8.71069Z" fill="#FF7F32"/>
<path d="M46.6196 13.2698C48.1757 11.0039 52.653 11.5226 53.3082 14.3891C53.9634 17.2557 50.9057 18.9892 48.4487 18.1975C46.292 17.515 45.2819 15.2218 46.6196 13.2698ZM48.6944 16.3821C50.2778 17.515 52.3663 15.4265 50.8921 14.0069C49.2268 12.3962 46.8107 15.0443 48.6944 16.3821Z" fill="#FF7F32"/>
<path d="M19.4146 7.56406H16.9029L16.821 7.64596V12.2461L16.9029 12.328H19.9606L20.0425 12.4099V14.0342H14.8145V5.85779H19.4009L19.4828 5.93969V7.44121C19.4828 7.44121 19.4146 7.52311 19.4282 7.56406H19.4146Z" fill="#FF7F32"/>
<path d="M7.86719 12.2188V10.5944L7.94909 10.5125H9.30045L9.3687 10.3897C9.24585 10.103 9.43695 9.7208 9.24585 9.4751H7.86719V7.90533L7.94909 7.82343H9.24585C9.3141 7.78248 9.3141 7.71423 9.32775 7.64598C9.40965 6.94982 9.1776 6.10351 9.45061 5.4483H11.3207L11.4026 5.5302V14.785L11.3207 14.8669H9.45061L9.32775 14.7441V12.3143L9.24585 12.2324H7.86719V12.2188Z" fill="#FF7F32"/>
<path d="M47.1924 5.4483C47.3289 5.48925 47.2607 6.04891 47.2743 6.19906C47.3153 6.67682 47.3835 7.18187 47.5473 7.63233C47.9568 8.76529 48.9533 9.3659 49.9634 9.9119C49.9634 9.9938 49.1171 11.2769 49.0352 11.3042C48.7486 11.4544 47.6156 10.7173 47.3426 10.5125C47.0013 10.2668 46.6737 9.9392 46.4007 9.6389C46.3188 9.54335 46.2506 9.4205 46.1687 9.32495L45.3087 10.2259C44.7081 10.7173 44.0529 11.1268 43.3158 11.3725C43.1656 11.3725 42.4695 10.103 42.3193 9.9119C42.7834 9.6116 43.2748 9.40685 43.7116 9.03829C44.3942 8.45134 45.0084 7.42758 45.0084 6.49936V5.4483H47.2061H47.1924Z" fill="#FF7F32"/>
<path d="M11.3885 17.9928H3.30762V13.8295C3.30762 13.8295 3.34857 13.7749 3.41682 13.7749C4.01742 13.7749 4.63168 13.8705 5.21864 13.7749L5.32784 13.8295V16.2046L5.40974 16.2865H11.3203L11.4022 16.3684V17.9928H11.3885Z" fill="#FF7F32"/>
<path d="M53.445 5.4483V7.56408L55.0557 7.61868V9.24305L54.9738 9.32495H53.445V11.7547H51.5067L51.4248 11.6728V5.57115C51.4248 5.57115 51.4931 5.48925 51.4794 5.4483H53.445Z" fill="#FF7F32"/>
<path d="M96.8245 11.0722H93.9716V10.2668L93.8487 10.1849C93.7805 10.376 93.603 10.4033 93.4938 10.4989C92.784 11.1132 92.0878 11.7684 91.3371 12.3417L91.2825 12.5191L99.5681 12.601V18.2795L99.4453 18.3614C98.9402 18.3204 98.3942 18.4023 97.8892 18.3887C97.7663 18.3887 97.5752 18.3887 97.507 18.2931V14.3346H93.9852L93.9306 12.8877L92.2107 14.2936L88.7982 14.3346C88.7982 14.3346 88.1293 13.2699 88.1156 13.2016C88.1156 13.1607 88.0883 13.1334 88.1156 13.0924L90.5727 11.0039C89.9857 10.8811 89.3578 11.0585 88.7572 10.9493C88.6617 10.7173 88.0884 9.98019 88.143 9.77544L90.7228 7.50951H88.5252L88.4433 7.42761V5.77594L88.5252 5.69404H93.4392C93.5757 5.93974 93.9306 6.37655 94.0125 6.62225C94.0398 6.6905 94.0535 6.75875 94.0125 6.827L91.2415 9.20213H94.9134V5.58484H96.7562L96.8381 5.66674V11.0722H96.8245Z" fill="#FF7F32"/>
<path d="M112.168 7.40024C112.168 7.40024 112.058 7.45484 112.045 7.45484H106.066V8.7789L106.148 8.86081H111.895L111.976 8.94271V10.5398L111.895 10.6217H106.202C106.202 10.6217 106.107 10.7036 106.093 10.7309C106.052 10.8264 106.039 11.7546 106.066 11.8911C106.066 11.9457 106.161 12.0686 106.189 12.0686H112.14C112.14 12.0686 112.208 12.0003 112.263 12.014V13.8158H104.005L103.923 13.7339V5.69397H112.086L112.168 5.77587V7.40024Z" fill="#FF7F32"/>
<path d="M77.2913 5.59847C79.2843 5.42102 81.2362 6.56763 81.5911 8.61516C82.0962 11.6045 79.2024 13.693 76.4314 12.7921C72.623 11.5499 73.2236 5.96703 77.305 5.59847H77.2913ZM79.0932 7.93265C78.1923 7.01809 76.5406 7.29109 76.0219 8.47865C75.353 10.0075 76.7863 11.7001 78.4243 11.0858C79.6801 10.6081 80.035 8.88816 79.0932 7.9463V7.93265Z" fill="#FF7F32"/>
<path d="M66.112 5.69397V7.45484H62.4401V12.2597H67.436L67.5179 12.3279V13.9796L67.436 14.0615H60.4471L60.3652 13.9796V5.77587L60.4471 5.69397H66.112Z" fill="#FF7F32"/>
<path d="M70.2068 5.38007V8.2466L70.2887 8.3285H72.1588C72.1588 8.3285 72.2544 8.4104 72.268 8.4377C72.3226 8.5469 72.3226 9.77542 72.2953 9.96652C72.2953 10.0894 72.2544 10.1713 72.1588 10.2532H70.2887L70.2068 10.3351V18.1566H68.2412V5.38007H70.2068Z" fill="#FF7F32"/>
<path d="M82.9014 18.143V5.46197L82.9833 5.38007H84.7987C85.0035 5.38007 84.8806 6.00797 84.867 6.13082C84.8397 9.87097 84.867 13.6111 84.867 17.3513C84.867 17.6106 84.9762 17.9246 84.7987 18.143H82.915H82.9014Z" fill="#FF7F32"/>
<path d="M113.71 15.3038V17.1329L102.271 17.1602V15.3038H113.71Z" fill="#FF7F32"/>
<path d="M97.6298 5.38007H99.4998L99.5817 5.46197V11.195L99.4998 11.2769H97.6298L97.5615 11.195V5.46197L97.6298 5.38007Z" fill="#FF7F32"/>
</g>
<defs>
<clipPath id="clip0_7439_19703">
<rect width="114" height="14.25" fill="white" transform="translate(0 4.875)"/>
</clipPath>
</defs>
</svg>
