<svg width="220" height="24" viewBox="0 0 220 24" fill="none" xmlns="http://www.w3.org/2000/svg">
<g clip-path="url(#clip0_1464_175854)">
<path d="M40.34 5.44918V18.2667H38.4973L38.3881 18.1165C38.4017 15.6322 38.2789 13.1206 38.3608 10.6499C38.3608 10.5543 38.4017 10.4588 38.4154 10.3632H37.5281V18.1848L37.4462 18.2667H35.6307L35.5488 18.1848V5.51743L35.6307 5.43553H37.4462L37.5281 5.51743V8.30206C37.61 8.42491 38.2379 8.39761 38.3062 8.35666L38.3471 8.28841C38.429 7.4694 38.2652 6.51389 38.3471 5.70853C38.3471 5.58568 38.3881 5.50378 38.4836 5.42188H40.3264L40.34 5.44918Z" fill="#FF7F32"/>
<path d="M22.5676 5.44922V8.384H23.5095L23.5504 5.44922H25.3932L25.4751 5.51747V18.1848L25.3932 18.2531H23.5504L23.5095 10.3496H22.5676V18.2531H20.7112V5.44922H22.5676Z" fill="#FF7F32"/>
<path d="M6.25559 7.56417C6.22829 7.71432 6.43304 7.76892 6.50129 7.83717C7.19745 8.69713 7.25205 10.144 6.63779 11.0586C5.45023 12.8195 2.28339 12.8058 1.12313 11.004C0.481574 9.99389 0.563475 8.39683 1.54629 7.63242L1.40978 7.50957C1.20503 7.53687 0.426974 7.63242 0.331423 7.44132C0.276822 7.34576 0.290472 6.08995 0.331423 5.9944C0.331423 5.9671 0.426974 5.8852 0.440624 5.8852H2.7748L2.8567 5.8033V4.92969H4.90422L4.98612 5.01159V5.84425L5.06803 5.92615H7.3476C7.3476 5.92615 7.47045 6.049 7.47045 6.1036C7.49775 6.2401 7.4841 7.38671 7.44315 7.46862C7.44315 7.49592 7.3476 7.57782 7.33395 7.57782H6.26924L6.25559 7.56417ZM3.70301 8.30128C2.65195 8.42413 2.16054 9.69359 2.9932 10.4307C3.59381 10.9631 4.71312 10.7993 5.05438 10.0621C5.50483 9.10663 4.69947 8.19207 3.70301 8.30128Z" fill="#FF7F32"/>
<path d="M35.0576 7.48218C35.0166 7.61868 34.3204 7.52313 34.1839 7.50948L34.1293 7.64598C34.5388 7.90533 34.8938 8.62879 34.9484 9.0929C35.4398 13.0378 29.8978 13.7749 28.7512 10.5671C28.4645 9.7754 28.6283 8.57419 29.147 7.90533C29.2562 7.75518 29.5292 7.68693 29.4064 7.50948C29.1607 7.56408 28.7921 7.63233 28.5737 7.48218V5.98066C28.6147 5.91241 28.6829 5.91241 28.7512 5.89876C29.3108 5.83051 30.0343 5.92606 30.6076 5.93971C30.6622 5.93971 30.7987 5.84416 30.7987 5.81686V4.9569L30.8806 4.875H32.6961L32.778 4.9569V5.83051L32.8599 5.91241H34.9893L35.0712 5.99431V7.49583L35.0576 7.48218ZM32.7097 8.71069C31.5904 7.57773 29.8022 9.1475 30.7578 10.417C31.6587 11.6182 33.5287 10.5262 33.01 9.2021C32.9554 9.05195 32.8189 8.81989 32.7097 8.69704V8.71069Z" fill="#FF7F32"/>
<path d="M46.6191 13.2693C48.1752 11.0033 52.6525 11.5221 53.3077 14.3886C53.9629 17.2551 50.9052 18.9887 48.4482 18.197C46.2915 17.5145 45.2814 15.2212 46.6191 13.2693ZM48.6939 16.3815C50.2773 17.5145 52.3658 15.426 50.8916 14.0064C49.2263 12.3957 46.8102 15.0438 48.6939 16.3815Z" fill="#FF7F32"/>
<path d="M19.4143 7.56564H16.9027L16.8208 7.64754V12.2476L16.9027 12.3295H19.9603L20.0422 12.4114V14.0358H14.8142V5.85938H19.4007L19.4826 5.94128V7.44279C19.4826 7.44279 19.4143 7.52469 19.428 7.56564H19.4143Z" fill="#FF7F32"/>
<path d="M7.86621 12.2197V10.5953L7.94811 10.5134H9.29948L9.36773 10.3906C9.24488 10.1039 9.43598 9.72172 9.24488 9.47601H7.86621V7.90625L7.94811 7.82435H9.24488C9.31313 7.78339 9.31313 7.71514 9.32678 7.64689C9.40868 6.95074 9.17663 6.10443 9.44963 5.44922H11.3197L11.4016 5.53112V14.7859L11.3197 14.8678H9.44963L9.32678 14.745V12.3152L9.24488 12.2333H7.86621V12.2197Z" fill="#FF7F32"/>
<path d="M47.1924 5.44922C47.3289 5.49017 47.2607 6.04983 47.2743 6.19998C47.3153 6.67773 47.3835 7.18279 47.5473 7.63324C47.9568 8.76621 48.9533 9.36681 49.9634 9.91282C49.9634 9.99472 49.1171 11.2778 49.0352 11.3051C48.7486 11.4553 47.6156 10.7182 47.3426 10.5134C47.0013 10.2677 46.6737 9.94012 46.4007 9.63982C46.3188 9.54426 46.2506 9.42141 46.1687 9.32586L45.3087 10.2268C44.7081 10.7182 44.0529 11.1277 43.3158 11.3734C43.1656 11.3734 42.4695 10.1039 42.3193 9.91282C42.7834 9.61251 43.2748 9.40776 43.7116 9.03921C44.3942 8.45225 45.0084 7.42849 45.0084 6.50028V5.44922H47.2061H47.1924Z" fill="#FF7F32"/>
<path d="M11.388 17.9913H3.30713V13.828C3.30713 13.828 3.34808 13.7734 3.41633 13.7734C4.01694 13.7734 4.63119 13.869 5.21815 13.7734L5.32735 13.828V16.2032L5.40925 16.2851H11.3198L11.4017 16.367V17.9913H11.388Z" fill="#FF7F32"/>
<path d="M53.4443 5.44922V7.56499L55.055 7.61959V9.24396L54.9731 9.32586H53.4443V11.7556H51.506L51.4241 11.6737V5.57207C51.4241 5.57207 51.4923 5.49017 51.4787 5.44922H53.4443Z" fill="#FF7F32"/>
<path d="M96.8245 11.0694H93.9716V10.264L93.8487 10.1821C93.7805 10.3732 93.603 10.4005 93.4938 10.4961C92.784 11.1103 92.0878 11.7655 91.3371 12.3389L91.2825 12.5163L99.5681 12.5982V18.2767L99.4453 18.3586C98.9402 18.3176 98.3942 18.3995 97.8892 18.3859C97.7663 18.3859 97.5752 18.3859 97.507 18.2903V14.3318H93.9852L93.9306 12.8849L92.2107 14.2908L88.7982 14.3318C88.7982 14.3318 88.1293 13.2671 88.1156 13.1988C88.1156 13.1579 88.0883 13.1306 88.1156 13.0896L90.5727 11.0011C89.9857 10.8783 89.3578 11.0557 88.7572 10.9465C88.6617 10.7145 88.0884 9.97738 88.143 9.77263L90.7228 7.5067H88.5252L88.4433 7.4248V5.77313L88.5252 5.69123H93.4392C93.5757 5.93694 93.9306 6.37374 94.0125 6.61944C94.0398 6.68769 94.0535 6.75594 94.0125 6.8242L91.2415 9.19932H94.9134V5.58203H96.7562L96.8381 5.66393V11.0694H96.8245Z" fill="#FF7F32"/>
<path d="M112.167 7.39768C112.167 7.39768 112.058 7.45228 112.044 7.45228H106.065V8.77634L106.147 8.85824H111.894L111.976 8.94014V10.5372L111.894 10.6191H106.202C106.202 10.6191 106.106 10.701 106.093 10.7283C106.052 10.8239 106.038 11.7521 106.065 11.8886C106.065 11.9432 106.161 12.066 106.188 12.066H112.14C112.14 12.066 112.208 11.9978 112.263 12.0114V13.8132H104.004L103.922 13.7313V5.69141H112.085L112.167 5.77331V7.39768Z" fill="#FF7F32"/>
<path d="M77.2911 5.59609C79.284 5.41864 81.236 6.56525 81.5909 8.61277C82.096 11.6022 79.2021 13.6906 76.4311 12.7897C72.6227 11.5476 73.2234 5.96465 77.3047 5.59609H77.2911ZM79.0929 7.93027C78.192 7.01571 76.5403 7.28871 76.0216 8.47627C75.3528 10.0051 76.786 11.6977 78.4241 11.0835C79.6799 10.6057 80.0348 8.88578 79.0929 7.94392V7.93027Z" fill="#FF7F32"/>
<path d="M66.1115 5.69141V7.45228H62.4396V12.2571H67.4355L67.5174 12.3254V13.977L67.4355 14.0589H60.4466L60.3647 13.977V5.77331L60.4466 5.69141H66.1115Z" fill="#FF7F32"/>
<path d="M70.2066 5.37891V8.24544L70.2885 8.32734H72.1586C72.1586 8.32734 72.2541 8.40924 72.2678 8.43654C72.3224 8.54574 72.3224 9.77426 72.2951 9.96536C72.2951 10.0882 72.2541 10.1701 72.1586 10.252H70.2885L70.2066 10.3339V18.1554H68.241V5.37891H70.2066Z" fill="#FF7F32"/>
<path d="M82.9011 18.1418V5.46081L82.983 5.37891H84.7985C85.0032 5.37891 84.8804 6.00681 84.8667 6.12966C84.8394 9.86981 84.8667 13.6099 84.8667 17.3501C84.8667 17.6094 84.9759 17.9234 84.7985 18.1418H82.9148H82.9011Z" fill="#FF7F32"/>
<path d="M113.71 15.3008V17.1299L102.271 17.1572V15.3008H113.71Z" fill="#FF7F32"/>
<path d="M97.6298 5.37891H99.4998L99.5817 5.46081V11.1939L99.4998 11.2758H97.6298L97.5615 11.1939V5.46081L97.6298 5.37891Z" fill="#FF7F32"/>
</g>
<path d="M132.42 6.82422C132.628 6.61596 132.967 6.61595 133.175 6.82422C133.383 7.03249 133.383 7.37082 133.175 7.5791L128.753 12L133.177 16.4248C133.385 16.6331 133.385 16.9714 133.177 17.1797C132.969 17.3876 132.631 17.3877 132.423 17.1797L127.998 12.7549L123.574 17.1797C123.366 17.3876 123.029 17.3877 122.82 17.1797C122.612 16.9714 122.612 16.6331 122.82 16.4248L127.244 12L122.823 7.5791C122.615 7.37082 122.615 7.03249 122.823 6.82422C123.032 6.61636 123.369 6.6162 123.577 6.82422L127.998 11.2451L132.42 6.82422Z" fill="#8A949E"/>
<path d="M144.341 4.5C143.19 4.50106 142.087 4.9324 141.273 5.69935C140.459 6.4663 140.001 7.50619 140 8.59082V19.5H141.447V8.59082C141.447 7.86744 141.752 7.17368 142.295 6.66217C142.837 6.15066 143.574 5.8633 144.341 5.8633H215.659C216.039 5.8633 216.415 5.93385 216.766 6.07093C217.117 6.20801 217.436 6.40893 217.705 6.66221C217.974 6.91549 218.187 7.21618 218.332 7.5471C218.478 7.87801 218.553 8.23267 218.553 8.59082V19.5H220V8.59082C219.999 7.50619 219.541 6.4663 218.727 5.69935C217.913 4.9324 216.81 4.50106 215.659 4.5H144.341Z" fill="#1A1818"/>
<path d="M153.334 16.6256C153.334 16.7328 153.262 16.7719 153.138 16.7719H152.065C151.941 16.7719 151.901 16.7328 151.901 16.6161V13.8646C151.903 13.8369 151.897 13.8094 151.886 13.7839C151.874 13.7584 151.857 13.7355 151.835 13.717C151.813 13.6984 151.788 13.6846 151.76 13.6764C151.731 13.6682 151.702 13.6659 151.673 13.6697H148.856C148.829 13.6676 148.801 13.6713 148.776 13.6805C148.75 13.6897 148.727 13.7042 148.708 13.7229C148.69 13.7416 148.675 13.764 148.667 13.7885C148.659 13.8131 148.656 13.839 148.66 13.8646V16.6164C148.66 16.7331 148.588 16.7722 148.475 16.7722H147.38C147.277 16.7722 147.236 16.7331 147.236 16.6259V9.79096C147.236 9.68413 147.277 9.62564 147.38 9.62564H148.475C148.499 9.62287 148.523 9.62516 148.546 9.63235C148.57 9.63955 148.591 9.65147 148.609 9.66726C148.626 9.68305 148.64 9.70232 148.649 9.7237C148.658 9.74508 148.662 9.76805 148.66 9.79096V12.4357C148.656 12.4607 148.659 12.4862 148.668 12.5101C148.676 12.534 148.691 12.5557 148.71 12.5736C148.729 12.5914 148.752 12.6049 148.777 12.613C148.802 12.6212 148.829 12.6237 148.856 12.6204H151.673C151.807 12.6204 151.901 12.5622 151.901 12.4357V9.79096C151.901 9.68413 151.942 9.62564 152.065 9.62564H153.138C153.262 9.62564 153.334 9.68413 153.334 9.79096V16.6256Z" fill="#1A1818"/>
<path d="M155.925 16.8668C155.767 16.8703 155.61 16.8439 155.463 16.7892C155.316 16.7345 155.182 16.6526 155.07 16.5484C154.957 16.4442 154.867 16.3197 154.807 16.1824C154.746 16.0451 154.715 15.8977 154.716 15.7489V11.5001C154.716 11.3736 154.767 11.3154 154.891 11.3154H155.923C156.026 11.3154 156.098 11.3739 156.098 11.5001V15.603C156.098 15.7193 156.15 15.7778 156.294 15.7778H158.183C158.307 15.7778 158.389 15.7193 158.389 15.603V11.5001C158.389 11.3736 158.441 11.3154 158.564 11.3154H159.597C159.623 11.3131 159.649 11.3164 159.674 11.3251C159.698 11.3337 159.72 11.3474 159.738 11.3652C159.756 11.383 159.769 11.4044 159.777 11.4278C159.785 11.4511 159.787 11.4759 159.783 11.5001V17.6938C159.777 17.8495 159.735 18.0021 159.659 18.1405L158.957 19.22C158.932 19.265 158.896 19.303 158.85 19.3303C158.805 19.3576 158.753 19.3732 158.699 19.3754H158.565C158.441 19.3754 158.39 19.3077 158.39 19.2006V16.4586C158.39 16.3419 158.318 16.2932 158.204 16.3228L156.223 16.8462C156.125 16.8625 156.025 16.8694 155.925 16.8668Z" fill="#1A1818"/>
<path d="M162.353 16.8573C162.039 16.8558 161.738 16.7378 161.516 16.5288C161.294 16.3199 161.168 16.0367 161.166 15.7409V11.5001C161.166 11.3736 161.217 11.3154 161.34 11.3154H162.383C162.476 11.3154 162.548 11.3739 162.548 11.5001V15.603C162.548 15.7193 162.61 15.7683 162.755 15.7683H164.642C164.766 15.7683 164.849 15.7193 164.849 15.603V11.5001C164.849 11.3736 164.891 11.3154 165.014 11.3154H166.046C166.072 11.3131 166.098 11.3164 166.122 11.3251C166.147 11.3337 166.169 11.3474 166.187 11.3652C166.204 11.383 166.218 11.4044 166.226 11.4277C166.234 11.4511 166.236 11.4758 166.232 11.5001V16.6239C166.232 16.731 166.159 16.7701 166.046 16.7701H165.014C164.891 16.7701 164.849 16.731 164.849 16.6143V16.4586C164.849 16.3323 164.766 16.2837 164.653 16.3228L162.672 16.8277C162.568 16.8521 162.46 16.862 162.353 16.8573Z" fill="#1A1818"/>
<path d="M172.681 12.364V16.6226C172.681 16.7298 172.609 16.7689 172.496 16.7689H171.464C171.34 16.7689 171.298 16.7298 171.298 16.6131V12.5096C171.301 12.4835 171.297 12.4572 171.288 12.4325C171.279 12.4078 171.263 12.3854 171.244 12.3669C171.224 12.3483 171.2 12.3341 171.174 12.3252C171.148 12.3163 171.12 12.3129 171.092 12.3153H169.203C169.175 12.3113 169.146 12.3135 169.119 12.3218C169.092 12.3301 169.068 12.3443 169.048 12.3632C169.028 12.3821 169.012 12.4053 169.004 12.4307C168.995 12.4561 168.993 12.4832 168.997 12.5096V16.6131C169 16.6342 168.998 16.6557 168.99 16.6758C168.983 16.696 168.971 16.7143 168.955 16.7294C168.939 16.7444 168.92 16.7558 168.898 16.7627C168.877 16.7695 168.854 16.7716 168.832 16.7689H167.79C167.666 16.7689 167.614 16.7298 167.614 16.6226V11.4988C167.614 11.3723 167.666 11.3141 167.79 11.3141H168.832C168.925 11.3141 168.997 11.3726 168.997 11.4988V11.6642C168.997 11.771 169.048 11.8181 169.203 11.7809L171.174 11.275C171.272 11.2494 171.372 11.2331 171.473 11.2264C171.793 11.228 172.099 11.3483 172.325 11.5613C172.551 11.7743 172.679 12.0627 172.681 12.364Z" fill="#1A1818"/>
<path d="M173.858 15.7401V13.2896C173.846 13.0478 173.909 12.8078 174.039 12.599C174.169 12.3901 174.36 12.2214 174.59 12.1132L175.684 11.5104C175.899 11.3789 176.151 11.3111 176.407 11.3158H177.354C177.488 11.3158 177.55 11.2672 177.55 11.1505V9.13785C177.55 9.03101 177.602 8.95312 177.705 8.95312H178.758C178.881 8.95312 178.933 9.0307 178.933 9.13785V16.6246C178.933 16.7318 178.881 16.7709 178.758 16.7709H177.705C177.602 16.7709 177.55 16.7318 177.55 16.6151V16.4593C177.55 16.333 177.488 16.2844 177.354 16.3235L175.363 16.8284C175.262 16.8528 175.158 16.8632 175.054 16.8592C174.74 16.8533 174.44 16.7337 174.218 16.5253C173.995 16.3169 173.866 16.0357 173.858 15.7401ZM177.55 15.6037V12.5218C177.55 12.3854 177.488 12.3173 177.344 12.3173H175.435C175.29 12.3173 175.239 12.3854 175.239 12.5218V15.6037C175.239 15.7201 175.291 15.769 175.435 15.769H177.344C177.489 15.7675 177.552 15.7185 177.552 15.6021L177.55 15.6037Z" fill="#1A1818"/>
<path d="M181.305 16.857C180.99 16.8572 180.687 16.7398 180.463 16.5304C180.239 16.321 180.112 16.0365 180.109 15.7391V13.2886C180.097 13.048 180.159 12.8092 180.287 12.6006C180.415 12.392 180.604 12.2225 180.831 12.1122L181.935 11.5094C182.147 11.3793 182.395 11.3116 182.647 11.3148H185.01C185.124 11.3148 185.186 11.3733 185.186 11.4995V16.6233C185.186 16.7305 185.124 16.7696 185.01 16.7696H183.958C183.844 16.7696 183.803 16.7305 183.803 16.6138V16.458C183.803 16.3318 183.731 16.2831 183.597 16.3222L181.615 16.8271C181.514 16.8512 181.41 16.8613 181.305 16.857ZM183.803 15.6027V12.5208C183.803 12.3844 183.731 12.3164 183.597 12.3164H181.688C181.543 12.3164 181.492 12.3844 181.492 12.5208V15.6027C181.492 15.7191 181.543 15.768 181.688 15.768H183.597C183.731 15.768 183.803 15.7191 183.803 15.6027Z" fill="#1A1818"/>
<path d="M187.951 9.93527C187.951 10.052 187.879 10.0908 187.775 10.0908H186.744C186.61 10.0908 186.569 10.052 186.569 9.93527V9.13786C186.569 9.03102 186.61 8.95312 186.744 8.95312H187.775C187.8 8.95349 187.824 8.95866 187.847 8.96833C187.869 8.978 187.89 8.99195 187.906 9.0093C187.923 9.02666 187.935 9.04703 187.943 9.06915C187.95 9.09128 187.953 9.11467 187.951 9.13786V9.93527ZM187.951 16.6246C187.951 16.7318 187.879 16.7709 187.775 16.7709H186.744C186.61 16.7709 186.569 16.7318 186.569 16.6246V11.5008C186.569 11.3743 186.61 11.3161 186.744 11.3161H187.775C187.879 11.3161 187.951 11.3746 187.951 11.5008V16.6246Z" fill="#1A1818"/>
<path d="M190.846 15.3726V11.6879C190.836 11.4351 190.901 11.1846 191.034 10.9647C191.167 10.7448 191.362 10.5642 191.598 10.4431L192.807 9.81104C193.022 9.68941 193.268 9.62552 193.519 9.62631H196.077C196.102 9.62262 196.128 9.62458 196.153 9.63205C196.177 9.63952 196.199 9.65228 196.217 9.6693C196.236 9.68633 196.249 9.70713 196.257 9.73004C196.265 9.75295 196.268 9.77732 196.264 9.80118V10.5099C196.264 10.6171 196.201 10.6654 196.077 10.6654H192.497C192.373 10.6654 192.322 10.7338 192.322 10.86V15.5463C192.322 15.6725 192.373 15.731 192.497 15.731H196.181C196.294 15.731 196.366 15.7796 196.366 15.8769C196.368 15.9296 196.353 15.9815 196.323 16.0263C196.294 16.0711 196.251 16.1071 196.201 16.1297L195.314 16.5961C195.09 16.7145 194.838 16.7751 194.581 16.7719H192.352C192.155 16.7768 191.958 16.744 191.775 16.6756C191.591 16.6073 191.424 16.5047 191.283 16.3741C191.143 16.2434 191.032 16.0874 190.957 15.9153C190.881 15.7432 190.844 15.5587 190.846 15.3726Z" fill="#1A1818"/>
<path d="M198.42 16.857C198.105 16.8574 197.802 16.7401 197.577 16.5306C197.353 16.3212 197.226 16.0366 197.223 15.7391V13.2886C197.211 13.048 197.273 12.8091 197.401 12.6006C197.529 12.392 197.718 12.2225 197.946 12.1122L199.05 11.5094C199.261 11.3793 199.509 11.3116 199.762 11.3148H202.125C202.238 11.3148 202.301 11.3733 202.301 11.4995V16.6233C202.301 16.7305 202.238 16.7696 202.125 16.7696H201.072C200.959 16.7696 200.918 16.7305 200.918 16.6138V16.458C200.918 16.3318 200.846 16.2831 200.711 16.3222L198.73 16.8271C198.629 16.8512 198.525 16.8612 198.42 16.857ZM200.918 15.6027V12.5208C200.922 12.4938 200.92 12.4662 200.911 12.4402C200.903 12.4141 200.888 12.3903 200.868 12.3705C200.848 12.3507 200.823 12.3356 200.796 12.3262C200.769 12.3168 200.74 12.3134 200.711 12.3164H198.802C198.658 12.3164 198.606 12.3844 198.606 12.5208V15.6027C198.606 15.7191 198.658 15.768 198.802 15.768H200.711C200.846 15.768 200.918 15.7191 200.918 15.6027Z" fill="#1A1818"/>
<path d="M207.481 12.1693C207.481 12.2666 207.409 12.3152 207.296 12.3152H205.263C205.129 12.3152 205.077 12.3833 205.077 12.5095V16.6129C205.077 16.7296 204.995 16.7687 204.892 16.7687H203.85C203.726 16.7687 203.684 16.7296 203.684 16.6225V11.4999C203.684 11.3734 203.726 11.3152 203.85 11.3152H204.892C204.917 11.3138 204.943 11.3177 204.967 11.3266C204.991 11.3355 205.012 11.3493 205.03 11.3669C205.048 11.3845 205.061 11.4055 205.069 11.4285C205.077 11.4515 205.08 11.4759 205.077 11.4999V11.6554C205.077 11.762 205.129 11.8109 205.263 11.8109C205.302 11.8131 205.341 11.8065 205.377 11.7915L205.975 11.4221C206.194 11.312 206.438 11.2552 206.687 11.257H207.296C207.32 11.2542 207.344 11.2564 207.368 11.2635C207.391 11.2706 207.412 11.2825 207.43 11.2983C207.447 11.314 207.461 11.3333 207.47 11.3547C207.479 11.3761 207.483 11.3991 207.481 11.4221V12.1693Z" fill="#1A1818"/>
<path d="M207.687 15.7401V13.2896C207.675 13.0477 207.738 12.8078 207.868 12.5989C207.998 12.39 208.19 12.2213 208.42 12.1132L209.514 11.5104C209.728 11.379 209.98 11.3113 210.236 11.3158H211.186C211.32 11.3158 211.382 11.2672 211.382 11.1505V9.13785C211.382 9.03101 211.433 8.95312 211.536 8.95312H212.59C212.712 8.95312 212.764 9.0307 212.764 9.13785V16.6246C212.764 16.7318 212.712 16.7709 212.59 16.7709H211.536C211.433 16.7709 211.382 16.7318 211.382 16.6151V16.4593C211.382 16.333 211.32 16.2844 211.186 16.3235L209.193 16.8284C209.092 16.8528 208.987 16.8632 208.883 16.8592C208.569 16.8534 208.27 16.7338 208.047 16.5254C207.825 16.317 207.696 16.0357 207.687 15.7401ZM211.382 15.6037V12.5218C211.382 12.3854 211.32 12.3173 211.175 12.3173H209.266C209.122 12.3173 209.07 12.3854 209.07 12.5218V15.6037C209.07 15.7201 209.122 15.769 209.266 15.769H211.175C211.32 15.7675 211.382 15.7185 211.382 15.6021V15.6037Z" fill="#1A1818"/>
<defs>
<clipPath id="clip0_1464_175854">
<rect width="114" height="14.25" fill="white" transform="translate(0 4.875)"/>
</clipPath>
</defs>
</svg>
