<svg width="44" height="44" viewBox="0 0 44 44" fill="none" xmlns="http://www.w3.org/2000/svg">
<g clip-path="url(#clip0_2086_22772)">
<rect width="44" height="44" rx="22" fill="white"/>
<g clip-path="url(#clip1_2086_22772)">
<path d="M41.2873 48.1853C39.5162 46.9931 39.0483 44.5878 40.244 42.8202C41.4363 41.0492 40.9719 38.6474 39.2008 37.4552C37.4298 36.2629 36.9619 33.8577 38.1576 32.0901C39.3499 30.3191 38.8855 27.9173 37.1144 26.725C35.3434 25.5328 34.8755 23.1275 36.0712 21.36C36.7921 20.2925 36.903 18.9963 36.494 17.8734L35.3122 13.3436H35.3087C34.8235 10.7927 33.6348 8.39441 31.8429 6.46396C29.2159 3.622 25.4936 2 21.6292 2C17.7648 2 14.0426 3.622 11.4155 6.45356C9.62368 8.38401 8.43491 10.7823 7.94969 13.3332L6.76785 17.8595C6.35542 18.9824 6.46633 20.2821 7.18722 21.3531C8.37945 23.1241 7.91503 25.5259 6.14401 26.7181C4.37298 27.9104 3.9051 30.3156 5.1008 32.0832C6.29304 33.8542 5.82862 36.256 4.05759 37.4482C2.28657 38.6405 1.81869 41.0457 3.01439 42.8133C4.20662 44.5843 3.74221 46.9861 1.97118 48.1784C0.200155 49.3706 -0.267729 51.7759 0.927973 53.5434H42.3339C43.5262 51.7724 43.0617 49.3706 41.2907 48.1784L41.2873 48.1853Z" fill="#B28D7B"/>
<path d="M5.05954 42.8827H38.1996C44.0949 42.8827 48.8812 47.669 48.8812 53.5643V61.9619H-5.62207V53.5643C-5.62207 47.669 -0.835795 42.8827 5.05954 42.8827Z" fill="#E5C1CF"/>
<path d="M34.0368 42.8861L25.8714 62H17.3871L9.22168 42.8861H34.0368Z" fill="#E5C1CF"/>
<path d="M31.9538 44.2482C31.9538 47.6585 26.62 48.875 21.6292 48.875C16.6384 48.875 11.3046 47.6585 11.3046 44.2482C11.3046 43.8739 11.3773 43.3921 11.6442 42.8861H31.6211C31.8845 43.3921 31.9538 43.8739 31.9538 44.2482Z" fill="#E5C1CF"/>
<path d="M26.4915 36.2075V32.4956H16.7664V36.2075C16.7664 38.9143 15.7891 41.6003 13.8066 43.4406C13.5328 43.6936 13.3838 43.964 13.3838 44.2481C13.3838 45.6553 17.0749 46.799 21.6289 46.799C26.183 46.799 29.8741 45.6587 29.8741 44.2481C29.8741 43.9674 29.7251 43.6936 29.4513 43.4406C27.4688 41.6003 26.4915 38.9143 26.4915 36.2075Z" fill="#F4D1C3"/>
<path d="M11.3357 27.7337C9.87313 27.5119 8.62891 26.4167 8.28579 24.8813C7.94268 23.3529 8.60118 21.8383 9.82461 21.01L11.2144 27.2519C11.2525 27.4148 11.2906 27.5742 11.3322 27.7302L11.3357 27.7337Z" fill="#F4D1C3"/>
<path d="M12.7052 27.6886C12.2442 27.7926 11.7798 27.8029 11.3397 27.7371C11.2946 27.5742 11.2599 27.4148 11.2218 27.2554L9.83203 21.0134C10.2063 20.7604 10.6292 20.5698 11.0971 20.4693C13.0899 20.0257 15.0689 21.2803 15.5125 23.2731C15.9561 25.266 14.7015 27.245 12.7086 27.6886H12.7052Z" fill="#E8BBAA"/>
<path d="M31.9229 27.7337C33.3854 27.5119 34.6296 26.4167 34.9728 24.8813C35.3159 23.3529 34.6574 21.8383 33.4339 21.01L32.0442 27.2519C32.006 27.4148 31.9679 27.5742 31.9263 27.7302L31.9229 27.7337Z" fill="#F4D1C3"/>
<path d="M30.5537 27.6886C31.0147 27.7926 31.4791 27.8029 31.9192 27.7371C31.9643 27.5742 31.999 27.4148 32.0371 27.2554L33.4269 21.0134C33.0526 20.7604 32.6297 20.5698 32.1618 20.4693C30.169 20.0257 28.19 21.2803 27.7464 23.2731C27.3028 25.266 28.5574 27.245 30.5502 27.6886H30.5537Z" fill="#E8BBAA"/>
<path d="M26.4926 33.5354V38.3182C24.985 38.9351 23.3422 39.2713 21.6301 39.2713C19.918 39.2713 18.2752 38.9351 16.7676 38.3182V33.5354H26.4926Z" fill="#E8BBAA"/>
<path d="M21.6298 36.8453C17.6338 36.8453 14.1749 34.0622 13.3223 30.1597L10.2585 16.1579C9.76638 9.54511 14.9997 3.90625 21.6298 3.90625C28.2634 3.90625 33.4967 9.54511 33.0011 16.1579L29.9374 30.1597C29.0813 34.0622 25.6259 36.8453 21.6298 36.8453Z" fill="#F4D1C3"/>
<path d="M17.3246 22.6527C18.0061 22.6527 18.5585 22.1003 18.5585 21.4189C18.5585 20.7375 18.0061 20.1851 17.3246 20.1851C16.6432 20.1851 16.0908 20.7375 16.0908 21.4189C16.0908 22.1003 16.6432 22.6527 17.3246 22.6527Z" fill="#453C56"/>
<path d="M25.9379 22.6527C26.6194 22.6527 27.1718 22.1003 27.1718 21.4189C27.1718 20.7375 26.6194 20.1851 25.9379 20.1851C25.2565 20.1851 24.7041 20.7375 24.7041 21.4189C24.7041 22.1003 25.2565 22.6527 25.9379 22.6527Z" fill="#453C56"/>
<path d="M20.621 25.2001C20.8705 25.0129 21.231 24.8986 21.6295 24.8986C22.0281 24.8986 22.3851 25.0164 22.6381 25.2001" stroke="#D1A193" stroke-width="0.693161" stroke-linecap="round" stroke-linejoin="round"/>
<path d="M18.2434 20.6079C17.8067 20.6356 17.2279 20.7396 16.6006 20.9163C15.9768 21.0931 15.4257 21.308 15.041 21.5159C15.1173 20.9753 15.6545 20.445 16.4065 20.2336C17.1586 20.0187 17.8934 20.1885 18.2434 20.6079Z" fill="#453C56"/>
<path d="M25.0155 20.6079C25.4522 20.6356 26.031 20.7396 26.6583 20.9163C27.2821 21.0931 27.8332 21.308 28.2179 21.5159C28.1417 20.9753 27.6045 20.445 26.8524 20.2336C26.1003 20.0187 25.3655 20.1885 25.0155 20.6079Z" fill="#453C56"/>
<path d="M9.54785 24.5208L10.9862 24.3129" stroke="#E8BBAA" stroke-width="1.03974" stroke-linecap="round" stroke-linejoin="round"/>
<path d="M33.7108 24.5208L32.2725 24.3129" stroke="#E8BBAA" stroke-width="1.03974" stroke-linecap="round" stroke-linejoin="round"/>
<path d="M15.3911 18.7398C15.048 18.7398 14.7499 18.4833 14.7049 18.1333C14.6563 17.752 14.9267 17.4055 15.3044 17.3569L18.2261 16.9861C18.6073 16.9376 18.9539 17.2079 19.0025 17.5857C19.051 17.9669 18.7806 18.3135 18.4029 18.362L15.4812 18.7329C15.4535 18.7363 15.4223 18.7398 15.3945 18.7398H15.3911Z" fill="#B28D7B"/>
<path d="M27.8675 18.7399C27.8398 18.7399 27.8086 18.7399 27.7809 18.7329L24.8592 18.3621C24.4779 18.3136 24.2111 17.967 24.2596 17.5857C24.3081 17.2045 24.6582 16.9376 25.0359 16.9862L27.9576 17.357C28.3389 17.4055 28.6057 17.7521 28.5572 18.1333C28.5121 18.4834 28.2141 18.7399 27.871 18.7399H27.8675Z" fill="#B28D7B"/>
<path d="M33.9367 17.2703C33.9367 17.61 33.9263 17.9566 33.9021 18.2997L33.4515 20.5767C32.9975 12.4945 27.8785 8.4568 21.6296 8.4568C15.3808 8.4568 10.2618 12.4979 9.80778 20.5767L9.35723 18.2997C8.82349 10.3838 14.4693 3.63586 21.6296 3.63586C28.79 3.63586 33.9367 9.80499 33.9367 17.2669V17.2703Z" fill="#B28D7B"/>
<path d="M16.4899 9.7981C15.8002 10.6645 15.4224 11.732 15.0585 12.7752C14.7015 13.7942 14.3445 14.8166 13.9876 15.8355C13.3984 17.5199 12.7364 19.3083 11.3016 20.3757C11.2045 20.4485 11.0936 20.5178 10.9723 20.504C10.8545 20.4866 10.7678 20.3931 10.695 20.2995C9.8182 19.18 9.72462 17.6308 9.92564 16.2202C10.2999 13.5689 11.6135 11.0493 13.6133 9.26436C14.3619 8.59546 15.2249 8.02014 16.1987 7.78446C16.5834 7.69089 18.708 7.47601 18.5901 8.287C18.552 8.55734 17.7965 8.70637 17.5643 8.845C17.1518 9.09107 16.7845 9.42379 16.4864 9.7981H16.4899Z" fill="#B28D7B"/>
<path d="M17.0407 8.65439C17.1135 7.59039 18.3231 6.87643 19.3767 7.02893C20.4303 7.18142 21.2898 7.97163 21.8859 8.85541C22.482 9.73919 22.891 10.7373 23.4767 11.6281C23.9273 12.3143 24.4853 12.9312 25.1195 13.4511C26.4677 14.5532 28.1451 15.1978 29.4968 16.293C30.5677 17.1595 31.4134 18.3032 31.9298 19.5821C32.0164 19.7935 32.11 20.0292 32.3145 20.1297C32.4739 20.2059 32.6646 20.1782 32.8378 20.1297C33.9989 19.797 34.7336 18.5735 34.8342 17.3674C34.9347 16.1613 34.5292 14.976 34.0682 13.86C33.3889 12.2138 32.5814 10.623 31.6525 9.10495C31.0807 8.16918 30.4534 7.25421 29.6528 6.50559C27.5386 4.54048 24.5095 3.99635 21.6606 3.54233C21.3314 3.49034 20.9987 3.43836 20.6694 3.47301C20.3436 3.50767 20.0317 3.62204 19.7302 3.75028C18.6246 4.2147 17.564 4.85587 16.8189 5.79164C16.0738 6.7274 15.6821 7.99935 15.9975 9.15693" fill="#B28D7B"/>
<path d="M24.468 29.165C24.0105 29.7369 22.9119 30.1355 21.6295 30.1355C20.3472 30.1355 19.2485 29.7334 18.791 29.165H24.468Z" stroke="#F4807D" stroke-width="1.03974" stroke-linecap="round" stroke-linejoin="round"/>
</g>
<g clip-path="url(#clip2_2086_22772)">
<path d="M41.2882 48.1853C39.5172 46.9931 39.0493 44.5878 40.245 42.8202C41.4373 41.0492 40.9728 38.6474 39.2018 37.4552C37.4308 36.2629 36.9629 33.8577 38.1586 32.0901C39.3508 30.3191 38.8864 27.9173 37.1154 26.725C35.3444 25.5328 34.8765 23.1275 36.0722 21.36C36.7931 20.2925 36.904 18.9963 36.495 17.8734L35.3132 13.3436H35.3097C34.8245 10.7927 33.6357 8.39441 31.8439 6.46396C29.2168 3.622 25.4946 2 21.6302 2C17.7658 2 14.0436 3.622 11.4165 6.45356C9.62465 8.38401 8.43588 10.7823 7.95067 13.3332L6.76883 17.8595C6.3564 18.9824 6.4673 20.2821 7.18819 21.3531C8.38043 23.1241 7.91601 25.5259 6.14499 26.7181C4.37396 27.9104 3.90608 30.3156 5.10178 32.0832C6.29401 33.8542 5.8296 36.256 4.05857 37.4482C2.28755 38.6405 1.81966 41.0457 3.01536 42.8133C4.2076 44.5843 3.74318 46.9861 1.97216 48.1784C0.201131 49.3706 -0.266752 51.7759 0.92895 53.5434H42.3349C43.5271 51.7724 43.0627 49.3706 41.2917 48.1784L41.2882 48.1853Z" fill="#969696"/>
<path d="M5.06051 42.8826H38.2005C44.0959 42.8826 48.8821 47.6688 48.8821 53.5642V61.9618H-5.62109V53.5642C-5.62109 47.6688 -0.834818 42.8826 5.06051 42.8826Z" fill="#7A7A7A"/>
<path d="M31.9539 44.2482C31.9539 47.6585 26.6201 48.875 21.6293 48.875C16.6386 48.875 11.3047 47.6585 11.3047 44.2482C11.3047 43.8739 11.3775 43.3921 11.6443 42.8861H31.6212C31.8846 43.3921 31.9539 43.8739 31.9539 44.2482Z" fill="#7A7A7A"/>
<path d="M26.4923 36.2075V32.4956H16.7673V36.2075C16.7673 38.9143 15.7899 41.6003 13.8075 43.4406C13.5337 43.6936 13.3846 43.964 13.3846 44.2481C13.3846 45.6553 17.0757 46.799 21.6298 46.799C26.1839 46.799 29.8749 45.6587 29.8749 44.2481C29.8749 43.9674 29.7259 43.6936 29.4521 43.4406C27.4697 41.6003 26.4923 38.9143 26.4923 36.2075Z" fill="#DADADA"/>
<path d="M11.3366 27.7335C9.87399 27.5117 8.62976 26.4165 8.28665 24.8812C7.94353 23.3528 8.60204 21.8382 9.82546 21.0099L11.2153 27.2518C11.2534 27.4147 11.2915 27.5741 11.3331 27.7301L11.3366 27.7335Z" fill="#DADADA"/>
<path d="M12.7062 27.6886C12.2452 27.7926 11.7808 27.8029 11.3406 27.7371C11.2956 27.5742 11.2609 27.4148 11.2228 27.2554L9.83301 21.0134C10.2073 20.7604 10.6301 20.5698 11.098 20.4693C13.0909 20.0257 15.0698 21.2803 15.5135 23.2731C15.9571 25.266 14.7025 27.245 12.7096 27.6886H12.7062Z" fill="#C7C7C7"/>
<path d="M31.9237 27.7335C33.3863 27.5117 34.6305 26.4165 34.9736 24.8812C35.3167 23.3528 34.6582 21.8382 33.4348 21.0099L32.045 27.2518C32.0069 27.4147 31.9688 27.5741 31.9272 27.7301L31.9237 27.7335Z" fill="#DADADA"/>
<path d="M30.5546 27.6886C31.0155 27.7926 31.4799 27.8029 31.9201 27.7371C31.9651 27.5742 31.9998 27.4148 32.0379 27.2554L33.4277 21.0134C33.0534 20.7604 32.6306 20.5698 32.1627 20.4693C30.1699 20.0257 28.1909 21.2803 27.7473 23.2731C27.3036 25.266 28.5583 27.245 30.5511 27.6886H30.5546Z" fill="#C7C7C7"/>
<path d="M26.4926 33.5354V38.3182C24.985 38.9351 23.3422 39.2713 21.6301 39.2713C19.918 39.2713 18.2752 38.9351 16.7676 38.3182V33.5354H26.4926Z" fill="#C7C7C7"/>
<path d="M21.6299 36.8453C17.6339 36.8453 14.175 34.0622 13.3224 30.1597L10.2586 16.1579C9.7665 9.54511 14.9999 3.90625 21.6299 3.90625C28.2635 3.90625 33.4969 9.54511 33.0012 16.1579L29.9375 30.1597C29.0814 34.0622 25.626 36.8453 21.6299 36.8453Z" fill="#DADADA"/>
<path d="M17.3255 22.6527C18.0069 22.6527 18.5593 22.1003 18.5593 21.4189C18.5593 20.7375 18.0069 20.1851 17.3255 20.1851C16.6441 20.1851 16.0917 20.7375 16.0917 21.4189C16.0917 22.1003 16.6441 22.6527 17.3255 22.6527Z" fill="#424242"/>
<path d="M25.9379 22.6527C26.6194 22.6527 27.1718 22.1003 27.1718 21.4189C27.1718 20.7375 26.6194 20.1851 25.9379 20.1851C25.2565 20.1851 24.7041 20.7375 24.7041 21.4189C24.7041 22.1003 25.2565 22.6527 25.9379 22.6527Z" fill="#424242"/>
<path d="M20.6211 25.2001C20.8706 25.0129 21.2311 24.8986 21.6296 24.8986C22.0282 24.8986 22.3852 25.0164 22.6382 25.2001" stroke="#AEAEAE" stroke-width="0.693161" stroke-linecap="round" stroke-linejoin="round"/>
<path d="M18.2444 20.6079C17.8077 20.6356 17.2289 20.7396 16.6016 20.9163C15.9778 21.0931 15.4267 21.308 15.042 21.5159C15.1182 20.9753 15.6554 20.445 16.4075 20.2336C17.1596 20.0187 17.8943 20.1885 18.2444 20.6079Z" fill="#424242"/>
<path d="M25.0156 20.6079C25.4523 20.6356 26.0311 20.7396 26.6584 20.9163C27.2823 21.0931 27.8333 21.308 28.218 21.5159C28.1418 20.9753 27.6046 20.445 26.8525 20.2336C26.1004 20.0187 25.3657 20.1885 25.0156 20.6079Z" fill="#424242"/>
<path d="M9.54785 24.5208L10.9862 24.3129" stroke="#C7C7C7" stroke-width="1.03974" stroke-linecap="round" stroke-linejoin="round"/>
<path d="M33.7117 24.5208L32.2734 24.3129" stroke="#C7C7C7" stroke-width="1.03974" stroke-linecap="round" stroke-linejoin="round"/>
<path d="M15.3919 18.7398C15.0488 18.7398 14.7508 18.4833 14.7057 18.1333C14.6572 17.752 14.9275 17.4055 15.3053 17.3569L18.227 16.9861C18.6082 16.9376 18.9548 17.2079 19.0033 17.5857C19.0518 17.9669 18.7815 18.3135 18.4037 18.362L15.482 18.7329C15.4543 18.7363 15.4231 18.7398 15.3954 18.7398H15.3919Z" fill="#969696"/>
<path d="M27.8685 18.7399C27.8408 18.7399 27.8096 18.7399 27.7818 18.7329L24.8602 18.3621C24.4789 18.3136 24.2121 17.967 24.2606 17.5857C24.3091 17.2045 24.6591 16.9376 25.0369 16.9862L27.9586 17.357C28.3398 17.4055 28.6067 17.7521 28.5582 18.1333C28.5131 18.4834 28.2151 18.7399 27.8719 18.7399H27.8685Z" fill="#969696"/>
<path d="M33.9377 17.2703C33.9377 17.61 33.9273 17.9566 33.903 18.2997L33.4525 20.5767C32.9985 12.4945 27.8795 8.4568 21.6306 8.4568C15.3818 8.4568 10.2628 12.4979 9.80876 20.5767L9.3582 18.2997C8.82447 10.3838 14.4703 3.63586 21.6306 3.63586C28.791 3.63586 33.9377 9.80499 33.9377 17.2669V17.2703Z" fill="#969696"/>
<path d="M16.49 9.7981C15.8003 10.6645 15.4225 11.732 15.0586 12.7752C14.7016 13.7942 14.3447 14.8166 13.9877 15.8355C13.3985 17.5199 12.7365 19.3083 11.3017 20.3757C11.2046 20.4485 11.0937 20.5178 10.9724 20.504C10.8546 20.4866 10.768 20.3931 10.6952 20.2995C9.81832 19.18 9.72474 17.6308 9.92576 16.2202C10.3001 13.5689 11.6136 11.0493 13.6134 9.26436C14.362 8.59546 15.225 8.02014 16.1989 7.78446C16.5836 7.69089 18.7081 7.47601 18.5903 8.287C18.5521 8.55734 17.7966 8.70637 17.5644 8.845C17.152 9.09107 16.7846 9.42379 16.4865 9.7981H16.49Z" fill="#969696"/>
<path d="M17.0417 8.65427C17.1145 7.59027 18.324 6.87631 19.3776 7.02881C20.4312 7.1813 21.2908 7.97151 21.8869 8.85529C22.483 9.73907 22.892 10.7372 23.4777 11.6279C23.9282 12.3142 24.4862 12.9311 25.1205 13.4509C26.4687 14.5531 28.1461 15.1977 29.4978 16.2929C30.5687 17.1594 31.4144 18.3031 31.9308 19.5819C32.0174 19.7934 32.111 20.029 32.3155 20.1295C32.4749 20.2058 32.6655 20.1781 32.8388 20.1295C33.9999 19.7968 34.7346 18.5734 34.8351 17.3673C34.9356 16.1612 34.5301 14.9759 34.0692 13.8599C33.3899 12.2137 32.5824 10.6228 31.6535 9.10482C31.0817 8.16906 30.4543 7.25408 29.6537 6.50547C27.5396 4.54036 24.5105 3.99623 21.6616 3.54221C21.3324 3.49022 20.9996 3.43823 20.6704 3.47289C20.3446 3.50755 20.0327 3.62192 19.7312 3.75016C18.6256 4.21457 17.565 4.85575 16.8199 5.79151C16.0747 6.72728 15.6831 7.99923 15.9985 9.15681" fill="#969696"/>
<path d="M24.469 29.165C24.0115 29.7369 22.9128 30.1355 21.6305 30.1355C20.3481 30.1355 19.2495 29.7334 18.792 29.165H24.469Z" stroke="#A2A2A2" stroke-width="1.03974" stroke-linecap="round" stroke-linejoin="round"/>
</g>
</g>
<rect x="0.5" y="0.5" width="43" height="43" rx="21.5" stroke="#F5F5F5"/>
<defs>
<clipPath id="clip0_2086_22772">
<rect width="44" height="44" rx="22" fill="white"/>
</clipPath>
<clipPath id="clip1_2086_22772">
<rect width="54.5032" height="60" fill="white" transform="translate(-5.62207 2)"/>
</clipPath>
<clipPath id="clip2_2086_22772">
<rect width="54.5032" height="60" fill="white" transform="translate(-5.62207 2)"/>
</clipPath>
</defs>
</svg>
