<svg width="99" height="44" viewBox="0 0 99 44" fill="none" xmlns="http://www.w3.org/2000/svg">
<g clip-path="url(#clip0_2086_22576)">
<rect width="99" height="44" rx="22" fill="white"/>
<path d="M45.5183 26.6008C45.4023 28.1426 44.3449 29.3876 42.9531 29.814C42.9736 29.6537 42.9872 29.4899 43.0009 29.3262L43.4682 23.0498C44.7781 23.6809 45.6342 25.0623 45.5183 26.6008Z" fill="#F4D1C3"/>
<path d="M44.2417 26.4302H42.8125" stroke="#E8BBAA" stroke-width="1.02333" stroke-linecap="round" stroke-linejoin="round"/>
<path d="M44.0141 17.6024L42.7179 25.4752C42.6633 25.8061 42.3768 26.0483 42.0425 26.0483C41.681 26.0483 41.3842 25.7685 41.3603 25.407L40.8555 17.1658L44.0107 17.6024H44.0141Z" fill="#C1C1C1"/>
<path d="M51.7742 17.4931C51.7742 23.3227 42.7348 28.047 31.5874 28.047C20.4399 28.047 11.4005 23.3227 11.4005 17.4931C11.4005 17.3055 11.4107 17.1213 11.4278 16.9371C11.7041 14.1571 14.0339 11.6602 17.6428 9.8591C21.2654 8.04781 26.1808 6.93579 31.5874 6.93579C36.9939 6.93579 41.9059 8.04781 45.5285 9.8591C49.134 11.6602 51.4672 14.1537 51.7469 16.9337C51.764 17.1213 51.7742 17.3055 51.7742 17.4931Z" fill="#352F2F"/>
<path d="M36.3734 38.2736V34.6204H26.8019V38.2736C26.8019 40.9377 25.84 43.5813 23.8888 45.3926C23.6193 45.6416 23.4727 45.9077 23.4727 46.1874C23.4727 47.5723 27.1055 48.6979 31.5876 48.6979C36.0698 48.6979 39.7026 47.5757 39.7026 46.1874C39.7026 45.9111 39.556 45.6416 39.2865 45.3926C37.3353 43.5813 36.3734 40.9377 36.3734 38.2736Z" fill="#F4D1C3"/>
<path d="M45.3166 17.5716C45.3166 18.6597 45.1904 19.7171 44.9516 20.7337C43.5224 26.7918 38.0817 31.3012 31.5869 31.3012C25.0922 31.3012 19.5526 26.7099 18.1882 20.5699C17.9699 19.6046 17.8573 18.6017 17.8573 17.5716C17.8573 9.99213 24.0041 3.84534 31.5869 3.84534C31.7711 3.84534 31.9553 3.84875 32.1395 3.85557C32.3579 3.8658 32.5727 3.87945 32.7876 3.89991C39.8077 4.50368 45.3166 10.3946 45.3166 17.5716Z" fill="#C1C1C1"/>
<path d="M20.2182 29.8106C18.8265 29.3876 17.769 28.1426 17.6531 26.6008C17.5371 25.0623 18.3933 23.6809 19.7031 23.0498L20.1705 29.3262C20.1841 29.4899 20.1977 29.6503 20.2182 29.8106Z" fill="#F4D1C3"/>
<path d="M21.5553 29.9608C21.0914 29.9949 20.6378 29.9403 20.2182 29.8141C20.1977 29.6504 20.1841 29.49 20.1704 29.3263L19.7031 23.0499C20.1022 22.8555 20.5423 22.7327 21.013 22.6986C23.0187 22.5485 24.7652 24.0528 24.9153 26.0585C25.0654 28.0642 23.5611 29.8107 21.5553 29.9608Z" fill="#E8BBAA"/>
<path d="M43.4686 23.0499L43.0012 29.3263C42.9876 29.49 42.974 29.6538 42.9535 29.8141C42.5339 29.9403 42.0802 29.9949 41.6163 29.9608C39.6106 29.8107 38.1063 28.0642 38.2564 26.0585C38.4065 24.0528 40.153 22.5485 42.1587 22.6986C42.6294 22.7327 43.0695 22.8555 43.4686 23.0499Z" fill="#E8BBAA"/>
<path d="M36.3723 35.6401V40.3474C34.8885 40.9546 33.2716 41.2855 31.5865 41.2855C29.9015 41.2855 28.2846 40.9546 26.8008 40.3474V35.6401H36.3723Z" fill="#E8BBAA"/>
<path d="M31.5876 38.9012C26.1333 38.9012 21.5999 34.6953 21.194 29.2546L20.3958 18.5438C19.9115 12.0354 25.0622 6.4856 31.5876 6.4856C38.1165 6.4856 43.2672 12.0354 42.7794 18.5438L41.9812 29.2546C41.5753 34.6953 37.042 38.9012 31.5876 38.9012Z" fill="#F4D1C3"/>
<path d="M27.3511 24.9327C28.0217 24.9327 28.5654 24.389 28.5654 23.7184C28.5654 23.0477 28.0217 22.504 27.3511 22.504C26.6804 22.504 26.1367 23.0477 26.1367 23.7184C26.1367 24.389 26.6804 24.9327 27.3511 24.9327Z" fill="#453C56"/>
<path d="M35.8237 24.9327C36.4944 24.9327 37.0381 24.389 37.0381 23.7184C37.0381 23.0477 36.4944 22.504 35.8237 22.504C35.1531 22.504 34.6094 23.0477 34.6094 23.7184C34.6094 24.389 35.1531 24.9327 35.8237 24.9327Z" fill="#453C56"/>
<path d="M32.5797 27.1398C32.3341 27.324 31.9794 27.4365 31.5871 27.4365C31.1948 27.4365 30.8435 27.3206 30.5945 27.1398" stroke="#D1A193" stroke-width="0.682218" stroke-linecap="round" stroke-linejoin="round"/>
<path d="M34.3803 30.2574C33.9301 30.4109 32.8488 30.5201 31.5867 30.5201C30.3245 30.5201 29.2432 30.4109 28.793 30.2574" stroke="#F4807D" stroke-width="0.682218" stroke-linecap="round" stroke-linejoin="round"/>
<path opacity="0.5" d="M38.3717 29.5105C39.681 29.5105 40.7424 28.4491 40.7424 27.1398C40.7424 25.8304 39.681 24.769 38.3717 24.769C37.0624 24.769 36.001 25.8304 36.001 27.1398C36.001 28.4491 37.0624 29.5105 38.3717 29.5105Z" fill="url(#paint0_radial_2086_22576)"/>
<path d="M34.2891 13.1509C33.4329 14.0003 32.3516 14.6689 31.1339 15.0884C29.7046 15.5762 28.4391 16.388 27.5147 17.4659C25.6898 19.5876 22.7426 20.9043 19.4611 20.7167C19.0416 20.6928 18.6322 20.6451 18.2263 20.57C17.9807 19.6047 17.8545 18.6018 17.8545 17.5717C17.8545 9.99225 24.779 3.84546 33.317 3.84546C33.525 3.84546 33.7331 3.84887 33.9378 3.85569C34.1834 3.86593 34.4256 3.87957 34.6678 3.90004C35.6195 4.995 36.23 6.33556 36.346 7.78527C36.5098 9.85239 35.7013 11.749 34.2823 13.1509H34.2891Z" fill="#C1C1C1"/>
<path d="M34.9199 9.60327C34.9199 9.60327 36.2298 16.3743 41.6807 18.8098H44.2424L43.5261 11.8785L34.9199 9.60327Z" fill="#C1C1C1"/>
<path d="M28.2544 22.9168C27.8246 22.9441 27.2549 23.0464 26.6375 23.2204C26.0235 23.3943 25.4812 23.6058 25.1025 23.8105C25.1776 23.2784 25.7063 22.7565 26.4465 22.5484C27.1867 22.3369 27.9099 22.5041 28.2544 22.9168Z" fill="#453C56"/>
<path d="M34.9199 22.9168C35.3497 22.9441 35.9194 23.0464 36.5368 23.2204C37.1508 23.3943 37.6931 23.6058 38.0718 23.8105C37.9967 23.2784 37.468 22.7565 36.7278 22.5484C35.9876 22.3369 35.2644 22.5041 34.9199 22.9168Z" fill="#453C56"/>
<path d="M18.9316 26.4302H20.3609" stroke="#E8BBAA" stroke-width="1.02333" stroke-linecap="round" stroke-linejoin="round"/>
<path d="M19.1611 17.6024L20.4573 25.4752C20.5119 25.8061 20.7985 26.0483 21.1327 26.0483C21.4943 26.0483 21.7911 25.7685 21.815 25.407L22.3198 17.1658L19.1645 17.6024H19.1611Z" fill="#C1C1C1"/>
<path d="M28.3671 20.8224H26.3307C25.9554 20.8224 25.6484 20.5154 25.6484 20.1402C25.6484 19.765 25.9554 19.458 26.3307 19.458H28.3671C28.7423 19.458 29.0493 19.765 29.0493 20.1402C29.0493 20.5154 28.7423 20.8224 28.3671 20.8224Z" fill="#C1C1C1"/>
<path d="M36.8436 20.8224H34.8072C34.432 20.8224 34.125 20.5154 34.125 20.1402C34.125 19.765 34.432 19.458 34.8072 19.458H36.8436C37.2189 19.458 37.5259 19.765 37.5259 20.1402C37.5259 20.5154 37.2189 20.8224 36.8436 20.8224Z" fill="#C1C1C1"/>
<path d="M45.5283 9.8591V16.3095C45.5283 13.3862 39.286 11.0189 31.5871 11.0189C23.8883 11.0189 17.6426 13.3862 17.6426 16.3095V9.8591C21.2652 8.04781 26.1805 6.93579 31.5871 6.93579C36.9937 6.93579 41.9057 8.04781 45.5283 9.8591Z" fill="#352F2F"/>
<path d="M44.594 9.42254C41.0806 7.69652 36.5439 6.65955 31.5875 6.65955C26.6312 6.65955 22.0945 7.69652 18.5811 9.41912C18.9358 8.80172 19.3349 8.21501 19.7749 7.65559C22.4902 4.21721 26.7711 2 31.5875 2C36.404 2 40.6883 4.21721 43.4036 7.659C43.8436 8.21501 44.2427 8.80513 44.594 9.42254Z" fill="#352F2F"/>
<path d="M51.7742 16.3947C51.7742 16.5755 51.764 16.7563 51.7469 16.9337C51.4672 14.1536 49.134 11.6601 45.5285 9.85908C45.2249 9.70899 44.9145 9.56231 44.5938 9.42246C41.0804 7.87041 36.5437 6.93577 31.5874 6.93577C26.631 6.93577 22.0943 7.87041 18.5809 9.41905C18.2602 9.56231 17.9464 9.70899 17.6428 9.85908C14.0339 11.6601 11.7041 14.1571 11.4278 16.9337C11.4107 16.7563 11.4005 16.5755 11.4005 16.3947C11.4005 13.393 13.7951 10.6812 17.6428 8.76071C18.3114 8.42642 19.0243 8.11601 19.7747 7.83289C23.0937 6.57761 27.1768 5.8374 31.5874 5.8374C35.9979 5.8374 40.0844 6.57761 43.4034 7.8363C44.1538 8.11942 44.8633 8.42983 45.5285 8.76071C49.3762 10.6812 51.7742 13.3896 51.7742 16.3947Z" fill="#3F3B3B"/>
<path d="M30.0423 28.0471H33.1293C34.388 28.0471 35.4113 29.0704 35.4113 30.3291H27.7637C27.7637 29.0704 28.787 28.0471 30.0457 28.0471H30.0423Z" fill="#C1C1C1"/>
<path d="M74.909 40.9767C78.4978 40.9767 81.4071 38.0674 81.4071 34.4786C81.4071 30.8898 78.4978 27.9805 74.909 27.9805C71.3202 27.9805 68.4109 30.8898 68.4109 34.4786C68.4109 38.0674 71.3202 40.9767 74.909 40.9767Z" fill="#F4EBE1"/>
<path d="M63.1167 43.9239C63.9211 43.9239 64.5732 43.2718 64.5732 42.4674C64.5732 41.663 63.9211 41.0109 63.1167 41.0109C62.3123 41.0109 61.6602 41.663 61.6602 42.4674C61.6602 43.2718 62.3123 43.9239 63.1167 43.9239Z" fill="#F4EBE1"/>
<path d="M73.2278 43.9239C74.0322 43.9239 74.6843 43.2718 74.6843 42.4674C74.6843 41.663 74.0322 41.0109 73.2278 41.0109C72.4234 41.0109 71.7712 41.663 71.7712 42.4674C71.7712 43.2718 72.4234 43.9239 73.2278 43.9239Z" fill="#F4EBE1"/>
<path d="M51.8606 43.9854H84.4775C90.2798 43.9854 94.9905 48.6961 94.9905 54.4983V62.7634H41.3477V54.4983C41.3477 48.6961 46.0584 43.9854 51.8606 43.9854Z" fill="#C0E2B0"/>
<path d="M72.9584 37.4122V33.7589H63.3868V37.4122C63.3868 40.0763 62.4249 42.7199 60.4738 44.5311C60.2043 44.7802 60.0576 45.0462 60.0576 45.3259C60.0576 46.7108 68.1726 50.8246 68.1726 50.8246C68.1726 50.8246 76.2876 46.7108 76.2876 45.3259C76.2876 45.0496 76.1409 44.7802 75.8714 44.5311C73.9203 42.7199 72.9584 40.0763 72.9584 37.4122Z" fill="#F4D1C3"/>
<path d="M81.9017 16.7137C81.9017 17.8018 81.7755 18.8592 81.5367 19.8757C80.1074 25.9338 74.6667 30.4433 68.172 30.4433C61.6773 30.4433 56.1377 25.852 54.7733 19.712C54.5549 18.7467 54.4424 17.7438 54.4424 16.7137C54.4424 9.13421 60.5892 2.98743 68.172 2.98743C68.3562 2.98743 68.5404 2.99084 68.7246 2.99766C68.9429 3.00789 69.1578 3.02154 69.3727 3.042C76.3928 3.64577 81.9017 9.53672 81.9017 16.7137Z" fill="#F4EBE1"/>
<path d="M58.042 29.0721C56.6025 28.8538 55.3779 27.7759 55.0402 26.2648C54.7025 24.7605 55.3506 23.2698 56.5547 22.4546L57.9226 28.598C57.9601 28.7583 57.9976 28.9152 58.0386 29.0687L58.042 29.0721Z" fill="#F4D1C3"/>
<path d="M59.3854 29.0277C58.9317 29.13 58.4746 29.1402 58.0414 29.0754C57.9971 28.9151 57.963 28.7582 57.9255 28.6013L56.5576 22.4579C56.926 22.2089 57.3422 22.0213 57.8027 21.9224C59.764 21.4857 61.7118 22.7206 62.1484 24.6819C62.585 26.6433 61.3502 28.5911 59.3888 29.0277H59.3854Z" fill="#E8BBAA"/>
<path d="M78.3 29.072C79.7395 28.8537 80.9641 27.7758 81.3018 26.2647C81.6395 24.7604 80.9914 23.2697 79.7873 22.4545L78.4194 28.5978C78.3819 28.7582 78.3444 28.9151 78.3035 29.0686L78.3 29.072Z" fill="#F4D1C3"/>
<path d="M76.9561 29.0277C77.4098 29.13 77.8669 29.1402 78.3001 29.0754C78.3444 28.9151 78.3785 28.7582 78.4161 28.6013L79.7839 22.4579C79.4155 22.2089 78.9994 22.0213 78.5389 21.9224C76.5775 21.4857 74.6297 22.7206 74.1931 24.6819C73.7565 26.6433 74.9913 28.5911 76.9527 29.0277H76.9561Z" fill="#E8BBAA"/>
<path d="M72.9582 34.7822V39.4895C71.4744 40.0967 69.8576 40.4276 68.1725 40.4276C66.4874 40.4276 64.8705 40.0967 63.3867 39.4895V34.7822H72.9582Z" fill="#E8BBAA"/>
<path d="M68.1726 38.0397C64.2396 38.0397 60.8353 35.3006 59.9962 31.4597L56.9808 17.6789C56.4964 11.1706 61.6472 5.62073 68.1726 5.62073C74.7014 5.62073 79.8522 11.1706 79.3644 17.6789L76.349 31.4597C75.5064 35.3006 72.1056 38.0397 68.1726 38.0397Z" fill="#F4D1C3"/>
<path d="M63.9254 24.3784C64.5961 24.3784 65.1398 24.0057 65.1398 23.5461C65.1398 23.0864 64.5961 22.7137 63.9254 22.7137C63.2547 22.7137 62.7111 23.0864 62.7111 23.5461C62.7111 24.0057 63.2547 24.3784 63.9254 24.3784Z" fill="#453C56"/>
<path d="M67.1797 26.5785C67.4253 26.3943 67.78 26.2817 68.1723 26.2817C68.5646 26.2817 68.9159 26.3977 69.1649 26.5785" stroke="#D1A193" stroke-width="0.682218" stroke-linecap="round" stroke-linejoin="round"/>
<path d="M65.5289 20.9093C65.4641 20.9093 65.3993 20.8957 65.3345 20.8718C64.9354 20.7081 64.3589 20.6126 63.7586 20.6126C63.1582 20.6126 62.5783 20.7081 62.1861 20.8718C61.9268 20.981 61.6266 20.8582 61.5175 20.5955C61.4083 20.3363 61.5311 20.0361 61.7938 19.9269C62.3157 19.7086 63.0149 19.5892 63.762 19.5892C64.509 19.5892 65.2015 19.7086 65.7268 19.9269C65.9894 20.0361 66.1122 20.3329 66.0065 20.5955C65.9246 20.7933 65.7336 20.9127 65.5323 20.9127L65.5289 20.9093Z" fill="#F4EBE1"/>
<path d="M70.8132 20.9092C70.612 20.9092 70.421 20.7898 70.3391 20.592C70.2299 20.3293 70.3562 20.0325 70.6188 19.9234C71.1441 19.7051 71.8434 19.5857 72.5836 19.5857C73.3238 19.5857 74.0299 19.7051 74.5518 19.9234C74.811 20.0325 74.9373 20.3327 74.8281 20.592C74.7189 20.8512 74.4188 20.9774 74.1595 20.8683C73.7673 20.7045 73.1942 20.609 72.587 20.609C71.9798 20.609 71.4102 20.7045 71.0111 20.8683C70.9463 20.8956 70.8815 20.9058 70.8167 20.9058L70.8132 20.9092Z" fill="#F4EBE1"/>
<path d="M70.966 29.2017C70.5158 30.2967 69.4345 31.0676 68.1723 31.0676C66.9102 31.0676 65.8289 30.2967 65.3787 29.2017C66.2314 29.0175 67.1763 28.9152 68.1723 28.9152C69.1684 28.9152 70.1133 29.0175 70.966 29.2017Z" fill="#F4807D"/>
<path opacity="0.5" d="M74.9538 28.6524C76.2631 28.6524 77.3246 27.591 77.3246 26.2817C77.3246 24.9724 76.2631 23.911 74.9538 23.911C73.6445 23.911 72.5831 24.9724 72.5831 26.2817C72.5831 27.591 73.6445 28.6524 74.9538 28.6524Z" fill="url(#paint1_radial_2086_22576)"/>
<path d="M65.1704 23.512C64.7065 23.3892 64.0618 23.3107 63.3386 23.3005C62.6189 23.2937 61.9572 23.3551 61.4728 23.471C61.7764 22.8434 62.5541 22.3931 63.4239 22.4034C64.2938 22.4102 64.9862 22.8775 65.1738 23.512H65.1704Z" fill="#453C56"/>
<path d="M72.4155 24.3784C73.0862 24.3784 73.6299 24.0057 73.6299 23.5461C73.6299 23.0864 73.0862 22.7137 72.4155 22.7137C71.7449 22.7137 71.2012 23.0864 71.2012 23.5461C71.2012 24.0057 71.7449 24.3784 72.4155 24.3784Z" fill="#453C56"/>
<path d="M71.1743 23.512C71.6382 23.3892 72.2829 23.3107 73.0061 23.3005C73.7258 23.2937 74.3876 23.3551 74.8719 23.471C74.5683 22.8434 73.7906 22.3931 72.9208 22.4034C72.051 22.4102 71.3585 22.8775 71.1709 23.512H71.1743Z" fill="#453C56"/>
<path d="M56.2783 25.9134L57.6973 25.7053" stroke="#E8BBAA" stroke-width="1.02333" stroke-linecap="round" stroke-linejoin="round"/>
<path d="M80.064 25.9134L78.6484 25.7053" stroke="#E8BBAA" stroke-width="1.02333" stroke-linecap="round" stroke-linejoin="round"/>
<path d="M80.2852 18.16C80.2852 18.4942 80.275 18.8354 80.2511 19.173L79.8076 21.4141C79.3608 13.4595 74.3226 9.48555 68.1724 9.48555C62.0222 9.48555 56.984 13.4629 56.5372 21.4141L56.0937 19.173C55.5684 11.3821 61.1251 4.74072 68.1724 4.74072C75.2197 4.74072 80.2852 10.8125 80.2852 18.1565V18.16Z" fill="#F4EBE1"/>
<path d="M57.8028 21.919C57.8028 21.919 57.2468 12.7943 63.936 10.195L62.2373 8.97388L55.7494 13.4219L54.9512 18.6341L57.7994 21.9224L57.8028 21.919Z" fill="#F4EBE1"/>
<path d="M78.5423 21.919C78.5423 21.919 79.0983 12.7943 72.4092 10.195L74.1079 8.97388L80.5958 13.4219L81.394 18.6341L78.5457 21.9224L78.5423 21.919Z" fill="#F4EBE1"/>
<path d="M69.2847 11.9722C70.7412 12.4361 72.4024 12.5077 73.5554 13.5106C74.7663 14.568 75.0597 16.3657 76.1581 17.5391C76.6015 18.0132 77.1609 18.3646 77.6009 18.8421C78.1194 19.4084 78.4503 20.1417 78.5288 20.9024C78.9756 21.1037 79.3849 20.5511 79.535 20.0838C80.1115 18.2793 80.0501 16.3179 79.6169 14.4725C78.9176 11.4844 77.178 8.67706 74.5787 7.04656C72.5321 5.76399 69.9328 5.29667 67.586 5.91749C66.8867 6.10169 65.5427 6.34729 65.0686 6.96129C64.3966 7.83452 65.2426 9.07957 65.8293 9.73791C66.7537 10.7681 67.9646 11.5458 69.2813 11.9654L69.2847 11.9722Z" fill="#F4EBE1"/>
<path d="M63.1105 10.8057C62.4317 11.6584 62.0599 12.7091 61.7018 13.7358C61.3504 14.7387 60.9991 15.7449 60.6477 16.7478C60.0679 18.4056 59.4163 20.1657 58.0041 21.2163C57.9086 21.288 57.7995 21.3562 57.6801 21.3425C57.5641 21.3255 57.4788 21.2334 57.4072 21.1413C56.5442 20.0395 56.4521 18.5147 56.6499 17.1264C57.0183 14.5169 58.3111 12.0371 60.2793 10.2804C61.0161 9.62202 61.8655 9.05578 62.824 8.82382C63.2026 8.73172 65.2937 8.52024 65.1777 9.31843C65.1402 9.5845 64.3965 9.73117 64.168 9.86762C63.7621 10.1098 63.4005 10.4373 63.1071 10.8057H63.1105Z" fill="#F4EBE1"/>
<path d="M64.6826 8.39062C64.6382 10.9114 66.4495 13.3504 68.8782 14.0326C69.5093 14.2099 70.1744 14.2816 70.7782 14.534C72.013 15.0491 72.818 16.2361 73.8618 17.0753C75.2808 18.2146 77.2081 18.6921 78.9955 18.3544" stroke="#F4EBE1" stroke-width="1.36444" stroke-linecap="round" stroke-linejoin="round"/>
<path d="M65.3037 28.209C65.3037 28.209 64.0654 29.8463 64.0654 31.2039" stroke="#E8BBAA" stroke-width="0.682218" stroke-linecap="round" stroke-linejoin="round"/>
<path d="M71.038 28.209C71.038 28.209 72.2762 29.8463 72.2762 31.2039" stroke="#E8BBAA" stroke-width="0.682218" stroke-linecap="round" stroke-linejoin="round"/>
<path d="M45.5183 26.6008C45.4023 28.1426 44.3449 29.3876 42.9531 29.814C42.9736 29.6537 42.9872 29.4899 43.0009 29.3262L43.4682 23.0498C44.7781 23.6809 45.6342 25.0623 45.5183 26.6008Z" fill="#DADADA"/>
<path d="M44.2417 26.4302H42.8125" stroke="#C7C7C7" stroke-width="1.02333" stroke-linecap="round" stroke-linejoin="round"/>
<path d="M44.0141 17.6024L42.7179 25.4752C42.6633 25.8061 42.3768 26.0483 42.0425 26.0483C41.681 26.0483 41.3842 25.7685 41.3603 25.407L40.8555 17.1658L44.0107 17.6024H44.0141Z" fill="#C1C1C1"/>
<path d="M51.7742 17.4931C51.7742 23.3227 42.7348 28.047 31.5874 28.047C20.4399 28.047 11.4005 23.3227 11.4005 17.4931C11.4005 17.3055 11.4107 17.1213 11.4278 16.9371C11.7041 14.1571 14.0339 11.6602 17.6428 9.8591C21.2654 8.04781 26.1808 6.93579 31.5874 6.93579C36.9939 6.93579 41.9059 8.04781 45.5285 9.8591C49.134 11.6602 51.4672 14.1537 51.7469 16.9337C51.764 17.1213 51.7742 17.3055 51.7742 17.4931Z" fill="#313131"/>
<path d="M36.3734 38.2736V34.6204H26.8019V38.2736C26.8019 40.9377 25.84 43.5813 23.8888 45.3926C23.6193 45.6416 23.4727 45.9077 23.4727 46.1874C23.4727 47.5723 27.1055 48.6979 31.5876 48.6979C36.0698 48.6979 39.7026 47.5757 39.7026 46.1874C39.7026 45.9111 39.556 45.6416 39.2865 45.3926C37.3353 43.5813 36.3734 40.9377 36.3734 38.2736Z" fill="#DADADA"/>
<path d="M45.3166 17.5716C45.3166 18.6597 45.1904 19.7171 44.9516 20.7337C43.5224 26.7918 38.0817 31.3012 31.5869 31.3012C25.0922 31.3012 19.5526 26.7099 18.1882 20.5699C17.9699 19.6046 17.8573 18.6017 17.8573 17.5716C17.8573 9.99213 24.0041 3.84534 31.5869 3.84534C31.7711 3.84534 31.9553 3.84875 32.1395 3.85557C32.3579 3.8658 32.5727 3.87945 32.7876 3.89991C39.8077 4.50368 45.3166 10.3946 45.3166 17.5716Z" fill="#C1C1C1"/>
<path d="M20.2182 29.8106C18.8265 29.3876 17.769 28.1426 17.6531 26.6008C17.5371 25.0623 18.3933 23.6809 19.7031 23.0498L20.1705 29.3262C20.1841 29.4899 20.1977 29.6503 20.2182 29.8106Z" fill="#DADADA"/>
<path d="M21.5553 29.9608C21.0914 29.9949 20.6378 29.9403 20.2182 29.8141C20.1977 29.6504 20.1841 29.49 20.1704 29.3263L19.7031 23.0499C20.1022 22.8555 20.5423 22.7327 21.013 22.6986C23.0187 22.5485 24.7652 24.0528 24.9153 26.0585C25.0654 28.0642 23.5611 29.8107 21.5553 29.9608Z" fill="#C7C7C7"/>
<path d="M43.4677 23.0498L43.0004 29.3262C42.9867 29.4899 42.9731 29.6536 42.9526 29.814C42.5331 29.9402 42.0794 29.9948 41.6155 29.9606C39.6098 29.8106 38.1055 28.0641 38.2556 26.0584C38.4056 24.0526 40.1521 22.5483 42.1579 22.6984C42.6286 22.7325 43.0686 22.8553 43.4677 23.0498Z" fill="#C7C7C7"/>
<path d="M36.3723 35.6401V40.3474C34.8885 40.9546 33.2716 41.2855 31.5865 41.2855C29.9015 41.2855 28.2846 40.9546 26.8008 40.3474V35.6401H36.3723Z" fill="#C7C7C7"/>
<path d="M31.5876 38.9012C26.1333 38.9012 21.5999 34.6953 21.194 29.2546L20.3958 18.5438C19.9115 12.0354 25.0622 6.4856 31.5876 6.4856C38.1165 6.4856 43.2672 12.0354 42.7794 18.5438L41.9812 29.2546C41.5753 34.6953 37.042 38.9012 31.5876 38.9012Z" fill="#DADADA"/>
<path d="M27.3511 24.9327C28.0217 24.9327 28.5654 24.389 28.5654 23.7184C28.5654 23.0477 28.0217 22.504 27.3511 22.504C26.6804 22.504 26.1367 23.0477 26.1367 23.7184C26.1367 24.389 26.6804 24.9327 27.3511 24.9327Z" fill="#424242"/>
<path d="M35.8237 24.9327C36.4944 24.9327 37.0381 24.389 37.0381 23.7184C37.0381 23.0477 36.4944 22.504 35.8237 22.504C35.1531 22.504 34.6094 23.0477 34.6094 23.7184C34.6094 24.389 35.1531 24.9327 35.8237 24.9327Z" fill="#424242"/>
<path d="M32.5797 27.1398C32.3341 27.324 31.9794 27.4365 31.5871 27.4365C31.1948 27.4365 30.8435 27.3206 30.5945 27.1398" stroke="#AEAEAE" stroke-width="0.682218" stroke-linecap="round" stroke-linejoin="round"/>
<path d="M34.3803 30.2574C33.9301 30.4109 32.8488 30.5201 31.5867 30.5201C30.3245 30.5201 29.2432 30.4109 28.793 30.2574" stroke="#A2A2A2" stroke-width="0.682218" stroke-linecap="round" stroke-linejoin="round"/>
<path opacity="0.5" d="M38.3717 29.5105C39.681 29.5105 40.7424 28.4491 40.7424 27.1398C40.7424 25.8304 39.681 24.769 38.3717 24.769C37.0624 24.769 36.001 25.8304 36.001 27.1398C36.001 28.4491 37.0624 29.5105 38.3717 29.5105Z" fill="url(#paint2_radial_2086_22576)"/>
<path d="M34.2891 13.1509C33.4329 14.0003 32.3516 14.6689 31.1339 15.0884C29.7046 15.5762 28.4391 16.388 27.5147 17.4659C25.6898 19.5876 22.7426 20.9043 19.4611 20.7167C19.0416 20.6928 18.6322 20.6451 18.2263 20.57C17.9807 19.6047 17.8545 18.6018 17.8545 17.5717C17.8545 9.99225 24.779 3.84546 33.317 3.84546C33.525 3.84546 33.7331 3.84887 33.9378 3.85569C34.1834 3.86593 34.4256 3.87957 34.6678 3.90004C35.6195 4.995 36.23 6.33556 36.346 7.78527C36.5098 9.85239 35.7013 11.749 34.2823 13.1509H34.2891Z" fill="#C1C1C1"/>
<path d="M34.9199 9.60327C34.9199 9.60327 36.2298 16.3743 41.6807 18.8098H44.2424L43.5261 11.8785L34.9199 9.60327Z" fill="#C1C1C1"/>
<path d="M28.2544 22.9168C27.8246 22.9441 27.2549 23.0464 26.6375 23.2204C26.0235 23.3943 25.4812 23.6058 25.1025 23.8105C25.1776 23.2784 25.7063 22.7565 26.4465 22.5484C27.1867 22.3369 27.9099 22.5041 28.2544 22.9168Z" fill="#424242"/>
<path d="M34.9199 22.9168C35.3497 22.9441 35.9194 23.0464 36.5368 23.2204C37.1508 23.3943 37.6931 23.6058 38.0718 23.8105C37.9967 23.2784 37.468 22.7565 36.7278 22.5484C35.9876 22.3369 35.2644 22.5041 34.9199 22.9168Z" fill="#424242"/>
<path d="M18.9316 26.4302H20.3609" stroke="#C7C7C7" stroke-width="1.02333" stroke-linecap="round" stroke-linejoin="round"/>
<path d="M19.1611 17.6024L20.4573 25.4752C20.5119 25.8061 20.7985 26.0483 21.1327 26.0483C21.4943 26.0483 21.7911 25.7685 21.815 25.407L22.3198 17.1658L19.1645 17.6024H19.1611Z" fill="#C1C1C1"/>
<path d="M28.3671 20.8224H26.3307C25.9554 20.8224 25.6484 20.5154 25.6484 20.1402C25.6484 19.765 25.9554 19.458 26.3307 19.458H28.3671C28.7423 19.458 29.0493 19.765 29.0493 20.1402C29.0493 20.5154 28.7423 20.8224 28.3671 20.8224Z" fill="#C1C1C1"/>
<path d="M36.8436 20.8224H34.8072C34.432 20.8224 34.125 20.5154 34.125 20.1402C34.125 19.765 34.432 19.458 34.8072 19.458H36.8436C37.2189 19.458 37.5259 19.765 37.5259 20.1402C37.5259 20.5154 37.2189 20.8224 36.8436 20.8224Z" fill="#C1C1C1"/>
<path d="M45.5283 9.8591V16.3095C45.5283 13.3862 39.286 11.0189 31.5871 11.0189C23.8883 11.0189 17.6426 13.3862 17.6426 16.3095V9.8591C21.2652 8.04781 26.1805 6.93579 31.5871 6.93579C36.9937 6.93579 41.9057 8.04781 45.5283 9.8591Z" fill="#313131"/>
<path d="M44.594 9.42254C41.0806 7.69652 36.5439 6.65955 31.5875 6.65955C26.6312 6.65955 22.0945 7.69652 18.5811 9.41912C18.9358 8.80172 19.3349 8.21501 19.7749 7.65559C22.4902 4.21721 26.7711 2 31.5875 2C36.404 2 40.6883 4.21721 43.4036 7.659C43.8436 8.21501 44.2427 8.80513 44.594 9.42254Z" fill="#313131"/>
<path d="M51.7742 16.3947C51.7742 16.5755 51.764 16.7563 51.7469 16.9337C51.4672 14.1536 49.134 11.6601 45.5285 9.85908C45.2249 9.70899 44.9145 9.56231 44.5938 9.42246C41.0804 7.87041 36.5437 6.93577 31.5874 6.93577C26.631 6.93577 22.0943 7.87041 18.5809 9.41905C18.2602 9.56231 17.9464 9.70899 17.6428 9.85908C14.0339 11.6601 11.7041 14.1571 11.4278 16.9337C11.4107 16.7563 11.4005 16.5755 11.4005 16.3947C11.4005 13.393 13.7951 10.6812 17.6428 8.76071C18.3114 8.42642 19.0243 8.11601 19.7747 7.83289C23.0937 6.57761 27.1768 5.8374 31.5874 5.8374C35.9979 5.8374 40.0844 6.57761 43.4034 7.8363C44.1538 8.11942 44.8633 8.42983 45.5285 8.76071C49.3762 10.6812 51.7742 13.3896 51.7742 16.3947Z" fill="#3C3C3C"/>
<path d="M30.0423 28.0471H33.1293C34.388 28.0471 35.4113 29.0704 35.4113 30.3291H27.7637C27.7637 29.0704 28.787 28.0471 30.0457 28.0471H30.0423Z" fill="#C1C1C1"/>
<path d="M74.909 40.9767C78.4978 40.9767 81.4071 38.0674 81.4071 34.4786C81.4071 30.8898 78.4978 27.9805 74.909 27.9805C71.3202 27.9805 68.4109 30.8898 68.4109 34.4786C68.4109 38.0674 71.3202 40.9767 74.909 40.9767Z" fill="#EDEDED"/>
<path d="M63.1167 43.9239C63.9211 43.9239 64.5732 43.2718 64.5732 42.4674C64.5732 41.663 63.9211 41.0109 63.1167 41.0109C62.3123 41.0109 61.6602 41.663 61.6602 42.4674C61.6602 43.2718 62.3123 43.9239 63.1167 43.9239Z" fill="#EDEDED"/>
<path d="M73.2278 43.9239C74.0322 43.9239 74.6843 43.2718 74.6843 42.4674C74.6843 41.663 74.0322 41.0109 73.2278 41.0109C72.4234 41.0109 71.7712 41.663 71.7712 42.4674C71.7712 43.2718 72.4234 43.9239 73.2278 43.9239Z" fill="#EDEDED"/>
<path d="M51.8606 43.9854H84.4775C90.2798 43.9854 94.9905 48.6961 94.9905 54.4983V62.7634H41.3477V54.4983C41.3477 48.6961 46.0584 43.9854 51.8606 43.9854Z" fill="#D2D2D2"/>
<path d="M72.9584 37.4122V33.7589H63.3868V37.4122C63.3868 40.0763 62.4249 42.7199 60.4738 44.5311C60.2043 44.7802 60.0576 45.0462 60.0576 45.3259C60.0576 46.7108 68.1726 50.8246 68.1726 50.8246C68.1726 50.8246 76.2876 46.7108 76.2876 45.3259C76.2876 45.0496 76.1409 44.7802 75.8714 44.5311C73.9203 42.7199 72.9584 40.0763 72.9584 37.4122Z" fill="#DADADA"/>
<path d="M81.9017 16.7137C81.9017 17.8018 81.7755 18.8592 81.5367 19.8757C80.1074 25.9338 74.6667 30.4433 68.172 30.4433C61.6773 30.4433 56.1377 25.852 54.7733 19.712C54.5549 18.7467 54.4424 17.7438 54.4424 16.7137C54.4424 9.13421 60.5892 2.98743 68.172 2.98743C68.3562 2.98743 68.5404 2.99084 68.7246 2.99766C68.9429 3.00789 69.1578 3.02154 69.3727 3.042C76.3928 3.64577 81.9017 9.53672 81.9017 16.7137Z" fill="#EDEDED"/>
<path d="M58.042 29.0721C56.6025 28.8538 55.3779 27.7759 55.0402 26.2648C54.7025 24.7605 55.3506 23.2698 56.5547 22.4546L57.9226 28.598C57.9601 28.7583 57.9976 28.9152 58.0386 29.0687L58.042 29.0721Z" fill="#DADADA"/>
<path d="M59.3854 29.0277C58.9317 29.13 58.4746 29.1402 58.0414 29.0754C57.9971 28.9151 57.963 28.7582 57.9255 28.6013L56.5576 22.4579C56.926 22.2089 57.3422 22.0213 57.8027 21.9224C59.764 21.4857 61.7118 22.7206 62.1484 24.6819C62.585 26.6433 61.3502 28.5911 59.3888 29.0277H59.3854Z" fill="#C7C7C7"/>
<path d="M78.3 29.072C79.7395 28.8537 80.9641 27.7758 81.3018 26.2647C81.6395 24.7604 80.9914 23.2697 79.7873 22.4545L78.4194 28.5978C78.3819 28.7582 78.3444 28.9151 78.3035 29.0686L78.3 29.072Z" fill="#DADADA"/>
<path d="M76.9561 29.0277C77.4098 29.13 77.8669 29.1402 78.3001 29.0754C78.3444 28.9151 78.3785 28.7582 78.4161 28.6013L79.7839 22.4579C79.4155 22.2089 78.9994 22.0213 78.5389 21.9224C76.5775 21.4857 74.6297 22.7206 74.1931 24.6819C73.7565 26.6433 74.9913 28.5911 76.9527 29.0277H76.9561Z" fill="#C7C7C7"/>
<path d="M72.9582 34.7822V39.4895C71.4744 40.0967 69.8576 40.4276 68.1725 40.4276C66.4874 40.4276 64.8705 40.0967 63.3867 39.4895V34.7822H72.9582Z" fill="#C7C7C7"/>
<path d="M68.1726 38.0397C64.2396 38.0397 60.8353 35.3006 59.9962 31.4597L56.9808 17.6789C56.4964 11.1706 61.6472 5.62073 68.1726 5.62073C74.7014 5.62073 79.8522 11.1706 79.3644 17.6789L76.349 31.4597C75.5064 35.3006 72.1056 38.0397 68.1726 38.0397Z" fill="#DADADA"/>
<path d="M63.9254 24.3784C64.5961 24.3784 65.1398 24.0057 65.1398 23.5461C65.1398 23.0864 64.5961 22.7137 63.9254 22.7137C63.2547 22.7137 62.7111 23.0864 62.7111 23.5461C62.7111 24.0057 63.2547 24.3784 63.9254 24.3784Z" fill="#424242"/>
<path d="M67.1797 26.5785C67.4253 26.3943 67.78 26.2817 68.1723 26.2817C68.5646 26.2817 68.9159 26.3977 69.1649 26.5785" stroke="#AEAEAE" stroke-width="0.682218" stroke-linecap="round" stroke-linejoin="round"/>
<path d="M65.5289 20.9093C65.4641 20.9093 65.3993 20.8957 65.3345 20.8718C64.9354 20.7081 64.3589 20.6126 63.7586 20.6126C63.1582 20.6126 62.5783 20.7081 62.1861 20.8718C61.9268 20.981 61.6266 20.8582 61.5175 20.5955C61.4083 20.3363 61.5311 20.0361 61.7938 19.9269C62.3157 19.7086 63.0149 19.5892 63.762 19.5892C64.509 19.5892 65.2015 19.7086 65.7268 19.9269C65.9894 20.0361 66.1122 20.3329 66.0065 20.5955C65.9246 20.7933 65.7336 20.9127 65.5323 20.9127L65.5289 20.9093Z" fill="#EDEDED"/>
<path d="M70.8132 20.9092C70.612 20.9092 70.421 20.7898 70.3391 20.592C70.2299 20.3293 70.3562 20.0325 70.6188 19.9234C71.1441 19.7051 71.8434 19.5857 72.5836 19.5857C73.3238 19.5857 74.0299 19.7051 74.5518 19.9234C74.811 20.0325 74.9373 20.3327 74.8281 20.592C74.7189 20.8512 74.4188 20.9774 74.1595 20.8683C73.7673 20.7045 73.1942 20.609 72.587 20.609C71.9798 20.609 71.4102 20.7045 71.0111 20.8683C70.9463 20.8956 70.8815 20.9058 70.8167 20.9058L70.8132 20.9092Z" fill="#EDEDED"/>
<path d="M70.966 29.2017C70.5158 30.2967 69.4345 31.0676 68.1723 31.0676C66.9102 31.0676 65.8289 30.2967 65.3787 29.2017C66.2314 29.0175 67.1763 28.9152 68.1723 28.9152C69.1684 28.9152 70.1133 29.0175 70.966 29.2017Z" fill="#A2A2A2"/>
<path opacity="0.5" d="M74.9538 28.6524C76.2631 28.6524 77.3246 27.591 77.3246 26.2817C77.3246 24.9724 76.2631 23.911 74.9538 23.911C73.6445 23.911 72.5831 24.9724 72.5831 26.2817C72.5831 27.591 73.6445 28.6524 74.9538 28.6524Z" fill="url(#paint3_radial_2086_22576)"/>
<path d="M65.1704 23.512C64.7065 23.3892 64.0618 23.3107 63.3386 23.3005C62.6189 23.2937 61.9572 23.3551 61.4728 23.471C61.7764 22.8434 62.5541 22.3931 63.4239 22.4034C64.2938 22.4102 64.9862 22.8775 65.1738 23.512H65.1704Z" fill="#424242"/>
<path d="M72.4155 24.3784C73.0862 24.3784 73.6299 24.0057 73.6299 23.5461C73.6299 23.0864 73.0862 22.7137 72.4155 22.7137C71.7449 22.7137 71.2012 23.0864 71.2012 23.5461C71.2012 24.0057 71.7449 24.3784 72.4155 24.3784Z" fill="#424242"/>
<path d="M71.1743 23.512C71.6382 23.3892 72.2829 23.3107 73.0061 23.3005C73.7258 23.2937 74.3876 23.3551 74.8719 23.471C74.5683 22.8434 73.7906 22.3931 72.9208 22.4034C72.051 22.4102 71.3585 22.8775 71.1709 23.512H71.1743Z" fill="#424242"/>
<path d="M56.2783 25.9134L57.6973 25.7053" stroke="#C7C7C7" stroke-width="1.02333" stroke-linecap="round" stroke-linejoin="round"/>
<path d="M80.0632 25.9134L78.6476 25.7053" stroke="#C7C7C7" stroke-width="1.02333" stroke-linecap="round" stroke-linejoin="round"/>
<path d="M80.2852 18.16C80.2852 18.4942 80.275 18.8354 80.2511 19.173L79.8076 21.4141C79.3608 13.4595 74.3226 9.48555 68.1724 9.48555C62.0222 9.48555 56.984 13.4629 56.5372 21.4141L56.0937 19.173C55.5684 11.3821 61.1251 4.74072 68.1724 4.74072C75.2197 4.74072 80.2852 10.8125 80.2852 18.1565V18.16Z" fill="#EDEDED"/>
<path d="M57.8028 21.919C57.8028 21.919 57.2468 12.7943 63.936 10.195L62.2373 8.97388L55.7494 13.4219L54.9512 18.6341L57.7994 21.9224L57.8028 21.919Z" fill="#EDEDED"/>
<path d="M78.5423 21.919C78.5423 21.919 79.0983 12.7943 72.4092 10.195L74.1079 8.97388L80.5958 13.4219L81.394 18.6341L78.5457 21.9224L78.5423 21.919Z" fill="#EDEDED"/>
<path d="M69.2847 11.9722C70.7412 12.4361 72.4024 12.5077 73.5554 13.5106C74.7663 14.568 75.0597 16.3657 76.1581 17.5391C76.6015 18.0132 77.1609 18.3646 77.6009 18.8421C78.1194 19.4084 78.4503 20.1417 78.5288 20.9024C78.9756 21.1037 79.3849 20.5511 79.535 20.0838C80.1115 18.2793 80.0501 16.3179 79.6169 14.4725C78.9176 11.4844 77.178 8.67706 74.5787 7.04656C72.5321 5.76399 69.9328 5.29667 67.586 5.91749C66.8867 6.10169 65.5427 6.34729 65.0686 6.96129C64.3966 7.83452 65.2426 9.07957 65.8293 9.73791C66.7537 10.7681 67.9646 11.5458 69.2813 11.9654L69.2847 11.9722Z" fill="#EDEDED"/>
<path d="M63.1105 10.8057C62.4317 11.6584 62.0599 12.7091 61.7018 13.7358C61.3504 14.7387 60.9991 15.7449 60.6477 16.7478C60.0679 18.4056 59.4163 20.1657 58.0041 21.2163C57.9086 21.288 57.7995 21.3562 57.6801 21.3425C57.5641 21.3255 57.4788 21.2334 57.4072 21.1413C56.5442 20.0395 56.4521 18.5147 56.6499 17.1264C57.0183 14.5169 58.3111 12.0371 60.2793 10.2804C61.0161 9.62202 61.8655 9.05578 62.824 8.82382C63.2026 8.73172 65.2937 8.52024 65.1777 9.31843C65.1402 9.5845 64.3965 9.73117 64.168 9.86762C63.7621 10.1098 63.4005 10.4373 63.1071 10.8057H63.1105Z" fill="#EDEDED"/>
<path d="M64.6826 8.39062C64.6382 10.9114 66.4495 13.3504 68.8782 14.0326C69.5093 14.2099 70.1744 14.2816 70.7782 14.534C72.013 15.0491 72.818 16.2361 73.8618 17.0753C75.2808 18.2146 77.2081 18.6921 78.9955 18.3544" stroke="#EDEDED" stroke-width="1.36444" stroke-linecap="round" stroke-linejoin="round"/>
<path d="M65.3037 28.209C65.3037 28.209 64.0654 29.8463 64.0654 31.2039" stroke="#C7C7C7" stroke-width="0.682218" stroke-linecap="round" stroke-linejoin="round"/>
<path d="M71.038 28.209C71.038 28.209 72.2762 29.8463 72.2762 31.2039" stroke="#C7C7C7" stroke-width="0.682218" stroke-linecap="round" stroke-linejoin="round"/>
</g>
<rect x="0.5" y="0.5" width="98" height="43" rx="21.5" stroke="#F5F5F5"/>
<defs>
<radialGradient id="paint0_radial_2086_22576" cx="0" cy="0" r="1" gradientUnits="userSpaceOnUse" gradientTransform="translate(46.117 36.4096) rotate(180) scale(2.36757)">
<stop stop-color="#FF8885"/>
<stop offset="1" stop-color="#FF8885" stop-opacity="0"/>
</radialGradient>
<radialGradient id="paint1_radial_2086_22576" cx="0" cy="0" r="1" gradientUnits="userSpaceOnUse" gradientTransform="translate(82.5891 35.877) rotate(180) scale(2.36757 2.36757)">
<stop stop-color="#FF8885"/>
<stop offset="1" stop-color="#FF8885" stop-opacity="0"/>
</radialGradient>
<radialGradient id="paint2_radial_2086_22576" cx="0" cy="0" r="1" gradientUnits="userSpaceOnUse" gradientTransform="translate(48.7714 36.3587) rotate(180) scale(2.36757)">
<stop stop-color="#ABABAB"/>
<stop offset="1" stop-color="#ABABAB" stop-opacity="0"/>
</radialGradient>
<radialGradient id="paint3_radial_2086_22576" cx="0" cy="0" r="1" gradientUnits="userSpaceOnUse" gradientTransform="translate(85.2435 35.8246) rotate(180) scale(2.36757 2.36757)">
<stop stop-color="#ABABAB"/>
<stop offset="1" stop-color="#ABABAB" stop-opacity="0"/>
</radialGradient>
<clipPath id="clip0_2086_22576">
<rect width="99" height="44" rx="22" fill="white"/>
</clipPath>
</defs>
</svg>
