<svg width="100" height="44" viewBox="0 0 100 44" fill="none" xmlns="http://www.w3.org/2000/svg">
<g clip-path="url(#clip0_2086_24210)">
<rect x="0.5" width="99" height="44" rx="22" fill="#F5F5F5"/>
<g clip-path="url(#clip1_2086_24210)">
<path d="M84.3933 17.2991V30.886C84.3933 33.5333 82.2468 35.6761 79.6031 35.6761H60.389C57.7417 35.6761 55.5989 33.5297 55.5989 30.886V17.2991H84.3969H84.3933Z" fill="#352F2F"/>
<path d="M84.3927 17.299C84.3927 18.4402 84.2603 19.5492 84.0099 20.6152C82.511 26.9687 76.8051 31.698 69.9937 31.698C63.1824 31.698 57.3727 26.8828 55.9417 20.4435C55.9274 20.3863 55.9167 20.3326 55.906 20.2754C55.6985 19.3166 55.5947 18.3185 55.5947 17.299C55.5947 13.5642 57.0221 10.1585 59.3546 7.60067C61.9875 4.71372 65.7795 2.90356 69.9937 2.90356C70.1869 2.90356 70.3801 2.90714 70.5732 2.9143C70.8022 2.92503 71.0276 2.93934 71.253 2.9608C78.6152 3.594 84.3927 9.77215 84.3927 17.299Z" fill="#352F2F"/>
<path d="M59.3692 30.2834C57.8595 30.0544 56.5752 28.924 56.2211 27.3392C55.8669 25.7616 56.5466 24.1983 57.8094 23.3433L59.244 29.7861C59.2833 29.9543 59.3227 30.1188 59.3656 30.2798L59.3692 30.2834Z" fill="#F4D1C3"/>
<path d="M60.7823 30.2369C60.3065 30.3442 59.8271 30.3549 59.3728 30.287C59.3263 30.1188 59.2905 29.9543 59.2512 29.7897L57.8167 23.3468C58.203 23.0857 58.6395 22.8889 59.1224 22.7852C61.1794 22.3273 63.2221 23.6223 63.68 25.6793C64.1379 27.7363 62.8429 29.779 60.7859 30.2369H60.7823Z" fill="#E8BBAA"/>
<path d="M80.6182 30.2834C82.1278 30.0544 83.4121 28.924 83.7663 27.3392C84.1204 25.7616 83.4407 24.1983 82.1779 23.3433L80.7434 29.7861C80.704 29.9543 80.6647 30.1188 80.6217 30.2798L80.6182 30.2834Z" fill="#F4D1C3"/>
<path d="M79.2056 30.2369C79.6813 30.3442 80.1607 30.3549 80.615 30.287C80.6616 30.1188 80.6973 29.9543 80.7367 29.7897L82.1712 23.3468C81.7849 23.0857 81.3484 22.8889 80.8655 22.7852C78.8085 22.3273 76.7658 23.6223 76.3079 25.6793C75.85 27.7363 77.145 29.779 79.202 30.2369H79.2056Z" fill="#E8BBAA"/>
<path d="M57.5234 26.9707L59.0081 26.7524" stroke="#E8BBAA" stroke-width="1.07322" stroke-linecap="round" stroke-linejoin="round"/>
<path d="M82.4644 26.9707L80.9797 26.7524" stroke="#E8BBAA" stroke-width="1.07322" stroke-linecap="round" stroke-linejoin="round"/>
<path d="M75.0131 37.7528V33.9214H64.9749V37.7528C64.9749 40.5467 63.9661 43.3192 61.9198 45.2188C61.6372 45.4799 61.4834 45.759 61.4834 46.0523C61.4834 47.5047 65.2933 48.6853 69.994 48.6853C74.6947 48.6853 78.5046 47.5083 78.5046 46.0523C78.5046 45.7625 78.3508 45.4799 78.0682 45.2188C76.0219 43.3192 75.0131 40.5467 75.0131 37.7528Z" fill="#F4D1C3"/>
<path d="M75.0137 34.9946V39.9314C73.4576 40.5682 71.7619 40.9152 69.9947 40.9152C68.2274 40.9152 66.5317 40.5682 64.9756 39.9314V34.9946H75.0137Z" fill="#E8BBAA"/>
<path d="M69.9942 38.4111C65.2613 38.4111 61.226 34.9876 60.4533 30.3191L58.2567 17.0577C57.7488 10.232 63.1506 4.41162 69.9942 4.41162C76.8413 4.41162 82.2431 10.232 81.7316 17.0577L79.535 30.3191C78.7623 34.9876 74.7235 38.4111 69.9942 38.4111Z" fill="#F4D1C3"/>
<path d="M65.5509 24.9887C66.2543 24.9887 66.8244 24.4186 66.8244 23.7152C66.8244 23.0118 66.2543 22.4417 65.5509 22.4417C64.8475 22.4417 64.2773 23.0118 64.2773 23.7152C64.2773 24.4186 64.8475 24.9887 65.5509 24.9887Z" fill="#453C56"/>
<path d="M71.0354 26.9456C70.7778 27.1387 70.4058 27.2568 69.9944 27.2568C69.583 27.2568 69.2145 27.1352 68.9534 26.9456" stroke="#D1A193" stroke-width="0.715478" stroke-linecap="round" stroke-linejoin="round"/>
<path d="M72.3546 29.7539C71.9754 30.4622 71.0596 30.9631 69.9971 30.9631C68.9347 30.9631 68.0189 30.4622 67.6396 29.7539C68.3587 29.6358 69.1565 29.5679 69.9971 29.5679C70.8378 29.5679 71.6356 29.6358 72.3546 29.7539Z" fill="#F4807D"/>
<path opacity="0.5" d="M77.1093 29.432C78.4825 29.432 79.5956 28.3189 79.5956 26.9458C79.5956 25.5726 78.4825 24.4595 77.1093 24.4595C75.7362 24.4595 74.623 25.5726 74.623 26.9458C74.623 28.3189 75.7362 29.432 77.1093 29.432Z" fill="url(#paint0_radial_2086_24210)"/>
<path d="M66.5495 23.0319C66.0988 23.0104 65.4906 23.0641 64.8217 23.1965C64.1563 23.3288 63.5624 23.5149 63.1367 23.7152C63.2905 23.082 63.9166 22.5203 64.7179 22.3629C65.5193 22.202 66.249 22.4917 66.546 23.0319H66.5495Z" fill="#453C56"/>
<path d="M74.4415 24.9887C75.1449 24.9887 75.7151 24.4186 75.7151 23.7152C75.7151 23.0118 75.1449 22.4417 74.4415 22.4417C73.7382 22.4417 73.168 23.0118 73.168 23.7152C73.168 24.4186 73.7382 24.9887 74.4415 24.9887Z" fill="#453C56"/>
<path d="M73.4397 23.0319C73.8904 23.0104 74.4986 23.0641 75.1676 23.1965C75.833 23.3288 76.4268 23.5149 76.8525 23.7152C76.6987 23.082 76.0727 22.5203 75.2713 22.3629C74.47 22.202 73.7402 22.4917 73.4433 23.0319H73.4397Z" fill="#453C56"/>
<path d="M64.0088 20.5242C64.0088 20.5242 64.8423 19.9161 66.1481 19.6406" stroke="#352F2F" stroke-width="1.07322" stroke-linecap="round" stroke-linejoin="round"/>
<path d="M75.9791 20.5242C75.9791 20.5242 75.1456 19.9161 73.8398 19.6406" stroke="#352F2F" stroke-width="1.07322" stroke-linecap="round" stroke-linejoin="round"/>
<path d="M72.0112 30.2011C72.1507 30.0651 72.2688 29.9149 72.3546 29.7539C71.6356 29.6358 70.8378 29.5679 69.9971 29.5679C69.1565 29.5679 68.3587 29.6358 67.6396 29.7539C67.7255 29.9149 67.8436 30.0651 67.9831 30.2011C68.6306 30.1367 69.3067 30.1045 70.0007 30.1045C70.6947 30.1045 71.3673 30.1403 72.0184 30.2011H72.0112Z" fill="#D35F5F"/>
<path d="M83.2375 16.186V20.4557C81.5675 19.1959 78.7744 18.2047 75.39 17.6927C75.3568 16.7415 75.1351 14.6901 73.9417 12.8021V17.5076C72.7077 17.3732 71.4108 17.3042 70.0734 17.3042C68.7359 17.3042 67.439 17.3732 66.205 17.5076V12.8021C65.0153 14.6901 64.79 16.7415 64.7567 17.6927C61.3724 18.2047 58.5792 19.1959 56.9092 20.4557V16.186C56.9092 9.54165 62.3884 4.15723 69.146 4.15723H71.0007C77.7583 4.15723 83.2375 9.54165 83.2375 16.186Z" fill="#352F2F"/>
<path d="M59.1192 22.7815C59.1192 22.7815 59.2158 17.2831 64.2778 16.8108L56.7295 15.8235L57.5237 21.1323L59.1192 22.7815Z" fill="#352F2F"/>
<path d="M80.8695 22.7815C80.8695 22.7815 80.7729 17.2831 75.7109 16.8108L83.2592 15.8235L82.465 21.1323L80.8695 22.7815Z" fill="#352F2F"/>
</g>
<g clip-path="url(#clip2_2086_24210)">
<path d="M34.3923 26.4864C40.8955 26.4864 46.1673 21.2145 46.1673 14.7114C46.1673 8.20833 40.8955 2.93652 34.3923 2.93652C27.8892 2.93652 22.6174 8.20833 22.6174 14.7114C22.6174 21.2145 27.8892 26.4864 34.3923 26.4864Z" fill="#665C59"/>
<path d="M38.1237 25.834C41.5956 25.834 44.4102 23.0194 44.4102 19.5475C44.4102 16.0756 41.5956 13.261 38.1237 13.261C34.6517 13.261 31.8372 16.0756 31.8372 19.5475C31.8372 23.0194 34.6517 25.834 38.1237 25.834Z" fill="#665C59"/>
<path d="M26.6668 25.2799C31.5859 25.2799 35.5736 20.6428 35.5736 14.9227C35.5736 9.20253 31.5859 4.56543 26.6668 4.56543C21.7477 4.56543 17.76 9.20253 17.76 14.9227C17.76 20.6428 21.7477 25.2799 26.6668 25.2799Z" fill="#665C59"/>
<path d="M36.7686 37.5686V33.6655H26.5425V37.5686C26.5425 40.4149 25.5148 43.2393 23.4302 45.1744C23.1423 45.4404 22.9856 45.7247 22.9856 46.0235C22.9856 47.5031 26.8668 48.7058 31.6555 48.7058C36.4442 48.7058 40.3254 47.5068 40.3254 46.0235C40.3254 45.7283 40.1687 45.4404 39.8808 45.1744C37.7963 43.2393 36.7686 40.4149 36.7686 37.5686Z" fill="#F4D1C3"/>
<path d="M19.5086 28.5307C18.0217 28.0788 16.892 26.7486 16.768 25.1014C16.6441 23.4578 17.5589 21.9818 18.9583 21.3076L19.4576 28.0132C19.4722 28.1882 19.4867 28.3594 19.5086 28.5307Z" fill="#F4D1C3"/>
<path d="M20.9381 28.691C20.4425 28.7274 19.9578 28.6691 19.5095 28.5343C19.4877 28.3594 19.4731 28.1881 19.4585 28.0132L18.9592 21.3075C19.3856 21.0998 19.8557 20.9686 20.3587 20.9322C22.5015 20.7718 24.3675 22.379 24.5278 24.5219C24.6882 26.6647 23.081 28.5307 20.9381 28.691Z" fill="#E8BBAA"/>
<path d="M46.5387 25.1014C46.4147 26.7486 45.285 28.0788 43.7981 28.5344C43.82 28.3631 43.8345 28.1882 43.8491 28.0132L44.3484 21.3076C45.7478 21.9818 46.6626 23.4578 46.5387 25.1014Z" fill="#F4D1C3"/>
<path d="M44.3496 21.3075L43.8503 28.0132C43.8358 28.1881 43.8212 28.363 43.7993 28.5343C43.3511 28.6691 42.8664 28.7274 42.3707 28.691C40.2279 28.5307 38.6207 26.6647 38.781 24.5219C38.9414 22.379 40.8073 20.7718 42.9502 20.9322C43.4531 20.9686 43.9232 21.0998 44.3496 21.3075Z" fill="#E8BBAA"/>
<path d="M36.7683 34.759V39.7882C35.183 40.4369 33.4556 40.7904 31.6553 40.7904C29.855 40.7904 28.1275 40.4369 26.5422 39.7882V34.759H36.7683Z" fill="#E8BBAA"/>
<path d="M31.655 38.2393C26.4034 38.2393 22.0411 33.7458 21.6512 27.9331L20.8822 19.4053C20.4158 12.4518 25.3721 6.52246 31.655 6.52246C37.9378 6.52246 42.8978 12.4518 42.4277 19.4053L41.6587 27.9331C41.2688 33.7458 36.9065 38.2393 31.655 38.2393Z" fill="#F4D1C3"/>
<path d="M27.1294 23.3157C27.846 23.3157 28.4268 22.7349 28.4268 22.0183C28.4268 21.3018 27.846 20.7209 27.1294 20.7209C26.4129 20.7209 25.832 21.3018 25.832 22.0183C25.832 22.7349 26.4129 23.3157 27.1294 23.3157Z" fill="#453C56"/>
<path d="M36.1814 23.3157C36.898 23.3157 37.4788 22.7349 37.4788 22.0183C37.4788 21.3018 36.898 20.7209 36.1814 20.7209C35.4649 20.7209 34.884 21.3018 34.884 22.0183C34.884 22.7349 35.4649 23.3157 36.1814 23.3157Z" fill="#453C56"/>
<path d="M32.716 25.6772C32.4536 25.874 32.0746 25.9943 31.6555 25.9943C31.2364 25.9943 30.861 25.8704 30.595 25.6772" stroke="#D1A193" stroke-width="0.728871" stroke-linecap="round" stroke-linejoin="round"/>
<path opacity="0.5" d="M38.9042 28.2099C40.303 28.2099 41.437 27.076 41.437 25.6771C41.437 24.2783 40.303 23.1443 38.9042 23.1443C37.5053 23.1443 36.3713 24.2783 36.3713 25.6771C36.3713 27.076 37.5053 28.2099 38.9042 28.2099Z" fill="url(#paint1_radial_2086_24210)"/>
<path d="M28.0952 21.1654C27.636 21.1946 27.0274 21.3039 26.3677 21.4898C25.7118 21.6756 25.1323 21.9016 24.7278 22.1202C24.808 21.5517 25.3728 20.9941 26.1637 20.7718C26.9545 20.5459 27.7271 20.7245 28.0952 21.1654Z" fill="#453C56"/>
<path d="M35.2158 21.1654C35.675 21.1946 36.2836 21.3039 36.9432 21.4898C37.5992 21.6756 38.1787 21.9016 38.5832 22.1202C38.503 21.5517 37.9382 20.9941 37.1473 20.7718C36.3565 20.5459 35.5839 20.7245 35.2158 21.1654Z" fill="#453C56"/>
<path d="M18.135 24.9189H19.662" stroke="#E8BBAA" stroke-width="1.09331" stroke-linecap="round" stroke-linejoin="round"/>
<path d="M45.1757 24.9189H43.6487" stroke="#E8BBAA" stroke-width="1.09331" stroke-linecap="round" stroke-linejoin="round"/>
<path d="M26.0649 19.1611C25.7297 19.1611 25.4272 18.9278 25.3543 18.5889C25.2668 18.1953 25.5183 17.8054 25.9119 17.7216L28.0365 17.2587C28.4301 17.1749 28.8164 17.4227 28.9039 17.8163C28.9914 18.2099 28.7399 18.5998 28.3463 18.6837L26.2216 19.1465C26.1706 19.1574 26.116 19.1647 26.0649 19.1647V19.1611Z" fill="#665C59"/>
<path d="M37.2452 19.1608C37.5805 19.1608 37.883 18.9276 37.9559 18.5887C38.0434 18.1951 37.7919 17.8051 37.3983 17.7213L35.2736 17.2585C34.8801 17.1747 34.4938 17.4225 34.4063 17.8161C34.3188 18.2096 34.5703 18.5996 34.9639 18.6834L37.0885 19.1462C37.1396 19.1572 37.1942 19.1645 37.2452 19.1645V19.1608Z" fill="#665C59"/>
<path d="M29.3926 28.8333C29.3926 28.5344 33.9152 28.5344 33.9152 28.8333C33.9152 29.6715 32.9021 30.3493 31.6521 30.3493C30.402 30.3493 29.3889 29.6715 29.3889 28.8333H29.3926Z" fill="#F4807D"/>
<path d="M31.1667 13.6107C34.383 13.6107 36.9904 11.0034 36.9904 7.78706C36.9904 4.57073 34.383 1.96338 31.1667 1.96338C27.9504 1.96338 25.343 4.57073 25.343 7.78706C25.343 11.0034 27.9504 13.6107 31.1667 13.6107Z" fill="#665C59"/>
<path d="M21.0176 20.9212C21.0176 20.9212 28.1605 15.9029 27.5483 9.91527L26.5862 7.35693L21.0468 12.3388L20.1721 17.6996L21.0176 20.9176V20.9212Z" fill="#665C59"/>
<path d="M31.1671 13.6107C31.1671 13.6107 35.6825 13.1297 37.9748 15.5058C40.2671 17.8819 42.122 22.7945 42.122 22.7945L44.1811 21.2347L44.3487 19.7661V15.0976C44.3487 15.0976 44.3597 8.84392 42.5995 6.31838C40.8392 3.79285 36.5243 1.96338 31.1671 1.96338C25.8099 1.96338 31.1671 13.6107 31.1671 13.6107Z" fill="#665C59"/>
</g>
</g>
<defs>
<radialGradient id="paint0_radial_2086_24210" cx="0" cy="0" r="1" gradientUnits="userSpaceOnUse" gradientTransform="translate(84.9995 36.886) rotate(180) scale(2.48299)">
<stop stop-color="#FF8885"/>
<stop offset="1" stop-color="#FF8885" stop-opacity="0"/>
</radialGradient>
<radialGradient id="paint1_radial_2086_24210" cx="0" cy="0" r="1" gradientUnits="userSpaceOnUse" gradientTransform="translate(47.8745 36.4963) rotate(180) scale(2.52948)">
<stop stop-color="#FF8885"/>
<stop offset="1" stop-color="#FF8885" stop-opacity="0"/>
</radialGradient>
<clipPath id="clip0_2086_24210">
<rect x="0.5" width="99" height="44" rx="22" fill="white"/>
</clipPath>
<clipPath id="clip1_2086_24210">
<rect width="56.258" height="62.6866" fill="white" transform="translate(41.8652 1.6499)"/>
</clipPath>
<clipPath id="clip2_2086_24210">
<rect width="57.3111" height="62.6866" fill="white" transform="translate(3.00024 1.96338)"/>
</clipPath>
</defs>
</svg>
