<svg width="44" height="44" viewBox="0 0 44 44" fill="none" xmlns="http://www.w3.org/2000/svg">
<g clip-path="url(#clip0_2086_24154)">
<rect width="44" height="44" rx="22" fill="#F5F5F5"/>
<g clip-path="url(#clip1_2086_24154)">
<path d="M29.9161 4.8616C29.1347 3.94996 28.014 3.40161 26.8865 2.99035C23.7814 1.85937 20.2925 1.61604 17.1703 2.69903C14.0482 3.78203 11.3612 6.28389 10.4222 9.45062C10.1377 10.4068 10.0075 11.4144 9.58594 12.3192C9.42829 12.6551 9.22952 12.9841 9.17811 13.3508C9.1267 13.7175 9.27064 14.1493 9.61336 14.2864C10.0623 14.4612 10.5147 14.0705 10.8472 13.7175C13.3284 11.0785 16.4335 8.78231 20.0252 8.31279C21.4749 8.12429 22.9486 8.24082 24.3949 8.4533C25.5259 8.62124 26.6877 8.86114 27.6918 9.43006C28.5109 9.89273 29.2855 10.9757 30.3137 10.4034C32.1986 9.35808 30.9477 6.05769 29.9161 4.85817V4.8616Z" fill="#B28D7B"/>
<path d="M5.24427 43.1333H38.0152C43.8448 43.1333 48.5778 47.8663 48.5778 53.6959V62H-5.31836V53.6959C-5.31836 47.8663 -0.585396 43.1333 5.24427 43.1333Z" fill="#E36C74"/>
<path d="M26.4382 36.5323V32.8618H16.8215V36.5323C16.8215 39.209 15.855 41.8651 13.8947 43.6849C13.6239 43.9351 13.4766 44.2024 13.4766 44.4835C13.4766 45.8749 17.1265 47.0059 21.6299 47.0059C26.1332 47.0059 29.7832 45.8783 29.7832 44.4835C29.7832 44.2058 29.6358 43.9351 29.3651 43.6849C27.4047 41.8651 26.4382 39.209 26.4382 36.5323Z" fill="#F4D1C3"/>
<path d="M34.8554 16.3051C34.8554 17.3539 34.7355 18.3717 34.5024 19.3519C33.1247 25.1885 27.8845 29.5307 21.6299 29.5307C15.3752 29.5307 10.0391 25.1096 8.72303 19.1943C8.51397 18.2655 8.4043 17.299 8.4043 16.3051C8.4043 9.00521 14.3265 3.08301 21.6299 3.08301C21.8081 3.08301 21.9863 3.08301 22.1611 3.09329C22.3701 3.10357 22.5792 3.11728 22.7848 3.13442C29.5467 3.71704 34.852 9.38906 34.852 16.3051H34.8554Z" fill="#B28D7B"/>
<path d="M10.2069 28.0329C8.80864 27.608 7.7462 26.357 7.62968 24.808C7.51315 23.2623 8.37338 21.8743 9.68943 21.2402L10.159 27.5463C10.1727 27.7108 10.1864 27.8719 10.2069 28.0329Z" fill="#F4D1C3"/>
<path d="M11.5504 28.1838C11.0843 28.2181 10.6285 28.1633 10.207 28.0365C10.1864 27.872 10.1727 27.7109 10.159 27.5464L9.68945 21.2403C10.0904 21.045 10.5325 20.9216 11.0055 20.8873C13.0207 20.7365 14.7754 22.2479 14.9262 24.2631C15.077 26.2783 13.5656 28.033 11.5504 28.1838Z" fill="#E8BBAA"/>
<path d="M35.6271 24.808C35.5105 26.357 34.4481 27.608 33.0498 28.0364C33.0704 27.8753 33.0841 27.7108 33.0978 27.5463L33.5673 21.2402C34.8834 21.8743 35.7436 23.2623 35.6271 24.808Z" fill="#F4D1C3"/>
<path d="M33.5665 21.2403L33.0969 27.5464C33.0832 27.7109 33.0695 27.8754 33.049 28.0365C32.6274 28.1633 32.1716 28.2181 31.7055 28.1838C29.6903 28.033 28.1789 26.2783 28.3297 24.2631C28.4805 22.2479 30.2352 20.7365 32.2504 20.8873C32.7234 20.9216 33.1655 21.045 33.5665 21.2403Z" fill="#E8BBAA"/>
<path d="M26.438 33.8901V38.6197C24.9472 39.2297 23.3227 39.5622 21.6297 39.5622C19.9366 39.5622 18.3121 39.2297 16.8213 38.6197V33.8901H26.438Z" fill="#E8BBAA"/>
<path d="M21.6299 37.1629C16.1498 37.1629 11.595 32.9372 11.1872 27.4708L10.3852 16.7094C9.89858 10.1703 15.0736 4.59424 21.6299 4.59424C28.1895 4.59424 33.3646 10.1703 32.8745 16.7094L32.0726 27.4708C31.6647 32.9372 27.11 37.1629 21.6299 37.1629Z" fill="#F4D1C3"/>
<path d="M18.5935 21.7303C18.5935 22.3061 18.1274 22.7722 17.5516 22.7722C16.9759 22.7722 16.5098 22.3061 16.5098 21.7303C16.5098 21.1546 16.9759 20.6885 17.5516 20.6885C18.1274 20.6885 18.5935 21.1546 18.5935 21.7303Z" fill="#453C56"/>
<path d="M22.6265 25.3496C22.3797 25.5347 22.0233 25.6478 21.6291 25.6478C21.235 25.6478 20.882 25.5313 20.6318 25.3496" stroke="#D1A193" stroke-width="0.68544" stroke-linecap="round" stroke-linejoin="round"/>
<path d="M24.437 28.6362C23.5802 28.9961 22.6309 29.1983 21.6301 29.1983C20.6294 29.1983 19.68 28.9995 18.8232 28.6362" stroke="#F4807D" stroke-width="0.68544" stroke-linecap="round" stroke-linejoin="round"/>
<path opacity="0.5" d="M28.4464 27.7313C29.7618 27.7313 30.8283 26.6649 30.8283 25.3494C30.8283 24.0339 29.7618 22.9675 28.4464 22.9675C27.1309 22.9675 26.0645 24.0339 26.0645 25.3494C26.0645 26.6649 27.1309 27.7313 28.4464 27.7313Z" fill="url(#paint0_radial_2086_24154)"/>
<path d="M18.281 21.1066C17.8492 21.134 17.2768 21.2368 16.6565 21.4116C16.0396 21.5864 15.4947 21.7989 15.1143 22.0045C15.1897 21.4699 15.7209 20.9455 16.4646 20.7365C17.2083 20.524 17.9348 20.6919 18.281 21.1066Z" fill="#453C56"/>
<path d="M25.7079 22.7722C26.2833 22.7722 26.7498 22.3058 26.7498 21.7303C26.7498 21.1549 26.2833 20.6885 25.7079 20.6885C25.1325 20.6885 24.666 21.1549 24.666 21.7303C24.666 22.3058 25.1325 22.7722 25.7079 22.7722Z" fill="#453C56"/>
<path d="M24.9785 21.1068C25.4103 21.1343 25.9827 21.2371 26.603 21.4119C27.2199 21.5866 27.7648 21.7991 28.1452 22.0048C28.0698 21.4701 27.5386 20.9458 26.7949 20.7367C26.0512 20.5242 25.3247 20.6921 24.9785 21.1068Z" fill="#453C56"/>
<path d="M8.91504 24.6367H10.351" stroke="#E8BBAA" stroke-width="1.02816" stroke-linecap="round" stroke-linejoin="round"/>
<path d="M34.3452 24.6367H32.9092" stroke="#E8BBAA" stroke-width="1.02816" stroke-linecap="round" stroke-linejoin="round"/>
<path d="M9.14453 15.7636L10.4469 23.6736C10.5017 24.0061 10.7896 24.2494 11.1255 24.2494C11.4887 24.2494 11.7869 23.9684 11.8109 23.6051L12.3181 15.325L9.14796 15.7636H9.14453Z" fill="#B28D7B"/>
<path d="M34.115 15.7636L32.8127 23.6736C32.7578 24.0061 32.4699 24.2494 32.1341 24.2494C31.7708 24.2494 31.4726 23.9684 31.4486 23.6051L30.9414 15.325L34.1116 15.7636H34.115Z" fill="#B28D7B"/>
<path d="M14.9092 19.1667C14.9092 19.1667 16.5097 18.6937 18.4769 18.8891" stroke="#B28D7B" stroke-width="1.02816" stroke-linecap="round" stroke-linejoin="round"/>
<path d="M28.3499 19.1667C28.3499 19.1667 26.7494 18.6937 24.7822 18.8891" stroke="#B28D7B" stroke-width="1.02816" stroke-linecap="round" stroke-linejoin="round"/>
<path d="M34.1151 19.3793H31.7812C31.7812 13.7724 27.2367 9.22795 21.6298 9.22795C16.0229 9.22795 11.4785 13.7724 11.4785 19.3793H9.14453C9.14453 10.6879 14.7343 3.63818 21.6298 3.63818C28.5254 3.63818 34.1151 10.6879 34.1151 19.3793Z" fill="#B28D7B"/>
<path d="M32.2991 7.42526C32.9434 7.78169 33.4438 8.34718 33.8585 8.95379C34.962 10.5646 35.5172 12.5455 35.411 14.4956C35.3048 16.4457 34.5405 18.3546 33.2724 19.8386C32.8646 17.1928 32.4259 14.4545 30.9591 12.2165C30.3559 11.298 28.8342 9.94083 28.9919 8.74131C29.2009 7.13052 31.079 6.74668 32.2991 7.42184V7.42526Z" fill="#B28D7B"/>
</g>
</g>
<defs>
<radialGradient id="paint0_radial_2086_24154" cx="0" cy="0" r="1" gradientUnits="userSpaceOnUse" gradientTransform="translate(35.4573 35.1922) rotate(180) scale(2.37875)">
<stop stop-color="#FF8885"/>
<stop offset="1" stop-color="#FF8885" stop-opacity="0"/>
</radialGradient>
<clipPath id="clip0_2086_24154">
<rect width="44" height="44" rx="22" fill="white"/>
</clipPath>
<clipPath id="clip1_2086_24154">
<rect width="53.8962" height="60" fill="white" transform="translate(-5.31836 2)"/>
</clipPath>
</defs>
</svg>
