<svg width="32" height="32" viewBox="0 0 32 32" fill="none" xmlns="http://www.w3.org/2000/svg">
<path d="M25.7992 6.00015L6.2034 6C4.25083 6 2.66797 7.54328 2.66797 9.44702V22.5528C2.66797 24.4566 4.25083 25.9999 6.2034 25.9999L25.7992 26C27.7518 26 29.3346 24.4567 29.3346 22.553V9.44717C29.3346 7.54343 27.7518 6.00015 25.7992 6.00015Z" fill="#FBB4C1"/>
<g style="mix-blend-mode:multiply">
<path d="M6.11501 6.00012L25.8876 6.00012C27.7907 6.00012 29.3346 7.54401 29.3346 9.44714V11.2957H2.66797V9.44714C2.66797 7.54401 4.21187 6.00012 6.11501 6.00012Z" fill="#D63D4A"/>
</g>
<path d="M13.927 8.67617C13.927 9.23428 13.4666 9.68547 12.8971 9.68547C12.3276 9.68547 11.8672 9.23428 11.8672 8.67617C11.8672 8.11806 12.3298 7.66687 12.8971 7.66687C13.4644 7.66687 13.927 8.1202 13.927 8.67617Z" fill="#FA967C"/>
<path d="M9.66272 9.68547C10.2315 9.68547 10.6926 9.23359 10.6926 8.67617C10.6926 8.11875 10.2315 7.66687 9.66272 7.66687C9.09392 7.66687 8.63281 8.11875 8.63281 8.67617C8.63281 9.23359 9.09392 9.68547 9.66272 9.68547Z" fill="#FA967C"/>
<path d="M6.44006 9.68541C7.00886 9.68541 7.46997 9.23353 7.46997 8.67611C7.46997 8.11869 7.00886 7.66681 6.44006 7.66681C5.87126 7.66681 5.41016 8.11869 5.41016 8.67611C5.41016 9.23353 5.87126 9.68541 6.44006 9.68541Z" fill="#FA967C"/>
<path d="M16.2568 13.4667C13.7029 13.4667 11.918 15.3863 11.918 18.1335C11.918 20.8806 13.6926 22.5333 16.4394 22.5333C17.8385 22.5333 18.7927 22.2493 19.3457 22.0118C19.5951 21.9041 19.7315 21.6421 19.6672 21.3875L19.4177 20.3934C19.3791 20.2367 19.2685 20.1045 19.1193 20.0335C18.9702 19.96 18.7927 19.9551 18.6358 20.0188C18.1832 20.2024 17.6276 20.3714 16.6374 20.3714C15.925 20.3714 14.7805 20.1534 14.513 18.8092H19.5231C19.8163 18.8092 20.0607 18.6011 20.0915 18.3245L20.0992 18.2608C20.1172 18.1139 20.1455 17.8911 20.1455 17.6169C20.1455 15.5528 18.9419 13.4716 16.2542 13.4716L16.2568 13.4667ZM16.1411 15.5528C16.5654 15.5528 16.8869 15.6654 17.1235 15.8956C17.3653 16.1306 17.4836 16.4465 17.5402 16.7207H14.6211C14.8139 16.2041 15.2357 15.5528 16.1385 15.5528H16.1411Z" fill="#D63D4A"/>
</svg>
