<svg width="32" height="32" viewBox="0 0 32 32" fill="none" xmlns="http://www.w3.org/2000/svg">
<g style="mix-blend-mode:multiply">
<path d="M6.66675 6.66667C6.66675 5.19391 7.86066 4 9.33341 4H22.6667C24.1395 4 25.3334 5.19391 25.3334 6.66667V26.6667C25.3334 28.1394 24.1395 29.3333 22.6667 29.3333H9.33341C7.86066 29.3333 6.66675 28.1394 6.66675 26.6667V6.66667Z" fill="#8C97C8"/>
<g style="mix-blend-mode:multiply">
<path d="M6.66675 22.6667H25.3334V26.6667C25.3334 28.1395 24.1395 29.3334 22.6667 29.3334H9.33341C7.86066 29.3334 6.66675 28.1395 6.66675 26.6667V22.6667Z" fill="#5B658C"/>
</g>
<path d="M16.0001 27.3334C16.7365 27.3334 17.3334 26.7365 17.3334 26.0001C17.3334 25.2637 16.7365 24.6667 16.0001 24.6667C15.2637 24.6667 14.6667 25.2637 14.6667 26.0001C14.6667 26.7365 15.2637 27.3334 16.0001 27.3334Z" fill="#8C97C8"/>
<path fill-rule="evenodd" clip-rule="evenodd" d="M20.449 10.9425C20.8858 11.3377 20.9195 12.0122 20.5243 12.4491L16.3021 17.1157C16.1007 17.3383 15.8148 17.4658 15.5146 17.4668C15.2144 17.4677 14.9277 17.3422 14.7248 17.1209L12.2804 14.4542C11.8823 14.0199 11.9116 13.3452 12.3459 12.9471C12.7802 12.5491 13.4549 12.5784 13.853 13.0126L15.506 14.8159L18.9424 11.0178C19.3376 10.5809 20.0121 10.5472 20.449 10.9425Z" fill="#5B658C"/>
</g>
</svg>
