<svg width="20" height="20" viewBox="0 0 20 20" fill="none" xmlns="http://www.w3.org/2000/svg">
<path d="M16.8335 10.1969C16.8335 9.77495 16.6729 9.35038 16.2142 8.74911C15.8613 8.28646 15.369 7.76549 14.7136 7.10279L14.0031 6.3899L12.6302 5.01783C12.042 4.42959 11.6336 4.02144 11.2802 3.72958C10.9377 3.44681 10.6857 3.30632 10.4281 3.23235C10.1706 3.15879 9.88247 3.14405 9.44258 3.20224C8.98813 3.26236 8.42499 3.39126 7.61397 3.57821L7.61479 3.57903L6.69356 3.79143C6.00807 3.94941 5.54292 4.05774 5.18966 4.1788C4.85124 4.29477 4.67109 4.40506 4.53861 4.53769C4.4056 4.67092 4.29502 4.85188 4.17891 5.19035C4.11837 5.36688 4.06092 5.57115 3.99906 5.81698L3.79154 6.69345L3.57914 7.61386C3.39184 8.42436 3.26245 8.98812 3.20235 9.44247C3.14414 9.88264 3.15936 10.1705 3.23327 10.428L3.2642 10.5248C3.34417 10.7502 3.48223 10.981 3.72969 11.2808C4.02144 11.6343 4.42903 12.0433 5.01713 12.6318L6.39001 14.0038L7.1029 14.7143C7.76524 15.3691 8.28577 15.8612 8.74841 16.2141C9.3498 16.6729 9.77438 16.8333 10.1962 16.8334C10.6184 16.8334 11.0433 16.6729 11.6447 16.2141C12.2617 15.7434 12.9819 15.0251 14.0039 14.003C15.0256 12.9814 15.7437 12.2614 16.2142 11.6446C16.6727 11.0435 16.8335 10.619 16.8335 10.1969ZM18.1665 10.1969C18.1665 11.0277 17.8231 11.7335 17.2738 12.4535C16.7362 13.1582 15.9414 13.9512 14.9463 14.9462C13.9511 15.9415 13.1583 16.736 12.4537 17.2737C11.7334 17.8232 11.0271 18.1672 10.1962 18.1672C9.36571 18.1672 8.65953 17.8237 7.93949 17.2745C7.41095 16.8713 6.83301 16.3234 6.15727 15.655L5.44682 14.947L4.07475 13.5741C3.50436 13.0034 3.04264 12.5427 2.70105 12.1288C2.39427 11.7571 2.15906 11.3938 2.01013 10.9773L1.95154 10.7958C1.80955 10.3012 1.80848 9.81376 1.88074 9.2675C1.95114 8.73528 2.09865 8.10049 2.28031 7.31438L2.4919 6.39397L2.70593 5.49146C2.77465 5.21894 2.84308 4.97443 2.91752 4.75741C3.07137 4.30893 3.26806 3.9233 3.5946 3.59612C3.92187 3.26832 4.30876 3.0712 4.75753 2.91741C5.19146 2.76872 5.73509 2.64429 6.39327 2.4926L7.31368 2.27938L8.38627 2.0385C8.70984 1.97023 9.00158 1.91582 9.26762 1.88062C9.81361 1.80839 10.3007 1.80917 10.7951 1.95061L10.9782 2.0092C11.3944 2.15843 11.7574 2.39416 12.1289 2.70093C12.5427 3.04262 13.003 3.50421 13.5734 4.07463L14.9463 5.44752C15.9421 6.44293 16.7362 7.23551 17.2738 7.94019C17.8232 8.66033 18.1665 9.36632 18.1665 10.1969Z" fill="#33363D"/>
<path d="M8.04423 7.07012C7.71878 6.7448 7.19112 6.74472 6.86572 7.07012C6.54044 7.39553 6.54044 7.92322 6.86572 8.24863C7.19112 8.57403 7.71878 8.57395 8.04423 8.24863C8.36967 7.92319 8.36967 7.39556 8.04423 7.07012ZM8.98739 6.12696C9.83353 6.9731 9.83353 8.34564 8.98739 9.19178C8.14124 10.0378 6.76924 10.0373 5.92314 9.19121C5.07716 8.3451 5.07716 6.97365 5.92314 6.12754C6.76924 5.28144 8.14124 5.28095 8.98739 6.12696Z" fill="#33363D"/>
<path d="M13.7501 9.99992C14.0104 9.73963 14.4321 9.73962 14.6925 9.99992C14.9528 10.2603 14.9528 10.682 14.6925 10.9423L10.9425 14.6923C10.6821 14.9525 10.2604 14.9525 10.0001 14.6923C9.73973 14.432 9.7398 14.0103 10.0001 13.7499L13.7501 9.99992Z" fill="#33363D"/>
</svg>
