<svg width="24" height="24" viewBox="0 0 24 24" fill="none" xmlns="http://www.w3.org/2000/svg">
<path d="M0 9C0 4.02944 4.02944 0 9 0H15C19.9706 0 24 4.02944 24 9V15C24 19.9706 19.9706 24 15 24H9C4.02944 24 0 19.9706 0 15V9Z" fill="#11195F"/>
<path d="M6.11023 12.6168C6.07021 12.282 6.1041 11.9424 6.20952 11.6221C6.31493 11.3018 6.4893 11.0085 6.72035 10.7629C6.95139 10.5173 7.23349 10.3254 7.54676 10.2006C7.86002 10.0758 8.19684 10.0213 8.53348 10.0408C8.87412 10.0184 9.21521 10.077 9.52885 10.2118C9.84248 10.3465 10.1197 10.5537 10.3379 10.8162C10.4839 11.0213 10.58 11.2576 10.6186 11.5064L10.6349 11.6002L9.66097 11.8491L9.64004 11.7716C9.58864 11.52 9.44636 11.2961 9.24038 11.1428C9.03441 10.9894 8.77916 10.9174 8.5234 10.9403C8.31506 10.9399 8.10906 10.9843 7.91938 11.0705C7.72971 11.1567 7.56081 11.2827 7.42415 11.44C7.28748 11.5972 7.18625 11.7821 7.12732 11.9819C7.0684 12.1817 7.05316 12.3919 7.08264 12.5982C7.08264 13.2464 7.30906 14.277 8.46524 14.277C8.76892 14.3019 9.07007 14.2053 9.30266 14.0085C9.53524 13.8117 9.68028 13.5307 9.70595 13.2271L9.71448 13.1379L10.7179 13.303L10.7016 13.3945C10.63 13.9103 10.3668 14.3801 9.9645 14.7106C9.56218 15.0411 9.05018 15.208 8.53038 15.1781C8.19628 15.1933 7.86282 15.1363 7.55273 15.011C7.24265 14.8857 6.96323 14.695 6.73353 14.4519C6.50383 14.2088 6.32925 13.919 6.22168 13.6023C6.11412 13.2856 6.07611 12.9495 6.11023 12.6168ZM13.3474 13.5861V10.9542H12.7736V10.1501H13.3474V9.27929L14.1748 8.7675L14.3136 8.6853V10.1501H15.1053V10.9542H14.3136V13.6318C14.3136 14.0537 14.3299 14.2002 14.6649 14.2002L15.2938 14.0893L15.4155 14.8888L15.4023 14.9881L14.5315 15.1323C13.3474 15.1315 13.3474 14.3794 13.3474 13.5861ZM16.3716 15.0656V10.1501H17.3386V15.0664L16.3716 15.0656ZM11.1452 15.0656V10.1501H12.1137V15.0664L11.1452 15.0656Z" fill="white"/>
<path d="M11.6708 9.58477C11.9419 9.16507 12.3159 8.82165 12.7571 8.58713C13.1983 8.35261 13.6922 8.23477 14.1917 8.24481C14.6967 8.23435 15.196 8.35171 15.6434 8.58598C16.0908 8.82025 16.4717 9.16382 16.7507 9.58477H17.9061C17.5806 8.88496 17.0557 8.29683 16.3973 7.89416C15.7389 7.49148 14.9762 7.29219 14.2049 7.32127C13.4343 7.29276 12.6724 7.49233 12.0146 7.89499C11.3569 8.29764 10.8327 8.88546 10.5076 9.58477H11.6708Z" fill="#D9000D"/>
</svg>
