<svg width="24" height="24" viewBox="0 0 24 24" fill="none" xmlns="http://www.w3.org/2000/svg">
<path d="M0 9C0 4.02944 4.02944 0 9 0H15C19.9706 0 24 4.02944 24 9V15C24 19.9706 19.9706 24 15 24H9C4.02944 24 0 19.9706 0 15V9Z" fill="#004B7C"/>
<path d="M7.06264 12.27C7.06714 12.222 7.06939 12.1733 7.06939 12.12C7.06939 11.7267 6.92945 11.3462 6.6746 11.0466C6.41976 10.747 6.06663 10.5478 5.67839 10.4847C5.29015 10.4216 4.89213 10.4987 4.55553 10.7022C4.21892 10.9057 3.9657 11.2223 3.84115 11.5954C3.7166 11.9685 3.72885 12.3737 3.87571 12.7386C4.02257 13.1035 4.29445 13.4042 4.64274 13.587C4.99102 13.7698 5.39297 13.8227 5.77669 13.7363C6.1604 13.6498 6.50086 13.4297 6.73714 13.1153L6.33664 12.675C6.24595 12.8395 6.1128 12.9766 5.95107 13.0721C5.78935 13.1676 5.60496 13.218 5.41714 13.218C5.12444 13.218 4.84373 13.1017 4.63676 12.8948C4.42979 12.6878 4.31352 12.4071 4.31352 12.1144C4.31352 11.8217 4.42979 11.541 4.63676 11.334C4.84373 11.127 5.12444 11.0108 5.41714 11.0108C5.64349 11.0114 5.86369 11.0845 6.04538 11.2195C6.22708 11.3545 6.36071 11.5442 6.42664 11.7608H5.24089C5.20145 11.7611 5.1625 11.7696 5.12649 11.7857C5.09048 11.8018 5.05816 11.8252 5.03157 11.8543C5.00497 11.8834 4.98466 11.9177 4.97189 11.9551C4.95913 11.9924 4.9542 12.0319 4.95739 12.0713C4.95668 12.1375 4.96322 12.2037 4.97689 12.2685H7.06264V12.27Z" fill="white"/>
<path d="M9.67761 12.7371C9.8017 12.6768 9.90632 12.5828 9.97953 12.4658C10.0527 12.3488 10.0916 12.2136 10.0916 12.0756C10.0841 11.9692 10.0553 11.8654 10.0069 11.7704C9.95853 11.6753 9.8915 11.591 9.80985 11.5223C9.72821 11.4537 9.63359 11.4022 9.53164 11.3708C9.42968 11.3395 9.32246 11.329 9.21636 11.3399H7.89261V14.3076H9.35061C9.46069 14.3174 9.5716 14.304 9.67613 14.2681C9.78066 14.2322 9.87647 14.1747 9.95733 14.0994C10.0382 14.0241 10.1023 13.9325 10.1454 13.8308C10.1886 13.7291 10.2099 13.6194 10.2079 13.5089C10.2228 13.3388 10.178 13.1688 10.0813 13.0281C9.98451 12.8874 9.84179 12.7848 9.67761 12.7379M8.5151 11.8041H9.09935C9.14858 11.8012 9.19788 11.8087 9.24398 11.8262C9.29009 11.8437 9.33196 11.8708 9.36684 11.9056C9.40171 11.9405 9.42879 11.9824 9.44629 12.0285C9.46379 12.0746 9.47131 12.1239 9.46836 12.1731C9.47402 12.2185 9.47013 12.2646 9.45693 12.3085C9.44373 12.3523 9.42152 12.3929 9.39172 12.4276C9.36192 12.4624 9.32519 12.4905 9.28388 12.5102C9.24258 12.5299 9.19761 12.5408 9.15185 12.5421H8.51361L8.5151 11.8041ZM9.19461 13.8366H8.51361V13.0191H9.13686C9.23889 13.0224 9.33605 13.0635 9.40951 13.1344C9.48296 13.2053 9.52746 13.3009 9.53438 13.4028C9.54129 13.5046 9.51013 13.6054 9.44693 13.6856C9.38373 13.7657 9.293 13.8196 9.19235 13.8366" fill="white"/>
<path d="M11.3426 12.5302V11.7914H12.6439L12.7189 11.3309H10.7314V14.3054H12.7054V13.8224H11.3426V13.0162H12.5306V12.5302H11.3426Z" fill="white"/>
<path d="M18.017 11.3416H15.542V11.8343H16.4615C16.4195 11.8723 16.3859 11.9185 16.3626 11.9702C16.3394 12.0218 16.3271 12.0777 16.3265 12.1343V14.3093H16.9648V12.1493C16.9643 12.0743 16.9904 12.0015 17.0385 11.9438C17.0865 11.8862 17.1534 11.8474 17.2273 11.8343H17.8685L18.017 11.3416Z" fill="white"/>
<path d="M15.1219 11.3707C14.8641 11.3052 14.5995 11.2702 14.3336 11.2665C13.9511 11.2777 13.2281 11.4165 13.2086 12.1537C13.2061 12.3247 13.2604 12.4917 13.363 12.6285C13.4657 12.7654 13.6108 12.8643 13.7756 12.9097C13.7756 12.9097 13.9751 12.9772 14.2046 13.0455C14.2046 13.0455 14.6036 13.1505 14.5796 13.4205C14.5796 13.4205 14.6164 13.7902 13.9796 13.8045C13.8214 13.8063 13.664 13.783 13.5131 13.7355C13.5131 13.7355 13.4134 13.6942 13.3699 13.7482C13.3115 13.8011 13.2681 13.8683 13.2439 13.9432C13.2004 14.064 13.1689 14.1682 13.1689 14.1682C13.1689 14.1682 13.1614 14.181 13.1816 14.1915C13.2019 14.202 13.5236 14.2582 13.5679 14.2665C13.6121 14.2747 13.9361 14.3085 14.0764 14.3085C14.3981 14.3085 15.2839 14.193 15.2839 13.3702C15.2882 13.2047 15.2388 13.0421 15.1431 12.9069C15.0474 12.7718 14.9105 12.6712 14.7529 12.6202C14.7529 12.6202 14.5196 12.5452 14.2451 12.4507C14.2451 12.4507 13.9196 12.3757 13.9166 12.1327C13.9197 12.0353 13.9613 11.9431 14.0321 11.8762C14.0321 11.8762 14.1274 11.7532 14.4476 11.7555C14.5568 11.7534 14.6659 11.7629 14.7731 11.784C14.8006 11.793 14.83 11.7942 14.8581 11.7875C14.8862 11.7807 14.9118 11.7663 14.9321 11.7457C14.9777 11.6982 15.0158 11.6441 15.0454 11.5852C15.0781 11.5197 15.1071 11.4523 15.1324 11.3835C15.1324 11.3715 15.1324 11.3775 15.1256 11.3737" fill="white"/>
<path d="M19.1829 9.68921C18.973 9.68921 18.7678 9.75145 18.5933 9.86806C18.4187 9.98467 18.2827 10.1504 18.2024 10.3443C18.1221 10.5383 18.1011 10.7516 18.142 10.9575C18.183 11.1634 18.284 11.3525 18.4324 11.5009C18.5809 11.6493 18.77 11.7504 18.9758 11.7913C19.1817 11.8323 19.3951 11.8112 19.589 11.7309C19.7829 11.6506 19.9486 11.5146 20.0653 11.3401C20.1819 11.1655 20.2441 10.9604 20.2441 10.7505C20.2441 10.469 20.1323 10.1991 19.9333 10C19.7343 9.80102 19.4643 9.68921 19.1829 9.68921ZM19.1829 11.2642C19.0805 11.2642 18.9805 11.2339 18.8953 11.177C18.8102 11.1201 18.7439 11.0393 18.7048 10.9447C18.6656 10.8502 18.6553 10.7461 18.6753 10.6457C18.6953 10.5454 18.7446 10.4532 18.8169 10.3808C18.8893 10.3084 18.9815 10.2591 19.0819 10.2392C19.1823 10.2192 19.2863 10.2294 19.3809 10.2686C19.4755 10.3078 19.5563 10.3741 19.6131 10.4592C19.67 10.5443 19.7004 10.6444 19.7004 10.7467C19.7004 10.884 19.6458 11.0156 19.5488 11.1126C19.4517 11.2097 19.3201 11.2642 19.1829 11.2642Z" fill="#F77E0B"/>
</svg>
