<svg width="24" height="24" viewBox="0 0 24 24" fill="none" xmlns="http://www.w3.org/2000/svg">
<path d="M0 9C0 4.02944 4.02944 0 9 0H15C19.9706 0 24 4.02944 24 9V15C24 19.9706 19.9706 24 15 24H9C4.02944 24 0 19.9706 0 15V9Z" fill="#153BAD"/>
<path d="M10.9846 17.3686C10.15 17.3071 9.35584 16.9827 8.71453 16.4414C8.09659 15.8797 7.64909 15.1533 7.42375 14.3463C7.21672 13.6221 7.13136 12.7762 7.47143 12.843C7.57676 12.8644 7.75791 13.3295 7.9545 13.666C8.0856 13.9184 8.26434 14.1427 8.48071 14.3262C8.55199 14.3797 8.79035 13.8425 9.1404 13.5375C9.34289 13.3692 9.564 13.3121 9.60077 13.815C9.64345 14.4309 9.53312 15.1648 9.71155 15.1648C9.87909 15.1648 10.2564 15.0372 11.0841 14.9677C11.3946 14.9398 11.5712 14.9988 11.2747 15.4204C11.0575 15.7517 10.7802 16.039 10.4575 16.2671C11.1603 16.9292 12.0053 16.851 12.0198 17.1322C12.0289 17.2945 11.7156 17.3837 11.3029 17.3837C11.2007 17.3837 11.0931 17.3782 10.9824 17.3672M13.3514 11.4059C13.1678 11.369 12.9979 11.2816 12.8606 11.1533C12.7233 11.0251 12.624 10.861 12.5737 10.6793C12.5159 10.4156 12.5082 10.1431 12.551 9.87645C12.6342 9.33153 12.7989 8.80246 13.0395 8.30724C13.326 7.58025 12.6309 7.15411 12.7439 6.88617C12.901 6.52496 13.3991 6.98493 13.9562 7.0174C14.4347 7.04529 14.7221 7.02151 15.0939 7.07043C15.5912 7.1018 16.065 7.29427 16.4447 7.61911C16.6857 7.90351 16.3171 8.25146 15.873 8.03427C15.5484 7.87424 15.1403 7.97163 15.3795 8.31273C15.5577 8.53943 15.8167 8.68709 16.1014 8.72423C16.2574 8.74323 16.4034 8.81131 16.5186 8.91878C16.6339 9.02625 16.7125 9.16762 16.7433 9.32275C16.7741 9.47787 16.7555 9.63882 16.6901 9.78267C16.6248 9.92651 16.516 10.0459 16.3793 10.1238C15.7555 10.5838 15.1239 10.3931 14.871 9.49055C14.7444 9.04109 14.4302 8.81248 14.1055 8.94188C13.7809 9.07127 13.9757 9.65973 14.2191 10.2079C14.644 11.2994 13.7841 11.4114 13.4577 11.4114C13.4225 11.4116 13.3873 11.4101 13.3523 11.4068M12.8874 17.5739C12.882 17.429 13.0926 17.391 13.0926 17.391C14.9714 17.0188 14.4225 15.7765 13.7569 15.1433C13.4781 14.8763 10.8616 12.6015 10.8616 12.6015C8.36448 10.4375 8.56516 8.74892 8.56516 8.74892C8.68547 6.6699 10.4929 6.1546 11.86 6.27394C12.0207 6.28766 12.1088 6.3855 12.0806 6.52039C12.0511 6.66579 11.8386 6.6763 11.8386 6.6763C11.4481 6.66791 11.0621 6.76248 10.719 6.95064C9.61666 7.69592 9.94356 8.96702 11.4109 10.3799C11.5962 10.5586 11.7923 10.7456 11.9944 10.9359C11.9944 10.9359 12.2895 11.1974 12.8756 11.7589C14.0066 12.8073 14.6249 13.3733 14.6249 13.3733C16.6172 15.0431 15.9371 16.5703 15.1743 17.1016C14.5621 17.5123 13.8445 17.7347 13.109 17.7417C13.1007 17.7423 13.0923 17.7423 13.084 17.7417C13.036 17.7444 12.9888 17.7283 12.9524 17.6968C12.9159 17.6652 12.8929 17.6207 12.8883 17.5725" fill="white"/>
</svg>
