<svg width="24" height="24" viewBox="0 0 24 24" fill="none" xmlns="http://www.w3.org/2000/svg">
<path d="M0 9C0 4.02944 4.02944 0 9 0H15C19.9706 0 24 4.02944 24 9V15C24 19.9706 19.9706 24 15 24H9C4.02944 24 0 19.9706 0 15V9Z" fill="#056751"/>
<path d="M11.4766 11.1534L11.2581 11.1862L11.0612 11.2374L10.8781 11.303L10.7128 11.3805L10.5684 11.4625L10.338 11.6239L10.195 11.7486L10.1458 11.7985L9.97973 12.0295L9.84848 12.2605L9.75004 12.4895L9.67917 12.7146L9.63126 12.9332L9.60829 13.1445L9.60107 13.3413L9.61026 13.529L9.65817 13.8572L9.72379 14.1131L9.80976 14.3375L9.88917 14.4629L9.96989 14.5679L10.0532 14.6538L10.1366 14.7195L10.3013 14.8094L10.4555 14.8501L10.5868 14.8573L10.6937 14.8448L10.7902 14.8179L10.8742 14.7779L10.9431 14.728L10.9995 14.6709L11.0415 14.6092L11.0973 14.4872L11.117 14.3493L11.1118 14.2181L11.0973 14.1137L11.0717 14.014L11.0429 13.7449L11.0514 13.5179L11.0868 13.3341L11.138 13.1891L11.1964 13.0802L11.2509 13.006L11.3067 12.9496L11.4182 12.8839L11.5232 12.8393L11.6236 12.8131L11.7149 12.8045L11.8802 12.8255L12.0154 12.8859L12.123 12.964L12.2011 13.0434L12.2668 13.13L12.3606 13.319L12.4262 13.5533L12.4604 13.8243L12.4702 14.1242L12.4584 14.4465L12.4302 14.7818L12.3311 15.4597L12.2051 16.0982L12.0797 16.6318L11.9485 17.1345L11.9117 17.2769V17.3701L11.9373 17.4232L11.9806 17.4462L12.0797 17.437L12.1289 17.418L12.1644 17.4481L12.1998 17.4606L12.2654 17.4449L12.3147 17.4075L12.3344 17.3878L12.5778 17.1253L12.7931 16.8516L12.986 16.5681L13.1534 16.28L13.3004 15.99L13.425 15.7032L13.6219 15.1578L13.7532 14.6762L13.8326 14.2903L13.8824 13.9412L13.9074 13.6097L13.9002 13.3059L13.8647 13.0283L13.807 12.7757L13.7223 12.5499L13.6291 12.3471L13.5261 12.1667L13.4159 12.0092L13.3023 11.8727L13.1894 11.7565L12.9867 11.5846L12.8403 11.4855L12.7839 11.4546L12.4958 11.3155L12.2189 11.219L11.9564 11.1632L11.7096 11.1422L11.4766 11.1534ZM17.4485 8.29937L17.0935 8.42537L16.47 8.62224L15.6169 8.88474L15.1155 9.01074L14.6358 9.10721L14.1889 9.17678L13.7952 9.22337L13.2045 9.26931L12.9814 9.27653L12.4604 9.29228L11.8822 9.28309L10.7174 9.21746L9.78876 9.13018L9.41339 9.08949L8.34501 8.94578L7.69532 8.86178L7.28189 8.81256L6.84154 8.7909L6.57904 8.7699H6.40514L6.27389 8.79746L6.1807 8.84537L6.11967 8.90509L6.08095 8.97071L6.06126 9.02584L6.05273 9.08162L6.05732 9.20631L6.03501 9.32968L5.99039 9.46093L6.0022 9.5784L6.03304 9.69653L6.08095 9.81203L6.14657 9.92162L6.3067 10.1297L6.49111 10.3075L6.67551 10.4552L6.83761 10.5667L6.99576 10.6619L7.16836 10.7393L7.27204 10.8089L7.32257 10.8581L7.33373 10.8778L7.36654 10.9158L7.40789 10.9467L7.51289 10.9907L7.63561 11.013L7.76686 11.0195L7.99129 11.0051L8.08973 10.9913L8.84836 10.8778L9.48426 10.7971L10.0834 10.7314L11.0435 10.652L11.8966 10.5641L12.6408 10.4729L13.2649 10.3856L14.1292 10.2478L14.4291 10.19L14.9889 10.0378L15.4876 9.88553L15.9286 9.73262L16.3178 9.58234L16.6551 9.43599L16.9458 9.29359L17.1926 9.1584L17.3986 9.02715L17.7038 8.8014L17.8882 8.62487L17.9794 8.51068L18.0037 8.46999L18.0096 8.41553L17.9991 8.37681L17.9794 8.34859L17.9525 8.33153L17.8961 8.31774H17.8698L17.7806 8.34006H17.7241L17.6848 8.32037L17.583 8.27837L17.5089 8.27509L17.4485 8.29937ZM11.8756 6.54456L11.7975 6.55965H11.7621L11.5718 6.57409L11.4077 6.60953L11.2647 6.66203L11.1419 6.72765L11.0369 6.80574L10.951 6.89237L10.8794 6.98424L10.8224 7.07874L10.7443 7.26381L10.7036 7.4259L10.6859 7.58274L10.7036 7.75074L10.7429 7.89906L10.7968 8.02637L10.8565 8.13334L10.9661 8.27903L11.0179 8.32824L11.1492 8.42143L11.2804 8.49034L11.4077 8.53824L11.5311 8.56712L11.7582 8.57631L11.9603 8.54021L12.1276 8.47459L12.2543 8.40568L12.3691 8.33153L12.4709 8.20946L12.5503 8.09134L12.61 7.97912L12.652 7.87215L12.6927 7.67528L12.6868 7.50924L12.6546 7.3734L12.6067 7.27234L12.5522 7.18703L12.482 7.1214L12.4459 7.05971L12.4341 6.99409L12.4584 6.84971L12.4754 6.75653L12.4426 6.66728L12.3698 6.60559L12.274 6.56687L12.1657 6.54587L11.9649 6.53931L11.8756 6.54456Z" fill="white"/>
</svg>
