<svg width="24" height="24" viewBox="0 0 24 24" fill="none" xmlns="http://www.w3.org/2000/svg">
<path d="M0 9C0 4.02944 4.02944 0 9 0H15C19.9706 0 24 4.02944 24 9V15C24 19.9706 19.9706 24 15 24H9C4.02944 24 0 19.9706 0 15V9Z" fill="#03863C"/>
<path d="M11.9971 6.96869L9.43483 5.72693L11.9971 10.4273L14.564 5.72693L11.9971 6.96869Z" fill="#FBBA00"/>
<path d="M15.4609 9.36398L15.4204 9.33133L17.2515 8.59026V6.10583L14.0729 7.412C14.0729 7.412 12.3491 10.5568 12.3105 10.6284C12.988 10.7053 13.6093 11.0289 14.0474 11.5329C14.4855 12.0369 14.7072 12.6832 14.6673 13.3396C14.6273 13.996 14.3286 14.6129 13.8324 15.064C13.3361 15.5152 12.6798 15.7664 11.9977 15.7664C11.3155 15.7664 10.6592 15.5152 10.1629 15.064C9.66668 14.6129 9.36801 13.996 9.32804 13.3396C9.28807 12.6832 9.50982 12.0369 9.94792 11.5329C10.386 11.0289 11.0074 10.7053 11.6848 10.6284L9.92613 7.412L6.7485 6.10583V8.58573L8.57585 9.32679L8.53821 9.36398C7.72925 10.0435 7.15478 10.9449 6.89159 11.9476C6.62841 12.9504 6.68905 14.0067 7.06543 14.9753C7.4418 15.9439 8.11597 16.7787 8.99777 17.368C9.87958 17.9573 10.927 18.2731 12 18.2731C13.073 18.2731 14.1204 17.9573 15.0022 17.368C15.8841 16.7787 16.5582 15.9439 16.9346 14.9753C17.311 14.0067 17.3716 12.9504 17.1084 11.9476C16.8452 10.9449 16.2708 10.0435 15.4618 9.36398" fill="#FBBA00"/>
</svg>
