<svg width="24" height="24" viewBox="0 0 24 24" fill="none" xmlns="http://www.w3.org/2000/svg">
<path d="M0 9C0 4.02944 4.02944 0 9 0H15C19.9706 0 24 4.02944 24 9V15C24 19.9706 19.9706 24 15 24H9C4.02944 24 0 19.9706 0 15V9Z" fill="#E2E8EF"/>
<g clip-path="url(#clip0_10248_2656)">
<path d="M5.11125 12.1913C5.11125 12.0863 5.19375 11.9963 5.29875 11.9963L8.87625 11.9738C8.98125 11.9738 9.07125 12.0563 9.07125 12.1688C9.07125 12.1913 9.07125 12.2213 9.05625 12.2438L7.29375 16.6238C7.26375 16.6913 7.19625 16.7438 7.12125 16.7438C7.06875 16.7438 7.02375 16.7213 6.98625 16.6913C6.98625 16.6913 6.98625 16.6913 6.98625 16.6838C5.87625 15.4988 5.17125 13.9313 5.11125 12.1988V12.1913Z" fill="url(#paint0_linear_10248_2656)"/>
<path d="M8.90625 17.9062L11.0288 12.6262C11.1788 12.2362 11.5538 11.9662 11.9963 11.9587C12.4088 11.9587 12.7688 12.1912 12.9413 12.5437L15.1763 17.8762C15.1763 17.8762 15.1913 17.9212 15.1913 17.9512C15.1913 18.0187 15.1538 18.0862 15.1013 18.1162C15.1013 18.1162 15.1013 18.1162 15.0938 18.1162C14.1788 18.5737 13.1438 18.8362 12.0488 18.8512C10.9538 18.8512 9.91875 18.6112 8.99625 18.1612C8.93625 18.1312 8.89125 18.0637 8.89125 17.9887C8.89125 17.9587 8.89125 17.9437 8.90625 17.9137V17.9062Z" fill="url(#paint1_linear_10248_2656)"/>
<path d="M14.9362 12.1988C14.9362 12.1988 14.9212 12.1462 14.9212 12.1237C14.9212 12.0187 15.0037 11.9287 15.1162 11.9287L18.6937 11.9062C18.7987 11.9062 18.8812 11.9887 18.8812 12.0938C18.8437 13.8262 18.1687 15.4088 17.0737 16.6013C17.0362 16.6313 16.9912 16.6613 16.9312 16.6613C16.8562 16.6613 16.7812 16.6088 16.7512 16.5413L14.9287 12.1913L14.9362 12.1988Z" fill="url(#paint2_linear_10248_2656)"/>
<path d="M18.3263 9.9338L14.1338 9.9638H14.1188C14.0438 9.9638 13.9838 9.9113 13.9613 9.8438L13.6238 9.0413C13.1588 7.8488 12.9413 6.7088 12.9413 5.6663V5.3438C12.9413 5.2388 13.0238 5.1488 13.1288 5.1488H13.1588C15.6488 5.5688 17.6888 7.3313 18.5063 9.6713C18.5063 9.6713 18.5138 9.7088 18.5138 9.7313C18.5138 9.8363 18.4313 9.9188 18.3188 9.9188L18.3263 9.9338Z" fill="url(#paint3_linear_10248_2656)"/>
<path d="M10.3387 9.06376L10.0162 9.87376C9.99375 9.93376 9.94125 9.97876 9.87375 9.99376H9.85875H9.84375L5.64375 10.0238C5.53875 10.0238 5.44875 9.94126 5.44875 9.83626C5.44875 9.81376 5.44875 9.79126 5.45625 9.77626C6.24375 7.42876 8.25375 5.62876 10.7437 5.17126H10.7662C10.8712 5.17126 10.9612 5.25376 10.9612 5.35876V5.68126C10.9762 6.72376 10.7737 7.86376 10.3312 9.06376H10.3387Z" fill="url(#paint4_linear_10248_2656)"/>
</g>
<defs>
<linearGradient id="paint0_linear_10248_2656" x1="7.06645" y1="5.15248" x2="7.1609" y2="18.6822" gradientUnits="userSpaceOnUse">
<stop stop-color="#034EA2"/>
<stop offset="1" stop-color="#00AEEF"/>
</linearGradient>
<linearGradient id="paint1_linear_10248_2656" x1="11.9713" y1="5.11822" x2="12.0658" y2="18.6479" gradientUnits="userSpaceOnUse">
<stop stop-color="#034EA2"/>
<stop offset="1" stop-color="#00AEEF"/>
</linearGradient>
<linearGradient id="paint2_linear_10248_2656" x1="16.8762" y1="5.08399" x2="16.9707" y2="18.6137" gradientUnits="userSpaceOnUse">
<stop stop-color="#034EA2"/>
<stop offset="1" stop-color="#00AEEF"/>
</linearGradient>
<linearGradient id="paint3_linear_10248_2656" x1="15.7287" y1="5.09206" x2="15.8231" y2="18.6067" gradientUnits="userSpaceOnUse">
<stop stop-color="#034EA2"/>
<stop offset="1" stop-color="#00AEEF"/>
</linearGradient>
<linearGradient id="paint4_linear_10248_2656" x1="8.21391" y1="5.14448" x2="8.30832" y2="18.6667" gradientUnits="userSpaceOnUse">
<stop stop-color="#034EA2"/>
<stop offset="1" stop-color="#00AEEF"/>
</linearGradient>
<clipPath id="clip0_10248_2656">
<rect width="13.7775" height="13.6875" fill="white" transform="translate(5.11125 5.15625)"/>
</clipPath>
</defs>
</svg>
