<svg width="32" height="32" viewBox="0 0 32 32" fill="none" xmlns="http://www.w3.org/2000/svg">
<g style="mix-blend-mode:multiply">
<path d="M25.798 6.00015L6.20218 6C4.24961 6 2.66675 7.54328 2.66675 9.44702V22.5528C2.66675 24.4566 4.24961 25.9999 6.20218 25.9999L25.798 26C27.7505 26 29.3334 24.4567 29.3334 22.553V9.44717C29.3334 7.54343 27.7505 6.00015 25.798 6.00015Z" fill="#8C97C8"/>
<g style="mix-blend-mode:multiply">
<path d="M6.11379 6L25.8864 6C27.7895 6 29.3334 7.54389 29.3334 9.44702V11.2956H2.66675V9.44702C2.66675 7.54389 4.21065 6 6.11379 6Z" fill="#5B658C"/>
</g>
<path d="M13.9235 8.67733C13.9235 9.23544 13.4631 9.68663 12.8936 9.68663C12.3241 9.68663 11.8636 9.23544 11.8636 8.67733C11.8636 8.11922 12.3262 7.66803 12.8936 7.66803C13.4609 7.66803 13.9235 8.12136 13.9235 8.67733Z" fill="#8C97C8"/>
<path d="M9.66202 9.68663C10.2308 9.68663 10.6919 9.23476 10.6919 8.67733C10.6919 8.11991 10.2308 7.66803 9.66202 7.66803C9.09322 7.66803 8.63211 8.11991 8.63211 8.67733C8.63211 9.23476 9.09322 9.68663 9.66202 9.68663Z" fill="#8C97C8"/>
<path d="M6.43762 9.68657C7.00642 9.68657 7.46753 9.23469 7.46753 8.67727C7.46753 8.11985 7.00642 7.66797 6.43762 7.66797C5.86882 7.66797 5.40771 8.11985 5.40771 8.67727C5.40771 9.23469 5.86882 9.68657 6.43762 9.68657Z" fill="#8C97C8"/>
<path d="M16.3765 22.9033C16.1772 23.131 15.8231 23.131 15.6239 22.9033L12.0591 18.8293C11.7762 18.506 12.0058 18 12.4354 18H14.0002V14.5C14.0002 14.2239 14.224 14 14.5002 14H17.5002C17.7763 14 18.0002 14.2239 18.0002 14.5V18H19.5649C19.9945 18 20.2241 18.506 19.9412 18.8293L16.3765 22.9033Z" fill="white"/>
</g>
</svg>
