<svg width="32" height="32" viewBox="0 0 32 32" fill="none" xmlns="http://www.w3.org/2000/svg">
<g style="mix-blend-mode:multiply">
<path d="M24.3334 14.6654C24.3334 20.3723 19.707 24.9987 14.0001 24.9987C8.29314 24.9987 3.66675 20.3723 3.66675 14.6654C3.66675 8.95842 8.29314 4.33203 14.0001 4.33203C19.707 4.33203 24.3334 8.95842 24.3334 14.6654Z" fill="#5B658C"/>
</g>
<path d="M28.3334 16.0013C28.3334 21.7082 23.707 26.3346 18.0001 26.3346C12.2931 26.3346 7.66675 21.7082 7.66675 16.0013C7.66675 10.2944 12.2931 5.66797 18.0001 5.66797C23.707 5.66797 28.3334 10.2944 28.3334 16.0013Z" fill="#8C97C8"/>
<g style="mix-blend-mode:multiply">
<circle cx="12.7618" cy="16.0965" r="1.42857" fill="#5B658C"/>
</g>
<g style="mix-blend-mode:multiply">
<circle cx="18.0001" cy="16.0965" r="1.42857" fill="#5B658C"/>
</g>
<g style="mix-blend-mode:multiply">
<circle cx="23.2381" cy="16.0965" r="1.42857" fill="#5B658C"/>
</g>
<path d="M23.6606 20.9252C24.1663 20.4949 24.9481 20.7734 25.0679 21.4264L25.8766 25.8346C25.9964 26.4876 25.3643 27.0255 24.7389 26.8027L20.517 25.299C19.8915 25.0762 19.7418 24.2599 20.2474 23.8296L23.6606 20.9252Z" fill="#8C97C8"/>
</svg>
