<svg width="32" height="32" viewBox="0 0 32 32" fill="none" xmlns="http://www.w3.org/2000/svg">
<g style="mix-blend-mode:multiply">
<path d="M6.66675 6.67407C6.66675 5.19722 7.86066 4 9.33341 4H22.6667C24.1395 4 25.3334 5.19722 25.3334 6.67407V26.6593C25.3334 28.1361 24.1395 29.3333 22.6667 29.3333H9.33341C7.86066 29.3333 6.66675 28.1361 6.66675 26.6593V6.67407Z" fill="#8C97C8"/>
<g style="mix-blend-mode:multiply">
<path fill-rule="evenodd" clip-rule="evenodd" d="M25.3334 26.9883C25.3333 28.2843 24.1395 29.3346 22.6667 29.3346H9.33341C7.86071 29.3346 6.66683 28.2843 6.66675 26.9883V23.4688H25.3334V26.9883ZM16.0001 25.0677C15.2638 25.0677 14.6669 25.6648 14.6667 26.401C14.6667 27.1374 15.2637 27.7344 16.0001 27.7344C16.7365 27.7344 17.3334 27.1374 17.3334 26.401C17.3332 25.6648 16.7363 25.0677 16.0001 25.0677Z" fill="#5B658C"/>
<path d="M17.5821 8.96745C17.9649 8.56818 18.5861 8.5681 18.9688 8.96745C19.3515 9.36712 19.3511 10.0155 18.9688 10.4154L16.741 12.7422H18.2761C18.6723 12.7425 19.0294 12.9928 19.1811 13.375C19.3328 13.7575 19.249 14.1981 18.9688 14.4909L13.767 19.9232C13.3841 20.323 12.7632 20.323 12.3803 19.9232C11.9976 19.5233 11.9974 18.8751 12.3803 18.4753L15.9089 14.7904H14.3738C13.9773 14.7904 13.6193 14.5414 13.4675 14.1589C13.316 13.7765 13.3998 13.3357 13.6798 13.043L17.5821 8.96745Z" fill="#5B658C"/>
</g>
</g>
</svg>
