<svg width="18" height="18" viewBox="0 0 18 18" fill="none" xmlns="http://www.w3.org/2000/svg">
<path fill-rule="evenodd" clip-rule="evenodd" d="M8.99935 0.666992C4.39685 0.666992 0.666016 4.39783 0.666016 9.00033C0.666016 13.6028 4.39685 17.3337 8.99935 17.3337C13.6018 17.3337 17.3327 13.6028 17.3327 9.00033C17.3327 4.39783 13.6018 0.666992 8.99935 0.666992ZM7.95768 4.96449C8.82371 4.74026 9.73892 4.80071 10.5679 5.13691C11.3969 5.4731 12.0957 6.06718 12.561 6.83129C13.0262 7.59539 13.2332 8.48894 13.1512 9.37977C13.0693 10.2706 12.7028 11.1114 12.106 11.7778C11.961 11.9428 11.887 12.1584 11.9002 12.3777C11.9133 12.597 12.0125 12.8022 12.1761 12.9488C12.3398 13.0953 12.5547 13.1713 12.7741 13.1602C12.9935 13.1491 13.1996 13.0518 13.3477 12.8895C14.1833 11.9566 14.6964 10.7795 14.8112 9.5324C14.926 8.28527 14.6364 7.03431 13.9852 5.96452C13.334 4.89474 12.3558 4.06294 11.1953 3.59214C10.0347 3.12135 8.75347 3.03656 7.54102 3.35033C7.33312 3.41078 7.15692 3.54978 7.04971 3.73788C6.94251 3.92599 6.91272 4.14843 6.96666 4.35811C7.02059 4.56779 7.15402 4.74825 7.33868 4.86128C7.52335 4.9743 7.74475 5.01102 7.95602 4.96366L7.95768 4.96449ZM4.96268 7.95866C5.01005 7.7474 4.97333 7.52599 4.8603 7.34133C4.74728 7.15666 4.56682 7.02324 4.35713 6.9693C4.14745 6.91536 3.92501 6.94515 3.73691 7.05235C3.5488 7.15956 3.40981 7.33576 3.34935 7.54366C3.11047 8.47322 3.10427 9.44731 3.3313 10.3798C3.55832 11.3124 4.01158 12.1746 4.65102 12.8903C4.72368 12.973 4.81201 13.0405 4.91091 13.0889C5.0098 13.1372 5.11729 13.1655 5.22718 13.1721C5.33707 13.1787 5.44717 13.1634 5.55113 13.1272C5.65509 13.091 5.75084 13.0345 5.83286 12.9611C5.91488 12.8877 5.98153 12.7987 6.02898 12.6994C6.07642 12.6001 6.10371 12.4923 6.10927 12.3824C6.11483 12.2724 6.09856 12.1625 6.06138 12.0588C6.02421 11.9552 5.96687 11.86 5.89268 11.7787C5.20815 11.0154 4.83053 10.0256 4.83268 9.00033C4.83268 8.63949 4.87768 8.29033 4.96268 7.95866ZM8.99935 10.667C9.23654 10.6669 9.47097 10.6161 9.68698 10.5182C9.903 10.4202 10.0956 10.2773 10.252 10.0989C10.4083 9.92052 10.5248 9.71084 10.5936 9.48385C10.6624 9.25686 10.682 9.0178 10.651 8.78264C10.62 8.54748 10.5392 8.32165 10.4139 8.12022C10.2887 7.9188 10.1219 7.74643 9.92467 7.61464C9.72747 7.48284 9.50441 7.39466 9.2704 7.35597C9.03638 7.31729 8.79681 7.329 8.56768 7.39033L5.42185 4.24449C5.26468 4.09269 5.05418 4.0087 4.83568 4.0106C4.61718 4.0125 4.40817 4.10014 4.25367 4.25464C4.09916 4.40915 4.01152 4.61816 4.00962 4.83666C4.00772 5.05516 4.09172 5.26566 4.24352 5.42283L7.38935 8.56866C7.32312 8.81562 7.31461 9.07451 7.36447 9.3253C7.41432 9.57608 7.52121 9.81203 7.67686 10.0149C7.8325 10.2177 8.03274 10.3821 8.26206 10.4951C8.49139 10.6082 8.74366 10.667 8.99935 10.667Z" fill="#6D7882"/>
</svg>
