<svg width="33" height="32" viewBox="0 0 33 32" fill="none" xmlns="http://www.w3.org/2000/svg">
<path fill-rule="evenodd" clip-rule="evenodd" d="M2.79248 15.9999C2.79248 16.2901 2.91068 16.5677 3.11983 16.7688L10.0532 23.4355C10.4778 23.8438 11.1531 23.8306 11.5614 23.4059C11.9697 22.9813 11.9564 22.306 11.5318 21.8977L6.50744 17.0666L25.3914 17.0666C25.9805 17.0666 26.4581 16.589 26.4581 15.9999C26.4581 15.4108 25.9805 14.9333 25.3914 14.9333L6.50744 14.9333L11.5318 10.1022C11.9564 9.69384 11.9697 9.0186 11.5614 8.59395C11.1531 8.16931 10.4778 8.15607 10.0532 8.56438L3.11983 15.231C2.91068 15.4322 2.79248 15.7098 2.79248 15.9999Z" fill="#33363D"/>
</svg>
