<svg width="20" height="20" viewBox="0 0 20 20" fill="none" xmlns="http://www.w3.org/2000/svg">
<path d="M10.0002 2.08301C10.8773 2.08301 11.6714 2.57529 13.2586 3.56087L14.8512 4.54964C16.3468 5.47833 17.0958 5.94348 17.505 6.6932C17.9166 7.44361 17.9168 8.34908 17.9168 10.1608V11.3652C17.9168 14.4535 17.9161 15.9974 16.9891 16.9569C16.0621 17.9163 14.569 17.9163 11.5838 17.9163H8.4165C5.43135 17.9163 3.93903 17.9163 3.01123 16.9569C2.08343 15.9974 2.0835 14.4527 2.0835 11.3652V10.16C2.0835 8.34907 2.08375 7.44281 2.49528 6.6932C2.9057 5.94274 3.65471 5.47689 5.15316 4.54639L6.74251 3.56087C8.33004 2.57559 9.12315 2.08301 10.0002 2.08301ZM8.3335 13.4998C7.96531 13.4998 7.66699 13.7982 7.66699 14.1663C7.66699 14.5345 7.96531 14.8328 8.3335 14.8328H11.6668L11.7352 14.8296C12.0713 14.7954 12.3333 14.5115 12.3333 14.1663C12.3333 13.8212 12.0713 13.5373 11.7352 13.5031L11.6668 13.4998H8.3335Z" fill="#6D7882"/>
</svg>
