<svg width="18" height="18" viewBox="0 0 18 18" fill="none" xmlns="http://www.w3.org/2000/svg">
<g style="mix-blend-mode:multiply">
<path fill-rule="evenodd" clip-rule="evenodd" d="M9 1.5C4.85775 1.5 1.5 4.85775 1.5 9C1.5 13.1423 4.85775 16.5 9 16.5C13.1423 16.5 16.5 13.1423 16.5 9C16.5 4.85775 13.1423 1.5 9 1.5ZM8.0625 5.36775C8.84193 5.16594 9.66561 5.22035 10.4117 5.52292C11.1578 5.8255 11.7868 6.36017 12.2055 7.04787C12.6242 7.73556 12.8104 8.53975 12.7367 9.3415C12.6629 10.1432 12.3331 10.9 11.796 11.4998C11.6655 11.6483 11.5989 11.8423 11.6107 12.0397C11.6226 12.237 11.7118 12.4217 11.8591 12.5536C12.0064 12.6855 12.1998 12.7539 12.3973 12.7439C12.5947 12.7339 12.7803 12.6463 12.9135 12.5003C13.6655 11.6606 14.1273 10.6013 14.2307 9.47886C14.334 8.35645 14.0734 7.23059 13.4873 6.26778C12.9012 5.30497 12.0208 4.55635 10.9763 4.13264C9.93184 3.70892 8.77871 3.63261 7.6875 3.915C7.50039 3.96941 7.34181 4.09451 7.24533 4.2638C7.14884 4.4331 7.12203 4.63329 7.17058 4.82201C7.21912 5.01072 7.3392 5.17313 7.5054 5.27486C7.6716 5.37658 7.87086 5.40963 8.061 5.367L8.0625 5.36775ZM5.367 8.0625C5.40963 7.87236 5.37658 7.6731 5.27486 7.5069C5.17313 7.3407 5.01072 7.22062 4.82201 7.17208C4.63329 7.12353 4.43309 7.15034 4.2638 7.24683C4.09451 7.34331 3.96941 7.50189 3.915 7.689C3.70001 8.5256 3.69443 9.40229 3.89875 10.2416C4.10308 11.0808 4.51101 11.8568 5.0865 12.501C5.1519 12.5754 5.2314 12.6362 5.3204 12.6797C5.4094 12.7232 5.50615 12.7487 5.60505 12.7546C5.70395 12.7605 5.80304 12.7468 5.89661 12.7142C5.99017 12.6816 6.07635 12.6308 6.15016 12.5647C6.22398 12.4986 6.28397 12.4186 6.32666 12.3292C6.36936 12.2398 6.39393 12.1428 6.39893 12.0438C6.40394 11.9449 6.38929 11.8459 6.35583 11.7527C6.32237 11.6594 6.27077 11.5737 6.204 11.5005C5.58792 10.8135 5.24807 9.92276 5.25 9C5.25 8.67525 5.2905 8.361 5.367 8.0625ZM9 10.5C9.21347 10.4999 9.42446 10.4542 9.61887 10.3661C9.81328 10.2779 9.98663 10.1492 10.1273 9.98871C10.268 9.82818 10.3729 9.63946 10.4348 9.43517C10.4967 9.23088 10.5143 9.01573 10.4865 8.80408C10.4586 8.59244 10.3858 8.38919 10.2731 8.20791C10.1604 8.02663 10.0103 7.8715 9.83279 7.75288C9.65531 7.63426 9.45456 7.5549 9.24394 7.52008C9.03333 7.48527 8.81771 7.49581 8.6115 7.551L5.78025 4.71975C5.6388 4.58313 5.44935 4.50754 5.2527 4.50924C5.05605 4.51095 4.86794 4.58983 4.72889 4.72889C4.58983 4.86794 4.51095 5.05605 4.50924 5.2527C4.50754 5.44935 4.58313 5.6388 4.71975 5.78025L7.551 8.6115C7.4914 8.83377 7.48374 9.06677 7.52861 9.29248C7.57348 9.51818 7.66967 9.73053 7.80976 9.91311C7.94984 10.0957 8.13005 10.2436 8.33644 10.3453C8.54284 10.4471 8.76988 10.5 9 10.5Z" fill="#6D7882"/>
</g>
</svg>
