<svg width="20" height="20" viewBox="0 0 20 20" fill="none" xmlns="http://www.w3.org/2000/svg">
<path fill-rule="evenodd" clip-rule="evenodd" d="M5.16651 4V5H2.99984C2.26346 5 1.6665 5.59695 1.6665 6.33333L1.66652 10C1.66652 10.5523 2.11424 11 2.66653 11H17.3332C17.8832 11 18.3295 10.5559 18.3332 10.0067V6.33333C18.3332 5.59695 17.7362 5 16.9998 5H14.8332V4C14.8332 3.17157 14.1616 2.5 13.3332 2.5H6.66651C5.83809 2.5 5.16651 3.17157 5.16651 4ZM6.66651 3.83333C6.57447 3.83333 6.49985 3.90795 6.49985 4V5H13.4998V4C13.4998 3.90795 13.4252 3.83333 13.3332 3.83333H6.66651Z" fill="#6D7882"/>
<path d="M18.3332 12.1088C18.0301 12.2528 17.691 12.3333 17.3332 12.3333H2.66653C2.30865 12.3333 1.9696 12.2528 1.6665 12.1088V15.3333C1.6665 16.0697 2.26346 16.6667 2.99984 16.6667H16.9998C17.7362 16.6667 18.3332 16.0697 18.3332 15.3333V12.1088Z" fill="#6D7882"/>
</svg>
