<svg width="44" height="32" viewBox="0 0 44 32" fill="none" xmlns="http://www.w3.org/2000/svg">
<ellipse cx="19" cy="29.5" rx="17" ry="2.5" fill="#ACB1B6" fill-opacity="0.2"/>
<path d="M22.9683 5.42366C23.273 5.49031 23.5908 5.41941 23.8447 5.23845C25.5283 4.03898 28.1287 2.99913 29.3369 3.46484C30.5522 3.93338 30.1255 5.95583 30.1238 8.51437C30.1236 8.79381 30.2484 9.05704 30.4516 9.24894C31.7677 10.4922 32.7732 11.9527 33.3721 13.5536C33.4708 13.8174 33.7183 14 34 14C35.1045 14.0001 36 14.8955 36 16V20C35.9998 21.1043 35.1043 21.9999 34 22H33.2178C32.8596 22 32.5316 22.1935 32.3375 22.4945C32.0204 22.9859 31.6622 23.4575 31.2664 23.9064C31.0983 24.0972 31 24.3408 31 24.5951V29C31 29.5523 30.5523 30 30 30H26.7808C26.3219 30 25.9219 29.6877 25.8106 29.2425L25.7316 28.9263C25.5861 28.3444 24.965 28.0228 24.3919 28.1996C22.7186 28.716 20.9007 29 19 29C17.0992 29 15.281 28.7161 13.6076 28.1998C13.0343 28.0229 12.4131 28.3448 12.2678 28.9269L12.1891 29.2421C12.078 29.6875 11.6779 30 11.2189 30H8C7.44772 30 7 29.5523 7 29V24.5961C7 24.3418 6.90164 24.0981 6.73345 23.9073C5.21126 22.1805 4.24499 20.1182 4.04135 17.8861C4.00335 17.4696 3.73724 17.1069 3.35959 16.9271C2.64711 16.5879 1.9257 16.082 1.27661 15.3475C0.910865 14.9337 1.04051 14.3063 1.50005 14C1.95955 13.6936 2.57271 13.8282 2.96186 14.2201C3.01303 14.2716 3.06463 14.3212 3.11656 14.369C3.60024 14.814 4.31224 14.4688 4.52354 13.8464C6.25433 8.74871 12.0798 5 19 5C20.3737 5.00001 21.7044 5.14711 22.9683 5.42366Z" fill="#65B9EC"/>
<path d="M18 0C20.7614 0 23 2.23858 23 5C23 6.2589 22.5336 7.4081 21.7656 8.28711C20.882 8.09988 19.9552 8 19 8C17.4611 8 15.996 8.25865 14.666 8.72559C13.6437 7.81008 13 6.48036 13 5C13 2.23858 15.2386 0 18 0Z" fill="#313D4C"/>
<path d="M30.4284 14.381C30.4284 15.1436 29.8101 15.7619 29.0475 15.7619C28.2848 15.7619 27.6665 15.1436 27.6665 14.381C27.6665 13.6183 28.2848 13 29.0475 13C29.8101 13 30.4284 13.6183 30.4284 14.381Z" fill="#313D4C"/>
<ellipse cx="28.3594" cy="19.5" rx="2.5" ry="1.5" fill="white"/>
<path d="M24 8.98134C22.4999 8.35391 20.8004 8 19 8C16.5684 8 14.321 8.64555 12.5 9.7386" stroke="#285FA4" stroke-width="1.6" stroke-linecap="round"/>
</svg>
