<svg width="44" height="32" viewBox="0 0 44 32" fill="none" xmlns="http://www.w3.org/2000/svg">
<g clip-path="url(#clip0_16953_273340)">
<ellipse cx="21" cy="28.5" rx="12" ry="2.5" fill="#ACB1B6" fill-opacity="0.2"/>
<path d="M19.2174 2.14414C19.2225 0.870768 20.3636 -0.131534 21.6812 0.0946337C22.5122 0.23728 23.2013 0.925099 23.3537 1.75606C23.4028 2.03121 23.3973 2.30156 23.3482 2.55708C23.2138 3.20145 23.2399 3.86006 23.3806 4.49955L25.3397 4.50024C26.077 4.50026 26.6745 5.09773 26.6745 5.83504V8.85129L15.8545 8.8506L15.8545 5.83435C15.8547 5.09725 16.4522 4.49969 17.1893 4.49955H17.1948L19.2243 4.50024C19.3486 3.8276 19.3387 3.1271 19.2423 2.43416C19.2276 2.34087 19.2174 2.24232 19.2174 2.14414Z" fill="#285FA4"/>
<path d="M26.5709 8H15.544C13.7825 8 12.3545 9.42798 12.3545 11.1895V25.92C12.3545 27.6815 13.7825 29.1095 15.544 29.1095H26.5709C28.3324 29.1095 29.7603 27.6815 29.7603 25.92V11.1895C29.7603 9.42798 28.3324 8 26.5709 8Z" fill="#65B9EC"/>
<path d="M19.1629 17.1953C19.5419 17.1935 19.8478 17.499 19.8457 17.8781C19.8436 18.2572 19.5344 18.5662 19.1553 18.5686L14.5595 18.5939C14.1773 18.596 13.867 18.2857 13.8691 17.9035C13.8712 17.5273 14.1757 17.2228 14.5519 17.2207L19.1629 17.1953Z" fill="white"/>
<path d="M17.8308 13.4619C18.2101 13.4599 18.5158 13.7655 18.5137 14.1448C18.5116 14.524 18.2025 14.8331 17.8233 14.8352L14.5855 14.853C14.2034 14.8551 13.893 14.5448 13.8951 14.1627C13.8972 13.7864 14.2017 13.4819 14.5779 13.4799L17.8308 13.4619Z" fill="white"/>
<path d="M17.7902 20.8425C18.1694 20.8405 18.4751 21.1461 18.4731 21.5254C18.471 21.9046 18.1619 22.2137 17.7826 22.2158L14.5449 22.2336C14.1627 22.2357 13.8524 21.9254 13.8545 21.5433C13.8566 21.167 14.1611 20.8625 14.5373 20.8605L17.7902 20.8425Z" fill="white"/>
<path d="M29.8743 13C29.3584 13.0076 28.8538 13.1438 28.4113 13.3948C27.9689 13.6459 27.6043 14.2103 27.3545 14.6372C27.1046 14.2103 26.7401 13.6459 26.2977 13.3948C25.8552 13.1438 25.3506 13.0076 24.8347 13C24.0123 13.0338 23.2374 13.374 22.6794 13.9464C22.1215 14.5187 21.8257 15.2766 21.8567 16.0546C21.8567 18.99 26.8762 22.6789 27.0897 22.8228C27.2499 22.93 27.459 22.93 27.6193 22.8228C27.8328 22.6798 32.8523 18.99 32.8523 16.0546C32.8833 15.2766 32.5875 14.5187 32.0295 13.9464C31.4716 13.374 30.6967 13.0338 29.8743 13Z" fill="#285FA4"/>
</g>
<defs>
<clipPath id="clip0_16953_273340">
<rect width="44" height="32" fill="white"/>
</clipPath>
</defs>
</svg>
