<svg width="32" height="32" viewBox="0 0 32 32" fill="none" xmlns="http://www.w3.org/2000/svg">
<g style="mix-blend-mode:multiply">
<path d="M6 6.67407C6 5.19722 7.19391 4 8.66667 4H22C23.4728 4 24.6667 5.19722 24.6667 6.67407V26.6593C24.6667 28.1361 23.4728 29.3333 22 29.3333H8.66667C7.19391 29.3333 6 28.1361 6 26.6593V6.67407Z" fill="#FA967C"/>
<g style="mix-blend-mode:multiply">
<path d="M6 23.4668H24.6667V26.9868C24.6667 28.2828 23.4728 29.3335 22 29.3335H8.66667C7.19391 29.3335 6 28.2828 6 26.9868V23.4668Z" fill="#D63D4A"/>
</g>
<path d="M15.3333 27.7334C16.0697 27.7334 16.6667 27.1364 16.6667 26.4C16.6667 25.6637 16.0697 25.0667 15.3333 25.0667C14.597 25.0667 14 25.6637 14 26.4C14 27.1364 14.597 27.7334 15.3333 27.7334Z" fill="#FA967C"/>
<path fill-rule="evenodd" clip-rule="evenodd" d="M8.66675 8.39998C8.66675 7.81088 9.14431 7.33331 9.73341 7.33331H19.0667C19.6559 7.33331 20.1334 7.81088 20.1334 8.39998C20.1334 8.98908 19.6559 9.46665 19.0667 9.46665H9.73341C9.14431 9.46665 8.66675 8.98908 8.66675 8.39998ZM8.66675 12.9332C8.66675 12.3441 9.14431 11.8665 9.73341 11.8665H15.9355C16.5246 11.8665 17.0022 12.3441 17.0022 12.9332C17.0022 13.5223 16.5246 13.9998 15.9355 13.9998H9.73341C9.14431 13.9998 8.66675 13.5223 8.66675 12.9332Z" fill="#D63D4A"/>
<path d="M14.6668 16.6667C14.976 16.6667 15.2108 16.819 15.353 16.9401C15.5011 17.0663 15.6252 17.2238 15.7267 17.3698C15.9298 17.6618 16.1248 18.0356 16.2931 18.3607C16.4542 18.6718 16.5952 18.9406 16.7228 19.1485C16.736 19.1295 16.7517 19.1096 16.7671 19.0873C16.8517 18.9647 16.9863 18.7674 17.1603 18.6081C17.3508 18.4338 17.6295 18.2669 18.0002 18.2669L18.1356 18.2748C18.4397 18.3094 18.6736 18.4563 18.84 18.6094C19.0135 18.7691 19.147 18.9681 19.2306 19.0899C19.3085 19.2032 19.3581 19.269 19.396 19.3138C19.4411 19.2993 19.5116 19.2748 19.6095 19.2292C19.7896 19.1454 19.9957 19.0273 20.1981 18.9011C20.3982 18.7762 20.5834 18.6501 20.7189 18.5547C20.786 18.5075 20.8406 18.4686 20.8778 18.4414C20.8963 18.4279 20.9114 18.4171 20.9207 18.4102C20.925 18.407 20.9277 18.4039 20.9298 18.4024L20.9325 18.4011L21.0483 18.3307C21.3284 18.1978 21.6724 18.2752 21.866 18.5326C22.0597 18.7901 22.0391 19.1428 21.8335 19.375L21.7345 19.4662H21.7332L21.7319 19.4675C21.731 19.4682 21.7296 19.4689 21.728 19.4701C21.7248 19.4725 21.7207 19.4763 21.715 19.4805C21.7032 19.4892 21.6856 19.5014 21.6642 19.5169C21.6216 19.5481 21.5605 19.592 21.4858 19.6446C21.3372 19.7492 21.1309 19.8908 20.9038 20.0326C20.679 20.1728 20.4212 20.3215 20.172 20.4375C19.9489 20.5414 19.6364 20.6667 19.3335 20.6667C18.9575 20.6667 18.6827 20.4859 18.5041 20.3138C18.3413 20.157 18.211 19.9592 18.1317 19.8438C18.0745 19.7605 18.032 19.7034 17.9989 19.6615C17.9652 19.7036 17.9225 19.7614 17.8647 19.8451C17.7854 19.96 17.6548 20.1566 17.4936 20.3125C17.3173 20.483 17.0434 20.6667 16.6668 20.6667C16.3383 20.6667 16.1038 20.4828 15.9845 20.3698C15.8516 20.2439 15.7395 20.0886 15.6473 19.9466C15.4625 19.6622 15.2747 19.2917 15.1095 18.9727C14.9328 18.6314 14.7763 18.3381 14.6317 18.1302L14.6304 18.1289C14.6132 18.1473 14.5948 18.167 14.5757 18.1888C14.3918 18.399 14.1847 18.6973 13.9832 19.0196C13.7846 19.3373 13.6031 19.6583 13.4715 19.9011C13.406 20.0219 13.354 20.123 13.3179 20.1927C13.2999 20.2274 13.2854 20.254 13.2762 20.2722C13.2716 20.2812 13.268 20.2886 13.2658 20.293C13.2649 20.2948 13.2636 20.296 13.2632 20.2969V20.2982C13.0984 20.6274 12.6979 20.761 12.3686 20.5964C12.0395 20.4316 11.9059 20.0311 12.0705 19.7018L12.0718 19.7005V19.6992L12.0874 19.668C12.098 19.6471 12.1133 19.6162 12.133 19.5781C12.1724 19.5021 12.2297 19.3947 12.2996 19.2656C12.439 19.0085 12.6337 18.6625 12.8517 18.3138C13.0669 17.9697 13.3184 17.6009 13.5718 17.3112C13.6977 17.1673 13.8415 17.0225 13.9976 16.9089C14.1397 16.8054 14.3741 16.6667 14.6668 16.6667Z" fill="white"/>
<g style="mix-blend-mode:multiply">
<path d="M28.4908 8.39845C28.7253 8.16374 28.7253 7.77967 28.4908 7.55563L27.1048 6.1687C26.9934 6.06051 26.8442 6 26.689 6C26.5337 6 26.3846 6.06051 26.2732 6.1687L25.1857 7.25691L27.4033 9.47599M18.1463 14.3012C18.0526 14.3949 18 14.522 18 14.6546V16.3667C18 16.5324 18.1343 16.6667 18.3 16.6667H20.0104C20.143 16.6667 20.2702 16.6139 20.364 16.5201L26.7743 10.1054L24.5567 7.88636L18.1463 14.3012Z" fill="#D63D4A"/>
</g>
</g>
</svg>
