<svg width="32" height="33" viewBox="0 0 32 33" fill="none" xmlns="http://www.w3.org/2000/svg">
<path d="M17.0533 3.50425L25.8681 7.02667C26.3482 7.21847 26.762 7.56188 27.0541 8.01101C27.3462 8.46013 27.5027 8.99357 27.5026 9.54V16.7365C27.5026 18.9793 26.9166 21.1779 25.8101 23.0858C24.7036 24.9937 23.1203 26.5355 21.2378 27.5386L17.0142 29.7875C16.7519 29.9274 16.4626 30.0002 16.1693 30.0002C15.8759 30.0002 15.5866 29.9274 15.3243 29.7875L11.1008 27.5372C9.21821 26.5342 7.63498 24.9923 6.52847 23.0844C5.42196 21.1765 4.83589 18.978 4.83594 16.7351V9.54134C4.83562 8.99468 4.99197 8.46095 5.28407 8.01156C5.57617 7.56217 5.99009 7.21855 6.47046 7.02667L15.2853 3.50425C15.8552 3.27658 16.4833 3.27658 17.0533 3.50425Z" fill="#FA967C"/>
<path d="M7.00672 8.31443L12.359 6.08637C12.5715 5.99791 12.7631 6.34167 12.5831 6.4851C9.81361 8.69179 7.81988 11.4616 6.60193 15.7602C6.53972 15.9798 6.17136 15.9359 6.17188 15.7077L6.1858 9.54235C6.18702 9.00502 6.51065 8.52093 7.00672 8.31443Z" fill="white"/>
<g style="mix-blend-mode:multiply">
<path fill-rule="evenodd" clip-rule="evenodd" d="M13.7989 17.381C13.0131 17.381 12.2594 17.6852 11.7038 18.2266C11.1481 18.768 10.8359 19.5023 10.8359 20.268C10.8359 20.7274 11.0232 21.168 11.3566 21.4928C11.69 21.8177 12.1422 22.0002 12.6137 22.0002H19.7248C20.1963 22.0002 20.6485 21.8177 20.9819 21.4928C21.3153 21.168 21.5026 20.7274 21.5026 20.268C21.5026 19.5023 21.1904 18.768 20.6348 18.2266C20.0791 17.6852 19.3255 17.381 18.5396 17.381H13.7989Z" fill="#D63D4A"/>
<path d="M14.1844 12.1346C13.658 12.6475 13.3623 13.3431 13.3623 14.0685C13.3623 14.7939 13.658 15.4895 14.1844 16.0025C14.7109 16.5154 15.4248 16.8035 16.1693 16.8035C16.9138 16.8035 17.6277 16.5154 18.1542 16.0025C18.6806 15.4895 18.9763 14.7939 18.9763 14.0685C18.9763 13.3431 18.6806 12.6475 18.1542 12.1346C17.6277 11.6216 16.9138 11.3335 16.1693 11.3335C15.4248 11.3335 14.7109 11.6216 14.1844 12.1346Z" fill="#D63D4A"/>
</g>
</svg>
