<svg width="32" height="32" viewBox="0 0 32 32" fill="none" xmlns="http://www.w3.org/2000/svg">
<g style="mix-blend-mode:multiply">
<path fill-rule="evenodd" clip-rule="evenodd" d="M16.1668 6.95471C18.3483 6.95471 20.381 7.5929 22.0874 8.69321C22.3232 8.84518 22.6345 8.82059 22.833 8.62237L23.7596 7.69689C24.2093 7.24722 24.9382 7.24721 25.3879 7.69689L26.202 8.51104C26.6514 8.96075 26.6516 9.68975 26.202 10.1393L25.3092 11.0311C25.1074 11.2328 25.0858 11.5513 25.2451 11.7879C26.4202 13.5317 27.1061 15.633 27.1061 17.894C27.1061 23.9356 22.2084 28.8333 16.1668 28.8333C10.1252 28.8333 5.22754 23.9356 5.22754 17.894C5.22754 11.8524 10.1252 6.95471 16.1668 6.95471ZM11.5608 16.7425C10.9249 16.7425 10.4093 17.2581 10.4093 17.894C10.4093 18.53 10.9249 19.0455 11.5608 19.0455C12.1968 19.0455 12.7123 18.53 12.7123 17.894C12.7123 17.2581 12.1968 16.7425 11.5608 16.7425ZM16.1668 16.7425C15.5309 16.7425 15.0153 17.2581 15.0153 17.894C15.0153 18.53 15.5309 19.0455 16.1668 19.0455C16.8028 19.0455 17.3183 18.53 17.3183 17.894C17.3183 17.2581 16.8028 16.7425 16.1668 16.7425ZM20.7729 16.7425C20.1369 16.7425 19.6214 17.2581 19.6214 17.894C19.6214 18.53 20.1369 19.0455 20.7729 19.0455C21.4088 19.0455 21.9244 18.53 21.9244 17.894C21.9244 17.2581 21.4088 16.7425 20.7729 16.7425Z" fill="#FA967C"/>
<path d="M11.5607 16.7423C12.1966 16.7423 12.7122 17.2579 12.7122 17.8938C12.7122 18.5298 12.1966 19.0453 11.5607 19.0453C10.9247 19.0453 10.4092 18.5298 10.4092 17.8938C10.4092 17.2579 10.9247 16.7423 11.5607 16.7423Z" fill="#D63D4A"/>
<path d="M16.1667 16.7423C16.8027 16.7423 17.3182 17.2579 17.3182 17.8938C17.3182 18.5298 16.8027 19.0453 16.1667 19.0453C15.5307 19.0453 15.0152 18.5298 15.0152 17.8938C15.0152 17.2579 15.5307 16.7423 16.1667 16.7423Z" fill="#D63D4A"/>
<path d="M20.7727 16.7423C21.4087 16.7423 21.9242 17.2579 21.9242 17.8938C21.9242 18.5298 21.4087 19.0453 20.7727 19.0453C20.1368 19.0453 19.6212 18.5298 19.6212 17.8938C19.6212 17.2579 20.1368 16.7423 20.7727 16.7423Z" fill="#D63D4A"/>
<path d="M18.4697 3.5C19.1057 3.5 19.6212 4.01555 19.6212 4.65151C19.6212 5.28746 19.1057 5.80301 18.4697 5.80301H13.8637C13.2277 5.80301 12.7122 5.28746 12.7122 4.65151C12.7122 4.01555 13.2277 3.5 13.8637 3.5H18.4697Z" fill="#D63D4A"/>
</g>
</svg>
