<svg width="32" height="32" viewBox="0 0 32 32" fill="none" xmlns="http://www.w3.org/2000/svg">
<path fill-rule="evenodd" clip-rule="evenodd" d="M16.168 25.3818C16.8456 25.3818 17.212 25.7687 17.8576 26.5334L17.8932 26.5752C18.4748 27.2637 19.3516 28.3027 20.9381 28.1519C21.8843 28.0611 22.7878 27.4035 23.5437 26.6261C24.3316 25.8159 25.1017 24.7333 25.7758 23.5271C27.1151 21.1293 28.168 18.0758 28.168 15.4255V15.3438C28.168 13.0368 28.168 8.34118 23.6753 6.13595C22.0017 5.31853 20.5575 5.4257 19.2982 5.70544C18.9226 5.79345 18.549 5.89036 18.1778 5.99608C17.9679 6.05421 17.7752 6.10628 17.5997 6.1523C17.1331 6.28502 16.6522 6.35824 16.168 6.37028C15.718 6.37028 15.2538 6.2849 14.7273 6.1523C14.5495 6.1087 14.3538 6.05724 14.1404 5.9979C13.7811 5.90344 13.3934 5.79808 13.0324 5.71816C11.7838 5.44205 10.3503 5.33306 8.71043 6.13777C4.16619 8.36843 4.16797 13.0368 4.16797 15.3511V15.4237C4.16797 18.0885 5.29736 21.1529 6.66686 23.5435C7.35694 24.7496 8.1324 25.8286 8.90252 26.6315C9.28669 27.033 9.68509 27.3817 10.0853 27.6433C10.4783 27.8994 10.9247 28.1065 11.3961 28.1519C12.9826 28.3027 13.8612 27.2618 14.4428 26.5752L14.4783 26.5334C15.124 25.7705 15.4903 25.3818 16.168 25.3818Z" fill="#FA967C"/>
<path fill-rule="evenodd" clip-rule="evenodd" d="M19.9098 10.6656C19.9607 10.8011 19.9844 10.9452 19.9795 11.0898C19.9746 11.2344 19.9412 11.3767 19.8814 11.5084C19.8215 11.6401 19.7362 11.7587 19.6304 11.8575C19.5247 11.9562 19.4005 12.0332 19.265 12.0839C18.1779 12.4909 17.2335 12.7393 16.2416 12.7429C15.2461 12.7446 14.2964 12.5015 13.1987 12.0804C13.0637 12.0286 12.9403 11.9507 12.8354 11.8511C12.7305 11.7516 12.6462 11.6323 12.5874 11.5002C12.5286 11.3681 12.4963 11.2257 12.4926 11.0811C12.4888 10.9366 12.5135 10.7927 12.5653 10.6577C12.6172 10.5227 12.6951 10.3992 12.7946 10.2943C12.8942 10.1894 13.0134 10.1051 13.1455 10.0463C13.2776 9.98748 13.42 9.95526 13.5646 9.95148C13.7092 9.9477 13.8531 9.97243 13.9881 10.0243C14.9606 10.3978 15.6214 10.5423 16.2345 10.5405C16.8512 10.537 17.5136 10.389 18.4933 10.0207C18.7666 9.91857 19.0694 9.9291 19.335 10.05C19.6006 10.1709 19.8074 10.3923 19.9098 10.6656Z" fill="#D63D4A"/>
<g style="mix-blend-mode:multiply">
<path d="M29.5026 21.5C29.5026 24.4455 27.1148 26.8333 24.1693 26.8333C21.2238 26.8333 18.8359 24.4455 18.8359 21.5C18.8359 18.5544 21.2238 16.1666 24.1693 16.1666C27.1148 16.1666 29.5026 18.5544 29.5026 21.5Z" fill="white"/>
<path d="M29.5026 21.5C29.5026 24.4455 27.1148 26.8333 24.1693 26.8333C21.2238 26.8333 18.8359 24.4455 18.8359 21.5C18.8359 18.5544 21.2238 16.1666 24.1693 16.1666C27.1148 16.1666 29.5026 18.5544 29.5026 21.5Z" fill="#D63D4A"/>
</g>
<path d="M26.4555 19.5926C26.6958 19.4421 27.0166 19.4757 27.2198 19.6889C27.4228 19.9023 27.4405 20.2245 27.2784 20.4571L27.1989 20.5509L23.9945 23.5991C23.8771 23.7106 23.7202 23.7714 23.5583 23.767C23.3963 23.7626 23.2425 23.6935 23.1312 23.5756L21.001 21.3165L20.9268 21.2189C20.7776 20.9778 20.8129 20.6579 21.0271 20.4558C21.2414 20.2537 21.5634 20.2367 21.7953 20.3999L21.8891 20.4806L23.5974 22.2931L26.3578 19.6681L26.4555 19.5926Z" fill="white"/>
</svg>
