<svg width="32" height="32" viewBox="0 0 32 32" fill="none" xmlns="http://www.w3.org/2000/svg">
<path d="M2.83594 8.16667C2.83594 6.69391 3.96352 5.5 5.35446 5.5H22.9841C24.375 5.5 25.5026 6.69391 25.5026 8.16667V21.5C25.5026 22.9728 24.375 24.1667 22.9841 24.1667H5.35446C3.96352 24.1667 2.83594 22.9728 2.83594 21.5V8.16667Z" fill="#FA967C"/>
<g style="mix-blend-mode:multiply">
<path d="M20.1689 2.43323C20.7579 2.43323 21.2352 2.91068 21.2354 3.49963V5.49963H23.502C24.6064 5.49963 25.5018 6.39521 25.502 7.49963V10.8336H2.83594V7.49963C2.83611 6.39521 3.73148 5.49963 4.83594 5.49963H7.10254V3.49963C7.10272 2.91068 7.57995 2.43323 8.16895 2.43323C8.75794 2.43323 9.23518 2.91068 9.23535 3.49963V5.49963H19.1025V3.49963C19.1027 2.91068 19.58 2.43323 20.1689 2.43323Z" fill="#D63D4A"/>
</g>
<g clip-path="url(#clip0_10922_197413)">
<g style="mix-blend-mode:multiply">
<circle cx="23.8372" cy="21.5" r="5.33333" fill="white"/>
<circle cx="23.8372" cy="21.5" r="5.33333" fill="#D63D4A"/>
</g>
<path d="M26.5101 19.4591C26.7505 19.3087 27.0713 19.3423 27.2745 19.5555C27.4775 19.7689 27.4952 20.0911 27.3331 20.3237L27.2536 20.4175L24.0492 23.4656C23.9318 23.5771 23.7749 23.638 23.613 23.6336C23.451 23.6292 23.2971 23.5601 23.1859 23.4422L21.0557 21.1831L20.9815 21.0854C20.8323 20.8444 20.8676 20.5245 21.0818 20.3224C21.2961 20.1203 21.6181 20.1033 21.85 20.2664L21.9437 20.3472L23.6521 22.1597L26.4125 19.5347L26.5101 19.4591Z" fill="white"/>
</g>
<defs>
<clipPath id="clip0_10922_197413">
<path d="M18.8359 21.5C18.8359 18.5544 21.2238 16.1666 24.1693 16.1666C27.1148 16.1666 29.5026 18.5544 29.5026 21.5C29.5026 24.4455 27.1148 26.8333 24.1693 26.8333C21.2238 26.8333 18.8359 24.4455 18.8359 21.5Z" fill="white"/>
</clipPath>
</defs>
</svg>
