<svg width="32" height="32" viewBox="0 0 32 32" fill="none" xmlns="http://www.w3.org/2000/svg">
<path d="M16.1663 17.7747L10.7652 21.5L4.2379 11.3984C3.45549 10.1876 3.77646 8.5736 4.96317 7.75517L8.234 5.49996L16.1663 17.7747Z" fill="#FA967C"/>
<path d="M27.3694 7.75517C28.5561 8.57357 28.8783 10.1877 28.096 11.3984L21.5673 21.5L16.1663 17.7747L24.0986 5.49996L27.3694 7.75517Z" fill="#FA967C"/>
<path d="M16.1663 4.16663C19.8763 4.16663 22.2949 4.81553 23.4241 5.20829L20.4449 9.81897C19.2884 9.63511 17.862 9.49996 16.1663 9.49996C14.4699 9.49997 13.0431 9.63499 11.8863 9.81897L8.90718 5.20829C10.0358 4.81559 12.4549 4.16666 16.1663 4.16663Z" fill="#FA967C"/>
<path d="M24.166 20.1666C24.166 24.5849 20.5843 28.1666 16.166 28.1666C11.7477 28.1666 8.16602 24.5849 8.16602 20.1666C8.16602 15.7483 11.7477 12.1666 16.166 12.1666C20.5843 12.1666 24.166 15.7483 24.166 20.1666Z" fill="#D63D4A"/>
<path d="M17.3848 24.1666C17.9909 24.3592 18.4297 24.9264 18.4297 25.5963C18.4297 26.4247 17.7581 27.0963 16.9297 27.0963C16.2598 27.0962 15.6925 26.6566 15.5 26.0504C15.7402 26.2844 16.0679 26.4292 16.4297 26.4293C17.1661 26.4293 17.7637 25.8327 17.7637 25.0963C17.7637 24.7345 17.6187 24.4068 17.3848 24.1666ZM21.3848 20.5699C21.9908 20.7625 22.4295 21.3299 22.4297 21.9996C22.4297 22.8281 21.7581 23.4996 20.9297 23.4996C20.2599 23.4995 19.6926 23.0608 19.5 22.4547C19.7402 22.6887 20.0679 22.8335 20.4297 22.8336C21.1661 22.8336 21.7637 22.236 21.7637 21.4996C21.7636 21.1379 21.6187 20.8101 21.3848 20.5699ZM17.3848 20.1666C17.9909 20.3592 18.4297 20.9264 18.4297 21.5963C18.4297 22.4247 17.7581 23.0963 16.9297 23.0963C16.2598 23.0962 15.6925 22.6566 15.5 22.0504C15.7402 22.2844 16.0679 22.4292 16.4297 22.4293C17.1661 22.4293 17.7637 21.8327 17.7637 21.0963C17.7637 20.7345 17.6187 20.4068 17.3848 20.1666Z" fill="#EA9EA4"/>
</svg>
