<svg width="32" height="32" viewBox="0 0 32 32" fill="none" xmlns="http://www.w3.org/2000/svg">
<path d="M25.4159 4.17123C27.1302 4.84209 27.9763 6.77568 27.3054 8.49002C26.9989 9.27351 26.4282 9.87394 25.7354 10.2318C25.2401 10.4877 24.8067 10.9048 24.721 11.4556L23.566 18.8861C23.435 19.7291 22.557 20.2338 21.7626 19.923L17.4085 18.2193C16.6142 17.9085 16.312 16.942 16.7877 16.234L20.9816 9.99206C21.2924 9.52951 21.2572 8.92926 21.0674 8.40531C20.8019 7.67231 20.7906 6.84407 21.0971 6.06076C21.768 4.34638 23.7015 3.50041 25.4159 4.17123Z" fill="#D63D4A"/>
<path d="M14.7992 8.20012C18.0401 11.441 17.3448 16.0254 16.6848 16.6854C16.0248 17.3454 11.4404 18.0407 8.19951 14.7998C4.9586 11.5589 5.65392 6.97447 6.31389 6.3145C6.97385 5.65453 11.5583 4.95921 14.7992 8.20012Z" fill="#D63D4A"/>
<path d="M14.946 16.3483C15.1141 16.357 15.2459 16.2123 15.2108 16.0477C14.9741 14.9362 13.9432 11.1544 10.5059 8.70083C10.2409 8.51164 9.98734 8.92126 10.216 9.15315C12.8484 11.8233 13.714 15.2269 13.8986 16.0901C13.9247 16.2123 14.0281 16.3007 14.153 16.3072L14.946 16.3483Z" fill="white"/>
<path d="M27.2281 14.1252C28.5855 14.1252 29.7099 15.2353 29.4663 16.5706C28.8291 20.0582 26.8525 23.0774 24.0904 25.0787C23.754 25.3224 23.5419 25.7064 23.5419 26.1217V27.6448C23.5419 28.3237 22.9916 28.8739 22.3128 28.8739H10.021C9.34216 28.8739 8.79187 28.3237 8.79187 27.6448V26.1218C8.79187 25.7064 8.57968 25.3224 8.24334 25.0787C5.48117 23.0774 3.50466 20.0583 2.86739 16.5706C2.6238 15.2354 3.74713 14.1255 5.10437 14.1252H27.2281Z" fill="#FA967C"/>
</svg>
