<svg width="32" height="33" viewBox="0 0 32 33" fill="none" xmlns="http://www.w3.org/2000/svg">
<path d="M14.0213 14.0579L10.0807 6.17676C9.73384 5.48295 10.2384 4.66663 11.0141 4.66663L20.159 4.66663C20.9347 4.66663 21.4392 5.48295 21.0923 6.17676L17.1517 14.0579H14.0213Z" fill="#FA967C"/>
<path d="M27.0649 19.7971C27.0649 24.8059 22.891 28.6666 18.7171 28.6666H12.4562C8.2823 28.6666 4.1084 24.8059 4.1084 19.7971C4.1084 13.3181 9.24738 9.3623 15.5866 9.3623C21.9259 9.3623 27.0649 13.3181 27.0649 19.7971Z" fill="#FA967C"/>
<path d="M15.661 15.9076C15.8723 15.9076 16.0897 15.9668 16.2715 16.1026C16.4255 16.2177 16.5566 16.3881 16.6319 16.6323L17.6755 20.3773L18.6908 16.5194C18.752 16.2776 18.8884 16.1138 19.0599 16.0158C19.2386 15.9137 19.4624 15.8833 19.6956 15.9324C19.9386 15.9813 20.1116 16.1065 20.2142 16.2727C20.3162 16.4378 20.3523 16.6513 20.2917 16.8958L19.7582 18.7914L20.8607 18.7915C21.0808 18.7915 21.2801 18.8801 21.4244 19.0234C21.5687 19.1666 21.6579 19.3645 21.6579 19.5831C21.6579 19.8017 21.5687 19.9996 21.4244 20.1429C21.2801 20.2861 21.0808 20.3747 20.8606 20.3747L19.3124 20.3746L18.6644 22.6756C18.5959 22.9246 18.4709 23.1004 18.3221 23.221C18.1437 23.3657 17.9273 23.4323 17.7148 23.4384C17.4816 23.4388 17.2595 23.3792 17.0762 23.2424C16.9184 23.1246 16.786 22.9488 16.7104 22.6928L15.6465 18.7503L14.5435 22.6755C14.4732 22.9307 14.3415 23.1094 14.185 23.2305C13.9969 23.376 13.769 23.4389 13.5515 23.4389C13.3342 23.4389 13.1147 23.3794 12.9321 23.2423C12.7769 23.1259 12.6455 22.953 12.5703 22.7034L11.9222 20.3746L10.3128 20.3747C10.0927 20.3747 9.89339 20.2861 9.74913 20.1429C9.60486 19.9996 9.51562 19.8017 9.51562 19.5831C9.51562 19.3645 9.60486 19.1666 9.74913 19.0234C9.89339 18.8801 10.0927 18.7915 10.3128 18.7915L11.4819 18.7914L10.98 16.9863C10.9079 16.732 10.9384 16.5144 11.0336 16.342C11.1339 16.1603 11.311 16.0217 11.5541 15.9532C11.8078 15.8915 12.0434 15.8928 12.2323 15.9758C12.4129 16.0551 12.5637 16.2038 12.6418 16.4673L13.632 20.3734L14.6689 16.6717C14.7396 16.4142 14.8705 16.2349 15.027 16.1138C15.2124 15.9704 15.4379 15.9076 15.661 15.9076Z" fill="#D63D4A"/>
<path d="M9.84766 9.07798C9.84766 8.65886 10.1874 8.31909 10.6065 8.31909H20.567C20.9861 8.31909 21.3259 8.65886 21.3259 9.07798V9.64715C21.3259 10.0663 20.9861 10.406 20.567 10.406H10.6065C10.1874 10.406 9.84766 10.0663 9.84766 9.64715V9.07798Z" fill="#FA967C"/>
<path d="M9.84766 9.07798C9.84766 8.65886 10.1874 8.31909 10.6065 8.31909H20.567C20.9861 8.31909 21.3259 8.65886 21.3259 9.07798V9.64715C21.3259 10.0663 20.9861 10.406 20.567 10.406H10.6065C10.1874 10.406 9.84766 10.0663 9.84766 9.64715V9.07798Z" fill="#D63D4A"/>
</svg>
