<svg width="32" height="32" viewBox="0 0 32 32" fill="none" xmlns="http://www.w3.org/2000/svg">
<g style="mix-blend-mode:multiply">
<path d="M25.9672 6.16677L6.37137 6.16663C4.4188 6.16663 2.83594 7.70991 2.83594 9.61364V22.7195C2.83594 24.6232 4.4188 26.1665 6.37137 26.1665L25.9672 26.1666C27.9197 26.1666 29.5026 24.6233 29.5026 22.7196V9.61379C29.5026 7.71006 27.9197 6.16677 25.9672 6.16677Z" fill="#FA967C"/>
<g style="mix-blend-mode:multiply">
<path d="M6.28298 6.16675L26.0556 6.16675C27.9587 6.16675 29.5026 7.71064 29.5026 9.61377V11.4623H2.83594V9.61377C2.83594 7.71064 4.37984 6.16675 6.28298 6.16675Z" fill="#D63D4A"/>
</g>
<path d="M14.0939 8.84286C14.0939 9.40097 13.6335 9.85216 13.064 9.85216C12.4945 9.85216 12.0341 9.40097 12.0341 8.84286C12.0341 8.28475 12.4966 7.83356 13.064 7.83356C13.6313 7.83356 14.0939 8.28689 14.0939 8.84286Z" fill="#FA967C"/>
<path d="M9.83243 9.85216C10.4012 9.85216 10.8623 9.40028 10.8623 8.84286C10.8623 8.28544 10.4012 7.83356 9.83243 7.83356C9.26363 7.83356 8.80253 8.28544 8.80253 8.84286C8.80253 9.40028 9.26363 9.85216 9.83243 9.85216Z" fill="#FA967C"/>
<path d="M6.60803 9.8521C7.17683 9.8521 7.63794 9.40022 7.63794 8.8428C7.63794 8.28538 7.17683 7.8335 6.60803 7.8335C6.03923 7.8335 5.57812 8.28538 5.57812 8.8428C5.57812 9.40022 6.03923 9.8521 6.60803 9.8521Z" fill="#FA967C"/>
<path d="M16.168 23.5C13.6996 23.5 12.168 21.8064 12.168 18.8333C12.168 15.8476 13.6996 14.1666 16.168 14.1666C18.6363 14.1666 20.168 15.8602 20.168 18.8333C20.168 21.819 18.6363 23.5 16.168 23.5ZM16.168 21.5806C17.054 21.5681 17.6743 20.7652 17.6743 18.8333C17.6743 16.9516 17.054 16.086 16.168 16.086C15.2819 16.086 14.6743 16.9516 14.6616 18.8333C14.6616 20.7652 15.2819 21.5681 16.168 21.5806Z" fill="white"/>
</g>
</svg>
