<svg width="32" height="32" viewBox="0 0 32 32" fill="none" xmlns="http://www.w3.org/2000/svg">
<g style="mix-blend-mode:multiply">
<path fill-rule="evenodd" clip-rule="evenodd" d="M10.2197 4.66669C9.78465 4.66684 9.35737 4.79121 8.98114 5.02721C8.60491 5.26321 8.29311 5.60244 8.07733 6.01054L3.65929 14.363C3.44583 14.7661 3.33352 15.2224 3.3335 15.6868V21.6835C3.33352 22.0972 3.42267 22.5053 3.59389 22.8754L4.9736 25.8564C5.17853 26.2994 5.49363 26.672 5.88358 26.9325C6.27353 27.1929 6.72292 27.3309 7.18138 27.3309H8.26984C8.92444 27.3309 9.55224 27.05 10.0151 26.5499C10.478 26.0499 10.738 25.3717 10.738 24.6645H20.6107C20.6107 25.3717 20.8708 26.0499 21.3336 26.5499C21.7965 27.05 22.4243 27.3309 23.0789 27.3309H24.1674C24.6258 27.3309 25.0752 27.1929 25.4652 26.9325C25.8551 26.672 26.1702 26.2994 26.3751 25.8564L27.7548 22.8754C27.9264 22.5061 28.0152 22.0968 28.0152 21.6835V15.6868C28.0152 15.2224 27.9029 14.7661 27.6894 14.363L23.2714 6.01054C23.0556 5.60244 22.7438 5.26321 22.3676 5.02721C21.9914 4.79121 21.5641 4.66684 21.129 4.66669H10.2197Z" fill="#FA967C"/>
<g style="mix-blend-mode:multiply">
<path d="M5.87718 26.9349C5.48723 26.6745 5.17213 26.3019 4.9672 25.8589L4.27734 24.3683H27.0586L26.3687 25.8589C26.1638 26.3019 25.8487 26.6745 25.4588 26.9349C25.0688 27.1954 24.6194 27.3333 24.161 27.3334H23.0725C22.4179 27.3334 21.7901 27.0524 21.3272 26.5524C20.8644 26.0524 20.6043 25.3742 20.6043 24.667H10.7316C10.7316 25.3742 10.4716 26.0524 10.0087 26.5524C9.54584 27.0524 8.91805 27.3334 8.26345 27.3334H7.17498C6.71653 27.3333 6.26713 27.1954 5.87718 26.9349Z" fill="#D63D4A"/>
</g>
<g style="mix-blend-mode:multiply">
<path d="M7.2647 13.0061L9.53176 7.9052C9.66821 7.59819 9.97267 7.40033 10.3086 7.40033H21.2947C21.6306 7.40033 21.9351 7.59819 22.0715 7.9052L24.3386 13.0061C24.5885 13.5683 24.177 14.2015 23.5617 14.2015H8.04158C7.42636 14.2015 7.01484 13.5683 7.2647 13.0061Z" fill="#D63D4A"/>
</g>
<ellipse cx="9.56749" cy="19.4017" rx="1.7003" ry="1.7003" fill="white"/>
<circle cx="22.0367" cy="19.4017" r="1.7003" fill="white"/>
<path d="M18.707 23.2396C18.707 25.9805 22.3272 28 23.6848 28C25.0424 28 28.6626 25.9805 28.6626 23.2396C28.6626 21.7969 28.6626 20.4912 28.6626 19.578C28.6626 18.7882 28.1525 18.0898 27.4013 17.8504L24.508 16.9281C23.9724 16.7574 23.3972 16.7574 22.8616 16.9281L19.9683 17.8504C19.2172 18.0898 18.707 18.7882 18.707 19.578C18.707 20.4912 18.707 21.7969 18.707 23.2396Z" fill="#D63D4A"/>
<path d="M21.0181 21.5896L23.1478 23.8479L26.3514 20.8002" stroke="white" stroke-width="0.914286" stroke-linecap="round" stroke-linejoin="round"/>
</g>
</svg>
