<svg width="32" height="32" viewBox="0 0 32 32" fill="none" xmlns="http://www.w3.org/2000/svg">
<g style="mix-blend-mode:multiply">
<path d="M21.168 6.50502C21.168 6.18943 21.4238 5.93359 21.7394 5.93359H24.7632C25.0788 5.93359 25.3346 6.18943 25.3346 6.50502V13.4335H21.168V6.50502Z" fill="#D63D4A"/>
</g>
<path d="M5.84295 15.1516L15.7978 6.72834C16.0109 6.54806 16.323 6.54806 16.536 6.72834L26.4909 15.1516C26.6192 15.2602 26.6932 15.4198 26.6932 15.5878V26.2537C26.6932 26.8926 26.1696 27.4105 25.5236 27.4105H18.7985H13.5354H6.81021C6.16427 27.4105 5.64062 26.8926 5.64062 26.2537L5.64063 15.5878C5.64063 15.4198 5.71463 15.2602 5.84295 15.1516Z" fill="#FA967C"/>
<path d="M12.8359 20.6719C12.8359 20.3563 13.0918 20.1005 13.4074 20.1005H18.9312C19.2468 20.1005 19.5026 20.3563 19.5026 20.6719V27.4107H12.8359L12.8359 20.6719Z" fill="#FDCFC3"/>
<path fill-rule="evenodd" clip-rule="evenodd" d="M15.4198 5.37845C15.8484 5.00699 16.4849 5.00699 16.9135 5.37845L27.4398 14.5012C27.9157 14.9136 27.9672 15.6338 27.5547 16.1098C27.1422 16.5857 26.422 16.6371 25.9461 16.2247L16.1667 7.7492L6.38722 16.2247C5.91129 16.6371 5.19109 16.5857 4.77862 16.1098C4.36614 15.6338 4.41759 14.9136 4.89352 14.5012L15.4198 5.37845Z" fill="#285FA4"/>
<path fill-rule="evenodd" clip-rule="evenodd" d="M15.4198 5.37845C15.8484 5.00699 16.4849 5.00699 16.9135 5.37845L27.4398 14.5012C27.9157 14.9136 27.9672 15.6338 27.5547 16.1098C27.1422 16.5857 26.422 16.6371 25.9461 16.2247L16.1667 7.7492L6.38722 16.2247C5.91129 16.6371 5.19109 16.5857 4.77862 16.1098C4.36614 15.6338 4.41759 14.9136 4.89352 14.5012L15.4198 5.37845Z" fill="#D63D4A"/>
</svg>
