<svg width="32" height="33" viewBox="0 0 32 33" fill="none" xmlns="http://www.w3.org/2000/svg">
<path d="M17.0533 3.504L25.8681 7.02643C26.3482 7.21822 26.762 7.56164 27.0541 8.01076C27.3462 8.45989 27.5027 8.99332 27.5026 9.53976V16.7362C27.5026 18.9791 26.9166 21.1776 25.8101 23.0855C24.7036 24.9934 23.1203 26.5353 21.2378 27.5383L17.0142 29.7873C16.7519 29.9271 16.4626 29.9999 16.1693 29.9999C15.8759 29.9999 15.5866 29.9271 15.3243 29.7873L11.1008 27.537C9.21821 26.5339 7.63498 24.9921 6.52847 23.0842C5.42196 21.1763 4.83589 18.9777 4.83594 16.7349V9.5411C4.83562 8.99444 4.99197 8.46071 5.28407 8.01132C5.57617 7.56192 5.99009 7.2183 6.47046 7.02643L15.2853 3.504C15.8552 3.27633 16.4833 3.27633 17.0533 3.504Z" fill="#FA967C"/>
<path d="M7.00672 8.31431L12.359 6.08624C12.5715 5.99779 12.7631 6.34155 12.5831 6.48498C9.81361 8.69166 7.81988 11.4615 6.60193 15.7601C6.53972 15.9796 6.17136 15.9358 6.17188 15.7076L6.1858 9.54223C6.18702 9.0049 6.51065 8.52081 7.00672 8.31431Z" fill="white"/>
<g style="mix-blend-mode:multiply">
<path d="M19.9466 15.8684C20.5358 15.8684 21.1015 16.0967 21.5182 16.5025C21.9349 16.9085 22.1692 17.4596 22.1693 18.0338C22.1693 18.3783 22.0287 18.7094 21.7786 18.953C21.5286 19.1966 21.1895 19.3333 20.8359 19.3333H19.4544C19.3389 19.1776 19.2137 19.0278 19.0729 18.8905C18.4569 18.2904 17.6511 17.9252 16.7982 17.8476C17.3086 17.2994 17.6289 16.6067 17.7109 15.8684H19.9466Z" fill="#D63D4A"/>
<path d="M18.1693 11.3333C18.7274 11.3333 19.2628 11.5491 19.6576 11.9335C20.0523 12.3181 20.2746 12.8402 20.2747 13.384C20.2747 13.9281 20.0524 14.4499 19.6576 14.8346C19.2627 15.2192 18.7276 15.4361 18.1693 15.4361C18.0196 15.4361 17.872 15.4182 17.7279 15.3879C17.7037 14.6095 17.4184 13.866 16.9193 13.2721L16.6823 13.0155C16.5362 12.8732 16.3773 12.7468 16.2109 12.6327C16.316 12.3732 16.4747 12.1345 16.681 11.9335C17.0758 11.5491 17.6111 11.3333 18.1693 11.3333Z" fill="#D63D4A"/>
</g>
<g style="mix-blend-mode:multiply">
<path fill-rule="evenodd" clip-rule="evenodd" d="M12.0926 18.6248C11.405 18.6248 10.7456 18.891 10.2594 19.3647C9.77315 19.8385 9.5 20.481 9.5 21.1509C9.5 21.5529 9.66389 21.9384 9.95561 22.2227C10.2473 22.5069 10.643 22.6666 11.0556 22.6666H17.2778C17.6903 22.6666 18.086 22.5069 18.3777 22.2227C18.6694 21.9384 18.8333 21.5529 18.8333 21.1509C18.8333 20.481 18.5602 19.8385 18.074 19.3647C17.5878 18.891 16.9283 18.6248 16.2407 18.6248H12.0926Z" fill="#D63D4A"/>
<path d="M12.4299 14.0342C11.9693 14.483 11.7106 15.0917 11.7106 15.7264C11.7106 16.3611 11.9693 16.9698 12.4299 17.4186C12.8906 17.8674 13.5153 18.1195 14.1667 18.1195C14.8181 18.1195 15.4428 17.8674 15.9034 17.4186C16.3641 16.9698 16.6228 16.3611 16.6228 15.7264C16.6228 15.0917 16.3641 14.483 15.9034 14.0342C15.4428 13.5854 14.8181 13.3333 14.1667 13.3333C13.5153 13.3333 12.8906 13.5854 12.4299 14.0342Z" fill="#D63D4A"/>
</g>
</svg>
