<svg width="32" height="32" viewBox="0 0 32 32" fill="none" xmlns="http://www.w3.org/2000/svg">
<path d="M8 14.6667C8 10.2484 11.5817 6.66669 16 6.66669C20.4183 6.66669 24 10.2484 24 14.6667V28H8V14.6667Z" fill="#FA967C"/>
<g style="mix-blend-mode:multiply">
<path d="M21.3332 14.6666C21.3332 17.6122 18.9454 20 15.9998 20C13.0543 20 10.6665 17.6122 10.6665 14.6666C10.6665 11.7211 13.0543 9.33331 15.9998 9.33331C18.9454 9.33331 21.3332 11.7211 21.3332 14.6666Z" fill="#D63D4A"/>
</g>
<path d="M17.778 14.1338L17.8856 14.1442C18.1286 14.194 18.311 14.4091 18.311 14.6668C18.311 14.9245 18.1286 15.1396 17.8856 15.1893L17.778 15.1998H14.2224C13.9279 15.1998 13.6895 14.9613 13.6895 14.6668C13.6895 14.3722 13.9279 14.1338 14.2224 14.1338H17.778Z" fill="white"/>
<path d="M16.5328 16.4443L16.5224 16.552C16.4726 16.7949 16.2575 16.9773 15.9998 16.9773C15.7421 16.9773 15.527 16.7949 15.4772 16.552L15.4668 16.4443L15.4668 12.8888C15.4668 12.5942 15.7052 12.3558 15.9998 12.3558C16.2943 12.3558 16.5328 12.5942 16.5328 12.8888L16.5328 16.4443Z" fill="white"/>
<g style="mix-blend-mode:multiply">
<path d="M5.3335 26C5.3335 24.8954 6.22893 24 7.3335 24H24.6668C25.7714 24 26.6668 24.8954 26.6668 26C26.6668 27.1046 25.7714 28 24.6668 28H7.3335C6.22893 28 5.3335 27.1046 5.3335 26Z" fill="#D63D4A"/>
</g>
<path d="M17.0664 5.19989L17.0612 5.30927C17.0064 5.84699 16.5522 6.2663 16 6.2663C15.4478 6.2663 14.9936 5.84699 14.9388 5.30927L14.9336 5.19989L14.9336 3.19989C14.9336 2.61079 15.4109 2.13348 16 2.13348C16.5891 2.13348 17.0664 2.61079 17.0664 3.19989L17.0664 5.19989Z" fill="#D63D4A"/>
<path d="M9.00966 7.5016L9.08332 7.58262C9.42482 8.00157 9.40011 8.61927 9.00966 9.00972C8.61921 9.40017 8.00151 9.42488 7.58256 9.08338L7.50154 9.00972L6.08732 7.59551C5.67076 7.17895 5.67076 6.50394 6.08732 6.08738C6.50388 5.67082 7.17889 5.67082 7.59545 6.08738L9.00966 7.5016Z" fill="#D63D4A"/>
<path d="M23.1651 7.5016L23.0914 7.58262C22.7499 8.00157 22.7746 8.61927 23.1651 9.00972C23.5555 9.40017 24.1732 9.42488 24.5922 9.08338L24.6732 9.00972L26.0874 7.59551C26.504 7.17895 26.504 6.50394 26.0874 6.08738C25.6709 5.67082 24.9959 5.67082 24.5793 6.08738L23.1651 7.5016Z" fill="#D63D4A"/>
</svg>
