<svg width="32" height="33" viewBox="0 0 32 33" fill="none" xmlns="http://www.w3.org/2000/svg">
<rect x="4.16602" y="9.99915" width="24" height="16" rx="2.31882" fill="#FA967C"/>
<rect x="11.3652" y="13.2001" width="9.6" height="9.6" rx="4.8" fill="#D63D4A"/>
<path d="M16.165 15.1991C16.5516 15.1991 16.8652 15.5127 16.8652 15.8993V17.2987H18.2656C18.6522 17.2987 18.9657 17.6124 18.9658 17.9989C18.9658 18.3855 18.6522 18.6991 18.2656 18.6991H16.8652V20.0995C16.8652 20.486 16.5516 20.7997 16.165 20.7997C15.7787 20.7994 15.4659 20.4859 15.4658 20.0995V18.6991H14.0654C13.6789 18.699 13.3652 18.3854 13.3652 17.9989C13.3654 17.6125 13.679 17.2988 14.0654 17.2987H15.4658V15.8993C15.4659 15.5129 15.7787 15.1994 16.165 15.1991Z" fill="white"/>
<path d="M21.3652 5.99939C22.028 5.99939 22.5654 6.53687 22.5654 7.19958V9.99939H20.165V8.23474C20.1649 7.88408 19.881 7.60006 19.5303 7.59998H12.8008C12.45 7.59998 12.1652 7.88403 12.165 8.23474V9.99939H9.76562V7.19958C9.76565 6.537 10.3023 5.9996 10.9648 5.99939H21.3652Z" fill="#D63D4A"/>
<path d="M6.83203 26.0005H9.4987V26.4868C9.4987 26.9546 9.11946 27.3338 8.65164 27.3338H7.67909C7.21127 27.3338 6.83203 26.9546 6.83203 26.4868V26.0005Z" fill="#D63D4A"/>
<path d="M22.832 26.0005H25.4987V26.4868C25.4987 26.9546 25.1195 27.3338 24.6516 27.3338H23.6791C23.2113 27.3338 22.832 26.9546 22.832 26.4868V26.0005Z" fill="#D63D4A"/>
</svg>
