<svg width="32" height="33" viewBox="0 0 32 33" fill="none" xmlns="http://www.w3.org/2000/svg">
<path d="M15.4241 28.6666H8.16838C7.10751 28.6666 6.08999 28.2449 5.33984 27.4948C4.5897 26.7446 4.16797 25.7271 4.16797 24.6662C4.16808 22.8983 4.87058 21.2029 6.12068 19.9528C7.14206 18.9314 8.46057 18.275 9.87315 18.0692L15.4241 28.6666Z" fill="#FA967C"/>
<path d="M20.589 24.8772C21.9843 24.8772 23.1153 26.0082 23.1153 27.4035C23.1153 27.8641 22.9902 28.2948 22.7749 28.6666H16.8514L14.8666 24.8772H20.589Z" fill="#FA967C"/>
<path d="M21.5019 18.0001C23.2698 18.0002 24.9651 18.7027 26.2153 19.9528C27.4654 21.2029 28.1679 22.8983 28.168 24.6662C28.168 25.7271 27.7462 26.7446 26.9961 27.4948C26.2459 28.2449 25.2284 28.6666 24.1676 28.6666H24.1589C24.2988 28.2712 24.3785 27.8468 24.3785 27.4035C24.3785 25.3106 22.6819 23.614 20.589 23.614H14.2054L11.2646 18.0001H21.5019Z" fill="#FA967C"/>
<path d="M16.168 4.66663C17.5823 4.66663 18.9388 5.22832 19.9389 6.2283C20.9391 7.2285 21.5019 8.58602 21.5019 10.0005C21.5017 11.4148 20.939 12.7714 19.9389 13.7715C18.9388 14.7715 17.5823 15.3332 16.168 15.3332C14.7536 15.3332 13.3972 14.7715 12.397 13.7715C11.3969 12.7714 10.8342 11.4148 10.8341 10.0005C10.8341 8.58602 11.3968 7.2285 12.397 6.2283C13.3972 5.22832 14.7536 4.66663 16.168 4.66663Z" fill="#FA967C"/>
<path d="M15.4241 28.6668H8.16838C7.10751 28.6668 6.08999 28.2451 5.33984 27.4949C4.5897 26.7448 4.16797 25.7272 4.16797 24.6664C4.16808 22.8984 4.87058 21.2031 6.12068 19.953C7.14206 18.9316 8.46057 18.2752 9.87315 18.0693L15.4241 28.6668Z" fill="#D63D4A"/>
<path d="M20.589 24.8773C21.9843 24.8773 23.1153 26.0084 23.1153 27.4036C23.1153 27.8642 22.9902 28.295 22.7749 28.6668H16.8514L14.8666 24.8773H20.589Z" fill="#D63D4A"/>
</svg>
