<svg width="32" height="32" viewBox="0 0 32 32" fill="none" xmlns="http://www.w3.org/2000/svg">
<g style="mix-blend-mode:multiply">
<path fill-rule="evenodd" clip-rule="evenodd" d="M6.39971 4C5.73697 4 5.19971 4.53726 5.19971 5.2C5.19971 5.86274 5.73697 6.4 6.39971 6.4H6.99971C7.33108 6.4 7.59971 6.66863 7.59971 7V7.6C7.59971 11.0788 9.71445 14.0637 12.7285 15.3392C13.2344 15.5533 13.5997 16.0288 13.5997 16.5781C13.5997 17.1367 13.2228 17.6182 12.7032 17.8229C9.70798 19.0025 7.49791 21.742 7.07369 25.0407C7.03337 25.3541 6.77366 25.6 6.45758 25.6H6.39971C5.73697 25.6 5.19971 26.1373 5.19971 26.8C5.19971 27.4627 5.73697 28 6.39971 28H25.5997C26.2625 28 26.7997 27.4627 26.7997 26.8C26.7997 26.1373 26.2625 25.6 25.5997 25.6H25.5418C25.2258 25.6 24.966 25.3541 24.9257 25.0407C24.5015 21.742 22.2914 19.0025 19.2963 17.8229C18.7766 17.6182 18.3997 17.1367 18.3997 16.5781C18.3997 16.0288 18.765 15.5533 19.2709 15.3392C22.285 14.0637 24.3997 11.0788 24.3997 7.6V7C24.3997 6.66863 24.6683 6.4 24.9997 6.4H25.5997C26.2625 6.4 26.7997 5.86274 26.7997 5.2C26.7997 4.53726 26.2625 4 25.5997 4H6.39971ZM14.2896 20.9011C14.7788 20.6967 15.0097 20.1344 14.8053 19.6452C14.601 19.156 14.0387 18.9251 13.5495 19.1295C12.2843 19.658 11.2279 20.5824 10.5334 21.7475C10.2619 22.2029 10.411 22.7922 10.8664 23.0636C11.3218 23.3351 11.9111 23.186 12.1826 22.7306C12.6683 21.9157 13.4076 21.2696 14.2896 20.9011Z" fill="#FA967C"/>
<path d="M25.5997 25.6C26.2625 25.6 26.7997 26.1373 26.7997 26.8C26.7997 27.4627 26.2625 28 25.5997 28H6.39971C5.73697 28 5.19971 27.4627 5.19971 26.8C5.19971 26.1373 5.73697 25.6 6.39971 25.6H25.5997Z" fill="#D63D4A"/>
<path d="M25.5997 4C26.2625 4 26.7997 4.53726 26.7997 5.2C26.7997 5.86274 26.2625 6.4 25.5997 6.4H6.39971C5.73697 6.4 5.19971 5.86274 5.19971 5.2C5.19971 4.53726 5.73697 4 6.39971 4H25.5997Z" fill="#D63D4A"/>
</g>
</svg>
