<svg width="32" height="33" viewBox="0 0 32 33" fill="none" xmlns="http://www.w3.org/2000/svg">
<g style="mix-blend-mode:multiply">
<path d="M6.16797 7.3407C6.16797 5.86385 7.36188 4.66663 8.83464 4.66663H22.168C23.6407 4.66663 24.8346 5.86385 24.8346 7.3407V27.3259C24.8346 28.8027 23.6407 30 22.168 30H8.83464C7.36188 30 6.16797 28.8027 6.16797 27.3259V7.3407Z" fill="#FA967C"/>
<g style="mix-blend-mode:multiply">
<path d="M6.16797 24.1334H24.8346V27.6534C24.8346 28.9495 23.6407 30.0001 22.168 30.0001H8.83464C7.36188 30.0001 6.16797 28.9495 6.16797 27.6534V24.1334Z" fill="#D63D4A"/>
</g>
<path d="M15.5013 28.4001C16.2377 28.4001 16.8346 27.8031 16.8346 27.0667C16.8346 26.3304 16.2377 25.7334 15.5013 25.7334C14.7649 25.7334 14.168 26.3304 14.168 27.0667C14.168 27.8031 14.7649 28.4001 15.5013 28.4001Z" fill="#FA967C"/>
<path fill-rule="evenodd" clip-rule="evenodd" d="M8.83594 9.06667C8.83594 8.47756 9.3135 8 9.9026 8H19.2359C19.825 8 20.3026 8.47756 20.3026 9.06667C20.3026 9.65577 19.825 10.1333 19.2359 10.1333H9.9026C9.3135 10.1333 8.83594 9.65577 8.83594 9.06667ZM8.83594 13.5999C8.83594 13.0108 9.3135 12.5332 9.9026 12.5332H16.1047C16.6938 12.5332 17.1714 13.0108 17.1714 13.5999C17.1714 14.189 16.6938 14.6665 16.1047 14.6665H9.9026C9.3135 14.6665 8.83594 14.189 8.83594 13.5999Z" fill="#D63D4A"/>
<path d="M14.8348 17.3333C15.144 17.3333 15.3788 17.4856 15.521 17.6067C15.6691 17.7328 15.7931 17.8904 15.8947 18.0364C16.0977 18.3284 16.2928 18.7021 16.4611 19.0273C16.6221 19.3383 16.7631 19.6072 16.8908 19.815C16.904 19.7961 16.9196 19.7761 16.9351 19.7538C17.0197 19.6313 17.1543 19.434 17.3283 19.2747C17.5187 19.1004 17.7975 18.9335 18.1681 18.9335L18.3035 18.9413C18.6077 18.9759 18.8416 19.1228 19.008 19.276C19.1815 19.4357 19.3149 19.6346 19.3986 19.7564C19.4764 19.8697 19.5261 19.9356 19.564 19.9804C19.6091 19.9659 19.6795 19.9414 19.7775 19.8958C19.9575 19.8119 20.1637 19.6939 20.366 19.5676C20.5662 19.4427 20.7514 19.3166 20.8869 19.2213C20.954 19.174 21.0086 19.1351 21.0457 19.108C21.0643 19.0944 21.0794 19.0836 21.0887 19.0767C21.093 19.0736 21.0957 19.0705 21.0978 19.0689L21.1004 19.0676L21.2163 18.9973C21.4964 18.8644 21.8403 18.9418 22.034 19.1991C22.2277 19.4567 22.207 19.8093 22.0015 20.0416L21.9025 20.1327H21.9012L21.8999 20.134C21.8989 20.1347 21.8975 20.1355 21.896 20.1366C21.8928 20.139 21.8887 20.1428 21.883 20.1471C21.8712 20.1558 21.8535 20.1679 21.8322 20.1835C21.7895 20.2147 21.7284 20.2586 21.6538 20.3111C21.5051 20.4158 21.2989 20.5574 21.0718 20.6991C20.847 20.8394 20.5892 20.9881 20.34 21.1041C20.1169 21.2079 19.8044 21.3333 19.5015 21.3333C19.1255 21.3333 18.8507 21.1525 18.672 20.9804C18.5092 20.8235 18.379 20.6258 18.2996 20.5103C18.2425 20.4271 18.2 20.37 18.1668 20.328C18.1331 20.3702 18.0905 20.428 18.0327 20.5116C17.9534 20.6265 17.8228 20.8232 17.6616 20.9791C17.4853 21.1495 17.2114 21.3333 16.8348 21.3333C16.5062 21.3333 16.2718 21.1494 16.1525 21.0364C16.0196 20.9104 15.9075 20.7551 15.8153 20.6132C15.6305 20.3287 15.4427 19.9583 15.2775 19.6392C15.1008 19.298 14.9442 19.0047 14.7996 18.7968L14.7983 18.7955C14.7812 18.8138 14.7628 18.8336 14.7436 18.8554C14.5598 19.0656 14.3527 19.3639 14.1512 19.6861C13.9525 20.0039 13.7711 20.3249 13.6395 20.5676C13.574 20.6884 13.522 20.7895 13.4858 20.8593C13.4679 20.8939 13.4534 20.9206 13.4442 20.9387C13.4396 20.9478 13.436 20.9552 13.4338 20.9596C13.4328 20.9614 13.4316 20.9625 13.4311 20.9635V20.9648C13.2664 21.2939 12.8658 21.4275 12.5366 21.2629C12.2074 21.0982 12.0738 20.6976 12.2384 20.3684L12.2397 20.3671V20.3658L12.2554 20.3346C12.266 20.3136 12.2812 20.2827 12.3009 20.2447C12.3403 20.1687 12.3977 20.0612 12.4676 19.9322C12.607 19.6751 12.8017 19.3291 13.0197 18.9804C13.2349 18.6362 13.4864 18.2674 13.7397 17.9778C13.8656 17.8338 14.0094 17.6891 14.1655 17.5754C14.3077 17.4719 14.5421 17.3333 14.8348 17.3333Z" fill="white"/>
<g style="mix-blend-mode:multiply">
<path d="M28.6587 9.06508C28.8933 8.83037 28.8933 8.4463 28.6587 8.22225L27.2728 6.83533C27.1613 6.72714 27.0122 6.66663 26.857 6.66663C26.7017 6.66663 26.5526 6.72714 26.4412 6.83533L25.3537 7.92353L27.5713 10.1426M18.3143 14.9678C18.2206 15.0615 18.168 15.1887 18.168 15.3212V17.0333C18.168 17.199 18.3023 17.3333 18.468 17.3333H20.1783C20.311 17.3333 20.4382 17.2806 20.532 17.1867L26.9422 10.7721L24.7247 8.55298L18.3143 14.9678Z" fill="#D63D4A"/>
</g>
</g>
</svg>
