<svg width="32" height="32" viewBox="0 0 32 32" fill="none" xmlns="http://www.w3.org/2000/svg">
<path d="M16.7207 2.31246C17.2236 2.11902 17.7774 2.11897 18.2803 2.31246L26.0576 5.3066C26.4812 5.46959 26.8468 5.7609 27.1045 6.14254C27.3622 6.52426 27.5 6.97791 27.5 7.44234V13.5595C27.5 15.4658 26.9831 17.3344 26.0068 18.956C25.8154 19.274 25.6064 19.5791 25.3838 19.872C25.4415 19.4605 25.48 19.0454 25.4941 18.6279L25.5 18.2255V12.1093C25.5001 11.3816 25.2845 10.6674 24.877 10.0634C24.5199 9.53459 24.0291 9.10965 23.4551 8.8359L23.2031 8.7275L15.4258 5.73434C14.7164 5.46142 13.9424 5.42722 13.2168 5.6318L12.9082 5.73434L7.5 7.81539V7.44332C7.49977 6.97886 7.63794 6.52537 7.89551 6.14351C8.15318 5.76162 8.51866 5.46972 8.94238 5.3066L16.7207 2.31246Z" fill="#D63D4A"/>
<path d="M14.948 6.97851L22.7257 9.97257C23.1494 10.1356 23.5145 10.4275 23.7722 10.8093C24.03 11.191 24.168 11.6444 24.168 12.1089V18.2259C24.168 20.1323 23.6509 22.0011 22.6746 23.6228C21.6982 25.2445 20.3013 26.5551 18.6402 27.4077L14.9135 29.3193C14.682 29.4382 14.4268 29.5 14.168 29.5C13.9092 29.5 13.6539 29.4382 13.4224 29.3193L9.69575 27.4065C8.03468 26.5539 6.63771 25.2434 5.66138 23.6217C4.68505 21.9999 4.16793 20.1312 4.16797 18.2248V12.11C4.16769 11.6454 4.30564 11.1917 4.56338 10.8097C4.82111 10.4277 5.18634 10.1357 5.61019 9.97257L13.388 6.97851C13.8909 6.78499 14.4451 6.78499 14.948 6.97851Z" fill="#FA967C"/>
<path fill-rule="evenodd" clip-rule="evenodd" d="M18.2185 13.7757C18.6554 14.1709 18.6891 14.8455 18.2938 15.2823L14.0716 19.949C13.8702 20.1716 13.5843 20.299 13.2841 20.3C12.9839 20.301 12.6972 20.1754 12.4944 19.9541L10.0499 17.2874C9.65183 16.8532 9.68117 16.1784 10.1154 15.7804C10.5497 15.3823 11.2244 15.4116 11.6225 15.8459L13.2755 17.6492L16.7119 13.851C17.1071 13.4142 17.7817 13.3805 18.2185 13.7757Z" fill="#D63D4A"/>
<path d="M6.08428 11.3025L10.8069 9.40868C10.9944 9.33349 11.1635 9.62569 11.0046 9.7476C8.56095 11.6233 6.80178 13.9776 5.72712 17.6314C5.67222 17.8181 5.3472 17.7808 5.34766 17.5868L5.35995 12.3463C5.36102 11.8895 5.64658 11.4781 6.08428 11.3025Z" fill="white"/>
</svg>
