<svg width="32" height="32" viewBox="0 0 32 32" fill="none" xmlns="http://www.w3.org/2000/svg">
<g clip-path="url(#clip0_87_1258)">
<path d="M20 13.697C20 12.5924 20.8954 11.697 22 11.697H28.6667C29.7712 11.697 30.6667 12.5924 30.6667 13.697V26.6667C30.6667 27.7712 29.7712 28.6667 28.6667 28.6667H22C20.8954 28.6667 20 27.7712 20 26.6667V13.697Z" fill="#D63D4A"/>
<rect x="4" y="3.33331" width="20" height="25.3333" rx="2" fill="#FA967C"/>
<path d="M17.667 22C18.2191 22.0002 18.667 22.4478 18.667 23V28.667H9.33301V23C9.33301 22.4478 9.78087 22.0002 10.333 22H17.667ZM18.333 14.667C18.8853 14.667 19.333 15.1147 19.333 15.667V16.333C19.333 16.8853 18.8853 17.333 18.333 17.333H9.66699C9.11471 17.333 8.66699 16.8853 8.66699 16.333V15.667C8.66699 15.1147 9.11471 14.667 9.66699 14.667H18.333ZM18.333 9.33301C18.8852 9.33301 19.3328 9.78087 19.333 10.333V11C19.333 11.5523 18.8853 12 18.333 12H9.66699C9.11471 12 8.66699 11.5523 8.66699 11V10.333C8.66717 9.78087 9.11482 9.33301 9.66699 9.33301H18.333Z" fill="#D63D4A"/>
</g>
<defs>
<clipPath id="clip0_87_1258">
<rect width="32" height="32" fill="white"/>
</clipPath>
</defs>
</svg>
