<svg width="32" height="32" viewBox="0 0 32 32" fill="none" xmlns="http://www.w3.org/2000/svg">
<path d="M21.4978 5.06665C20.3722 5.08334 19.2711 5.38283 18.3058 5.93488C17.3405 6.48692 16.5451 7.72812 16 8.66691C15.4549 7.72812 14.6595 6.48692 13.6942 5.93488C12.7289 5.38283 11.6278 5.08334 10.5022 5.06665C8.70788 5.14096 7.01733 5.88913 5.7999 7.14771C4.58247 8.40629 3.93712 10.073 4.00484 11.7836C4.00484 18.2386 14.9564 26.3506 15.4222 26.6669L16 27.0566L16.5778 26.6669C17.0436 26.3525 27.9952 18.2386 27.9952 11.7836C28.0629 10.073 27.4175 8.40629 26.2001 7.14771C24.9827 5.88913 23.2921 5.14096 21.4978 5.06665Z" fill="#FA967C"/>
<path d="M15.9999 27.0566L15.4221 26.667C15.0085 26.3861 6.32478 19.9568 4.38623 14H27.6136C25.6751 19.9571 16.9914 26.3877 16.5777 26.667L15.9999 27.0566Z" fill="#D63D4A"/>
</svg>
