<svg width="32" height="33" viewBox="0 0 32 33" fill="none" xmlns="http://www.w3.org/2000/svg">
<g style="mix-blend-mode:multiply">
<path d="M6.83398 7.3407C6.83398 5.86385 8.02789 4.66663 9.50065 4.66663H22.834C24.3067 4.66663 25.5007 5.86385 25.5007 7.3407V27.3259C25.5007 28.8027 24.3067 30 22.834 30H9.50065C8.02789 30 6.83398 28.8027 6.83398 27.3259V7.3407Z" fill="#FA967C"/>
<g style="mix-blend-mode:multiply">
<path fill-rule="evenodd" clip-rule="evenodd" d="M25.5007 27.6536C25.5006 28.9495 24.3067 29.9999 22.834 29.9999H9.50065C8.02794 29.9999 6.83407 28.9495 6.83398 27.6536V24.134H25.5007V27.6536ZM16.1673 25.733C15.4311 25.733 14.8342 26.3301 14.834 27.0663C14.834 27.8027 15.4309 28.3997 16.1673 28.3997C16.9037 28.3997 17.5007 27.8027 17.5007 27.0663C17.5005 26.3301 16.9036 25.733 16.1673 25.733Z" fill="#D63D4A"/>
<path d="M17.7493 9.63274C18.1322 9.23346 18.7533 9.23338 19.1361 9.63274C19.5188 10.0324 19.5184 10.6807 19.1361 11.0807L16.9082 13.4075H18.4434C18.8395 13.4078 19.1966 13.6581 19.3483 14.0403C19.5 14.4228 19.4162 14.8633 19.1361 15.1562L13.9342 20.5885C13.5514 20.9883 12.9304 20.9883 12.5475 20.5885C12.1648 20.1886 12.1647 19.5404 12.5475 19.1405L16.0762 15.4557H14.541C14.1445 15.4556 13.7866 15.2066 13.6348 14.8241C13.4832 14.4418 13.567 14.001 13.847 13.7083L17.7493 9.63274Z" fill="#D63D4A"/>
</g>
</g>
</svg>
