<svg width="32" height="33" viewBox="0 0 32 33" fill="none" xmlns="http://www.w3.org/2000/svg">
<rect x="4.16797" y="4.66663" width="24" height="8" rx="2" fill="#D63D4A"/>
<path d="M6.83594 8.66663H25.5026V26.6666C25.5026 27.7712 24.6072 28.6666 23.5026 28.6666H8.83594C7.73137 28.6666 6.83594 27.7712 6.83594 26.6666V8.66663Z" fill="#FA967C"/>
<g style="mix-blend-mode:multiply">
<path d="M16.1667 12.9336L16.276 12.9388C16.8138 12.9936 17.2331 13.4478 17.2331 14C17.2331 14.5522 16.8138 15.0064 16.276 15.0612L16.1667 15.0664H9.5C8.9109 15.0664 8.43359 14.5891 8.43359 14C8.43359 13.4109 8.9109 12.9336 9.5 12.9336H16.1667Z" fill="#D63D4A"/>
</g>
<g style="mix-blend-mode:multiply">
<path d="M18.8333 17.4668L18.9427 17.472C19.4804 17.5268 19.8997 17.981 19.8997 18.5332C19.8997 19.0854 19.4804 19.5396 18.9427 19.5944L18.8333 19.5996H9.5C8.9109 19.5996 8.43359 19.1223 8.43359 18.5332C8.43359 17.9441 8.9109 17.4668 9.5 17.4668H18.8333Z" fill="#D63D4A"/>
</g>
</svg>
