<svg width="32" height="32" viewBox="0 0 32 32" fill="none" xmlns="http://www.w3.org/2000/svg">
<rect x="6.6665" y="5.33331" width="18.6667" height="22.6667" rx="2" fill="#FA967C"/>
<g style="mix-blend-mode:multiply">
<ellipse cx="15.9998" cy="17.3333" rx="5.33333" ry="5.33333" fill="#D63D4A"/>
</g>
<path d="M16.0439 14.667C16.4091 14.667 16.7051 14.963 16.7051 15.3281V16.6494H18.0273C18.3924 16.6494 18.6883 16.9456 18.6885 17.3105C18.6885 17.6757 18.3925 17.9717 18.0273 17.9717H16.7051V19.2949C16.7049 19.6599 16.4089 19.9561 16.0439 19.9561C15.6792 19.9558 15.383 19.6597 15.3828 19.2949V17.9717H14.0615C13.6964 17.9717 13.4004 17.6757 13.4004 17.3105C13.4006 16.9456 13.6965 16.6494 14.0615 16.6494H15.3828V15.3281C15.3828 14.9632 15.679 14.6672 16.0439 14.667Z" fill="white"/>
<g style="mix-blend-mode:multiply">
<rect x="12" y="4" width="8" height="2.66667" rx="1" fill="#D63D4A"/>
</g>
</svg>
