<svg width="32" height="32" viewBox="0 0 32 32" fill="none" xmlns="http://www.w3.org/2000/svg">
<g style="mix-blend-mode:multiply">
<path d="M6.6665 6.67407C6.6665 5.19722 7.86041 4 9.33317 4H22.6665C24.1393 4 25.3332 5.19722 25.3332 6.67407V26.6593C25.3332 28.1361 24.1393 29.3333 22.6665 29.3333H9.33317C7.86041 29.3333 6.6665 28.1361 6.6665 26.6593V6.67407Z" fill="#FA967C"/>
<g style="mix-blend-mode:multiply">
<path fill-rule="evenodd" clip-rule="evenodd" d="M25.3332 26.9869C25.3331 28.2829 24.1392 29.3333 22.6665 29.3333H9.33317C7.86046 29.3333 6.66659 28.2829 6.6665 26.9869V23.4674H25.3332V26.9869ZM15.9998 25.0664C15.2636 25.0664 14.6667 25.6635 14.6665 26.3997C14.6665 27.1361 15.2635 27.733 15.9998 27.733C16.7362 27.733 17.3332 27.1361 17.3332 26.3997C17.333 25.6635 16.7361 25.0664 15.9998 25.0664Z" fill="#D63D4A"/>
<path d="M17.5819 8.96611C17.9647 8.56684 18.5858 8.56676 18.9686 8.96611C19.3513 9.36578 19.3509 10.0141 18.9686 10.414L16.7407 12.7409H18.2759C18.672 12.7412 19.0291 12.9915 19.1808 13.3737C19.3325 13.7561 19.2487 14.1967 18.9686 14.4895L13.7668 19.9218C13.3839 20.3217 12.7629 20.3217 12.38 19.9218C11.9973 19.522 11.9972 18.8737 12.38 18.4739L15.9087 14.789H14.3735C13.977 14.789 13.6191 14.54 13.4673 14.1575C13.3158 13.7752 13.3995 13.3344 13.6795 13.0416L17.5819 8.96611Z" fill="#D63D4A"/>
</g>
</g>
</svg>
