<svg width="32" height="32" viewBox="0 0 32 32" fill="none" xmlns="http://www.w3.org/2000/svg">
<path fill-rule="evenodd" clip-rule="evenodd" d="M10.5449 4.66669C10.1098 4.66684 9.68256 4.79121 9.30633 5.02721C8.93011 5.26321 8.61831 5.60244 8.40252 6.01054L3.98449 14.363C3.77102 14.7661 3.65872 15.2224 3.65869 15.6868V21.6835C3.65872 22.0972 3.74787 22.5053 3.91908 22.8754L5.29879 25.8564C5.50372 26.2994 5.81882 26.672 6.20878 26.9325C6.59873 27.1929 7.04812 27.3309 7.50657 27.3309H8.59504C9.24964 27.3309 9.87743 27.05 10.3403 26.5499C10.8032 26.0499 11.0632 25.3717 11.0632 24.6645H20.9359C20.9359 25.3717 21.1959 26.0499 21.6588 26.5499C22.1217 27.05 22.7495 27.3309 23.4041 27.3309H24.4925C24.951 27.3309 25.4004 27.1929 25.7903 26.9325C26.1803 26.672 26.4954 26.2994 26.7003 25.8564L28.08 22.8754C28.2516 22.5061 28.3404 22.0968 28.3404 21.6835V15.6868C28.3404 15.2224 28.2281 14.7661 28.0146 14.363L23.5966 6.01054C23.3808 5.60244 23.069 5.26321 22.6928 5.02721C22.3166 4.79121 21.8893 4.66684 21.4542 4.66669H10.5449Z" fill="#FA967C"/>
<g style="mix-blend-mode:multiply">
<path d="M6.20238 26.9349C5.81242 26.6745 5.49732 26.3019 5.29239 25.8589L4.60254 24.3683H27.3838L26.6939 25.8589C26.489 26.3019 26.1739 26.6745 25.7839 26.9349C25.394 27.1954 24.9446 27.3333 24.4861 27.3334H23.3977C22.7431 27.3334 22.1153 27.0524 21.6524 26.5524C21.1895 26.0524 20.9295 25.3742 20.9295 24.667H11.0568C11.0568 25.3742 10.7968 26.0524 10.3339 26.5524C9.87103 27.0524 9.24324 27.3334 8.58864 27.3334H7.50018C7.04172 27.3333 6.59233 27.1954 6.20238 26.9349Z" fill="#D63D4A"/>
</g>
<g style="mix-blend-mode:multiply">
<path d="M7.58989 13.006L9.85696 7.90514C9.99341 7.59813 10.2979 7.40027 10.6338 7.40027H21.6199C21.9558 7.40027 22.2603 7.59813 22.3967 7.90514L24.6638 13.006C24.9137 13.5682 24.5021 14.2015 23.8869 14.2015H8.36677C7.75155 14.2015 7.34003 13.5682 7.58989 13.006Z" fill="#D63D4A"/>
</g>
<ellipse cx="9.89268" cy="19.4016" rx="1.7003" ry="1.7003" fill="white"/>
<ellipse cx="22.3619" cy="19.4016" rx="1.7003" ry="1.7003" fill="white"/>
</svg>
