<svg width="32" height="32" viewBox="0 0 32 32" fill="none" xmlns="http://www.w3.org/2000/svg">
<path d="M16.8838 2.83744L25.6987 6.35986C26.1788 6.55166 26.5926 6.89507 26.8847 7.3442C27.1768 7.79332 27.3332 8.32676 27.3332 8.87319V16.0697C27.3332 18.3125 26.7471 20.5111 25.6406 22.419C24.5341 24.3268 22.9509 25.8687 21.0684 26.8718L16.8448 29.1207C16.5825 29.2606 16.2932 29.3334 15.9998 29.3334C15.7065 29.3334 15.4172 29.2606 15.1549 29.1207L10.9313 26.8704C9.04878 25.8674 7.46554 24.3255 6.35904 22.4176C5.25253 20.5097 4.66646 18.3112 4.6665 16.0683V8.87453C4.66618 8.32787 4.82253 7.79414 5.11463 7.34475C5.40674 6.89536 5.82066 6.55174 6.30102 6.35986L15.1158 2.83744C15.6858 2.60977 16.3139 2.60977 16.8838 2.83744Z" fill="#FA967C"/>
<path d="M6.83875 7.64768L12.1911 5.41962C12.4035 5.33116 12.5951 5.67492 12.4151 5.81835C9.64564 8.02504 7.65192 10.7949 6.43396 15.0934C6.37175 15.313 6.00339 15.2692 6.00391 15.0409L6.01784 8.8756C6.01905 8.33827 6.34268 7.85418 6.83875 7.64768Z" fill="white"/>
<g style="mix-blend-mode:multiply">
<path fill-rule="evenodd" clip-rule="evenodd" d="M13.6295 16.7142C12.8436 16.7142 12.09 17.0184 11.5343 17.5598C10.9787 18.1012 10.6665 18.8355 10.6665 19.6012C10.6665 20.0606 10.8538 20.5012 11.1872 20.826C11.5206 21.1509 11.9728 21.3334 12.4443 21.3334H19.5554C20.0269 21.3334 20.4791 21.1509 20.8125 20.826C21.1459 20.5012 21.3332 20.0606 21.3332 19.6012C21.3332 18.8355 21.021 18.1012 20.4653 17.5598C19.9097 17.0184 19.156 16.7142 18.3702 16.7142H13.6295Z" fill="#D63D4A"/>
<path d="M14.015 11.4678C13.4886 11.9807 13.1929 12.6763 13.1929 13.4017C13.1929 14.1271 13.4886 14.8227 14.015 15.3356C14.5414 15.8486 15.2554 16.1367 15.9999 16.1367C16.7443 16.1367 17.4583 15.8486 17.9847 15.3356C18.5111 14.8227 18.8069 14.1271 18.8069 13.4017C18.8069 12.6763 18.5111 11.9807 17.9847 11.4678C17.4583 10.9548 16.7443 10.6667 15.9999 10.6667C15.2554 10.6667 14.5414 10.9548 14.015 11.4678Z" fill="#D63D4A"/>
</g>
</svg>
