<svg width="32" height="32" viewBox="0 0 32 32" fill="none" xmlns="http://www.w3.org/2000/svg">
<path fill-rule="evenodd" clip-rule="evenodd" d="M17.7136 6.47432C18.5528 5.55514 19.7362 4.94722 21.0638 4.84769V3.50972C21.0638 3.13612 21.3667 2.83325 21.7403 2.83325C22.1139 2.83325 22.4167 3.13612 22.4167 3.50972V4.92474C23.836 5.19719 25.0416 6.05827 25.7615 7.23965L26.916 6.58277C27.2343 6.40166 27.6391 6.5101 27.8242 6.82609C28.0126 7.14777 27.9018 7.56143 27.5778 7.74581L26.2975 8.47432C26.4135 8.89198 26.4755 9.33165 26.4755 9.78565C26.4755 11.1291 26.3114 12.4347 26.0019 13.6841L27.3536 14.041C27.7118 14.1356 27.9244 14.5038 27.8272 14.8613C27.731 15.2151 27.3674 15.4251 27.0129 15.3314L25.6274 14.9656C25.0396 16.7049 24.1638 18.3145 23.056 19.7395L24.4391 21.1025C24.706 21.3656 24.706 21.7961 24.4391 22.0591C24.1777 22.3168 23.7578 22.3168 23.4964 22.0591L22.1865 20.7682C21.1382 21.911 19.9285 22.9072 18.593 23.7224L19.2753 24.8869C19.4651 25.211 19.3535 25.6277 19.027 25.8134C18.7064 25.9958 18.2987 25.8866 18.1122 25.5683L17.4147 24.3777C15.6359 25.2746 13.6715 25.865 11.5933 26.078V27.4901C11.5933 27.8637 11.2904 28.1666 10.9168 28.1666C10.5432 28.1666 10.2404 27.8637 10.2404 27.4901V26.1623C10.1119 26.1651 9.98306 26.1666 9.85385 26.1666C8.29981 26.1666 6.91049 25.4714 5.98874 24.3793L4.7507 25.0837C4.4324 25.2648 4.02765 25.1564 3.84253 24.8404C3.65407 24.5187 3.7649 24.1051 4.08894 23.9207L5.27073 23.2483C4.98676 22.6277 4.82866 21.9392 4.82866 21.2142C4.82866 19.3931 5.82604 17.8016 7.31183 16.9413L6.6172 15.7555C6.42736 15.4315 6.53901 15.0148 6.86543 14.829C7.18608 14.6466 7.59381 14.7558 7.78028 15.0742L8.57141 16.4246C8.9808 16.3184 9.41063 16.2619 9.85385 16.2619C11.4248 16.2619 12.867 15.7185 13.9976 14.8123L12.9532 13.783C12.6864 13.52 12.6864 13.0894 12.9533 12.8264C13.2147 12.5688 13.6346 12.5688 13.896 12.8264L14.9543 13.8694C15.8739 12.7552 16.4252 11.3339 16.4252 9.78565C16.4252 9.00045 16.6106 8.25792 16.9407 7.59825L15.7752 6.44965C15.5083 6.18664 15.5083 5.7561 15.7752 5.49309C16.0366 5.23545 16.4565 5.23545 16.7179 5.49308L17.7136 6.47432Z" fill="#FA967C"/>
<path d="M10.3 21.8999C10.3 22.489 9.82246 22.9666 9.23335 22.9666C8.64425 22.9666 8.16669 22.489 8.16669 21.8999C8.16669 21.3108 8.64425 20.8333 9.23335 20.8333C9.82246 20.8333 10.3 21.3108 10.3 21.8999Z" fill="white"/>
<ellipse cx="15.2333" cy="19.9" rx="1.73333" ry="1.73333" fill="white"/>
<circle cx="15.2334" cy="19.8999" r="0.577778" fill="#FA967C"/>
<ellipse cx="21.9" cy="9.23321" rx="1.73333" ry="1.73333" fill="white"/>
<circle cx="21.9" cy="9.2333" r="0.577778" fill="#FA967C"/>
<path d="M21.6333 14.5665C21.6333 15.1556 21.1558 15.6332 20.5667 15.6332C19.9776 15.6332 19.5 15.1556 19.5 14.5665C19.5 13.9774 19.9776 13.4999 20.5667 13.4999C21.1558 13.4999 21.6333 13.9774 21.6333 14.5665Z" fill="white"/>
<g style="mix-blend-mode:multiply">
<path d="M18.8734 23.4063C18.8734 26.1471 22.4936 28.1667 23.8511 28.1667C25.2087 28.1667 28.8289 26.1471 28.8289 23.4063C28.8289 21.9635 28.8289 20.6578 28.8289 19.7446C28.8289 18.9549 28.3188 18.2565 27.5676 18.017L24.6744 17.0947C24.1388 16.924 23.5635 16.924 23.0279 17.0947L20.1346 18.017C19.3835 18.2565 18.8734 18.9549 18.8734 19.7446C18.8734 20.6578 18.8734 21.9635 18.8734 23.4063Z" fill="#D63D4A"/>
</g>
<path d="M26.195 20.4499C26.4353 20.2994 26.7561 20.333 26.9593 20.5462C27.1623 20.7596 27.18 21.0818 27.0179 21.3144L26.9384 21.4082L23.734 24.4564C23.6166 24.5679 23.4597 24.6287 23.2978 24.6243C23.1358 24.6199 22.982 24.5508 22.8707 24.4329L20.7405 22.1738L20.6663 22.0762C20.5171 21.8351 20.5524 21.5152 20.7666 21.3131C20.9809 21.111 21.3029 21.094 21.5348 21.2572L21.6286 21.3379L23.3369 23.1504L26.0973 20.5254L26.195 20.4499Z" fill="white"/>
</svg>
