<svg width="32" height="32" viewBox="0 0 32 32" fill="none" xmlns="http://www.w3.org/2000/svg">
<path d="M24.1552 14.0976C24.3532 15.6817 25.4911 16.9553 26.5747 18.1276C27.5637 19.1974 28.168 20.6281 28.168 22.1998C28.168 25.5135 25.4817 28.1998 22.168 28.1998H10.168C6.85426 28.1998 4.16797 25.5135 4.16797 22.1998C4.16797 20.6284 4.77199 19.1977 5.76059 18.1278C6.84394 16.9554 7.98171 15.6819 8.18 14.0979C8.45878 11.8709 10.3521 10.1998 12.5965 10.1998H19.7399C21.984 10.1998 23.8768 11.8708 24.1552 14.0976Z" fill="#FA967C"/>
<g style="mix-blend-mode:multiply">
<path d="M13.7364 17.3985C13.615 16.9604 13.1722 16.7067 12.7474 16.8319C12.3226 16.957 12.0766 17.4137 12.198 17.8517L12.7066 19.6875H12.1672C11.7254 19.6875 11.3672 20.0569 11.3672 20.5125C11.3672 20.9681 11.7254 21.3375 12.1672 21.3375H13.1637L13.5694 22.8016C13.664 23.1432 13.9601 23.3839 14.3044 23.3992C14.6486 23.4144 14.9636 23.2006 15.0862 22.8686L16.1672 19.9425L17.2482 22.8686C17.3708 23.2006 17.6858 23.4144 18.03 23.3992C18.3742 23.3839 18.6703 23.1432 18.765 22.8016L19.1706 21.3375H20.1672C20.609 21.3375 20.9672 20.9681 20.9672 20.5125C20.9672 20.0569 20.609 19.6875 20.1672 19.6875H19.6278L20.1364 17.8517C20.2578 17.4137 20.0118 16.957 19.587 16.8319C19.1621 16.7067 18.7193 16.9604 18.598 17.3985L17.8872 19.9638L16.9148 17.3314C16.7966 17.0115 16.4991 16.8001 16.1672 16.8001C15.8352 16.8001 15.5378 17.0115 15.4196 17.3314L14.4472 19.9638L13.7364 17.3985Z" fill="#D63D4A"/>
</g>
<g style="mix-blend-mode:multiply">
<path d="M18.5665 4.79993C19.5605 4.80002 20.3665 5.60587 20.3665 6.59993C20.3665 7.59398 19.5605 8.39984 18.5665 8.39993C18.2933 8.39993 18.0349 8.33839 17.8034 8.22894C17.6196 8.14203 17.3665 8.26154 17.3665 8.46487C17.3665 8.59469 17.4717 8.69993 17.6015 8.69993H20.479C22.8691 8.70015 24.9386 10.3604 25.4571 12.6937L26.0313 15.2741L26.0559 15.4265C26.1447 16.1812 25.65 16.8962 24.8923 17.0648C24.1341 17.2333 23.3817 16.7951 23.1427 16.0734L23.1016 15.9257L22.5286 13.3441C22.315 12.3836 21.4629 11.7002 20.479 11.6999H11.854C10.87 11.7001 10.018 12.3835 9.80438 13.3441L9.23133 15.9257C9.05152 16.7342 8.24927 17.2444 7.44071 17.0648C6.63215 16.8849 6.12195 16.0828 6.30164 15.2741L6.87586 12.6937C7.3944 10.3604 9.46377 8.70007 11.854 8.69993H14.7315C14.8613 8.69993 14.9665 8.5947 14.9665 8.4649C14.9665 8.26158 14.7133 8.14207 14.5295 8.22897C14.2981 8.3384 14.0397 8.39991 13.7665 8.39993C12.7724 8.39993 11.9665 7.59404 11.9665 6.59993C11.9665 5.60581 12.7724 4.79993 13.7665 4.79993C14.7605 4.79999 15.5665 5.60586 15.5665 6.59993C15.5665 6.89855 15.7755 7.19993 16.0741 7.19993H16.2588C16.5574 7.19993 16.7665 6.89854 16.7665 6.59993C16.7665 5.60581 17.5724 4.79993 18.5665 4.79993Z" fill="#D63D4A"/>
</g>
</svg>
