<svg width="32" height="33" viewBox="0 0 32 33" fill="none" xmlns="http://www.w3.org/2000/svg">
<path d="M4.83203 10.6667C4.83203 9.19391 6.02594 8 7.4987 8H24.832C26.3048 8 27.4987 9.19391 27.4987 10.6667V25.3333C27.4987 26.8061 26.3048 28 24.832 28H7.4987C6.02594 28 4.83203 26.8061 4.83203 25.3333V10.6667Z" fill="#FA967C"/>
<g style="mix-blend-mode:multiply">
<path d="M21.4987 5.33325C22.0878 5.33325 22.5651 5.81055 22.5651 6.39966V7.99992H24.832C26.3048 7.99992 27.4987 9.19383 27.4987 10.6666V13.3333H4.83203V10.6666C4.83203 9.19383 6.02594 7.99992 7.4987 7.99992H9.76562V6.39966C9.76562 5.81055 10.2429 5.33325 10.832 5.33325C11.4211 5.33325 11.8984 5.81055 11.8984 6.39966V7.99992H20.4323V6.39966C20.4323 5.81055 20.9096 5.33325 21.4987 5.33325Z" fill="#D63D4A"/>
</g>
<path d="M19.4993 22.6666C20.2357 22.6666 20.8327 23.2636 20.8327 24C20.8327 24.7363 20.2357 25.3333 19.4993 25.3333C18.763 25.3333 18.166 24.7363 18.166 24C18.166 23.2636 18.763 22.6666 19.4993 22.6666Z" fill="white"/>
<path d="M23.4993 22.6666C24.2357 22.6666 24.8327 23.2636 24.8327 24C24.8327 24.7363 24.2357 25.3333 23.4993 25.3333C22.763 25.3333 22.166 24.7363 22.166 24C22.166 23.2636 22.763 22.6666 23.4993 22.6666Z" fill="white"/>
<path d="M23.4993 18.6666C24.2357 18.6666 24.8327 19.2636 24.8327 20C24.8327 20.7363 24.2357 21.3333 23.4993 21.3333C22.763 21.3333 22.166 20.7363 22.166 20C22.166 19.2636 22.763 18.6666 23.4993 18.6666Z" fill="white"/>
</svg>
