<svg width="32" height="33" viewBox="0 0 32 33" fill="none" xmlns="http://www.w3.org/2000/svg">
<path d="M21.6638 5.7334C20.5382 5.75009 19.4372 6.04958 18.4718 6.60162C17.5065 7.15367 16.7112 8.39487 16.166 9.33366C15.6209 8.39487 14.8255 7.15367 13.8602 6.60162C12.8949 6.04958 11.7938 5.75009 10.6682 5.7334C8.8739 5.80771 7.18335 6.55588 5.96591 7.81446C4.74848 9.07304 4.10313 10.7397 4.17085 12.4504C4.17085 18.9054 15.1224 27.0173 15.5882 27.3337L16.166 27.7233L16.7438 27.3337C17.2096 27.0192 28.1612 18.9054 28.1612 12.4504C28.2289 10.7397 27.5836 9.07304 26.3661 7.81446C25.1487 6.55588 23.4581 5.80771 21.6638 5.7334Z" fill="#FA967C"/>
<path d="M16.1664 27.7232L15.5886 27.3335C15.175 27.0526 6.49128 20.6233 4.55273 14.6665H27.7801C25.8416 20.6236 17.1579 27.0542 16.7442 27.3335L16.1664 27.7232Z" fill="#D63D4A"/>
</svg>
