<svg width="32" height="32" viewBox="0 0 32 32" fill="none" xmlns="http://www.w3.org/2000/svg">
<path d="M4.83203 6.16667C4.83203 4.69391 6.02594 3.5 7.4987 3.5H24.832C26.3048 3.5 27.4987 4.69391 27.4987 6.16667V15.4952C27.4987 18.8026 25.7483 21.863 22.8976 23.5399L20.8976 24.7164C17.9767 26.4345 14.354 26.4345 11.4332 24.7164L9.43318 23.5399C6.58242 21.863 4.83203 18.8026 4.83203 15.4952V6.16667Z" fill="#FA967C"/>
<path d="M10.832 26.1663C10.832 25.43 11.429 24.833 12.1654 24.833H20.1654C20.9017 24.833 21.4987 25.43 21.4987 26.1663V27.4997C21.4987 28.2361 20.9017 28.833 20.1654 28.833H12.1654C11.429 28.833 10.832 28.2361 10.832 27.4997V26.1663Z" fill="#D63D4A"/>
<path d="M17.5 10.1667C17.5 9.79848 17.2015 9.5 16.8333 9.5H15.5C15.1318 9.5 14.8333 9.79848 14.8333 10.1667V12.8333H12.1667C11.7985 12.8333 11.5 13.1318 11.5 13.5V14.8333C11.5 15.2015 11.7985 15.5 12.1667 15.5H14.8333V18.1667C14.8333 18.5349 15.1318 18.8333 15.5 18.8333H16.8333C17.2015 18.8333 17.5 18.5349 17.5 18.1667V15.5H20.1667C20.5349 15.5 20.8333 15.2015 20.8333 14.8333V13.5C20.8333 13.1318 20.5349 12.8333 20.1667 12.8333H17.5V10.1667Z" fill="#D63D4A"/>
</svg>
