<svg width="32" height="32" viewBox="0 0 32 32" fill="none" xmlns="http://www.w3.org/2000/svg">
<path d="M16.8841 2.83744L25.6989 6.35986C26.1791 6.55166 26.5928 6.89507 26.8849 7.3442C27.177 7.79332 27.3335 8.32676 27.3334 8.87319V16.0697C27.3335 18.3125 26.7474 20.5111 25.6409 22.419C24.5344 24.3268 22.9511 25.8687 21.0686 26.8718L16.845 29.1207C16.5827 29.2606 16.2934 29.3334 16.0001 29.3334C15.7068 29.3334 15.4175 29.2606 15.1551 29.1207L10.9316 26.8704C9.04902 25.8674 7.46579 24.3255 6.35928 22.4176C5.25277 20.5097 4.6667 18.3112 4.66675 16.0683V8.87453C4.66643 8.32787 4.82278 7.79414 5.11488 7.34475C5.40698 6.89536 5.8209 6.55174 6.30127 6.35986L15.1161 2.83744C15.6861 2.60977 16.3141 2.60977 16.8841 2.83744Z" fill="#FA967C"/>
<path d="M6.83899 7.64768L12.1913 5.41962C12.4038 5.33116 12.5954 5.67492 12.4154 5.81835C9.64588 8.02504 7.65216 10.7949 6.43421 15.0934C6.37199 15.313 6.00364 15.2692 6.00415 15.0409L6.01808 8.8756C6.01929 8.33827 6.34293 7.85418 6.83899 7.64768Z" fill="white"/>
<g style="mix-blend-mode:multiply">
<path d="M19.7774 15.2018C20.3666 15.2018 20.9323 15.4301 21.349 15.836C21.7657 16.2419 22 16.7931 22.0001 17.3672C22.0001 17.7118 21.8595 18.0428 21.6095 18.2865C21.3594 18.53 21.0203 18.6667 20.6667 18.6667H19.2852C19.1697 18.5111 19.0446 18.3612 18.9037 18.224C18.2877 17.6238 17.482 17.2586 16.629 17.181C17.1394 16.6328 17.4597 15.9401 17.5417 15.2018H19.7774Z" fill="#D63D4A"/>
<path d="M18.0001 10.6667C18.5582 10.6667 19.0936 10.8825 19.4884 11.2669C19.8831 11.6515 20.1054 12.1736 20.1056 12.7175C20.1056 13.2615 19.8832 13.7833 19.4884 14.168C19.0935 14.5527 18.5584 14.7696 18.0001 14.7696C17.8504 14.7695 17.7028 14.7516 17.5587 14.7214C17.5345 13.943 17.2492 13.1995 16.7501 12.6055L16.5131 12.349C16.367 12.2066 16.2081 12.0802 16.0417 11.9662C16.1468 11.7066 16.3055 11.4679 16.5118 11.2669C16.9066 10.8825 17.4419 10.6667 18.0001 10.6667Z" fill="#D63D4A"/>
</g>
<g style="mix-blend-mode:multiply">
<path fill-rule="evenodd" clip-rule="evenodd" d="M11.9258 17.9583C11.2382 17.9583 10.5788 18.2244 10.0926 18.6982C9.6064 19.1719 9.33325 19.8144 9.33325 20.4844C9.33325 20.8863 9.49714 21.2719 9.78886 21.5561C10.0806 21.8403 10.4762 22 10.8888 22H17.111C17.5236 22 17.9193 21.8403 18.211 21.5561C18.5027 21.2719 18.6666 20.8863 18.6666 20.4844C18.6666 19.8144 18.3934 19.1719 17.9072 18.6982C17.421 18.2244 16.7616 17.9583 16.074 17.9583H11.9258Z" fill="#D63D4A"/>
<path d="M12.2632 13.3676C11.8026 13.8164 11.5438 14.4251 11.5438 15.0598C11.5438 15.6945 11.8026 16.3032 12.2632 16.752C12.7238 17.2008 13.3485 17.453 13.9999 17.453C14.6514 17.453 15.2761 17.2008 15.7367 16.752C16.1973 16.3032 16.4561 15.6945 16.4561 15.0598C16.4561 14.4251 16.1973 13.8164 15.7367 13.3676C15.2761 12.9188 14.6514 12.6667 13.9999 12.6667C13.3485 12.6667 12.7238 12.9188 12.2632 13.3676Z" fill="#D63D4A"/>
</g>
</svg>
