<svg width="32" height="33" viewBox="0 0 32 33" fill="none" xmlns="http://www.w3.org/2000/svg">
<g style="mix-blend-mode:multiply">
<path fill-rule="evenodd" clip-rule="evenodd" d="M10.3862 5.33325C9.95116 5.3334 9.52387 5.45778 9.14764 5.69378C8.77142 5.92977 8.45962 6.26901 8.24383 6.67711L3.8258 15.0295C3.61233 15.4326 3.50003 15.889 3.5 16.3534V22.3501C3.50003 22.7638 3.58917 23.1719 3.76039 23.5419L5.1401 26.5229C5.34503 26.966 5.66013 27.3386 6.05009 27.599C6.44004 27.8595 6.88943 27.9974 7.34788 27.9975H8.43635C9.09095 27.9975 9.71874 27.7165 10.1816 27.2165C10.6445 26.7164 10.9045 26.0382 10.9045 25.3311H20.7772C20.7772 26.0382 21.0373 26.7164 21.5001 27.2165C21.963 27.7165 22.5908 27.9975 23.2454 27.9975H24.3339C24.7923 27.9974 25.2417 27.8595 25.6317 27.599C26.0216 27.3386 26.3367 26.966 26.5416 26.5229L27.9213 23.5419C28.0929 23.1726 28.1817 22.7634 28.1817 22.3501V16.3534C28.1817 15.889 28.0694 15.4326 27.8559 15.0295L23.4379 6.67711C23.2221 6.26901 22.9103 5.92977 22.5341 5.69378C22.1579 5.45778 21.7306 5.3334 21.2955 5.33325H10.3862Z" fill="#FA967C"/>
<g style="mix-blend-mode:multiply">
<path d="M6.0432 27.6015C5.65325 27.3411 5.33814 26.9685 5.13321 26.5254L4.44336 25.0349H27.2246L26.5348 26.5254C26.3298 26.9685 26.0147 27.3411 25.6248 27.6015C25.2348 27.8619 24.7854 27.9999 24.327 27.9999H23.2385C22.5839 27.9999 21.9561 27.719 21.4932 27.219C21.0304 26.7189 20.7703 26.0407 20.7703 25.3335H10.8976C10.8976 26.0407 10.6376 26.7189 10.1747 27.219C9.71185 27.719 9.08406 27.9999 8.42946 27.9999H7.341C6.88254 27.9999 6.43315 27.8619 6.0432 27.6015Z" fill="#D63D4A"/>
</g>
<g style="mix-blend-mode:multiply">
<path d="M7.43169 13.6727L9.69876 8.57177C9.83521 8.26475 10.1397 8.06689 10.4756 8.06689H21.4617C21.7976 8.06689 22.1021 8.26475 22.2385 8.57177L24.5056 13.6727C24.7555 14.2349 24.3439 14.8681 23.7287 14.8681H8.20857C7.59335 14.8681 7.18183 14.2349 7.43169 13.6727Z" fill="#D63D4A"/>
</g>
<ellipse cx="9.7335" cy="20.0682" rx="1.7003" ry="1.7003" fill="white"/>
<circle cx="22.2023" cy="20.0682" r="1.7003" fill="white"/>
<path d="M18.873 23.9061C18.873 26.647 22.4932 28.6666 23.8508 28.6666C25.2084 28.6666 28.8286 26.647 28.8286 23.9061C28.8286 22.4634 28.8286 21.1577 28.8286 20.2445C28.8286 19.4548 28.3185 18.7564 27.5673 18.5169L24.6741 17.5946C24.1385 17.4239 23.5632 17.4239 23.0276 17.5946L20.1343 18.5169C19.3832 18.7564 18.873 19.4548 18.873 20.2445C18.873 21.1577 18.873 22.4634 18.873 23.9061Z" fill="#D63D4A"/>
<path d="M21.1836 22.256L23.3134 24.5143L26.5169 21.4667" stroke="white" stroke-width="0.914286" stroke-linecap="round" stroke-linejoin="round"/>
</g>
</svg>
