<svg width="32" height="32" viewBox="0 0 32 32" fill="none" xmlns="http://www.w3.org/2000/svg">
<rect x="4" y="4" width="24" height="8" rx="2" fill="#D63D4A"/>
<path d="M6.66675 8H25.3334V26C25.3334 27.1046 24.438 28 23.3334 28H8.66675C7.56218 28 6.66675 27.1046 6.66675 26V8Z" fill="#FA967C"/>
<g style="mix-blend-mode:multiply">
<path d="M15.9999 12.2669L16.1093 12.2721C16.647 12.3269 17.0663 12.7811 17.0663 13.3333C17.0663 13.8855 16.647 14.3397 16.1093 14.3945L15.9999 14.3997H9.33325C8.74415 14.3997 8.26685 13.9224 8.26685 13.3333C8.26685 12.7442 8.74415 12.2669 9.33325 12.2669H15.9999Z" fill="#D63D4A"/>
</g>
<g style="mix-blend-mode:multiply">
<path d="M18.6666 16.8001L18.776 16.8053C19.3137 16.8601 19.733 17.3143 19.733 17.8665C19.733 18.4187 19.3137 18.8729 18.776 18.9277L18.6666 18.9329H9.33325C8.74415 18.9329 8.26685 18.4556 8.26685 17.8665C8.26685 17.2774 8.74415 16.8001 9.33325 16.8001H18.6666Z" fill="#D63D4A"/>
</g>
</svg>
