<svg width="32" height="32" viewBox="0 0 32 32" fill="none" xmlns="http://www.w3.org/2000/svg">
<path d="M4.97614 18.832C6.48686 18.832 7.71155 17.6073 7.71155 16.0966C7.71155 14.5859 6.48686 13.3612 4.97614 13.3612C3.46541 13.3612 2.24072 14.5859 2.24072 16.0966C2.24072 17.6073 3.46541 18.832 4.97614 18.832Z" fill="#FA967C"/>
<path d="M27.0245 18.8322C28.5352 18.8322 29.7599 17.6075 29.7599 16.0968C29.7599 14.5861 28.5352 13.3614 27.0245 13.3614C25.5137 13.3614 24.2891 14.5861 24.2891 16.0968C24.2891 17.6075 25.5137 18.8322 27.0245 18.8322Z" fill="#FA967C"/>
<path d="M16.0005 27.0697C22.0609 27.0697 26.9738 22.1568 26.9738 16.0965C26.9738 10.0362 22.0609 5.12329 16.0005 5.12329C9.94022 5.12329 5.02734 10.0362 5.02734 16.0965C5.02734 22.1568 9.94022 27.0697 16.0005 27.0697Z" fill="#FA967C"/>
<ellipse cx="23.5465" cy="18.696" rx="1.96158" ry="1.37311" fill="white"/>
<ellipse cx="8.54606" cy="18.696" rx="1.96158" ry="1.37311" fill="white"/>
<path d="M12.922 16.7772C13.456 16.7772 13.8889 16.282 13.8889 15.6711C13.8889 15.0603 13.456 14.5651 12.922 14.5651C12.388 14.5651 11.9551 15.0603 11.9551 15.6711C11.9551 16.282 12.388 16.7772 12.922 16.7772Z" fill="#D63D4A"/>
<path d="M20.0456 15.6711C20.0456 16.2823 19.6124 16.7771 19.0787 16.7771C18.5451 16.7771 18.1118 16.2823 18.1118 15.6711C18.1118 15.0599 18.5451 14.5651 19.0787 14.5651C19.6124 14.5651 20.0456 15.0599 20.0456 15.6711Z" fill="#D63D4A"/>
<path d="M5.12695 15.1192C5.12695 15.1192 9.66817 13.2551 12.4157 8.48089C12.4157 8.48089 12.6536 10.811 11.8186 12.5585H20.1826C20.1826 12.5585 20.4205 11.044 19.8234 8.36439C19.8234 8.36439 22.3331 12.675 26.8719 14.4202C26.8719 14.4202 26.9908 4.40326 16.1196 4.40326C5.24831 4.40326 5.12695 13.0221 5.12695 15.1192Z" fill="#D63D4A"/>
<path d="M12.8257 18.3141C12.8257 20.0678 14.2464 21.4885 16.0001 21.4885C17.7538 21.4885 19.1745 20.0678 19.1745 18.3141H12.828H12.8257Z" fill="#D63D4A"/>
</svg>
