<svg width="32" height="33" viewBox="0 0 32 33" fill="none" xmlns="http://www.w3.org/2000/svg">
<g style="mix-blend-mode:multiply">
<path fill-rule="evenodd" clip-rule="evenodd" d="M6.56719 4.66663C5.90445 4.66663 5.36719 5.20388 5.36719 5.86663C5.36719 6.52937 5.90445 7.06663 6.56719 7.06663H7.16719C7.49856 7.06663 7.76719 7.33525 7.76719 7.66663V8.26663C7.76719 11.7454 9.88193 14.7303 12.896 16.0059C13.4019 16.22 13.7672 16.6954 13.7672 17.2447C13.7672 17.8033 13.3903 18.2848 12.8706 18.4895C9.87546 19.6691 7.66539 22.4086 7.24117 25.7073C7.20085 26.0208 6.94114 26.2666 6.62506 26.2666H6.56719C5.90445 26.2666 5.36719 26.8039 5.36719 27.4666C5.36719 28.1294 5.90445 28.6666 6.56719 28.6666H25.7672C26.4299 28.6666 26.9672 28.1294 26.9672 27.4666C26.9672 26.8039 26.4299 26.2666 25.7672 26.2666H25.7093C25.3932 26.2666 25.1335 26.0208 25.0932 25.7073C24.669 22.4086 22.4589 19.6691 19.4637 18.4895C18.9441 18.2848 18.5672 17.8033 18.5672 17.2447C18.5672 16.6954 18.9325 16.22 19.4384 16.0059C22.4524 14.7303 24.5672 11.7454 24.5672 8.26663V7.66663C24.5672 7.33525 24.8358 7.06663 25.1672 7.06663H25.7672C26.4299 7.06663 26.9672 6.52937 26.9672 5.86663C26.9672 5.20388 26.4299 4.66663 25.7672 4.66663H6.56719ZM14.4571 21.5677C14.9463 21.3633 15.1772 20.801 14.9728 20.3118C14.7684 19.8226 14.2062 19.5917 13.717 19.7961C12.4518 20.3247 11.3954 21.249 10.7009 22.4141C10.4294 22.8695 10.5785 23.4588 11.0339 23.7303C11.4893 24.0018 12.0786 23.8526 12.3501 23.3972C12.8358 22.5824 13.5751 21.9362 14.4571 21.5677Z" fill="#FA967C"/>
<path d="M25.7672 26.2666C26.4299 26.2666 26.9672 26.8039 26.9672 27.4666C26.9672 28.1294 26.4299 28.6666 25.7672 28.6666H6.56719C5.90445 28.6666 5.36719 28.1294 5.36719 27.4666C5.36719 26.8039 5.90445 26.2666 6.56719 26.2666H25.7672Z" fill="#D63D4A"/>
<path d="M25.7672 4.66663C26.4299 4.66663 26.9672 5.20388 26.9672 5.86663C26.9672 6.52937 26.4299 7.06663 25.7672 7.06663H6.56719C5.90445 7.06663 5.36719 6.52937 5.36719 5.86663C5.36719 5.20388 5.90445 4.66663 6.56719 4.66663H25.7672Z" fill="#D63D4A"/>
</g>
</svg>
