<svg width="32" height="33" viewBox="0 0 32 33" fill="none" xmlns="http://www.w3.org/2000/svg">
<g style="mix-blend-mode:multiply">
<g clip-path="url(#clip0_9247_16139)">
<path d="M14.2761 7.90612C13.7608 7.39487 13.5 6.76371 13.5 6C13.5 5.23945 13.7608 4.60197 14.2761 4.09389C14.7883 3.5858 15.375 3.33333 16.1263 3.33333C16.8776 3.33333 17.514 3.5858 18.0417 4.09389C18.5695 4.60197 18.8333 5.23629 18.8333 6C18.8333 6.76371 18.5695 7.39487 18.0417 7.90612C17.514 8.4142 16.8496 8.66667 16.1263 8.66667C15.403 8.66667 14.7883 8.4142 14.2761 7.90612Z" fill="white"/>
<path d="M16.167 21.9997C17.6396 21.9997 18.8335 23.1937 18.8337 24.6663V27.333H13.5003V24.6663C13.5005 23.1937 14.6943 21.9997 16.167 21.9997Z" fill="#FA967C"/>
<path d="M18.8337 9.99968C21.7791 9.99968 24.1668 12.3876 24.167 15.333V21.9997C24.167 24.4848 22.4673 26.573 20.167 27.165V24.6663C20.1668 22.4574 18.376 20.6663 16.167 20.6663C13.958 20.6663 12.1672 22.4574 12.167 24.6663V27.165C9.86672 26.573 8.16699 24.4848 8.16699 21.9997V15.333C8.16717 12.3876 10.5549 9.99968 13.5003 9.99968H18.8337Z" fill="#FA967C"/>
<path d="M13.5 24.6667C13.5 23.1939 14.6939 22 16.1667 22C17.6394 22 18.8333 23.1939 18.8333 24.6667V28.6667C18.8333 30.1394 17.6394 31.3333 16.1667 31.3333C14.6939 31.3333 13.5 30.1394 13.5 28.6667V24.6667Z" fill="#D9D9D9"/>
<path d="M13.5 24.6667C13.5 23.1939 14.6939 22 16.1667 22C17.6394 22 18.8333 23.1939 18.8333 24.6667V28.6667C18.8333 30.1394 17.6394 31.3333 16.1667 31.3333C14.6939 31.3333 13.5 30.1394 13.5 28.6667V24.6667Z" fill="#D63D4A"/>
<ellipse cx="12.1663" cy="15.3333" rx="1.33333" ry="1.33333" fill="white"/>
<ellipse cx="20.1663" cy="15.3333" rx="1.33333" ry="1.33333" fill="white"/>
<path d="M18.0335 7.33333C18.0335 6.84651 17.8934 6.46156 17.6143 6.13802L17.4867 6.00391C17.1123 5.64354 16.6765 5.46615 16.126 5.46615C15.5897 5.46615 15.2045 5.63292 14.8395 5.99479L14.8369 5.9974C14.4819 6.34769 14.2992 6.77648 14.2992 7.33333C14.2992 7.89162 14.4811 8.31629 14.8395 8.67188L14.9775 8.79688C15.3058 9.06976 15.677 9.20052 16.126 9.20052C16.5871 9.20052 16.999 9.06292 17.3434 8.78906L17.4867 8.66276C17.8522 8.30776 18.0335 7.88694 18.0335 7.33333ZM19.6325 7.33333C19.6325 8.30592 19.2869 9.1468 18.5986 9.8138L18.596 9.81641C17.9119 10.4748 17.0455 10.7995 16.126 10.7995C15.3093 10.7995 14.5815 10.5434 13.9684 10.0391L13.7119 9.80729C13.0399 9.14044 12.7002 8.30234 12.7002 7.33333C12.7002 6.37032 13.038 5.52485 13.7119 4.85938L13.9658 4.62891C14.5716 4.12595 15.2806 3.86719 16.126 3.86719C17.0778 3.86719 17.9149 4.19473 18.596 4.85026L18.8395 5.10938C19.3685 5.73031 19.6325 6.48364 19.6325 7.33333Z" fill="#D63D4A"/>
<path d="M25.5 6L25.6367 6.00651C26.3089 6.07495 26.8333 6.6431 26.8333 7.33333C26.8333 8.02357 26.3089 8.59171 25.6367 8.66016L25.5 8.66667H6.83333C6.09695 8.66667 5.5 8.06971 5.5 7.33333C5.5 6.59695 6.09695 6 6.83333 6H25.5Z" fill="#D63D4A"/>
<circle cx="16.167" cy="7.33333" r="2" fill="white"/>
</g>
</g>
<defs>
<clipPath id="clip0_9247_16139">
<rect width="21.3333" height="28" fill="white" transform="translate(5.5 3.33333)"/>
</clipPath>
</defs>
</svg>
