<svg width="32" height="32" viewBox="0 0 32 32" fill="none" xmlns="http://www.w3.org/2000/svg">
<path d="M6.83337 7.5C6.83337 6.39543 7.7288 5.5 8.83337 5.5H23.5C24.6046 5.5 25.5 6.39543 25.5 7.5V24.8333C25.5 25.9379 24.6046 26.8333 23.5 26.8333H8.83337C7.7288 26.8333 6.83337 25.9379 6.83337 24.8333V7.5Z" fill="#FA967C"/>
<path d="M12.1667 6.56667C12.1667 5.97756 12.6442 5.5 13.2334 5.5H19.1C19.6891 5.5 20.1667 5.97756 20.1667 6.56667C20.1667 7.15577 19.6891 7.63333 19.1 7.63333H13.2334C12.6442 7.63333 12.1667 7.15577 12.1667 6.56667Z" fill="white"/>
<path d="M13.2331 5.49996L13.1237 5.50517C12.5862 5.56003 12.1668 6.01438 12.1667 6.56637C12.1667 7.11845 12.5861 7.57267 13.1237 7.62756L13.2331 7.63277H19.1003L19.2097 7.62756C19.7114 7.57633 20.1105 7.17755 20.1615 6.67574L20.1667 6.56637C20.1666 6.01438 19.7472 5.56003 19.2097 5.50517L19.1003 5.49996V4.16663C20.4256 4.16677 21.4999 5.24109 21.5 6.56637C21.5 7.89176 20.4257 8.96596 19.1003 8.9661H13.2331C11.9908 8.96597 10.9695 8.02235 10.8464 6.81246L10.8334 6.56637L10.8464 6.32157C10.9692 5.11132 11.9905 4.16676 13.2331 4.16663V5.49996ZM19.1003 4.16663V5.49996H13.2331V4.16663H19.1003Z" fill="#FA967C"/>
<path fill-rule="evenodd" clip-rule="evenodd" d="M9.50006 22.9C9.50006 22.3477 9.97762 21.9 10.5667 21.9H21.7667C22.3558 21.9 22.8334 22.3477 22.8334 22.9C22.8334 23.4523 22.3558 23.9 21.7667 23.9H10.5667C9.97762 23.9 9.50006 23.4523 9.50006 22.9Z" fill="#D63D4A"/>
<path d="M9.50006 18.9C9.50006 18.3477 9.97762 17.9 10.5667 17.9H21.7667C22.3558 17.9 22.8334 18.3477 22.8334 18.9C22.8334 19.4523 22.3558 19.9 21.7667 19.9H10.5667C9.97762 19.9 9.50006 19.4523 9.50006 18.9Z" fill="#D63D4A"/>
<path d="M12.8334 9.83362C13.2936 9.83362 13.6664 10.2064 13.6664 10.6666V12.3326H15.3334C15.7934 12.3327 16.1663 12.7056 16.1664 13.1656C16.1664 13.6258 15.7935 13.9986 15.3334 13.9987H13.6664V15.6666C13.6662 16.1266 13.2934 16.4996 12.8334 16.4996C12.3733 16.4996 12.0006 16.1266 12.0004 15.6666V13.9987H10.3334C9.87325 13.9986 9.50037 13.6258 9.50037 13.1656C9.50047 12.7056 9.87332 12.3327 10.3334 12.3326H12.0004V10.6666C12.0004 10.2064 12.3732 9.83362 12.8334 9.83362Z" fill="#D63D4A"/>
</svg>
