<svg width="32" height="33" viewBox="0 0 32 33" fill="none" xmlns="http://www.w3.org/2000/svg">
<g clip-path="url(#clip0_11680_213320)">
<rect width="32" height="32" transform="translate(0 0.5)" fill="white"/>
<path d="M5.14166 19.4987C6.65239 19.4987 7.87707 18.274 7.87707 16.7632C7.87707 15.2525 6.65239 14.0278 5.14166 14.0278C3.63094 14.0278 2.40625 15.2525 2.40625 16.7632C2.40625 18.274 3.63094 19.4987 5.14166 19.4987Z" fill="#FA967C"/>
<path d="M27.1885 19.4989C28.6993 19.4989 29.9239 18.2742 29.9239 16.7635C29.9239 15.2528 28.6993 14.0281 27.1885 14.0281C25.6778 14.0281 24.4531 15.2528 24.4531 16.7635C24.4531 18.2742 25.6778 19.4989 27.1885 19.4989Z" fill="#FA967C"/>
<path d="M16.1646 27.7364C22.2249 27.7364 27.1378 22.8236 27.1378 16.7632C27.1378 10.7029 22.2249 5.79004 16.1646 5.79004C10.1043 5.79004 5.19141 10.7029 5.19141 16.7632C5.19141 22.8236 10.1043 27.7364 16.1646 27.7364Z" fill="#FA967C"/>
<ellipse cx="23.7116" cy="19.3626" rx="1.96158" ry="1.37311" fill="white"/>
<ellipse cx="8.71158" cy="19.3626" rx="1.96158" ry="1.37311" fill="white"/>
<path d="M13.088 17.4437C13.622 17.4437 14.0549 16.9486 14.0549 16.3377C14.0549 15.7269 13.622 15.2317 13.088 15.2317C12.554 15.2317 12.1211 15.7269 12.1211 16.3377C12.1211 16.9486 12.554 17.4437 13.088 17.4437Z" fill="#D63D4A"/>
<path d="M20.2112 16.3377C20.2112 16.9489 19.7779 17.4437 19.2443 17.4437C18.7106 17.4437 18.2773 16.9489 18.2773 16.3377C18.2773 15.7265 18.7106 15.2317 19.2443 15.2317C19.7779 15.2317 20.2112 15.7265 20.2112 16.3377Z" fill="#D63D4A"/>
<path d="M5.29297 15.7857C5.29297 15.7857 9.83419 13.9217 12.5817 9.14746C12.5817 9.14746 12.8196 11.4775 11.9847 13.2251H20.3487C20.3487 13.2251 20.5865 11.7105 19.9894 9.03095C19.9894 9.03095 22.4991 13.3416 27.0379 15.0867C27.0379 15.0867 27.1569 5.06982 16.2856 5.06982C5.41433 5.06982 5.29297 13.6887 5.29297 15.7857Z" fill="#D63D4A"/>
<path d="M12.9922 18.9807C12.9922 20.7344 14.4129 22.1551 16.1666 22.1551C17.9203 22.1551 19.341 20.7344 19.341 18.9807H12.9945H12.9922Z" fill="#D63D4A"/>
</g>
<defs>
<clipPath id="clip0_11680_213320">
<rect width="32" height="32" fill="white" transform="translate(0 0.5)"/>
</clipPath>
</defs>
</svg>
