<svg width="32" height="32" viewBox="0 0 32 32" fill="none" xmlns="http://www.w3.org/2000/svg">
<path fill-rule="evenodd" clip-rule="evenodd" d="M26.6666 12.2799C26.3066 12.2799 25.9999 12.5733 25.9999 12.9466V14.6666H24.8933C24.7466 12.5199 23.8933 10.5599 22.5599 9.02661L23.3866 8.19995L24.4133 9.22661C24.6666 9.47995 25.0933 9.47995 25.3466 9.22661C25.5999 8.97328 25.5999 8.54661 25.3466 8.29328L22.3599 5.30661C22.1066 5.05328 21.6799 5.05328 21.4266 5.30661C21.1733 5.55995 21.1733 5.98661 21.4266 6.23995L22.4533 7.26661L21.6266 8.09328C20.0933 6.75995 18.1466 5.90661 15.9866 5.75995V4.65328H17.7066C18.0666 4.65328 18.3733 4.35995 18.3733 3.98661C18.3733 3.61328 18.0799 3.31995 17.7066 3.31995H12.9333C12.5733 3.31995 12.2666 3.61328 12.2666 3.98661C12.2666 4.35995 12.5599 4.65328 12.9333 4.65328H14.6533V5.75995C12.5066 5.90661 10.5466 6.75995 9.01325 8.09328L8.18658 7.26661L9.21325 6.23995C9.46658 5.98661 9.46658 5.55995 9.21325 5.30661C8.95992 5.05328 8.53325 5.05328 8.27992 5.30661L5.31992 8.30661C5.06659 8.55995 5.06659 8.98661 5.31992 9.23995C5.57325 9.49328 5.99992 9.49328 6.25325 9.23995L7.27992 8.21328L8.10659 9.03995C6.77325 10.5733 5.91992 12.5199 5.77325 14.6799H4.66659V12.9599C4.66659 12.5999 4.37325 12.2933 3.99992 12.2933C3.62659 12.2933 3.33325 12.5866 3.33325 12.9599V17.7333C3.33325 18.0933 3.62659 18.3999 3.99992 18.3999C4.37325 18.3999 4.66659 18.1066 4.66659 17.7333V16.0133H5.77325C5.91992 18.1599 6.77325 20.1199 8.10659 21.6533L7.27992 22.4799L6.25325 21.4533C5.99992 21.1999 5.57325 21.1999 5.31992 21.4533C5.06659 21.7066 5.06659 22.1333 5.31992 22.3866L8.30658 25.3733C8.55992 25.6266 8.98658 25.6266 9.23992 25.3733C9.49325 25.1199 9.49325 24.6933 9.23992 24.4399L8.21325 23.4133L9.03992 22.5866C10.5733 23.9199 12.5199 24.7733 14.6799 24.9199V26.0266H12.9599C12.5999 26.0266 12.2933 26.3199 12.2933 26.6933C12.2933 27.0666 12.5866 27.3599 12.9599 27.3599H17.7333C18.0933 27.3599 18.3999 27.0666 18.3999 26.6933C18.3999 26.3199 18.1066 26.0266 17.7333 26.0266H16.0133V24.9199C18.1599 24.7733 20.1199 23.9199 21.6532 22.5866L22.4799 23.4133L21.4533 24.4399C21.1999 24.6933 21.1999 25.1199 21.4533 25.3733C21.7066 25.6266 22.1333 25.6266 22.3866 25.3733L25.3733 22.3866C25.6266 22.1333 25.6266 21.7066 25.3733 21.4533C25.1199 21.1999 24.6933 21.1999 24.4399 21.4533L23.4133 22.4799L22.5866 21.6533C23.9199 20.1199 24.7733 18.1733 24.9199 16.0133H26.0266V17.7333C26.0266 18.0933 26.3199 18.3999 26.6933 18.3999C27.0666 18.3999 27.3599 18.1066 27.3599 17.7333V12.9599C27.3599 12.5999 27.0666 12.2933 26.6933 12.2933L26.6666 12.2799Z" fill="#FA967C"/>
<path d="M14.5472 12.4142C14.5472 13.5924 13.5921 14.5476 12.4139 14.5476C11.2356 14.5476 10.2805 13.5924 10.2805 12.4142C10.2805 11.236 11.2356 10.2809 12.4139 10.2809C13.5921 10.2809 14.5472 11.236 14.5472 12.4142Z" fill="white"/>
<path d="M15.3332 19.3333C15.3332 20.0697 14.7362 20.6667 13.9998 20.6667C13.2635 20.6667 12.6665 20.0697 12.6665 19.3333C12.6665 18.597 13.2635 18 13.9998 18C14.7362 18 15.3332 18.597 15.3332 19.3333Z" fill="white"/>
<path d="M21.0596 14.4068C21.0596 15.2904 20.3433 16.0068 19.4596 16.0068C18.576 16.0068 17.8596 15.2904 17.8596 14.4068C17.8596 13.5231 18.576 12.8068 19.4596 12.8068C20.3433 12.8068 21.0596 13.5231 21.0596 14.4068Z" fill="white"/>
<g style="mix-blend-mode:multiply">
<path d="M18.7065 23.2397C18.7065 25.9806 22.3267 28.0001 23.6843 28.0001C25.0419 28.0001 28.6621 25.9806 28.6621 23.2397C28.6621 21.7969 28.6621 20.4912 28.6621 19.5781C28.6621 18.7883 28.152 18.0899 27.4008 17.8505L24.5076 16.9282C23.972 16.7574 23.3967 16.7574 22.8611 16.9282L19.9678 17.8505C19.2167 18.0899 18.7065 18.7883 18.7065 19.5781C18.7065 20.4912 18.7065 21.7969 18.7065 23.2397Z" fill="#D63D4A"/>
</g>
<path d="M26.0282 20.2833C26.2685 20.1328 26.5894 20.1664 26.7925 20.3797C26.9956 20.5931 27.0132 20.9153 26.8511 21.1479L26.7717 21.2416L23.5673 24.2898C23.4499 24.4013 23.2929 24.4622 23.1311 24.4578C22.9691 24.4534 22.8152 24.3842 22.704 24.2664L20.5738 22.0073L20.4996 21.9096C20.3504 21.6686 20.3856 21.3487 20.5998 21.1466C20.8142 20.9444 21.1361 20.9274 21.3681 21.0906L21.4618 21.1713L23.1701 22.9838L25.9306 20.3588L26.0282 20.2833Z" fill="white"/>
</svg>
