<svg width="32" height="32" viewBox="0 0 32 32" fill="none" xmlns="http://www.w3.org/2000/svg">
<g clip-path="url(#clip0_87_1592)">
<path d="M27.8333 15.8334C27.8333 22.2767 22.61 27.5 16.1667 27.5C9.72334 27.5 4.5 22.2767 4.5 15.8334C4.5 9.39003 9.72334 4.16669 16.1667 4.16669C22.61 4.16669 27.8333 9.39003 27.8333 15.8334Z" fill="#8C97C8"/>
<g style="mix-blend-mode:multiply">
<path d="M24.5 15.8334C24.5 11.231 20.769 7.50002 16.1667 7.50002C11.5643 7.50002 7.83333 11.231 7.83333 15.8334C7.83333 16.7538 7.08714 17.5 6.16667 17.5C5.24619 17.5 4.5 16.7538 4.5 15.8334C4.5 9.39003 9.72334 4.16669 16.1667 4.16669C22.61 4.16669 27.8333 9.39003 27.8333 15.8334C27.8333 16.7538 27.0871 17.5 26.1667 17.5C25.2462 17.5 24.5 16.7538 24.5 15.8334Z" fill="#D63D4A"/>
<path d="M24.5 15.8334C24.5 11.231 20.769 7.50002 16.1667 7.50002C11.5643 7.50002 7.83333 11.231 7.83333 15.8334C7.83333 16.7538 7.08714 17.5 6.16667 17.5C5.24619 17.5 4.5 16.7538 4.5 15.8334C4.5 9.39003 9.72334 4.16669 16.1667 4.16669C22.61 4.16669 27.8333 9.39003 27.8333 15.8334C27.8333 16.7538 27.0871 17.5 26.1667 17.5C25.2462 17.5 24.5 16.7538 24.5 15.8334Z" fill="#5B658C"/>
</g>
<g style="mix-blend-mode:multiply">
<path d="M18.177 13.1746C18.6323 12.7197 19.3702 12.7195 19.8254 13.1746C20.2808 13.6299 20.2808 14.369 19.8254 14.8243L14.1575 20.4923C13.7021 20.9477 12.9631 20.9477 12.5077 20.4923C12.0527 20.0371 12.0529 19.2992 12.5077 18.8439L18.177 13.1746Z" fill="#5B658C"/>
<path d="M18.8332 18.1668C19.5696 18.1668 20.1665 18.7638 20.1666 19.5001C20.1666 20.2365 19.5696 20.8334 18.8332 20.8334C18.0969 20.8334 17.4999 20.2364 17.4999 19.5001C17.5 18.7639 18.097 18.1669 18.8332 18.1668Z" fill="#5B658C"/>
<path d="M13.4999 12.8334C14.2362 12.8334 14.8332 13.4305 14.8332 14.1668C14.8332 14.9032 14.2363 15.5001 13.4999 15.5001C12.7636 15.5 12.1666 14.9031 12.1666 14.1668C12.1667 13.4305 12.7636 12.8335 13.4999 12.8334Z" fill="#5B658C"/>
</g>
</g>
<defs>
<clipPath id="clip0_87_1592">
<rect width="32" height="32" fill="white"/>
</clipPath>
</defs>
</svg>
