<svg width="32" height="32" viewBox="0 0 32 32" fill="none" xmlns="http://www.w3.org/2000/svg">
<g clip-path="url(#clip0_87_1609)">
<path d="M17.0503 3.00413L25.8652 6.52655C26.3453 6.71834 26.7591 7.06176 27.0512 7.51089C27.3433 7.96001 27.4997 8.49345 27.4997 9.03988V16.2364C27.4997 18.4792 26.9137 20.6777 25.8071 22.5856C24.7006 24.4935 23.1174 26.0354 21.2349 27.0384L17.0113 29.2874C16.749 29.4272 16.4597 29.5 16.1663 29.5C15.873 29.5 15.5837 29.4272 15.3214 29.2874L11.0978 27.0371C9.21528 26.034 7.63205 24.4922 6.52554 22.5843C5.41903 20.6764 4.83296 18.4779 4.83301 16.235V9.04122C4.83269 8.49456 4.98904 7.96083 5.28114 7.51144C5.57324 7.06205 5.98716 6.71843 6.46753 6.52655L15.2823 3.00413C15.8523 2.77646 16.4804 2.77646 17.0503 3.00413Z" fill="#8C97C8"/>
<path d="M7.00525 7.81437L12.3576 5.58631C12.5701 5.49785 12.7617 5.84161 12.5816 5.98504C9.81214 8.19173 7.81842 10.9616 6.60047 15.2601C6.53825 15.4797 6.1699 15.4358 6.17041 15.2076L6.18434 9.04229C6.18555 8.50496 6.50919 8.02087 7.00525 7.81437Z" fill="white"/>
<g style="mix-blend-mode:multiply">
<path d="M19.9437 15.3685C20.5329 15.3685 21.0986 15.5968 21.5153 16.0026C21.932 16.4086 22.1662 16.9598 22.1663 17.5339C22.1663 17.8784 22.0258 18.2095 21.7757 18.4532C21.5257 18.6967 21.1865 18.8334 20.833 18.8334H19.4515C19.3359 18.6777 19.2108 18.5279 19.07 18.3907C18.4539 17.7905 17.6482 17.4253 16.7952 17.3477C17.3057 16.7995 17.626 16.1068 17.708 15.3685H19.9437Z" fill="#5B658C"/>
<path d="M18.1663 10.8334C18.7245 10.8334 19.2599 11.0492 19.6546 11.4336C20.0493 11.8182 20.2717 12.3403 20.2718 12.8842C20.2718 13.4282 20.0494 13.95 19.6546 14.3347C19.2598 14.7194 18.7247 14.9362 18.1663 14.9362C18.0166 14.9362 17.8691 14.9183 17.7249 14.8881C17.7007 14.1096 17.4155 13.3662 16.9163 12.7722L16.6794 12.5157C16.5332 12.3733 16.3744 12.2469 16.208 12.1329C16.313 11.8733 16.4718 11.6346 16.6781 11.4336C17.0728 11.0492 17.6082 10.8334 18.1663 10.8334Z" fill="#5B658C"/>
</g>
<g style="mix-blend-mode:multiply">
<path fill-rule="evenodd" clip-rule="evenodd" d="M12.0926 18.125C11.405 18.125 10.7456 18.3911 10.2594 18.8648C9.77315 19.3386 9.5 19.9811 9.5 20.6511C9.5 21.053 9.66389 21.4385 9.95561 21.7228C10.2473 22.007 10.643 22.1667 11.0556 22.1667H17.2778C17.6903 22.1667 18.086 22.007 18.3777 21.7228C18.6694 21.4385 18.8333 21.053 18.8333 20.6511C18.8333 19.9811 18.5602 19.3386 18.074 18.8648C17.5878 18.3911 16.9283 18.125 16.2407 18.125H12.0926Z" fill="#5B658C"/>
<path d="M12.4299 13.5343C11.9693 13.9831 11.7106 14.5918 11.7106 15.2265C11.7106 15.8612 11.9693 16.4699 12.4299 16.9187C12.8906 17.3675 13.5153 17.6196 14.1667 17.6196C14.8181 17.6196 15.4428 17.3675 15.9034 16.9187C16.3641 16.4699 16.6228 15.8612 16.6228 15.2265C16.6228 14.5918 16.3641 13.9831 15.9034 13.5343C15.4428 13.0855 14.8181 12.8334 14.1667 12.8334C13.5153 12.8334 12.8906 13.0855 12.4299 13.5343Z" fill="#5B658C"/>
</g>
</g>
<defs>
<clipPath id="clip0_87_1609">
<rect width="32" height="32" fill="white"/>
</clipPath>
</defs>
</svg>
