<svg width="40" height="40" viewBox="0 0 40 40" fill="none" xmlns="http://www.w3.org/2000/svg">
<path fill-rule="evenodd" clip-rule="evenodd" d="M20 31.5189C20.847 31.5189 21.305 32.0025 22.112 32.9585L22.1565 33.0107C22.8835 33.8713 23.9795 35.17 25.9627 34.9816C27.1454 34.8681 28.2748 34.0461 29.2197 33.0743C30.2045 32.0616 31.1672 30.7083 32.0098 29.2006C33.6839 26.2034 35 22.3864 35 19.0736V18.9714C35 16.0877 35 10.2182 29.3842 7.46163C27.2921 6.43985 25.4869 6.57381 23.9128 6.92349C23.4433 7.0335 22.9763 7.15463 22.5122 7.28679C22.2499 7.35945 22.009 7.42454 21.7897 7.48206C21.2064 7.64796 20.6053 7.73948 20 7.75454C19.4375 7.75454 18.8573 7.64782 18.1992 7.48206C17.9769 7.42757 17.7323 7.36323 17.4655 7.28906C17.0165 7.17099 16.5318 7.03929 16.0805 6.93938C14.5198 6.59425 12.7279 6.45801 10.6781 7.4639C4.99778 10.2522 5 16.0877 5 18.9805V19.0713C5 22.4023 6.41174 26.2329 8.12361 29.221C8.98622 30.7287 9.95554 32.0775 10.9182 33.0811C11.3984 33.5829 11.8964 34.0188 12.3966 34.3458C12.8879 34.666 13.446 34.9248 14.0351 34.9816C16.0182 35.17 17.1165 33.869 17.8435 33.0107L17.888 32.9585C18.695 32.0048 19.153 31.5189 20 31.5189Z" fill="#FA967C"/>
<mask id="mask0_87_2118" style="mask-type:alpha" maskUnits="userSpaceOnUse" x="5" y="6" width="30" height="29">
<path fill-rule="evenodd" clip-rule="evenodd" d="M20 31.5189C20.847 31.5189 21.305 32.0025 22.112 32.9585L22.1565 33.0107C22.8835 33.8713 23.9795 35.17 25.9627 34.9816C27.1454 34.8681 28.2748 34.0461 29.2197 33.0743C30.2045 32.0616 31.1672 30.7083 32.0098 29.2006C33.6839 26.2034 35 22.3864 35 19.0736V18.9714C35 16.0877 35 10.2182 29.3842 7.46163C27.2921 6.43985 25.4869 6.57381 23.9128 6.92349C23.4433 7.0335 22.9763 7.15463 22.5122 7.28679C22.2499 7.35945 22.009 7.42454 21.7897 7.48206C21.2064 7.64796 20.6053 7.73948 20 7.75454C19.4375 7.75454 18.8573 7.64782 18.1992 7.48206C17.9769 7.42757 17.7323 7.36323 17.4655 7.28906C17.0165 7.17099 16.5318 7.03929 16.0805 6.93938C14.5198 6.59425 12.7279 6.45801 10.6781 7.4639C4.99778 10.2522 5 16.0877 5 18.9805V19.0713C5 22.4023 6.41174 26.2329 8.12361 29.221C8.98622 30.7287 9.95554 32.0775 10.9182 33.0811C11.3984 33.5829 11.8964 34.0188 12.3966 34.3458C12.8879 34.666 13.446 34.9248 14.0351 34.9816C16.0182 35.17 17.1165 33.869 17.8435 33.0107L17.888 32.9585C18.695 32.0048 19.153 31.5189 20 31.5189Z" fill="#D63D4A"/>
</mask>
<g mask="url(#mask0_87_2118)">
<ellipse cx="20.0002" cy="7.50002" rx="6.66667" ry="5.83333" fill="#D63D4A"/>
</g>
</svg>
