<svg width="32" height="32" viewBox="0 0 32 32" fill="none" xmlns="http://www.w3.org/2000/svg">
<path d="M0 10C0 4.47715 4.47715 0 10 0H22C27.5228 0 32 4.47715 32 10V22C32 27.5228 27.5228 32 22 32H10C4.47715 32 0 27.5228 0 22V10Z" fill="#F4F5F6"/>
<path fill-rule="evenodd" clip-rule="evenodd" d="M16.1665 5.36688C17.2325 5.36696 18.1618 6.04618 18.4868 7.01044C19.51 7.0537 20.3687 7.83749 20.4536 8.86688H22.3667L22.5503 8.87567C23.4579 8.96789 24.1665 9.73474 24.1665 10.6667V24.3669C24.1664 25.3607 23.3605 26.1664 22.3667 26.1667H9.96631C8.97226 26.1667 8.16661 25.3609 8.1665 24.3669V10.6667C8.1665 9.67257 8.9722 8.86688 9.96631 8.86688H11.8745C11.9595 7.83642 12.8206 7.05221 13.8452 7.01044C14.1702 6.046 15.1003 5.36688 16.1665 5.36688ZM12.1665 19.3669C11.7247 19.3669 11.3667 19.7249 11.3667 20.1667C11.3667 20.6085 11.7247 20.9665 12.1665 20.9665H16.3882L16.4702 20.9626C16.8735 20.9215 17.188 20.5808 17.188 20.1667C17.188 19.7526 16.8735 19.4119 16.4702 19.3708L16.3882 19.3669H12.1665ZM12.1665 15.3669C11.7247 15.3669 11.3667 15.7249 11.3667 16.1667C11.3667 16.6085 11.7247 16.9665 12.1665 16.9665H20.1665L20.2485 16.9626C20.6517 16.9214 20.9663 16.5808 20.9663 16.1667C20.9663 15.7526 20.6517 15.4119 20.2485 15.3708L20.1665 15.3669H12.1665ZM16.1665 6.96649C15.6783 6.96649 15.3218 7.34669 15.3218 7.76434V7.80634L15.3179 7.88837C15.2769 8.29152 14.9359 8.60583 14.522 8.60614H13.9312C13.6532 8.60614 13.4665 8.82036 13.4663 9.03387V10.3669H18.8667V9.85809L18.8628 9.03778V9.03387L18.854 8.95477C18.8146 8.7706 18.6413 8.60622 18.3979 8.60614H17.8071C17.3931 8.60595 17.0522 8.29158 17.0112 7.88837L17.0073 7.80634C17.0073 7.7844 17.0091 7.76443 17.0103 7.74677C17.0006 7.33605 16.6478 6.96659 16.1665 6.96649Z" fill="#6D7882"/>
</svg>
