<svg width="40" height="40" viewBox="0 0 40 40" fill="none" xmlns="http://www.w3.org/2000/svg">
<path d="M33.3332 14.8247C33.3332 17.7694 32.1633 21.1623 30.6752 23.8265L9.44305 23.8446C7.92138 21.1885 6.6665 17.7836 6.6665 14.8227V14.7419V14.7389C6.6665 12.1665 6.6665 6.9825 11.7137 4.50496C13.5357 3.61084 15.1285 3.73194 16.5158 4.03872C16.917 4.12753 17.3478 4.24459 17.747 4.34955C17.9841 4.41548 18.2015 4.47266 18.3991 4.5211C18.9841 4.66844 19.4999 4.7633 19.9998 4.7633C20.5379 4.74992 21.0722 4.66857 21.5907 4.5211C21.7857 4.46997 21.9997 4.41211 22.2329 4.34753C22.6454 4.23006 23.0605 4.12238 23.4779 4.02459C24.8771 3.71377 26.4817 3.59469 28.3413 4.50294C33.3332 6.95319 33.3332 12.1706 33.3332 14.7339V14.8247Z" fill="#FA967C"/>
<path d="M24.2556 30.7156L16.1593 35.4797L15.9665 34.1165L24.4436 29.1287C24.4476 29.2727 24.4395 29.4169 24.4195 29.5573L24.2556 30.7156ZM16.503 36.9524L23.9977 32.5422L23.7706 34.1528L17.4797 37.8546C17.2883 37.8182 17.1033 37.7196 16.9356 37.5646C16.7679 37.4097 16.6208 37.2015 16.503 36.9524ZM20.2997 37.8704H22.0949C22.422 37.8706 22.7395 37.6895 22.9955 37.3568C23.2515 37.024 23.4309 36.5593 23.5045 36.0384L23.5127 35.9801L20.2997 37.8704Z" fill="#D63D4A"/>
<path d="M15.5557 31.2067L19.2907 29.0083L21.8466 28.9815L15.7485 32.5699L15.5557 31.2067Z" fill="#D63D4A"/>
<rect x="12.5928" y="24.537" width="14.8148" height="4.44444" rx="0.407407" fill="#D63D4A"/>
</svg>
