<svg width="32" height="32" viewBox="0 0 32 32" fill="none" xmlns="http://www.w3.org/2000/svg">
<g style="mix-blend-mode:multiply">
<g clip-path="url(#clip0_87_1925)">
<path d="M14.1093 7.23947C13.594 6.72823 13.3333 6.09706 13.3333 5.33335C13.3333 4.5728 13.594 3.93533 14.1093 3.42724C14.6216 2.91915 15.2083 2.66669 15.9596 2.66669C16.7108 2.66669 17.3472 2.91915 17.875 3.42724C18.4027 3.93533 18.6666 4.56965 18.6666 5.33335C18.6666 6.09706 18.4027 6.72823 17.875 7.23947C17.3472 7.74755 16.6829 8.00002 15.9596 8.00002C15.2362 8.00002 14.6216 7.74755 14.1093 7.23947Z" fill="white"/>
<path d="M16 21.333C17.4727 21.333 18.6665 22.5271 18.6667 23.9997V26.6663H13.3333V23.9997C13.3335 22.5271 14.5273 21.333 16 21.333Z" fill="#8C97C8"/>
<path d="M18.6667 9.33301C21.6121 9.33301 23.9998 11.721 24 14.6663V21.333C24 23.8181 22.3003 25.9063 20 26.4984V23.9997C19.9998 21.7907 18.209 19.9997 16 19.9997C13.791 19.9997 12.0002 21.7907 12 23.9997V26.4984C9.69973 25.9063 8 23.8181 8 21.333V14.6663C8.00018 11.721 10.3879 9.33301 13.3333 9.33301H18.6667Z" fill="#8C97C8"/>
<path d="M13.3333 24C13.3333 22.5273 14.5272 21.3334 15.9999 21.3334C17.4727 21.3334 18.6666 22.5273 18.6666 24V28C18.6666 29.4728 17.4727 30.6667 15.9999 30.6667C14.5272 30.6667 13.3333 29.4728 13.3333 28V24Z" fill="#D9D9D9"/>
<path d="M13.3333 24C13.3333 22.5273 14.5272 21.3334 15.9999 21.3334C17.4727 21.3334 18.6666 22.5273 18.6666 24V28C18.6666 29.4728 17.4727 30.6667 15.9999 30.6667C14.5272 30.6667 13.3333 29.4728 13.3333 28V24Z" fill="#5B658C"/>
<ellipse cx="11.9998" cy="14.6667" rx="1.33333" ry="1.33333" fill="white"/>
<ellipse cx="19.9998" cy="14.6667" rx="1.33333" ry="1.33333" fill="white"/>
<path d="M17.867 6.66671C17.867 6.17988 17.7269 5.79494 17.4478 5.4714L17.3201 5.33728C16.9458 4.97691 16.51 4.79952 15.9595 4.79952C15.4232 4.79952 15.038 4.96629 14.673 5.32817L14.6704 5.33077C14.3154 5.68106 14.1326 6.10985 14.1326 6.66671C14.1326 7.225 14.3146 7.64966 14.673 8.00525L14.811 8.13025C15.1393 8.40314 15.5105 8.53389 15.9595 8.5339C16.4206 8.5339 16.8325 8.39629 17.1769 8.12244L17.3201 7.99613C17.6857 7.64113 17.867 7.22031 17.867 6.66671ZM19.466 6.66671C19.466 7.63929 19.1204 8.48017 18.4321 9.14718L18.4295 9.14978C17.7454 9.80822 16.879 10.1329 15.9595 10.1329C15.1428 10.1329 14.415 9.87677 13.8019 9.37244L13.5454 9.14067C12.8734 8.47381 12.5337 7.63571 12.5337 6.66671C12.5337 5.70369 12.8715 4.85823 13.5454 4.19275L13.7993 3.96228C14.4051 3.45932 15.1141 3.20056 15.9595 3.20056C16.9113 3.20056 17.7484 3.52811 18.4295 4.18363L18.673 4.44275C19.202 5.06368 19.466 5.81702 19.466 6.66671Z" fill="#5B658C"/>
<path d="M25.3333 5.33337L25.47 5.33988C26.1421 5.40833 26.6666 5.97647 26.6666 6.66671C26.6666 7.35694 26.1421 7.92509 25.47 7.99353L25.3333 8.00004H6.66659C5.93021 8.00004 5.33325 7.40309 5.33325 6.66671C5.33325 5.93033 5.93021 5.33337 6.66659 5.33337H25.3333Z" fill="#5B658C"/>
<circle cx="16" cy="6.66669" r="2" fill="white"/>
</g>
</g>
<defs>
<clipPath id="clip0_87_1925">
<rect width="21.3333" height="28" fill="white" transform="translate(5.33325 2.66669)"/>
</clipPath>
</defs>
</svg>
