<svg width="32" height="32" viewBox="0 0 32 32" fill="none" xmlns="http://www.w3.org/2000/svg">
<path d="M4.66675 9.99998C4.66675 8.52722 5.86066 7.33331 7.33341 7.33331H24.6667C26.1395 7.33331 27.3334 8.52722 27.3334 9.99998V24.6666C27.3334 26.1394 26.1395 27.3333 24.6667 27.3333H7.33341C5.86066 27.3333 4.66675 26.1394 4.66675 24.6666V9.99998Z" fill="#8C97C8"/>
<g style="mix-blend-mode:multiply">
<path d="M21.3334 4.66669C21.9225 4.66669 22.3998 5.14399 22.3998 5.73309V7.33335H24.6667C26.1395 7.33335 27.3334 8.52726 27.3334 10V12.6667H4.66675V10C4.66675 8.52726 5.86066 7.33335 7.33341 7.33335H9.60034V5.73309C9.60034 5.14399 10.0776 4.66669 10.6667 4.66669C11.2559 4.66669 11.7332 5.14399 11.7332 5.73309V7.33335H20.267V5.73309C20.267 5.14399 20.7443 4.66669 21.3334 4.66669Z" fill="#5B658C"/>
</g>
<path d="M19.3333 22C20.0697 22 20.6667 22.597 20.6667 23.3333C20.6667 24.0697 20.0697 24.6667 19.3333 24.6667C18.597 24.6667 18 24.0697 18 23.3333C18 22.597 18.597 22 19.3333 22Z" fill="white"/>
<path d="M23.3333 22C24.0697 22 24.6667 22.597 24.6667 23.3333C24.6667 24.0697 24.0697 24.6667 23.3333 24.6667C22.597 24.6667 22 24.0697 22 23.3333C22 22.597 22.597 22 23.3333 22Z" fill="white"/>
<path d="M23.3333 18C24.0697 18 24.6667 18.597 24.6667 19.3333C24.6667 20.0697 24.0697 20.6667 23.3333 20.6667C22.597 20.6667 22 20.0697 22 19.3333C22 18.597 22.597 18 23.3333 18Z" fill="white"/>
</svg>
