<svg width="32" height="32" viewBox="0 0 32 32" fill="none" xmlns="http://www.w3.org/2000/svg">
<g clip-path="url(#clip0_87_1634)">
<path d="M24.4997 14.8333C24.4997 20.5403 19.8733 25.1667 14.1663 25.1667C8.4594 25.1667 3.83301 20.5403 3.83301 14.8333C3.83301 9.12639 8.4594 4.5 14.1663 4.5C19.8733 4.5 24.4997 9.12639 24.4997 14.8333Z" fill="#5B658C"/>
<path d="M28.4997 16.1667C28.4997 21.8736 23.8733 26.5 18.1663 26.5C12.4594 26.5 7.83301 21.8736 7.83301 16.1667C7.83301 10.4598 12.4594 5.83337 18.1663 5.83337C23.8733 5.83337 28.4997 10.4598 28.4997 16.1667Z" fill="#8C97C8"/>
<ellipse cx="12.9286" cy="16.2619" rx="1.42857" ry="1.42857" fill="#5B658C"/>
<ellipse cx="18.1664" cy="16.2619" rx="1.42857" ry="1.42857" fill="#5B658C"/>
<ellipse cx="23.4046" cy="16.2619" rx="1.42857" ry="1.42857" fill="#5B658C"/>
<path d="M23.8269 21.0902C24.3326 20.6599 25.1144 20.9384 25.2342 21.5915L26.0429 25.9996C26.1627 26.6527 25.5306 27.1905 24.9051 26.9677L20.6832 25.464C20.0578 25.2412 19.908 24.4249 20.4137 23.9946L23.8269 21.0902Z" fill="#8C97C8"/>
</g>
<defs>
<clipPath id="clip0_87_1634">
<rect width="32" height="32" fill="white"/>
</clipPath>
</defs>
</svg>
