<svg width="32" height="32" viewBox="0 0 32 32" fill="none" xmlns="http://www.w3.org/2000/svg">
<path d="M0 10C0 4.47715 4.47715 0 10 0H22C27.5228 0 32 4.47715 32 10V22C32 27.5228 27.5228 32 22 32H10C4.47715 32 0 27.5228 0 22V10Z" fill="#F4F5F6"/>
<path d="M20.3215 7.16753C21.8664 7.2315 23.3301 7.87586 24.3899 8.97124C25.4472 10.0643 26.0162 11.5188 25.9612 13.0201C25.9567 14.4388 25.3602 15.8719 24.553 17.1783C23.7357 18.5008 22.6551 19.7697 21.5842 20.8707C19.4464 23.0684 17.2632 24.6831 17.0461 24.8296L16.6125 25.1226C16.3423 25.3046 15.9882 25.3047 15.718 25.1226L15.2844 24.8296L15.2825 24.8287C15.066 24.6815 12.8839 23.0671 10.7463 20.8697C9.67556 19.7689 8.59477 18.5006 7.77757 17.1783C6.9704 15.8721 6.37282 14.4388 6.36839 13.0201C6.3134 11.519 6.88261 10.0643 7.93968 8.97124C8.99941 7.8757 10.4641 7.23162 12.009 7.16753C12.0238 7.16692 12.0392 7.16635 12.0539 7.16655C13.0315 7.18108 13.9905 7.4415 14.8332 7.92339C15.3249 8.20462 15.7303 8.63324 16.0491 9.04155C16.0884 9.09192 16.1275 9.14284 16.1653 9.19389C16.2031 9.1428 16.2421 9.09196 16.2815 9.04155C16.6002 8.63323 17.0056 8.20468 17.4973 7.92339C18.3401 7.44142 19.2991 7.18114 20.2766 7.16655C20.2914 7.16633 20.3067 7.16692 20.3215 7.16753ZM16.1711 13.3716C15.7295 13.3718 15.3715 13.7298 15.3713 14.1714V15.3667H14.1662C13.7246 15.3669 13.3665 15.7249 13.3664 16.1666C13.3664 16.6083 13.7245 16.9662 14.1662 16.9664H15.3713V18.1714L15.3752 18.2535C15.4163 18.6567 15.7571 18.9711 16.1711 18.9712C16.5853 18.9712 16.926 18.6568 16.967 18.2535L16.9709 18.1714V16.9664H18.1662L18.2483 16.9624C18.6516 16.9214 18.966 16.5807 18.966 16.1666C18.966 15.7525 18.6515 15.4117 18.2483 15.3707L18.1662 15.3667H16.9709V14.1714C16.9708 13.7297 16.6129 13.3716 16.1711 13.3716Z" fill="#6D7882"/>
</svg>
