<svg width="32" height="32" viewBox="0 0 32 32" fill="none" xmlns="http://www.w3.org/2000/svg">
<g clip-path="url(#clip0_87_1566)">
<rect x="4.1665" y="9.49921" width="24" height="16" rx="2.31882" fill="#FA967C"/>
<rect x="4.1665" y="9.49921" width="24" height="16" rx="2.31882" fill="#8C97C8"/>
<g style="mix-blend-mode:multiply">
<rect x="11.3667" y="12.7002" width="9.6" height="9.6" rx="4.8" fill="#D63D4A"/>
<rect x="11.3667" y="12.7002" width="9.6" height="9.6" rx="4.8" fill="#5B658C"/>
</g>
<path d="M16.166 14.6992C16.5526 14.6992 16.8662 15.0128 16.8662 15.3994V16.7988H18.2666C18.6531 16.7988 18.9667 17.1125 18.9668 17.499C18.9668 17.8856 18.6532 18.1992 18.2666 18.1992H16.8662V19.5995C16.8662 19.9861 16.5526 20.2997 16.166 20.2997C15.7797 20.2995 15.4668 19.9859 15.4668 19.5995V18.1992H14.0664C13.6799 18.199 13.3662 17.8855 13.3662 17.499C13.3663 17.1125 13.68 16.7989 14.0664 16.7988H15.4668V15.3994C15.4669 15.013 15.7797 14.6994 16.166 14.6992Z" fill="white"/>
<g style="mix-blend-mode:multiply">
<path d="M21.3667 5.49945C22.0294 5.49945 22.5669 6.03693 22.5669 6.69965V9.49945H20.1665V7.7348C20.1663 7.38414 19.8824 7.10012 19.5317 7.10004H12.8022C12.4515 7.10004 12.1667 7.38409 12.1665 7.7348V9.49945H9.76709V6.69965C9.76712 6.03706 10.3038 5.49966 10.9663 5.49945H21.3667Z" fill="#D63D4A"/>
<path d="M21.3667 5.49945C22.0294 5.49945 22.5669 6.03693 22.5669 6.69965V9.49945H20.1665V7.7348C20.1663 7.38414 19.8824 7.10012 19.5317 7.10004H12.8022C12.4515 7.10004 12.1667 7.38409 12.1665 7.7348V9.49945H9.76709V6.69965C9.76712 6.03706 10.3038 5.49966 10.9663 5.49945H21.3667Z" fill="#5B658C"/>
</g>
<path d="M6.83301 25.5005H9.49967V25.9868C9.49967 26.4546 9.12043 26.8338 8.65262 26.8338H7.68007C7.21225 26.8338 6.83301 26.4546 6.83301 25.9868V25.5005Z" fill="#5B658C"/>
<path d="M22.833 25.5005H25.4997V25.9868C25.4997 26.4546 25.1204 26.8338 24.6526 26.8338H23.6801C23.2122 26.8338 22.833 26.4546 22.833 25.9868V25.5005Z" fill="#5B658C"/>
</g>
<defs>
<clipPath id="clip0_87_1566">
<rect width="32" height="32" fill="white"/>
</clipPath>
</defs>
</svg>
