<svg width="32" height="32" viewBox="0 0 32 32" fill="none" xmlns="http://www.w3.org/2000/svg">
<path d="M12.8891 15.4167L9.3335 22.9167L10.0002 25.3334L13.3335 26.6667H16.6668L18.0002 26L18.9335 24.4167L20.0002 22.1667V17.6667L17.1557 14.6667L12.8891 15.4167Z" fill="white"/>
<path d="M14.8885 4.82613L14.1298 4.37437C13.8274 4.19433 13.4386 4.37466 13.3808 4.72177L13.2368 5.58552C12.8162 8.08908 11.0952 10.4154 9.19688 12.0501C5.48067 15.2518 4.66696 18.7314 5.81761 21.6037C6.91871 24.3524 9.7133 26.2345 12.5497 26.5485L13.206 26.6207C11.583 25.6348 10.5413 23.3315 10.9047 21.6103C11.2636 19.9186 12.4881 18.3342 14.84 16.8723L16.0259 16.137L16.4685 17.4556C16.7295 18.2346 17.181 18.8605 17.6401 19.4963C17.8603 19.8027 18.0839 20.1123 18.2887 20.4417C18.9967 21.5851 19.1839 22.8566 18.7269 24.1182C18.3107 25.265 17.6247 26.1666 16.6789 26.6667L17.7469 26.5485C20.4094 26.2541 22.3638 25.3492 23.6334 23.8359C24.892 22.3358 25.3335 20.4045 25.3335 18.3484C25.3335 16.4336 24.5418 14.4596 23.6081 12.8172C22.6283 11.0953 21.3813 9.63462 20.0122 8.23669C19.7743 7.99376 19.3842 8.06651 19.2535 8.38039C19.1533 8.62092 19.0214 8.89778 18.7225 9.36165C18.0018 7.45986 16.6492 5.8597 14.8885 4.82613Z" fill="#8C97C8"/>
<g style="mix-blend-mode:multiply">
<path d="M18.7065 23.2397C18.7065 25.9806 22.3267 28.0001 23.6843 28.0001C25.0419 28.0001 28.6621 25.9806 28.6621 23.2397C28.6621 21.7969 28.6621 20.4912 28.6621 19.5781C28.6621 18.7883 28.152 18.0899 27.4008 17.8505L24.5076 16.9282C23.972 16.7574 23.3967 16.7574 22.8611 16.9282L19.9678 17.8505C19.2167 18.0899 18.7065 18.7883 18.7065 19.5781C18.7065 20.4912 18.7065 21.7969 18.7065 23.2397Z" fill="#5B658C"/>
</g>
<path d="M26.0282 20.2834C26.2685 20.1329 26.5894 20.1665 26.7925 20.3797C26.9956 20.5931 27.0132 20.9153 26.8511 21.1479L26.7717 21.2417L23.5673 24.2899C23.4499 24.4014 23.2929 24.4622 23.1311 24.4578C22.9691 24.4534 22.8152 24.3843 22.704 24.2664L20.5738 22.0073L20.4996 21.9097C20.3504 21.6686 20.3856 21.3487 20.5998 21.1466C20.8142 20.9445 21.1361 20.9275 21.3681 21.0906L21.4618 21.1714L23.1701 22.9839L25.9306 20.3589L26.0282 20.2834Z" fill="white"/>
<path d="M5.3335 10C5.3335 8.15907 6.82588 6.66669 8.66683 6.66669C9.03502 6.66669 9.3335 6.96516 9.3335 7.33335C9.3335 7.70154 9.03502 8.00002 8.66683 8.00002C7.56226 8.00002 6.66683 8.89545 6.66683 10C6.66683 10.3682 6.36835 10.6667 6.00016 10.6667C5.63197 10.6667 5.3335 10.3682 5.3335 10Z" fill="#5B658C"/>
<path d="M2 10.6666V9.33331C2 6.0196 4.68629 3.33331 8 3.33331H9.33333C9.70152 3.33331 10 3.63179 10 3.99998C10 4.36817 9.70152 4.66665 9.33333 4.66665H8C5.42267 4.66665 3.33333 6.75598 3.33333 9.33331V10.6666C3.33333 11.0348 3.03486 11.3333 2.66667 11.3333C2.29848 11.3333 2 11.0348 2 10.6666Z" fill="#5B658C"/>
</svg>
