<svg width="40" height="40" viewBox="0 0 40 40" fill="none" xmlns="http://www.w3.org/2000/svg">
<path d="M4.9674 15.4167H35.0324C36.0099 15.4167 36.8054 16.2379 36.8054 17.2468V18.625C36.8054 25.2868 31.5664 30.6945 25.1125 30.6945H14.8842C8.43335 30.6945 3.19434 25.2868 3.19434 18.625V17.2468C3.19434 16.2379 3.9899 15.4167 4.9674 15.4167Z" fill="#FDCFC3"/>
<path d="M23.823 9.64846C26.1109 10.8376 26.1109 13.3695 26.1109 14.6135L13.8887 14.6566V14.6174V14.6159C13.8887 13.3676 13.8887 10.8518 16.202 9.64944C17.0371 9.21552 17.7671 9.27429 18.4029 9.42318C18.5868 9.46627 18.7843 9.52308 18.9672 9.57402C19.0759 9.60601 19.1755 9.63376 19.2661 9.65727C19.5342 9.72877 19.7706 9.77481 19.9998 9.77481C20.2464 9.76832 20.4913 9.72884 20.7289 9.65727C20.8183 9.63246 20.9164 9.60438 21.0233 9.57304C21.2123 9.51603 21.4026 9.46378 21.5939 9.41632C22.2352 9.26548 22.9707 9.20769 23.823 9.64846Z" fill="#D63D4A"/>
<path fill-rule="evenodd" clip-rule="evenodd" d="M7.49984 21.0006C7.82924 21.0006 8.00735 21.2282 8.32119 21.678L8.33848 21.7026C8.6212 22.1076 9.04744 22.7188 9.81865 22.6301C10.2786 22.5767 10.7178 22.1898 11.0853 21.7325C11.4683 21.256 11.8426 20.6191 12.1703 19.9096C12.8213 18.4991 13.3332 16.7029 13.3332 15.144V15.0959C13.3332 13.7389 13.3332 10.9767 11.1492 9.67951C10.3357 9.19867 9.63363 9.26171 9.0215 9.42627C8.83889 9.47804 8.65728 9.53504 8.47682 9.59723C8.37479 9.63143 8.28113 9.66206 8.19583 9.68913C7.969 9.7672 7.73523 9.81027 7.49984 9.81735C7.2811 9.81735 7.05544 9.76713 6.79953 9.68913C6.71307 9.66348 6.61796 9.63321 6.51421 9.5983C6.33957 9.54274 6.15109 9.48076 5.97558 9.43375C5.36864 9.27133 4.67179 9.20722 3.87465 9.68058C1.66564 10.9927 1.6665 13.7389 1.6665 15.1002V15.1429C1.6665 16.7104 2.21551 18.513 2.88124 19.9192C3.2167 20.6287 3.59366 21.2634 3.96802 21.7357C4.15477 21.9719 4.34844 22.177 4.54297 22.3309C4.73404 22.4816 4.95105 22.6034 5.18016 22.6301C5.95137 22.7188 6.37848 22.1065 6.66119 21.7026L6.67848 21.678C6.99233 21.2292 7.17043 21.0006 7.49984 21.0006Z" fill="#FA967C"/>
<path fill-rule="evenodd" clip-rule="evenodd" d="M32.4998 21.0006C32.8292 21.0006 33.0073 21.2282 33.3212 21.678L33.3385 21.7026C33.6212 22.1076 34.0474 22.7188 34.8186 22.6301C35.2786 22.5767 35.7178 22.1898 36.0853 21.7325C36.4683 21.256 36.8426 20.6191 37.1703 19.9096C37.8213 18.4991 38.3332 16.7029 38.3332 15.144V15.0959C38.3332 13.7389 38.3332 10.9767 36.1492 9.67951C35.3357 9.19867 34.6336 9.26171 34.0215 9.42627C33.8389 9.47804 33.6573 9.53504 33.4768 9.59723C33.3748 9.63143 33.2811 9.66206 33.1958 9.68913C32.969 9.7672 32.7352 9.81027 32.4998 9.81735C32.2811 9.81735 32.0554 9.76713 31.7995 9.68913C31.7131 9.66348 31.618 9.63321 31.5142 9.5983C31.3396 9.54274 31.1511 9.48076 30.9756 9.43375C30.3686 9.27133 29.6718 9.20722 28.8746 9.68058C26.6656 10.9927 26.6665 13.7389 26.6665 15.1002V15.1429C26.6665 16.7104 27.2155 18.513 27.8812 19.9192C28.2167 20.6287 28.5937 21.2634 28.968 21.7357C29.1548 21.9719 29.3484 22.177 29.543 22.3309C29.734 22.4816 29.9511 22.6034 30.1802 22.6301C30.9514 22.7188 31.3785 22.1065 31.6612 21.7026L31.6785 21.678C31.9923 21.2292 32.1704 21.0006 32.4998 21.0006Z" fill="#FA967C"/>
<rect x="29.1665" y="14.0279" width="6.11111" height="4.58333" rx="0.458333" fill="#D63D4A"/>
<rect x="4.72217" y="14.0279" width="6.11111" height="4.58333" rx="0.458333" fill="#D63D4A"/>
<path d="M32.9859 15.5554V17.3888H8.5415V15.5554H32.9859Z" fill="#D63D4A"/>
</svg>
