<svg width="32" height="32" viewBox="0 0 32 32" fill="none" xmlns="http://www.w3.org/2000/svg">
<path d="M13.8548 13.3913L9.91424 5.51013C9.56734 4.81632 10.0719 4 10.8476 4L19.9925 4C20.7682 4 21.2727 4.81632 20.9258 5.51013L16.9852 13.3913H13.8548Z" fill="#8C97C8"/>
<path d="M26.8986 19.1304C26.8986 24.1393 22.7247 28 18.5508 28H12.2899C8.11604 28 3.94214 24.1393 3.94214 19.1304C3.94214 12.6514 9.08112 8.69568 15.4204 8.69568C21.7596 8.69568 26.8986 12.6514 26.8986 19.1304Z" fill="#8C97C8"/>
<g style="mix-blend-mode:multiply">
<path d="M15.4945 15.2409C15.7058 15.2409 15.9232 15.3001 16.105 15.4359C16.259 15.551 16.3901 15.7214 16.4654 15.9656L17.509 19.7106L18.5243 15.8528C18.5855 15.6109 18.7219 15.4471 18.8934 15.3491C19.0721 15.247 19.2959 15.2166 19.5291 15.2657C19.7721 15.3146 19.9451 15.4398 20.0477 15.606C20.1497 15.7711 20.1858 15.9846 20.1252 16.2291L19.5917 18.1247L20.6942 18.1248C20.9143 18.1248 21.1136 18.2134 21.2579 18.3567C21.4022 18.4999 21.4914 18.6978 21.4914 18.9164C21.4914 19.135 21.4022 19.3329 21.2579 19.4762C21.1136 19.6194 20.9143 19.708 20.6941 19.708L19.1459 19.7079L18.4979 22.0089C18.4294 22.258 18.3044 22.4337 18.1556 22.5543C17.9772 22.6991 17.7608 22.7656 17.5483 22.7717C17.3151 22.7721 17.093 22.7125 16.9097 22.5757C16.7519 22.4579 16.6194 22.2821 16.5439 22.0262L15.4799 18.0836L14.377 22.0088C14.3067 22.2641 14.175 22.4427 14.0185 22.5638C13.8304 22.7093 13.6025 22.7722 13.385 22.7722C13.1677 22.7722 12.9482 22.7127 12.7656 22.5756C12.6104 22.4592 12.479 22.2863 12.4037 22.0367L11.7557 19.7079L10.1463 19.708C9.92619 19.708 9.72689 19.6194 9.58262 19.4762C9.43835 19.3329 9.34912 19.135 9.34912 18.9164C9.34912 18.6978 9.43835 18.4999 9.58262 18.3567C9.72689 18.2134 9.92619 18.1248 10.1463 18.1248L11.3154 18.1247L10.8135 16.3196C10.7414 16.0653 10.7719 15.8477 10.8671 15.6753C10.9674 15.4936 11.1445 15.355 11.3876 15.2865C11.6413 15.2248 11.8769 15.2261 12.0658 15.3091C12.2464 15.3884 12.3972 15.5371 12.4753 15.8006L13.4655 19.7068L14.5024 16.005C14.5731 15.7475 14.704 15.5682 14.8605 15.4471C15.0459 15.3037 15.2714 15.2409 15.4945 15.2409Z" fill="#5B658C"/>
</g>
<g style="mix-blend-mode:multiply">
<path d="M9.68115 8.41136C9.68115 7.99223 10.0209 7.65247 10.44 7.65247H20.4005C20.8196 7.65247 21.1594 7.99223 21.1594 8.41136V8.98053C21.1594 9.39965 20.8196 9.73942 20.4005 9.73942H10.44C10.0209 9.73942 9.68115 9.39965 9.68115 8.98053V8.41136Z" fill="#5B658C"/>
</g>
</svg>
