<svg width="32" height="32" viewBox="0 0 32 32" fill="none" xmlns="http://www.w3.org/2000/svg">
<g clip-path="url(#clip0_87_1662)">
<g style="mix-blend-mode:multiply">
<path d="M25.9647 6.16683L6.36893 6.16669C4.41636 6.16669 2.8335 7.70997 2.8335 9.61371V22.7195C2.8335 24.6233 4.41636 26.1665 6.36893 26.1665L25.9647 26.1667C27.9173 26.1667 29.5002 24.6234 29.5002 22.7197V9.61385C29.5002 7.71012 27.9173 6.16683 25.9647 6.16683Z" fill="#8C97C8"/>
<g style="mix-blend-mode:multiply">
<path d="M6.28054 6.16681L26.0531 6.16681C27.9563 6.16681 29.5002 7.7107 29.5002 9.61383V11.4624H2.8335V9.61383C2.8335 7.7107 4.3774 6.16681 6.28054 6.16681Z" fill="#5B658C"/>
</g>
<path d="M14.0902 8.84286C14.0902 9.40097 13.6298 9.85216 13.0603 9.85216C12.4908 9.85216 12.0304 9.40097 12.0304 8.84286C12.0304 8.28475 12.493 7.83356 13.0603 7.83356C13.6276 7.83356 14.0902 8.28689 14.0902 8.84286Z" fill="#8C97C8"/>
<path d="M9.82877 9.85216C10.3976 9.85216 10.8587 9.40028 10.8587 8.84286C10.8587 8.28544 10.3976 7.83356 9.82877 7.83356C9.25997 7.83356 8.79886 8.28544 8.79886 8.84286C8.79886 9.40028 9.25997 9.85216 9.82877 9.85216Z" fill="#8C97C8"/>
<path d="M6.60437 9.8521C7.17317 9.8521 7.63428 9.40022 7.63428 8.8428C7.63428 8.28538 7.17317 7.8335 6.60437 7.8335C6.03557 7.8335 5.57446 8.28538 5.57446 8.8428C5.57446 9.40022 6.03557 9.8521 6.60437 9.8521Z" fill="#8C97C8"/>
<path d="M16.5432 23.07C16.344 23.2976 15.9898 23.2976 15.7906 23.07L12.2258 18.9959C11.943 18.6726 12.1725 18.1667 12.6021 18.1667H14.1669V14.6667C14.1669 14.3905 14.3908 14.1667 14.6669 14.1667H17.6669C17.9431 14.1667 18.1669 14.3905 18.1669 14.6667V18.1667H19.7317C20.1613 18.1667 20.3909 18.6726 20.108 18.9959L16.5432 23.07Z" fill="white"/>
</g>
</g>
<defs>
<clipPath id="clip0_87_1662">
<rect width="32" height="32" fill="white"/>
</clipPath>
</defs>
</svg>
