<svg width="32" height="32" viewBox="0 0 32 32" fill="none" xmlns="http://www.w3.org/2000/svg">
<g style="mix-blend-mode:multiply">
<path d="M25.0582 7.5C27.5128 7.5 29.5026 9.25944 29.5026 11.4298V22.2368C29.5026 24.4072 27.5128 26.1667 25.0582 26.1667H7.28038C4.82578 26.1667 2.83594 24.4072 2.83594 22.2368L2.83594 11.4298C2.83594 9.25944 4.82578 7.5 7.28038 7.5L25.0582 7.5Z" fill="#8C97C8"/>
<g style="mix-blend-mode:multiply">
<rect x="8.16797" y="6.16669" width="16" height="2.66667" rx="1" fill="#5B658C"/>
</g>
<g style="mix-blend-mode:multiply">
<path d="M22.782 17.1841C22.782 16.5322 22.6857 16.0285 22.4931 15.673C22.308 15.3175 22.0413 15.1397 21.6932 15.1397C21.345 15.1397 21.0784 15.3175 20.8932 15.673C20.7154 16.0285 20.6265 16.5322 20.6265 17.1841C20.6265 17.8359 20.7154 18.3433 20.8932 18.7063C21.0784 19.0618 21.345 19.2396 21.6932 19.2396C22.0413 19.2396 22.308 19.0618 22.4931 18.7063C22.6857 18.3433 22.782 17.8359 22.782 17.1841ZM24.682 17.1841C24.682 17.7544 24.6079 18.2618 24.4598 18.7063C24.3116 19.1507 24.1042 19.5248 23.8376 19.8285C23.5783 20.1248 23.2635 20.3507 22.8931 20.5062C22.5302 20.6618 22.1339 20.7396 21.7043 20.7396C21.2672 20.7396 20.8636 20.6618 20.4932 20.5062C20.1302 20.3507 19.8154 20.1248 19.5488 19.8285C19.2895 19.5248 19.0858 19.1507 18.9377 18.7063C18.7969 18.2618 18.7266 17.7544 18.7266 17.1841C18.7266 16.6137 18.7969 16.11 18.9377 15.673C19.0858 15.2286 19.2895 14.8582 19.5488 14.5619C19.8154 14.2582 20.1302 14.0286 20.4932 13.873C20.8636 13.7175 21.2672 13.6397 21.7043 13.6397C22.1339 13.6397 22.5302 13.7175 22.8931 13.873C23.2635 14.0286 23.5783 14.2582 23.8376 14.5619C24.1042 14.8582 24.3116 15.2286 24.4598 15.673C24.6079 16.11 24.682 16.6137 24.682 17.1841Z" fill="#5B658C"/>
<path d="M16.0438 17.1841C16.0438 16.5322 15.9475 16.0285 15.7549 15.673C15.5697 15.3175 15.303 15.1397 14.9549 15.1397C14.6067 15.1397 14.3401 15.3175 14.1549 15.673C13.9771 16.0285 13.8882 16.5322 13.8882 17.1841C13.8882 17.8359 13.9771 18.3433 14.1549 18.7063C14.3401 19.0618 14.6067 19.2396 14.9549 19.2396C15.303 19.2396 15.5697 19.0618 15.7549 18.7063C15.9475 18.3433 16.0438 17.8359 16.0438 17.1841ZM17.9437 17.1841C17.9437 17.7544 17.8696 18.2618 17.7215 18.7063C17.5733 19.1507 17.3659 19.5248 17.0993 19.8285C16.84 20.1248 16.5252 20.3507 16.1549 20.5062C15.7919 20.6618 15.3956 20.7396 14.966 20.7396C14.529 20.7396 14.1253 20.6618 13.7549 20.5062C13.392 20.3507 13.0771 20.1248 12.8105 19.8285C12.5512 19.5248 12.3475 19.1507 12.1994 18.7063C12.0587 18.2618 11.9883 17.7544 11.9883 17.1841C11.9883 16.6137 12.0587 16.11 12.1994 15.673C12.3475 15.2286 12.5512 14.8582 12.8105 14.5619C13.0771 14.2582 13.392 14.0286 13.7549 13.873C14.1253 13.7175 14.529 13.6397 14.966 13.6397C15.3956 13.6397 15.7919 13.7175 16.1549 13.873C16.5252 14.0286 16.84 14.2582 17.0993 14.5619C17.3659 14.8582 17.5733 15.2286 17.7215 15.673C17.8696 16.11 17.9437 16.6137 17.9437 17.1841Z" fill="#5B658C"/>
<path d="M9.47656 13.7543C9.90766 13.5054 10.4591 13.6533 10.708 14.0844C10.7926 14.231 10.8298 14.3915 10.8271 14.5493V19.8159C10.8271 20.3136 10.4235 20.7172 9.92578 20.7172C9.42818 20.717 9.02447 20.3135 9.02441 19.8159V16.0971L9.00098 16.1108C8.56993 16.3596 8.01846 16.2117 7.76953 15.7807C7.52063 15.3496 7.66851 14.7982 8.09961 14.5493L9.47656 13.7543Z" fill="#5B658C"/>
</g>
</g>
</svg>
