<svg width="32" height="32" viewBox="0 0 32 32" fill="none" xmlns="http://www.w3.org/2000/svg">
<path d="M6.35929 4.73431C6.35929 4.73431 9.85997 6.6951 15.111 6.6951C20.362 6.6951 23.8627 4.73431 23.8627 4.73431L29.642 22.3598C29.724 22.6099 29.6468 22.8814 29.429 23.0292C28.2339 23.8404 23.8833 26.3029 15.111 26.3029C6.33868 26.3029 1.98811 23.8404 0.792971 23.0292C0.575157 22.8814 0.497977 22.6099 0.579997 22.3598L6.35929 4.73431Z" fill="#8C97C8"/>
<path d="M25.4997 9.7409C25.3086 10.3003 25.0147 10.919 24.5874 11.5135C23.5604 12.942 21.78 14.2078 18.9085 14.2079C17.7641 14.2079 16.9796 14.5152 16.4372 14.957C16.1705 15.1743 15.953 15.4326 15.7766 15.7192C16.5934 16.0413 17.5839 16.8468 17.8426 17.1055C18.2086 17.4713 19.3064 16.3739 19.6724 16.3737C20.0384 16.3737 20.0387 18.569 19.307 18.9353C18.7215 19.2281 17.1111 18.3252 16.379 17.8372C16.501 18.5692 16.6718 20.3994 16.379 21.8633C16.0128 23.6929 12.7191 24.4244 9.05962 22.2287C6.46735 20.6734 6.21523 18.1436 6.49799 16.3737C6.58172 15.8497 6.85315 15.7319 6.60563 15.4284C5.86502 14.7587 5.3999 13.7902 5.3999 12.7131C5.40002 10.692 6.89179 9.3468 8.91291 9.3468C10.934 9.34686 12.3529 10.6921 12.353 12.7131C12.353 13.1059 12.3038 13.4843 12.2115 13.839C12.3022 14.0559 12.353 14.294 12.353 14.5438C12.3529 15.1415 12.0645 15.67 11.6212 16.0039V16.0074L12.353 16.3737C12.597 15.0318 13.2319 12.4212 13.8174 12.714C14.5487 13.0799 14.1829 13.4461 14.1829 15.2756C14.1828 16.7394 13.4507 18.0811 13.0848 18.569L14.1829 18.9353C14.1829 18.7587 14.1898 18.5479 14.2011 18.319C14.2046 17.716 14.2744 17.0682 14.4537 16.4449C14.4606 16.421 14.4691 16.3976 14.4763 16.3737C14.4875 16.3357 14.4989 16.2986 14.511 16.2626C14.7552 15.5116 15.1707 14.7846 15.8478 14.2331C16.5843 13.6333 17.5878 13.2739 18.9085 13.2739C21.4603 13.2738 22.9663 12.1692 23.8295 10.9683C24.2667 10.3601 24.5435 9.7206 24.7002 9.17493C24.8411 8.68407 24.8751 8.30487 24.8643 8.10896L24.8573 8.03604L24.8521 7.94143C24.8539 7.902 24.8608 7.86358 24.8721 7.82684L25.4997 9.7409Z" fill="white"/>
<g style="mix-blend-mode:multiply">
<path d="M28.4622 17.7409C28.0036 17.7477 27.5551 17.8687 27.1618 18.0919C26.7685 18.315 26.4445 18.8167 26.2224 19.1962C26.0003 18.8167 25.6762 18.315 25.283 18.0919C24.8897 17.8687 24.4411 17.7477 23.9825 17.7409C23.2515 17.7709 22.5628 18.0734 22.0668 18.5821C21.5708 19.0909 21.3079 19.7646 21.3355 20.4561C21.3355 23.0653 25.7972 26.3444 25.987 26.4723C26.1294 26.5676 26.3153 26.5676 26.4578 26.4723C26.6475 26.3452 31.1093 23.0653 31.1093 20.4561C31.1369 19.7646 30.874 19.0909 30.378 18.5821C29.882 18.0734 29.1932 17.7709 28.4622 17.7409Z" fill="#5B658C"/>
</g>
</svg>
