<svg width="20" height="21" viewBox="0 0 20 21" fill="none" xmlns="http://www.w3.org/2000/svg">
<path d="M0 3.83333C0 1.99238 1.49238 0.5 3.33333 0.5H16.6667C18.5076 0.5 20 1.99238 20 3.83333V17.1667C20 19.0076 18.5076 20.5 16.6667 20.5H3.33333C1.49238 20.5 0 19.0076 0 17.1667V3.83333Z" fill="#F5F5F5"/>
<g>
<path opacity="0.5" fill-rule="evenodd" clip-rule="evenodd" d="M9.1188 17.1666L12.6758 10.4999L10.3897 6.21538L9.88086 7.16775L11.6582 10.4999L8.61233 16.2142L5.56646 10.4999L9.1188 3.83325H8.10349L4.54883 10.4999L8.10349 17.1666H9.1188ZM10.1363 3.83325H11.1519L14.7076 10.4999L11.1519 17.1666H10.1363L13.692 10.4976L10.6452 4.78328L7.59849 10.4976L9.37636 13.8321L8.86738 14.7844L6.58058 10.4999L10.1363 3.83325Z" fill="black"/>
</g>
<defs>
<clipPath>
<rect width="10.2778" height="13.3333" fill="white" transform="translate(4.54883 3.83325)"/>
</clipPath>
</defs>
</svg>
