<svg width="36" height="36" viewBox="0 0 36 36" fill="none" xmlns="http://www.w3.org/2000/svg">
<rect width="36" height="36" rx="12" fill="#F4F5F6"/>
<path d="M24.1113 11.8889L11.8891 11.8889" stroke="#FFC7A9" stroke-width="1.5" stroke-linecap="round"/>
<path d="M24.1113 24.1111L11.8891 24.1111" stroke="#FFC7A9" stroke-width="1.5" stroke-linecap="round"/>
<path d="M24.1113 15.3889C26.0443 15.3889 27.6113 13.8219 27.6113 11.8889C27.6113 9.95592 26.0443 8.38892 24.1113 8.38892C22.1783 8.38892 20.6113 9.95592 20.6113 11.8889C20.6113 13.8219 22.1783 15.3889 24.1113 15.3889Z" fill="#FF6A2F"/>
<path d="M11.8887 15.3889C13.8217 15.3889 15.3887 13.8219 15.3887 11.8889C15.3887 9.95592 13.8217 8.38892 11.8887 8.38892C9.95568 8.38892 8.38867 9.95592 8.38867 11.8889C8.38867 13.8219 9.95568 15.3889 11.8887 15.3889Z" fill="#FFC7A9"/>
<path d="M24.1113 27.6111C26.0443 27.6111 27.6113 26.0441 27.6113 24.1111C27.6113 22.1781 26.0443 20.6111 24.1113 20.6111C22.1783 20.6111 20.6113 22.1781 20.6113 24.1111C20.6113 26.0441 22.1783 27.6111 24.1113 27.6111Z" fill="#FFC7A9"/>
<path d="M12.1074 27.3975C14.0404 27.3975 15.6074 25.8305 15.6074 23.8975C15.6074 21.9645 14.0404 20.3975 12.1074 20.3975C10.1744 20.3975 8.60742 21.9645 8.60742 23.8975C8.60742 25.8305 10.1744 27.3975 12.1074 27.3975Z" fill="#FF6A2F"/>
<path d="M11.8887 23.5556L24.1109 11.8889" stroke="#FF6A2F" stroke-width="1.5" stroke-linecap="round" stroke-linejoin="round"/>
</svg>
