<svg width="24" height="24" viewBox="0 0 24 24" fill="none" xmlns="http://www.w3.org/2000/svg">
<path fill-rule="evenodd" clip-rule="evenodd" d="M19.0002 12.0002C19.0002 12.2178 18.9115 12.426 18.7547 12.5769L13.5547 17.5769C13.2362 17.8831 12.7298 17.8732 12.4235 17.5547C12.1173 17.2362 12.1272 16.7298 12.4457 16.4235L16.214 12.8002H5.80098C5.35916 12.8002 5.00098 12.442 5.00098 12.0002C5.00098 11.5584 5.35916 11.2002 5.80098 11.2002H16.214L12.4457 7.57686C12.1272 7.27062 12.1173 6.76419 12.4235 6.44571C12.7298 6.12722 13.2362 6.11729 13.5547 6.42353L18.7547 11.4235C18.9115 11.5744 19.0002 11.7826 19.0002 12.0002Z" fill="#33363D"/>
</svg>
