<svg width="24" height="24" viewBox="0 0 24 24" fill="none" xmlns="http://www.w3.org/2000/svg">
<rect x="4" y="2" width="16" height="20" rx="2" fill="#FFC7A9"/>
<path d="M4 17H20V20C20 21.1046 19.1046 22 18 22H6C4.89543 22 4 21.1046 4 20V17Z" fill="#FF6A2F"/>
<path d="M12 20.5C12.5523 20.5 13 20.0523 13 19.5C13 18.9477 12.5523 18.5 12 18.5C11.4477 18.5 11 18.9477 11 19.5C11 20.0523 11.4477 20.5 12 20.5Z" fill="#FFC7A9"/>
<path d="M12 13.5C14.4853 13.5 16.5 11.4853 16.5 9C16.5 6.51472 14.4853 4.5 12 4.5C9.51472 4.5 7.5 6.51472 7.5 9C7.5 11.4853 9.51472 13.5 12 13.5Z" fill="#FF6A2F"/>
<path d="M10 9.28571L10.8108 10.3668C11.0545 10.6917 11.5365 10.7074 11.8008 10.399L13.8571 8" stroke="#FFC7A9" stroke-width="1.2" stroke-linecap="round"/>
</svg>
