<svg width="24" height="24" viewBox="0 0 24 24" fill="none" xmlns="http://www.w3.org/2000/svg">
<path d="M19.3333 4C21.3584 4 23 5.50809 23 7.36842V16.6316C23 18.4919 21.3584 20 19.3333 20H4.66667C2.64162 20 1 18.4919 1 16.6316L1 7.36842C1 5.50809 2.64162 4 4.66667 4L19.3333 4Z" fill="#FFC7A9"/>
<path d="M15.7188 12.5L17.0312 16.875H19.6562L18.3437 12.5L15.7188 12.5Z" fill="#FF8847"/>
<path d="M17.0312 12.5L15.7188 16.875H13.0938L14.4063 12.5L17.0312 12.5Z" fill="#FF8847"/>
<path d="M19.875 10.75C19.875 12.683 18.308 14.25 16.375 14.25C14.442 14.25 12.875 12.683 12.875 10.75C12.875 8.817 14.442 7.25 16.375 7.25C18.308 7.25 19.875 8.817 19.875 10.75Z" fill="#FF6A2F"/>
<path d="M18.125 10.75C18.125 11.7165 17.3415 12.5 16.375 12.5C15.4085 12.5 14.625 11.7165 14.625 10.75C14.625 9.7835 15.4085 9 16.375 9C17.3415 9 18.125 9.7835 18.125 10.75Z" fill="#FFC7A9"/>
<path d="M5 10.5H8" stroke="#FF6A2F" stroke-width="1.5" stroke-linecap="round"/>
<path d="M5 13.5H10" stroke="#FF6A2F" stroke-width="1.5" stroke-linecap="round"/>
<path d="M5 10.5H8" stroke="#FF6A2F" stroke-width="1.5" stroke-linecap="round"/>
<path d="M5 13.5H10" stroke="#FF6A2F" stroke-width="1.5" stroke-linecap="round"/>
</svg>
