<svg width="24" height="24" viewBox="0 0 24 24" fill="none" xmlns="http://www.w3.org/2000/svg">
<rect x="3.49951" y="3.5" width="17" height="17" rx="8.5" fill="#FFC7A9"/>
<path d="M15.498 14C15.498 15.3833 13.9347 16.5 11.998 16.5C10.0614 16.5 8.49805 15.3833 8.49805 14" stroke="#FF6A2F" stroke-width="1.5" stroke-linecap="round"/>
<path d="M1.99756 7.55939V5.98198C1.99756 3.78249 3.77492 2.00513 5.97441 2.00513H7.55182" stroke="#FF6A2F" stroke-width="1.5" stroke-linecap="round"/>
<path d="M21.9952 7.55939V5.98198C21.9952 3.78249 20.2178 2.00513 18.0183 2.00513H16.4409" stroke="#FF6A2F" stroke-width="1.5" stroke-linecap="round"/>
<g style="mix-blend-mode:multiply">
<path d="M21.9952 16.4407V18.0181C21.9952 20.2176 20.2178 21.9949 18.0183 21.9949H16.4409" stroke="#FF6A2F" stroke-width="1.5" stroke-linecap="round"/>
</g>
<path d="M1.99756 16.4407V18.0181C1.99756 20.2176 3.77492 21.9949 5.97441 21.9949H7.55182" stroke="#FF6A2F" stroke-width="1.5" stroke-linecap="round"/>
</svg>
