<svg width="32" height="32" viewBox="0 0 32 32" fill="none" xmlns="http://www.w3.org/2000/svg">
<path d="M0 10C0 4.47715 4.47715 0 10 0H22C27.5228 0 32 4.47715 32 10V22C32 27.5228 27.5228 32 22 32H10C4.47715 32 0 27.5228 0 22V10Z" fill="#F4F5F6"/>
<g style="mix-blend-mode:multiply">
<path d="M20.6091 9H6.90909C6.66798 9 6.43675 9.09577 6.26626 9.26626C6.09578 9.43676 6 9.66798 6 9.90909V19.9091C6 20.1502 6.09578 20.3814 6.26626 20.5519C6.43675 20.7224 6.66798 20.8182 6.90909 20.8182H25.0909C25.332 20.8182 25.5633 20.7224 25.7337 20.5519C25.9042 20.3814 26 20.1502 26 19.9091V15.1091C26.0008 14.6843 25.8529 14.2726 25.5818 13.9455L22 9.64546C21.8292 9.44305 21.6162 9.28042 21.3759 9.16893C21.1356 9.05744 20.8739 8.99978 20.6091 9Z" fill="#FA967C"/>
<g style="mix-blend-mode:multiply">
<path d="M6.00059 18.0821H6.75817C7.38565 18.0821 7.89453 17.5732 7.89453 16.9457C7.89453 16.3182 7.38565 15.8093 6.75817 15.8093H6.00059V18.0821Z" fill="#D63D4A"/>
</g>
<g style="mix-blend-mode:multiply">
<path d="M10.0908 23.5367C11.346 23.5367 12.3636 22.5191 12.3636 21.2639C12.3636 20.0088 11.346 18.9912 10.0908 18.9912C8.83565 18.9912 7.81812 20.0088 7.81812 21.2639C7.81812 22.5191 8.83565 23.5367 10.0908 23.5367Z" fill="#D63D4A"/>
</g>
<path d="M10.091 22.1729C10.5931 22.1729 11.0001 21.7659 11.0001 21.2638C11.0001 20.7618 10.5931 20.3547 10.091 20.3547C9.5889 20.3547 9.18188 20.7618 9.18188 21.2638C9.18188 21.7659 9.5889 22.1729 10.091 22.1729Z" fill="white"/>
<g style="mix-blend-mode:multiply">
<path d="M21.9092 23.5367C23.1644 23.5367 24.1819 22.5191 24.1819 21.2639C24.1819 20.0088 23.1644 18.9912 21.9092 18.9912C20.654 18.9912 19.6365 20.0088 19.6365 21.2639C19.6365 22.5191 20.654 23.5367 21.9092 23.5367Z" fill="#D63D4A"/>
</g>
<path d="M21.9091 22.1729C22.4112 22.1729 22.8182 21.7659 22.8182 21.2638C22.8182 20.7618 22.4112 20.3547 21.9091 20.3547C21.407 20.3547 21 20.7618 21 21.2638C21 21.7659 21.407 22.1729 21.9091 22.1729Z" fill="white"/>
<g style="mix-blend-mode:multiply">
<path d="M22.9727 10.8181H19.6364C19.3953 10.8181 19.164 10.9139 18.9936 11.0844C18.8231 11.2549 18.7273 11.4861 18.7273 11.7272V14.2272C18.7273 14.4683 18.8231 14.6995 18.9936 14.87C19.164 15.0405 19.3953 15.1363 19.6364 15.1363H26C26.0008 14.7115 25.8529 14.2998 25.5818 13.9727L22.9727 10.8181Z" fill="#D63D4A"/>
</g>
</g>
</svg>
