<svg width="32" height="32" viewBox="0 0 32 32" fill="none" xmlns="http://www.w3.org/2000/svg">
<g style="mix-blend-mode:multiply">
<path fill-rule="evenodd" clip-rule="evenodd" d="M10.2195 4.66675C9.78441 4.6669 9.35712 4.79127 8.9809 5.02727C8.60467 5.26327 8.29287 5.6025 8.07708 6.0106L3.65905 14.363C3.44559 14.7661 3.33328 15.2225 3.33325 15.6869V21.6836C3.33328 22.0973 3.42243 22.5054 3.59364 22.8754L4.97335 25.8564C5.17828 26.2995 5.49338 26.6721 5.88334 26.9325C6.27329 27.193 6.72268 27.3309 7.18114 27.3309H8.2696C8.9242 27.3309 9.55199 27.05 10.0149 26.55C10.4777 26.0499 10.7378 25.3717 10.7378 24.6646H20.6105C20.6105 25.3717 20.8705 26.0499 21.3334 26.55C21.7963 27.05 22.424 27.3309 23.0786 27.3309H24.1671C24.6256 27.3309 25.075 27.193 25.4649 26.9325C25.8549 26.6721 26.17 26.2995 26.3749 25.8564L27.7546 22.8754C27.9261 22.5061 28.015 22.0969 28.015 21.6836V15.6869C28.015 15.2225 27.9027 14.7661 27.6892 14.363L23.2712 6.0106C23.0554 5.6025 22.7436 5.26327 22.3673 5.02727C21.9911 4.79127 21.5638 4.6669 21.1288 4.66675H10.2195Z" fill="#FA967C"/>
<g style="mix-blend-mode:multiply">
<path d="M5.87694 26.935C5.48699 26.6746 5.17188 26.3019 4.96695 25.8589L4.2771 24.3684H27.0583L26.3685 25.8589C26.1636 26.3019 25.8485 26.6746 25.4585 26.935C25.0686 27.1954 24.6192 27.3334 24.1607 27.3334H23.0723C22.4177 27.3334 21.7899 27.0525 21.327 26.5525C20.8641 26.0524 20.6041 25.3742 20.6041 24.667H10.7314C10.7314 25.3742 10.4713 26.0524 10.0085 26.5525C9.54559 27.0525 8.9178 27.3334 8.2632 27.3334H7.17474C6.71628 27.3334 6.26689 27.1954 5.87694 26.935Z" fill="#D63D4A"/>
</g>
<g style="mix-blend-mode:multiply">
<path d="M7.26445 13.0062L9.53152 7.90526C9.66797 7.59825 9.97243 7.40039 10.3084 7.40039H21.2944C21.6304 7.40039 21.9349 7.59825 22.0713 7.90526L24.3384 13.0062C24.5882 13.5684 24.1767 14.2016 23.5615 14.2016H8.04133C7.42611 14.2016 7.01459 13.5684 7.26445 13.0062Z" fill="#D63D4A"/>
</g>
<ellipse cx="9.56749" cy="19.4017" rx="1.7003" ry="1.7003" fill="white"/>
<circle cx="22.0362" cy="19.4017" r="1.7003" fill="white"/>
<path d="M18.7065 23.2396C18.7065 25.9805 22.3267 28 23.6843 28C25.0419 28 28.6621 25.9805 28.6621 23.2396C28.6621 21.7969 28.6621 20.4912 28.6621 19.578C28.6621 18.7882 28.152 18.0898 27.4008 17.8504L24.5076 16.9281C23.972 16.7574 23.3967 16.7574 22.8611 16.9281L19.9678 17.8504C19.2167 18.0898 18.7065 18.7882 18.7065 19.578C18.7065 20.4912 18.7065 21.7969 18.7065 23.2396Z" fill="#D63D4A"/>
<path d="M21.0178 21.5896L23.1476 23.8479L26.3512 20.8003" stroke="white" stroke-width="0.914286" stroke-linecap="round" stroke-linejoin="round"/>
<path fill-rule="evenodd" clip-rule="evenodd" d="M11.8568 7.73361C12.8331 6.78532 14.1813 6.19556 15.6665 6.19556C17.1517 6.19556 18.4999 6.78532 19.4762 7.73361C19.7291 7.97936 19.7301 8.37868 19.4782 8.62554C19.2264 8.87239 18.8171 8.87329 18.5641 8.62755C17.819 7.90373 16.7944 7.45693 15.6665 7.45693C14.5386 7.45693 13.514 7.90373 12.7689 8.62755C12.5159 8.87329 12.1066 8.87239 11.8548 8.62554C11.6029 8.37868 11.6039 7.97936 11.8568 7.73361Z" fill="white"/>
<path fill-rule="evenodd" clip-rule="evenodd" d="M15.6648 10.0727C15.0455 10.0727 14.4818 10.3185 14.0692 10.7181C13.8159 10.9634 13.4066 10.962 13.1552 10.7148C12.9037 10.4676 12.9052 10.0682 13.1585 9.82285C13.8005 9.20101 14.6868 8.81128 15.6648 8.81128C16.6415 8.81128 17.533 9.20013 18.1728 9.8245C18.4253 10.0708 18.4253 10.4701 18.1728 10.7164C17.9204 10.9627 17.5112 10.9627 17.2588 10.7164C16.8518 10.3194 16.2855 10.0727 15.6648 10.0727Z" fill="white"/>
<path d="M15.6677 13.0528C16.0981 13.0528 16.447 12.7123 16.447 12.2924C16.447 11.8724 16.0981 11.532 15.6677 11.532C15.2373 11.532 14.8884 11.8724 14.8884 12.2924C14.8884 12.7123 15.2373 13.0528 15.6677 13.0528Z" fill="white"/>
</g>
</svg>
