<svg width="32" height="33" viewBox="0 0 32 33" fill="none" xmlns="http://www.w3.org/2000/svg">
<g style="mix-blend-mode:multiply">
<path d="M19.8929 14.3584H12.3105V30.2761H19.8929V14.3584Z" fill="#FA967C"/>
<g style="mix-blend-mode:multiply">
<path d="M16.166 5.80078L22.6741 14.3596H27.2075L16.166 5.80078Z" fill="#FA967C"/>
</g>
<g style="mix-blend-mode:multiply">
<path d="M5.12305 14.3596H9.65638L16.1667 5.80078L5.12305 14.3596Z" fill="#FA967C"/>
</g>
<g style="mix-blend-mode:multiply">
<path d="M9.65625 14.3596H13.799L16.1665 5.80078L9.65625 14.3596Z" fill="#D63D4A"/>
</g>
<g style="mix-blend-mode:multiply">
<path d="M18.5314 14.3596H22.6741L16.166 5.80078L18.5314 14.3596Z" fill="#D63D4A"/>
</g>
<path d="M13.8008 14.3596H18.5338L16.1684 5.80078L13.8008 14.3596Z" fill="#FA967C"/>
<path d="M26.9594 30.3206H5.37562C4.55316 30.3206 3.88477 29.6522 3.88477 28.8297C3.88477 28.0073 4.55316 27.3389 5.37562 27.3389H26.9594C27.7819 27.3389 28.4503 28.0073 28.4503 28.8297C28.4503 29.6544 27.7819 30.3206 26.9594 30.3206Z" fill="#D63D4A"/>
<path d="M8.35176 22.7645C8.35176 22.7651 8.35128 22.7655 8.35068 22.7655C8.30981 22.7655 8.26892 22.7611 8.2259 22.7525C7.87217 22.6831 7.64214 22.3424 7.71158 21.9886L8.79663 16.444C8.86608 16.0903 9.20678 15.8625 9.56051 15.9297C9.91423 15.9992 10.1443 16.3399 10.0748 16.6936L8.98977 22.2382C8.92908 22.5482 8.65623 22.7629 8.35285 22.7634C8.35225 22.7634 8.35176 22.7639 8.35176 22.7645Z" fill="#FA967C"/>
<path d="M24.1221 22.767C24.1221 22.7664 24.1217 22.7659 24.1211 22.7659C23.8155 22.7654 23.5448 22.5507 23.4841 22.2408L22.3991 16.6962C22.3296 16.3424 22.5597 16.0017 22.9134 15.9323C23.265 15.8628 23.6078 16.0929 23.6773 16.4466L24.7623 21.9912C24.8318 22.3449 24.6017 22.6856 24.248 22.7551C24.2071 22.7637 24.1641 22.768 24.1232 22.7681C24.1226 22.7681 24.1221 22.7676 24.1221 22.767Z" fill="#FA967C"/>
<path d="M9.03401 25.1209H7.23283C6.44291 25.1209 5.80273 24.4808 5.80273 23.6908C5.80273 22.9009 6.44291 22.2607 7.23283 22.2607H9.03401C9.82392 22.2607 10.4641 22.9009 10.4641 23.6908C10.4641 24.4808 9.82392 25.1209 9.03401 25.1209Z" fill="#FA967C"/>
<g style="mix-blend-mode:multiply">
<path d="M16.1025 15.918C16.4627 15.918 16.7539 16.2091 16.7539 16.5693V22.1133C16.7539 22.164 16.7463 22.2134 16.7354 22.2607H17.0049C17.7946 22.2608 18.4344 22.9007 18.4346 23.6904C18.4346 24.4803 17.7947 25.121 17.0049 25.1211H15.2031C14.4134 25.1209 13.7734 24.4802 13.7734 23.6904C13.7736 22.9008 14.4135 22.261 15.2031 22.2607H15.4697C15.4588 22.2134 15.4512 22.164 15.4512 22.1133V16.5693C15.4512 16.2091 15.7423 15.918 16.1025 15.918Z" fill="#D63D4A"/>
</g>
<path d="M25.2352 25.1209H23.434C22.6441 25.1209 22.0039 24.4808 22.0039 23.6908C22.0039 22.9009 22.6441 22.2607 23.434 22.2607H25.2352C26.0251 22.2607 26.6653 22.9009 26.6653 23.6908C26.6653 24.4808 26.0251 25.1209 25.2352 25.1209Z" fill="#FA967C"/>
<path d="M16.1671 7.54311C17.2409 7.54311 18.1115 6.67257 18.1115 5.5987C18.1115 4.52484 17.2409 3.6543 16.1671 3.6543C15.0932 3.6543 14.2227 4.52484 14.2227 5.5987C14.2227 6.67257 15.0932 7.54311 16.1671 7.54311Z" fill="#D63D4A"/>
<path d="M27.7944 17.0643H4.53752C3.7693 17.0643 3.14648 16.4415 3.14648 15.6733C3.14648 14.905 3.7693 14.2822 4.53752 14.2822H27.7966C28.5648 14.2822 29.1876 14.905 29.1876 15.6733C29.1876 16.4415 28.5648 17.0643 27.7966 17.0643H27.7944Z" fill="#D63D4A"/>
</g>
</svg>
