<svg width="32" height="32" viewBox="0 0 32 32" fill="none" xmlns="http://www.w3.org/2000/svg">
<g style="mix-blend-mode:multiply">
<path fill-rule="evenodd" clip-rule="evenodd" d="M16.0023 3.33789C22.9973 3.33789 28.6687 9.00833 28.6689 16.0033C28.6689 17.1452 28.5169 18.2517 28.2327 19.304C28.2049 19.4072 28.1673 19.5053 28.1247 19.5996C28.1111 19.6658 28.0975 19.7332 28.0765 19.8001C27.2108 22.5585 25.4274 24.911 23.083 26.498C22.7199 26.7438 22.2857 26.8586 21.8473 26.8587H10.139C9.70056 26.8587 9.26648 26.7437 8.90332 26.498C6.55824 24.9111 4.77458 22.5589 3.90853 19.8001C3.87791 19.7026 3.85581 19.6057 3.84082 19.5098C3.81475 19.4433 3.79216 19.3746 3.77311 19.304C3.48934 18.2517 3.33691 17.1451 3.33691 16.0033C3.33717 9.00848 9.0075 3.33814 16.0023 3.33789ZM23.8434 16.0033C23.8434 15.7566 23.5747 15.6114 23.3591 15.7311L20.8929 17.1009C20.7491 17.1808 20.6463 17.3167 20.596 17.4733C19.9728 19.4167 18.1513 20.8236 16.001 20.8236C13.8512 20.8235 12.0295 19.4173 11.4059 17.4746C11.3556 17.318 11.2529 17.1821 11.109 17.1022L8.6429 15.7324C8.42886 15.6136 8.16244 15.7584 8.16244 16.0033C8.16249 16.4374 8.19854 16.8632 8.2666 17.278C8.29707 17.4637 8.30726 17.6551 8.30306 17.8483C8.37349 17.9617 8.43248 18.0844 8.47103 18.2155C9.42684 21.4668 12.4325 23.8402 15.9932 23.8405C19.5539 23.8402 22.5607 21.4669 23.5166 18.2155C23.5589 18.0715 23.6211 17.9353 23.7015 17.8132C23.6996 17.6328 23.7108 17.4542 23.7393 17.2806C23.8075 16.8651 23.8434 16.4381 23.8434 16.0033ZM16.0036 8.16211C12.9195 8.16211 10.2503 9.94263 8.96973 12.5319C8.78599 12.9036 9.06945 13.3179 9.48405 13.3249L11.6234 13.3613C11.8306 13.3648 12.0231 13.2597 12.1481 13.0944C13.0288 11.9281 14.4269 11.1739 16.001 11.1738C17.5749 11.1738 18.9719 11.9283 19.8525 13.0944C19.9775 13.2597 20.1701 13.3648 20.3773 13.3613L22.5205 13.3249C22.9351 13.3179 23.2185 12.9036 23.0348 12.5319C21.7546 9.94302 19.0871 8.16239 16.0036 8.16211Z" fill="white"/>
<path d="M7.21519 17.207C7.81029 17.207 8.30668 17.6449 8.47452 18.2159C9.43032 21.4673 12.4359 23.8411 15.9968 23.8411C19.5574 23.8407 22.5634 21.4671 23.5192 18.2159C23.687 17.645 24.1834 17.207 24.7786 17.207H27.2756C27.9865 17.207 28.5481 17.8212 28.4077 18.5182C27.2412 24.3079 22.1277 28.6677 15.9942 28.668C9.86061 28.6678 4.74727 24.308 3.58074 18.5182C3.44031 17.8212 4.00193 17.207 4.7129 17.207H7.21519Z" fill="#D63D4A"/>
<g style="mix-blend-mode:multiply">
<path fill-rule="evenodd" clip-rule="evenodd" d="M16.0009 3.33398C22.9963 3.33428 28.6668 9.00585 28.6668 16.0014C28.6668 17.1429 28.5147 18.2488 28.231 19.3007C27.9767 20.2438 27.0753 20.8285 26.0985 20.8288C24.506 20.8288 23.4801 18.8465 23.7382 17.275C23.8065 16.8591 23.8422 16.4323 23.8422 15.9971C23.8422 15.7525 23.5769 15.6086 23.3629 15.7272L20.8901 17.0979C20.7464 17.1777 20.6438 17.3138 20.5935 17.4704C20.2189 18.64 19.4089 19.6124 18.3555 20.2032C18.0164 20.3933 17.8255 20.792 17.9535 21.1591L18.4778 22.6619C18.6104 23.0423 19.0312 23.2423 19.3944 23.0681C19.527 23.0045 19.6568 22.9351 19.7852 22.8643C18.662 23.4861 17.3715 23.8427 15.9966 23.8427C14.7368 23.8427 13.548 23.5429 12.4935 23.0147C12.8529 23.1802 13.2671 22.9831 13.3988 22.6056L13.926 21.0944C14.0515 20.7345 13.8702 20.344 13.5422 20.1498C12.5365 19.5539 11.7656 18.6038 11.4026 17.4704C11.3524 17.3138 11.2497 17.1778 11.106 17.0979L8.63605 15.7272C8.42281 15.6093 8.1595 15.7533 8.1595 15.9971C8.1595 16.4319 8.19539 16.8582 8.26352 17.2736C8.52137 18.8456 7.49486 20.8288 5.90183 20.8288C4.92505 20.8285 4.02364 20.2438 3.76928 19.3007C3.48562 18.2488 3.33354 17.1429 3.3335 16.0014C3.3335 9.00566 9.00518 3.33398 16.0009 3.33398ZM16.0009 8.15577C12.9159 8.15577 10.2466 9.93725 8.96641 12.5277C8.78271 12.8994 9.06633 13.3135 9.48092 13.3206L11.6219 13.3571C11.8292 13.3606 12.0212 13.2554 12.1463 13.09C13.0271 11.9249 14.4248 11.1726 15.9981 11.1725C17.5711 11.1725 18.9677 11.9251 19.8485 13.09C19.9735 13.2554 20.1655 13.3606 20.3728 13.3571L22.5194 13.3206C22.934 13.3135 23.2176 12.8995 23.0339 12.5277C21.7538 9.93753 19.0855 8.15594 16.0009 8.15577Z" fill="#FA967C"/>
<path d="M5.84139 23.5728C5.83142 23.5595 5.82037 23.5468 5.81046 23.5335C5.80704 23.5288 5.80389 23.524 5.80062 23.5194C5.81392 23.5374 5.82799 23.5549 5.84139 23.5728Z" fill="#FA967C"/>
<path d="M26.1772 23.5335C26.1671 23.5471 26.155 23.5592 26.1449 23.5728C26.1583 23.5549 26.1723 23.5374 26.1857 23.5194C26.1825 23.5238 26.1805 23.5291 26.1772 23.5335Z" fill="#FA967C"/>
</g>
<path d="M13.6001 16.0141C13.6001 14.6817 14.6802 13.6016 16.0126 13.6016C17.345 13.6016 18.4252 14.6817 18.4252 16.0141C18.4252 17.3465 17.345 18.4266 16.0126 18.4266C14.6802 18.4266 13.6001 17.3465 13.6001 16.0141Z" fill="white"/>
</g>
</svg>
