<svg width="32" height="32" viewBox="0 0 32 32" fill="none" xmlns="http://www.w3.org/2000/svg">
<g clip-path="url(#clip0_2316_147488)">
<path d="M26.6665 21.5234C27.6896 21.5234 28.518 22.3761 28.5181 23.4284C28.5181 24.4808 27.6897 25.3333 26.6665 25.3333H4.51807C3.49505 25.3332 2.6665 24.4807 2.6665 23.4284C2.6666 22.3762 3.49511 21.5236 4.51807 21.5234H26.6665Z" fill="#FA967C"/>
<path d="M17.4818 4.66406C18.301 4.66422 18.9633 5.34491 18.9635 6.1875V7.33073H18.9596V16.4102C18.9596 16.9183 19.3721 17.3307 19.8802 17.3307C20.3267 17.3306 20.6977 17.0119 20.7813 16.5898C20.7869 16.585 20.7939 16.5818 20.7995 16.5768V6.66406C20.7995 6.66406 21.107 6.80242 21.5091 6.99609C22.0251 7.21616 22.5174 7.47747 22.9831 7.77604C23.1269 7.86595 23.2618 7.95851 23.3854 8.04818C26.102 9.98067 27.8144 13.2232 27.8516 16.8542V19.9023H4.14844V16.8542C4.14855 13.4631 5.62048 10.4435 8 8.49089V8.46354C8.00154 8.45382 8.04613 8.30046 9.33333 7.55729C10.6666 6.78751 11.2005 6.66406 11.2005 6.66406V16.5768C11.2058 16.5815 11.212 16.5852 11.2174 16.5898C11.3009 17.012 11.6732 17.3306 12.1198 17.3307C12.6279 17.3307 13.0404 16.9182 13.0404 16.4102V7.33073H13.0365V6.1875C13.0367 5.34491 13.699 4.66422 14.5182 4.66406H17.4818Z" fill="#FA967C"/>
<g clip-path="url(#clip1_2316_147488)">
<g style="mix-blend-mode:multiply">
<circle cx="23.6663" cy="21.3333" r="5.33333" fill="#D63D4A"/>
</g>
<path d="M26.3392 19.2957C26.5796 19.1452 26.9004 19.1788 27.1036 19.392C27.3066 19.6055 27.3243 19.9276 27.1622 20.1603L27.0827 20.254L23.8783 23.3022C23.7609 23.4137 23.604 23.4745 23.4421 23.4702C23.2801 23.4658 23.1262 23.3966 23.015 23.2788L20.8848 21.0196L20.8106 20.922C20.6614 20.681 20.6967 20.3611 20.9109 20.159C21.1252 19.9568 21.4472 19.9398 21.6791 20.103L21.7728 20.1837L23.4812 21.9962L26.2416 19.3712L26.3392 19.2957Z" fill="white"/>
</g>
</g>
<defs>
<clipPath id="clip0_2316_147488">
<rect width="32" height="32" fill="white"/>
</clipPath>
<clipPath id="clip1_2316_147488">
<path d="M18.6665 21.3333C18.6665 18.3878 21.0543 16 23.9998 16C26.9454 16 29.3332 18.3878 29.3332 21.3333C29.3332 24.2789 26.9454 26.6667 23.9998 26.6667C21.0543 26.6667 18.6665 24.2789 18.6665 21.3333Z" fill="white"/>
</clipPath>
</defs>
</svg>
