<svg width="32" height="32" viewBox="0 0 32 32" fill="none" xmlns="http://www.w3.org/2000/svg">
<g style="mix-blend-mode:multiply">
<path d="M29.3306 19.9973C29.3306 12.6364 23.361 6.66675 15.9973 6.66675C8.63357 6.66675 2.66675 12.6364 2.66675 19.9973C2.66675 21.0066 2.78107 21.9853 2.99576 22.9305H29.0044C29.2163 21.9853 29.3334 21.0066 29.3334 19.9973H29.3306Z" fill="#FA967C"/>
<path d="M29.3306 19.9973C29.3306 12.6364 23.361 6.66675 15.9973 6.66675C8.63357 6.66675 2.66675 12.6364 2.66675 19.9973C2.66675 21.0066 2.78107 21.9853 2.99576 22.9305H29.0044C29.2163 21.9853 29.3334 21.0066 29.3334 19.9973H29.3306Z" fill="#FA967C"/>
<path d="M22.7139 19.6136H26.3609C26.3609 16.7529 25.201 14.1598 23.3245 12.2861L20.7454 14.8652C21.961 16.0809 22.7111 17.7594 22.7111 19.6136H22.7139Z" fill="white"/>
<g style="mix-blend-mode:multiply">
<path d="M20.7469 14.865L23.326 12.2859C21.4495 10.4094 18.8593 9.24951 15.9985 9.24951V12.8965C17.8527 12.8965 19.5312 13.6493 20.7469 14.8622V14.865Z" fill="#FA967C"/>
</g>
<path d="M15.9976 12.8965V9.24951C13.1369 9.24951 10.5439 10.4094 8.67017 12.2859L11.2493 14.865C12.465 13.6493 14.1435 12.8965 15.9976 12.8965Z" fill="white"/>
<path d="M11.2499 14.8652L8.6708 12.2861C6.79711 14.1626 5.63721 16.7529 5.63721 19.6136H9.28422C9.28422 17.7594 10.0343 16.0809 11.2499 14.8652Z" fill="#D63D4A"/>
<path d="M8.29004 14.7112L11.9036 17.413L15.5199 20.1176L14.6082 21.0293L13.6964 21.9411L10.9918 18.3247L8.29004 14.7112Z" fill="white"/>
<path d="M18.6077 22.5537C18.6077 23.9953 17.4394 25.1663 15.9951 25.1663C14.5508 25.1663 13.3826 23.998 13.3826 22.5537C13.3826 21.1094 14.5508 19.9412 15.9951 19.9412C17.4394 19.9412 18.6077 21.1094 18.6077 22.5537Z" fill="#D63D4A"/>
</g>
</svg>
