<svg width="32" height="32" viewBox="0 0 32 32" fill="none" xmlns="http://www.w3.org/2000/svg">
<path d="M0 10C0 4.47715 4.47715 0 10 0H22C27.5228 0 32 4.47715 32 10V22C32 27.5228 27.5228 32 22 32H10C4.47715 32 0 27.5228 0 22V10Z" fill="#F4F5F6"/>
<g style="mix-blend-mode:multiply">
<path d="M25.9995 16.0093C25.9995 15.03 25.3777 14.1593 24.4519 13.841L22.9769 13.3347H7.00628C6.45071 13.3347 6 13.7854 6 14.341V18.3411H26L25.9995 16.0093Z" fill="#FA967C"/>
<path d="M6 18.3411L6 18.8883C6 19.4164 6.42793 19.8443 6.95596 19.8443H24.9932C25.5488 19.8443 25.9995 19.3936 25.9995 18.838L26 18.3411H6Z" fill="#FA967C"/>
<g style="mix-blend-mode:multiply">
<path d="M22.1425 22.9041C23.605 22.9041 24.7906 21.7185 24.7906 20.256C24.7906 18.7935 23.605 17.6079 22.1425 17.6079C20.68 17.6079 19.4944 18.7935 19.4944 20.256C19.4944 21.7185 20.68 22.9041 22.1425 22.9041Z" fill="#D63D4A"/>
</g>
<path d="M22.1424 21.4596C22.8072 21.4596 23.3461 20.9207 23.3461 20.2559C23.3461 19.5912 22.8072 19.0522 22.1424 19.0522C21.4776 19.0522 20.9387 19.5912 20.9387 20.2559C20.9387 20.9207 21.4776 21.4596 22.1424 21.4596Z" fill="white"/>
<g style="mix-blend-mode:multiply">
<path d="M9.85366 22.9041C11.3162 22.9041 12.5018 21.7185 12.5018 20.256C12.5018 18.7935 11.3162 17.6079 9.85366 17.6079C8.39116 17.6079 7.20557 18.7935 7.20557 20.256C7.20557 21.7185 8.39116 22.9041 9.85366 22.9041Z" fill="#D63D4A"/>
</g>
<path d="M9.85358 21.4596C10.5184 21.4596 11.0573 20.9207 11.0573 20.2559C11.0573 19.5912 10.5184 19.0522 9.85358 19.0522C9.18881 19.0522 8.6499 19.5912 8.6499 20.2559C8.6499 20.9207 9.18881 21.4596 9.85358 21.4596Z" fill="white"/>
<g style="mix-blend-mode:multiply">
<path d="M25.9973 17.8976H25.1949C24.5302 17.8976 23.9912 17.3586 23.9912 16.6939C23.9912 16.0293 24.5302 15.4902 25.1949 15.4902H25.9973V17.8976Z" fill="#D63D4A"/>
</g>
<g style="mix-blend-mode:multiply">
<path d="M20.0125 9.54386C19.4983 8.85219 18.2606 8.28125 17.4386 8.28125H10.6411C9.62159 8.28125 8.90588 9.14642 8.55917 10.0089L7.2356 13.3364H22.9483L20.0125 9.54386Z" fill="#D63D4A"/>
</g>
</g>
</svg>
