<svg width="24" height="24" viewBox="0 0 24 24" fill="none" xmlns="http://www.w3.org/2000/svg">
<rect x="5" y="4" width="14" height="17" rx="2" fill="#FA967C"/>
<g style="mix-blend-mode:multiply">
<path d="M16.2002 14.79C16.6419 14.7901 17 15.1481 17 15.5898C17 16.0316 16.6419 16.3895 16.2002 16.3896H7.7998C7.35808 16.3895 7.00003 16.0316 7 15.5898C7 15.1481 7.35807 14.7901 7.7998 14.79H16.2002ZM14.8799 11.4004C15.3217 11.4004 15.6807 11.7584 15.6807 12.2002C15.6805 12.6419 15.3216 13 14.8799 13H7.87988C7.43835 12.9998 7.08024 12.6417 7.08008 12.2002C7.08008 11.7585 7.43826 11.4006 7.87988 11.4004H14.8799ZM12.8799 8C13.3216 8 13.6806 8.35807 13.6807 8.7998C13.6807 9.24163 13.3217 9.59961 12.8799 9.59961H7.87988C7.43826 9.59937 7.08008 9.24149 7.08008 8.7998C7.08018 8.35821 7.43832 8.00024 7.87988 8H12.8799Z" fill="#D63D4A"/>
</g>
<g style="mix-blend-mode:multiply">
<rect x="9" y="3" width="6" height="2" rx="1" fill="#D63D4A"/>
</g>
</svg>
