<svg width="32" height="33" viewBox="0 0 32 33" fill="none" xmlns="http://www.w3.org/2000/svg">
<path d="M27.6673 16.1667C27.6673 22.61 22.444 27.8333 16.0007 27.8333C9.55733 27.8333 4.33398 22.61 4.33398 16.1667C4.33398 9.72334 9.55733 4.5 16.0007 4.5C22.444 4.5 27.6673 9.72334 27.6673 16.1667Z" fill="white"/>
<path d="M27.6673 16.1667C27.6673 22.61 22.444 27.8333 16.0007 27.8333C9.55733 27.8333 4.33398 22.61 4.33398 16.1667C4.33398 9.72334 9.55733 4.5 16.0007 4.5C22.444 4.5 27.6673 9.72334 27.6673 16.1667Z" fill="#FA967C"/>
<g style="mix-blend-mode:multiply">
<path d="M24.334 16.1667C24.334 11.5643 20.603 7.83333 16.0007 7.83333C11.3983 7.83333 7.66732 11.5643 7.66732 16.1667C7.66732 17.0871 6.92113 17.8333 6.00065 17.8333C5.08018 17.8333 4.33398 17.0871 4.33398 16.1667C4.33398 9.72334 9.55733 4.5 16.0007 4.5C22.444 4.5 27.6673 9.72334 27.6673 16.1667C27.6673 17.0871 26.9211 17.8333 26.0007 17.8333C25.0802 17.8333 24.334 17.0871 24.334 16.1667Z" fill="#D63D4A"/>
</g>
<g style="mix-blend-mode:multiply">
<path d="M18.0105 13.508C18.4658 13.0531 19.2037 13.0529 19.6589 13.508C20.1143 13.9633 20.1143 14.7024 19.6589 15.1577L13.991 20.8257C13.5356 21.281 12.7966 21.281 12.3412 20.8257C11.8862 20.3705 11.8864 19.6326 12.3412 19.1772L18.0105 13.508Z" fill="#D63D4A"/>
<path d="M18.6667 18.5002C19.4031 18.5002 20 19.0972 20.0001 19.8335C20.0001 20.5699 19.4031 21.1668 18.6667 21.1668C17.9304 21.1667 17.3334 20.5698 17.3334 19.8335C17.3335 19.0972 17.9305 18.5002 18.6667 18.5002Z" fill="#D63D4A"/>
<path d="M13.3334 13.1668C14.0697 13.1668 14.6667 13.7638 14.6667 14.5002C14.6667 15.2365 14.0698 15.8335 13.3334 15.8335C12.5971 15.8334 12.0001 15.2365 12.0001 14.5002C12.0002 13.7639 12.5971 13.1669 13.3334 13.1668Z" fill="#D63D4A"/>
</g>
</svg>
