<svg width="32" height="32" viewBox="0 0 32 32" fill="none" xmlns="http://www.w3.org/2000/svg">
<g style="mix-blend-mode:multiply">
<path fill-rule="evenodd" clip-rule="evenodd" d="M16.0025 3.33691C22.9975 3.33691 28.6689 9.00735 28.6692 16.0023C28.6692 17.1442 28.5172 18.2508 28.233 19.3031C28.2051 19.4063 28.1676 19.5043 28.1249 19.5986C28.1114 19.6648 28.0977 19.7322 28.0767 19.7992C27.211 22.5575 25.4276 24.9101 23.0833 26.4971C22.7202 26.7428 22.286 26.8576 21.8476 26.8577H10.1392C9.70081 26.8577 9.26672 26.7427 8.90356 26.4971C6.55848 24.9101 4.77483 22.5579 3.90877 19.7992C3.87815 19.7016 3.85605 19.6047 3.84106 19.5088C3.815 19.4423 3.79241 19.3737 3.77336 19.3031C3.48958 18.2507 3.33716 17.1441 3.33716 16.0023C3.33741 9.0075 9.00775 3.33717 16.0025 3.33691ZM23.8437 16.0023C23.8437 15.7556 23.5749 15.6104 23.3593 15.7301L20.8931 17.0999C20.7494 17.1798 20.6465 17.3157 20.5963 17.4723C19.973 19.4157 18.1516 20.8226 16.0012 20.8226C13.8514 20.8225 12.0298 19.4163 11.4062 17.4736C11.3559 17.317 11.2531 17.1811 11.1093 17.1012L8.64315 15.7314C8.4291 15.6126 8.16268 15.7575 8.16268 16.0023C8.16274 16.4364 8.19878 16.8622 8.26685 17.277C8.29731 17.4627 8.30751 17.6541 8.3033 17.8473C8.37373 17.9607 8.43272 18.0834 8.47127 18.2145C9.42708 21.4658 12.4327 23.8393 15.9934 23.8395C19.5541 23.8392 22.561 21.4659 23.5168 18.2145C23.5592 18.0705 23.6213 17.9344 23.7017 17.8122C23.6998 17.6318 23.711 17.4532 23.7395 17.2796C23.8077 16.8642 23.8436 16.4371 23.8437 16.0023ZM16.0038 8.16113C12.9198 8.16113 10.2505 9.94165 8.96997 12.5309C8.78624 12.9026 9.06969 13.3169 9.48429 13.3239L11.6236 13.3604C11.8308 13.3638 12.0233 13.2587 12.1484 13.0934C13.029 11.9271 14.4271 11.1729 16.0012 11.1729C17.5751 11.1729 18.9722 11.9273 19.8528 13.0934C19.9778 13.2587 20.1703 13.3638 20.3775 13.3604L22.5208 13.3239C22.9354 13.3169 23.2188 12.9026 23.0351 12.5309C21.7549 9.94204 19.0874 8.16142 16.0038 8.16113Z" fill="white"/>
<path d="M7.21543 17.2056C7.81054 17.2056 8.30693 17.6435 8.47477 18.2144C9.43057 21.4658 12.4362 23.8396 15.9971 23.8397C19.5576 23.8392 22.5637 21.4657 23.5194 18.2145C23.6873 17.6435 24.1837 17.2056 24.7788 17.2056H27.2758C27.9868 17.2056 28.5484 17.8197 28.408 18.5167C27.2414 24.3064 22.1279 28.6662 15.9945 28.6665C9.86085 28.6664 4.74751 24.3065 3.58098 18.5167C3.44056 17.8197 4.00218 17.2056 4.71314 17.2056H7.21543Z" fill="#D63D4A"/>
<g style="mix-blend-mode:multiply">
<path fill-rule="evenodd" clip-rule="evenodd" d="M16.0009 3.33325C22.9963 3.33355 28.6668 9.00511 28.6668 16.0006C28.6668 17.1422 28.5147 18.2481 28.231 19.3C27.9767 20.2431 27.0753 20.8278 26.0985 20.828C24.506 20.828 23.4801 18.8457 23.7382 17.2742C23.8065 16.8584 23.8422 16.4316 23.8422 15.9964C23.8422 15.7517 23.5769 15.6079 23.3629 15.7265L20.8901 17.0971C20.7464 17.177 20.6438 17.3131 20.5935 17.4696C20.2189 18.6393 19.4089 19.6117 18.3555 20.2025C18.0164 20.3926 17.8255 20.7913 17.9535 21.1584L18.4778 22.6611C18.6104 23.0415 19.0312 23.2415 19.3944 23.0674C19.527 23.0037 19.6568 22.9344 19.7852 22.8636C18.662 23.4854 17.3715 23.8419 15.9966 23.842C14.7368 23.842 13.548 23.5421 12.4935 23.014C12.8529 23.1794 13.2671 22.9824 13.3988 22.6049L13.926 21.0937C14.0515 20.7338 13.8702 20.3433 13.5422 20.149C12.5365 19.5532 11.7656 18.603 11.4026 17.4696C11.3524 17.3131 11.2497 17.177 11.106 17.0971L8.63605 15.7265C8.42281 15.6086 8.1595 15.7526 8.1595 15.9964C8.1595 16.4311 8.19539 16.8575 8.26352 17.2728C8.52137 18.8449 7.49486 20.828 5.90183 20.828C4.92505 20.8278 4.02364 20.2431 3.76928 19.3C3.48562 18.248 3.33354 17.1422 3.3335 16.0006C3.3335 9.00493 9.00518 3.33325 16.0009 3.33325ZM16.0009 8.15503C12.9159 8.15503 10.2466 9.93651 8.96641 12.527C8.78271 12.8987 9.06633 13.3128 9.48092 13.3198L11.6219 13.3564C11.8292 13.3599 12.0212 13.2546 12.1463 13.0893C13.0271 11.9241 14.4248 11.1718 15.9981 11.1718C17.5711 11.1718 18.9677 11.9244 19.8485 13.0893C19.9735 13.2546 20.1655 13.3599 20.3728 13.3564L22.5194 13.3198C22.934 13.3128 23.2176 12.8987 23.0339 12.527C21.7538 9.9368 19.0855 8.15521 16.0009 8.15503Z" fill="#FA967C"/>
<path d="M5.84139 23.5721C5.83142 23.5587 5.82037 23.5461 5.81046 23.5327C5.80704 23.5281 5.80389 23.5233 5.80062 23.5187C5.81392 23.5367 5.82799 23.5541 5.84139 23.5721Z" fill="#FA967C"/>
<path d="M26.1772 23.5327C26.1671 23.5463 26.155 23.5585 26.1449 23.5721C26.1583 23.5541 26.1723 23.5367 26.1857 23.5187C26.1825 23.5231 26.1805 23.5283 26.1772 23.5327Z" fill="#FA967C"/>
</g>
<path d="M13.6001 16.0124C13.6001 14.68 14.6802 13.5999 16.0126 13.5999C17.345 13.5999 18.4252 14.68 18.4252 16.0124C18.4252 17.3448 17.345 18.4249 16.0126 18.4249C14.6802 18.4249 13.6001 17.3448 13.6001 16.0124Z" fill="white"/>
</g>
</svg>
