<svg width="32" height="32" viewBox="0 0 32 32" fill="none" xmlns="http://www.w3.org/2000/svg">
<g style="mix-blend-mode:multiply">
<g clip-path="url(#clip0_3982_522693)">
<path d="M14.2761 7.40091C13.7608 6.88966 13.5 6.2585 13.5 5.49479C13.5 4.73424 13.7608 4.09676 14.2761 3.58868C14.7883 3.08059 15.375 2.82812 16.1263 2.82812C16.8776 2.82812 17.514 3.08059 18.0417 3.58868C18.5695 4.09676 18.8333 4.73108 18.8333 5.49479C18.8333 6.2585 18.5695 6.88966 18.0417 7.40091C17.514 7.90899 16.8496 8.16146 16.1263 8.16146C15.403 8.16146 14.7883 7.90899 14.2761 7.40091Z" fill="white"/>
<path d="M16.167 21.4922C17.6396 21.4922 18.8335 22.6862 18.8337 24.1589V26.8255H13.5003V24.1589C13.5005 22.6862 14.6943 21.4922 16.167 21.4922Z" fill="#FA967C"/>
<path d="M18.8337 9.49219C21.7791 9.49219 24.1668 11.8802 24.167 14.8255V21.4922C24.167 23.9773 22.4673 26.0655 20.167 26.6576V24.1589C20.1668 21.9499 18.376 20.1589 16.167 20.1589C13.958 20.1589 12.1672 21.9499 12.167 24.1589V26.6576C9.86672 26.0655 8.16699 23.9773 8.16699 21.4922V14.8255C8.16717 11.8802 10.5549 9.49219 13.5003 9.49219H18.8337Z" fill="#FA967C"/>
<path d="M13.5 24.1589C13.5 22.6861 14.6939 21.4922 16.1667 21.4922C17.6394 21.4922 18.8333 22.6861 18.8333 24.1589V28.1589C18.8333 29.6316 17.6394 30.8255 16.1667 30.8255C14.6939 30.8255 13.5 29.6316 13.5 28.1589V24.1589Z" fill="#D9D9D9"/>
<path d="M13.5 24.1589C13.5 22.6861 14.6939 21.4922 16.1667 21.4922C17.6394 21.4922 18.8333 22.6861 18.8333 24.1589V28.1589C18.8333 29.6316 17.6394 30.8255 16.1667 30.8255C14.6939 30.8255 13.5 29.6316 13.5 28.1589V24.1589Z" fill="#D63D4A"/>
<ellipse cx="12.1663" cy="14.8255" rx="1.33333" ry="1.33333" fill="white"/>
<ellipse cx="20.1663" cy="14.8255" rx="1.33333" ry="1.33333" fill="white"/>
<path d="M18.0335 6.82552C18.0335 6.3387 17.8934 5.95375 17.6143 5.63021L17.4867 5.49609C17.1123 5.13572 16.6765 4.95833 16.126 4.95833C15.5897 4.95834 15.2045 5.1251 14.8395 5.48698L14.8369 5.48958C14.4819 5.83988 14.2992 6.26866 14.2992 6.82552C14.2992 7.38381 14.4811 7.80847 14.8395 8.16406L14.9775 8.28906C15.3058 8.56195 15.677 8.69271 16.126 8.69271C16.5871 8.69271 16.999 8.55511 17.3434 8.28125L17.4867 8.15495C17.8522 7.79995 18.0335 7.37913 18.0335 6.82552ZM19.6325 6.82552C19.6325 7.79811 19.2869 8.63898 18.5986 9.30599L18.596 9.30859C17.9119 9.96703 17.0455 10.2917 16.126 10.2917C15.3093 10.2917 14.5815 10.0356 13.9684 9.53125L13.7119 9.29948C13.0399 8.63263 12.7002 7.79452 12.7002 6.82552C12.7002 5.86251 13.038 5.01704 13.7119 4.35156L13.9658 4.12109C14.5716 3.61813 15.2806 3.35938 16.126 3.35938C17.0778 3.35938 17.9149 3.68692 18.596 4.34245L18.8395 4.60156C19.3685 5.22249 19.6325 5.97583 19.6325 6.82552Z" fill="#D63D4A"/>
<path d="M25.5 5.49219L25.6367 5.4987C26.3089 5.56714 26.8333 6.13529 26.8333 6.82552C26.8333 7.51576 26.3089 8.0839 25.6367 8.15234L25.5 8.15885H6.83333C6.09695 8.15885 5.5 7.5619 5.5 6.82552C5.5 6.08914 6.09695 5.49219 6.83333 5.49219H25.5Z" fill="#D63D4A"/>
<circle cx="16.167" cy="6.82812" r="2" fill="white"/>
</g>
</g>
<defs>
<clipPath id="clip0_3982_522693">
<rect width="21.3333" height="28" fill="white" transform="translate(5.5 2.82812)"/>
</clipPath>
</defs>
</svg>
