<svg width="99" height="44" viewBox="0 0 99 44" fill="none" xmlns="http://www.w3.org/2000/svg">
<g clip-path="url(#clip0_2086_23699)">
<rect width="99" height="44" rx="22" fill="#F5F5F5"/>
<g clip-path="url(#clip1_2086_23699)">
<path d="M73.7756 36.9484V33.3029H64.2244V36.9484C64.2244 39.6068 63.2645 42.2448 61.3175 44.0522C61.0486 44.3007 60.9022 44.5662 60.9022 44.8453C60.9022 46.2273 64.5273 47.3506 69 47.3506C73.4727 47.3506 77.0978 46.2307 77.0978 44.8453C77.0978 44.5696 76.9514 44.3007 76.6825 44.0522C74.7355 42.2448 73.7756 39.6068 73.7756 36.9484Z" fill="#F4D1C3"/>
<path d="M87.3048 29.1331C87.3048 27.2984 86.0964 25.7428 84.4319 25.222C84.9868 24.5208 85.3203 23.6392 85.3203 22.6759C85.3203 21.5561 84.871 20.5451 84.146 19.8065C83.227 18.8738 82.6925 17.645 82.6959 16.3379C82.6959 16.3243 82.6959 16.3107 82.6959 16.2971C82.6994 9.13197 77.2021 3.2535 70.197 2.65102C69.9825 2.6306 69.7681 2.61698 69.5502 2.60677C69.3664 2.59996 69.1826 2.59656 68.9988 2.59656C61.432 2.59656 55.2983 8.73032 55.2983 16.2937C55.2983 16.3073 55.2983 16.3209 55.2983 16.3311C55.3017 17.6416 54.7673 18.8704 53.8482 19.8031C53.1232 20.5417 52.6739 21.5561 52.6739 22.6725C52.6739 23.6358 53.0075 24.5174 53.5623 25.2186C51.8978 25.7394 50.6895 27.295 50.6895 29.1297C50.6895 30.8588 51.7617 32.3327 53.2764 32.9352C53.0415 33.5887 52.9564 34.3103 53.1028 35.0728C53.4534 36.9109 55.0498 38.3201 56.9219 38.412C57.5618 38.4426 58.1677 38.3303 58.7158 38.0988C59.4476 39.2153 60.707 39.9505 62.1434 39.9505C64.1483 39.9505 65.8128 38.5107 66.1702 36.6079C67.3479 35.9067 68.3249 34.906 68.9988 33.7147C69.6762 34.906 70.6531 35.9067 71.8274 36.6079C72.1814 38.5107 73.8493 39.9505 75.8542 39.9505C77.2872 39.9505 78.5466 39.2119 79.2819 38.0988C79.8299 38.3303 80.4392 38.4426 81.0757 38.412C82.9444 38.3167 84.5443 36.9109 84.8948 35.0728C85.0412 34.3103 84.9561 33.5853 84.7212 32.9352C86.236 32.3327 87.3082 30.8554 87.3082 29.1297L87.3048 29.1331Z" fill="#C1C1C1"/>
<path d="M58.8898 28.6225C57.4534 28.4047 56.2314 27.3291 55.8944 25.8212C55.5574 24.3201 56.2042 22.8326 57.4057 22.019L58.7707 28.1494C58.8081 28.3094 58.8456 28.466 58.8864 28.6191L58.8898 28.6225Z" fill="#F4D1C3"/>
<path d="M60.2349 28.5782C59.7822 28.6803 59.3261 28.6905 58.8938 28.6259C58.8495 28.4659 58.8155 28.3093 58.778 28.1527L57.4131 22.0224C57.7807 21.7739 58.196 21.5867 58.6555 21.488C60.6127 21.0523 62.5563 22.2845 62.992 24.2417C63.4277 26.1989 62.1955 28.1425 60.2383 28.5782H60.2349Z" fill="#E8BBAA"/>
<path d="M79.1084 28.6225C80.5448 28.4047 81.7668 27.3291 82.1038 25.8212C82.4408 24.3201 81.794 22.8326 80.5925 22.019L79.2275 28.1494C79.1901 28.3094 79.1526 28.466 79.1118 28.6191L79.1084 28.6225Z" fill="#F4D1C3"/>
<path d="M77.7644 28.5782C78.2171 28.6803 78.6732 28.6905 79.1055 28.6259C79.1498 28.4659 79.1838 28.3093 79.2212 28.1527L80.5862 22.0224C80.2186 21.7739 79.8033 21.5867 79.3438 21.488C77.3866 21.0523 75.443 22.2845 75.0073 24.2417C74.5716 26.1989 75.8038 28.1425 77.761 28.5782H77.7644Z" fill="#E8BBAA"/>
<path d="M73.7749 34.324V39.0213C72.2942 39.6272 70.6808 39.9574 68.9992 39.9574C67.3177 39.9574 65.7043 39.6272 64.2236 39.0213V34.324H73.7749Z" fill="#E8BBAA"/>
<path d="M68.8528 37.6632C64.9281 37.6632 61.5311 34.9299 60.6937 31.0971L57.6847 17.3455C57.2014 10.8509 62.3412 5.31287 68.8528 5.31287C75.3678 5.31287 80.5076 10.8509 80.0208 17.3455L77.0118 31.0971C76.1711 34.9299 72.7774 37.6632 68.8528 37.6632Z" fill="#F4D1C3"/>
<path d="M64.9999 23.9252C65.6691 23.9252 66.2116 23.5701 66.2116 23.1321C66.2116 22.6941 65.6691 22.339 64.9999 22.339C64.3306 22.339 63.7881 22.6941 63.7881 23.1321C63.7881 23.5701 64.3306 23.9252 64.9999 23.9252Z" fill="#453C56"/>
<path d="M68.0096 26.1377C68.2547 25.9539 68.6087 25.8416 69.0002 25.8416C69.3916 25.8416 69.7422 25.9573 69.9907 26.1377" stroke="#D1A193" stroke-width="0.680772" stroke-linecap="round" stroke-linejoin="round"/>
<path d="M66.3651 20.4771C66.3004 20.4771 66.2357 20.4635 66.171 20.4396C65.7728 20.2763 65.1975 20.1809 64.5985 20.1809C63.9994 20.1809 63.4207 20.2763 63.0293 20.4396C62.7672 20.5486 62.471 20.426 62.3621 20.1639C62.2532 19.9052 62.3757 19.6057 62.6378 19.4968C63.1586 19.2789 63.8564 19.1598 64.6019 19.1598C65.3473 19.1598 66.0383 19.2789 66.5625 19.4968C66.8246 19.6057 66.9471 19.9018 66.8416 20.1639C66.7599 20.3614 66.5693 20.4805 66.3685 20.4805L66.3651 20.4771Z" fill="#C1C1C1"/>
<path d="M71.6344 20.4771C71.4336 20.4771 71.243 20.3579 71.1613 20.1605C71.0524 19.8984 71.1783 19.6023 71.4404 19.4934C71.9646 19.2755 72.6624 19.1564 73.401 19.1564C74.1397 19.1564 74.8443 19.2755 75.3651 19.4934C75.6237 19.6023 75.7463 19.9018 75.6408 20.1605C75.5318 20.4192 75.2357 20.5451 74.9736 20.4362C74.5822 20.2728 74.0103 20.1775 73.4044 20.1775C72.7985 20.1775 72.2301 20.2728 71.8318 20.4362C71.7672 20.4635 71.7025 20.4737 71.6378 20.4737L71.6344 20.4771Z" fill="#C1C1C1"/>
<path d="M70.3505 30.3279C70.3335 30.43 70.3029 30.5219 70.2688 30.6138C70.0612 31.0869 69.5744 31.4239 69.0026 31.4239C68.4307 31.4239 67.944 31.0903 67.7397 30.6138C67.6989 30.5253 67.6717 30.43 67.6512 30.3279C68.0529 30.4777 68.5124 30.5627 69.0026 30.5627C69.4927 30.5627 69.9523 30.4777 70.3539 30.3279H70.3505Z" fill="#E8BBAA"/>
<path d="M71.7863 28.7552C71.337 28.9152 70.258 29.0276 68.9986 29.0276C67.7391 29.0276 66.6601 28.9152 66.2108 28.7552" stroke="#F4807D" stroke-width="0.680772" stroke-linecap="round" stroke-linejoin="round"/>
<path d="M66.1838 23.0742C65.7209 22.9517 65.0775 22.8734 64.3559 22.8632C63.6377 22.8564 62.9774 22.9176 62.494 23.0334C62.797 22.407 63.573 21.9577 64.441 21.9679C65.309 21.9748 66 22.4411 66.1872 23.0742H66.1838Z" fill="#453C56"/>
<path d="M72.9989 23.9252C73.6681 23.9252 74.2107 23.5701 74.2107 23.1321C74.2107 22.6941 73.6681 22.339 72.9989 22.339C72.3296 22.339 71.7871 22.6941 71.7871 23.1321C71.7871 23.5701 72.3296 23.9252 72.9989 23.9252Z" fill="#453C56"/>
<path d="M71.8149 23.0742C72.2779 22.9517 72.9212 22.8734 73.6428 22.8632C74.361 22.8564 75.0214 22.9176 75.5047 23.0334C75.2018 22.407 74.4257 21.9577 73.5577 21.9679C72.6897 21.9748 71.9987 22.4411 71.8115 23.0742H71.8149Z" fill="#453C56"/>
<path d="M57.1339 25.4706L58.5465 25.2664" stroke="#E8BBAA" stroke-width="1.02116" stroke-linecap="round" stroke-linejoin="round"/>
<path d="M80.5728 25.4706L79.1602 25.2664" stroke="#E8BBAA" stroke-width="1.02116" stroke-linecap="round" stroke-linejoin="round"/>
<path d="M81.0866 17.7336C81.0866 17.9582 81.0832 18.1829 81.073 18.4109C81.0628 18.639 81.0322 18.8568 80.9879 19.0747L80.6101 20.9843C80.1642 13.0465 75.1367 9.08096 68.9995 9.08096C62.8624 9.08096 57.8349 13.0499 57.3889 20.9843L56.9464 18.7479C56.4222 10.9735 61.9671 4.34619 68.9995 4.34619C76.0319 4.34619 81.0866 10.4051 81.0866 17.7336Z" fill="#B2B2B2"/>
<path d="M58.6516 21.488C58.6516 21.488 58.0968 12.3826 64.7718 9.78889L63.0766 8.57031L56.6025 13.0089L56.1328 16.0758C55.9251 17.4306 56.3234 18.8091 57.222 19.8439L58.6516 21.4914V21.488Z" fill="#C1C1C1"/>
<path d="M79.3477 21.488C79.3477 21.488 79.9025 12.3826 73.2275 9.78889L74.9227 8.57031L81.3968 13.0089L81.8665 16.0758C82.0742 17.4306 81.6759 18.8091 80.7773 19.8439L79.3477 21.4914V21.488Z" fill="#C1C1C1"/>
<path d="M68.9993 9.08099C68.9993 9.08099 68.2164 7.59351 66.8753 8.56701C65.5308 9.54052 64.85 10.3438 64.2237 13.2814C63.5974 16.2189 59.1894 23.4759 59.1894 23.4759L56.4697 20.1878L57.593 10.9361L61.8478 5.72819L68.9959 3.11743V9.08099H68.9993Z" fill="#C1C1C1"/>
<path d="M68.9999 9.08099C68.9999 9.08099 69.7828 7.59351 71.1239 8.56701C72.465 9.54052 73.1492 10.3438 73.7755 13.2814C74.4018 16.2189 78.8098 23.4759 78.8098 23.4759L81.5295 20.1878L80.4062 10.9361L76.1514 5.72819L68.9999 3.11743V9.08099Z" fill="#C1C1C1"/>
<path d="M65.9222 27.1112C65.9222 27.1112 64.5947 29.1978 64.5947 30.9269" stroke="#E8BBAA" stroke-width="0.680772" stroke-linecap="round" stroke-linejoin="round"/>
<path d="M72.0762 27.1112C72.0762 27.1112 73.4037 29.1978 73.4037 30.9269" stroke="#E8BBAA" stroke-width="0.680772" stroke-linecap="round" stroke-linejoin="round"/>
<path d="M45.1866 18.0232V18.1933H45.1919C45.1442 20.7612 44.021 22.8707 42.5465 23.578L42.402 23.6473L42.4625 23.7957C42.7404 24.477 42.8958 25.2245 42.8958 26.012C42.8958 29.1595 40.4114 31.7067 37.3578 31.7067C34.9472 31.7067 32.8982 30.1204 32.1372 27.9038L31.9762 27.4348L31.8153 27.9038C31.0543 30.1204 29.0053 31.7067 26.5947 31.7067C23.541 31.7067 21.0567 29.1628 21.0567 26.012C21.0567 25.224 21.2089 24.4768 21.4897 23.7963L21.5511 23.6476L21.406 23.578C19.8991 22.8552 18.7591 20.6677 18.7591 18.0232C18.7591 16.806 18.9999 15.6792 19.4116 14.7495L19.4397 14.6862L19.4156 14.6214C18.9503 13.3675 18.9004 11.7105 19.3989 10.0177L19.3989 10.0176C19.78 8.72038 20.4183 7.6208 21.1751 6.82748C21.9332 6.03284 22.8012 5.5543 23.6424 5.47579L23.7376 5.46691L23.7795 5.38103C24.1288 4.66598 24.6632 3.99607 25.3665 3.46446L25.3665 3.46442C25.8549 3.09497 26.7878 2.80226 27.978 2.60434C29.1592 2.40793 30.5647 2.30923 31.9728 2.30923C33.381 2.30923 34.7865 2.40793 35.9677 2.60434C37.1579 2.80225 38.0908 3.09496 38.5791 3.46438C39.2859 3.99944 39.8169 4.66599 40.1662 5.38103L40.2081 5.46691L40.3033 5.47579C41.1445 5.5543 42.0124 6.03284 42.7706 6.82748C43.5274 7.6208 44.1657 8.72038 44.5468 10.0176L44.5469 10.0178C45.0453 11.7071 44.9954 13.3674 44.5301 14.6214L44.506 14.6862L44.5341 14.7495C44.9458 15.6792 45.1866 16.806 45.1866 18.0232Z" fill="#C0B3A8" stroke="#C0B3A8" stroke-width="0.340386"/>
<path d="M36.7484 36.489V32.8435H27.1972V36.489C27.1972 39.1475 26.2373 41.7854 24.2903 43.5929C24.0214 43.8414 23.875 44.1069 23.875 44.386C23.875 45.768 27.5001 46.8912 31.9728 46.8912C36.4455 46.8912 40.0706 45.7714 40.0706 44.386C40.0706 44.1103 39.9242 43.8414 39.6553 43.5929C37.7083 41.7854 36.7484 39.1475 36.7484 36.489Z" fill="#F4D1C3"/>
<path d="M18.7677 18.7895L18.7675 18.7889C18.5525 17.8381 18.4416 16.85 18.4416 15.8345C18.4416 8.36511 24.4991 2.30752 31.9719 2.30752C32.1533 2.30752 32.3348 2.31088 32.5162 2.31759C32.732 2.32771 32.9433 2.34115 33.1539 2.36122V2.36122L33.1555 2.36136C40.0733 2.95633 45.5023 8.76181 45.5023 15.8345C45.5023 16.9071 45.3779 17.9492 45.1425 18.9509C43.734 24.921 38.3721 29.3648 31.9719 29.3648C25.5719 29.3648 20.1122 24.8398 18.7677 18.7895Z" fill="#C0B3A8" stroke="#C0B3A8" stroke-width="0.340386"/>
<path d="M20.6268 28.0475C19.238 27.6254 18.1828 26.383 18.0671 24.8444C17.9514 23.3093 18.8057 21.9307 20.1128 21.301L20.5792 27.5641C20.5928 27.7275 20.6064 27.8875 20.6268 28.0475Z" fill="#F4D1C3"/>
<path d="M21.9615 28.1973C21.4985 28.2313 21.0458 28.1769 20.6271 28.0509C20.6067 27.8876 20.5931 27.7276 20.5795 27.5642L20.1132 21.3011C20.5114 21.1071 20.9505 20.9845 21.4202 20.9505C23.4217 20.8007 25.1645 22.3018 25.3143 24.3033C25.464 26.3048 23.9629 28.0475 21.9615 28.1973Z" fill="#E8BBAA"/>
<path d="M45.8743 24.8444C45.7586 26.383 44.7034 27.6254 43.3146 28.0509C43.335 27.8909 43.3486 27.7275 43.3622 27.5641L43.8286 21.301C45.1356 21.9307 45.99 23.3093 45.8743 24.8444Z" fill="#F4D1C3"/>
<path d="M43.8286 21.3011L43.3623 27.5642C43.3486 27.7276 43.335 27.891 43.3146 28.0509C42.8959 28.1769 42.4432 28.2313 41.9803 28.1973C39.9788 28.0475 38.4777 26.3048 38.6275 24.3033C38.7773 22.3018 40.52 20.8007 42.5215 20.9505C42.9912 20.9845 43.4303 21.1071 43.8286 21.3011Z" fill="#E8BBAA"/>
<path d="M36.7485 33.8647V38.5621C35.2678 39.168 33.6544 39.4981 31.9729 39.4981C30.2914 39.4981 28.6779 39.168 27.1973 38.5621V33.8647H36.7485Z" fill="#E8BBAA"/>
<path d="M31.972 37.1154C26.5293 37.1154 22.0055 32.9185 21.6005 27.4893L20.804 16.8012C20.3206 10.3066 25.4605 4.76855 31.972 4.76855C38.487 4.76855 43.6269 10.3066 43.1401 16.8012L42.3436 27.4893C41.9385 32.9185 37.4148 37.1154 31.972 37.1154Z" fill="#F4D1C3"/>
<path d="M27.9186 22.8227C28.4901 22.8227 28.9533 22.3594 28.9533 21.7879C28.9533 21.2165 28.4901 20.7532 27.9186 20.7532C27.3471 20.7532 26.8838 21.2165 26.8838 21.7879C26.8838 22.3594 27.3471 22.8227 27.9186 22.8227Z" fill="#453C56"/>
<path d="M32.9632 25.3823C32.7181 25.5661 32.3641 25.6785 31.9727 25.6785C31.5813 25.6785 31.2307 25.5627 30.9822 25.3823" stroke="#D1A193" stroke-width="0.680772" stroke-linecap="round" stroke-linejoin="round"/>
<path d="M30.7236 31.4038C30.7407 31.3119 30.7679 31.2234 30.8019 31.1417C30.9925 30.7026 31.4453 30.3928 31.9729 30.3928C32.5005 30.3928 32.9532 30.7026 33.1404 31.1417C33.1778 31.2234 33.205 31.3119 33.2221 31.4038C32.851 31.2642 32.4256 31.1859 31.9729 31.1859C31.5201 31.1859 31.0947 31.2642 30.7236 31.4038Z" fill="#E8BBAA"/>
<path d="M34.7601 28.9189C33.9091 29.1028 32.9663 29.2049 31.9723 29.2049C30.9784 29.2049 30.0355 29.1028 29.1846 28.9189" stroke="#F4807D" stroke-width="0.680772" stroke-linecap="round" stroke-linejoin="round"/>
<path opacity="0.5" d="M25.2026 27.748C26.5091 27.748 27.5683 26.6888 27.5683 25.3823C27.5683 24.0758 26.5091 23.0166 25.2026 23.0166C23.8961 23.0166 22.8369 24.0758 22.8369 25.3823C22.8369 26.6888 23.8961 27.748 25.2026 27.748Z" fill="url(#paint0_radial_2086_23699)"/>
<path opacity="0.5" d="M38.7428 27.748C40.0493 27.748 41.1084 26.6888 41.1084 25.3823C41.1084 24.0758 40.0493 23.0166 38.7428 23.0166C37.4362 23.0166 36.3771 24.0758 36.3771 25.3823C36.3771 26.6888 37.4362 27.748 38.7428 27.748Z" fill="url(#paint1_radial_2086_23699)"/>
<path d="M28.6432 21.1683C28.2143 21.1955 27.6459 21.2976 27.0298 21.4712C26.4171 21.6448 25.8759 21.8558 25.498 22.0601C25.5729 21.5291 26.1005 21.0083 26.8392 20.8006C27.5778 20.5896 28.2994 20.7564 28.6432 21.1683Z" fill="#453C56"/>
<path d="M36.0229 22.8226C36.5944 22.8226 37.0577 22.3593 37.0577 21.7878C37.0577 21.2163 36.5944 20.7531 36.0229 20.7531C35.4514 20.7531 34.9882 21.2163 34.9882 21.7878C34.9882 22.3593 35.4514 22.8226 36.0229 22.8226Z" fill="#453C56"/>
<path d="M35.2977 21.1683C35.7266 21.1955 36.2951 21.2976 36.9112 21.4712C37.5239 21.6448 38.0651 21.8558 38.4429 22.0601C38.368 21.5291 37.8404 21.0083 37.1018 20.8006C36.3631 20.5896 35.6415 20.7564 35.2977 21.1683Z" fill="#453C56"/>
<path d="M19.3439 24.6743H20.7701" stroke="#E8BBAA" stroke-width="1.02116" stroke-linecap="round" stroke-linejoin="round"/>
<path d="M44.6005 24.6743H43.1709" stroke="#E8BBAA" stroke-width="1.02116" stroke-linecap="round" stroke-linejoin="round"/>
<path d="M19.7686 16.0068L22.5417 15.6231L22.0506 23.6385C22.0506 23.6387 22.0506 23.6388 22.0506 23.6389C22.0325 23.9109 21.81 24.1195 21.5397 24.1195C21.2893 24.1195 21.0746 23.938 21.0337 23.6902C21.0337 23.6902 21.0337 23.6901 21.0337 23.6901L19.7686 16.0068Z" fill="#C0B3A8" stroke="#C0B3A8" stroke-width="0.340386"/>
<path d="M41.8944 23.6385L41.4034 15.6231L44.1764 16.0068L42.9114 23.6901C42.8705 23.9379 42.6558 24.1195 42.4054 24.1195C42.1351 24.1195 41.9126 23.9109 41.8944 23.6389C41.8944 23.6388 41.8944 23.6387 41.8944 23.6385Z" fill="#C0B3A8" stroke="#C0B3A8" stroke-width="0.340386"/>
<path d="M25.2977 19.7488C25.0765 19.7488 24.8722 19.6058 24.8076 19.3812C24.7293 19.1123 24.8825 18.8263 25.1514 18.748C25.2194 18.7276 26.8601 18.2511 28.8888 18.4553C29.1679 18.4825 29.3756 18.7344 29.3449 19.0135C29.3177 19.2927 29.0692 19.5003 28.7867 19.4697C26.9656 19.2859 25.4543 19.7215 25.4373 19.7284C25.3896 19.742 25.342 19.7488 25.2943 19.7488H25.2977Z" fill="#C1C1C1"/>
<path d="M38.6478 19.7489C38.6001 19.7489 38.5525 19.7421 38.5048 19.7285C38.4912 19.7251 36.9765 19.2894 35.1554 19.4698C34.8763 19.497 34.6244 19.2928 34.5972 19.0137C34.5699 18.7346 34.7742 18.4827 35.0533 18.4554C37.082 18.2546 38.7226 18.7277 38.7907 18.7482C39.0596 18.8265 39.2162 19.1124 39.1345 19.3813C39.0698 19.6025 38.8656 19.7489 38.6443 19.7489H38.6478Z" fill="#C1C1C1"/>
<path d="M19.7432 19.2826C19.8155 10.7848 25.2971 3.98904 31.9725 3.98904C38.6479 3.98904 44.1296 10.7848 44.2019 19.2826H42.2236C42.1327 13.6984 37.5784 9.20035 31.9725 9.20035C26.3667 9.20035 21.8123 13.6984 21.7215 19.2826H19.7432Z" fill="#C0B3A8" stroke="#C0B3A8" stroke-width="0.340386"/>
<path d="M28.895 26.8834C28.895 26.8834 27.5675 28.97 27.5675 30.6992" stroke="#E8BBAA" stroke-width="0.680772" stroke-linecap="round" stroke-linejoin="round"/>
<path d="M35.0468 26.8834C35.0468 26.8834 36.3743 28.97 36.3743 30.6992" stroke="#E8BBAA" stroke-width="0.680772" stroke-linecap="round" stroke-linejoin="round"/>
<path d="M35.628 8.61146C35.628 10.6305 33.9913 12.2672 31.9723 12.2672C29.9533 12.2672 28.3166 10.6305 28.3166 8.61146C28.3166 6.59245 29.9533 4.95572 31.9723 4.95572C33.9913 4.95572 35.628 6.59245 35.628 8.61146Z" fill="#C0B3A8" stroke="#C0B3A8" stroke-width="0.340386"/>
<path d="M23.6186 20.0247H30.6817V22.0806C30.6817 23.3911 29.6162 24.4565 28.3058 24.4565H25.9911C24.6806 24.4565 23.6152 23.3911 23.6152 22.0806V20.0247H23.6186Z" stroke="#C0B3A8" stroke-width="0.680772" stroke-linecap="round" stroke-linejoin="round"/>
<path d="M37.9498 24.4564H35.6352C34.3247 24.4564 33.2593 23.391 33.2593 22.0805V20.0246H40.3223V22.0805C40.3223 23.391 39.2569 24.4564 37.9464 24.4564H37.9498Z" stroke="#C0B3A8" stroke-width="0.680772" stroke-linecap="round" stroke-linejoin="round"/>
<path d="M30.6865 21.0254H33.2598" stroke="#C0B3A8" stroke-width="0.680772" stroke-linecap="round" stroke-linejoin="round"/>
</g>
</g>
<defs>
<radialGradient id="paint0_radial_2086_23699" cx="0" cy="0" r="1" gradientUnits="userSpaceOnUse" gradientTransform="translate(25.2026 25.3823) scale(2.36568)">
<stop stop-color="#FF8885"/>
<stop offset="1" stop-color="#FF8885" stop-opacity="0"/>
</radialGradient>
<radialGradient id="paint1_radial_2086_23699" cx="0" cy="0" r="1" gradientUnits="userSpaceOnUse" gradientTransform="translate(47.8124 35.0611) rotate(180) scale(2.36255)">
<stop stop-color="#FF8885"/>
<stop offset="1" stop-color="#FF8885" stop-opacity="0"/>
</radialGradient>
<clipPath id="clip0_2086_23699">
<rect width="99" height="44" rx="22" fill="white"/>
</clipPath>
<clipPath id="clip1_2086_23699">
<rect width="96.4907" height="59.6458" fill="white" transform="translate(1.49316 -2.17505)"/>
</clipPath>
</defs>
</svg>
