<svg width="44" height="44" viewBox="0 0 44 44" fill="none" xmlns="http://www.w3.org/2000/svg">
<g clip-path="url(#clip0_2086_24032)">
<rect width="44" height="44" rx="22" fill="#F5F5F5"/>
<g clip-path="url(#clip1_2086_24032)">
<path d="M41.2873 48.1853C39.5162 46.9931 39.0483 44.5878 40.244 42.8202C41.4363 41.0492 40.9719 38.6474 39.2008 37.4552C37.4298 36.2629 36.9619 33.8577 38.1576 32.0901C39.3499 30.3191 38.8855 27.9173 37.1144 26.725C35.3434 25.5328 34.8755 23.1275 36.0712 21.36C36.7921 20.2925 36.903 18.9963 36.494 17.8734L35.3122 13.3436H35.3087C34.8235 10.7927 33.6348 8.39441 31.8429 6.46396C29.2159 3.622 25.4936 2 21.6292 2C17.7648 2 14.0426 3.622 11.4155 6.45356C9.62368 8.38401 8.43491 10.7823 7.94969 13.3332L6.76785 17.8595C6.35542 18.9824 6.46633 20.2821 7.18722 21.3531C8.37945 23.1241 7.91503 25.5259 6.14401 26.7181C4.37298 27.9104 3.9051 30.3156 5.1008 32.0832C6.29304 33.8542 5.82862 36.256 4.05759 37.4482C2.28657 38.6405 1.81869 41.0457 3.01439 42.8133C4.20662 44.5843 3.74221 46.9861 1.97118 48.1784C0.200155 49.3706 -0.267729 51.7759 0.927973 53.5434H42.3339C43.5262 51.7724 43.0617 49.3706 41.2907 48.1784L41.2873 48.1853Z" fill="#B28D7B"/>
<path d="M5.05954 42.8827H38.1996C44.0949 42.8827 48.8812 47.669 48.8812 53.5643V61.9619H-5.62207V53.5643C-5.62207 47.669 -0.835795 42.8827 5.05954 42.8827Z" fill="#E5C1CF"/>
<path d="M34.0368 42.8861L25.8714 62H17.3871L9.22168 42.8861H34.0368Z" fill="#E5C1CF"/>
<path d="M31.9537 44.2482C31.9537 47.6585 26.6198 48.875 21.6291 48.875C16.6383 48.875 11.3044 47.6585 11.3044 44.2482C11.3044 43.8739 11.3772 43.3921 11.6441 42.8861H31.621C31.8844 43.3921 31.9537 43.8739 31.9537 44.2482Z" fill="#E5C1CF"/>
<path d="M26.4915 36.2075V32.4956H16.7664V36.2075C16.7664 38.9143 15.7891 41.6003 13.8066 43.4406C13.5328 43.6936 13.3838 43.964 13.3838 44.2481C13.3838 45.6553 17.0749 46.799 21.6289 46.799C26.183 46.799 29.8741 45.6587 29.8741 44.2481C29.8741 43.9674 29.7251 43.6936 29.4513 43.4406C27.4688 41.6003 26.4915 38.9143 26.4915 36.2075Z" fill="#F4D1C3"/>
<path d="M11.3357 27.7337C9.87313 27.5119 8.62891 26.4167 8.28579 24.8813C7.94268 23.3529 8.60118 21.8383 9.82461 21.01L11.2144 27.2519C11.2525 27.4148 11.2906 27.5742 11.3322 27.7302L11.3357 27.7337Z" fill="#F4D1C3"/>
<path d="M12.7052 27.6886C12.2442 27.7926 11.7798 27.8029 11.3397 27.7371C11.2946 27.5742 11.2599 27.4148 11.2218 27.2554L9.83203 21.0134C10.2063 20.7604 10.6292 20.5698 11.0971 20.4693C13.0899 20.0257 15.0689 21.2803 15.5125 23.2731C15.9561 25.266 14.7015 27.245 12.7086 27.6886H12.7052Z" fill="#E8BBAA"/>
<path d="M31.9229 27.7337C33.3854 27.5119 34.6296 26.4167 34.9728 24.8813C35.3159 23.3529 34.6574 21.8383 33.4339 21.01L32.0442 27.2519C32.006 27.4148 31.9679 27.5742 31.9263 27.7302L31.9229 27.7337Z" fill="#F4D1C3"/>
<path d="M30.5537 27.6886C31.0147 27.7926 31.4791 27.8029 31.9192 27.7371C31.9643 27.5742 31.999 27.4148 32.0371 27.2554L33.4269 21.0134C33.0526 20.7604 32.6297 20.5698 32.1618 20.4693C30.169 20.0257 28.19 21.2803 27.7464 23.2731C27.3028 25.266 28.5574 27.245 30.5502 27.6886H30.5537Z" fill="#E8BBAA"/>
<path d="M26.4926 33.5354V38.3182C24.985 38.9351 23.3422 39.2713 21.6301 39.2713C19.918 39.2713 18.2752 38.9351 16.7676 38.3182V33.5354H26.4926Z" fill="#E8BBAA"/>
<path d="M21.6297 36.8453C17.6336 36.8453 14.1748 34.0622 13.3222 30.1597L10.2584 16.1579C9.76625 9.54511 14.9996 3.90625 21.6297 3.90625C28.2632 3.90625 33.4966 9.54511 33.001 16.1579L29.9372 30.1597C29.0812 34.0622 25.6258 36.8453 21.6297 36.8453Z" fill="#F4D1C3"/>
<path d="M17.3246 22.6527C18.0061 22.6527 18.5585 22.1003 18.5585 21.4189C18.5585 20.7375 18.0061 20.1851 17.3246 20.1851C16.6432 20.1851 16.0908 20.7375 16.0908 21.4189C16.0908 22.1003 16.6432 22.6527 17.3246 22.6527Z" fill="#453C56"/>
<path d="M25.9379 22.6527C26.6194 22.6527 27.1718 22.1003 27.1718 21.4189C27.1718 20.7375 26.6194 20.1851 25.9379 20.1851C25.2565 20.1851 24.7041 20.7375 24.7041 21.4189C24.7041 22.1003 25.2565 22.6527 25.9379 22.6527Z" fill="#453C56"/>
<path d="M20.6208 25.2001C20.8704 25.0129 21.2308 24.8986 21.6294 24.8986C22.028 24.8986 22.3849 25.0164 22.6379 25.2001" stroke="#D1A193" stroke-width="0.693161" stroke-linecap="round" stroke-linejoin="round"/>
<path d="M18.2434 20.6079C17.8067 20.6356 17.2279 20.7396 16.6006 20.9163C15.9768 21.0931 15.4257 21.308 15.041 21.5159C15.1173 20.9753 15.6545 20.445 16.4065 20.2336C17.1586 20.0187 17.8934 20.1885 18.2434 20.6079Z" fill="#453C56"/>
<path d="M25.0154 20.6079C25.4521 20.6356 26.0309 20.7396 26.6582 20.9163C27.282 21.0931 27.8331 21.308 28.2178 21.5159C28.1415 20.9753 27.6043 20.445 26.8523 20.2336C26.1002 20.0187 25.3654 20.1885 25.0154 20.6079Z" fill="#453C56"/>
<path d="M9.54785 24.5208L10.9862 24.3129" stroke="#E8BBAA" stroke-width="1.03974" stroke-linecap="round" stroke-linejoin="round"/>
<path d="M33.7108 24.5208L32.2725 24.3129" stroke="#E8BBAA" stroke-width="1.03974" stroke-linecap="round" stroke-linejoin="round"/>
<path d="M15.3911 18.7398C15.048 18.7398 14.7499 18.4833 14.7049 18.1333C14.6563 17.752 14.9267 17.4055 15.3044 17.3569L18.2261 16.9861C18.6073 16.9376 18.9539 17.2079 19.0025 17.5857C19.051 17.9669 18.7806 18.3135 18.4029 18.362L15.4812 18.7329C15.4535 18.7363 15.4223 18.7398 15.3945 18.7398H15.3911Z" fill="#B28D7B"/>
<path d="M27.8675 18.7399C27.8398 18.7399 27.8086 18.7399 27.7809 18.7329L24.8592 18.3621C24.4779 18.3136 24.2111 17.967 24.2596 17.5857C24.3081 17.2045 24.6582 16.9376 25.0359 16.9862L27.9576 17.357C28.3389 17.4055 28.6057 17.7521 28.5572 18.1333C28.5121 18.4834 28.2141 18.7399 27.871 18.7399H27.8675Z" fill="#B28D7B"/>
<path d="M33.9367 17.2703C33.9367 17.61 33.9263 17.9566 33.9021 18.2997L33.4515 20.5767C32.9975 12.4945 27.8785 8.4568 21.6296 8.4568C15.3808 8.4568 10.2618 12.4979 9.80778 20.5767L9.35723 18.2997C8.82349 10.3838 14.4693 3.63586 21.6296 3.63586C28.79 3.63586 33.9367 9.80499 33.9367 17.2669V17.2703Z" fill="#B28D7B"/>
<path d="M16.4897 9.7981C15.8001 10.6645 15.4223 11.732 15.0584 12.7752C14.7014 13.7942 14.3444 14.8166 13.9874 15.8355C13.3983 17.5199 12.7363 19.3083 11.3014 20.3757C11.2044 20.4485 11.0935 20.5178 10.9722 20.504C10.8544 20.4866 10.7677 20.3931 10.6949 20.2995C9.81808 19.18 9.7245 17.6308 9.92552 16.2202C10.2998 13.5689 11.6134 11.0493 13.6131 9.26436C14.3617 8.59546 15.2247 8.02014 16.1986 7.78446C16.5833 7.69089 18.7079 7.47601 18.59 8.287C18.5519 8.55734 17.7964 8.70637 17.5641 8.845C17.1517 9.09107 16.7843 9.42379 16.4863 9.7981H16.4897Z" fill="#B28D7B"/>
<path d="M17.0407 8.65439C17.1135 7.59039 18.3231 6.87643 19.3767 7.02893C20.4303 7.18142 21.2898 7.97163 21.8859 8.85541C22.482 9.73919 22.891 10.7373 23.4767 11.6281C23.9273 12.3143 24.4853 12.9312 25.1195 13.4511C26.4677 14.5532 28.1451 15.1978 29.4968 16.293C30.5677 17.1595 31.4134 18.3032 31.9298 19.5821C32.0164 19.7935 32.11 20.0292 32.3145 20.1297C32.4739 20.2059 32.6646 20.1782 32.8378 20.1297C33.9989 19.797 34.7336 18.5735 34.8342 17.3674C34.9347 16.1613 34.5292 14.976 34.0682 13.86C33.3889 12.2138 32.5814 10.623 31.6525 9.10495C31.0807 8.16918 30.4534 7.25421 29.6528 6.50559C27.5386 4.54048 24.5095 3.99635 21.6606 3.54233C21.3314 3.49034 20.9987 3.43836 20.6694 3.47301C20.3436 3.50767 20.0317 3.62204 19.7302 3.75028C18.6246 4.2147 17.564 4.85587 16.8189 5.79164C16.0738 6.7274 15.6821 7.99935 15.9975 9.15693" fill="#B28D7B"/>
<path d="M24.468 29.165C24.0105 29.7369 22.9119 30.1355 21.6295 30.1355C20.3472 30.1355 19.2485 29.7334 18.791 29.165H24.468Z" stroke="#F4807D" stroke-width="1.03974" stroke-linecap="round" stroke-linejoin="round"/>
</g>
</g>
<defs>
<clipPath id="clip0_2086_24032">
<rect width="44" height="44" rx="22" fill="white"/>
</clipPath>
<clipPath id="clip1_2086_24032">
<rect width="54.5032" height="60" fill="white" transform="translate(-5.62207 2)"/>
</clipPath>
</defs>
</svg>
