<svg width="99" height="44" viewBox="0 0 99 44" fill="none" xmlns="http://www.w3.org/2000/svg">
<g clip-path="url(#clip0_2086_22439)">
<rect width="99" height="44" rx="22" fill="white"/>
<g clip-path="url(#clip1_2086_22439)">
<path d="M73.7756 36.9484V33.3029H64.2244V36.9484C64.2244 39.6068 63.2645 42.2448 61.3175 44.0522C61.0486 44.3007 60.9022 44.5662 60.9022 44.8453C60.9022 46.2273 64.5273 47.3506 69 47.3506C73.4727 47.3506 77.0978 46.2307 77.0978 44.8453C77.0978 44.5696 76.9514 44.3007 76.6825 44.0522C74.7355 42.2448 73.7756 39.6068 73.7756 36.9484Z" fill="#F4D1C3"/>
<path d="M87.3048 29.1331C87.3048 27.2984 86.0964 25.7428 84.4319 25.222C84.9868 24.5208 85.3203 23.6392 85.3203 22.6759C85.3203 21.5561 84.871 20.5451 84.146 19.8065C83.227 18.8738 82.6925 17.645 82.6959 16.3379C82.6959 16.3243 82.6959 16.3107 82.6959 16.2971C82.6994 9.13197 77.2021 3.2535 70.197 2.65102C69.9825 2.6306 69.7681 2.61698 69.5502 2.60677C69.3664 2.59996 69.1826 2.59656 68.9988 2.59656C61.432 2.59656 55.2983 8.73032 55.2983 16.2937C55.2983 16.3073 55.2983 16.3209 55.2983 16.3311C55.3017 17.6416 54.7673 18.8704 53.8482 19.8031C53.1232 20.5417 52.6739 21.5561 52.6739 22.6725C52.6739 23.6358 53.0075 24.5174 53.5623 25.2186C51.8978 25.7394 50.6895 27.295 50.6895 29.1297C50.6895 30.8588 51.7617 32.3327 53.2764 32.9352C53.0415 33.5887 52.9564 34.3103 53.1028 35.0728C53.4534 36.9109 55.0498 38.3201 56.9219 38.412C57.5618 38.4426 58.1677 38.3303 58.7158 38.0988C59.4476 39.2153 60.707 39.9505 62.1434 39.9505C64.1483 39.9505 65.8128 38.5107 66.1702 36.6079C67.3479 35.9067 68.3249 34.906 68.9988 33.7147C69.6762 34.906 70.6531 35.9067 71.8274 36.6079C72.1814 38.5107 73.8493 39.9505 75.8542 39.9505C77.2872 39.9505 78.5466 39.2119 79.2819 38.0988C79.8299 38.3303 80.4392 38.4426 81.0757 38.412C82.9444 38.3167 84.5443 36.9109 84.8948 35.0728C85.0412 34.3103 84.9561 33.5853 84.7212 32.9352C86.236 32.3327 87.3082 30.8554 87.3082 29.1297L87.3048 29.1331Z" fill="#C1C1C1"/>
<path d="M58.8898 28.6225C57.4534 28.4047 56.2314 27.3291 55.8944 25.8212C55.5574 24.3201 56.2042 22.8326 57.4057 22.019L58.7707 28.1494C58.8081 28.3094 58.8456 28.466 58.8864 28.6191L58.8898 28.6225Z" fill="#F4D1C3"/>
<path d="M60.2349 28.5782C59.7822 28.6803 59.3261 28.6905 58.8938 28.6259C58.8495 28.4659 58.8155 28.3093 58.778 28.1527L57.4131 22.0224C57.7807 21.7739 58.196 21.5867 58.6555 21.488C60.6127 21.0523 62.5563 22.2845 62.992 24.2417C63.4277 26.1989 62.1955 28.1425 60.2383 28.5782H60.2349Z" fill="#E8BBAA"/>
<path d="M79.1083 28.6225C80.5447 28.4047 81.7667 27.3291 82.1037 25.8212C82.4407 24.3201 81.7939 22.8326 80.5924 22.019L79.2274 28.1494C79.19 28.3094 79.1525 28.466 79.1117 28.6191L79.1083 28.6225Z" fill="#F4D1C3"/>
<path d="M77.7643 28.5782C78.217 28.6803 78.6731 28.6905 79.1054 28.6259C79.1496 28.4659 79.1837 28.3093 79.2211 28.1527L80.5861 22.0224C80.2185 21.7739 79.8032 21.5867 79.3437 21.488C77.3864 21.0523 75.4428 22.2845 75.0071 24.2417C74.5714 26.1989 75.8036 28.1425 77.7609 28.5782H77.7643Z" fill="#E8BBAA"/>
<path d="M73.7749 34.324V39.0213C72.2942 39.6272 70.6808 39.9574 68.9992 39.9574C67.3177 39.9574 65.7043 39.6272 64.2236 39.0213V34.324H73.7749Z" fill="#E8BBAA"/>
<path d="M68.8528 37.6632C64.9281 37.6632 61.5311 34.9299 60.6937 31.0971L57.6847 17.3455C57.2014 10.8509 62.3412 5.31287 68.8528 5.31287C75.3678 5.31287 80.5076 10.8509 80.0208 17.3455L77.0118 31.0971C76.1711 34.9299 72.7774 37.6632 68.8528 37.6632Z" fill="#F4D1C3"/>
<path d="M64.9999 23.9252C65.6691 23.9252 66.2116 23.5701 66.2116 23.1321C66.2116 22.6941 65.6691 22.339 64.9999 22.339C64.3306 22.339 63.7881 22.6941 63.7881 23.1321C63.7881 23.5701 64.3306 23.9252 64.9999 23.9252Z" fill="#453C56"/>
<path d="M68.0096 26.1377C68.2547 25.9539 68.6087 25.8416 69.0002 25.8416C69.3916 25.8416 69.7422 25.9573 69.9907 26.1377" stroke="#D1A193" stroke-width="0.680772" stroke-linecap="round" stroke-linejoin="round"/>
<path d="M66.3651 20.4771C66.3004 20.4771 66.2357 20.4635 66.171 20.4396C65.7728 20.2763 65.1975 20.1809 64.5985 20.1809C63.9994 20.1809 63.4207 20.2763 63.0293 20.4396C62.7672 20.5486 62.471 20.426 62.3621 20.1639C62.2532 19.9052 62.3757 19.6057 62.6378 19.4968C63.1586 19.2789 63.8564 19.1598 64.6019 19.1598C65.3473 19.1598 66.0383 19.2789 66.5625 19.4968C66.8246 19.6057 66.9471 19.9018 66.8416 20.1639C66.7599 20.3614 66.5693 20.4805 66.3685 20.4805L66.3651 20.4771Z" fill="#C1C1C1"/>
<path d="M71.6343 20.4771C71.4335 20.4771 71.2429 20.3579 71.1612 20.1605C71.0522 19.8984 71.1782 19.6023 71.4403 19.4934C71.9645 19.2755 72.6623 19.1564 73.4009 19.1564C74.1395 19.1564 74.8441 19.2755 75.3649 19.4934C75.6236 19.6023 75.7462 19.9018 75.6406 20.1605C75.5317 20.4192 75.2356 20.5451 74.9735 20.4362C74.582 20.2728 74.0102 20.1775 73.4043 20.1775C72.7984 20.1775 72.23 20.2728 71.8317 20.4362C71.7671 20.4635 71.7024 20.4737 71.6377 20.4737L71.6343 20.4771Z" fill="#C1C1C1"/>
<path d="M70.3505 30.3279C70.3335 30.43 70.3029 30.5219 70.2688 30.6138C70.0612 31.0869 69.5744 31.4239 69.0026 31.4239C68.4307 31.4239 67.944 31.0903 67.7397 30.6138C67.6989 30.5253 67.6717 30.43 67.6512 30.3279C68.0529 30.4777 68.5124 30.5627 69.0026 30.5627C69.4927 30.5627 69.9523 30.4777 70.3539 30.3279H70.3505Z" fill="#E8BBAA"/>
<path d="M71.7863 28.7552C71.337 28.9152 70.258 29.0276 68.9986 29.0276C67.7391 29.0276 66.6601 28.9152 66.2108 28.7552" stroke="#F4807D" stroke-width="0.680772" stroke-linecap="round" stroke-linejoin="round"/>
<path d="M66.1838 23.0742C65.7209 22.9517 65.0775 22.8734 64.3559 22.8632C63.6377 22.8564 62.9774 22.9176 62.494 23.0334C62.797 22.407 63.573 21.9577 64.441 21.9679C65.309 21.9748 66 22.4411 66.1872 23.0742H66.1838Z" fill="#453C56"/>
<path d="M72.9989 23.9252C73.6681 23.9252 74.2107 23.5701 74.2107 23.1321C74.2107 22.6941 73.6681 22.339 72.9989 22.339C72.3296 22.339 71.7871 22.6941 71.7871 23.1321C71.7871 23.5701 72.3296 23.9252 72.9989 23.9252Z" fill="#453C56"/>
<path d="M71.8148 23.0742C72.2777 22.9517 72.9211 22.8734 73.6427 22.8632C74.3609 22.8564 75.0212 22.9176 75.5046 23.0334C75.2016 22.407 74.4256 21.9577 73.5576 21.9679C72.6896 21.9748 71.9986 22.4411 71.8114 23.0742H71.8148Z" fill="#453C56"/>
<path d="M57.1339 25.4706L58.5465 25.2664" stroke="#E8BBAA" stroke-width="1.02116" stroke-linecap="round" stroke-linejoin="round"/>
<path d="M80.5728 25.4706L79.1602 25.2664" stroke="#E8BBAA" stroke-width="1.02116" stroke-linecap="round" stroke-linejoin="round"/>
<path d="M81.0866 17.7336C81.0866 17.9582 81.0832 18.1829 81.073 18.4109C81.0628 18.639 81.0322 18.8568 80.9879 19.0747L80.6101 20.9843C80.1642 13.0465 75.1367 9.08096 68.9995 9.08096C62.8624 9.08096 57.8349 13.0499 57.3889 20.9843L56.9464 18.7479C56.4222 10.9735 61.9671 4.34619 68.9995 4.34619C76.0319 4.34619 81.0866 10.4051 81.0866 17.7336Z" fill="#B2B2B2"/>
<path d="M58.6516 21.488C58.6516 21.488 58.0968 12.3826 64.7718 9.78889L63.0766 8.57031L56.6025 13.0089L56.1328 16.0758C55.9251 17.4306 56.3234 18.8091 57.222 19.8439L58.6516 21.4914V21.488Z" fill="#C1C1C1"/>
<path d="M79.3476 21.488C79.3476 21.488 79.9024 12.3826 73.2274 9.78889L74.9225 8.57031L81.3967 13.0089L81.8664 16.0758C82.074 17.4306 81.6758 18.8091 80.7772 19.8439L79.3476 21.4914V21.488Z" fill="#C1C1C1"/>
<path d="M68.9993 9.08099C68.9993 9.08099 68.2164 7.59351 66.8753 8.56701C65.5308 9.54052 64.85 10.3438 64.2237 13.2814C63.5974 16.2189 59.1894 23.4759 59.1894 23.4759L56.4697 20.1878L57.593 10.9361L61.8478 5.72819L68.9959 3.11743V9.08099H68.9993Z" fill="#C1C1C1"/>
<path d="M68.9999 9.08099C68.9999 9.08099 69.7828 7.59351 71.1239 8.56701C72.465 9.54052 73.1492 10.3438 73.7755 13.2814C74.4018 16.2189 78.8098 23.4759 78.8098 23.4759L81.5295 20.1878L80.4062 10.9361L76.1514 5.72819L68.9999 3.11743V9.08099Z" fill="#C1C1C1"/>
<path d="M65.9222 27.1112C65.9222 27.1112 64.5947 29.1978 64.5947 30.9269" stroke="#E8BBAA" stroke-width="0.680772" stroke-linecap="round" stroke-linejoin="round"/>
<path d="M72.076 27.1112C72.076 27.1112 73.4036 29.1978 73.4036 30.9269" stroke="#E8BBAA" stroke-width="0.680772" stroke-linecap="round" stroke-linejoin="round"/>
<path d="M45.3568 18.0232C45.3568 16.7841 45.1117 15.6336 44.6897 14.6806C45.1696 13.3871 45.2173 11.6886 44.7101 9.96962C43.934 7.32822 42.1061 5.47312 40.3191 5.30633C39.9583 4.56769 39.4103 3.88011 38.6819 3.32869C36.5851 1.74249 27.3606 1.74249 25.2638 3.32869C24.5388 3.87671 23.9874 4.56769 23.6266 5.30633C21.8396 5.47312 20.0117 7.32822 19.2356 9.96962C18.7284 11.692 18.7761 13.3871 19.256 14.6806C18.8339 15.6336 18.5889 16.7841 18.5889 18.0232C18.5889 20.702 19.7428 22.969 21.3324 23.7314C21.0431 24.4326 20.8865 25.2019 20.8865 26.012C20.8865 29.2525 23.4428 31.8769 26.5947 31.8769C29.083 31.8769 31.1934 30.2396 31.9762 27.959C32.7591 30.2396 34.8695 31.8769 37.3578 31.8769C40.5097 31.8769 43.066 29.2491 43.066 26.012C43.066 25.2019 42.9061 24.4326 42.6201 23.7314C44.2097 22.969 45.3636 20.702 45.3636 18.0232H45.3568Z" fill="#F4EBE1"/>
<path d="M36.7484 36.489V32.8435H27.1972V36.489C27.1972 39.1475 26.2373 41.7854 24.2903 43.5929C24.0214 43.8414 23.875 44.1069 23.875 44.386C23.875 45.768 27.5001 46.8912 31.9728 46.8912C36.4455 46.8912 40.0706 45.7714 40.0706 44.386C40.0706 44.1103 39.9242 43.8414 39.6553 43.5929C37.7083 41.7854 36.7484 39.1475 36.7484 36.489Z" fill="#F4D1C3"/>
<path d="M45.6724 15.8345C45.6724 16.9203 45.5465 17.9755 45.3082 18.9898C43.882 25.0351 38.4529 29.535 31.9719 29.535C25.491 29.535 19.9631 24.9534 18.6015 18.8265C18.3837 17.8632 18.2714 16.8624 18.2714 15.8345C18.2714 8.27109 24.4051 2.13733 31.9719 2.13733C32.1557 2.13733 32.3395 2.14073 32.5233 2.14754C32.7412 2.15775 32.9556 2.17137 33.1701 2.19179C40.1752 2.79427 45.6724 8.67274 45.6724 15.8345Z" fill="#F4EBE1"/>
<path d="M20.6268 28.0475C19.238 27.6254 18.1828 26.383 18.0671 24.8444C17.9514 23.3093 18.8057 21.9307 20.1128 21.301L20.5792 27.5641C20.5928 27.7275 20.6064 27.8875 20.6268 28.0475Z" fill="#F4D1C3"/>
<path d="M21.9615 28.1973C21.4985 28.2313 21.0458 28.1769 20.6271 28.0509C20.6067 27.8876 20.5931 27.7276 20.5795 27.5642L20.1132 21.3011C20.5114 21.1071 20.9505 20.9845 21.4202 20.9505C23.4217 20.8007 25.1645 22.3018 25.3143 24.3033C25.464 26.3048 23.9629 28.0475 21.9615 28.1973Z" fill="#E8BBAA"/>
<path d="M45.8743 24.8444C45.7586 26.383 44.7034 27.6254 43.3146 28.0509C43.335 27.8909 43.3486 27.7275 43.3622 27.5641L43.8286 21.301C45.1356 21.9307 45.99 23.3093 45.8743 24.8444Z" fill="#F4D1C3"/>
<path d="M43.8286 21.3011L43.3623 27.5642C43.3486 27.7276 43.335 27.891 43.3146 28.0509C42.8959 28.1769 42.4432 28.2313 41.9803 28.1973C39.9788 28.0475 38.4777 26.3048 38.6275 24.3033C38.7773 22.3018 40.52 20.8007 42.5215 20.9505C42.9912 20.9845 43.4303 21.1071 43.8286 21.3011Z" fill="#E8BBAA"/>
<path d="M36.7485 33.8647V38.5621C35.2678 39.168 33.6544 39.4981 31.9729 39.4981C30.2914 39.4981 28.6779 39.168 27.1973 38.5621V33.8647H36.7485Z" fill="#E8BBAA"/>
<path d="M31.972 37.1154C26.5293 37.1154 22.0055 32.9185 21.6005 27.4893L20.804 16.8012C20.3206 10.3066 25.4605 4.76855 31.972 4.76855C38.487 4.76855 43.6269 10.3066 43.1401 16.8012L42.3436 27.4893C41.9385 32.9185 37.4148 37.1154 31.972 37.1154Z" fill="#F4D1C3"/>
<path d="M27.9186 22.8227C28.4901 22.8227 28.9533 22.3594 28.9533 21.7879C28.9533 21.2165 28.4901 20.7532 27.9186 20.7532C27.3471 20.7532 26.8838 21.2165 26.8838 21.7879C26.8838 22.3594 27.3471 22.8227 27.9186 22.8227Z" fill="#453C56"/>
<path d="M32.9632 25.3823C32.7181 25.5661 32.3641 25.6785 31.9727 25.6785C31.5813 25.6785 31.2307 25.5627 30.9822 25.3823" stroke="#D1A193" stroke-width="0.680772" stroke-linecap="round" stroke-linejoin="round"/>
<path d="M30.7236 31.4038C30.7407 31.3119 30.7679 31.2234 30.8019 31.1417C30.9925 30.7026 31.4453 30.3928 31.9729 30.3928C32.5005 30.3928 32.9532 30.7026 33.1404 31.1417C33.1778 31.2234 33.205 31.3119 33.2221 31.4038C32.851 31.2642 32.4256 31.1859 31.9729 31.1859C31.5201 31.1859 31.0947 31.2642 30.7236 31.4038Z" fill="#E8BBAA"/>
<path d="M34.7601 28.9189C33.9091 29.1028 32.9663 29.2049 31.9723 29.2049C30.9784 29.2049 30.0355 29.1028 29.1846 28.9189" stroke="#F4807D" stroke-width="0.680772" stroke-linecap="round" stroke-linejoin="round"/>
<path opacity="0.5" d="M25.2026 27.748C26.5091 27.748 27.5683 26.6888 27.5683 25.3823C27.5683 24.0758 26.5091 23.0166 25.2026 23.0166C23.8961 23.0166 22.8369 24.0758 22.8369 25.3823C22.8369 26.6888 23.8961 27.748 25.2026 27.748Z" fill="url(#paint0_radial_2086_22439)"/>
<path opacity="0.5" d="M38.7428 27.748C40.0493 27.748 41.1084 26.6888 41.1084 25.3823C41.1084 24.0758 40.0493 23.0166 38.7428 23.0166C37.4362 23.0166 36.3771 24.0758 36.3771 25.3823C36.3771 26.6888 37.4362 27.748 38.7428 27.748Z" fill="url(#paint1_radial_2086_22439)"/>
<path d="M28.6432 21.1683C28.2143 21.1955 27.6459 21.2976 27.0298 21.4712C26.4171 21.6448 25.8759 21.8558 25.498 22.0601C25.5729 21.5291 26.1005 21.0083 26.8392 20.8006C27.5778 20.5896 28.2994 20.7564 28.6432 21.1683Z" fill="#453C56"/>
<path d="M36.0229 22.8226C36.5944 22.8226 37.0577 22.3593 37.0577 21.7878C37.0577 21.2163 36.5944 20.7531 36.0229 20.7531C35.4514 20.7531 34.9882 21.2163 34.9882 21.7878C34.9882 22.3593 35.4514 22.8226 36.0229 22.8226Z" fill="#453C56"/>
<path d="M35.2977 21.1683C35.7266 21.1955 36.2951 21.2976 36.9112 21.4712C37.5239 21.6448 38.0651 21.8558 38.4429 22.0601C38.368 21.5291 37.8404 21.0083 37.1018 20.8006C36.3631 20.5896 35.6415 20.7564 35.2977 21.1683Z" fill="#453C56"/>
<path d="M19.3439 24.6743H20.7701" stroke="#E8BBAA" stroke-width="1.02116" stroke-linecap="round" stroke-linejoin="round"/>
<path d="M44.6005 24.6743H43.1709" stroke="#E8BBAA" stroke-width="1.02116" stroke-linecap="round" stroke-linejoin="round"/>
<path d="M19.5723 15.8617L20.8657 23.7178C20.9202 24.048 21.2061 24.2897 21.5397 24.2897C21.9005 24.2897 22.1966 24.0106 22.2205 23.6498L22.7242 15.426L19.5757 15.8617H19.5723Z" fill="#F4EBE1"/>
<path d="M44.3728 15.8617L43.0793 23.7178C43.0249 24.048 42.739 24.2897 42.4054 24.2897C42.0446 24.2897 41.7484 24.0106 41.7246 23.6498L41.2208 15.426L44.3694 15.8617H44.3728Z" fill="#F4EBE1"/>
<path d="M25.2977 19.7488C25.0765 19.7488 24.8722 19.6058 24.8076 19.3812C24.7293 19.1123 24.8825 18.8263 25.1514 18.748C25.2194 18.7276 26.8601 18.2511 28.8888 18.4553C29.1679 18.4825 29.3756 18.7344 29.3449 19.0135C29.3177 19.2927 29.0692 19.5003 28.7867 19.4697C26.9656 19.2859 25.4543 19.7215 25.4373 19.7284C25.3896 19.742 25.342 19.7488 25.2943 19.7488H25.2977Z" fill="#C1C1C1"/>
<path d="M38.6478 19.7489C38.6001 19.7489 38.5525 19.7421 38.5048 19.7285C38.4912 19.7251 36.9765 19.2894 35.1554 19.4698C34.8763 19.497 34.6244 19.2928 34.5972 19.0137C34.5699 18.7346 34.7742 18.4827 35.0533 18.4554C37.082 18.2546 38.7226 18.7277 38.7907 18.7482C39.0596 18.8265 39.2162 19.1124 39.1345 19.3813C39.0698 19.6025 38.8656 19.7489 38.6443 19.7489H38.6478Z" fill="#C1C1C1"/>
<path d="M44.3728 19.4528H42.0548C42.0548 13.8841 37.5412 9.37054 31.9725 9.37054C26.4038 9.37054 21.8903 13.8841 21.8903 19.4528H19.5723C19.5723 10.8206 25.124 3.81885 31.9725 3.81885C38.8211 3.81885 44.3728 10.8206 44.3728 19.4528Z" fill="#F4EBE1"/>
<path d="M28.895 26.8834C28.895 26.8834 27.5675 28.97 27.5675 30.6992" stroke="#E8BBAA" stroke-width="0.680772" stroke-linecap="round" stroke-linejoin="round"/>
<path d="M35.0468 26.8834C35.0468 26.8834 36.3743 28.97 36.3743 30.6992" stroke="#E8BBAA" stroke-width="0.680772" stroke-linecap="round" stroke-linejoin="round"/>
<path d="M31.9723 12.4374C34.0853 12.4374 35.7982 10.7245 35.7982 8.61146C35.7982 6.49845 34.0853 4.78552 31.9723 4.78552C29.8593 4.78552 28.1464 6.49845 28.1464 8.61146C28.1464 10.7245 29.8593 12.4374 31.9723 12.4374Z" fill="#F4EBE1"/>
<path d="M23.6186 20.0247H30.6817V22.0806C30.6817 23.3911 29.6162 24.4565 28.3058 24.4565H25.9911C24.6806 24.4565 23.6152 23.3911 23.6152 22.0806V20.0247H23.6186Z" stroke="#F4EBE1" stroke-width="0.680772" stroke-linecap="round" stroke-linejoin="round"/>
<path d="M37.9498 24.4564H35.6352C34.3247 24.4564 33.2593 23.391 33.2593 22.0805V20.0246H40.3223V22.0805C40.3223 23.391 39.2569 24.4564 37.9464 24.4564H37.9498Z" stroke="#F4EBE1" stroke-width="0.680772" stroke-linecap="round" stroke-linejoin="round"/>
<path d="M30.6865 21.0254H33.2598" stroke="#F4EBE1" stroke-width="0.680772" stroke-linecap="round" stroke-linejoin="round"/>
</g>
<g clip-path="url(#clip2_2086_22439)">
<path d="M73.7795 36.945V33.2994H64.2283V36.945C64.2283 39.6034 63.2684 42.2414 61.3214 44.0488C61.0525 44.2973 60.9061 44.5628 60.9061 44.8419C60.9061 46.2239 64.5312 47.3472 69.0039 47.3472C73.4766 47.3472 77.1017 46.2273 77.1017 44.8419C77.1017 44.5662 76.9553 44.2973 76.6864 44.0488C74.7394 42.2414 73.7795 39.6034 73.7795 36.945Z" fill="#DADADA"/>
<path d="M87.3101 29.1297C87.3101 27.295 86.1018 25.7394 84.4373 25.2186C84.9921 24.5174 85.3257 23.6358 85.3257 22.6725C85.3257 21.5527 84.8764 20.5417 84.1514 19.8031C83.2323 18.8704 82.6979 17.6416 82.7013 16.3345C82.7013 16.3209 82.7013 16.3073 82.7013 16.2937C82.7013 9.13197 77.2041 3.2535 70.1989 2.65102C69.9845 2.6306 69.77 2.61698 69.5522 2.60677C69.3684 2.59996 69.1846 2.59656 69.0008 2.59656C61.434 2.59656 55.3002 8.73032 55.3002 16.2937C55.3002 16.3073 55.3002 16.3209 55.3002 16.3311C55.3036 17.6416 54.7692 18.8704 53.8502 19.8031C53.1252 20.5417 52.6759 21.5561 52.6759 22.6725C52.6759 23.6358 53.0094 24.5174 53.5643 25.2186C51.8998 25.7394 50.6914 27.295 50.6914 29.1297C50.6914 30.8588 51.7636 32.3327 53.2783 32.9352C53.0435 33.5887 52.9584 34.3103 53.1047 35.0728C53.4553 36.9109 55.0518 38.3201 56.9239 38.412C57.5638 38.4426 58.1697 38.3303 58.7177 38.0988C59.4495 39.2153 60.709 39.9505 62.1454 39.9505C64.1503 39.9505 65.8148 38.5107 66.1722 36.6079C67.3499 35.9067 68.3268 34.906 69.0008 33.7147C69.6781 34.906 70.655 35.9067 71.8294 36.6079C72.1834 38.5107 73.8513 39.9505 75.8561 39.9505C77.2892 39.9505 78.5486 39.2119 79.2838 38.0988C79.8319 38.3303 80.4411 38.4426 81.0777 38.412C82.9464 38.3167 84.5462 36.9109 84.8968 35.0728C85.0432 34.3103 84.9581 33.5853 84.7232 32.9352C86.2379 32.3327 87.3101 30.8554 87.3101 29.1297Z" fill="#C1C1C1"/>
<path d="M58.8947 28.6191C57.4583 28.4013 56.2363 27.3256 55.8993 25.8177C55.5623 24.3166 56.209 22.8291 57.4106 22.0156L58.7756 28.146C58.813 28.306 58.8504 28.4625 58.8913 28.6157L58.8947 28.6191Z" fill="#DADADA"/>
<path d="M60.2359 28.5748C59.7831 28.6769 59.327 28.6871 58.8947 28.6225C58.8505 28.4625 58.8165 28.3059 58.779 28.1493L57.4141 22.019C57.7817 21.7705 58.1969 21.5833 58.6565 21.4846C60.6137 21.0489 62.5573 22.2811 62.993 24.2383C63.4287 26.1955 62.1965 28.1391 60.2393 28.5748H60.2359Z" fill="#C7C7C7"/>
<path d="M79.1093 28.6191C80.5457 28.4013 81.7677 27.3256 82.1046 25.8177C82.4416 24.3166 81.7949 22.8291 80.5933 22.0156L79.2284 28.146C79.1909 28.306 79.1535 28.4625 79.1126 28.6157L79.1093 28.6191Z" fill="#DADADA"/>
<path d="M77.7693 28.5748C78.222 28.6769 78.6781 28.6871 79.1104 28.6225C79.1546 28.4625 79.1887 28.3059 79.2261 28.1493L80.5911 22.019C80.2235 21.7705 79.8082 21.5833 79.3487 21.4846C77.3914 21.0489 75.4478 22.2811 75.0121 24.2383C74.5765 26.1955 75.8086 28.1391 77.7659 28.5748H77.7693Z" fill="#C7C7C7"/>
<path d="M73.7796 34.3206V39.0179C72.299 39.6238 70.6855 39.9539 69.004 39.9539C67.3225 39.9539 65.7091 39.6238 64.2284 39.0179V34.3206H73.7796Z" fill="#C7C7C7"/>
<path d="M68.8578 37.6597C64.9331 37.6597 61.5361 34.9264 60.6987 31.0937L57.6897 17.3421C57.2064 10.8475 62.3462 5.30945 68.8578 5.30945C75.3728 5.30945 80.5126 10.8475 80.0258 17.3421L77.0168 31.0937C76.1761 34.9264 72.7824 37.6597 68.8578 37.6597Z" fill="#DADADA"/>
<path d="M65.0049 23.9218C65.6741 23.9218 66.2166 23.5667 66.2166 23.1287C66.2166 22.6907 65.6741 22.3356 65.0049 22.3356C64.3356 22.3356 63.7931 22.6907 63.7931 23.1287C63.7931 23.5667 64.3356 23.9218 65.0049 23.9218Z" fill="#424242"/>
<path d="M68.0133 26.1343C68.2584 25.9505 68.6124 25.8381 69.0038 25.8381C69.3953 25.8381 69.7459 25.9539 69.9943 26.1343" stroke="#AEAEAE" stroke-width="0.680772" stroke-linecap="round" stroke-linejoin="round"/>
<path d="M66.366 20.4737C66.3014 20.4737 66.2367 20.4601 66.172 20.4362C65.7738 20.2728 65.1985 20.1775 64.5994 20.1775C64.0004 20.1775 63.4217 20.2728 63.0303 20.4362C62.7682 20.5451 62.472 20.4226 62.3631 20.1605C62.2542 19.9018 62.3767 19.6023 62.6388 19.4934C63.1596 19.2755 63.8574 19.1564 64.6028 19.1564C65.3483 19.1564 66.0393 19.2755 66.5635 19.4934C66.8256 19.6023 66.9481 19.8984 66.8426 20.1605C66.7609 20.3579 66.5703 20.4771 66.3694 20.4771L66.366 20.4737Z" fill="#C1C1C1"/>
<path d="M71.6392 20.4737C71.4384 20.4737 71.2477 20.3545 71.166 20.1571C71.0571 19.895 71.1831 19.5989 71.4452 19.4899C71.9694 19.2721 72.6672 19.153 73.4058 19.153C74.1444 19.153 74.849 19.2721 75.3698 19.4899C75.6285 19.5989 75.751 19.8984 75.6455 20.1571C75.5366 20.4158 75.2405 20.5417 74.9784 20.4328C74.5869 20.2694 74.0151 20.1741 73.4092 20.1741C72.8033 20.1741 72.2349 20.2694 71.8366 20.4328C71.7719 20.46 71.7073 20.4702 71.6426 20.4702L71.6392 20.4737Z" fill="#C1C1C1"/>
<path d="M70.3515 30.3245C70.3345 30.4266 70.3038 30.5185 70.2698 30.6104C70.0622 31.0835 69.5754 31.4205 69.0035 31.4205C68.4317 31.4205 67.945 31.0869 67.7407 30.6104C67.6999 30.5219 67.6726 30.4266 67.6522 30.3245C68.0539 30.4742 68.5134 30.5593 69.0035 30.5593C69.4937 30.5593 69.9532 30.4742 70.3549 30.3245H70.3515Z" fill="#C7C7C7"/>
<path d="M71.7922 28.7518C71.3429 28.9118 70.2639 29.0241 69.0044 29.0241C67.745 29.0241 66.666 28.9118 66.2167 28.7518" stroke="#A2A2A2" stroke-width="0.680772" stroke-linecap="round" stroke-linejoin="round"/>
<path d="M66.1897 23.0708C65.7267 22.9482 65.0834 22.87 64.3618 22.8597C63.6436 22.8529 62.9832 22.9142 62.4999 23.0299C62.8028 22.4036 63.5789 21.9543 64.4469 21.9645C65.3149 21.9713 66.0059 22.4377 66.1931 23.0708H66.1897Z" fill="#424242"/>
<path d="M73.0036 23.9218C73.6729 23.9218 74.2154 23.5667 74.2154 23.1287C74.2154 22.6907 73.6729 22.3356 73.0036 22.3356C72.3344 22.3356 71.7919 22.6907 71.7919 23.1287C71.7919 23.5667 72.3344 23.9218 73.0036 23.9218Z" fill="#424242"/>
<path d="M71.8158 23.0708C72.2787 22.9482 72.922 22.87 73.6437 22.8597C74.3619 22.8529 75.0222 22.9142 75.5056 23.0299C75.2026 22.4036 74.4265 21.9543 73.5586 21.9645C72.6906 21.9713 71.9996 22.4377 71.8124 23.0708H71.8158Z" fill="#424242"/>
<path d="M57.1349 25.4672L58.5475 25.2629" stroke="#C7C7C7" stroke-width="1.02116" stroke-linecap="round" stroke-linejoin="round"/>
<path d="M80.5775 25.4672L79.1649 25.2629" stroke="#C7C7C7" stroke-width="1.02116" stroke-linecap="round" stroke-linejoin="round"/>
<path d="M81.0906 17.7302C81.0906 17.9548 81.0872 18.1795 81.077 18.4075C81.0668 18.6356 81.0362 18.8534 80.9919 19.0713L80.6141 20.9808C80.1682 13.043 75.1407 9.07754 69.0035 9.07754C62.8664 9.07754 57.8389 13.0464 57.393 20.9808L56.9505 18.7445C56.4263 10.9701 61.9712 4.34277 69.0035 4.34277C76.0359 4.34277 81.0906 10.4016 81.0906 17.7302Z" fill="#B2B2B2"/>
<path d="M58.6526 21.4845C58.6526 21.4845 58.0978 12.3792 64.7727 9.78548L63.0776 8.56689L56.6035 13.0055L56.1337 16.0724C55.9261 17.4271 56.3244 18.8057 57.223 19.8405L58.6526 21.488V21.4845Z" fill="#C1C1C1"/>
<path d="M79.3515 21.4845C79.3515 21.4845 79.9063 12.3792 73.2313 9.78548L74.9264 8.56689L81.4006 13.0055L81.8703 16.0724C82.078 17.4271 81.6797 18.8057 80.7811 19.8405L79.3515 21.488V21.4845Z" fill="#C1C1C1"/>
<path d="M69.0041 9.07758C69.0041 9.07758 68.2212 7.59009 66.8801 8.56359C65.5356 9.5371 64.8548 10.3404 64.2285 13.2779C63.6022 16.2155 59.1942 23.4725 59.1942 23.4725L56.4745 20.1844L57.5978 10.9327L61.8526 5.72477L69.0007 3.11401V9.07758H69.0041Z" fill="#C1C1C1"/>
<path d="M69.0039 9.07745C69.0039 9.07745 69.7868 7.58997 71.1279 8.56347C72.469 9.53698 73.1532 10.3403 73.7795 13.2778C74.4058 16.2153 78.8138 23.4724 78.8138 23.4724L81.5335 20.1843L80.4102 10.9326L76.1554 5.72465L69.0039 3.11389V9.07745Z" fill="#C1C1C1"/>
<path d="M65.9271 27.1078C65.9271 27.1078 64.5996 29.1944 64.5996 30.9235" stroke="#C7C7C7" stroke-width="0.680772" stroke-linecap="round" stroke-linejoin="round"/>
<path d="M72.0809 27.1077C72.0809 27.1077 73.4084 29.1942 73.4084 30.9234" stroke="#C7C7C7" stroke-width="0.680772" stroke-linecap="round" stroke-linejoin="round"/>
<path d="M45.3578 18.0232C45.3578 16.7842 45.1127 15.6336 44.6906 14.6806C45.1706 13.3871 45.2183 11.6886 44.7111 9.96962C43.935 7.32822 42.1071 5.47312 40.3201 5.30633C39.9593 4.56769 39.4113 3.88011 38.6828 3.32869C36.5861 1.74249 27.3616 1.74249 25.2648 3.32869C24.5398 3.87671 23.9884 4.56769 23.6276 5.30633C21.8405 5.47312 20.0127 7.32822 19.2366 9.96962C18.7294 11.692 18.7771 13.3871 19.257 14.6806C18.8349 15.6336 18.5898 16.7842 18.5898 18.0232C18.5898 20.702 19.7438 22.969 21.3334 23.7314C21.044 24.4326 20.8874 25.2019 20.8874 26.012C20.8874 29.2525 23.4437 31.8769 26.5957 31.8769C29.0839 31.8769 31.1943 30.2396 31.9772 27.959C32.7601 30.2396 34.8705 31.8769 37.3587 31.8769C40.5107 31.8769 43.067 29.2491 43.067 26.012C43.067 25.2019 42.907 24.4326 42.6211 23.7314C44.2107 22.969 45.3646 20.702 45.3646 18.0232H45.3578Z" fill="#EDEDED"/>
<path d="M36.7494 36.489V32.8435H27.1981V36.489C27.1981 39.1475 26.2383 41.7854 24.2912 43.5929C24.0223 43.8414 23.876 44.1069 23.876 44.386C23.876 45.768 27.5011 46.8912 31.9738 46.8912C36.4464 46.8912 40.0715 45.7714 40.0715 44.386C40.0715 44.1103 39.9252 43.8414 39.6563 43.5929C37.7093 41.7854 36.7494 39.1475 36.7494 36.489Z" fill="#DADADA"/>
<path d="M45.6734 15.8345C45.6734 16.9203 45.5475 17.9755 45.3092 18.9898C43.883 25.0351 38.4538 29.535 31.9729 29.535C25.4919 29.535 19.9641 24.9534 18.6025 18.8265C18.3847 17.8632 18.2723 16.8624 18.2723 15.8345C18.2723 8.27109 24.4061 2.13733 31.9729 2.13733C32.1567 2.13733 32.3405 2.14073 32.5243 2.14754C32.7422 2.15775 32.9566 2.17137 33.171 2.19179C40.1762 2.79427 45.6734 8.67274 45.6734 15.8345Z" fill="#EDEDED"/>
<path d="M20.6278 28.0475C19.239 27.6254 18.1838 26.383 18.0681 24.8444C17.9524 23.3093 18.8067 21.9307 20.1138 21.301L20.5801 27.5641C20.5937 27.7275 20.6074 27.8875 20.6278 28.0475Z" fill="#DADADA"/>
<path d="M21.9624 28.1973C21.4995 28.2313 21.0468 28.1769 20.6281 28.0509C20.6077 27.8876 20.5941 27.7276 20.5805 27.5642L20.1141 21.3011C20.5124 21.1071 20.9515 20.9845 21.4212 20.9505C23.4227 20.8007 25.1655 22.3018 25.3152 24.3033C25.465 26.3048 23.9639 28.0475 21.9624 28.1973Z" fill="#C7C7C7"/>
<path d="M45.8753 24.8444C45.7595 26.383 44.7043 27.6254 43.3156 28.0509C43.336 27.8909 43.3496 27.7275 43.3632 27.5641L43.8295 21.301C45.1366 21.9307 45.991 23.3093 45.8753 24.8444Z" fill="#DADADA"/>
<path d="M43.8296 21.3011L43.3632 27.5642C43.3496 27.7276 43.336 27.891 43.3156 28.0509C42.8969 28.1769 42.4442 28.2313 41.9813 28.1973C39.9798 28.0475 38.4787 26.3048 38.6285 24.3033C38.7782 22.3018 40.521 20.8007 42.5225 20.9505C42.9922 20.9845 43.4313 21.1071 43.8296 21.3011Z" fill="#C7C7C7"/>
<path d="M36.7495 33.8647V38.5621C35.2688 39.168 33.6554 39.4981 31.9739 39.4981C30.2924 39.4981 28.6789 39.168 27.1982 38.5621V33.8647H36.7495Z" fill="#C7C7C7"/>
<path d="M31.973 37.1154C26.5302 37.1154 22.0065 32.9185 21.6014 27.4893L20.8049 16.8012C20.3216 10.3066 25.4614 4.76855 31.973 4.76855C38.488 4.76855 43.6278 10.3066 43.1411 16.8012L42.3446 27.4893C41.9395 32.9185 37.4158 37.1154 31.973 37.1154Z" fill="#DADADA"/>
<path d="M27.9232 22.8226C28.4947 22.8226 28.958 22.3593 28.958 21.7878C28.958 21.2163 28.4947 20.7531 27.9232 20.7531C27.3517 20.7531 26.8884 21.2163 26.8884 21.7878C26.8884 22.3593 27.3517 22.8226 27.9232 22.8226Z" fill="#424242"/>
<path d="M32.9642 25.3823C32.7191 25.5661 32.3651 25.6785 31.9737 25.6785C31.5822 25.6785 31.2316 25.5627 30.9832 25.3823" stroke="#AEAEAE" stroke-width="0.680772" stroke-linecap="round" stroke-linejoin="round"/>
<path d="M30.7246 31.4038C30.7416 31.3119 30.7689 31.2234 30.8029 31.1417C30.9935 30.7026 31.4462 30.3928 31.9738 30.3928C32.5014 30.3928 32.9541 30.7026 33.1413 31.1417C33.1788 31.2234 33.206 31.3119 33.223 31.4038C32.852 31.2642 32.4265 31.1859 31.9738 31.1859C31.5211 31.1859 31.0956 31.2642 30.7246 31.4038Z" fill="#C7C7C7"/>
<path d="M34.7611 28.9189C33.9101 29.1028 32.9672 29.2049 31.9733 29.2049C30.9794 29.2049 30.0365 29.1028 29.1855 28.9189" stroke="#A2A2A2" stroke-width="0.680772" stroke-linecap="round" stroke-linejoin="round"/>
<path opacity="0.5" d="M25.2036 27.748C26.5101 27.748 27.5693 26.6888 27.5693 25.3823C27.5693 24.0758 26.5101 23.0166 25.2036 23.0166C23.897 23.0166 22.8379 24.0758 22.8379 25.3823C22.8379 26.6888 23.897 27.748 25.2036 27.748Z" fill="url(#paint2_radial_2086_22439)"/>
<path opacity="0.5" d="M38.7437 27.748C40.0503 27.748 41.1094 26.6888 41.1094 25.3823C41.1094 24.0758 40.0503 23.0166 38.7437 23.0166C37.4372 23.0166 36.3781 24.0758 36.3781 25.3823C36.3781 26.6888 37.4372 27.748 38.7437 27.748Z" fill="url(#paint3_radial_2086_22439)"/>
<path d="M28.6482 21.1683C28.2193 21.1955 27.6509 21.2976 27.0348 21.4712C26.4221 21.6448 25.8809 21.8558 25.5031 22.0601C25.5779 21.5291 26.1055 21.0083 26.8442 20.8006C27.5828 20.5896 28.3044 20.7564 28.6482 21.1683Z" fill="#424242"/>
<path d="M36.0239 22.8226C36.5954 22.8226 37.0587 22.3593 37.0587 21.7878C37.0587 21.2163 36.5954 20.7531 36.0239 20.7531C35.4524 20.7531 34.9891 21.2163 34.9891 21.7878C34.9891 22.3593 35.4524 22.8226 36.0239 22.8226Z" fill="#424242"/>
<path d="M35.2987 21.1683C35.7276 21.1955 36.296 21.2976 36.9121 21.4712C37.5248 21.6448 38.066 21.8558 38.4439 22.0601C38.369 21.5291 37.8414 21.0083 37.1028 20.8006C36.3641 20.5896 35.6425 20.7564 35.2987 21.1683Z" fill="#424242"/>
<path d="M19.3448 24.6743H20.7711" stroke="#C7C7C7" stroke-width="1.02116" stroke-linecap="round" stroke-linejoin="round"/>
<path d="M44.601 24.6743H43.1748" stroke="#C7C7C7" stroke-width="1.02116" stroke-linecap="round" stroke-linejoin="round"/>
<path d="M19.5732 15.8617L20.8667 23.7178C20.9212 24.048 21.2071 24.2897 21.5407 24.2897C21.9015 24.2897 22.1976 24.0106 22.2214 23.6498L22.7252 15.426L19.5766 15.8617H19.5732Z" fill="#EDEDED"/>
<path d="M44.3738 15.8617L43.0803 23.7178C43.0258 24.048 42.7399 24.2897 42.4063 24.2897C42.0455 24.2897 41.7494 24.0106 41.7256 23.6498L41.2218 15.426L44.3704 15.8617H44.3738Z" fill="#EDEDED"/>
<path d="M25.2987 19.7488C25.0774 19.7488 24.8732 19.6058 24.8085 19.3812C24.7303 19.1123 24.8834 18.8263 25.1523 18.748C25.2204 18.7276 26.8611 18.2511 28.8898 18.4553C29.1689 18.4825 29.3765 18.7344 29.3459 19.0135C29.3187 19.2927 29.0702 19.5003 28.7877 19.4697C26.9666 19.2859 25.4553 19.7215 25.4383 19.7284C25.3906 19.742 25.3429 19.7488 25.2953 19.7488H25.2987Z" fill="#C1C1C1"/>
<path d="M38.6487 19.7489C38.6011 19.7489 38.5534 19.7421 38.5058 19.7285C38.4922 19.7251 36.9774 19.2894 35.1564 19.4698C34.8773 19.497 34.6254 19.2928 34.5981 19.0137C34.5709 18.7346 34.7751 18.4827 35.0543 18.4554C37.083 18.2546 38.7236 18.7277 38.7917 18.7482C39.0606 18.8265 39.2172 19.1124 39.1355 19.3813C39.0708 19.6025 38.8666 19.7489 38.6453 19.7489H38.6487Z" fill="#C1C1C1"/>
<path d="M44.3738 19.4528H42.0557C42.0557 13.8841 37.5422 9.37054 31.9735 9.37054C26.4048 9.37054 21.8913 13.8841 21.8913 19.4528H19.5732C19.5732 10.8206 25.1249 3.81885 31.9735 3.81885C38.8221 3.81885 44.3738 10.8206 44.3738 19.4528Z" fill="#EDEDED"/>
<path d="M28.896 26.8834C28.896 26.8834 27.5685 28.97 27.5685 30.6992" stroke="#C7C7C7" stroke-width="0.680772" stroke-linecap="round" stroke-linejoin="round"/>
<path d="M35.0498 26.8833C35.0498 26.8833 36.3773 28.9699 36.3773 30.699" stroke="#C7C7C7" stroke-width="0.680772" stroke-linecap="round" stroke-linejoin="round"/>
<path d="M31.9733 12.4374C34.0863 12.4374 35.7992 10.7245 35.7992 8.61146C35.7992 6.49845 34.0863 4.78552 31.9733 4.78552C29.8603 4.78552 28.1473 6.49845 28.1473 8.61146C28.1473 10.7245 29.8603 12.4374 31.9733 12.4374Z" fill="#EDEDED"/>
<path d="M23.6196 20.0247H30.6826V22.0806C30.6826 23.3911 29.6172 24.4565 28.3067 24.4565H25.9921C24.6816 24.4565 23.6162 23.3911 23.6162 22.0806V20.0247H23.6196Z" stroke="#EDEDED" stroke-width="0.680772" stroke-linecap="round" stroke-linejoin="round"/>
<path d="M37.9508 24.4564H35.6361C34.3256 24.4564 33.2602 23.391 33.2602 22.0805V20.0246H40.3232V22.0805C40.3232 23.391 39.2578 24.4564 37.9473 24.4564H37.9508Z" stroke="#EDEDED" stroke-width="0.680772" stroke-linecap="round" stroke-linejoin="round"/>
<path d="M30.6875 21.0254H33.2608" stroke="#EDEDED" stroke-width="0.680772" stroke-linecap="round" stroke-linejoin="round"/>
</g>
</g>
<rect x="0.5" y="0.5" width="98" height="43" rx="21.5" stroke="#F5F5F5"/>
<defs>
<radialGradient id="paint0_radial_2086_22439" cx="0" cy="0" r="1" gradientUnits="userSpaceOnUse" gradientTransform="translate(25.2026 25.3823) scale(2.36568)">
<stop stop-color="#FF8885"/>
<stop offset="1" stop-color="#FF8885" stop-opacity="0"/>
</radialGradient>
<radialGradient id="paint1_radial_2086_22439" cx="0" cy="0" r="1" gradientUnits="userSpaceOnUse" gradientTransform="translate(47.8124 35.0611) rotate(180) scale(2.36255)">
<stop stop-color="#FF8885"/>
<stop offset="1" stop-color="#FF8885" stop-opacity="0"/>
</radialGradient>
<radialGradient id="paint2_radial_2086_22439" cx="0" cy="0" r="1" gradientUnits="userSpaceOnUse" gradientTransform="translate(25.2036 25.3823) scale(2.36568)">
<stop stop-color="#ABABAB"/>
<stop offset="1" stop-color="#ABABAB" stop-opacity="0"/>
</radialGradient>
<radialGradient id="paint3_radial_2086_22439" cx="0" cy="0" r="1" gradientUnits="userSpaceOnUse" gradientTransform="translate(47.9666 35.0585) rotate(180) scale(2.36255)">
<stop stop-color="#ABABAB"/>
<stop offset="1" stop-color="#ABABAB" stop-opacity="0"/>
</radialGradient>
<clipPath id="clip0_2086_22439">
<rect width="99" height="44" rx="22" fill="white"/>
</clipPath>
<clipPath id="clip1_2086_22439">
<rect width="96.4907" height="59.6458" fill="white" transform="translate(1.49316 -2.17505)"/>
</clipPath>
<clipPath id="clip2_2086_22439">
<rect width="97.855" height="64" fill="white" transform="translate(0.788086 -2.17505)"/>
</clipPath>
</defs>
</svg>
