<svg width="44" height="44" viewBox="0 0 44 44" fill="none" xmlns="http://www.w3.org/2000/svg">
<g clip-path="url(#clip0_2086_22824)">
<rect width="44" height="44" rx="22" fill="white"/>
<path d="M40.8931 42.2739C39.3482 45.4099 39.1299 49.1745 40.3075 52.4694C38.0646 51.0105 36.179 49.0158 34.8525 46.6935C33.688 44.6557 32.947 42.2937 33.2415 39.9648C33.4863 38.0428 34.4158 36.1109 33.8832 34.2485C33.5061 32.9351 32.4541 31.9229 31.8785 30.6823C31.5907 30.067 31.4286 29.4186 31.3426 28.7537C31.0052 26.2429 31.723 23.4674 30.7405 21.0988C29.4967 18.1116 26.01 16.752 24.0913 14.1518C22.3909 11.8461 21.4845 7.06258 23.251 4.52197C23.7373 3.82396 24.5412 3.28475 25.5005 2.89108C27.7831 1.94497 30.9291 1.79941 32.6725 2.23277C36.2518 3.11934 38.7627 6.9038 38.5013 10.5857C38.4021 11.9983 37.9588 13.4538 38.412 14.7969C38.7329 15.743 39.4574 16.484 40.0925 17.2548C41.7234 19.233 42.9143 21.7538 42.6066 24.301C42.2891 26.9045 40.4498 29.369 41.0618 31.9196C41.4356 33.481 42.6894 34.7447 42.954 36.3292C43.3013 38.4398 41.8392 40.3552 40.8931 42.2739Z" fill="#B28D7B"/>
<path d="M5.81455 43.7889H37.4465C43.0735 43.7889 47.642 48.3574 47.642 53.9845V62H-4.38098V53.9845C-4.38098 48.3574 0.187488 43.7889 5.81455 43.7889Z" fill="#F4F3FA"/>
<path d="M26.2719 37.4176V33.8746H16.9894V37.4176C16.9894 40.0012 16.0566 42.565 14.1643 44.3216C13.903 44.5631 13.7607 44.8211 13.7607 45.0924C13.7607 46.4354 17.2839 47.5271 21.6307 47.5271C25.9775 47.5271 29.5006 46.4388 29.5006 45.0924C29.5006 44.8244 29.3584 44.5631 29.097 44.3216C27.2048 42.565 26.2719 40.0012 26.2719 37.4176Z" fill="#F4D1C3"/>
<path d="M36.5992 17.3442C36.5992 18.5053 36.4635 19.6631 36.1989 20.7879C35.4413 23.9934 33.7013 26.749 31.3426 28.7537C31.0052 26.2429 31.723 23.4674 30.7405 21.0988C29.4967 18.1116 26.01 16.752 24.0913 14.1518C22.3909 11.8461 21.4845 7.06261 23.251 4.522C23.7373 3.82399 24.5412 3.28478 25.5005 2.89111C31.8918 4.60801 36.5992 10.5229 36.5992 17.3442Z" fill="#A37E6F"/>
<path d="M34.9455 17.3441C34.9455 18.3994 34.8231 19.4249 34.5916 20.4107C33.2055 26.2859 27.9291 30.6591 21.6305 30.6591C15.3319 30.6591 9.95955 26.2065 8.63631 20.2519C8.4246 19.3157 8.31543 18.3431 8.31543 17.3441C8.31543 9.99352 14.2766 4.03235 21.6305 4.03235C21.8091 4.03235 21.9878 4.03566 22.1664 4.04227C22.3781 4.0522 22.5865 4.06543 22.7949 4.08528C29.603 4.67081 34.9455 10.3839 34.9455 17.3441Z" fill="#B28D7B"/>
<path d="M11.8051 29.326C10.4091 29.1143 9.22148 28.0689 8.89398 26.6035C8.56648 25.1446 9.19502 23.699 10.3628 22.9083L11.6893 28.8662C11.7257 29.0217 11.7621 29.1738 11.8018 29.3227L11.8051 29.326Z" fill="#F4D1C3"/>
<path d="M13.1125 29.283C12.6725 29.3822 12.2293 29.3922 11.8091 29.3293C11.7661 29.1738 11.733 29.0217 11.6967 28.8695L10.3701 22.9116C10.7274 22.6701 11.131 22.4882 11.5776 22.3923C13.4797 21.9688 15.3686 23.1663 15.7921 25.0685C16.2155 26.9706 15.018 28.8596 13.1158 29.283H13.1125Z" fill="#E8BBAA"/>
<path d="M31.4551 29.326C32.8511 29.1143 34.0387 28.0689 34.3662 26.6035C34.6937 25.1446 34.0652 23.699 32.8974 22.9083L31.5709 28.8662C31.5345 29.0217 31.4981 29.1738 31.4584 29.3227L31.4551 29.326Z" fill="#F4D1C3"/>
<path d="M30.1485 29.283C30.5884 29.3822 31.0317 29.3922 31.4518 29.3293C31.4949 29.1738 31.5279 29.0217 31.5643 28.8695L32.8909 22.9116C32.5336 22.6701 32.13 22.4882 31.6834 22.3923C29.7813 21.9688 27.8923 23.1663 27.4689 25.0685C27.0455 26.9706 28.243 28.8596 30.1452 29.283H30.1485Z" fill="#E8BBAA"/>
<path d="M26.2718 34.8671V39.4322C24.8327 40.0211 23.2647 40.342 21.6305 40.342C19.9963 40.342 18.4283 40.0211 16.9893 39.4322V34.8671H26.2718Z" fill="#E8BBAA"/>
<path d="M21.6305 38.0263C17.8163 38.0263 14.5149 35.3699 13.7011 31.6449L10.7767 18.2803C10.307 11.9684 15.3022 6.58618 21.6305 6.58618C27.9622 6.58618 32.9574 11.9684 32.4844 18.2803L29.56 31.6449C28.7429 35.3699 25.4448 38.0263 21.6305 38.0263Z" fill="#F4D1C3"/>
<path d="M22.5932 27.8936C22.355 28.0722 22.0109 28.1814 21.6305 28.1814C21.2501 28.1814 20.9093 28.0689 20.6678 27.8936" stroke="#D1A193" stroke-width="0.661618" stroke-linecap="round" stroke-linejoin="round"/>
<path d="M19.0696 21.4097C19.0067 21.4097 18.9438 21.3965 18.881 21.3734C18.4939 21.2146 17.9349 21.1219 17.3527 21.1219C16.7704 21.1219 16.2081 21.2146 15.8276 21.3734C15.5729 21.4792 15.2851 21.3601 15.1792 21.1054C15.0734 20.854 15.1925 20.5629 15.4472 20.457C15.9533 20.2453 16.6315 20.1295 17.356 20.1295C18.0804 20.1295 18.752 20.2453 19.2614 20.4537C19.5161 20.5596 19.6352 20.8474 19.5327 21.1021C19.4533 21.294 19.268 21.4097 19.0729 21.4097H19.0696Z" fill="#B28D7B"/>
<path d="M24.191 21.4097C23.9958 21.4097 23.8106 21.294 23.7312 21.1021C23.6286 20.8474 23.7477 20.5596 24.0025 20.4537C24.5152 20.2453 25.1901 20.1295 25.9079 20.1295C26.6258 20.1295 27.3105 20.2453 27.8167 20.457C28.0681 20.5629 28.1905 20.854 28.0846 21.1054C27.9788 21.3601 27.6877 21.4792 27.4362 21.3734C27.0558 21.2146 26.4967 21.1219 25.9112 21.1219C25.3257 21.1219 24.7699 21.2146 24.3829 21.3734C24.32 21.3998 24.2572 21.4097 24.1943 21.4097H24.191Z" fill="#B28D7B"/>
<path d="M22.8442 32.4819C22.8276 32.5713 22.8011 32.6573 22.7681 32.7367C22.5828 33.1634 22.1428 33.4644 21.6301 33.4644C21.1173 33.4644 20.6774 33.1634 20.4954 32.7367C20.459 32.6573 20.4326 32.5713 20.416 32.4819C20.7766 32.6176 21.1901 32.6937 21.6301 32.6937C22.0701 32.6937 22.4836 32.6176 22.8442 32.4819Z" fill="#E8BBAA"/>
<path d="M24.3395 29.8917C23.9029 30.9536 22.8542 31.7012 21.6302 31.7012C20.4062 31.7012 19.3576 30.9536 18.9209 29.8917C19.7479 29.713 23.5125 29.713 24.3395 29.8917Z" fill="#F4807D"/>
<path d="M18.776 23.8908C18.4253 23.8081 17.9357 23.7751 17.38 23.8148C16.8242 23.8578 16.3115 23.9603 15.9277 24.1026C16.2056 23.4873 16.8375 23.0076 17.5024 22.9613C18.1706 22.9083 18.6734 23.3053 18.7727 23.8908H18.776Z" fill="#453C56"/>
<path d="M10.0985 26.2627L11.4714 26.0642" stroke="#E8BBAA" stroke-width="0.992426" stroke-linecap="round" stroke-linejoin="round"/>
<path d="M33.3771 18.7435C33.3771 19.0677 33.3672 19.3985 33.3441 19.726L32.914 21.8994C32.4806 14.185 27.5946 10.331 21.6301 10.331C15.6656 10.331 10.7796 14.1883 10.3462 21.8994L9.91618 19.726C9.40674 12.1703 14.7956 5.72949 21.6301 5.72949C28.4646 5.72949 33.3771 11.6179 33.3771 18.7402V18.7435Z" fill="#B28D7B"/>
<path d="M11.5739 22.3922C11.5739 22.3922 11.0347 13.5431 17.5219 11.0223L15.8744 9.83801L9.58244 14.1518L8.80835 19.2065L11.5706 22.3955L11.5739 22.3922Z" fill="#B28D7B"/>
<path d="M31.687 22.3922C31.687 22.3922 32.2262 13.5431 25.739 11.0223L27.3864 9.83801L33.6784 14.1518L34.4525 19.2065L31.6903 22.3955L31.687 22.3922Z" fill="#B28D7B"/>
<path d="M18.0081 25.6111C18.5434 25.6111 18.9774 25.0631 18.9774 24.3871C18.9774 23.7111 18.5434 23.1631 18.0081 23.1631C17.4728 23.1631 17.0388 23.7111 17.0388 24.3871C17.0388 25.0631 17.4728 25.6111 18.0081 25.6111Z" fill="#453C56"/>
<path d="M24.4852 23.8908C24.8359 23.8081 25.3255 23.7751 25.8812 23.8148C26.437 23.8578 26.9498 23.9603 27.3335 24.1026C27.0556 23.4873 26.4238 23.0076 25.7588 22.9613C25.0906 22.9083 24.5878 23.3053 24.4885 23.8908H24.4852Z" fill="#453C56"/>
<path d="M25.2525 25.6111C25.7878 25.6111 26.2217 25.0631 26.2217 24.3871C26.2217 23.7111 25.7878 23.1631 25.2525 23.1631C24.7172 23.1631 24.2832 23.7111 24.2832 24.3871C24.2832 25.0631 24.7172 25.6111 25.2525 25.6111Z" fill="#453C56"/>
<path d="M25.7394 8.02856H17.6279V18.8162H25.7394V8.02856Z" fill="#B28D7B"/>
<path d="M11.5735 22.3922L10.4785 17.2349L14.3953 7.18164L19.5493 9.18965L15.8343 17.0728C14.8518 19.1569 13.3929 20.9797 11.5735 22.3922Z" fill="#B28D7B"/>
<path d="M31.7962 22.3922L32.8912 17.2349L28.9744 7.18164L23.8204 9.18965L27.5354 17.0728C28.5179 19.1569 29.9768 20.9797 31.7962 22.3922Z" fill="#B28D7B"/>
<path d="M16.8501 39.4553H15.1067L11.3223 43.8121L15.5268 53.2401L20.2541 48.3475L21.6832 47.5469L20.2541 47.5072L16.516 40.7223L16.8501 39.4553Z" fill="#F4F3FA"/>
<path d="M26.519 39.4553H28.2624L32.0435 43.8121L27.839 53.2401L23.115 48.3475L21.6826 47.5469L23.115 47.5072L26.8532 40.7223L26.519 39.4553Z" fill="#F4F3FA"/>
<path d="M40.8969 42.2739C39.352 45.4099 39.1336 49.1745 40.3113 52.4694C38.0684 51.0105 36.1828 49.0158 34.8563 46.6935C33.6918 44.6557 32.9508 42.2937 33.2452 39.9648C33.49 38.0428 34.4196 36.1109 33.887 34.2485C33.5099 32.9351 32.4579 31.9229 31.8823 30.6823C31.5945 30.067 31.4324 29.4186 31.3464 28.7537C31.009 26.2429 31.7268 23.4674 30.7443 21.0988C29.5005 18.1116 26.0138 16.752 24.0951 14.1518C22.3947 11.8461 21.4883 7.06258 23.2548 4.52197C23.7411 3.82396 24.545 3.28475 25.5043 2.89108C27.7869 1.94497 30.9329 1.79941 32.6763 2.23277C36.2556 3.11934 38.7664 6.9038 38.5051 10.5857C38.4059 11.9983 37.9626 13.4538 38.4158 14.7969C38.7367 15.743 39.4611 16.484 40.0963 17.2548C41.7272 19.233 42.9181 21.7538 42.6104 24.301C42.2929 26.9045 40.4536 29.369 41.0656 31.9196C41.4394 33.481 42.6931 34.7447 42.9578 36.3292C43.3051 38.4398 41.843 40.3552 40.8969 42.2739Z" fill="#969696"/>
<path d="M5.81454 43.7889H37.4465C43.0735 43.7889 47.642 48.3574 47.642 53.9845V62H-4.38098V53.9845C-4.38098 48.3574 0.187486 43.7889 5.81454 43.7889Z" fill="#F4F4F4"/>
<path d="M26.2719 37.4176V33.8746H16.9894V37.4176C16.9894 40.0012 16.0566 42.565 14.1643 44.3216C13.903 44.5631 13.7607 44.8211 13.7607 45.0924C13.7607 46.4354 17.2839 47.5271 21.6307 47.5271C25.9775 47.5271 29.5006 46.4388 29.5006 45.0924C29.5006 44.8244 29.3584 44.5631 29.097 44.3216C27.2048 42.565 26.2719 40.0012 26.2719 37.4176Z" fill="#DADADA"/>
<path d="M36.603 17.3442C36.603 18.5053 36.4673 19.6631 36.2027 20.7879C35.4451 23.9934 33.7051 26.749 31.3464 28.7537C31.009 26.2429 31.7268 23.4674 30.7443 21.0988C29.5005 18.1116 26.0138 16.752 24.0951 14.1518C22.3947 11.8461 21.4883 7.06261 23.2548 4.522C23.7411 3.82399 24.545 3.28478 25.5043 2.89111C31.8955 4.60801 36.603 10.5229 36.603 17.3442Z" fill="#878787"/>
<path d="M34.9455 17.3441C34.9455 18.3994 34.8231 19.4249 34.5916 20.4107C33.2055 26.2859 27.9291 30.6591 21.6305 30.6591C15.3319 30.6591 9.95955 26.2065 8.63631 20.2519C8.4246 19.3157 8.31543 18.3431 8.31543 17.3441C8.31543 9.99352 14.2766 4.03235 21.6305 4.03235C21.8091 4.03235 21.9878 4.03566 22.1664 4.04227C22.3781 4.0522 22.5865 4.06543 22.7949 4.08528C29.603 4.67081 34.9455 10.3839 34.9455 17.3441Z" fill="#969696"/>
<path d="M11.8088 29.326C10.4127 29.1143 9.22514 28.0689 8.89764 26.6035C8.57014 25.1446 9.19868 23.699 10.3664 22.9083L11.693 28.8662C11.7294 29.0217 11.7658 29.1738 11.8054 29.3227L11.8088 29.326Z" fill="#DADADA"/>
<path d="M13.1125 29.283C12.6725 29.3822 12.2293 29.3922 11.8091 29.3293C11.7661 29.1738 11.7331 29.0217 11.6967 28.8695L10.3701 22.9116C10.7274 22.6701 11.131 22.4882 11.5776 22.3923C13.4797 21.9688 15.3686 23.1663 15.7921 25.0685C16.2155 26.9706 15.018 28.8596 13.1158 29.283H13.1125Z" fill="#C7C7C7"/>
<path d="M31.4551 29.326C32.8511 29.1143 34.0387 28.0689 34.3662 26.6035C34.6937 25.1446 34.0652 23.699 32.8974 22.9083L31.5709 28.8662C31.5345 29.0217 31.4981 29.1738 31.4584 29.3227L31.4551 29.326Z" fill="#DADADA"/>
<path d="M30.1521 29.283C30.5921 29.3822 31.0354 29.3922 31.4555 29.3293C31.4985 29.1738 31.5316 29.0217 31.568 28.8695L32.8945 22.9116C32.5373 22.6701 32.1337 22.4882 31.6871 22.3923C29.7849 21.9688 27.896 23.1663 27.4726 25.0685C27.0491 26.9706 28.2467 28.8596 30.1488 29.283H30.1521Z" fill="#C7C7C7"/>
<path d="M26.2717 34.8671V39.4322C24.8327 40.0211 23.2647 40.342 21.6305 40.342C19.9963 40.342 18.4283 40.0211 16.9893 39.4322V34.8671H26.2717Z" fill="#C7C7C7"/>
<path d="M21.6305 38.0263C17.8163 38.0263 14.5149 35.3699 13.7011 31.6449L10.7767 18.2803C10.307 11.9684 15.3022 6.58618 21.6305 6.58618C27.9622 6.58618 32.9574 11.9684 32.4844 18.2803L29.56 31.6449C28.7429 35.3699 25.4448 38.0263 21.6305 38.0263Z" fill="#DADADA"/>
<path d="M22.5932 27.8936C22.355 28.0722 22.0109 28.1814 21.6305 28.1814C21.2501 28.1814 20.9093 28.0689 20.6678 27.8936" stroke="#AEAEAE" stroke-width="0.661618" stroke-linecap="round" stroke-linejoin="round"/>
<path d="M19.0696 21.4097C19.0067 21.4097 18.9438 21.3965 18.881 21.3734C18.4939 21.2146 17.9349 21.1219 17.3527 21.1219C16.7704 21.1219 16.2081 21.2146 15.8276 21.3734C15.5729 21.4792 15.2851 21.3601 15.1792 21.1054C15.0734 20.854 15.1925 20.5629 15.4472 20.457C15.9533 20.2453 16.6315 20.1295 17.356 20.1295C18.0804 20.1295 18.752 20.2453 19.2614 20.4537C19.5161 20.5596 19.6352 20.8474 19.5327 21.1021C19.4533 21.294 19.268 21.4097 19.0729 21.4097H19.0696Z" fill="#969696"/>
<path d="M24.1938 21.4097C23.9986 21.4097 23.8134 21.294 23.734 21.1021C23.6314 20.8474 23.7505 20.5596 24.0053 20.4537C24.518 20.2453 25.1929 20.1295 25.9107 20.1295C26.6286 20.1295 27.3133 20.2453 27.8195 20.457C28.0709 20.5629 28.1933 20.854 28.0874 21.1054C27.9816 21.3601 27.6905 21.4792 27.439 21.3734C27.0586 21.2146 26.4996 21.1219 25.914 21.1219C25.3285 21.1219 24.7727 21.2146 24.3857 21.3734C24.3228 21.3998 24.26 21.4097 24.1971 21.4097H24.1938Z" fill="#969696"/>
<path d="M24.3395 29.8917C23.9029 30.9536 22.8542 31.7012 21.6302 31.7012C20.4062 31.7012 19.3576 30.9536 18.9209 29.8917C19.7479 29.713 23.5125 29.713 24.3395 29.8917Z" fill="#A2A2A2"/>
<path d="M18.776 23.8908C18.4253 23.8081 17.9357 23.7751 17.38 23.8148C16.8242 23.8578 16.3115 23.9603 15.9277 24.1026C16.2056 23.4873 16.8375 23.0076 17.5024 22.9613C18.1706 22.9083 18.6734 23.3053 18.7727 23.8908H18.776Z" fill="#424242"/>
<path d="M10.0985 26.2627L11.4714 26.0642" stroke="#C7C7C7" stroke-width="0.992426" stroke-linecap="round" stroke-linejoin="round"/>
<path d="M33.3771 18.7435C33.3771 19.0677 33.3672 19.3985 33.3441 19.726L32.914 21.8994C32.4807 14.185 27.5946 10.331 21.6301 10.331C15.6656 10.331 10.7796 14.1883 10.3462 21.8994L9.91618 19.726C9.40674 12.1703 14.7956 5.72949 21.6301 5.72949C28.4646 5.72949 33.3771 11.6179 33.3771 18.7402V18.7435Z" fill="#969696"/>
<path d="M11.5739 22.3922C11.5739 22.3922 11.0347 13.5431 17.5219 11.0223L15.8744 9.83801L9.58245 14.1518L8.80835 19.2065L11.5706 22.3955L11.5739 22.3922Z" fill="#969696"/>
<path d="M31.687 22.3922C31.687 22.3922 32.2262 13.5431 25.739 11.0223L27.3864 9.83801L33.6784 14.1518L34.4525 19.2065L31.6903 22.3955L31.687 22.3922Z" fill="#969696"/>
<path d="M18.0081 25.6111C18.5434 25.6111 18.9774 25.0631 18.9774 24.3871C18.9774 23.7111 18.5434 23.1631 18.0081 23.1631C17.4728 23.1631 17.0388 23.7111 17.0388 24.3871C17.0388 25.0631 17.4728 25.6111 18.0081 25.6111Z" fill="#424242"/>
<path d="M24.4852 23.8908C24.8359 23.8081 25.3255 23.7751 25.8812 23.8148C26.437 23.8578 26.9498 23.9603 27.3335 24.1026C27.0556 23.4873 26.4238 23.0076 25.7588 22.9613C25.0906 22.9083 24.5878 23.3053 24.4885 23.8908H24.4852Z" fill="#424242"/>
<path d="M25.2563 25.6111C25.7916 25.6111 26.2255 25.0631 26.2255 24.3871C26.2255 23.7111 25.7916 23.1631 25.2563 23.1631C24.721 23.1631 24.287 23.7111 24.287 24.3871C24.287 25.0631 24.721 25.6111 25.2563 25.6111Z" fill="#424242"/>
<path d="M25.7394 8.02856H17.6279V18.8162H25.7394V8.02856Z" fill="#969696"/>
<path d="M11.5735 22.3922L10.4785 17.2349L14.3953 7.18164L19.5493 9.18965L15.8343 17.0728C14.8518 19.1569 13.3929 20.9797 11.5735 22.3922Z" fill="#969696"/>
<path d="M31.7962 22.3922L32.8912 17.2349L28.9744 7.18164L23.8204 9.18965L27.5354 17.0728C28.5179 19.1569 29.9768 20.9797 31.7962 22.3922Z" fill="#969696"/>
<path d="M16.8501 39.4553H15.1067L11.3223 43.8121L15.5302 53.2401L20.2541 48.3475L21.6865 47.5469L20.2541 47.5072L16.516 40.7223L16.8501 39.4553Z" fill="#F4F4F4"/>
<path d="M26.5194 39.4553H28.2628L32.0472 43.8121L27.8426 53.2401L23.1154 48.3475L21.6863 47.5469L23.1154 47.5072L26.8535 40.7223L26.5194 39.4553Z" fill="#F4F4F4"/>
</g>
<rect x="0.5" y="0.5" width="43" height="43" rx="21.5" stroke="#F5F5F5"/>
<defs>
<clipPath id="clip0_2086_22824">
<rect width="44" height="44" rx="22" fill="white"/>
</clipPath>
</defs>
</svg>
