<svg width="100" height="44" viewBox="0 0 100 44" fill="none" xmlns="http://www.w3.org/2000/svg">
<g clip-path="url(#clip0_2086_22950)">
<rect x="0.5" width="99" height="44" rx="22" fill="white"/>
<g clip-path="url(#clip1_2086_22950)">
<path d="M84.3932 17.2991V30.886C84.3932 33.5333 82.2467 35.6761 79.603 35.6761H60.3889C57.7416 35.6761 55.5988 33.5297 55.5988 30.886V17.2991H84.3967H84.3932Z" fill="#352F2F"/>
<path d="M84.3928 17.299C84.3928 18.4402 84.2605 19.5492 84.01 20.6152C82.5111 26.9687 76.8052 31.698 69.9938 31.698C63.1825 31.698 57.3728 26.8828 55.9419 20.4435C55.9275 20.3863 55.9168 20.3326 55.9061 20.2754C55.6986 19.3166 55.5948 18.3185 55.5948 17.299C55.5948 13.5642 57.0222 10.1585 59.3547 7.60067C61.9876 4.71372 65.7797 2.90356 69.9938 2.90356C70.187 2.90356 70.3802 2.90714 70.5734 2.9143C70.8023 2.92503 71.0277 2.93934 71.2531 2.9608C78.6153 3.594 84.3928 9.77215 84.3928 17.299Z" fill="#352F2F"/>
<path d="M59.3692 30.2834C57.8595 30.0544 56.5752 28.924 56.2211 27.3392C55.8669 25.7616 56.5466 24.1983 57.8094 23.3433L59.244 29.7861C59.2833 29.9543 59.3227 30.1188 59.3656 30.2798L59.3692 30.2834Z" fill="#F4D1C3"/>
<path d="M60.7823 30.2369C60.3065 30.3442 59.8271 30.3549 59.3728 30.287C59.3263 30.1188 59.2905 29.9543 59.2512 29.7897L57.8167 23.3468C58.203 23.0857 58.6395 22.8889 59.1224 22.7852C61.1794 22.3273 63.2221 23.6223 63.68 25.6793C64.1379 27.7363 62.8429 29.779 60.7859 30.2369H60.7823Z" fill="#E8BBAA"/>
<path d="M80.6182 30.2834C82.1278 30.0544 83.4121 28.924 83.7663 27.3392C84.1204 25.7616 83.4407 24.1983 82.1779 23.3433L80.7434 29.7861C80.704 29.9543 80.6647 30.1188 80.6217 30.2798L80.6182 30.2834Z" fill="#F4D1C3"/>
<path d="M79.2056 30.2369C79.6813 30.3442 80.1607 30.3549 80.615 30.287C80.6616 30.1188 80.6973 29.9543 80.7367 29.7897L82.1712 23.3468C81.7849 23.0857 81.3484 22.8889 80.8655 22.7852C78.8085 22.3273 76.7658 23.6223 76.3079 25.6793C75.85 27.7363 77.145 29.779 79.202 30.2369H79.2056Z" fill="#E8BBAA"/>
<path d="M57.5234 26.9707L59.0081 26.7524" stroke="#E8BBAA" stroke-width="1.07322" stroke-linecap="round" stroke-linejoin="round"/>
<path d="M82.4644 26.9707L80.9797 26.7524" stroke="#E8BBAA" stroke-width="1.07322" stroke-linecap="round" stroke-linejoin="round"/>
<path d="M75.0131 37.7528V33.9214H64.9749V37.7528C64.9749 40.5467 63.9661 43.3192 61.9198 45.2188C61.6372 45.4799 61.4834 45.759 61.4834 46.0523C61.4834 47.5047 65.2933 48.6853 69.994 48.6853C74.6947 48.6853 78.5046 47.5083 78.5046 46.0523C78.5046 45.7625 78.3508 45.4799 78.0682 45.2188C76.0219 43.3192 75.0131 40.5467 75.0131 37.7528Z" fill="#F4D1C3"/>
<path d="M75.0137 34.9946V39.9314C73.4576 40.5682 71.7619 40.9152 69.9947 40.9152C68.2274 40.9152 66.5317 40.5682 64.9756 39.9314V34.9946H75.0137Z" fill="#E8BBAA"/>
<path d="M69.9942 38.4111C65.2613 38.4111 61.226 34.9876 60.4533 30.3191L58.2567 17.0577C57.7488 10.232 63.1506 4.41162 69.9942 4.41162C76.8413 4.41162 82.2431 10.232 81.7316 17.0577L79.535 30.3191C78.7623 34.9876 74.7235 38.4111 69.9942 38.4111Z" fill="#F4D1C3"/>
<path d="M65.5509 24.9887C66.2543 24.9887 66.8244 24.4186 66.8244 23.7152C66.8244 23.0118 66.2543 22.4417 65.5509 22.4417C64.8475 22.4417 64.2773 23.0118 64.2773 23.7152C64.2773 24.4186 64.8475 24.9887 65.5509 24.9887Z" fill="#453C56"/>
<path d="M71.0354 26.9456C70.7778 27.1387 70.4058 27.2568 69.9944 27.2568C69.583 27.2568 69.2145 27.1352 68.9534 26.9456" stroke="#D1A193" stroke-width="0.715478" stroke-linecap="round" stroke-linejoin="round"/>
<path d="M72.3546 29.7539C71.9754 30.4622 71.0596 30.9631 69.9971 30.9631C68.9347 30.9631 68.0189 30.4622 67.6396 29.7539C68.3587 29.6358 69.1565 29.5679 69.9971 29.5679C70.8378 29.5679 71.6356 29.6358 72.3546 29.7539Z" fill="#F4807D"/>
<path opacity="0.5" d="M77.1092 29.432C78.4823 29.432 79.5955 28.3189 79.5955 26.9458C79.5955 25.5726 78.4823 24.4595 77.1092 24.4595C75.7361 24.4595 74.6229 25.5726 74.6229 26.9458C74.6229 28.3189 75.7361 29.432 77.1092 29.432Z" fill="url(#paint0_radial_2086_22950)"/>
<path d="M66.5495 23.0319C66.0988 23.0104 65.4906 23.0641 64.8217 23.1965C64.1563 23.3288 63.5624 23.5149 63.1367 23.7152C63.2905 23.082 63.9166 22.5203 64.7179 22.3629C65.5193 22.202 66.249 22.4917 66.546 23.0319H66.5495Z" fill="#453C56"/>
<path d="M74.4415 24.9887C75.1449 24.9887 75.7151 24.4186 75.7151 23.7152C75.7151 23.0118 75.1449 22.4417 74.4415 22.4417C73.7382 22.4417 73.168 23.0118 73.168 23.7152C73.168 24.4186 73.7382 24.9887 74.4415 24.9887Z" fill="#453C56"/>
<path d="M73.4396 23.0319C73.8903 23.0104 74.4985 23.0641 75.1675 23.1965C75.8328 23.3288 76.4267 23.5149 76.8524 23.7152C76.6986 23.082 76.0725 22.5203 75.2712 22.3629C74.4699 22.202 73.7401 22.4917 73.4432 23.0319H73.4396Z" fill="#453C56"/>
<path d="M64.0088 20.5242C64.0088 20.5242 64.8423 19.9161 66.1481 19.6406" stroke="#352F2F" stroke-width="1.07322" stroke-linecap="round" stroke-linejoin="round"/>
<path d="M75.9791 20.5242C75.9791 20.5242 75.1456 19.9161 73.8398 19.6406" stroke="#352F2F" stroke-width="1.07322" stroke-linecap="round" stroke-linejoin="round"/>
<path d="M72.0112 30.2011C72.1507 30.0651 72.2688 29.9149 72.3546 29.7539C71.6356 29.6358 70.8378 29.5679 69.9971 29.5679C69.1565 29.5679 68.3587 29.6358 67.6396 29.7539C67.7255 29.9149 67.8436 30.0651 67.9831 30.2011C68.6306 30.1367 69.3067 30.1045 70.0007 30.1045C70.6947 30.1045 71.3673 30.1403 72.0184 30.2011H72.0112Z" fill="#D35F5F"/>
<path d="M83.2375 16.186V20.4557C81.5675 19.1959 78.7744 18.2047 75.39 17.6927C75.3568 16.7415 75.1351 14.6901 73.9417 12.8021V17.5076C72.7077 17.3732 71.4108 17.3042 70.0734 17.3042C68.7359 17.3042 67.439 17.3732 66.205 17.5076V12.8021C65.0153 14.6901 64.79 16.7415 64.7567 17.6927C61.3724 18.2047 58.5792 19.1959 56.9092 20.4557V16.186C56.9092 9.54165 62.3884 4.15723 69.146 4.15723H71.0007C77.7583 4.15723 83.2375 9.54165 83.2375 16.186Z" fill="#352F2F"/>
<path d="M59.1192 22.7815C59.1192 22.7815 59.2158 17.2831 64.2778 16.8108L56.7295 15.8235L57.5237 21.1323L59.1192 22.7815Z" fill="#352F2F"/>
<path d="M80.8695 22.7815C80.8695 22.7815 80.7729 17.2831 75.7109 16.8108L83.2592 15.8235L82.465 21.1323L80.8695 22.7815Z" fill="#352F2F"/>
</g>
<g clip-path="url(#clip2_2086_22950)">
<path d="M34.3925 26.4864C40.8956 26.4864 46.1674 21.2145 46.1674 14.7114C46.1674 8.20833 40.8956 2.93652 34.3925 2.93652C27.8894 2.93652 22.6176 8.20833 22.6176 14.7114C22.6176 21.2145 27.8894 26.4864 34.3925 26.4864Z" fill="#665C59"/>
<path d="M38.1237 25.834C41.5956 25.834 44.4102 23.0194 44.4102 19.5475C44.4102 16.0756 41.5956 13.261 38.1237 13.261C34.6517 13.261 31.8372 16.0756 31.8372 19.5475C31.8372 23.0194 34.6517 25.834 38.1237 25.834Z" fill="#665C59"/>
<path d="M26.6668 25.2799C31.5859 25.2799 35.5736 20.6428 35.5736 14.9227C35.5736 9.20253 31.5859 4.56543 26.6668 4.56543C21.7477 4.56543 17.76 9.20253 17.76 14.9227C17.76 20.6428 21.7477 25.2799 26.6668 25.2799Z" fill="#665C59"/>
<path d="M36.7687 37.5686V33.6655H26.5426V37.5686C26.5426 40.4149 25.5149 43.2393 23.4303 45.1744C23.1424 45.4404 22.9857 45.7247 22.9857 46.0235C22.9857 47.5031 26.867 48.7058 31.6556 48.7058C36.4443 48.7058 40.3256 47.5068 40.3256 46.0235C40.3256 45.7283 40.1689 45.4404 39.881 45.1744C37.7964 43.2393 36.7687 40.4149 36.7687 37.5686Z" fill="#F4D1C3"/>
<path d="M19.5087 28.5307C18.0218 28.0788 16.8921 26.7486 16.7682 25.1014C16.6443 23.4578 17.559 21.9818 18.9584 21.3076L19.4577 28.0132C19.4723 28.1882 19.4869 28.3594 19.5087 28.5307Z" fill="#F4D1C3"/>
<path d="M20.9381 28.691C20.4425 28.7274 19.9578 28.6691 19.5095 28.5343C19.4877 28.3594 19.4731 28.1881 19.4585 28.0132L18.9592 21.3075C19.3856 21.0998 19.8557 20.9686 20.3587 20.9322C22.5015 20.7718 24.3675 22.379 24.5278 24.5219C24.6882 26.6647 23.081 28.5307 20.9381 28.691Z" fill="#E8BBAA"/>
<path d="M46.5387 25.1014C46.4147 26.7486 45.285 28.0788 43.7981 28.5344C43.82 28.3631 43.8345 28.1882 43.8491 28.0132L44.3484 21.3076C45.7478 21.9818 46.6626 23.4578 46.5387 25.1014Z" fill="#F4D1C3"/>
<path d="M44.3495 21.3075L43.8502 28.0132C43.8356 28.1881 43.8211 28.363 43.7992 28.5343C43.3509 28.6691 42.8662 28.7274 42.3706 28.691C40.2277 28.5307 38.6206 26.6647 38.7809 24.5219C38.9413 22.379 40.8072 20.7718 42.9501 20.9322C43.453 20.9686 43.9231 21.0998 44.3495 21.3075Z" fill="#E8BBAA"/>
<path d="M36.7683 34.759V39.7882C35.183 40.4369 33.4556 40.7904 31.6553 40.7904C29.855 40.7904 28.1275 40.4369 26.5422 39.7882V34.759H36.7683Z" fill="#E8BBAA"/>
<path d="M31.655 38.2393C26.4034 38.2393 22.0411 33.7458 21.6512 27.9331L20.8822 19.4053C20.4158 12.4518 25.3721 6.52246 31.655 6.52246C37.9378 6.52246 42.8978 12.4518 42.4277 19.4053L41.6587 27.9331C41.2688 33.7458 36.9065 38.2393 31.655 38.2393Z" fill="#F4D1C3"/>
<path d="M27.1295 23.3157C27.8461 23.3157 28.4269 22.7349 28.4269 22.0183C28.4269 21.3018 27.8461 20.7209 27.1295 20.7209C26.413 20.7209 25.8322 21.3018 25.8322 22.0183C25.8322 22.7349 26.413 23.3157 27.1295 23.3157Z" fill="#453C56"/>
<path d="M36.1814 23.3157C36.898 23.3157 37.4788 22.7349 37.4788 22.0183C37.4788 21.3018 36.898 20.7209 36.1814 20.7209C35.4649 20.7209 34.884 21.3018 34.884 22.0183C34.884 22.7349 35.4649 23.3157 36.1814 23.3157Z" fill="#453C56"/>
<path d="M32.716 25.6772C32.4536 25.874 32.0746 25.9943 31.6555 25.9943C31.2364 25.9943 30.861 25.8704 30.595 25.6772" stroke="#D1A193" stroke-width="0.728871" stroke-linecap="round" stroke-linejoin="round"/>
<path opacity="0.5" d="M38.9042 28.2099C40.303 28.2099 41.437 27.076 41.437 25.6771C41.437 24.2783 40.303 23.1443 38.9042 23.1443C37.5053 23.1443 36.3713 24.2783 36.3713 25.6771C36.3713 27.076 37.5053 28.2099 38.9042 28.2099Z" fill="url(#paint1_radial_2086_22950)"/>
<path d="M28.095 21.1654C27.6359 21.1946 27.0273 21.3039 26.3676 21.4898C25.7116 21.6756 25.1322 21.9016 24.7277 22.1202C24.8078 21.5517 25.3727 20.9941 26.1635 20.7718C26.9544 20.5459 27.727 20.7245 28.095 21.1654Z" fill="#453C56"/>
<path d="M35.2159 21.1654C35.6751 21.1946 36.2837 21.3039 36.9434 21.4898C37.5994 21.6756 38.1788 21.9016 38.5833 22.1202C38.5032 21.5517 37.9383 20.9941 37.1474 20.7718C36.3566 20.5459 35.584 20.7245 35.2159 21.1654Z" fill="#453C56"/>
<path d="M18.135 24.9189H19.662" stroke="#E8BBAA" stroke-width="1.09331" stroke-linecap="round" stroke-linejoin="round"/>
<path d="M45.1757 24.9189H43.6487" stroke="#E8BBAA" stroke-width="1.09331" stroke-linecap="round" stroke-linejoin="round"/>
<path d="M26.0649 19.1611C25.7297 19.1611 25.4272 18.9278 25.3543 18.5889C25.2668 18.1953 25.5183 17.8054 25.9119 17.7216L28.0365 17.2587C28.4301 17.1749 28.8164 17.4227 28.9039 17.8163C28.9914 18.2099 28.7399 18.5998 28.3463 18.6837L26.2216 19.1465C26.1706 19.1574 26.116 19.1647 26.0649 19.1647V19.1611Z" fill="#665C59"/>
<path d="M37.2452 19.1608C37.5805 19.1608 37.883 18.9276 37.9559 18.5887C38.0434 18.1951 37.7919 17.8051 37.3983 17.7213L35.2736 17.2585C34.8801 17.1747 34.4938 17.4225 34.4063 17.8161C34.3188 18.2096 34.5703 18.5996 34.9639 18.6834L37.0885 19.1462C37.1396 19.1572 37.1942 19.1645 37.2452 19.1645V19.1608Z" fill="#665C59"/>
<path d="M29.3926 28.8333C29.3926 28.5344 33.9152 28.5344 33.9152 28.8333C33.9152 29.6715 32.9021 30.3493 31.6521 30.3493C30.402 30.3493 29.3889 29.6715 29.3889 28.8333H29.3926Z" fill="#F4807D"/>
<path d="M31.1667 13.6107C34.383 13.6107 36.9904 11.0034 36.9904 7.78706C36.9904 4.57073 34.383 1.96338 31.1667 1.96338C27.9504 1.96338 25.343 4.57073 25.343 7.78706C25.343 11.0034 27.9504 13.6107 31.1667 13.6107Z" fill="#665C59"/>
<path d="M21.0176 20.9212C21.0176 20.9212 28.1605 15.9029 27.5483 9.91527L26.5862 7.35693L21.0468 12.3388L20.1721 17.6996L21.0176 20.9176V20.9212Z" fill="#665C59"/>
<path d="M31.1672 13.6107C31.1672 13.6107 35.6826 13.1297 37.9749 15.5058C40.2672 17.8819 42.1222 22.7945 42.1222 22.7945L44.1812 21.2347L44.3489 19.7661V15.0976C44.3489 15.0976 44.3598 8.84392 42.5996 6.31838C40.8394 3.79285 36.5244 1.96338 31.1672 1.96338C25.81 1.96338 31.1672 13.6107 31.1672 13.6107Z" fill="#665C59"/>
</g>
<g clip-path="url(#clip3_2086_22950)">
<path d="M84.6601 16.0452V29.6321C84.6601 32.2794 82.5138 34.4222 79.8703 34.4222H60.6572C58.01 34.4222 55.8673 32.2758 55.8673 29.6321V16.0452H84.6637H84.6601Z" fill="#313131"/>
<path d="M84.6598 17.299C84.6598 18.4402 84.5274 19.5492 84.277 20.6152C82.7782 26.9687 77.0726 31.698 70.2616 31.698C63.4506 31.698 57.6413 26.8828 56.2104 20.4435C56.1961 20.3863 56.1853 20.3326 56.1746 20.2754C55.9671 19.3166 55.8634 18.3185 55.8634 17.299C55.8634 13.5642 57.2907 10.1585 59.623 7.60067C62.2558 4.71372 66.0477 2.90356 70.2616 2.90356C70.4548 2.90356 70.6479 2.90714 70.8411 2.9143C71.07 2.92503 71.2954 2.93934 71.5208 2.9608C78.8826 3.594 84.6598 9.77215 84.6598 17.299Z" fill="#313131"/>
<path d="M59.6407 30.2832C58.1312 30.0542 56.8469 28.9237 56.4928 27.339C56.1387 25.7613 56.8183 24.198 58.0811 23.343L59.5155 29.7859C59.5549 29.954 59.5942 30.1186 59.6372 30.2796L59.6407 30.2832Z" fill="#DADADA"/>
<path d="M61.0487 30.2369C60.573 30.3442 60.0936 30.3549 59.6393 30.287C59.5928 30.1188 59.5571 29.9543 59.5177 29.7897L58.0833 23.3468C58.4696 23.0857 58.906 22.8889 59.3889 22.7852C61.4458 22.3273 63.4884 23.6223 63.9463 25.6793C64.4042 27.7363 63.1092 29.779 61.0523 30.2369H61.0487Z" fill="#C7C7C7"/>
<path d="M80.8856 30.2832C82.3952 30.0542 83.6794 28.9237 84.0336 27.339C84.3877 25.7613 83.708 24.198 82.4453 23.343L81.0108 29.7859C80.9715 29.954 80.9321 30.1186 80.8892 30.2796L80.8856 30.2832Z" fill="#DADADA"/>
<path d="M79.4758 30.2369C79.9515 30.3442 80.4309 30.3549 80.8852 30.287C80.9317 30.1188 80.9675 29.9543 81.0068 29.7897L82.4413 23.3468C82.0549 23.0857 81.6185 22.8889 81.1356 22.7852C79.0787 22.3273 77.0361 23.6223 76.5783 25.6793C76.1204 27.7363 77.4153 29.779 79.4722 30.2369H79.4758Z" fill="#C7C7C7"/>
<path d="M57.79 26.9702L59.2746 26.7524" stroke="#C7C7C7" stroke-width="1.07089" stroke-linecap="round" stroke-linejoin="round"/>
<path d="M82.7316 26.9702L81.2471 26.7524" stroke="#C7C7C7" stroke-width="1.07089" stroke-linecap="round" stroke-linejoin="round"/>
<path d="M75.2799 37.7528V33.9214H65.2423V37.7528C65.2423 40.5467 64.2335 43.3192 62.1874 45.2188C61.9048 45.4799 61.751 45.759 61.751 46.0523C61.751 47.5047 65.5607 48.6853 70.2611 48.6853C74.9615 48.6853 78.7713 47.5083 78.7713 46.0523C78.7713 45.7625 78.6174 45.4799 78.3348 45.2188C76.2887 43.3192 75.2799 40.5467 75.2799 37.7528Z" fill="#DADADA"/>
<path d="M75.2798 34.9946V39.9314C73.7237 40.5682 72.0281 40.9152 70.261 40.9152C68.4939 40.9152 66.7983 40.5682 65.2422 39.9314V34.9946H75.2798Z" fill="#C7C7C7"/>
<path d="M70.261 38.4111C65.5283 38.4111 61.4933 34.9876 60.7206 30.3191L58.5242 17.0577C58.0162 10.232 63.4178 4.41162 70.261 4.41162C77.1077 4.41162 82.5093 10.232 81.9977 17.0577L79.8013 30.3191C79.0287 34.9876 74.99 38.4111 70.261 38.4111Z" fill="#DADADA"/>
<path d="M65.8186 24.9887C66.522 24.9887 67.0921 24.4186 67.0921 23.7152C67.0921 23.0118 66.522 22.4417 65.8186 22.4417C65.1153 22.4417 64.5452 23.0118 64.5452 23.7152C64.5452 24.4186 65.1153 24.9887 65.8186 24.9887Z" fill="#424242"/>
<path d="M71.3019 26.9456C71.0443 27.1383 70.6723 27.2561 70.2609 27.2561C69.8496 27.2561 69.4811 27.1347 69.22 26.9456" stroke="#AEAEAE" stroke-width="0.713929" stroke-linecap="round" stroke-linejoin="round"/>
<path d="M72.6209 29.7539C72.2417 30.4622 71.3259 30.9631 70.2635 30.9631C69.2011 30.9631 68.2853 30.4622 67.9061 29.7539C68.6251 29.6358 69.4229 29.5679 70.2635 29.5679C71.1041 29.5679 71.9019 29.6358 72.6209 29.7539Z" fill="#A2A2A2"/>
<path d="M66.8169 23.0319C66.3662 23.0104 65.7581 23.0641 65.0892 23.1965C64.4238 23.3288 63.83 23.5149 63.4043 23.7152C63.5581 23.082 64.1841 22.5203 64.9854 22.3629C65.7867 22.202 66.5165 22.4917 66.8134 23.0319H66.8169Z" fill="#424242"/>
<path d="M74.7073 24.9887C75.4106 24.9887 75.9808 24.4186 75.9808 23.7152C75.9808 23.0118 75.4106 22.4417 74.7073 22.4417C74.004 22.4417 73.4338 23.0118 73.4338 23.7152C73.4338 24.4186 74.004 24.9887 74.7073 24.9887Z" fill="#424242"/>
<path d="M73.7061 23.0319C74.1568 23.0104 74.7649 23.0641 75.4338 23.1965C76.0992 23.3288 76.693 23.5149 77.1187 23.7152C76.9649 23.082 76.3389 22.5203 75.5376 22.3629C74.7363 22.202 74.0065 22.4917 73.7096 23.0319H73.7061Z" fill="#424242"/>
<path d="M64.2754 20.5242C64.2754 20.5242 65.1089 19.9161 66.4145 19.6406" stroke="#313131" stroke-width="1.07089" stroke-linecap="round" stroke-linejoin="round"/>
<path d="M76.2457 20.5242C76.2457 20.5242 75.4122 19.9161 74.1066 19.6406" stroke="#313131" stroke-width="1.07089" stroke-linecap="round" stroke-linejoin="round"/>
<path d="M72.2775 30.2011C72.417 30.0651 72.535 29.9149 72.6209 29.7539C71.9019 29.6358 71.1041 29.5679 70.2635 29.5679C69.4229 29.5679 68.6251 29.6358 67.9061 29.7539C67.992 29.9149 68.11 30.0651 68.2495 30.2011C68.897 30.1367 69.5731 30.1045 70.2671 30.1045C70.9611 30.1045 71.6336 30.1403 72.2846 30.2011H72.2775Z" fill="#828282"/>
<path d="M83.5061 16.186V20.4557C81.8361 19.1959 79.0429 18.2047 75.6586 17.6927C75.6253 16.7415 75.4036 14.6901 74.2103 12.8021V17.5076C72.9762 17.3732 71.6794 17.3042 70.3419 17.3042C69.0044 17.3042 67.7076 17.3732 66.4736 17.5076V12.8021C65.2839 14.6901 65.0585 16.7415 65.0253 17.6927C61.6409 18.2047 58.8477 19.1959 57.1777 20.4557V16.186C57.1777 9.54165 62.657 4.15723 69.4145 4.15723H71.2693C78.0269 4.15723 83.5061 9.54165 83.5061 16.186Z" fill="#313131"/>
<path d="M59.3866 22.7815C59.3866 22.7815 59.4832 17.2831 64.5449 16.8108L56.9971 15.8235L57.7912 21.1323L59.3866 22.7815Z" fill="#313131"/>
<path d="M81.1358 22.7815C81.1358 22.7815 81.0393 17.2831 75.9775 16.8108L83.5254 15.8235L82.7313 21.1323L81.1358 22.7815Z" fill="#313131"/>
<path d="M34.6594 26.516C41.1622 26.516 46.4337 21.2445 46.4337 14.7418C46.4337 8.23903 41.1622 2.96753 34.6594 2.96753C28.1567 2.96753 22.8851 8.23903 22.8851 14.7418C22.8851 21.2445 28.1567 26.516 34.6594 26.516Z" fill="#5F5F5F"/>
<path d="M38.3919 25.8638C41.8636 25.8638 44.6781 23.0494 44.6781 19.5777C44.6781 16.1059 41.8636 13.2915 38.3919 13.2915C34.9201 13.2915 32.1057 16.1059 32.1057 19.5777C32.1057 23.0494 34.9201 25.8638 38.3919 25.8638Z" fill="#5F5F5F"/>
<path d="M26.9331 25.31C31.8519 25.31 35.8394 20.6732 35.8394 14.9533C35.8394 9.23351 31.8519 4.59668 26.9331 4.59668C22.0142 4.59668 18.0267 9.23351 18.0267 14.9533C18.0267 20.6732 22.0142 25.31 26.9331 25.31Z" fill="#5F5F5F"/>
<path d="M37.0364 37.5982V33.6953H26.8109V37.5982C26.8109 40.4443 25.7832 43.2685 23.6987 45.2035C23.4108 45.4695 23.2542 45.7538 23.2542 46.0526C23.2542 47.5321 27.1352 48.7347 31.9236 48.7347C36.712 48.7347 40.5931 47.5358 40.5931 46.0526C40.5931 45.7574 40.4364 45.4695 40.1485 45.2035C38.064 43.2685 37.0364 40.4443 37.0364 37.5982Z" fill="#DADADA"/>
<path d="M19.7771 28.5606C18.2903 28.1087 17.1606 26.7786 17.0367 25.1314C16.9128 23.4879 17.8275 22.0121 19.2269 21.3379L19.7261 28.0431C19.7407 28.218 19.7553 28.3893 19.7771 28.5606Z" fill="#DADADA"/>
<path d="M21.2047 28.7208C20.7091 28.7573 20.2245 28.699 19.7762 28.5641C19.7544 28.3892 19.7398 28.2179 19.7252 28.043L19.226 21.3378C19.6523 21.1301 20.1224 20.9989 20.6253 20.9624C22.7681 20.8021 24.6339 22.4092 24.7942 24.5519C24.9546 26.6947 23.3475 28.5605 21.2047 28.7208Z" fill="#C7C7C7"/>
<path d="M46.8051 25.1314C46.6812 26.7786 45.5515 28.1087 44.0647 28.5642C44.0866 28.393 44.1011 28.218 44.1157 28.0431L44.615 21.3379C46.0143 22.0121 46.929 23.4879 46.8051 25.1314Z" fill="#DADADA"/>
<path d="M44.6148 21.3378L44.1156 28.043C44.101 28.2179 44.0864 28.3929 44.0646 28.5641C43.6163 28.699 43.1317 28.7573 42.636 28.7208C40.4933 28.5605 38.8862 26.6947 39.0466 24.5519C39.2069 22.4092 41.0727 20.8021 43.2155 20.9624C43.7184 20.9989 44.1885 21.1301 44.6148 21.3378Z" fill="#C7C7C7"/>
<path d="M37.0344 34.7883V39.8173C35.4491 40.4659 33.7218 40.8194 31.9216 40.8194C30.1214 40.8194 28.394 40.4659 26.8088 39.8173V34.7883H37.0344Z" fill="#C7C7C7"/>
<path d="M31.9219 38.2685C26.6707 38.2685 22.3087 33.7752 21.9187 27.9628L21.1498 19.4355C20.6834 12.4825 25.6394 6.55347 31.9219 6.55347C38.2045 6.55347 43.1642 12.4825 42.6941 19.4355L41.9252 27.9628C41.5352 33.7752 37.1732 38.2685 31.9219 38.2685Z" fill="#DADADA"/>
<path d="M27.396 23.3456C28.1124 23.3456 28.6933 22.7648 28.6933 22.0483C28.6933 21.3318 28.1124 20.751 27.396 20.751C26.6795 20.751 26.0986 21.3318 26.0986 22.0483C26.0986 22.7648 26.6795 23.3456 27.396 23.3456Z" fill="#424242"/>
<path d="M36.448 23.3456C37.1644 23.3456 37.7453 22.7648 37.7453 22.0483C37.7453 21.3318 37.1644 20.751 36.448 20.751C35.7315 20.751 35.1506 21.3318 35.1506 22.0483C35.1506 22.7648 35.7315 23.3456 36.448 23.3456Z" fill="#424242"/>
<path d="M32.9827 25.707C32.7203 25.9038 32.3413 26.0241 31.9223 26.0241C31.5032 26.0241 31.1278 25.9002 30.8618 25.707" stroke="#AEAEAE" stroke-width="0.713929" stroke-linecap="round" stroke-linejoin="round"/>
<path d="M28.3634 21.1957C27.9043 21.2248 27.2957 21.3341 26.6361 21.52C25.9801 21.7058 25.4007 21.9318 24.9962 22.1504C25.0764 21.5819 25.6412 21.0244 26.432 20.8021C27.2228 20.5762 27.9954 20.7547 28.3634 21.1957Z" fill="#424242"/>
<path d="M35.4835 21.1957C35.9427 21.2248 36.5513 21.3341 37.2109 21.52C37.8668 21.7058 38.4462 21.9318 38.8507 22.1504C38.7706 21.5819 38.2057 21.0244 37.4149 20.8021C36.6241 20.5762 35.8516 20.7547 35.4835 21.1957Z" fill="#424242"/>
<path d="M18.4028 24.9492H19.9297" stroke="#C7C7C7" stroke-width="1.07089" stroke-linecap="round" stroke-linejoin="round"/>
<path d="M45.4422 24.9492H43.9153" stroke="#C7C7C7" stroke-width="1.07089" stroke-linecap="round" stroke-linejoin="round"/>
<path d="M26.3325 19.1912C25.9972 19.1912 25.6948 18.958 25.6219 18.6191C25.5344 18.2255 25.7859 17.8356 26.1794 17.7518L28.304 17.289C28.6975 17.2052 29.0838 17.453 29.1713 17.8465C29.2587 18.2401 29.0073 18.63 28.6137 18.7139L26.4892 19.1767C26.4382 19.1876 26.3835 19.1949 26.3325 19.1949V19.1912Z" fill="#5F5F5F"/>
<path d="M37.5117 19.1912C37.847 19.1912 38.1494 18.958 38.2223 18.6191C38.3098 18.2255 38.0583 17.8356 37.6647 17.7518L35.5402 17.289C35.1466 17.2052 34.7604 17.453 34.6729 17.8465C34.5854 18.2401 34.8369 18.63 35.2304 18.7139L37.355 19.1767C37.406 19.1876 37.4607 19.1949 37.5117 19.1949V19.1912Z" fill="#5F5F5F"/>
<path d="M29.6611 28.863C29.6611 28.5642 34.1835 28.5642 34.1835 28.863C34.1835 29.7012 33.1704 30.379 31.9205 30.379C30.6705 30.379 29.6575 29.7012 29.6575 28.863H29.6611Z" fill="#A2A2A2"/>
<path d="M31.4338 13.6413C34.65 13.6413 37.2572 11.0341 37.2572 7.81797C37.2572 4.60183 34.65 1.99463 31.4338 1.99463C28.2177 1.99463 25.6105 4.60183 25.6105 7.81797C25.6105 11.0341 28.2177 13.6413 31.4338 13.6413Z" fill="#5F5F5F"/>
<path d="M21.286 20.9514C21.286 20.9514 28.4286 15.9335 27.8163 9.94613L26.8543 7.38794L21.3152 12.3695L20.4406 17.73L21.286 20.9478V20.9514Z" fill="#5F5F5F"/>
<path d="M31.4357 13.6413C31.4357 13.6413 35.9508 13.1603 38.243 15.5363C40.5351 17.9123 42.39 22.8246 42.39 22.8246L44.449 21.2649L44.6166 19.7963V15.1281C44.6166 15.1281 44.6275 8.87479 42.8674 6.3494C41.1073 3.82401 36.7926 1.99829 31.4357 1.99829C26.0787 1.99829 31.4357 13.645 31.4357 13.645V13.6413Z" fill="#5F5F5F"/>
</g>
</g>
<rect x="1" y="0.5" width="98" height="43" rx="21.5" stroke="#F5F5F5"/>
<defs>
<radialGradient id="paint0_radial_2086_22950" cx="0" cy="0" r="1" gradientUnits="userSpaceOnUse" gradientTransform="translate(84.9994 36.886) rotate(180) scale(2.48299)">
<stop stop-color="#FF8885"/>
<stop offset="1" stop-color="#FF8885" stop-opacity="0"/>
</radialGradient>
<radialGradient id="paint1_radial_2086_22950" cx="0" cy="0" r="1" gradientUnits="userSpaceOnUse" gradientTransform="translate(47.8745 36.4963) rotate(180) scale(2.52948)">
<stop stop-color="#FF8885"/>
<stop offset="1" stop-color="#FF8885" stop-opacity="0"/>
</radialGradient>
<clipPath id="clip0_2086_22950">
<rect x="0.5" width="99" height="44" rx="22" fill="white"/>
</clipPath>
<clipPath id="clip1_2086_22950">
<rect width="56.258" height="62.6866" fill="white" transform="translate(41.8652 1.6499)"/>
</clipPath>
<clipPath id="clip2_2086_22950">
<rect width="57.3111" height="62.6866" fill="white" transform="translate(3.00024 1.96338)"/>
</clipPath>
<clipPath id="clip3_2086_22950">
<rect width="108.485" height="62.6866" fill="white" transform="translate(-3 1.6499)"/>
</clipPath>
</defs>
</svg>
