<svg width="32" height="32" viewBox="0 0 32 32" fill="none" xmlns="http://www.w3.org/2000/svg">
<g clip-path="url(#clip0_7490_681757)">
<g style="mix-blend-mode:multiply">
<path fill-rule="evenodd" clip-rule="evenodd" d="M10.2197 4.66797C9.78465 4.66812 9.35737 4.7925 8.98114 5.02849C8.60491 5.26449 8.29311 5.60372 8.07733 6.01182L3.65929 14.3642C3.44583 14.7674 3.33352 15.2237 3.3335 15.6881V21.6848C3.33352 22.0985 3.42267 22.5066 3.59389 22.8767L4.9736 25.8577C5.17853 26.3007 5.49363 26.6733 5.88358 26.9338C6.27353 27.1942 6.72292 27.3322 7.18138 27.3322H8.26984C8.92444 27.3322 9.55224 27.0513 10.0151 26.5512C10.478 26.0512 10.738 25.373 10.738 24.6658H20.6107C20.6107 25.373 20.8708 26.0512 21.3336 26.5512C21.7965 27.0513 22.4243 27.3322 23.0789 27.3322H24.1674C24.6258 27.3322 25.0752 27.1942 25.4652 26.9338C25.8551 26.6733 26.1702 26.3007 26.3751 25.8577L27.7548 22.8767C27.9264 22.5074 28.0152 22.0981 28.0152 21.6848V15.6881C28.0152 15.2237 27.9029 14.7674 27.6894 14.3642L23.2714 6.01182C23.0556 5.60372 22.7438 5.26449 22.3676 5.02849C21.9914 4.7925 21.5641 4.66812 21.129 4.66797H10.2197Z" fill="#FA967C"/>
<g style="mix-blend-mode:multiply">
<path d="M5.87718 26.9357C5.48723 26.6753 5.17213 26.3027 4.9672 25.8596L4.27734 24.3691H27.0586L26.3687 25.8596C26.1638 26.3027 25.8487 26.6753 25.4588 26.9357C25.0688 27.1962 24.6194 27.3341 24.161 27.3342H23.0725C22.4179 27.3342 21.7901 27.0532 21.3272 26.5532C20.8644 26.0531 20.6043 25.3749 20.6043 24.6678H10.7316C10.7316 25.3749 10.4716 26.0531 10.0087 26.5532C9.54584 27.0532 8.91805 27.3342 8.26345 27.3342H7.17498C6.71653 27.3341 6.26713 27.1962 5.87718 26.9357Z" fill="#D63D4A"/>
</g>
<g style="mix-blend-mode:multiply">
<path d="M7.2647 13.0081L9.53176 7.90721C9.66821 7.6002 9.97267 7.40234 10.3086 7.40234H21.2947C21.6306 7.40234 21.9351 7.6002 22.0715 7.90721L24.3386 13.0081C24.5885 13.5703 24.177 14.2035 23.5617 14.2035H8.04158C7.42636 14.2035 7.01484 13.5703 7.2647 13.0081Z" fill="#D63D4A"/>
</g>
<ellipse cx="9.56749" cy="19.4034" rx="1.7003" ry="1.7003" fill="white"/>
<circle cx="22.0367" cy="19.4034" r="1.7003" fill="white"/>
<g style="mix-blend-mode:multiply">
<ellipse cx="23.3333" cy="8.66732" rx="5.33333" ry="5.33333" fill="#D63D4A"/>
</g>
<path d="M23.477 7.35434C23.9982 7.35434 24.4208 6.9318 24.4208 6.41057C24.4208 5.88934 23.9982 5.4668 23.477 5.4668C22.9557 5.4668 22.5332 5.88934 22.5332 6.41057C22.5332 6.9318 22.9557 7.35434 23.477 7.35434Z" fill="white"/>
<path d="M22.8877 8.13307C22.8226 8.13307 22.7698 8.18588 22.7698 8.25104V9.07684V10.9336V11.7594C22.7698 11.8246 22.8226 11.8774 22.8877 11.8774H24.0674C24.1326 11.8774 24.1854 11.8246 24.1854 11.7594V10.9336V8.25104C24.1854 8.18588 24.1326 8.13307 24.0674 8.13307H22.8877Z" fill="white"/>
</g>
</g>
<defs>
<clipPath id="clip0_7490_681757">
<rect width="32" height="32" fill="white"/>
</clipPath>
</defs>
</svg>
