<svg width="32" height="32" viewBox="0 0 32 32" fill="none" xmlns="http://www.w3.org/2000/svg">
<g style="mix-blend-mode:multiply">
<path d="M15.7818 23.5624C20.3368 23.5624 24.0293 20.1161 24.0293 15.8648C24.0293 11.6136 20.3368 8.16724 15.7818 8.16724C11.2269 8.16724 7.53442 11.6136 7.53442 15.8648C7.53442 20.1161 11.2269 23.5624 15.7818 23.5624Z" fill="#FA967C"/>
<path d="M15.7818 23.5624C20.3368 23.5624 24.0293 20.1161 24.0293 15.8648C24.0293 11.6136 20.3368 8.16724 15.7818 8.16724C11.2269 8.16724 7.53442 11.6136 7.53442 15.8648C7.53442 20.1161 11.2269 23.5624 15.7818 23.5624Z" fill="#FA967C"/>
<path fill-rule="evenodd" clip-rule="evenodd" d="M5.68131 6.94793C8.31323 4.32786 11.9452 2.70044 15.9459 2.70044C19.9465 2.70044 23.5785 4.32786 26.2104 6.94793C26.6279 7.36355 26.6295 8.03892 26.2139 8.45642C25.7982 8.87392 25.1229 8.87544 24.7054 8.45982C22.4548 6.21941 19.3569 4.83377 15.9459 4.83377C12.5348 4.83377 9.43695 6.21941 7.1864 8.45982C6.7689 8.87544 6.09352 8.87392 5.67791 8.45642C5.26229 8.03892 5.26381 7.36355 5.68131 6.94793Z" fill="#D63D4A"/>
<path fill-rule="evenodd" clip-rule="evenodd" d="M15.9334 10.0579C13.9641 10.0579 12.1739 10.8599 10.8677 12.1565C10.4496 12.5715 9.77422 12.569 9.3592 12.1509C8.94418 11.7328 8.94667 11.0575 9.36477 10.6424C11.0496 8.96996 13.3722 7.92456 15.9334 7.92456C18.4925 7.92456 20.8281 8.96848 22.5048 10.6452C22.9214 11.0618 22.9214 11.7372 22.5048 12.1537C22.0883 12.5703 21.4129 12.5703 20.9963 12.1537C19.704 10.8614 17.9049 10.0579 15.9334 10.0579Z" fill="#D63D4A"/>
<path fill-rule="evenodd" clip-rule="evenodd" d="M5.67791 23.5456C6.09352 23.1281 6.7689 23.1265 7.1864 23.5422C9.43695 25.7826 12.5348 27.1682 15.9459 27.1682C19.3569 27.1682 22.4548 25.7826 24.7054 23.5422C25.1229 23.1265 25.7982 23.1281 26.2139 23.5456C26.6295 23.9631 26.6279 24.6384 26.2104 25.0541C23.5785 27.6741 19.9465 29.3015 15.9459 29.3015C11.9452 29.3015 8.31323 27.6741 5.68131 25.0541C5.26381 24.6384 5.26229 23.9631 5.67791 23.5456Z" fill="#D63D4A"/>
<path fill-rule="evenodd" clip-rule="evenodd" d="M9.3592 19.8501C9.77422 19.432 10.4496 19.4295 10.8677 19.8446C12.1739 21.1411 13.9641 21.9432 15.9334 21.9432C17.9049 21.9432 19.704 21.1397 20.9963 19.8473C21.4129 19.4308 22.0883 19.4308 22.5048 19.8473C22.9214 20.2639 22.9214 20.9393 22.5048 21.3558C20.8281 23.0326 18.4925 24.0765 15.9334 24.0765C13.3722 24.0765 11.0496 23.0311 9.36477 21.3586C8.94667 20.9436 8.94418 20.2682 9.3592 19.8501Z" fill="#D63D4A"/>
<path d="M15.9469 18.2048C17.1676 18.2048 18.1572 17.2152 18.1572 15.9945C18.1572 14.7738 17.1676 13.7842 15.9469 13.7842C14.7262 13.7842 13.7366 14.7738 13.7366 15.9945C13.7366 17.2152 14.7262 18.2048 15.9469 18.2048Z" fill="white"/>
</g>
</svg>
