<svg width="32" height="32" viewBox="0 0 32 32" fill="none" xmlns="http://www.w3.org/2000/svg">
<g style="mix-blend-mode:multiply">
<path fill-rule="evenodd" clip-rule="evenodd" d="M10.5451 4.66675C10.1101 4.6669 9.68281 4.79127 9.30658 5.02727C8.93035 5.26327 8.61855 5.6025 8.40277 6.0106L3.98473 14.363C3.77127 14.7661 3.65896 15.2225 3.65894 15.6869V21.6836C3.65896 22.0973 3.74811 22.5053 3.91933 22.8754L5.29904 25.8564C5.50397 26.2995 5.81907 26.6721 6.20902 26.9325C6.59897 27.193 7.04836 27.3309 7.50682 27.3309H8.59528C9.24988 27.3309 9.87767 27.05 10.3405 26.55C10.8034 26.0499 11.0635 25.3717 11.0635 24.6646H20.9362C20.9362 25.3717 21.1962 26.0499 21.6591 26.55C22.1219 27.05 22.7497 27.3309 23.4043 27.3309H24.4928C24.9512 27.3309 25.4006 27.193 25.7906 26.9325C26.1805 26.6721 26.4956 26.2995 26.7006 25.8564L28.0803 22.8754C28.2518 22.5061 28.3407 22.0969 28.3407 21.6836V15.6869C28.3406 15.2225 28.2283 14.7661 28.0149 14.363L23.5968 6.0106C23.3811 5.6025 23.0693 5.26327 22.693 5.02727C22.3168 4.79127 21.8895 4.6669 21.4545 4.66675H10.5451Z" fill="#FA967C"/>
<g style="mix-blend-mode:multiply">
<path d="M6.20238 26.935C5.81242 26.6746 5.49732 26.3019 5.29239 25.8589L4.60254 24.3684H27.3838L26.6939 25.8589C26.489 26.3019 26.1739 26.6746 25.7839 26.935C25.394 27.1954 24.9446 27.3334 24.4861 27.3334H23.3977C22.7431 27.3334 22.1153 27.0525 21.6524 26.5525C21.1895 26.0524 20.9295 25.3742 20.9295 24.667H11.0568C11.0568 25.3742 10.7968 26.0524 10.3339 26.5525C9.87103 27.0525 9.24324 27.3334 8.58864 27.3334H7.50018C7.04172 27.3334 6.59233 27.1954 6.20238 26.935Z" fill="#D63D4A"/>
</g>
<g style="mix-blend-mode:multiply">
<path d="M7.58989 13.0062L9.85696 7.90526C9.99341 7.59825 10.2979 7.40039 10.6338 7.40039H21.6199C21.9558 7.40039 22.2603 7.59825 22.3967 7.90526L24.6638 13.0062C24.9137 13.5684 24.5021 14.2016 23.8869 14.2016H8.36677C7.75155 14.2016 7.34003 13.5684 7.58989 13.0062Z" fill="#D63D4A"/>
</g>
<circle cx="9.89317" cy="19.4017" r="1.7003" fill="white"/>
<circle cx="22.3619" cy="19.4017" r="1.7003" fill="white"/>
<path fill-rule="evenodd" clip-rule="evenodd" d="M12.1772 7.73361C13.1534 6.78532 14.5016 6.19556 15.9868 6.19556C17.472 6.19556 18.8202 6.78532 19.7965 7.73361C20.0495 7.97936 20.0504 8.37868 19.7985 8.62554C19.5467 8.87239 19.1374 8.87329 18.8845 8.62755C18.1393 7.90373 17.1147 7.45693 15.9868 7.45693C14.8589 7.45693 13.8343 7.90373 13.0892 8.62755C12.8362 8.87329 12.4269 8.87239 12.1751 8.62554C11.9233 8.37868 11.9242 7.97936 12.1772 7.73361Z" fill="white"/>
<path fill-rule="evenodd" clip-rule="evenodd" d="M15.9852 10.0727C15.3658 10.0727 14.8021 10.3185 14.3895 10.7181C14.1362 10.9635 13.727 10.962 13.4755 10.7148C13.224 10.4676 13.2255 10.0682 13.4788 9.82285C14.1209 9.20101 15.0072 8.81128 15.9852 8.81128C16.9618 8.81128 17.8533 9.20013 18.4932 9.8245C18.7456 10.0708 18.7456 10.4701 18.4932 10.7164C18.2407 10.9627 17.8315 10.9627 17.5791 10.7164C17.1721 10.3194 16.6058 10.0727 15.9852 10.0727Z" fill="white"/>
<path d="M15.988 13.0528C16.4184 13.0528 16.7673 12.7123 16.7673 12.2924C16.7673 11.8724 16.4184 11.532 15.988 11.532C15.5576 11.532 15.2087 11.8724 15.2087 12.2924C15.2087 12.7123 15.5576 13.0528 15.988 13.0528Z" fill="white"/>
</g>
</svg>
