<svg width="32" height="32" viewBox="0 0 32 32" fill="none" xmlns="http://www.w3.org/2000/svg">
<circle cx="16.0837" cy="16.0007" r="11.6667" fill="white"/>
<circle cx="16.0837" cy="16.0007" r="11.6667" fill="#FA967C"/>
<circle cx="16.0835" cy="16" r="10" fill="#FA967C"/>
<g style="mix-blend-mode:multiply">
<path d="M24.3335 16.0007C24.3335 11.3983 20.6025 7.66732 16.0002 7.66732C11.3978 7.66732 7.66683 11.3983 7.66683 16.0007C7.66683 16.9211 6.92064 17.6673 6.00016 17.6673C5.07969 17.6673 4.3335 16.9211 4.3335 16.0007C4.3335 9.55733 9.55684 4.33398 16.0002 4.33398C22.4435 4.33398 27.6668 9.55733 27.6668 16.0007C27.6668 16.9211 26.9206 17.6673 26.0002 17.6673C25.0797 17.6673 24.3335 16.9211 24.3335 16.0007Z" fill="#D63D4A"/>
</g>
<g style="mix-blend-mode:multiply">
<path d="M13.187 13.5234C13.0465 13.0317 12.534 12.7469 12.0423 12.8874C11.5506 13.0279 11.2659 13.5404 11.4064 14.0321L11.9951 16.0925H11.3708C10.8594 16.0925 10.4448 16.5071 10.4448 17.0185C10.4448 17.5298 10.8594 17.9444 11.3708 17.9444H12.5242L12.9937 19.5877C13.1032 19.9711 13.4459 20.2413 13.8443 20.2584C14.2427 20.2754 14.6073 20.0355 14.7492 19.6629L16.0004 16.3787L17.2515 19.6629C17.3935 20.0355 17.758 20.2754 18.1564 20.2584C18.5548 20.2413 18.8975 19.9711 19.0071 19.5877L19.4766 17.9444H20.63C21.1414 17.9444 21.5559 17.5298 21.5559 17.0185C21.5559 16.5071 21.1414 16.0925 20.63 16.0925H20.0057L20.5944 14.0321C20.7349 13.5404 20.4502 13.0279 19.9585 12.8874C19.4668 12.7469 18.9543 13.0317 18.8138 13.5234L17.9912 16.4026L16.8656 13.4481C16.7289 13.0891 16.3846 12.8518 16.0004 12.8518C15.6162 12.8518 15.2719 13.0891 15.1351 13.4481L14.0096 16.4026L13.187 13.5234Z" fill="#D63D4A"/>
</g>
</svg>
