<svg width="99" height="44" viewBox="0 0 99 44" fill="none" xmlns="http://www.w3.org/2000/svg">
<g clip-path="url(#clip0_2086_23836)">
<rect width="99" height="44" rx="22" fill="#F5F5F5"/>
<path d="M45.5183 26.6008C45.4023 28.1426 44.3449 29.3876 42.9531 29.814C42.9736 29.6537 42.9872 29.4899 43.0009 29.3262L43.4682 23.0498C44.7781 23.6809 45.6342 25.0623 45.5183 26.6008Z" fill="#F4D1C3"/>
<path d="M44.2417 26.4302H42.8125" stroke="#E8BBAA" stroke-width="1.02333" stroke-linecap="round" stroke-linejoin="round"/>
<path d="M44.0141 17.6024L42.7179 25.4752C42.6633 25.8061 42.3768 26.0483 42.0425 26.0483C41.681 26.0483 41.3842 25.7685 41.3603 25.407L40.8555 17.1658L44.0107 17.6024H44.0141Z" fill="#C1C1C1"/>
<path d="M51.7743 17.4931C51.7743 23.3227 42.7349 28.047 31.5875 28.047C20.44 28.047 11.4006 23.3227 11.4006 17.4931C11.4006 17.3055 11.4109 17.1213 11.4279 16.9371C11.7042 14.1571 14.034 11.6602 17.6429 9.8591C21.2655 8.04781 26.1809 6.93579 31.5875 6.93579C36.9941 6.93579 41.906 8.04781 45.5286 9.8591C49.1341 11.6602 51.4673 14.1537 51.747 16.9337C51.7641 17.1213 51.7743 17.3055 51.7743 17.4931Z" fill="#352F2F"/>
<path d="M36.3734 38.2736V34.6204H26.8019V38.2736C26.8019 40.9377 25.84 43.5813 23.8888 45.3926C23.6193 45.6416 23.4727 45.9077 23.4727 46.1874C23.4727 47.5723 27.1055 48.6979 31.5876 48.6979C36.0698 48.6979 39.7026 47.5757 39.7026 46.1874C39.7026 45.9111 39.556 45.6416 39.2865 45.3926C37.3353 43.5813 36.3734 40.9377 36.3734 38.2736Z" fill="#F4D1C3"/>
<path d="M45.3165 17.5716C45.3165 18.6597 45.1903 19.7171 44.9515 20.7337C43.5222 26.7918 38.0815 31.3012 31.5868 31.3012C25.0921 31.3012 19.5525 26.7099 18.1881 20.5699C17.9697 19.6046 17.8572 18.6017 17.8572 17.5716C17.8572 9.99213 24.004 3.84534 31.5868 3.84534C31.771 3.84534 31.9552 3.84875 32.1394 3.85557C32.3577 3.8658 32.5726 3.87945 32.7875 3.89991C39.8076 4.50368 45.3165 10.3946 45.3165 17.5716Z" fill="#C1C1C1"/>
<path d="M20.2182 29.8106C18.8265 29.3876 17.769 28.1426 17.6531 26.6008C17.5371 25.0623 18.3933 23.6809 19.7031 23.0498L20.1705 29.3262C20.1841 29.4899 20.1977 29.6503 20.2182 29.8106Z" fill="#F4D1C3"/>
<path d="M21.5553 29.9608C21.0914 29.9949 20.6378 29.9403 20.2182 29.8141C20.1977 29.6504 20.1841 29.49 20.1704 29.3263L19.7031 23.0499C20.1022 22.8555 20.5423 22.7327 21.013 22.6986C23.0187 22.5485 24.7652 24.0528 24.9153 26.0585C25.0654 28.0642 23.5611 29.8107 21.5553 29.9608Z" fill="#E8BBAA"/>
<path d="M43.4686 23.0499L43.0012 29.3263C42.9876 29.49 42.974 29.6538 42.9535 29.8141C42.5339 29.9403 42.0802 29.9949 41.6163 29.9608C39.6106 29.8107 38.1063 28.0642 38.2564 26.0585C38.4065 24.0528 40.153 22.5485 42.1587 22.6986C42.6294 22.7327 43.0695 22.8555 43.4686 23.0499Z" fill="#E8BBAA"/>
<path d="M36.3723 35.6401V40.3474C34.8885 40.9546 33.2716 41.2855 31.5865 41.2855C29.9015 41.2855 28.2846 40.9546 26.8008 40.3474V35.6401H36.3723Z" fill="#E8BBAA"/>
<path d="M31.5876 38.9012C26.1333 38.9012 21.5999 34.6953 21.194 29.2546L20.3958 18.5438C19.9115 12.0354 25.0622 6.4856 31.5876 6.4856C38.1165 6.4856 43.2672 12.0354 42.7794 18.5438L41.9812 29.2546C41.5753 34.6953 37.042 38.9012 31.5876 38.9012Z" fill="#F4D1C3"/>
<path d="M27.3511 24.9327C28.0217 24.9327 28.5654 24.389 28.5654 23.7184C28.5654 23.0477 28.0217 22.504 27.3511 22.504C26.6804 22.504 26.1367 23.0477 26.1367 23.7184C26.1367 24.389 26.6804 24.9327 27.3511 24.9327Z" fill="#453C56"/>
<path d="M35.8237 24.9327C36.4944 24.9327 37.0381 24.389 37.0381 23.7184C37.0381 23.0477 36.4944 22.504 35.8237 22.504C35.1531 22.504 34.6094 23.0477 34.6094 23.7184C34.6094 24.389 35.1531 24.9327 35.8237 24.9327Z" fill="#453C56"/>
<path d="M32.5797 27.1398C32.3341 27.324 31.9794 27.4365 31.5871 27.4365C31.1948 27.4365 30.8435 27.3206 30.5945 27.1398" stroke="#D1A193" stroke-width="0.682218" stroke-linecap="round" stroke-linejoin="round"/>
<path d="M34.3803 30.2574C33.9301 30.4109 32.8488 30.5201 31.5867 30.5201C30.3245 30.5201 29.2432 30.4109 28.793 30.2574" stroke="#F4807D" stroke-width="0.682218" stroke-linecap="round" stroke-linejoin="round"/>
<path opacity="0.5" d="M38.3717 29.5105C39.681 29.5105 40.7424 28.4491 40.7424 27.1398C40.7424 25.8304 39.681 24.769 38.3717 24.769C37.0624 24.769 36.001 25.8304 36.001 27.1398C36.001 28.4491 37.0624 29.5105 38.3717 29.5105Z" fill="url(#paint0_radial_2086_23836)"/>
<path d="M34.2891 13.1509C33.4329 14.0003 32.3516 14.6689 31.1339 15.0884C29.7046 15.5762 28.4391 16.388 27.5147 17.4659C25.6898 19.5876 22.7426 20.9043 19.4611 20.7167C19.0416 20.6928 18.6322 20.6451 18.2263 20.57C17.9807 19.6047 17.8545 18.6018 17.8545 17.5717C17.8545 9.99225 24.779 3.84546 33.317 3.84546C33.525 3.84546 33.7331 3.84887 33.9378 3.85569C34.1834 3.86593 34.4256 3.87957 34.6678 3.90004C35.6195 4.995 36.23 6.33556 36.346 7.78527C36.5098 9.85239 35.7013 11.749 34.2823 13.1509H34.2891Z" fill="#C1C1C1"/>
<path d="M34.9199 9.60327C34.9199 9.60327 36.2298 16.3743 41.6807 18.8098H44.2424L43.5261 11.8785L34.9199 9.60327Z" fill="#C1C1C1"/>
<path d="M28.2544 22.9168C27.8246 22.9441 27.2549 23.0464 26.6375 23.2204C26.0235 23.3943 25.4812 23.6058 25.1025 23.8105C25.1776 23.2784 25.7063 22.7565 26.4465 22.5484C27.1867 22.3369 27.9099 22.5041 28.2544 22.9168Z" fill="#453C56"/>
<path d="M34.9199 22.9168C35.3497 22.9441 35.9194 23.0464 36.5368 23.2204C37.1508 23.3943 37.6931 23.6058 38.0718 23.8105C37.9967 23.2784 37.468 22.7565 36.7278 22.5484C35.9876 22.3369 35.2644 22.5041 34.9199 22.9168Z" fill="#453C56"/>
<path d="M18.9316 26.4302H20.3609" stroke="#E8BBAA" stroke-width="1.02333" stroke-linecap="round" stroke-linejoin="round"/>
<path d="M19.1611 17.6024L20.4573 25.4752C20.5119 25.8061 20.7985 26.0483 21.1327 26.0483C21.4943 26.0483 21.7911 25.7685 21.815 25.407L22.3198 17.1658L19.1645 17.6024H19.1611Z" fill="#C1C1C1"/>
<path d="M28.3671 20.8224H26.3307C25.9554 20.8224 25.6484 20.5154 25.6484 20.1402C25.6484 19.765 25.9554 19.458 26.3307 19.458H28.3671C28.7423 19.458 29.0493 19.765 29.0493 20.1402C29.0493 20.5154 28.7423 20.8224 28.3671 20.8224Z" fill="#C1C1C1"/>
<path d="M36.8436 20.8224H34.8072C34.432 20.8224 34.125 20.5154 34.125 20.1402C34.125 19.765 34.432 19.458 34.8072 19.458H36.8436C37.2189 19.458 37.5259 19.765 37.5259 20.1402C37.5259 20.5154 37.2189 20.8224 36.8436 20.8224Z" fill="#C1C1C1"/>
<path d="M45.5283 9.8591V16.3095C45.5283 13.3862 39.286 11.0189 31.5871 11.0189C23.8883 11.0189 17.6426 13.3862 17.6426 16.3095V9.8591C21.2652 8.04781 26.1805 6.93579 31.5871 6.93579C36.9937 6.93579 41.9057 8.04781 45.5283 9.8591Z" fill="#352F2F"/>
<path d="M44.594 9.42254C41.0806 7.69652 36.5439 6.65955 31.5875 6.65955C26.6312 6.65955 22.0945 7.69652 18.5811 9.41912C18.9358 8.80172 19.3349 8.21501 19.7749 7.65559C22.4902 4.21721 26.7711 2 31.5875 2C36.404 2 40.6883 4.21721 43.4036 7.659C43.8436 8.21501 44.2427 8.80513 44.594 9.42254Z" fill="#352F2F"/>
<path d="M51.7743 16.3947C51.7743 16.5755 51.7641 16.7563 51.747 16.9337C51.4673 14.1536 49.1341 11.6601 45.5286 9.85908C45.225 9.70899 44.9146 9.56231 44.594 9.42246C41.0805 7.87041 36.5438 6.93577 31.5875 6.93577C26.6312 6.93577 22.0944 7.87041 18.581 9.41905C18.2603 9.56231 17.9465 9.70899 17.6429 9.85908C14.034 11.6601 11.7042 14.1571 11.4279 16.9337C11.4109 16.7563 11.4006 16.5755 11.4006 16.3947C11.4006 13.393 13.7952 10.6812 17.6429 8.76071C18.3115 8.42642 19.0244 8.11601 19.7749 7.83289C23.0939 6.57761 27.1769 5.8374 31.5875 5.8374C35.998 5.8374 40.0845 6.57761 43.4035 7.8363C44.1539 8.11942 44.8634 8.42983 45.5286 8.76071C49.3763 10.6812 51.7743 13.3896 51.7743 16.3947Z" fill="#3F3B3B"/>
<path d="M30.0423 28.0471H33.1293C34.388 28.0471 35.4113 29.0704 35.4113 30.3291H27.7637C27.7637 29.0704 28.787 28.0471 30.0457 28.0471H30.0423Z" fill="#C1C1C1"/>
<path d="M81.2366 34.4786C81.2366 37.9732 78.4036 40.8062 74.909 40.8062C71.4144 40.8062 68.5814 37.9732 68.5814 34.4786C68.5814 30.984 71.4144 28.151 74.909 28.151C78.4036 28.151 81.2366 30.984 81.2366 34.4786Z" fill="#C0B3A8" stroke="#C0B3A8" stroke-width="0.341109"/>
<path d="M64.4027 42.4674C64.4027 43.1776 63.8269 43.7534 63.1167 43.7534C62.4065 43.7534 61.8307 43.1776 61.8307 42.4674C61.8307 41.7572 62.4065 41.1814 63.1167 41.1814C63.8269 41.1814 64.4027 41.7572 64.4027 42.4674Z" fill="#C0B3A8" stroke="#C0B3A8" stroke-width="0.341109"/>
<path d="M74.5138 42.4674C74.5138 43.1776 73.938 43.7534 73.2278 43.7534C72.5175 43.7534 71.9418 43.1776 71.9418 42.4674C71.9418 41.7572 72.5175 41.1814 73.2278 41.1814C73.938 41.1814 74.5138 41.7572 74.5138 42.4674Z" fill="#C0B3A8" stroke="#C0B3A8" stroke-width="0.341109"/>
<path d="M51.8606 43.9854H84.4775C90.2798 43.9854 94.9905 48.6961 94.9905 54.4983V62.7634H41.3477V54.4983C41.3477 48.6961 46.0584 43.9854 51.8606 43.9854Z" fill="#C0E2B0"/>
<path d="M72.9584 37.4122V33.7589H63.3868V37.4122C63.3868 40.0763 62.4249 42.7199 60.4738 44.5311C60.2043 44.7802 60.0576 45.0462 60.0576 45.3259C60.0576 46.7108 68.1726 50.8246 68.1726 50.8246C68.1726 50.8246 76.2876 46.7108 76.2876 45.3259C76.2876 45.0496 76.1409 44.7802 75.8714 44.5311C73.9203 42.7199 72.9584 40.0763 72.9584 37.4122Z" fill="#F4D1C3"/>
<path d="M54.9398 19.675L54.9396 19.6744C54.7241 18.7216 54.6129 17.7313 54.6129 16.7137C54.6129 9.22844 60.6833 3.15798 68.172 3.15798C68.3538 3.15798 68.5357 3.16134 68.7175 3.16807C68.9337 3.17821 69.1454 3.19168 69.3566 3.21179V3.2118L69.3581 3.21193C76.2907 3.80817 81.7311 9.62598 81.7311 16.7137C81.7311 17.7885 81.6065 18.8328 81.3707 19.8366C79.9591 25.8195 74.5858 30.2727 68.172 30.2727C61.7585 30.2727 56.2871 25.7381 54.9398 19.675Z" fill="#C0B3A8" stroke="#C0B3A8" stroke-width="0.341109"/>
<path d="M58.042 29.0721C56.6025 28.8538 55.3779 27.7759 55.0402 26.2648C54.7025 24.7605 55.3506 23.2698 56.5547 22.4546L57.9226 28.598C57.9601 28.7583 57.9976 28.9152 58.0386 29.0687L58.042 29.0721Z" fill="#F4D1C3"/>
<path d="M59.3854 29.0277C58.9317 29.13 58.4746 29.1402 58.0414 29.0754C57.9971 28.9151 57.963 28.7582 57.9255 28.6013L56.5576 22.4579C56.926 22.2089 57.3422 22.0213 57.8027 21.9224C59.764 21.4857 61.7118 22.7206 62.1484 24.6819C62.585 26.6433 61.3502 28.5911 59.3888 29.0277H59.3854Z" fill="#E8BBAA"/>
<path d="M78.3 29.072C79.7395 28.8537 80.9641 27.7758 81.3018 26.2647C81.6395 24.7604 80.9914 23.2697 79.7873 22.4545L78.4194 28.5978C78.3819 28.7582 78.3444 28.9151 78.3035 29.0686L78.3 29.072Z" fill="#F4D1C3"/>
<path d="M76.956 29.0277C77.4097 29.13 77.8667 29.1402 78.3 29.0754C78.3443 28.9151 78.3784 28.7582 78.4159 28.6013L79.7838 22.4579C79.4154 22.2089 78.9992 22.0213 78.5387 21.9224C76.5774 21.4857 74.6296 22.7206 74.193 24.6819C73.7564 26.6433 74.9912 28.5911 76.9526 29.0277H76.956Z" fill="#E8BBAA"/>
<path d="M72.9582 34.7822V39.4895C71.4744 40.0967 69.8576 40.4276 68.1725 40.4276C66.4874 40.4276 64.8705 40.0967 63.3867 39.4895V34.7822H72.9582Z" fill="#E8BBAA"/>
<path d="M68.1726 38.0397C64.2396 38.0397 60.8353 35.3006 59.9962 31.4597L56.9808 17.6789C56.4964 11.1706 61.6472 5.62073 68.1726 5.62073C74.7014 5.62073 79.8522 11.1706 79.3644 17.6789L76.349 31.4597C75.5064 35.3006 72.1056 38.0397 68.1726 38.0397Z" fill="#F4D1C3"/>
<path d="M63.9253 24.3784C64.596 24.3784 65.1396 24.0057 65.1396 23.5461C65.1396 23.0864 64.596 22.7137 63.9253 22.7137C63.2546 22.7137 62.7109 23.0864 62.7109 23.5461C62.7109 24.0057 63.2546 24.3784 63.9253 24.3784Z" fill="#453C56"/>
<path d="M67.1797 26.5785C67.4253 26.3943 67.78 26.2817 68.1723 26.2817C68.5646 26.2817 68.9159 26.3977 69.1649 26.5785" stroke="#D1A193" stroke-width="0.682218" stroke-linecap="round" stroke-linejoin="round"/>
<path d="M65.8487 20.531C65.8005 20.6467 65.6963 20.7223 65.5805 20.7388H65.529C65.4891 20.7388 65.4453 20.7305 65.3962 20.7127C64.9706 20.5388 64.3719 20.442 63.7587 20.442C63.1444 20.442 62.5403 20.5392 62.1205 20.7144L62.12 20.7146C61.9483 20.7869 61.7482 20.7059 61.6751 20.5301L61.6751 20.5301L61.6748 20.5293C61.6025 20.3576 61.6835 20.1575 61.8594 20.0844L61.8594 20.0844L61.8597 20.0843C62.3551 19.877 63.0306 19.7598 63.7621 19.7598C64.4932 19.7598 65.1622 19.8769 65.6614 20.0844C65.8369 20.1574 65.9192 20.3547 65.8487 20.531Z" fill="#C0B3A8" stroke="#C0B3A8" stroke-width="0.341109"/>
<path d="M70.4967 20.5268L70.4966 20.5265C70.4244 20.3528 70.5067 20.1547 70.6843 20.0809C71.1834 19.8734 71.8592 19.7562 72.5836 19.7562C73.3083 19.7562 73.9905 19.8735 74.4858 20.0806C74.6602 20.1542 74.7426 20.3554 74.6709 20.5258C74.5974 20.7003 74.3961 20.7828 74.2257 20.7111L74.2252 20.7109C73.8055 20.5357 73.2082 20.4385 72.587 20.4385C71.9653 20.4385 71.3721 20.5358 70.9464 20.7105L70.9464 20.7105L70.9449 20.7111C70.9045 20.7281 70.8629 20.7352 70.8167 20.7352H70.7652C70.6491 20.7187 70.5448 20.6429 70.4967 20.5268Z" fill="#C0B3A8" stroke="#C0B3A8" stroke-width="0.341109"/>
<path d="M70.966 29.2017C70.5158 30.2967 69.4345 31.0676 68.1723 31.0676C66.9102 31.0676 65.8289 30.2967 65.3787 29.2017C66.2314 29.0175 67.1763 28.9152 68.1723 28.9152C69.1684 28.9152 70.1133 29.0175 70.966 29.2017Z" fill="#F4807D"/>
<path opacity="0.5" d="M74.954 28.6524C76.2633 28.6524 77.3247 27.591 77.3247 26.2817C77.3247 24.9724 76.2633 23.911 74.954 23.911C73.6447 23.911 72.5833 24.9724 72.5833 26.2817C72.5833 27.591 73.6447 28.6524 74.954 28.6524Z" fill="url(#paint1_radial_2086_23836)"/>
<path d="M65.1705 23.512C64.7066 23.3892 64.0619 23.3107 63.3388 23.3005C62.619 23.2937 61.9573 23.3551 61.4729 23.471C61.7765 22.8434 62.5542 22.3931 63.424 22.4034C64.2939 22.4102 64.9863 22.8775 65.1739 23.512H65.1705Z" fill="#453C56"/>
<path d="M72.4155 24.3784C73.0862 24.3784 73.6299 24.0057 73.6299 23.5461C73.6299 23.0864 73.0862 22.7137 72.4155 22.7137C71.7449 22.7137 71.2012 23.0864 71.2012 23.5461C71.2012 24.0057 71.7449 24.3784 72.4155 24.3784Z" fill="#453C56"/>
<path d="M71.1743 23.512C71.6382 23.3892 72.2829 23.3107 73.0061 23.3005C73.7258 23.2937 74.3876 23.3551 74.8719 23.471C74.5683 22.8434 73.7906 22.3931 72.9208 22.4034C72.051 22.4102 71.3585 22.8775 71.1709 23.512H71.1743Z" fill="#453C56"/>
<path d="M56.2783 25.9134L57.6973 25.7053" stroke="#E8BBAA" stroke-width="1.02333" stroke-linecap="round" stroke-linejoin="round"/>
<path d="M80.064 25.9134L78.6484 25.7053" stroke="#E8BBAA" stroke-width="1.02333" stroke-linecap="round" stroke-linejoin="round"/>
<path d="M80.1146 18.16C80.1146 18.4873 80.1047 18.8207 80.0817 19.1504L79.873 20.2054C79.4618 16.7842 78.1507 14.1596 76.2465 12.3434C74.126 10.321 71.2846 9.315 68.1724 9.315C65.0602 9.315 62.2188 10.3219 60.0983 12.3447C58.1942 14.1612 56.8831 16.7857 56.4719 20.2056L56.2632 19.1507C55.7491 11.4443 61.2449 4.91128 68.1724 4.91128C75.106 4.91128 80.1146 10.8858 80.1146 18.1565V18.16Z" fill="#C0B3A8" stroke="#C0B3A8" stroke-width="0.341109"/>
<path d="M57.6502 20.4427C57.626 20.857 57.6202 21.2026 57.6211 21.456L55.1317 18.582L55.9068 13.5208L62.2349 9.18226L63.5863 10.1537C60.3691 11.5343 58.88 14.4316 58.1962 16.9877C57.8439 18.3048 57.7031 19.5386 57.6502 20.4427Z" fill="#C0B3A8" stroke="#C0B3A8" stroke-width="0.341109"/>
<path d="M78.7241 21.456C78.725 21.2026 78.7192 20.857 78.6949 20.4427C78.6421 19.5386 78.5013 18.3048 78.1489 16.9877C77.4652 14.4316 75.9761 11.5343 72.7589 10.1537L74.1102 9.18226L80.4384 13.5208L81.2135 18.582L78.7241 21.456Z" fill="#C0B3A8" stroke="#C0B3A8" stroke-width="0.341109"/>
<path d="M74.5787 7.04656C72.5321 5.76399 69.9328 5.29667 67.586 5.91749C67.4869 5.9436 67.3748 5.97094 67.2541 6.00039C66.5232 6.17872 65.4755 6.43432 65.0686 6.96129M74.5787 7.04656L74.4881 7.19104M74.5787 7.04656C77.178 8.67706 78.9176 11.4844 79.6169 14.4725L79.535 20.0838M74.5787 7.04656L74.4882 7.19108C74.4881 7.19107 74.4881 7.19106 74.4881 7.19104M74.4881 7.19104C72.4784 5.93164 69.9274 5.47452 67.6296 6.08237L67.6294 6.08242C67.5251 6.1099 67.4097 6.13805 67.2868 6.16802C66.9838 6.24193 66.6356 6.32689 66.2969 6.43999C65.816 6.60058 65.4067 6.80263 65.2037 7.0654M74.4881 7.19104C77.0422 8.79325 78.7597 11.5582 79.4508 14.5114L79.4509 14.5115C79.8791 16.3358 79.9372 18.2645 79.3726 20.0319L79.535 20.0838M65.2037 7.0654C65.2037 7.06537 65.2037 7.06533 65.2038 7.0653L65.0686 6.96129M65.2037 7.0654C64.9208 7.43306 64.9447 7.88984 65.1353 8.36691C65.3256 8.84313 65.669 9.3017 65.9564 9.62422M65.2037 7.0654C65.2037 7.06544 65.2036 7.06549 65.2036 7.06553L65.0686 6.96129M65.0686 6.96129C64.3966 7.83452 65.2426 9.07957 65.8293 9.73791C66.7537 10.7681 67.9646 11.5458 69.2813 11.9654L65.9564 9.62422M65.9564 9.62422C65.9563 9.62415 65.9563 9.62408 65.9562 9.624L65.8293 9.7379L65.9566 9.62444C65.9565 9.62437 65.9565 9.62429 65.9564 9.62422ZM65.9564 9.62422C66.8603 10.6314 68.0451 11.3924 69.3331 11.8029L69.4017 11.8247L69.4049 11.8311M65.9564 9.62422L69.2847 11.9722M69.4049 11.8311C69.382 11.8241 69.3592 11.8169 69.3365 11.8097L69.2879 11.962L69.2847 11.9722M69.4049 11.8311L69.4339 11.8891L69.4373 11.8959L69.2847 11.9722M69.4049 11.8311C69.7409 11.9349 70.0888 12.0191 70.4428 12.1011C70.5108 12.1168 70.579 12.1325 70.6475 12.1482C70.9577 12.2193 71.2715 12.2913 71.5786 12.3747C72.3286 12.5783 73.0618 12.8552 73.6673 13.3819L73.6676 13.3821C74.3018 13.9359 74.6907 14.6793 75.0517 15.4054C75.0766 15.4556 75.1015 15.5058 75.1262 15.5558C75.4644 16.2387 75.7903 16.8966 76.2826 17.4225L76.2826 17.4226C76.4937 17.6483 76.7332 17.8462 76.9828 18.0524L76.9894 18.0578C77.2384 18.2636 77.4973 18.4779 77.7264 18.7265L77.7267 18.7269C78.244 19.2918 78.5829 20.0151 78.6849 20.7717M69.2847 11.9722C69.7149 12.1092 70.163 12.212 70.6105 12.3147C71.6782 12.5596 72.743 12.8039 73.5554 13.5106C74.2038 14.0768 74.5891 14.8552 74.9758 15.6364C75.3113 16.3141 75.6478 16.994 76.1581 17.5391C76.3767 17.7728 76.6235 17.9767 76.8702 18.1806C77.124 18.3903 77.3778 18.6 77.6009 18.8421C78.1194 19.4084 78.4503 20.1417 78.5288 20.9024M78.6849 20.7717C78.6559 20.768 78.6272 20.7597 78.5988 20.7469L78.5288 20.9024M78.6849 20.7717C78.69 20.8094 78.6945 20.8471 78.6984 20.8849L78.5288 20.9024M78.6849 20.7717C78.7925 20.7855 78.9052 20.7369 79.0245 20.6213C79.1766 20.4739 79.3039 20.2456 79.3727 20.0316L79.535 20.0838M78.5288 20.9024C78.9756 21.1037 79.3849 20.5511 79.535 20.0838" fill="#C0B3A8" stroke="#C0B3A8" stroke-width="0.341109"/>
<path d="M62.7714 10.9762H62.7533L62.9737 10.6994C63.2785 10.3166 63.6553 9.97492 64.0806 9.72118C64.0806 9.72117 64.0806 9.72116 64.0806 9.72115L64.168 9.86762C64.2407 9.82419 64.3657 9.77972 64.5034 9.73069C64.7984 9.6257 65.1521 9.49981 65.1777 9.31843L62.7714 10.9762ZM62.7714 10.9762C62.1996 11.7994 61.8608 12.7622 61.5408 13.6795C61.3651 14.181 61.1894 14.6832 61.0138 15.1855L61.0132 15.187C60.8377 15.6888 60.6623 16.1905 60.4868 16.6914L60.4868 16.6915C59.9038 18.358 59.266 20.065 57.9023 21.0795L57.9018 21.0799C57.8065 21.1514 57.7475 21.1772 57.7022 21.1734C57.661 21.166 57.6133 21.1285 57.5418 21.0366L57.5415 21.0361C56.7216 19.9894 56.6232 18.5229 56.8188 17.1505L56.8188 17.1503C57.1818 14.5794 58.4558 12.1366 60.3929 10.4076L60.393 10.4075C61.1193 9.75856 61.9439 9.21228 62.8641 8.98959L62.8643 8.98954C63.0357 8.94786 63.6358 8.8731 64.1755 8.90748C64.447 8.92477 64.6821 8.96868 64.837 9.04461C64.913 9.08185 64.9586 9.12148 64.9833 9.15865C65.0055 9.19196 65.0177 9.23313 65.0089 9.29391M62.7714 10.9762L65.0089 9.29391M65.0089 9.29391L65.0088 9.29461L65.0089 9.29391Z" fill="#C0B3A8" stroke="#C0B3A8" stroke-width="0.341109"/>
<path d="M64.6827 8.39062C64.6383 10.9114 66.4496 13.3504 68.8783 14.0326C69.5094 14.2099 70.1745 14.2816 70.7783 14.534C72.0131 15.0491 72.8181 16.2361 73.8619 17.0753C75.2809 18.2146 77.2082 18.6921 78.9956 18.3544" fill="#C0B3A8"/>
<path d="M64.6827 8.39062C64.6383 10.9114 66.4496 13.3504 68.8783 14.0326C69.5094 14.2099 70.1745 14.2816 70.7783 14.534C72.0131 15.0491 72.8181 16.2361 73.8619 17.0753C75.2809 18.2146 77.2082 18.6921 78.9956 18.3544" stroke="#C0B3A8" stroke-width="1.36444" stroke-linecap="round" stroke-linejoin="round"/>
<path d="M65.3037 28.209C65.3037 28.209 64.0654 29.8463 64.0654 31.2039" stroke="#E8BBAA" stroke-width="0.682218" stroke-linecap="round" stroke-linejoin="round"/>
<path d="M71.0381 28.209C71.0381 28.209 72.2763 29.8463 72.2763 31.2039" stroke="#E8BBAA" stroke-width="0.682218" stroke-linecap="round" stroke-linejoin="round"/>
</g>
<defs>
<radialGradient id="paint0_radial_2086_23836" cx="0" cy="0" r="1" gradientUnits="userSpaceOnUse" gradientTransform="translate(46.117 36.4096) rotate(180) scale(2.36757)">
<stop stop-color="#FF8885"/>
<stop offset="1" stop-color="#FF8885" stop-opacity="0"/>
</radialGradient>
<radialGradient id="paint1_radial_2086_23836" cx="0" cy="0" r="1" gradientUnits="userSpaceOnUse" gradientTransform="translate(82.5892 35.877) rotate(180) scale(2.36757 2.36757)">
<stop stop-color="#FF8885"/>
<stop offset="1" stop-color="#FF8885" stop-opacity="0"/>
</radialGradient>
<clipPath id="clip0_2086_23836">
<rect width="99" height="44" rx="22" fill="white"/>
</clipPath>
</defs>
</svg>
