<svg width="44" height="44" viewBox="0 0 44 44" fill="none" xmlns="http://www.w3.org/2000/svg">
<g clip-path="url(#clip0_2086_23975)">
<rect width="44" height="44" rx="22" fill="#F5F5F5"/>
<g clip-path="url(#clip1_2086_23975)">
<path d="M11.0313 8.27234H20.4976V13.3075H11.0313C9.64255 13.3075 8.51538 12.1803 8.51538 10.7915C8.51538 9.40274 9.64255 8.27557 11.0313 8.27557V8.27234Z" fill="#8C8C8C"/>
<path d="M22.4673 30.609C29.4095 30.609 35.0373 24.7643 35.0373 17.5545C35.0373 10.3447 29.4095 4.5 22.4673 4.5C15.525 4.5 9.89722 10.3447 9.89722 17.5545C9.89722 24.7643 15.525 30.609 22.4673 30.609Z" fill="#8C8C8C"/>
<path d="M7.026 42.7205H37.9085C43.4023 42.7205 47.8625 47.1807 47.8625 52.6744V60.5H-2.92798V52.6744C-2.92798 47.1807 1.53226 42.7205 7.026 42.7205Z" fill="#B0C4E4"/>
<path d="M26.998 36.5V33.041H17.9354V36.5C17.9354 39.0224 17.0246 41.5255 15.1772 43.2404C14.9221 43.4762 14.7832 43.7281 14.7832 43.993C14.7832 45.3042 18.2228 46.37 22.4667 46.37C26.7105 46.37 30.1502 45.3075 30.1502 43.993C30.1502 43.7314 30.0113 43.4762 29.7562 43.2404C27.9088 41.5255 26.998 39.0224 26.998 36.5Z" fill="#F4D1C3"/>
<path d="M11.7033 28.4903C10.3856 28.0898 9.38439 26.911 9.27458 25.4511C9.16477 23.9945 9.97543 22.6865 11.2156 22.089L11.6581 28.0317C11.671 28.1867 11.6839 28.3385 11.7033 28.4903Z" fill="#F4D1C3"/>
<path d="M12.9696 28.6324C12.5303 28.6647 12.1008 28.613 11.7035 28.4935C11.6841 28.3385 11.6712 28.1867 11.6583 28.0317L11.2158 22.089C11.5937 21.9049 12.0103 21.7887 12.456 21.7564C14.3551 21.6142 16.0087 23.0386 16.1508 24.9376C16.2929 26.8367 14.8686 28.4903 12.9696 28.6324Z" fill="#E8BBAA"/>
<path d="M35.6573 25.4511C35.5475 26.911 34.5462 28.0898 33.2285 28.4935C33.2479 28.3417 33.2608 28.1867 33.2737 28.0317L33.7162 22.089C34.9564 22.6865 35.7671 23.9945 35.6573 25.4511Z" fill="#F4D1C3"/>
<path d="M33.7163 22.089L33.2738 28.0317C33.2609 28.1867 33.248 28.3417 33.2286 28.4935C32.8313 28.613 32.4018 28.6647 31.9625 28.6324C30.0635 28.4903 28.6392 26.8367 28.7813 24.9376C28.9234 23.0386 30.577 21.6142 32.4761 21.7564C32.9218 21.7887 33.3384 21.9049 33.7163 22.089Z" fill="#E8BBAA"/>
<path d="M26.9989 34.0099V38.4669C25.5939 39.0418 24.063 39.3551 22.4676 39.3551C20.8721 39.3551 19.3412 39.0418 17.9363 38.4669V34.0099H26.9989Z" fill="#E8BBAA"/>
<path d="M24.2856 37.0942H20.649C16.1597 37.0942 12.4745 33.548 12.3034 29.0619L11.8706 17.8161C11.412 11.6538 16.2888 6.39905 22.4673 6.39905C28.649 6.39905 33.5258 11.6538 33.064 17.8161L32.6312 29.0619C32.46 33.548 28.7717 37.0942 24.2856 37.0942Z" fill="#F4D1C3"/>
<path d="M18.4562 23.8685C19.0912 23.8685 19.606 23.3538 19.606 22.7187C19.606 22.0837 19.0912 21.569 18.4562 21.569C17.8212 21.569 17.3064 22.0837 17.3064 22.7187C17.3064 23.3538 17.8212 23.8685 18.4562 23.8685Z" fill="#453C56"/>
<path d="M26.479 23.8685C27.114 23.8685 27.6288 23.3538 27.6288 22.7187C27.6288 22.0837 27.114 21.569 26.479 21.569C25.844 21.569 25.3292 22.0837 25.3292 22.7187C25.3292 23.3538 25.844 23.8685 26.479 23.8685Z" fill="#453C56"/>
<path d="M23.408 25.9614C23.1755 26.1358 22.8396 26.2424 22.4682 26.2424C22.0967 26.2424 21.7641 26.1326 21.5283 25.9614" stroke="#D1A193" stroke-width="0.645943" stroke-linecap="round" stroke-linejoin="round"/>
<path d="M19.3114 21.963C18.9045 21.9888 18.3651 22.0857 17.7805 22.2504C17.1992 22.4152 16.6856 22.6154 16.3271 22.8092C16.3982 22.3054 16.8988 21.8112 17.5997 21.6142C18.3005 21.414 18.9852 21.5722 19.3114 21.963Z" fill="#453C56"/>
<path d="M25.6221 21.963C26.029 21.9888 26.5684 22.0857 27.153 22.2504C27.7343 22.4152 28.2478 22.6154 28.6063 22.8092C28.5353 22.3054 28.0347 21.8112 27.3338 21.6142C26.633 21.414 25.9483 21.5722 25.6221 21.963Z" fill="#453C56"/>
<path d="M10.4851 25.2897H11.8384" stroke="#E8BBAA" stroke-width="0.968914" stroke-linecap="round" stroke-linejoin="round"/>
<path d="M34.4499 25.2897H33.0967" stroke="#E8BBAA" stroke-width="0.968914" stroke-linecap="round" stroke-linejoin="round"/>
<path d="M11.0413 18.9948L11.9263 24.382C11.9779 24.6953 12.2492 24.9246 12.5658 24.9246C12.9081 24.9246 13.1891 24.6597 13.2117 24.3174L13.6897 16.5144L12.7757 16.6404C11.6388 16.7986 10.854 17.8612 11.0413 18.9948Z" fill="#8C8C8C"/>
<path d="M33.8945 18.9948L33.0095 24.382C32.9578 24.6953 32.6865 24.9246 32.37 24.9246C32.0277 24.9246 31.7467 24.6597 31.7241 24.3174L31.2461 16.5144L32.1601 16.6404C33.297 16.7986 34.0818 17.8612 33.8945 18.9948Z" fill="#8C8C8C"/>
<path d="M19.5632 19.6764L17.7158 20.2319C17.3734 20.3353 17.0149 20.1415 16.9116 19.7991C16.8082 19.4568 17.002 19.0983 17.3444 18.9949L19.1918 18.4394C19.5341 18.3361 19.8926 18.5299 19.996 18.8722C20.0993 19.2146 19.9055 19.573 19.5632 19.6764Z" fill="#8C8C8C"/>
<path d="M27.2058 20.2415L25.3681 19.6602C25.029 19.5536 24.8384 19.1886 24.9482 18.8495C25.058 18.5104 25.4198 18.3199 25.7589 18.4297L27.5966 19.011C27.9357 19.1176 28.1263 19.4826 28.0164 19.8217C27.9066 20.1608 27.5449 20.3513 27.2058 20.2415Z" fill="#8C8C8C"/>
<path d="M32.5828 10.5104L29.1528 7.53909L22.4673 5.44946L15.7818 7.53909L12.3519 10.5104L11.0148 16.7825L11.0406 18.9949L12.7007 19.334L13.689 16.7825L15.0067 13.0199C15.3523 12.0316 16.389 11.4664 17.4064 11.7119L19.7253 12.2706C21.5275 12.7034 23.4072 12.7034 25.2094 12.2706L27.5283 11.7119C28.5457 11.4664 29.5824 12.0316 29.928 13.0199L31.2457 16.7825L32.234 19.334L33.8941 18.9949L33.9199 16.7825L32.5828 10.5104Z" fill="#8C8C8C"/>
<path d="M13.0011 4.5H22.4673V9.53512H13.0011C11.6123 9.53512 10.4851 8.40795 10.4851 7.01918C10.4851 5.62717 11.6123 4.5 13.0011 4.5Z" fill="#8C8C8C"/>
<path d="M25.1123 30.2957C24.686 30.8286 23.6621 31.2 22.4672 31.2C21.2722 31.2 20.2483 30.8253 19.822 30.2957" stroke="#F4807D" stroke-width="0.968914" stroke-linecap="round" stroke-linejoin="round"/>
</g>
</g>
<defs>
<clipPath id="clip0_2086_23975">
<rect width="44" height="44" rx="22" fill="white"/>
</clipPath>
<clipPath id="clip1_2086_23975">
<rect width="50.7905" height="56" fill="white" transform="translate(-2.92773 4.5)"/>
</clipPath>
</defs>
</svg>
