<svg width="37" height="36" viewBox="0 0 37 36" fill="none" xmlns="http://www.w3.org/2000/svg">
<ellipse cx="17.867" cy="27.9837" rx="17.0667" ry="3.2" fill="#ACB1B6" fill-opacity="0.2"/>
<rect x="5.375" y="9.34946" width="25.5" height="17" rx="3.285" fill="#FBC5BA"/>
<rect x="13.0254" y="12.7504" width="10.2" height="10.2" rx="5.1" fill="#D63D4A"/>
<path d="M18.1255 14.875C18.5362 14.8751 18.8687 15.2084 18.8687 15.6191V17.1064H20.356C20.7667 17.1064 21.1 17.4389 21.1001 17.8496C21.1001 18.2604 20.7667 18.5938 20.356 18.5938H18.8687V20.0811C18.8687 20.4918 18.5362 20.8251 18.1255 20.8252C17.7147 20.8252 17.3813 20.4918 17.3813 20.0811V18.5938H15.894C15.4833 18.5938 15.1499 18.2604 15.1499 17.8496C15.15 17.4389 15.4833 17.1064 15.894 17.1064H17.3813V15.6191C17.3813 15.2084 17.7147 14.875 18.1255 14.875Z" fill="white"/>
<path d="M23.2256 5.10016C24.1643 5.10037 24.9248 5.8616 24.9248 6.80035V9.35016H22.376V7.70074C22.376 7.20372 21.9726 6.80041 21.4756 6.80035H14.7754C14.2784 6.80041 13.876 7.20372 13.876 7.70074V9.35016H11.3252V6.80035C11.3252 5.86147 12.0865 5.10016 13.0254 5.10016H23.2256Z" fill="#7E6254"/>
<path d="M8.20801 26.3508H11.0413V26.5674C11.0413 27.2302 10.5041 27.7674 9.84134 27.7674H9.40801C8.74527 27.7674 8.20801 27.2302 8.20801 26.5674V26.3508Z" fill="#313D4C"/>
<path d="M25.208 26.3508H28.0413V26.5674C28.0413 27.2302 27.5041 27.7674 26.8413 27.7674H26.408C25.7453 27.7674 25.208 27.2302 25.208 26.5674V26.3508Z" fill="#313D4C"/>
</svg>
