<svg width="32" height="32" viewBox="0 0 32 32" fill="none" xmlns="http://www.w3.org/2000/svg">
<ellipse cx="15.77" cy="24.8741" rx="15.1704" ry="2.84444" fill="#FDCFC3"/>
<path d="M7.85984 15.1173C8.41111 15.1173 8.87094 15.5229 9.0264 16.0518C9.91177 19.0639 12.6964 21.2631 15.995 21.2631C19.2935 21.263 22.0782 19.0638 22.9636 16.0518C23.1191 15.5229 23.5789 15.1173 24.1302 15.1173H26.443C27.1016 15.1173 27.6218 15.6862 27.4918 16.3318C26.4112 21.6951 21.6742 25.7343 15.9924 25.7344C10.3108 25.7342 5.57361 21.6951 4.49304 16.3318C4.36297 15.6862 4.8832 15.1173 5.54177 15.1173H7.85984Z" fill="white"/>
<path fill-rule="evenodd" clip-rule="evenodd" d="M15.9987 2.26667C22.4782 2.26694 27.7305 7.5202 27.7305 13.9997C27.7304 15.0571 27.5896 16.0814 27.3268 17.0557C27.0912 17.9293 26.2563 18.4709 25.3516 18.4711C23.8765 18.4711 22.9263 16.635 23.1654 15.1794C23.2286 14.7943 23.2617 14.3989 23.2617 13.9958C23.2617 13.7692 23.0155 13.6353 22.8173 13.7453L20.5279 15.0154C20.3945 15.0894 20.2988 15.2154 20.2523 15.3607C19.6754 17.1617 17.9885 18.4659 15.9961 18.4659C14.0037 18.4658 12.3167 17.1616 11.7399 15.3607C11.6934 15.2154 11.5977 15.0894 11.4644 15.0153L9.17759 13.746C8.97999 13.6364 8.73569 13.7698 8.73568 13.9958C8.73568 14.3985 8.76893 14.7934 8.83203 15.1781C9.07086 16.6342 8.12006 18.4711 6.64453 18.4711C5.73979 18.4709 4.90487 17.9293 4.66927 17.0557C4.40653 16.0814 4.26567 15.0571 4.26562 13.9997C4.26562 7.52002 9.51898 2.26667 15.9987 2.26667ZM15.9987 6.73281C13.1412 6.73281 10.669 8.38311 9.48329 10.7826C9.31314 11.1269 9.57504 11.5104 9.95905 11.5169L11.9428 11.5505C12.1348 11.5538 12.313 11.4565 12.4288 11.3034C13.2447 10.2242 14.5389 9.52711 15.9961 9.52708C17.4531 9.52708 18.7463 10.2245 19.5621 11.3034C19.6779 11.4566 19.8561 11.5538 20.048 11.5505L22.0369 11.5169C22.421 11.5104 22.6829 11.1269 22.5127 10.7825C21.327 8.38336 18.8558 6.73298 15.9987 6.73281Z" fill="white"/>
<path d="M7.85952 15.1172C8.41079 15.1172 8.87061 15.5228 9.02608 16.0517C9.91144 19.0638 12.6961 21.263 15.9947 21.263C19.2932 21.2629 22.0779 19.0637 22.9633 16.0517C23.1188 15.5228 23.5786 15.1172 24.1299 15.1172H26.4427C27.1013 15.1172 27.6215 15.6861 27.4914 16.3317C26.4109 21.695 21.6738 25.7343 15.9921 25.7343C10.3104 25.7341 5.57328 21.695 4.49271 16.3317C4.36264 15.6861 4.88288 15.1172 5.54145 15.1172H7.85952Z" fill="#D63D4A"/>
<g style="mix-blend-mode:multiply">
<path fill-rule="evenodd" clip-rule="evenodd" d="M15.9987 2.26672C22.4782 2.26699 27.7305 7.52024 27.7305 13.9998C27.7304 15.0572 27.5896 16.0815 27.3268 17.0558C27.0912 17.9293 26.2563 18.4709 25.3516 18.4711C23.8765 18.4711 22.9263 16.635 23.1654 15.1795C23.2286 14.7943 23.2617 14.399 23.2617 13.9959C23.2617 13.7692 23.0155 13.6354 22.8173 13.7454L20.5279 15.0154C20.3945 15.0894 20.2988 15.2155 20.2523 15.3608C19.6754 17.1617 17.9885 18.4659 15.9961 18.4659C14.0037 18.4659 12.3167 17.1617 11.7399 15.3607C11.6934 15.2154 11.5977 15.0894 11.4644 15.0154L9.17759 13.7461C8.97999 13.6364 8.73569 13.7699 8.73568 13.9959C8.73568 14.3985 8.76893 14.7934 8.83203 15.1782C9.07086 16.6342 8.12006 18.4711 6.64453 18.4711C5.73979 18.4709 4.90487 17.9293 4.66927 17.0558C4.40653 16.0815 4.26567 15.0571 4.26562 13.9998C4.26562 7.52007 9.51898 2.26672 15.9987 2.26672ZM15.9987 6.73286C13.1412 6.73286 10.669 8.38316 9.48329 10.7826C9.31314 11.127 9.57504 11.5105 9.95905 11.517L11.9428 11.5506C12.1348 11.5538 12.313 11.4566 12.4288 11.3034C13.2447 10.2242 14.5389 9.52716 15.9961 9.52713C17.4531 9.52713 18.7463 10.2245 19.5621 11.3035C19.6779 11.4566 19.8561 11.5538 20.048 11.5506L22.0369 11.517C22.421 11.5105 22.6829 11.1269 22.5127 10.7826C21.327 8.38341 18.8558 6.73303 15.9987 6.73286Z" fill="#FA967C"/>
</g>
<rect x="13.8281" y="11.7649" width="4.46955" height="4.46955" rx="2.23477" fill="white"/>
</svg>
