<svg width="32" height="32" viewBox="0 0 32 32" fill="none" xmlns="http://www.w3.org/2000/svg">
<ellipse cx="15.77" cy="24.8741" rx="15.1704" ry="2.84444" fill="#FDCFC3"/>
<g style="mix-blend-mode:multiply">
<path d="M20.5723 5.28337C20.5723 4.96778 20.8281 4.71194 21.1437 4.71194H23.8104C24.126 4.71194 24.3818 4.96778 24.3818 5.28337V11.5691H20.5723V5.28337Z" fill="#D63D4A"/>
</g>
<path d="M6.57927 13.1251L15.6319 5.46522C15.8449 5.28494 16.1571 5.28494 16.3701 5.46522L25.4227 13.1251C25.551 13.2337 25.625 13.3933 25.625 13.5613L25.625 23.2904C25.625 23.8745 25.1463 24.348 24.5557 24.348H18.407H13.595H7.44629C6.85571 24.348 6.37695 23.8745 6.37695 23.2904L6.37696 13.5613C6.37696 13.3933 6.45096 13.2337 6.57927 13.1251Z" fill="#FA967C"/>
<path d="M12.9531 18.2357C12.9531 17.9201 13.209 17.6643 13.5246 17.6643H18.4769C18.7925 17.6643 19.0484 17.9201 19.0484 18.2357V24.348H12.9531L12.9531 18.2357Z" fill="white"/>
<path fill-rule="evenodd" clip-rule="evenodd" d="M15.3178 4.2043C15.7097 3.86468 16.2916 3.86468 16.6835 4.2043L26.3075 12.5451C26.7427 12.9223 26.7897 13.5807 26.4126 14.0159C26.0355 14.451 25.377 14.498 24.9419 14.1209L16.0007 6.37186L7.05944 14.1209C6.6243 14.498 5.96584 14.451 5.58872 14.0159C5.2116 13.5807 5.25863 12.9223 5.69377 12.5451L15.3178 4.2043Z" fill="#285FA4"/>
<path fill-rule="evenodd" clip-rule="evenodd" d="M15.3178 4.2043C15.7097 3.86468 16.2916 3.86468 16.6835 4.2043L26.3075 12.5451C26.7427 12.9223 26.7897 13.5807 26.4126 14.0159C26.0355 14.451 25.377 14.498 24.9419 14.1209L16.0007 6.37186L7.05944 14.1209C6.6243 14.498 5.96584 14.451 5.58872 14.0159C5.2116 13.5807 5.25863 12.9223 5.69377 12.5451L15.3178 4.2043Z" fill="#D63D4A"/>
</svg>
