<svg width="32" height="33" viewBox="0 0 32 33" fill="none" xmlns="http://www.w3.org/2000/svg">
<path fill-rule="evenodd" clip-rule="evenodd" d="M16.167 25.8818C16.8446 25.8818 17.211 26.2687 17.8566 27.0334L17.8922 27.0752C18.4738 27.7637 19.3506 28.8027 20.9371 28.6519C21.8833 28.5611 22.7868 27.9035 23.5427 27.1261C24.3306 26.3159 25.1007 25.2333 25.7748 24.0271C27.1141 21.6293 28.167 18.5758 28.167 15.9255V15.8438C28.167 13.5368 28.167 8.84118 23.6743 6.63595C22.0007 5.81853 20.5565 5.9257 19.2973 6.20544C18.9216 6.29345 18.548 6.39036 18.1768 6.49608C17.9669 6.55421 17.7742 6.60628 17.5987 6.6523C17.1321 6.78502 16.6512 6.85824 16.167 6.87028C15.717 6.87028 15.2528 6.7849 14.7264 6.6523C14.5485 6.6087 14.3529 6.55724 14.1394 6.4979C13.7802 6.40344 13.3924 6.29808 13.0314 6.21816C11.7828 5.94205 10.3493 5.83306 8.70946 6.63777C4.16521 8.86843 4.16699 13.5368 4.16699 15.8511V15.9237C4.16699 18.5885 5.29638 21.6529 6.66588 24.0435C7.35597 25.2496 8.13142 26.3286 8.90154 27.1315C9.28571 27.533 9.68411 27.8817 10.0843 28.1433C10.4774 28.3994 10.9238 28.6065 11.3951 28.6519C12.9816 28.8027 13.8602 27.7618 14.4418 27.0752L14.4774 27.0334C15.123 26.2705 15.4894 25.8818 16.167 25.8818Z" fill="#FA967C"/>
<path fill-rule="evenodd" clip-rule="evenodd" d="M19.9069 11.1656C19.9578 11.3011 19.9814 11.4452 19.9765 11.5898C19.9717 11.7344 19.9383 11.8767 19.8784 12.0084C19.8185 12.1401 19.7333 12.2587 19.6275 12.3575C19.5218 12.4562 19.3976 12.5332 19.2621 12.5839C18.175 12.9909 17.2306 13.2393 16.2386 13.2429C15.2431 13.2446 14.2935 13.0015 13.1958 12.5804C13.0608 12.5286 12.9373 12.4507 12.8324 12.3511C12.7275 12.2516 12.6433 12.1323 12.5845 12.0002C12.5256 11.8681 12.4934 11.7257 12.4896 11.5811C12.4859 11.4366 12.5106 11.2927 12.5624 11.1577C12.6142 11.0227 12.6922 10.8992 12.7917 10.7943C12.8912 10.6894 13.0105 10.6051 13.1426 10.5463C13.2747 10.4875 13.4171 10.4553 13.5617 10.4515C13.7062 10.4477 13.8501 10.4724 13.9851 10.5243C14.9577 10.8978 15.6184 11.0423 16.2316 11.0405C16.8482 11.037 17.5107 10.889 18.4903 10.5207C18.7637 10.4186 19.0665 10.4291 19.3321 10.55C19.5977 10.6709 19.8044 10.8923 19.9069 11.1656Z" fill="#D63D4A"/>
<g style="mix-blend-mode:multiply">
<path d="M29.5007 22C29.5007 24.9455 27.1128 27.3333 24.1673 27.3333C21.2218 27.3333 18.834 24.9455 18.834 22C18.834 19.0544 21.2218 16.6666 24.1673 16.6666C27.1128 16.6666 29.5007 19.0544 29.5007 22Z" fill="white"/>
<path d="M29.5007 22C29.5007 24.9455 27.1128 27.3333 24.1673 27.3333C21.2218 27.3333 18.834 24.9455 18.834 22C18.834 19.0544 21.2218 16.6666 24.1673 16.6666C27.1128 16.6666 29.5007 19.0544 29.5007 22Z" fill="#D63D4A"/>
</g>
<path d="M26.4535 20.0926C26.6938 19.9421 27.0147 19.9757 27.2178 20.1889C27.4209 20.4023 27.4385 20.7245 27.2764 20.9571L27.197 21.0509L23.9926 24.0991C23.8752 24.2106 23.7182 24.2714 23.5564 24.267C23.3944 24.2626 23.2405 24.1935 23.1293 24.0756L20.9991 21.8165L20.9249 21.7189C20.7757 21.4778 20.8109 21.1579 21.0251 20.9558C21.2394 20.7537 21.5614 20.7367 21.7933 20.8999L21.8871 20.9806L23.5954 22.7931L26.3558 20.1681L26.4535 20.0926Z" fill="white"/>
</svg>
