<svg width="36" height="36" viewBox="0 0 36 36" fill="none" xmlns="http://www.w3.org/2000/svg">
<ellipse cx="17.7416" cy="27.9832" rx="17.0667" ry="3.2" fill="#FDCFC3"/>
<path d="M4.89502 16.696C4.1706 16.3378 3.46994 17.2211 3.98357 17.845L7.48228 22.095C7.53488 22.1589 7.57655 22.231 7.60558 22.3085L9.53681 27.4635C9.82032 28.2203 10.9356 28.0551 10.9876 27.2486L11.4267 20.4404C11.4462 20.1383 11.2821 19.8541 11.0106 19.7199L4.89502 16.696Z" fill="#D63D4A"/>
<g style="mix-blend-mode:multiply">
<path d="M24.589 13.7672C24.4997 12.9231 24.057 12.1563 23.3706 11.6569L13.4581 4.44514C12.8771 4.02239 12.1015 3.98149 11.4792 4.34078C10.6095 4.8429 10.3116 5.95497 10.8137 6.82466L22.4954 27.0579C22.9975 27.9276 24.1095 28.2256 24.9792 27.7235C25.6015 27.3642 25.9539 26.6721 25.8783 25.9575L24.589 13.7672Z" fill="#D63D4A"/>
</g>
<path d="M20.2164 10.1883C22.3251 8.64979 24.9386 7.96792 27.5301 8.28014C29.2369 8.48578 30.2684 10.2724 29.5931 11.8534C28.5677 14.2538 26.6704 16.1762 24.2837 17.2331L10.7433 23.229C9.57328 23.7471 8.20084 23.2996 7.56102 22.1914C6.9212 21.0832 7.21991 19.6709 8.25364 18.9167L20.2164 10.1883Z" fill="#FA967C"/>
<path d="M23.8683 9.86668C23.4588 9.99886 23.3173 10.4812 23.5325 10.8539L25.3653 14.0283C25.5804 14.401 26.0689 14.5197 26.3881 14.2311C27.0405 13.6414 27.5458 12.8784 27.8566 11.9935C28.1915 11.0402 27.5334 9.90033 26.5404 9.71372C25.6187 9.54052 24.7052 9.59657 23.8683 9.86668Z" fill="white"/>
</svg>
