<svg width="37" height="36" viewBox="0 0 37 36" fill="none" xmlns="http://www.w3.org/2000/svg">
<ellipse cx="18.367" cy="27.9833" rx="17.0667" ry="3.2" fill="#ACB1B6" fill-opacity="0.2"/>
<g style="mix-blend-mode:multiply">
<path d="M23.7681 6.15808C23.7681 5.68469 24.1518 5.30093 24.6252 5.30093H27.1966C27.67 5.30093 28.0538 5.68469 28.0538 6.15808V13.0152H23.7681V6.15808Z" fill="#7E6254"/>
</g>
<path d="M8.10182 14.7016L18.0717 6.26551C18.3913 5.9951 18.8595 5.9951 19.1791 6.26551L29.149 14.7016C29.3414 14.8645 29.4524 15.1038 29.4524 15.3559L29.4524 26.2017C29.4524 26.8588 28.9138 27.3915 28.2494 27.3915H21.3322H15.9186H9.00135C8.33694 27.3915 7.79834 26.8588 7.79834 26.2017L7.79834 15.3559C7.79834 15.1038 7.90935 14.8645 8.10182 14.7016Z" fill="#FFBA89"/>
<path d="M15.1963 20.7294C15.1963 20.2561 15.58 19.8723 16.0534 19.8723H21.1963C21.6697 19.8723 22.0534 20.2561 22.0534 20.7294V27.3915H15.1963L15.1963 20.7294Z" fill="white"/>
<path fill-rule="evenodd" clip-rule="evenodd" d="M17.8568 4.72984C18.2977 4.34776 18.9523 4.34776 19.3932 4.72984L30.2202 14.1133C30.7098 14.5375 30.7627 15.2783 30.3384 15.7678C29.9142 16.2574 29.1734 16.3103 28.6839 15.886L18.625 7.16835L8.56614 15.886C8.07661 16.3103 7.33584 16.2574 6.91158 15.7678C6.48732 15.2783 6.54023 14.5375 7.02976 14.1133L17.8568 4.72984Z" fill="#D63D4A"/>
</svg>
