<svg width="37" height="36" viewBox="0 0 37 36" fill="none" xmlns="http://www.w3.org/2000/svg">
<ellipse cx="18.617" cy="27.9833" rx="17.0667" ry="3.2" fill="#ACB1B6" fill-opacity="0.2"/>
<path d="M5.77002 16.696C5.0456 16.3378 4.34494 17.2211 4.85857 17.845L8.35728 22.0949C8.40988 22.1588 8.45155 22.231 8.48058 22.3085L10.4118 27.4635C10.6953 28.2202 11.8106 28.0551 11.8626 27.2486L12.3017 20.4404C12.3212 20.1383 12.1571 19.854 11.8856 19.7198L5.77002 16.696Z" fill="#1A5EA7"/>
<path d="M25.4636 13.7673C25.3743 12.9231 24.9316 12.1563 24.2451 11.6569L14.3327 4.44517C13.7516 4.02242 12.9761 3.98152 12.3538 4.34081C11.4841 4.84293 11.1861 5.955 11.6882 6.82469L23.3699 27.0579C23.872 27.9276 24.9841 28.2256 25.8538 27.7235C26.4761 27.3642 26.8285 26.6721 26.7529 25.9575L25.4636 13.7673Z" fill="#1A5EA7"/>
<path d="M21.0917 10.1884C23.2003 8.64984 25.8138 7.96796 28.4053 8.28019C30.1121 8.48583 31.1436 10.2724 30.4683 11.8534C29.4429 14.2538 27.5457 16.1763 25.159 17.2331L11.6186 23.229C10.4485 23.7471 9.07608 23.2997 8.43626 22.1915C7.79645 21.0833 8.09515 19.671 9.12888 18.9167L21.0917 10.1884Z" fill="#32C9DC"/>
<path d="M24.7431 9.8669C24.3336 9.99909 24.1921 10.4814 24.4073 10.8541L26.2401 14.0286C26.4552 14.4012 26.9437 14.5199 27.2629 14.2314C27.9153 13.6417 28.4206 12.8786 28.7314 11.9938C29.0663 11.0405 28.4082 9.90055 27.4152 9.71395C26.4935 9.54075 25.58 9.5968 24.7431 9.8669Z" fill="white"/>
</svg>
