<svg width="37" height="36" viewBox="0 0 37 36" fill="none" xmlns="http://www.w3.org/2000/svg">
<ellipse cx="17.867" cy="27.9833" rx="17.0667" ry="3.2" fill="#FDCFC3"/>
<path d="M8.9683 17.0069C9.58848 17.0069 10.1058 17.4633 10.2807 18.0583C11.2767 21.4468 14.4094 23.921 18.1204 23.921C21.8312 23.9208 24.964 21.4468 25.96 18.0583C26.1349 17.4633 26.6522 17.0069 27.2724 17.0069H29.8744C30.6153 17.0069 31.2005 17.6469 31.0542 18.3732C29.8386 24.407 24.5094 28.9511 18.1174 28.9512C11.7256 28.951 6.39629 24.4069 5.18065 18.3732C5.03432 17.6469 5.61958 17.0069 6.36047 17.0069H8.9683Z" fill="white"/>
<path fill-rule="evenodd" clip-rule="evenodd" d="M18.1245 2.54999C25.4139 2.5503 31.3228 8.46021 31.3228 15.7497C31.3227 16.9392 31.1642 18.0916 30.8687 19.1877C30.6036 20.1704 29.6643 20.7797 28.6465 20.78C26.987 20.78 25.918 18.7144 26.187 17.0768C26.2582 16.6435 26.2954 16.1988 26.2954 15.7453C26.2954 15.4903 26.0184 15.3397 25.7954 15.4635L23.2199 16.8923C23.0698 16.9755 22.9621 17.1173 22.9098 17.2808C22.2608 19.3069 20.3631 20.7741 18.1216 20.7741C15.8801 20.7741 13.9823 19.3068 13.3334 17.2807C13.281 17.1173 13.1734 16.9755 13.0234 16.8922L10.4508 15.4643C10.2285 15.3409 9.95362 15.4911 9.95361 15.7453C9.95361 16.1983 9.99102 16.6425 10.062 17.0754C10.3307 18.7135 9.26104 20.78 7.60107 20.78C6.58325 20.7797 5.64395 20.1704 5.37891 19.1877C5.08332 18.0916 4.92486 16.9392 4.9248 15.7497C4.9248 8.46002 10.8348 2.54999 18.1245 2.54999ZM18.1245 7.5744C14.9098 7.5744 12.1286 9.43099 10.7947 12.1304C10.6033 12.5178 10.8979 12.9492 11.3299 12.9565L13.5616 12.9943C13.7776 12.998 13.9781 12.8886 14.1084 12.7163C15.0262 11.5022 16.4822 10.718 18.1216 10.718C19.7607 10.718 21.2156 11.5025 22.1333 12.7164C22.2636 12.8886 22.4641 12.998 22.68 12.9943L24.9175 12.9565C25.3496 12.9492 25.6442 12.5177 25.4528 12.1303C24.1189 9.43126 21.3388 7.57459 18.1245 7.5744Z" fill="white"/>
<path d="M8.96744 17.0068C9.58763 17.0068 10.1049 17.4632 10.2798 18.0582C11.2759 21.4467 14.4085 23.9209 18.1195 23.9209C21.8304 23.9207 24.9631 21.4467 25.9592 18.0582C26.1341 17.4632 26.6514 17.0068 27.2716 17.0068H29.8735C30.6144 17.0068 31.1997 17.6468 31.0534 18.3731C29.8377 24.4069 24.5086 28.951 18.1166 28.9511C11.7247 28.9509 6.39543 24.4068 5.17979 18.3731C5.03346 17.6468 5.61873 17.0068 6.35962 17.0068H8.96744Z" fill="#D63D4A"/>
<g style="mix-blend-mode:multiply">
<path fill-rule="evenodd" clip-rule="evenodd" d="M18.1245 2.55003C25.4139 2.55035 31.3228 8.46025 31.3228 15.7497C31.3227 16.9393 31.1642 18.0916 30.8687 19.1877C30.6036 20.1705 29.6643 20.7798 28.6465 20.78C26.987 20.78 25.918 18.7144 26.187 17.0769C26.2582 16.6436 26.2954 16.1988 26.2954 15.7453C26.2954 15.4903 26.0184 15.3398 25.7954 15.4635L23.2199 16.8923C23.0698 16.9756 22.9621 17.1174 22.9098 17.2808C22.2608 19.3069 20.3631 20.7742 18.1216 20.7742C15.8801 20.7741 13.9823 19.3069 13.3334 17.2808C13.281 17.1173 13.1734 16.9756 13.0234 16.8923L10.4508 15.4643C10.2285 15.3409 9.95362 15.4911 9.95361 15.7453C9.95361 16.1983 9.99102 16.6426 10.062 17.0754C10.3307 18.7135 9.26104 20.78 7.60107 20.78C6.58325 20.7798 5.64395 20.1705 5.37891 19.1877C5.08332 18.0916 4.92486 16.9393 4.9248 15.7497C4.9248 8.46006 10.8348 2.55003 18.1245 2.55003ZM18.1245 7.57445C14.9098 7.57445 12.1286 9.43104 10.7947 12.1305C10.6033 12.5178 10.8979 12.9493 11.3299 12.9566L13.5616 12.9944C13.7776 12.998 13.9781 12.8886 14.1084 12.7163C15.0262 11.5022 16.4822 10.718 18.1216 10.718C19.7607 10.718 21.2156 11.5026 22.1333 12.7164C22.2636 12.8887 22.4641 12.998 22.68 12.9944L24.9175 12.9566C25.3496 12.9493 25.6442 12.5177 25.4528 12.1304C24.1189 9.43131 21.3388 7.57463 18.1245 7.57445Z" fill="#FA967C"/>
</g>
<rect x="15.6055" y="13.2355" width="5.02824" height="5.02824" rx="2.51412" fill="white"/>
</svg>
