<svg width="32" height="32" viewBox="0 0 32 32" fill="none" xmlns="http://www.w3.org/2000/svg">
<g clip-path="url(#clip0_21635_57035)">
<rect width="32" height="32" fill="white"/>
<g clip-path="url(#clip1_21635_57035)">
<g style="mix-blend-mode:multiply">
<path fill-rule="evenodd" clip-rule="evenodd" d="M16.1688 3.50366C23.1638 3.50366 28.8352 9.1741 28.8354 16.169C28.8354 17.311 28.6834 18.4175 28.3993 19.4698C28.3714 19.573 28.3338 19.6711 28.2912 19.7654C28.2776 19.8316 28.264 19.899 28.243 19.9659C27.3773 22.7243 25.5939 25.0768 23.2495 26.6638C22.8864 26.9096 22.4522 27.0244 22.0138 27.0245H10.3055C9.86707 27.0245 9.43298 26.9094 9.06982 26.6638C6.72474 25.0769 4.94109 22.7247 4.07503 19.9659C4.04441 19.8684 4.02231 19.7714 4.00732 19.6755C3.98126 19.609 3.95867 19.5404 3.93962 19.4698C3.65584 18.4175 3.50342 17.3109 3.50342 16.169C3.50367 9.17425 9.17401 3.50391 16.1688 3.50366ZM24.0099 16.169C24.0099 15.9224 23.7412 15.7771 23.5256 15.8969L21.0594 17.2667C20.9156 17.3466 20.8128 17.4825 20.7625 17.6391C20.1393 19.5824 18.3178 20.9893 16.1675 20.9893C14.0177 20.9892 12.196 19.5831 11.5724 17.6404C11.5221 17.4838 11.4194 17.3478 11.2756 17.268L8.80941 15.8982C8.59536 15.7794 8.32894 15.9242 8.32894 16.169C8.329 16.6032 8.36504 17.029 8.43311 17.4438C8.46357 17.6295 8.47377 17.8209 8.46956 18.0141C8.53999 18.1275 8.59898 18.2501 8.63753 18.3813C9.59334 21.6326 12.599 24.006 16.1597 24.0063C19.7204 24.006 22.7272 21.6326 23.6831 18.3813C23.7254 18.2373 23.7876 18.1011 23.868 17.9789C23.8661 17.7985 23.8773 17.62 23.9058 17.4464C23.974 17.0309 24.0099 16.6038 24.0099 16.169ZM16.1701 8.32788C13.0861 8.32788 10.4168 10.1084 9.13623 12.6977C8.9525 13.0694 9.23595 13.4837 9.65055 13.4906L11.7899 13.5271C11.9971 13.5306 12.1896 13.4255 12.3146 13.2602C13.1953 12.0938 14.5934 11.3397 16.1675 11.3396C17.7414 11.3396 19.1384 12.0941 20.019 13.2602C20.144 13.4254 20.3366 13.5306 20.5438 13.5271L22.687 13.4906C23.1016 13.4837 23.385 13.0694 23.2013 12.6977C21.9211 10.1088 19.2536 8.32816 16.1701 8.32788Z" fill="white"/>
<g style="mix-blend-mode:multiply">
<path fill-rule="evenodd" clip-rule="evenodd" d="M16.168 3.5C23.1631 3.50062 28.8333 9.17266 28.8333 16.168C28.8332 17.3092 28.6807 18.4146 28.3971 19.4661C28.3798 19.5303 28.359 19.5929 28.3359 19.6536C27.9158 21.1244 27.2375 22.4855 26.3516 23.6849C26.3485 23.6893 26.3469 23.6949 26.3438 23.6992C26.3337 23.7128 26.3213 23.7248 26.3112 23.7383C24.0025 26.8299 20.3171 28.8329 16.1615 28.8333C10.0279 28.8332 4.91395 24.4734 3.7474 18.6836C3.74284 18.661 3.74007 18.6383 3.73698 18.6159C3.58131 17.824 3.50007 17.0055 3.5 16.168C3.5 9.17228 9.17228 3.5 16.168 3.5ZM6.00781 23.7383C5.99792 23.7251 5.98638 23.7125 5.97656 23.6992C5.97324 23.6947 5.97064 23.6894 5.96745 23.6849C5.98066 23.7028 5.9945 23.7205 6.00781 23.7383ZM19.9492 23.0299C21.7368 22.0418 23.0991 20.3785 23.6862 18.3815C23.7278 18.24 23.7887 18.1062 23.8672 17.9857C23.8646 17.8013 23.8758 17.6188 23.9049 17.4414C23.9732 17.0256 24.0091 16.5979 24.0091 16.1628C24.0088 15.9185 23.7437 15.7751 23.5299 15.8932L21.056 17.2643C20.9127 17.3443 20.8106 17.4804 20.7604 17.6367C20.3858 18.8063 19.5755 19.779 18.5221 20.3698C18.1831 20.56 17.9918 20.9585 18.1198 21.3255L18.6445 22.8281C18.7755 23.2032 19.1859 23.4014 19.5456 23.2396C19.6831 23.1735 19.8188 23.1036 19.9518 23.0299H19.9492ZM8.80208 15.8932C8.58902 15.7758 8.32581 15.9193 8.32552 16.1628C8.32552 16.5975 8.36156 17.0247 8.42969 17.4401C8.45957 17.6225 8.46971 17.8103 8.46615 18C8.54062 18.1171 8.60053 18.2451 8.64063 18.3815C9.25878 20.4842 10.7355 22.2184 12.6641 23.1823C13.0224 23.3444 13.4337 23.1479 13.5651 22.7721L14.0924 21.2604C14.2179 20.9005 14.0363 20.5107 13.7083 20.3164C12.7027 19.7206 11.932 18.77 11.569 17.6367C11.5188 17.4802 11.4158 17.3442 11.2721 17.2643L8.80208 15.8932ZM16.168 8.32161C13.083 8.32161 10.413 10.1036 9.13281 12.694C8.94943 13.0656 9.2328 13.4798 9.64714 13.487L11.7878 13.5234C11.9949 13.5269 12.1875 13.4216 12.3125 13.2565C13.1933 12.0915 14.591 11.3387 16.1641 11.3385C17.7371 11.3385 19.1335 12.0916 20.0143 13.2565C20.1393 13.4218 20.3319 13.5269 20.5391 13.5234L22.6862 13.487C23.1006 13.4798 23.3839 13.0656 23.2005 12.694C21.9205 10.104 19.2523 8.32202 16.168 8.32161Z" fill="#FA967C"/>
</g>
<g style="mix-blend-mode:multiply">
<path d="M24.8931 4.8335C25.4137 4.31296 26.2578 4.31304 26.7785 4.8335L28.1664 6.1668C28.6867 6.68749 28.6869 7.53161 28.1664 8.05222L7.66375 28.5548C7.14315 29.0753 6.29903 29.0752 5.77833 28.5548L4.39048 27.2215C3.86995 26.7008 3.86992 25.8568 4.39048 25.3361L24.8931 4.8335Z" fill="#D63D4A"/>
<path d="M18.5427 17.9346L14.8998 14.2601C14.6395 13.9998 14.2174 13.9998 13.957 14.2601L10.9839 17.3002C10.8331 17.5002 10.466 17.9346 11.208 18.5641L14.6268 21.8505C14.8871 22.1108 15.3092 22.1108 15.5696 21.8505L18.5427 18.8774C18.8031 18.617 18.8031 18.1949 18.5427 17.9346Z" fill="#D63D4A"/>
</g>
<path d="M18.4332 17.7802L14.8999 14.2601L14.251 14.8845C14.1704 14.962 14.169 15.0906 14.248 15.1698L17.493 18.4261C17.5706 18.5039 17.6965 18.5046 17.7749 18.4275L18.4332 17.7802Z" fill="white"/>
</g>
</g>
</g>
<defs>
<clipPath id="clip0_21635_57035">
<rect width="32" height="32" fill="white"/>
</clipPath>
<clipPath id="clip1_21635_57035">
<rect width="32" height="32" fill="white" transform="translate(0.166504 0.166748)"/>
</clipPath>
</defs>
</svg>
