<svg width="37" height="36" viewBox="0 0 37 36" fill="none" xmlns="http://www.w3.org/2000/svg">
<ellipse cx="18.1174" cy="27.9837" rx="17.0667" ry="3.2" fill="#ACB1B6" fill-opacity="0.2"/>
<path d="M29.3622 22.0845C28.7248 25.8952 26.4443 28.5273 18.2848 28.5273C10.1254 28.5273 7.84488 25.8952 7.20749 22.0845C6.88473 21.9935 6.57287 21.8517 6.28407 21.6592L5.41221 21.078C4.96433 20.7794 4.69531 20.2767 4.69531 19.7384V18.7796C4.69531 14.2313 6.8716 9.9576 10.55 7.28242C10.793 7.1057 11.0903 7.01051 11.3907 7.01051C11.8292 7.01051 12.2128 7.1918 12.4862 7.47322C14.1823 6.46017 16.1656 5.87805 18.2848 5.87805C20.4041 5.87805 22.3873 6.46017 24.0835 7.47322C24.3569 7.1918 24.7404 7.01051 25.1789 7.01051C25.4794 7.01051 25.7767 7.1057 26.0197 7.28242C29.6981 9.9576 31.8744 14.2313 31.8744 18.7796V19.7384C31.8744 20.2767 31.6053 20.7794 31.1575 21.078L30.2856 21.6592C29.9968 21.8517 29.6849 21.9935 29.3622 22.0845Z" fill="white"/>
<path d="M29.6092 17.2027C29.6092 23.4571 29.6092 28.5273 18.2846 28.5273C6.95996 28.5273 6.95996 23.4571 6.95996 17.2027C6.95996 10.9483 12.0302 5.87805 18.2846 5.87805C24.539 5.87805 29.6092 10.9483 29.6092 17.2027Z" fill="#EECBAE"/>
<ellipse cx="15.7365" cy="22.2995" rx="2.54804" ry="1.69869" fill="white"/>
<ellipse cx="20.8332" cy="22.2995" rx="2.54804" ry="1.69869" fill="white"/>
<path d="M15.4534 17.2029C15.4534 17.8283 14.9464 18.3354 14.3209 18.3354C13.6955 18.3354 13.1885 17.8283 13.1885 17.2029C13.1885 16.5775 13.6955 16.0704 14.3209 16.0704C14.9464 16.0704 15.4534 16.5775 15.4534 17.2029Z" fill="#313D4C"/>
<path d="M20.5495 20.3172C20.5495 21.2553 19.5354 22.0159 18.2845 22.0159C17.0337 22.0159 16.0196 21.2553 16.0196 20.3172C16.0196 19.379 17.0337 18.6185 18.2845 18.6185C19.5354 18.6185 20.5495 19.379 20.5495 20.3172Z" fill="#313D4C"/>
<path d="M22.2482 18.3354C22.8736 18.3354 23.3806 17.8283 23.3806 17.2029C23.3806 16.5775 22.8736 16.0704 22.2482 16.0704C21.6227 16.0704 21.1157 16.5775 21.1157 17.2029C21.1157 17.8283 21.6227 18.3354 22.2482 18.3354Z" fill="#313D4C"/>
<path d="M13.8536 6.03203C14.97 5.74391 15.7175 7.15321 14.8528 7.91595L14.7504 8.00628C12.071 10.3697 10.3875 13.6613 10.0397 17.2171L9.89066 18.7402C9.82642 19.3968 9.55064 20.0148 9.10482 20.5012C7.43395 22.324 4.40201 21.5003 3.88322 19.0826L3.73608 18.3969C3.66438 18.0627 3.65452 17.7182 3.707 17.3805L3.73536 17.198C4.57586 11.7895 8.55376 7.39969 13.8536 6.03203Z" fill="#7E6254"/>
<path d="M22.7168 6.03203C21.6003 5.74391 20.8528 7.15321 21.7175 7.91595L21.8199 8.00628C24.4993 10.3697 26.1828 13.6613 26.5306 17.2171L26.6796 18.7402C26.7439 19.3968 27.0197 20.0148 27.4655 20.5012C29.1364 22.324 32.1683 21.5003 32.6871 19.0826L32.8342 18.3969C32.9059 18.0627 32.9158 17.7182 32.8633 17.3805L32.8349 17.198C31.9944 11.7895 28.0166 7.39969 22.7168 6.03203Z" fill="#7E6254"/>
</svg>
