<svg width="32" height="33" viewBox="0 0 32 33" fill="none" xmlns="http://www.w3.org/2000/svg">
<path d="M11.5 22.6667C12.6046 22.6667 13.5 23.5622 13.5 24.6667C13.5 25.7713 12.6046 26.6667 11.5 26.6667C10.3956 26.6666 9.5 25.7712 9.5 24.6667C9.5 23.5623 10.3956 22.6669 11.5 22.6667ZM20.834 22.6667C21.9384 22.6669 22.834 23.5623 22.834 24.6667C22.834 25.7712 21.9384 26.6666 20.834 26.6667C19.7294 26.6667 18.834 25.7713 18.834 24.6667C18.834 23.5622 19.7294 22.6667 20.834 22.6667Z" fill="#D63D4A"/>
<path d="M20.5 3.33374C21.0523 3.33374 21.5 3.78146 21.5 4.33374C21.4998 4.88588 21.0522 5.33374 20.5 5.33374H20.167V7.66675C20.167 8.21903 19.7193 8.66675 19.167 8.66675C18.6147 8.66675 18.167 8.21903 18.167 7.66675V5.33374H14.167V7.66675C14.167 8.21903 13.7193 8.66675 13.167 8.66675C12.6147 8.66675 12.167 8.21903 12.167 7.66675V5.33374H11.834C11.2818 5.33374 10.8342 4.88588 10.834 4.33374C10.834 3.78146 11.2817 3.33374 11.834 3.33374H20.5Z" fill="#D63D4A"/>
<path d="M5.5 8.85906C5.5 7.64828 6.48153 6.66675 7.69231 6.66675H24.641C25.8518 6.66675 26.8333 7.64828 26.8333 8.85906V21.8078C26.8333 23.0186 25.8518 24.0001 24.641 24.0001H7.69231C6.48153 24.0001 5.5 23.0186 5.5 21.8078V8.85906Z" fill="#FA967C"/>
<path d="M13.167 11.9998C13.7192 11.9998 14.1668 12.4476 14.167 12.9998V17.6667C14.167 18.219 13.7193 18.6667 13.167 18.6667C12.6147 18.6667 12.167 18.219 12.167 17.6667V12.9998C12.1672 12.4476 12.6148 11.9998 13.167 11.9998ZM19.167 11.9998C19.7192 11.9998 20.1668 12.4476 20.167 12.9998V17.6667C20.167 18.219 19.7193 18.6667 19.167 18.6667C18.6147 18.6667 18.167 18.219 18.167 17.6667V12.9998C18.1672 12.4476 18.6148 11.9998 19.167 11.9998Z" fill="#D63D4A"/>
</svg>
