<svg width="32" height="33" viewBox="0 0 32 33" fill="none" xmlns="http://www.w3.org/2000/svg">
<path d="M13.0556 16.0833L9.5 23.5833L10.1667 25.9999L13.5 27.3333H16.8333L18.1667 26.6666L19.1 25.0833L20.1667 22.8333V18.3333L17.3222 15.3333L13.0556 16.0833Z" fill="#FDCFC3"/>
<path d="M15.055 5.49276L14.2963 5.041C13.9939 4.86096 13.6051 5.04129 13.5473 5.3884L13.4033 6.25214C12.9827 8.75571 11.2617 11.082 9.36339 12.7168C5.64717 15.9184 4.83346 19.398 5.98411 22.2704C7.08521 25.019 9.8798 26.9011 12.7162 27.2151L13.3725 27.2873C11.7495 26.3014 10.7078 23.9981 11.0712 22.2769C11.4301 20.5853 12.6546 19.0008 15.0065 17.539L16.1924 16.8037L16.635 18.1222C16.896 18.9013 17.3475 19.5272 17.8066 20.1629C18.0268 20.4693 18.2504 20.7789 18.4552 21.1083C19.1632 22.2518 19.3504 23.5232 18.8934 24.7849C18.4772 25.9316 17.7912 26.8332 16.8454 27.3333L17.9134 27.2151C20.5759 26.9208 22.5303 26.0159 23.7999 24.5026C25.0585 23.0024 25.5 21.0711 25.5 19.0151C25.5 17.1002 24.7083 15.1262 23.7746 13.4838C22.7949 11.7619 21.5478 10.3012 20.1787 8.90331C19.9408 8.66039 19.5507 8.73313 19.42 9.04701C19.3198 9.28754 19.1879 9.56441 18.889 10.0283C18.1683 8.12649 16.8157 6.52633 15.055 5.49276Z" fill="#FA967C"/>
<g style="mix-blend-mode:multiply">
<path d="M18.874 23.9064C18.874 26.6472 22.4942 28.6668 23.8518 28.6668C25.2094 28.6668 28.8296 26.6472 28.8296 23.9064C28.8296 22.4636 28.8296 21.1579 28.8296 20.2447C28.8296 19.455 28.3195 18.7566 27.5683 18.5171L24.675 17.5948C24.1394 17.4241 23.5642 17.4241 23.0286 17.5948L20.1353 18.5171C19.3841 18.7566 18.874 19.455 18.874 20.2447C18.874 21.1579 18.874 22.4636 18.874 23.9064Z" fill="#D63D4A"/>
</g>
<path d="M26.1957 20.95C26.436 20.7995 26.7569 20.8331 26.96 21.0463C27.1631 21.2598 27.1807 21.5819 27.0186 21.8146L26.9392 21.9083L23.7348 24.9565C23.6174 25.068 23.4604 25.1288 23.2986 25.1245C23.1365 25.1201 22.9827 25.0509 22.8715 24.9331L20.7413 22.6739L20.667 22.5763C20.5179 22.3353 20.5531 22.0154 20.7673 21.8133C20.9816 21.6111 21.3036 21.5941 21.5355 21.7573L21.6293 21.838L23.3376 23.6505L26.098 21.0255L26.1957 20.95Z" fill="white"/>
<path d="M5.5 10.6666C5.5 8.82564 6.99238 7.33325 8.83333 7.33325C9.20152 7.33325 9.5 7.63173 9.5 7.99992C9.5 8.36811 9.20152 8.66659 8.83333 8.66659C7.72876 8.66659 6.83333 9.56202 6.83333 10.6666C6.83333 11.0348 6.53486 11.3333 6.16667 11.3333C5.79848 11.3333 5.5 11.0348 5.5 10.6666Z" fill="#D63D4A"/>
<path d="M2.16699 11.3333V10C2.16699 6.68629 4.85328 4 8.16699 4H9.50033C9.86852 4 10.167 4.29848 10.167 4.66667C10.167 5.03486 9.86852 5.33333 9.50033 5.33333H8.16699C5.58966 5.33333 3.50033 7.42267 3.50033 10V11.3333C3.50033 11.7015 3.20185 12 2.83366 12C2.46547 12 2.16699 11.7015 2.16699 11.3333Z" fill="#D63D4A"/>
</svg>
