<svg width="32" height="32" viewBox="0 0 32 32" fill="none" xmlns="http://www.w3.org/2000/svg">
<ellipse cx="15.77" cy="24.8741" rx="15.1704" ry="2.84444" fill="#FDCFC3"/>
<path d="M4.34983 14.8409C3.7059 14.5225 3.08309 15.3076 3.53965 15.8622L6.64962 19.6399C6.69637 19.6967 6.73341 19.7609 6.75922 19.8298L8.47586 24.412C8.72787 25.0847 9.71921 24.9378 9.76544 24.221L10.1557 18.1693C10.1731 17.9007 10.0272 17.648 9.78593 17.5287L4.34983 14.8409Z" fill="#D63D4A"/>
<path d="M21.8561 12.2376C21.7767 11.4872 21.3832 10.8056 20.773 10.3617L11.962 3.95128C11.4455 3.5755 10.7561 3.53914 10.2029 3.85851C9.42989 4.30484 9.16502 5.29334 9.61134 6.0664L19.9951 24.0515C20.4414 24.8246 21.4299 25.0894 22.2029 24.6431C22.7561 24.3238 23.0693 23.7086 23.0021 23.0734L21.8561 12.2376Z" fill="#D63D4A"/>
<path d="M17.9695 9.05632C19.8438 7.68875 22.167 7.08263 24.4705 7.36017C25.9877 7.54296 26.9046 9.13106 26.3043 10.5364C25.3929 12.6701 23.7064 14.3789 21.5849 15.3183L9.54898 20.648C8.50893 21.1086 7.28898 20.7108 6.72026 19.7257C6.15153 18.7407 6.41705 17.4853 7.33592 16.8149L17.9695 9.05632Z" fill="#FA967C"/>
<path d="M21.0486 8.8279C20.7792 8.92658 20.6851 9.24719 20.8285 9.49565L22.6337 12.6223C22.7771 12.8708 23.1018 12.9496 23.322 12.7656C23.9663 12.2272 24.4631 11.5067 24.7602 10.6611C25.0579 9.81375 24.4729 8.80049 23.5902 8.63462C22.7093 8.4691 21.8369 8.53912 21.0486 8.8279Z" fill="white"/>
</svg>
