<svg width="32" height="32" viewBox="0 0 32 32" fill="none" xmlns="http://www.w3.org/2000/svg">
<ellipse cx="15.77" cy="24.8744" rx="15.1704" ry="2.84445" fill="#FDCFC3"/>
<path d="M25.766 19.6308C25.1994 23.018 23.1723 25.3577 15.9194 25.3577C8.66658 25.3577 6.63946 23.018 6.07289 19.6308C5.78599 19.5499 5.50879 19.4239 5.25208 19.2527L4.47708 18.7361C4.07897 18.4707 3.83984 18.0238 3.83984 17.5454V16.6931C3.83984 12.6502 5.77432 8.85129 9.04399 6.47335C9.25997 6.31627 9.52426 6.23165 9.79133 6.23165C10.1811 6.23165 10.5221 6.3928 10.7651 6.64295C12.2728 5.74246 14.0357 5.22502 15.9194 5.22502C17.8032 5.22502 19.5661 5.74246 21.0738 6.64295C21.3168 6.3928 21.6577 6.23165 22.0475 6.23165C22.3146 6.23165 22.5789 6.31627 22.7949 6.47335C26.0645 8.85129 27.999 12.6502 27.999 16.6931V17.5454C27.999 18.0238 27.7599 18.4707 27.3618 18.7361L26.5868 19.2527C26.3301 19.4239 26.0529 19.5499 25.766 19.6308Z" fill="white"/>
<path d="M25.9861 15.2913C25.9861 20.8508 25.9861 25.3577 15.9198 25.3577C5.85352 25.3577 5.85352 20.8508 5.85352 15.2913C5.85352 9.73186 10.3604 5.22502 15.9198 5.22502C21.4793 5.22502 25.9861 9.73186 25.9861 15.2913Z" fill="#FA967C"/>
<ellipse cx="13.6555" cy="19.8217" rx="2.26492" ry="1.50995" fill="white"/>
<ellipse cx="18.1848" cy="19.8217" rx="2.26492" ry="1.50995" fill="white"/>
<path d="M13.4039 15.2913C13.4039 15.8473 12.9532 16.298 12.3973 16.298C11.8413 16.298 11.3906 15.8473 11.3906 15.2913C11.3906 14.7354 11.8413 14.2847 12.3973 14.2847C12.9532 14.2847 13.4039 14.7354 13.4039 15.2913Z" fill="#D63D4A"/>
<path d="M17.9337 18.0596C17.9337 18.8935 17.0324 19.5695 15.9205 19.5695C14.8086 19.5695 13.9072 18.8935 13.9072 18.0596C13.9072 17.2256 14.8086 16.5496 15.9205 16.5496C17.0324 16.5496 17.9337 17.2256 17.9337 18.0596Z" fill="#D63D4A"/>
<path d="M19.4437 16.298C19.9996 16.298 20.4503 15.8473 20.4503 15.2913C20.4503 14.7354 19.9996 14.2847 19.4437 14.2847C18.8877 14.2847 18.437 14.7354 18.437 15.2913C18.437 15.8473 18.8877 16.298 19.4437 16.298Z" fill="#D63D4A"/>
<path d="M11.9803 5.36173C12.9727 5.10563 13.6372 6.35834 12.8685 7.03632L12.7775 7.11662C10.3958 9.21741 8.89937 12.1433 8.59016 15.304L8.45771 16.6579C8.40061 17.2416 8.15547 17.7909 7.75919 18.2232C6.27397 19.8435 3.57892 19.1113 3.11777 16.9622L2.98698 16.3527C2.92324 16.0557 2.91448 15.7495 2.96113 15.4492L2.98633 15.2871C3.73345 10.4795 7.26935 6.57743 11.9803 5.36173Z" fill="#D63D4A"/>
<path d="M19.8587 5.36173C18.8663 5.10563 18.2018 6.35834 18.9705 7.03632L19.0615 7.11662C21.4432 9.21741 22.9396 12.1433 23.2488 15.304L23.3813 16.6579C23.4384 17.2416 23.6835 17.7909 24.0798 18.2232C25.565 19.8435 28.2601 19.1113 28.7212 16.9622L28.852 16.3527C28.9157 16.0557 28.9245 15.7495 28.8778 15.4492L28.8526 15.2871C28.1055 10.4795 24.5696 6.57743 19.8587 5.36173Z" fill="#D63D4A"/>
</svg>
