<svg width="33" height="32" viewBox="0 0 33 32" fill="none" xmlns="http://www.w3.org/2000/svg">
<path d="M4.0752 24.3875H29.9179V25.3936C29.9179 25.9583 29.4593 26.418 28.8936 26.418H5.09956C4.53487 26.418 4.0752 25.9594 4.0752 25.3936V24.3875Z" fill="#1A8DFF"/>
<path d="M4.0752 24.3875H29.9179V25.3936C29.9179 25.9583 29.4593 26.418 28.8936 26.418H5.09956C4.53487 26.418 4.0752 25.9594 4.0752 25.3936V24.3875Z" fill="#D63D4A"/>
<path d="M27.7749 16.9113H6.21822L4.0752 24.519H29.9179L27.7749 16.9113Z" fill="#D63D4A"/>
<g style="mix-blend-mode:multiply">
<path d="M7.24214 4.24847H26.7512C27.3158 4.24847 27.7755 4.70708 27.7755 5.27284V6.67866H6.21777V5.27284C6.21777 4.70815 6.67638 4.24847 7.24214 4.24847Z" fill="#D63D4A"/>
</g>
<path d="M27.7745 6.5199H6.21777V16.9103H27.7745V6.5199Z" fill="#FA967C"/>
<g style="mix-blend-mode:multiply">
<path d="M25.6432 22.4774C28.4589 22.4774 30.7414 20.1948 30.7414 17.3791C30.7414 14.5634 28.4589 12.2809 25.6432 12.2809C22.8275 12.2809 20.5449 14.5634 20.5449 17.3791C20.5449 20.1948 22.8275 22.4774 25.6432 22.4774Z" fill="#D63D4A"/>
</g>
<path d="M24.1895 15.549C24.1154 15.2896 23.8451 15.1395 23.5857 15.2136C23.3264 15.2877 23.1762 15.558 23.2503 15.8173L23.5608 16.904H23.2315C22.9618 16.904 22.7432 17.1227 22.7432 17.3924C22.7432 17.6621 22.9618 17.8807 23.2315 17.8807H23.8399L24.0875 18.7474C24.1453 18.9497 24.326 19.0922 24.5362 19.1012C24.7463 19.1102 24.9386 18.9837 25.0134 18.7871L25.6733 17.0549L26.3332 18.7871C26.4081 18.9837 26.6004 19.1102 26.8105 19.1012C27.0206 19.0922 27.2014 18.9497 27.2591 18.7474L27.5068 17.8807H28.1151C28.3848 17.8807 28.6035 17.6621 28.6035 17.3924C28.6035 17.1227 28.3848 16.904 28.1151 16.904H27.7858L28.0963 15.8173C28.1704 15.558 28.0203 15.2877 27.7609 15.2136C27.5016 15.1395 27.2313 15.2896 27.1572 15.549L26.7233 17.0675L26.1297 15.5093C26.0575 15.3199 25.876 15.1948 25.6733 15.1948C25.4707 15.1948 25.2891 15.3199 25.217 15.5093L24.6233 17.0675L24.1895 15.549Z" fill="white"/>
<g style="mix-blend-mode:multiply">
<path d="M16.2257 8.64252H8.63508C8.38357 8.64252 8.17969 8.8464 8.17969 9.09791V9.11398C8.17969 9.36549 8.38357 9.56938 8.63508 9.56938H16.2257C16.4772 9.56938 16.6811 9.36549 16.6811 9.11398V9.09791C16.6811 8.8464 16.4772 8.64252 16.2257 8.64252Z" fill="#D63D4A"/>
</g>
<g style="mix-blend-mode:multiply">
<path d="M12.6286 10.7741H8.63508C8.38357 10.7741 8.17969 10.978 8.17969 11.2295V11.2456C8.17969 11.4971 8.38357 11.701 8.63508 11.701H12.6286C12.8801 11.701 13.084 11.4971 13.084 11.2456V11.2295C13.084 10.978 12.8801 10.7741 12.6286 10.7741Z" fill="#D63D4A"/>
</g>
</svg>
