<svg width="16" height="16" viewBox="0 0 16 16" fill="none" xmlns="http://www.w3.org/2000/svg">
<path d="M7.26562 1.60059C10.3951 1.60059 12.9324 4.13714 12.9326 7.2666C12.9326 8.63908 12.4437 9.89738 11.6318 10.8779L13.8438 13.0898C14.052 13.2981 14.052 13.6355 13.8438 13.8438C13.6355 14.0519 13.2981 14.052 13.0898 13.8438L10.8779 11.6318C9.89717 12.4444 8.63876 12.9336 7.26562 12.9336C4.13601 12.9336 1.59863 10.3962 1.59863 7.2666C1.59881 4.13714 4.13612 1.60059 7.26562 1.60059ZM7.26562 2.66699C4.72522 2.66699 2.66619 4.72624 2.66602 7.2666C2.66602 9.80711 4.72512 11.8672 7.26562 11.8672C8.47881 11.8672 9.58141 11.3963 10.4033 10.6289C10.4278 10.5819 10.4576 10.5366 10.4971 10.4971C10.5363 10.4579 10.5813 10.4278 10.6279 10.4033C11.3949 9.5815 11.8652 8.47937 11.8652 7.2666C11.8651 4.72624 9.80603 2.66699 7.26562 2.66699ZM7.26855 4.7334C7.56306 4.7334 7.80169 4.97211 7.80176 5.2666V6.7334H9.26758C9.56209 6.7334 9.80071 6.97211 9.80078 7.2666C9.80078 7.56115 9.56213 7.7998 9.26758 7.7998H7.80176V9.2666C7.80176 9.56115 7.56311 9.7998 7.26855 9.7998C6.97409 9.7997 6.73535 9.56109 6.73535 9.2666V7.7998H5.26758C4.97309 7.79973 4.73438 7.56111 4.73438 7.2666C4.73445 6.97215 4.97313 6.73347 5.26758 6.7334H6.73535V5.2666C6.73542 4.97217 6.97414 4.7335 7.26855 4.7334Z" fill="#33363D"/>
</svg>
