<svg width="37" height="36" viewBox="0 0 37 36" fill="none" xmlns="http://www.w3.org/2000/svg">
<ellipse cx="17.8674" cy="27.9833" rx="17.0667" ry="3.2" fill="#ACB1B6" fill-opacity="0.2"/>
<g style="mix-blend-mode:multiply">
<path d="M23.2676 6.15793C23.2676 5.68454 23.6513 5.30078 24.1247 5.30078H26.6961C27.1695 5.30078 27.5533 5.68454 27.5533 6.15792V13.0151H23.2676V6.15793Z" fill="#7E6254"/>
</g>
<path d="M7.60231 14.7016L17.5722 6.26548C17.8918 5.99507 18.36 5.99507 18.6795 6.26548L28.6495 14.7016C28.8419 14.8644 28.9529 15.1038 28.9529 15.3559L28.9529 26.2017C28.9529 26.8588 28.4143 27.3915 27.7499 27.3915H20.8326H15.4191H8.50183C7.83743 27.3915 7.29883 26.8588 7.29883 26.2017L7.29883 15.3559C7.29883 15.1038 7.40984 14.8644 7.60231 14.7016Z" fill="#FFBA89"/>
<path d="M14.6963 20.7295C14.6963 20.2561 15.08 19.8723 15.5534 19.8723H20.6963C21.1697 19.8723 21.5534 20.2561 21.5534 20.7295V27.3915H14.6963L14.6963 20.7295Z" fill="white"/>
<path fill-rule="evenodd" clip-rule="evenodd" d="M17.3568 4.7298C17.7977 4.34772 18.4523 4.34772 18.8932 4.7298L29.7202 14.1132C30.2098 14.5375 30.2627 15.2783 29.8384 15.7678C29.4142 16.2573 28.6734 16.3102 28.1839 15.886L18.125 7.1683L8.06614 15.886C7.57661 16.3102 6.83584 16.2573 6.41158 15.7678C5.98732 15.2783 6.04023 14.5375 6.52976 14.1132L17.3568 4.7298Z" fill="#D63D4A"/>
</svg>
