<svg width="32" height="33" viewBox="0 0 32 33" fill="none" xmlns="http://www.w3.org/2000/svg">
<g style="mix-blend-mode:multiply">
<path d="M7.15353 28.0541H24.1718C26.645 25.7646 28.1945 21.2197 28.1945 17.5841C28.1945 10.6631 22.5659 5.55541 15.6633 5.0516C8.30155 4.51498 3.13086 8.2595 3.13086 17.5841C3.13086 21.2197 4.68036 25.7646 7.15353 28.0541Z" fill="#FA967C"/>
<g style="mix-blend-mode:multiply">
<path d="M14.1029 11.0034H28.1993C28.2071 11.0034 28.215 11.0087 28.219 11.0165C29.0888 13.1027 29.531 15.564 29.531 18.3914V20.5195L17.2452 18.3954C15.428 18.0818 14.1016 16.5047 14.1016 14.6613V11.0034H14.1029Z" fill="#D63D4A"/>
</g>
<path d="M14.103 14.7268C15.1312 14.7268 15.9647 13.8933 15.9647 12.8651C15.9647 11.8368 15.1312 11.0033 14.103 11.0033C13.0748 11.0033 12.2412 11.8368 12.2412 12.8651C12.2412 13.8933 13.0748 14.7268 14.103 14.7268Z" fill="#D63D4A"/>
<path d="M14.1031 15.5143C12.6428 15.5143 11.4541 14.3256 11.4541 12.8653C11.4541 11.405 12.6428 10.2163 14.1031 10.2163C15.5634 10.2163 16.7521 11.405 16.7521 12.8653C16.7521 14.3256 15.5634 15.5143 14.1031 15.5143ZM14.1031 11.7907C13.51 11.7907 13.0285 12.2736 13.0285 12.8653C13.0285 13.457 13.51 13.9398 14.1031 13.9398C14.6961 13.9398 15.1776 13.4583 15.1776 12.8653C15.1776 12.2723 14.6961 11.7907 14.1031 11.7907Z" fill="white"/>
<path d="M22.8489 12.8862L22.6873 12.9024C22.3222 12.9773 22.0472 13.3006 22.0472 13.6879C22.0472 14.0752 22.3222 14.3985 22.6873 14.4734L22.8489 14.4896H26.8585C27.3013 14.4896 27.6602 14.1307 27.6602 13.6879C27.6602 13.2451 27.3013 12.8862 26.8585 12.8862H22.8489Z" fill="white"/>
<path d="M8.81641 8.56566C8.60157 8.24339 8.19359 8.12717 7.84819 8.26736L7.70402 8.34318L7.54617 8.45504C6.76572 9.0334 5.44494 10.4022 4.8205 12.3901L4.69869 12.8251L4.67508 12.9854C4.65873 13.3581 4.90568 13.7029 5.28161 13.797C5.65749 13.891 6.0377 13.7032 6.19887 13.367L6.25356 13.2141L6.35299 12.8648C6.82085 11.3819 7.78075 10.3285 8.35778 9.85454L8.59393 9.67805L8.71947 9.57489C8.98201 9.31001 9.03135 8.88806 8.81641 8.56566Z" fill="white"/>
</g>
</svg>
