<svg width="32" height="32" viewBox="0 0 32 32" fill="none" xmlns="http://www.w3.org/2000/svg">
<g style="mix-blend-mode:multiply">
<path fill-rule="evenodd" clip-rule="evenodd" d="M10.2195 4.6665C9.78441 4.66666 9.35712 4.79103 8.9809 5.02703C8.60467 5.26302 8.29287 5.60226 8.07708 6.01036L3.65905 14.3628C3.44559 14.7659 3.33328 15.2222 3.33325 15.6866V21.6833C3.33328 22.0971 3.42243 22.5051 3.59364 22.8752L4.97335 25.8562C5.17828 26.2992 5.49338 26.6719 5.88334 26.9323C6.27329 27.1927 6.72268 27.3307 7.18114 27.3307H8.2696C8.9242 27.3307 9.55199 27.0498 10.0149 26.5497C10.4777 26.0497 10.7378 25.3715 10.7378 24.6643H20.6105C20.6105 25.3715 20.8705 26.0497 21.3334 26.5497C21.7963 27.0498 22.424 27.3307 23.0786 27.3307H24.1671C24.6256 27.3307 25.075 27.1927 25.4649 26.9323C25.8549 26.6719 26.17 26.2992 26.3749 25.8562L27.7546 22.8752C27.9261 22.5059 28.015 22.0966 28.015 21.6833V15.6866C28.015 15.2222 27.9027 14.7659 27.6892 14.3628L23.2712 6.01036C23.0554 5.60226 22.7436 5.26302 22.3673 5.02703C21.9911 4.79103 21.5638 4.66666 21.1288 4.6665H10.2195Z" fill="#FA967C"/>
<g style="mix-blend-mode:multiply">
<path d="M5.87694 26.9348C5.48699 26.6743 5.17188 26.3017 4.96695 25.8587L4.2771 24.3682H27.0583L26.3685 25.8587C26.1636 26.3017 25.8485 26.6743 25.4585 26.9348C25.0686 27.1952 24.6192 27.3332 24.1607 27.3332H23.0723C22.4177 27.3332 21.7899 27.0523 21.327 26.5522C20.8641 26.0522 20.6041 25.374 20.6041 24.6668H10.7314C10.7314 25.374 10.4713 26.0522 10.0085 26.5522C9.54559 27.0523 8.9178 27.3332 8.2632 27.3332H7.17474C6.71628 27.3332 6.26689 27.1952 5.87694 26.9348Z" fill="#D63D4A"/>
</g>
<g style="mix-blend-mode:multiply">
<path d="M7.26445 13.0062L9.53152 7.90526C9.66797 7.59825 9.97243 7.40039 10.3084 7.40039H21.2944C21.6304 7.40039 21.9349 7.59825 22.0713 7.90526L24.3384 13.0062C24.5882 13.5684 24.1767 14.2016 23.5615 14.2016H8.04133C7.42611 14.2016 7.01459 13.5684 7.26445 13.0062Z" fill="#D63D4A"/>
</g>
<ellipse cx="9.56749" cy="19.4015" rx="1.7003" ry="1.7003" fill="white"/>
<circle cx="22.0362" cy="19.4015" r="1.7003" fill="white"/>
<g style="mix-blend-mode:multiply">
<ellipse cx="23.3333" cy="8.66634" rx="5.33333" ry="5.33333" fill="#D63D4A"/>
</g>
<path d="M23.5225 4.93359C23.6165 4.9337 23.6986 4.99694 23.7227 5.08789L23.916 5.81738L24.9258 6.2334L25.4277 5.80469C25.51 5.73444 25.6324 5.73903 25.709 5.81543L26.1855 6.29199C26.2615 6.36824 26.2667 6.49003 26.1973 6.57227L25.7695 7.07715L26.1787 8.06738L26.9102 8.25293C27.0021 8.27627 27.0674 8.35921 27.0674 8.4541V8.87109C27.0673 8.9653 27.0032 9.04739 26.9121 9.07129L26.1758 9.26367L25.7656 10.2529L26.1963 10.7607C26.2662 10.843 26.2618 10.9656 26.1855 11.042L25.7109 11.5156C25.6335 11.5927 25.5098 11.5967 25.4277 11.5244L25.3086 11.4199C25.1667 11.2964 25.0044 11.1577 24.9219 11.0986L23.9316 11.5088L23.7461 12.2432C23.7228 12.3352 23.6398 12.4003 23.5449 12.4004H23.1211C23.0261 12.4003 22.9431 12.3353 22.9199 12.2432L22.7354 11.5078L21.7617 11.1074L21.2393 11.5352C21.1568 11.6025 21.0362 11.5958 20.9609 11.5205L20.4854 11.0449C20.4077 10.9672 20.4044 10.8428 20.4775 10.7607L20.9131 10.2725L20.4971 9.28516L19.7529 9.08105C19.6628 9.05636 19.6006 8.97429 19.6006 8.88086V8.45703C19.6007 8.36071 19.6669 8.27676 19.7607 8.25488L20.4863 8.08594L20.8896 7.09473L20.4648 6.57227C20.3979 6.48978 20.4044 6.36908 20.4795 6.29395L20.9551 5.81836C21.0327 5.74069 21.1582 5.73656 21.2402 5.80957L21.7295 6.24609L22.7168 5.83008L22.9121 5.08789C22.9361 4.99693 23.0183 4.93375 23.1123 4.93359H23.5225ZM23.334 6.875C22.3445 6.875 21.5422 7.67658 21.542 8.66602C21.5421 9.6556 22.3444 10.458 23.334 10.458C24.3233 10.4577 25.1249 9.6554 25.125 8.66602C25.1247 7.67678 24.3232 6.87532 23.334 6.875Z" fill="white"/>
</g>
</svg>
