<svg width="36" height="36" viewBox="0 0 36 36" fill="none" xmlns="http://www.w3.org/2000/svg">
<g style="mix-blend-mode:multiply">
<ellipse cx="17.742" cy="27.2" rx="17.0667" ry="3.2" fill="#ACB1B6" fill-opacity="0.2"/>
<path d="M18.002 3.75635C25.042 3.75635 30.7489 9.4644 30.749 16.5044C30.749 17.5112 30.6327 18.4907 30.4121 19.4302C30.3472 19.7067 30.2343 19.9573 30.0869 20.1812C30.0834 20.4329 30.0364 20.6928 29.9385 20.9556C29.0246 23.4062 27.3783 25.5004 25.2656 26.9712C24.8129 27.2863 24.2665 27.4292 23.7148 27.4292H12.2695C11.7181 27.4292 11.1714 27.2862 10.7188 26.9712C8.6059 25.5004 6.95893 23.4062 6.04492 20.9556C5.94268 20.6813 5.89615 20.4099 5.89648 20.1479C5.75981 19.9326 5.65457 19.693 5.59277 19.4302C5.37195 18.4908 5.2549 17.5111 5.25488 16.5044C5.25498 9.46476 10.9624 3.75694 18.002 3.75635ZM25.8936 16.5024C25.8935 16.2547 25.6248 16.1088 25.4082 16.229L22.9795 17.5767C22.7987 17.6771 22.6694 17.8483 22.6035 18.0444C21.9579 19.9684 20.1413 21.355 18 21.355C15.859 21.3548 14.0414 19.9689 13.3955 18.0454C13.3296 17.8492 13.2005 17.6781 13.0195 17.5776L10.5938 16.231C10.3788 16.1116 10.1114 16.2566 10.1113 16.5024C10.1113 17.0796 10.1742 17.6423 10.292 18.1841C10.3234 18.3287 10.3384 18.4774 10.3447 18.6274C10.4069 18.7385 10.4605 18.8555 10.501 18.978C11.155 20.9576 12.5709 22.59 14.4023 23.5278C14.7597 23.7108 15.161 23.7846 15.5625 23.7847H20.4248C20.8263 23.7846 21.2276 23.7108 21.585 23.5278C23.4163 22.5899 24.8331 20.9576 25.4873 18.978C25.5322 18.8422 25.5908 18.7119 25.6621 18.5903C25.6698 18.4522 25.6849 18.3154 25.7139 18.1821C25.8315 17.6409 25.8935 17.079 25.8936 16.5024ZM18.002 8.61084C14.9742 8.61111 12.3444 10.3169 11.0215 12.8198C10.7777 13.281 11.1337 13.8023 11.6553 13.811L13.5117 13.8423C13.7725 13.8466 14.0141 13.7137 14.1748 13.5083C15.0635 12.3727 16.4463 11.6422 18 11.6421C19.5537 11.6421 20.9365 12.3727 21.8252 13.5083C21.9859 13.7136 22.2267 13.8465 22.4873 13.8423L24.3506 13.811C24.872 13.8022 25.2272 13.2809 24.9834 12.8198C23.6601 10.3169 21.0298 8.61093 18.002 8.61084Z" fill="white"/>
<path d="M9.15665 17.714C9.75558 17.714 10.2552 18.1547 10.4241 18.7293C11.0508 20.861 12.5531 22.6175 14.5154 23.5832C14.8034 23.7249 15.1233 23.7849 15.4442 23.7849H20.5453C20.8661 23.7848 21.1862 23.7249 21.4741 23.5832C23.4363 22.6175 24.9387 20.861 25.5654 18.7293C25.7343 18.1547 26.2339 17.714 26.8328 17.714H28.0131C29.4439 17.7142 30.5829 18.9597 30.1546 20.3249C28.531 25.497 23.7008 29.2492 17.9929 29.2495C12.2849 29.2494 7.45479 25.497 5.83112 20.3249C5.40275 18.9596 6.54166 17.714 7.97262 17.714H9.15665Z" fill="#5B658C"/>
<g style="mix-blend-mode:multiply">
<path d="M17.9976 3.75256C25.0374 3.75283 30.7454 9.45975 30.7456 16.4996C30.7456 17.507 30.628 18.4874 30.4067 19.4274C30.125 20.6233 28.9831 21.3579 27.7544 21.358C26.3163 21.358 25.4026 19.5855 25.7085 18.1803C25.8266 17.638 25.8891 17.0745 25.8892 16.4967C25.8892 16.2508 25.6213 16.1057 25.4063 16.225L22.9763 17.5737C22.7953 17.6742 22.666 17.8455 22.6001 18.0418C21.9546 19.966 20.1372 21.3522 17.9956 21.3522C15.8537 21.352 14.0352 19.9655 13.39 18.0409C13.3242 17.8445 13.195 17.6732 13.0139 17.5727L10.5877 16.2251C10.3728 16.1058 10.1069 16.2509 10.1069 16.4967C10.107 17.0738 10.1688 17.6366 10.2866 18.1783C10.5923 19.5842 9.6784 21.3578 8.23975 21.358C7.01091 21.3579 5.86965 20.6226 5.58838 19.4264C5.36745 18.4866 5.25049 17.5068 5.25049 16.4996C5.25067 9.45965 10.9575 3.75265 17.9976 3.75256ZM17.9985 8.6051C14.9698 8.6051 12.3392 10.3115 11.0161 12.8153C10.7724 13.2765 11.1277 13.7978 11.6492 13.8064L13.5085 13.8374C13.7691 13.8417 14.0103 13.7092 14.1711 13.5039C15.0599 12.3694 16.4426 11.6404 17.9956 11.6403C19.5486 11.6403 20.9312 12.3695 21.8201 13.504C21.9809 13.7092 22.2221 13.8417 22.4827 13.8374L24.3449 13.8064C24.8664 13.7977 25.2217 13.2765 24.978 12.8153C23.6555 10.3118 21.0268 8.60531 17.9985 8.6051Z" fill="#8C97C8"/>
</g>
<rect x="15.5659" y="14.0717" width="4.85617" height="4.85617" rx="2.42808" fill="white"/>
<g style="mix-blend-mode:multiply">
<circle cx="18" cy="16.4998" r="4.78031" fill="black"/>
<circle cx="18" cy="16.4998" r="4.78031" fill="#43465B"/>
</g>
</g>
</svg>
