<svg width="32" height="32" viewBox="0 0 32 32" fill="none" xmlns="http://www.w3.org/2000/svg">
<path d="M4.97589 18.8317C6.48662 18.8317 7.7113 17.607 7.7113 16.0963C7.7113 14.5855 6.48662 13.3608 4.97589 13.3608C3.46516 13.3608 2.24048 14.5855 2.24048 16.0963C2.24048 17.607 3.46516 18.8317 4.97589 18.8317Z" fill="#FA967C"/>
<path d="M27.0242 18.8317C28.535 18.8317 29.7596 17.607 29.7596 16.0963C29.7596 14.5855 28.535 13.3608 27.0242 13.3608C25.5135 13.3608 24.2888 14.5855 24.2888 16.0963C24.2888 17.607 25.5135 18.8317 27.0242 18.8317Z" fill="#FA967C"/>
<path d="M16.0001 27.0695C22.0604 27.0695 26.9733 22.1566 26.9733 16.0963C26.9733 10.0359 22.0604 5.12305 16.0001 5.12305C9.93973 5.12305 5.02686 10.0359 5.02686 16.0963C5.02686 22.1566 9.93973 27.0695 16.0001 27.0695Z" fill="#FA967C"/>
<ellipse cx="23.5465" cy="18.6959" rx="1.96158" ry="1.37311" fill="white"/>
<ellipse cx="8.54606" cy="18.6959" rx="1.96158" ry="1.37311" fill="white"/>
<path d="M12.9217 16.777C13.4558 16.777 13.8887 16.2818 13.8887 15.671C13.8887 15.0601 13.4558 14.5649 12.9217 14.5649C12.3877 14.5649 11.9548 15.0601 11.9548 15.671C11.9548 16.2818 12.3877 16.777 12.9217 16.777Z" fill="#D63D4A"/>
<path d="M20.0456 15.671C20.0456 16.2821 19.6124 16.777 19.0787 16.777C18.5451 16.777 18.1118 16.2821 18.1118 15.671C18.1118 15.0598 18.5451 14.5649 19.0787 14.5649C19.6124 14.5649 20.0456 15.0598 20.0456 15.671Z" fill="#D63D4A"/>
<path d="M5.12671 15.1188C5.12671 15.1188 9.66793 13.2547 12.4155 8.48046C12.4155 8.48046 12.6533 10.8105 11.8184 12.5581H20.1824C20.1824 12.5581 20.4203 11.0435 19.8232 8.36396C19.8232 8.36396 22.3329 12.6746 26.8717 14.4197C26.8717 14.4197 26.9906 4.40283 16.1193 4.40283C5.24807 4.40283 5.12671 13.0217 5.12671 15.1188Z" fill="#D63D4A"/>
<path d="M12.8257 18.314C12.8257 20.0676 14.2464 21.4884 16.0001 21.4884C17.7538 21.4884 19.1745 20.0676 19.1745 18.314H12.828H12.8257Z" fill="#D63D4A"/>
</svg>
