<svg width="32" height="33" viewBox="0 0 32 33" fill="none" xmlns="http://www.w3.org/2000/svg">
<path d="M5.14362 19.4987C6.65434 19.4987 7.87903 18.274 7.87903 16.7632C7.87903 15.2525 6.65434 14.0278 5.14362 14.0278C3.63289 14.0278 2.4082 15.2525 2.4082 16.7632C2.4082 18.274 3.63289 19.4987 5.14362 19.4987Z" fill="#FA967C"/>
<path d="M27.1924 19.4988C28.7032 19.4988 29.9279 18.2741 29.9279 16.7634C29.9279 15.2526 28.7032 14.028 27.1924 14.028C25.6817 14.028 24.457 15.2526 24.457 16.7634C24.457 18.2741 25.6817 19.4988 27.1924 19.4988Z" fill="#FA967C"/>
<path d="M16.1675 27.7363C22.2279 27.7363 27.1407 22.8235 27.1407 16.7631C27.1407 10.7028 22.2279 5.78992 16.1675 5.78992C10.1072 5.78992 5.19434 10.7028 5.19434 16.7631C5.19434 22.8235 10.1072 27.7363 16.1675 27.7363Z" fill="#FA967C"/>
<ellipse cx="23.7145" cy="19.3626" rx="1.96158" ry="1.37311" fill="white"/>
<ellipse cx="8.71354" cy="19.3626" rx="1.96158" ry="1.37311" fill="white"/>
<path d="M13.09 17.4437C13.624 17.4437 14.0569 16.9486 14.0569 16.3377C14.0569 15.7269 13.624 15.2317 13.09 15.2317C12.5559 15.2317 12.123 15.7269 12.123 16.3377C12.123 16.9486 12.5559 17.4437 13.09 17.4437Z" fill="#D63D4A"/>
<path d="M20.2141 16.3377C20.2141 16.9489 19.7808 17.4437 19.2472 17.4437C18.7136 17.4437 18.2803 16.9489 18.2803 16.3377C18.2803 15.7265 18.7136 15.2317 19.2472 15.2317C19.7808 15.2317 20.2141 15.7265 20.2141 16.3377Z" fill="#D63D4A"/>
<path d="M5.29395 15.7859C5.29395 15.7859 9.83517 13.9218 12.5827 9.14758C12.5827 9.14758 12.8206 11.4777 11.9856 13.2252H20.3496C20.3496 13.2252 20.5875 11.7107 19.9904 9.03108C19.9904 9.03108 22.5001 13.3417 27.0389 15.0868C27.0389 15.0868 27.1578 5.06995 16.2866 5.06995C5.4153 5.06995 5.29395 13.6888 5.29395 15.7859Z" fill="#D63D4A"/>
<path d="M12.9932 18.9808C12.9932 20.7345 14.4139 22.1552 16.1676 22.1552C17.9212 22.1552 19.342 20.7345 19.342 18.9808H12.9954H12.9932Z" fill="#D63D4A"/>
</svg>
