<svg width="36" height="36" viewBox="0 0 36 36" fill="none" xmlns="http://www.w3.org/2000/svg">
<ellipse cx="17.742" cy="27.9837" rx="17.0667" ry="3.2" fill="#ACB1B6" fill-opacity="0.2"/>
<rect x="5.25" y="9.34961" width="25.5" height="17" rx="3.285" fill="#FBC5BA"/>
<rect x="12.9001" y="12.75" width="10.2" height="10.2" rx="5.1" fill="#D63D4A"/>
<path d="M17.9995 14.875C18.4102 14.875 18.7435 15.2076 18.7437 15.6182V17.1055H20.231C20.6417 17.1055 20.9751 17.4388 20.9751 17.8496C20.975 18.2603 20.6417 18.5928 20.231 18.5928H18.7437V20.0811C18.7436 20.4918 18.4103 20.8252 17.9995 20.8252C17.589 20.8249 17.2564 20.4916 17.2563 20.0811V18.5928H15.769C15.3583 18.5928 15.025 18.2603 15.0249 17.8496C15.0249 17.4388 15.3583 17.1055 15.769 17.1055H17.2563V15.6182C17.2565 15.2077 17.5891 14.8753 17.9995 14.875Z" fill="white"/>
<path d="M23.1001 5.1001C24.0388 5.10024 24.8003 5.86152 24.8003 6.80029V9.3501H22.2495V7.70068C22.2495 7.20374 21.847 6.80048 21.3501 6.80029H14.6499C14.1528 6.80029 13.7495 7.20363 13.7495 7.70068V9.3501H11.1997V6.80029C11.1997 5.86143 11.961 5.1001 12.8999 5.1001H23.1001Z" fill="#7E6254"/>
<path d="M8.0835 26.3506H10.9168V26.5673C10.9168 27.23 10.3796 27.7673 9.71683 27.7673H9.2835C8.62075 27.7673 8.0835 27.23 8.0835 26.5673V26.3506Z" fill="#313D4C"/>
<path d="M25.0833 26.3506H27.9166V26.5673C27.9166 27.23 27.3793 27.7673 26.7166 27.7673H26.2833C25.6205 27.7673 25.0833 27.23 25.0833 26.5673V26.3506Z" fill="#313D4C"/>
</svg>
