<svg width="32" height="32" viewBox="0 0 32 32" fill="none" xmlns="http://www.w3.org/2000/svg">
<path d="M26.2929 9.40439L28.7446 11.8563C28.951 12.0635 29.067 12.344 29.0671 12.6365C29.0672 12.929 28.9514 13.2096 28.7452 13.417L24.8373 17.3257L23.1755 18.9869L13.1529 29.0101C12.9455 29.2171 12.6645 29.3333 12.3715 29.3333C12.0785 29.3333 11.7975 29.2171 11.5901 29.0101L9.13832 26.5582C8.94318 26.3604 8.82923 26.0966 8.81895 25.8189C8.80866 25.5412 8.90279 25.2698 9.08277 25.0581C9.36321 24.732 9.51009 24.312 9.49395 23.8822C9.47781 23.4524 9.29986 23.0445 8.99575 22.7404C8.69163 22.4363 8.28383 22.2583 7.85406 22.2422C7.42428 22.226 7.00429 22.3729 6.67823 22.6534C6.46652 22.8334 6.19507 22.9275 5.9174 22.9172C5.63972 22.9069 5.37598 22.793 5.17817 22.5978L2.72363 20.1459C2.51664 19.9385 2.40039 19.6575 2.40039 19.3645C2.40039 19.0715 2.51664 18.7904 2.72363 18.583L12.7462 8.55987L14.4074 6.89805L18.3159 2.98992C18.5233 2.78292 18.8043 2.66666 19.0973 2.66666C19.3903 2.66666 19.6714 2.78292 19.8787 2.98992L22.3327 5.44459C22.5279 5.64241 22.6418 5.90617 22.6521 6.18385C22.6624 6.46154 22.5683 6.73301 22.3883 6.94472C22.1103 7.27154 21.9651 7.69087 21.9816 8.11965C21.998 8.54844 22.1749 8.9554 22.4772 9.25994C22.7817 9.56239 23.1888 9.73938 23.6177 9.75585C24.0466 9.77231 24.466 9.62704 24.7928 9.34883C25.0045 9.16885 25.276 9.07472 25.5537 9.085C25.8313 9.09529 26.0951 9.20924 26.2929 9.40439Z" fill="#32C9DC"/>
<g style="mix-blend-mode:multiply">
<path d="M21.5059 13.8782L21.0121 14.3873L20.5172 14.8965L18.959 13.3446L19.9488 12.3263L21.5059 13.8782ZM18.3906 10.7744L17.8957 11.2836L17.4008 11.7939L15.8426 10.242L16.8324 9.22371L18.3906 10.7744ZM15.2742 7.67184L14.7793 8.18099L14.2855 8.69015L13.5059 7.91479L14.4957 6.89648L15.2742 7.67184Z" fill="#1A5EA7"/>
</g>
<g style="mix-blend-mode:multiply">
<circle cx="24.0003" cy="20" r="5.33333" fill="white"/>
<circle cx="24.0003" cy="20" r="5.33333" fill="#1A5EA7"/>
</g>
<path d="M22.3792 18.3536C22.2983 18.0704 22.0031 17.9064 21.7199 17.9873C21.4367 18.0682 21.2727 18.3634 21.3536 18.6466L21.6927 19.8334H21.3331C21.0386 19.8334 20.7998 20.0722 20.7998 20.3667C20.7998 20.6613 21.0386 20.9 21.3331 20.9H21.9975L22.2679 21.8465C22.331 22.0674 22.5284 22.223 22.7579 22.2328C22.9873 22.2427 23.1973 22.1045 23.2791 21.8899L23.9997 19.9982L24.7203 21.8899C24.8021 22.1045 25.0121 22.2427 25.2415 22.2328C25.471 22.223 25.6684 22.0674 25.7315 21.8465L26.0019 20.9H26.6663C26.9608 20.9 27.1996 20.6613 27.1996 20.3667C27.1996 20.0722 26.9608 19.8334 26.6663 19.8334H26.3067L26.6458 18.6466C26.7267 18.3634 26.5627 18.0682 26.2795 17.9873C25.9963 17.9064 25.7011 18.0704 25.6202 18.3536L25.1463 20.012L24.4981 18.3103C24.4193 18.1035 24.221 17.9668 23.9997 17.9668C23.7784 17.9668 23.5801 18.1035 23.5013 18.3103L22.8531 20.012L22.3792 18.3536Z" fill="white"/>
</svg>
