<svg width="32" height="32" viewBox="0 0 32 32" fill="none" xmlns="http://www.w3.org/2000/svg">
<path d="M5.59358 7.51076C6.20022 7.32592 6.84205 7.66797 7.02688 8.27461L7.47323 9.73954C7.65807 10.3462 8.29968 10.6881 8.90631 10.5033L15.1308 8.60674C19.5794 7.25133 24.2846 9.75824 25.6402 14.2067C26.9956 18.6554 24.4879 23.3609 20.0392 24.7164L16.3783 25.8318C11.5252 27.3105 6.39176 24.5748 4.91308 19.7217L1.90113 9.83637C1.7163 9.22973 2.05835 8.5879 2.66498 8.40307L5.59358 7.51076Z" fill="#D63D4A"/>
<path d="M3.35099 14.5962C2.98132 13.383 3.66519 12.0997 4.87846 11.7301L15.1303 8.60645C19.5789 7.25099 24.2841 9.75853 25.6396 14.2072C26.995 18.6558 24.4875 23.361 20.0388 24.7165L16.3775 25.832C11.5244 27.3107 6.39148 24.5752 4.9128 19.7221L3.35099 14.5962Z" fill="#FA967C"/>
<path d="M9.52976 19.1158C9.40653 18.7114 9.63449 18.2837 10.0389 18.1604L20.2907 15.0368C20.6952 14.9136 21.1229 15.1415 21.2461 15.546C21.3693 15.9504 21.1414 16.3781 20.737 16.5014L10.4851 19.625C10.0807 19.7482 9.65298 19.5202 9.52976 19.1158Z" fill="white"/>
<path d="M11.8872 21.5985C11.764 21.1941 11.9919 20.7663 12.3963 20.6431L19.7191 18.4119C20.1235 18.2887 20.5512 18.5167 20.6745 18.9211C20.7977 19.3255 20.5697 19.7533 20.1653 19.8765L12.8426 22.1076C12.4381 22.2309 12.0104 22.0029 11.8872 21.5985Z" fill="white"/>
<circle cx="23.8674" cy="20.1889" r="5.35856" fill="#D63D4A"/>
<g filter="url(#filter0_i_9247_41389)">
<circle cx="26.3797" cy="20.1891" r="1.00473" fill="#D63D4A"/>
</g>
<g filter="url(#filter1_i_9247_41389)">
<circle cx="23.868" cy="22.8683" r="1.00473" fill="#D63D4A"/>
</g>
<g filter="url(#filter2_i_9247_41389)">
<circle cx="25.6258" cy="22.5333" r="1.00473" fill="#D63D4A"/>
</g>
<g filter="url(#filter3_i_9247_41389)">
<circle cx="24.6209" cy="20.524" r="1.00473" fill="#D63D4A"/>
</g>
<defs>
<filter id="filter0_i_9247_41389" x="25.375" y="19.1843" width="2.00977" height="2.00952" filterUnits="userSpaceOnUse" color-interpolation-filters="sRGB">
<feFlood flood-opacity="0" result="BackgroundImageFix"/>
<feBlend mode="normal" in="SourceGraphic" in2="BackgroundImageFix" result="shape"/>
<feColorMatrix in="SourceAlpha" type="matrix" values="0 0 0 0 0 0 0 0 0 0 0 0 0 0 0 0 0 0 127 0" result="hardAlpha"/>
<feOffset dx="-0.251183" dy="-0.502365"/>
<feComposite in2="hardAlpha" operator="arithmetic" k2="-1" k3="1"/>
<feColorMatrix type="matrix" values="0 0 0 0 1 0 0 0 0 1 0 0 0 0 1 0 0 0 0.5 0"/>
<feBlend mode="normal" in2="shape" result="effect1_innerShadow_9247_41389"/>
</filter>
<filter id="filter1_i_9247_41389" x="22.8633" y="21.8635" width="2.00977" height="2.00952" filterUnits="userSpaceOnUse" color-interpolation-filters="sRGB">
<feFlood flood-opacity="0" result="BackgroundImageFix"/>
<feBlend mode="normal" in="SourceGraphic" in2="BackgroundImageFix" result="shape"/>
<feColorMatrix in="SourceAlpha" type="matrix" values="0 0 0 0 0 0 0 0 0 0 0 0 0 0 0 0 0 0 127 0" result="hardAlpha"/>
<feOffset dx="-0.251183" dy="-0.502365"/>
<feComposite in2="hardAlpha" operator="arithmetic" k2="-1" k3="1"/>
<feColorMatrix type="matrix" values="0 0 0 0 1 0 0 0 0 1 0 0 0 0 1 0 0 0 0.5 0"/>
<feBlend mode="normal" in2="shape" result="effect1_innerShadow_9247_41389"/>
</filter>
<filter id="filter2_i_9247_41389" x="24.6211" y="21.5286" width="2.00977" height="2.00952" filterUnits="userSpaceOnUse" color-interpolation-filters="sRGB">
<feFlood flood-opacity="0" result="BackgroundImageFix"/>
<feBlend mode="normal" in="SourceGraphic" in2="BackgroundImageFix" result="shape"/>
<feColorMatrix in="SourceAlpha" type="matrix" values="0 0 0 0 0 0 0 0 0 0 0 0 0 0 0 0 0 0 127 0" result="hardAlpha"/>
<feOffset dx="-0.251183" dy="-0.502365"/>
<feComposite in2="hardAlpha" operator="arithmetic" k2="-1" k3="1"/>
<feColorMatrix type="matrix" values="0 0 0 0 1 0 0 0 0 1 0 0 0 0 1 0 0 0 0.5 0"/>
<feBlend mode="normal" in2="shape" result="effect1_innerShadow_9247_41389"/>
</filter>
<filter id="filter3_i_9247_41389" x="23.6162" y="19.5193" width="2.00977" height="2.00952" filterUnits="userSpaceOnUse" color-interpolation-filters="sRGB">
<feFlood flood-opacity="0" result="BackgroundImageFix"/>
<feBlend mode="normal" in="SourceGraphic" in2="BackgroundImageFix" result="shape"/>
<feColorMatrix in="SourceAlpha" type="matrix" values="0 0 0 0 0 0 0 0 0 0 0 0 0 0 0 0 0 0 127 0" result="hardAlpha"/>
<feOffset dx="-0.251183" dy="-0.502365"/>
<feComposite in2="hardAlpha" operator="arithmetic" k2="-1" k3="1"/>
<feColorMatrix type="matrix" values="0 0 0 0 1 0 0 0 0 1 0 0 0 0 1 0 0 0 0.5 0"/>
<feBlend mode="normal" in2="shape" result="effect1_innerShadow_9247_41389"/>
</filter>
</defs>
</svg>
