<svg width="36" height="36" viewBox="0 0 36 36" fill="none" xmlns="http://www.w3.org/2000/svg">
<ellipse cx="17.7424" cy="27.9832" rx="17.0667" ry="3.2" fill="#ACB1B6" fill-opacity="0.2"/>
<path d="M6.05705 19.5572C7.69363 19.5572 9.02034 18.2305 9.02034 16.5939C9.02034 14.9573 7.69363 13.6306 6.05705 13.6306C4.42046 13.6306 3.09375 14.9573 3.09375 16.5939C3.09375 18.2305 4.42046 19.5572 6.05705 19.5572Z" fill="#FDD9BD"/>
<path d="M29.9418 19.5572C31.5784 19.5572 32.9051 18.2305 32.9051 16.5939C32.9051 14.9573 31.5784 13.6306 29.9418 13.6306C28.3052 13.6306 26.9785 14.9573 26.9785 16.5939C26.9785 18.2305 28.3052 19.5572 29.9418 19.5572Z" fill="#FDD9BD"/>
<path d="M18.0006 28.4813C24.5659 28.4813 29.888 23.1591 29.888 16.5939C29.888 10.0287 24.5659 4.70654 18.0006 4.70654C11.4354 4.70654 6.11328 10.0287 6.11328 16.5939C6.11328 23.1591 11.4354 28.4813 18.0006 28.4813Z" fill="#FDD9BD"/>
<ellipse cx="26.1738" cy="19.4104" rx="2.125" ry="1.4875" fill="white"/>
<ellipse cx="9.92383" cy="19.4104" rx="2.125" ry="1.4875" fill="white"/>
<path d="M14.6647 17.3314C15.2432 17.3314 15.7121 16.795 15.7121 16.1332C15.7121 15.4715 15.2432 14.9351 14.6647 14.9351C14.0862 14.9351 13.6172 15.4715 13.6172 16.1332C13.6172 16.795 14.0862 17.3314 14.6647 17.3314Z" fill="#313D4C"/>
<path d="M22.382 16.1332C22.382 16.7953 21.9127 17.3314 21.3346 17.3314C20.7565 17.3314 20.2871 16.7953 20.2871 16.1332C20.2871 15.4711 20.7565 14.9351 21.3346 14.9351C21.9127 14.9351 22.382 15.4711 22.382 16.1332Z" fill="#313D4C"/>
<path d="M6.2207 15.5349C6.2207 15.5349 11.1402 13.5156 14.1167 8.34361C14.1167 8.34361 14.3744 10.8678 13.4699 12.7609H22.5307C22.5307 12.7609 22.7883 11.1202 22.1415 8.2174C22.1415 8.2174 24.8603 12.8872 29.7772 14.7777C29.7772 14.7777 29.906 3.92627 18.1291 3.92627C6.35217 3.92627 6.2207 13.2632 6.2207 15.5349Z" fill="#313D4C"/>
<path d="M14.5605 18.9961C14.5605 20.8959 16.0996 22.435 17.9994 22.435C19.8992 22.435 21.4383 20.8959 21.4383 18.9961H14.563H14.5605Z" fill="#D63D4A"/>
</svg>
