<svg width="24" height="24" viewBox="0 0 24 24" fill="none" xmlns="http://www.w3.org/2000/svg">
<path d="M12.0007 2.22485C6.10948 2.22485 1.33398 6.00016 1.33398 10.6574C1.33398 13.6889 3.35757 16.3452 6.39406 17.8317C6.17081 18.665 5.58617 20.8494 5.46902 21.3169C5.3248 21.8971 5.68177 21.8894 5.91552 21.733C6.09898 21.6109 8.83872 19.7486 10.0207 18.9446C10.6623 19.0396 11.3237 19.0899 12.0007 19.0899C17.8918 19.0899 22.6673 15.3141 22.6673 10.6574C22.6673 6.00071 17.8918 2.22485 12.0007 2.22485Z" fill="#391B1B"/>
<path d="M7.70748 8.17407H4.5881C4.29468 8.17407 4.05762 8.41169 4.05762 8.70456C4.05762 8.99743 4.29523 9.23505 4.5881 9.23505H5.60211V12.9717C5.60211 13.1076 5.65737 13.2413 5.75462 13.338C5.84967 13.4342 5.98284 13.4894 6.11933 13.4894H6.23262C6.36855 13.4894 6.50118 13.4342 6.59677 13.338C6.69403 13.2413 6.74929 13.1082 6.74929 12.9717V9.23505H7.70693C8.00036 9.23505 8.23797 8.99743 8.23797 8.70456C8.23797 8.41169 8.00036 8.17407 7.70693 8.17407H7.70748Z" fill="#FAE100"/>
<path d="M15.2036 12.4916H13.753V8.67541C13.753 8.35712 13.4955 8.09961 13.1778 8.09961C12.86 8.09961 12.6025 8.35712 12.6025 8.67541V12.7889C12.6025 12.8209 12.6064 12.8508 12.6114 12.8812C12.6059 12.911 12.6025 12.942 12.6025 12.9729C12.6025 13.2393 12.8175 13.4548 13.0838 13.4548H15.2036C15.4705 13.4548 15.6849 13.2393 15.6849 12.9729C15.6849 12.7066 15.4699 12.4916 15.2036 12.4916Z" fill="#FAE100"/>
<path d="M19.8395 12.6668L18.2232 10.5437L19.6836 9.08267C19.8815 8.88539 19.8815 8.56434 19.6836 8.36651C19.4858 8.16868 19.1653 8.16868 18.9669 8.36651L17.1589 10.1746V8.67541C17.1589 8.35712 16.9014 8.09961 16.5836 8.09961C16.2659 8.09961 16.0078 8.35712 16.0078 8.67541V12.9154C16.0078 13.2337 16.2653 13.4912 16.5836 13.4912C16.9019 13.4912 17.1589 13.2343 17.1589 12.9154V11.6075L17.4877 11.2792L19.0167 13.2857C19.1869 13.5128 19.5101 13.5598 19.7372 13.3879C19.9644 13.2172 20.0102 12.8944 19.8395 12.6668Z" fill="#FAE100"/>
<path d="M12.1713 12.8042L10.6169 8.55145C10.6169 8.55145 10.613 8.54813 10.6119 8.54648C10.5125 8.28731 10.2257 8.09888 9.88362 8.09888C9.50399 8.09888 9.19012 8.33097 9.12767 8.63434C9.11717 8.65699 9.10667 8.67965 9.09783 8.70396L7.56937 12.8042C7.47487 13.0733 7.61634 13.3673 7.88434 13.4618C8.1529 13.5563 8.44743 13.4148 8.54193 13.1462L8.80662 12.3914H10.9341L11.1982 13.1462C11.2927 13.4148 11.5873 13.5563 11.8558 13.4618C12.1244 13.3673 12.2658 13.0733 12.1713 12.8042ZM9.14425 11.4277L9.8593 9.38752C9.86759 9.38752 9.87422 9.38973 9.88251 9.38973L10.597 11.4277H9.1448H9.14425Z" fill="#FAE100"/>
</svg>
