<svg width="24" height="24" viewBox="0 0 24 24" fill="none" xmlns="http://www.w3.org/2000/svg">
<path d="M18.1113 5.88892L5.88911 5.88892" stroke="#FFC7A9" stroke-width="1.5" stroke-linecap="round"/>
<path d="M18.1113 18.1111L5.88911 18.1111" stroke="#FFC7A9" stroke-width="1.5" stroke-linecap="round"/>
<path d="M18.1113 9.38892C20.0443 9.38892 21.6113 7.82191 21.6113 5.88892C21.6113 3.95592 20.0443 2.38892 18.1113 2.38892C16.1783 2.38892 14.6113 3.95592 14.6113 5.88892C14.6113 7.82191 16.1783 9.38892 18.1113 9.38892Z" fill="#FF6A2F"/>
<path d="M5.88867 9.38892C7.82167 9.38892 9.38867 7.82191 9.38867 5.88892C9.38867 3.95592 7.82167 2.38892 5.88867 2.38892C3.95568 2.38892 2.38867 3.95592 2.38867 5.88892C2.38867 7.82191 3.95568 9.38892 5.88867 9.38892Z" fill="#FFC7A9"/>
<path d="M18.1113 21.6111C20.0443 21.6111 21.6113 20.0441 21.6113 18.1111C21.6113 16.1781 20.0443 14.6111 18.1113 14.6111C16.1783 14.6111 14.6113 16.1781 14.6113 18.1111C14.6113 20.0441 16.1783 21.6111 18.1113 21.6111Z" fill="#FFC7A9"/>
<path d="M6.10742 21.3975C8.04042 21.3975 9.60742 19.8305 9.60742 17.8975C9.60742 15.9645 8.04042 14.3975 6.10742 14.3975C4.17443 14.3975 2.60742 15.9645 2.60742 17.8975C2.60742 19.8305 4.17443 21.3975 6.10742 21.3975Z" fill="#FF6A2F"/>
<path d="M5.88867 17.5556L18.1109 5.88892" stroke="#FF6A2F" stroke-width="1.5" stroke-linecap="round" stroke-linejoin="round"/>
</svg>
