<svg width="24" height="24" viewBox="0 0 24 24" fill="none" xmlns="http://www.w3.org/2000/svg">
<g style="mix-blend-mode:multiply">
<path d="M4 12C4 7.58172 7.58172 4 12 4C16.4183 4 20 7.58172 20 12C20 16.4183 16.4183 20 12 20C7.58172 20 4 16.4183 4 12Z" fill="#FA967C"/>
<path fill-rule="evenodd" clip-rule="evenodd" d="M8.49727 13.2C8.93909 13.2 9.29727 13.5581 9.29727 14C9.29727 14.3671 9.50305 14.7727 9.98601 15.1177C10.4679 15.4619 11.1758 15.7 11.9973 15.7C12.8187 15.7 13.5266 15.4619 14.0085 15.1177C14.4915 14.7727 14.6973 14.3671 14.6973 14C14.6973 13.5581 15.0554 13.2 15.4973 13.2C15.9391 13.2 16.2973 13.5581 16.2973 14C16.2973 15.0161 15.7214 15.8605 14.9385 16.4197C14.1546 16.9796 13.1125 17.3 11.9973 17.3C10.8821 17.3 9.83995 16.9796 9.05603 16.4197C8.27315 15.8605 7.69727 15.0161 7.69727 14C7.69727 13.5581 8.05544 13.2 8.49727 13.2Z" fill="#D63D4A"/>
<path fill-rule="evenodd" clip-rule="evenodd" d="M6.77685 3.6C5.01919 3.6 3.6 5.01919 3.6 6.77685V8.35426C3.6 8.79609 3.24183 9.15426 2.8 9.15426C2.35817 9.15426 2 8.79609 2 8.35426V6.77685C2 4.13554 4.13554 2 6.77685 2H8.35426C8.79609 2 9.15426 2.35817 9.15426 2.8C9.15426 3.24183 8.79609 3.6 8.35426 3.6H6.77685Z" fill="#D63D4A"/>
<path fill-rule="evenodd" clip-rule="evenodd" d="M14.9004 2.8C14.9004 2.35817 15.2586 2 15.7004 2H17.2778C19.9191 2 22.0547 4.13554 22.0547 6.77685V8.35426C22.0547 8.79609 21.6965 9.15426 21.2547 9.15426C20.8128 9.15426 20.4547 8.79609 20.4547 8.35426V6.77685C20.4547 5.01919 19.0355 3.6 17.2778 3.6H15.7004C15.2586 3.6 14.9004 3.24183 14.9004 2.8Z" fill="#D63D4A"/>
<path fill-rule="evenodd" clip-rule="evenodd" d="M21.2547 14.8999C21.6965 14.8999 22.0547 15.2581 22.0547 15.6999V17.2773C22.0547 19.9186 19.9191 22.0542 17.2778 22.0542H15.7004C15.2586 22.0542 14.9004 21.696 14.9004 21.2542C14.9004 20.8123 15.2586 20.4542 15.7004 20.4542H17.2778C19.0355 20.4542 20.4547 19.035 20.4547 17.2773V15.6999C20.4547 15.2581 20.8128 14.8999 21.2547 14.8999Z" fill="#D63D4A"/>
<path fill-rule="evenodd" clip-rule="evenodd" d="M2.8 14.8999C3.24183 14.8999 3.6 15.2581 3.6 15.6999V17.2773C3.6 19.035 5.01919 20.4542 6.77685 20.4542H8.35426C8.79609 20.4542 9.15426 20.8123 9.15426 21.2542C9.15426 21.696 8.79609 22.0542 8.35426 22.0542H6.77685C4.13554 22.0542 2 19.9186 2 17.2773V15.6999C2 15.2581 2.35817 14.8999 2.8 14.8999Z" fill="#D63D4A"/>
</g>
</svg>
