<svg width="24" height="24" viewBox="0 0 24 24" fill="none" xmlns="http://www.w3.org/2000/svg">
<g style="mix-blend-mode:multiply">
<g style="mix-blend-mode:multiply">
<path d="M17 4C18.6569 4 20 5.41384 20 7.15789V15.8421C20 17.5862 18.6569 19 17 19H5C3.34315 19 2 17.5862 2 15.8421L2 7.15789C2 5.41384 3.34315 4 5 4L17 4Z" fill="#D63D4A"/>
</g>
<path d="M4.25 7.9C5.07843 7.9 5.75 7.18366 5.75 6.3C5.75 5.85817 6.08579 5.5 6.5 5.5H15.5C15.9142 5.5 16.25 5.85817 16.25 6.3C16.25 7.18366 16.9216 7.9 17.75 7.9C18.1642 7.9 18.5 8.25817 18.5 8.7V14.3C18.5 14.7418 18.1642 15.1 17.75 15.1C16.9216 15.1 16.25 15.8163 16.25 16.7C16.25 17.1418 15.9142 17.5 15.5 17.5H6.5C6.08579 17.5 5.75 17.1418 5.75 16.7C5.75 15.8163 5.07843 15.1 4.25 15.1C3.83579 15.1 3.5 14.7418 3.5 14.3V8.7C3.5 8.25817 3.83579 7.9 4.25 7.9Z" fill="#FA967C"/>
<path fill-rule="evenodd" clip-rule="evenodd" d="M9.09961 9.69995C9.09961 9.42381 9.32347 9.19995 9.59961 9.19995H12.5996C12.8758 9.19995 13.0996 9.42381 13.0996 9.69995C13.0996 9.97609 12.8758 10.2 12.5996 10.2H9.59961C9.32347 10.2 9.09961 9.97609 9.09961 9.69995Z" fill="white"/>
<path fill-rule="evenodd" clip-rule="evenodd" d="M8.09961 12.7C8.09961 12.4238 8.32347 12.2 8.59961 12.2H13.5996C13.8758 12.2 14.0996 12.4238 14.0996 12.7C14.0996 12.9761 13.8758 13.2 13.5996 13.2H8.59961C8.32347 13.2 8.09961 12.9761 8.09961 12.7Z" fill="white"/>
<path d="M14 18.3369C14 20.6084 17.0059 22.2821 18.1331 22.2821C19.2604 22.2821 22.2663 20.6084 22.2663 18.3369C22.2663 17.1412 22.2663 16.0591 22.2663 15.3023C22.2663 14.6477 21.8427 14.0689 21.219 13.8705L18.8167 13.1061C18.372 12.9646 17.8943 12.9646 17.4496 13.1061L15.0473 13.8705C14.4236 14.0689 14 14.6477 14 15.3023C14 16.0591 14 17.1412 14 18.3369Z" fill="#D63D4A"/>
<path fill-rule="evenodd" clip-rule="evenodd" d="M20.062 16.1402C20.2489 16.3271 20.2489 16.6301 20.062 16.817L18.3216 18.5574C18.1346 18.7443 17.8316 18.7443 17.6447 18.5574L16.3394 17.2521C16.1525 17.0652 16.1525 16.7622 16.3394 16.5753C16.5263 16.3884 16.8293 16.3884 17.0163 16.5753L17.9831 17.5422L19.3851 16.1402C19.572 15.9533 19.875 15.9533 20.062 16.1402Z" fill="white"/>
</g>
</svg>
