<svg width="36" height="36" viewBox="0 0 36 36" fill="none" xmlns="http://www.w3.org/2000/svg">
<rect width="36" height="36" rx="12" fill="#F4F5F6"/>
<path d="M23.5 9.16065C25.3225 9.16065 26.8 10.7159 26.8 12.6343V22.187C26.8 24.1054 25.3225 25.6606 23.5 25.6606H10.3C8.47746 25.6606 7 24.1054 7 22.187L7 12.6343C7 10.7159 8.47746 9.16064 10.3 9.16064L23.5 9.16065Z" fill="#FFC7A9"/>
<path opacity="0.6" d="M9.4749 13.4508C10.3862 13.4508 11.1249 12.6628 11.1249 11.6908C11.1249 11.2048 11.4943 10.8108 11.9499 10.8108H21.8499C22.3055 10.8108 22.6749 11.2048 22.6749 11.6908C22.6749 12.6628 23.4136 13.4508 24.3249 13.4508C24.7805 13.4508 25.1499 13.8448 25.1499 14.3308V20.4908C25.1499 20.9768 24.7805 21.3708 24.3249 21.3708C23.4136 21.3708 22.6749 22.1588 22.6749 23.1308C22.6749 23.6168 22.3055 24.0108 21.8499 24.0108H11.9499C11.4943 24.0108 11.1249 23.6168 11.1249 23.1308C11.1249 22.1588 10.3862 21.3708 9.4749 21.3708C9.01927 21.3708 8.6499 20.9768 8.6499 20.4908V14.3308C8.6499 13.8448 9.01927 13.4508 9.4749 13.4508Z" fill="#FFEDE3"/>
<path d="M15.3608 15.4307H18.6608" stroke="#FF6A2F" stroke-width="1.5" stroke-linecap="round"/>
<path d="M14.2607 18.7307H19.7607" stroke="#FF6A2F" stroke-width="1.5" stroke-linecap="round"/>
<path d="M20.8286 23.4891V19.3109C20.8286 18.8637 21.2071 18.5021 21.6739 18.5021H22.216C22.69 18.5021 23.1585 18.4046 23.5897 18.2162C24.4311 17.8485 25.3976 17.8485 26.2389 18.2162C26.6702 18.4046 27.1386 18.5021 27.6126 18.5021H28.1547C28.6216 18.5021 29 18.8637 29 19.3109V23.4891C29 26.0434 26.2389 27.6246 24.9143 27.6246C23.5897 27.6246 20.8286 26.0434 20.8286 23.4891Z" fill="#FF6A2F"/>
<path d="M23.3037 22.7142L24.047 23.7052C24.2704 24.0031 24.7121 24.0175 24.9545 23.7348L26.8394 21.5356" stroke="#FFC7A9" stroke-width="1.2" stroke-linecap="round"/>
</svg>
