<svg width="21" height="19" viewBox="0 0 21 19" fill="none" xmlns="http://www.w3.org/2000/svg">
<g style="mix-blend-mode:multiply">
<path d="M15 5.52144e-07C16.6569 6.28379e-07 18 1.41384 18 3.15789V11.8421C18 13.5862 16.6569 15 15 15H3C1.34315 15 -7.24234e-08 13.5862 0 11.8421L3.60619e-07 3.15789C4.33042e-07 1.41384 1.34315 -7.62351e-08 3 0L15 5.52144e-07Z" fill="#D63D4A"/>
</g>
<path d="M2.25 3.9C3.07843 3.9 3.75 3.18366 3.75 2.3C3.75 1.85817 4.08579 1.5 4.5 1.5H13.5C13.9142 1.5 14.25 1.85817 14.25 2.3C14.25 3.18366 14.9216 3.9 15.75 3.9C16.1642 3.9 16.5 4.25817 16.5 4.7V10.3C16.5 10.7418 16.1642 11.1 15.75 11.1C14.9216 11.1 14.25 11.8163 14.25 12.7C14.25 13.1418 13.9142 13.5 13.5 13.5H4.5C4.08579 13.5 3.75 13.1418 3.75 12.7C3.75 11.8163 3.07843 11.1 2.25 11.1C1.83579 11.1 1.5 10.7418 1.5 10.3V4.7C1.5 4.25817 1.83579 3.9 2.25 3.9Z" fill="#FA967C"/>
<path fill-rule="evenodd" clip-rule="evenodd" d="M7.09961 5.69995C7.09961 5.42381 7.32347 5.19995 7.59961 5.19995H10.5996C10.8758 5.19995 11.0996 5.42381 11.0996 5.69995C11.0996 5.97609 10.8758 6.19995 10.5996 6.19995H7.59961C7.32347 6.19995 7.09961 5.97609 7.09961 5.69995Z" fill="white"/>
<path fill-rule="evenodd" clip-rule="evenodd" d="M6.09961 8.69995C6.09961 8.42381 6.32347 8.19995 6.59961 8.19995H11.5996C11.8758 8.19995 12.0996 8.42381 12.0996 8.69995C12.0996 8.97609 11.8758 9.19995 11.5996 9.19995H6.59961C6.32347 9.19995 6.09961 8.97609 6.09961 8.69995Z" fill="white"/>
<path d="M12 14.3369C12 16.6084 15.0059 18.2821 16.1331 18.2821C17.2604 18.2821 20.2663 16.6084 20.2663 14.3369C20.2663 13.1412 20.2663 12.0591 20.2663 11.3023C20.2663 10.6477 19.8427 10.0689 19.219 9.87049L16.8167 9.10612C16.372 8.96463 15.8943 8.96463 15.4496 9.10612L13.0473 9.87049C12.4236 10.0689 12 10.6477 12 11.3023C12 12.0591 12 13.1412 12 14.3369Z" fill="#D63D4A"/>
<path fill-rule="evenodd" clip-rule="evenodd" d="M18.062 12.1402C18.2489 12.3271 18.2489 12.6301 18.062 12.817L16.3216 14.5574C16.1346 14.7443 15.8316 14.7443 15.6447 14.5574L14.3394 13.2521C14.1525 13.0652 14.1525 12.7622 14.3394 12.5753C14.5263 12.3884 14.8293 12.3884 15.0163 12.5753L15.9831 13.5422L17.3851 12.1402C17.572 11.9533 17.875 11.9533 18.062 12.1402Z" fill="white"/>
</svg>
