<svg width="24" height="24" viewBox="0 0 24 24" fill="none" xmlns="http://www.w3.org/2000/svg">
<g style="mix-blend-mode:multiply">
<path d="M18.6667 4.7273C20.5076 4.7273 22 6.09829 22 7.7895V16.2106C22 17.9018 20.5076 19.2727 18.6667 19.2727H5.33333C3.49238 19.2727 2 17.9018 2 16.2105L2 7.7895C2 6.09829 3.49238 4.72729 5.33333 4.72729L18.6667 4.7273Z" fill="#FA967C"/>
<g style="mix-blend-mode:multiply">
<path d="M15.3809 12.4546L16.574 16.4319H18.9604L17.7672 12.4546L15.3809 12.4546Z" fill="#D63D4A"/>
</g>
<g style="mix-blend-mode:multiply">
<path d="M16.5737 12.4546L15.3805 16.4319H12.9941L14.1873 12.4546L16.5737 12.4546Z" fill="#D63D4A"/>
</g>
<g style="mix-blend-mode:multiply">
<path d="M19.1586 10.8637C19.1586 12.621 17.734 14.0455 15.9767 14.0455C14.2195 14.0455 12.7949 12.621 12.7949 10.8637C12.7949 9.10643 14.2195 7.68188 15.9767 7.68188C17.734 7.68188 19.1586 9.10643 19.1586 10.8637Z" fill="#D63D4A"/>
</g>
<path d="M17.5685 10.8636C17.5685 11.7422 16.8563 12.4545 15.9776 12.4545C15.099 12.4545 14.3867 11.7422 14.3867 10.8636C14.3867 9.98498 15.099 9.27271 15.9776 9.27271C16.8563 9.27271 17.5685 9.98498 17.5685 10.8636Z" fill="#FA967C"/>
<path d="M5.63672 10.6365H8.36399" stroke="#D63D4A" stroke-width="1.6" stroke-linecap="round" stroke-linejoin="round"/>
<path d="M5.63672 13.3638H10.1822" stroke="#D63D4A" stroke-width="1.6" stroke-linecap="round" stroke-linejoin="round"/>
<path d="M18.6667 4.7273C20.5076 4.7273 22 6.09829 22 7.7895V16.2106C22 17.9018 20.5076 19.2727 18.6667 19.2727H5.33333C3.49238 19.2727 2 17.9018 2 16.2105L2 7.7895C2 6.09829 3.49238 4.72729 5.33333 4.72729L18.6667 4.7273Z" fill="#FA967C"/>
<g style="mix-blend-mode:multiply">
<path d="M15.3809 12.4546L16.574 16.4319H18.9604L17.7672 12.4546L15.3809 12.4546Z" fill="#D63D4A"/>
</g>
<g style="mix-blend-mode:multiply">
<path d="M16.5737 12.4546L15.3805 16.4319H12.9941L14.1873 12.4546L16.5737 12.4546Z" fill="#D63D4A"/>
</g>
<g style="mix-blend-mode:multiply">
<path d="M19.1586 10.8637C19.1586 12.621 17.734 14.0455 15.9767 14.0455C14.2195 14.0455 12.7949 12.621 12.7949 10.8637C12.7949 9.10643 14.2195 7.68188 15.9767 7.68188C17.734 7.68188 19.1586 9.10643 19.1586 10.8637Z" fill="#D63D4A"/>
</g>
<path d="M17.5685 10.8636C17.5685 11.7422 16.8563 12.4545 15.9776 12.4545C15.099 12.4545 14.3867 11.7422 14.3867 10.8636C14.3867 9.98498 15.099 9.27271 15.9776 9.27271C16.8563 9.27271 17.5685 9.98498 17.5685 10.8636Z" fill="#FA967C"/>
<path fill-rule="evenodd" clip-rule="evenodd" d="M4.83594 10.6364C4.83594 10.1946 5.19411 9.83643 5.63594 9.83643H8.36321C8.80504 9.83643 9.16321 10.1946 9.16321 10.6364C9.16321 11.0783 8.80504 11.4364 8.36321 11.4364H5.63594C5.19411 11.4364 4.83594 11.0783 4.83594 10.6364Z" fill="#D63D4A"/>
<path fill-rule="evenodd" clip-rule="evenodd" d="M4.83594 13.3637C4.83594 12.9219 5.19411 12.5637 5.63594 12.5637H10.1814C10.6232 12.5637 10.9814 12.9219 10.9814 13.3637C10.9814 13.8055 10.6232 14.1637 10.1814 14.1637H5.63594C5.19411 14.1637 4.83594 13.8055 4.83594 13.3637Z" fill="#D63D4A"/>
</g>
</svg>
