<svg width="24" height="24" viewBox="0 0 24 24" fill="none" xmlns="http://www.w3.org/2000/svg">
<path d="M17.5 3.16065C19.3225 3.16065 20.8 4.71587 20.8 6.63433V16.187C20.8 18.1054 19.3225 19.6606 17.5 19.6606H4.3C2.47746 19.6606 1 18.1054 1 16.187L1 6.63433C1 4.71587 2.47746 3.16064 4.3 3.16064L17.5 3.16065Z" fill="#FFC7A9"/>
<path opacity="0.6" d="M3.4749 7.45079C4.38617 7.45079 5.1249 6.66281 5.1249 5.69079C5.1249 5.20478 5.49427 4.81079 5.9499 4.81079H15.8499C16.3055 4.81079 16.6749 5.20478 16.6749 5.69079C16.6749 6.66281 17.4136 7.45079 18.3249 7.45079C18.7805 7.45079 19.1499 7.84478 19.1499 8.33079V14.4908C19.1499 14.9768 18.7805 15.3708 18.3249 15.3708C17.4136 15.3708 16.6749 16.1588 16.6749 17.1308C16.6749 17.6168 16.3055 18.0108 15.8499 18.0108H5.9499C5.49427 18.0108 5.1249 17.6168 5.1249 17.1308C5.1249 16.1588 4.38617 15.3708 3.4749 15.3708C3.01927 15.3708 2.6499 14.9768 2.6499 14.4908V8.33079C2.6499 7.84478 3.01927 7.45079 3.4749 7.45079Z" fill="#FFEDE3"/>
<path d="M9.36084 9.43066H12.6608" stroke="#FF6A2F" stroke-width="1.5" stroke-linecap="round"/>
<path d="M8.26074 12.7307H13.7607" stroke="#FF6A2F" stroke-width="1.5" stroke-linecap="round"/>
<path d="M14.8286 17.4891V13.3109C14.8286 12.8637 15.2071 12.5021 15.6739 12.5021H16.216C16.69 12.5021 17.1585 12.4046 17.5897 12.2162C18.4311 11.8485 19.3976 11.8485 20.2389 12.2162C20.6702 12.4046 21.1386 12.5021 21.6126 12.5021H22.1547C22.6216 12.5021 23 12.8637 23 13.3109V17.4891C23 20.0434 20.2389 21.6246 18.9143 21.6246C17.5897 21.6246 14.8286 20.0434 14.8286 17.4891Z" fill="#FF6A2F"/>
<path d="M17.3037 16.7142L18.047 17.7052C18.2704 18.0031 18.7121 18.0175 18.9545 17.7348L20.8394 15.5356" stroke="#FFC7A9" stroke-width="1.2" stroke-linecap="round"/>
</svg>
