<svg width="32" height="32" viewBox="0 0 32 32" fill="none" xmlns="http://www.w3.org/2000/svg">
<path fill-rule="evenodd" clip-rule="evenodd" d="M10.9333 15.6587C9.25363 15.6587 7.64272 16.326 6.45499 17.5137C5.26726 18.7014 4.6 20.3123 4.6 21.992C4.6 22.9998 5.00035 23.9664 5.71299 24.679C6.42563 25.3917 7.39218 25.792 8.4 25.792H23.6C24.6078 25.792 25.5744 25.3917 26.287 24.679C26.9996 23.9664 27.4 22.9998 27.4 21.992C27.4 20.3123 26.7327 18.7014 25.545 17.5137C24.3573 16.326 22.7464 15.6587 21.0667 15.6587H10.9333Z" fill="#FA967C"/>
<path d="M11.7574 7.23246C10.6322 8.35768 10 9.8838 10 11.4751C10 13.0664 10.6322 14.5925 11.7574 15.7177C12.8826 16.843 14.4087 17.4751 16 17.4751C17.5913 17.4751 19.1175 16.843 20.2427 15.7177C21.3679 14.5925 22 13.0664 22 11.4751C22 9.8838 21.3679 8.35768 20.2427 7.23246C19.1175 6.10724 17.5913 5.4751 16 5.4751C14.4087 5.4751 12.8826 6.10724 11.7574 7.23246Z" fill="#FA967C"/>
<path d="M11.7574 7.23246C10.6322 8.35768 10 9.8838 10 11.4751C10 13.0664 10.6322 14.5925 11.7574 15.7177C12.8826 16.843 14.4087 17.4751 16 17.4751C17.5913 17.4751 19.1175 16.843 20.2427 15.7177C21.3679 14.5925 22 13.0664 22 11.4751C22 9.8838 21.3679 8.35768 20.2427 7.23246C19.1175 6.10724 17.5913 5.4751 16 5.4751C14.4087 5.4751 12.8826 6.10724 11.7574 7.23246Z" fill="#D63D4A"/>
<g style="mix-blend-mode:multiply">
<ellipse cx="24" cy="19.9998" rx="5.33333" ry="5.33333" fill="#D63D4A"/>
</g>
<path fill-rule="evenodd" clip-rule="evenodd" d="M21.5734 19.9999C21.5734 19.6907 21.8241 19.4399 22.1334 19.4399H25.8667C26.176 19.4399 26.4267 19.6907 26.4267 19.9999C26.4267 20.3092 26.176 20.5599 25.8667 20.5599H22.1334C21.8241 20.5599 21.5734 20.3092 21.5734 19.9999Z" fill="white"/>
<path fill-rule="evenodd" clip-rule="evenodd" d="M24 17.5732C24.3093 17.5732 24.56 17.824 24.56 18.1332L24.56 21.8666C24.56 22.1759 24.3093 22.4266 24 22.4266C23.6907 22.4266 23.44 22.1759 23.44 21.8666L23.44 18.1332C23.44 17.824 23.6907 17.5732 24 17.5732Z" fill="white"/>
</svg>
