<svg width="40" height="40" viewBox="0 0 40 40" fill="none" xmlns="http://www.w3.org/2000/svg">
<ellipse cx="19.713" cy="31.0932" rx="18.963" ry="3.55556" fill="#FDCFC3"/>
<path d="M9.22314 6.77344C10.812 6.16121 14.9491 8.30606 15.7495 9.77539C12.9117 12.3668 7.53522 17.4463 8.19482 14.4971C9.01924 10.8105 7.63449 7.38592 9.22314 6.77344ZM24.1802 9.77539C24.9806 8.306 29.1188 6.16095 30.7075 6.77344C32.296 7.38607 30.9114 10.8105 31.7358 14.4971C32.3955 17.4464 27.0179 12.3667 24.1802 9.77539Z" fill="#D63D4A"/>
<path d="M20 8.3584C29.6129 8.3584 34.1668 15.3359 34.167 22.6816C34.167 26.7105 32.0903 29.3962 29.0166 31.0009C27.5672 31.7577 25.8662 31.6575 24.2551 31.3785C22.9361 31.1502 21.5011 31.0244 20 31.0244C18.4988 31.0244 17.0636 31.1501 15.7444 31.3784C14.133 31.6573 12.4316 31.7576 10.982 31.0005C7.90909 29.3956 5.83301 26.7099 5.83301 22.6816C5.83317 15.3359 10.3871 8.3584 20 8.3584Z" fill="#FA967C"/>
<path d="M19.9995 21.5806C21.0427 21.5806 21.8882 22.1092 21.8882 22.7612C21.888 23.4132 21.0426 23.9419 19.9995 23.9419C18.9565 23.9418 18.111 23.4131 18.1108 22.7612C18.1108 22.1093 18.9564 21.5806 19.9995 21.5806ZM15.395 18.2075C16.1152 18.2075 16.6995 18.7911 16.6997 19.5112C16.6997 20.2315 16.1153 20.8159 15.395 20.8159C14.6748 20.8158 14.0913 20.2314 14.0913 19.5112C14.0915 18.7912 14.675 18.2077 15.395 18.2075ZM24.5249 18.2075C25.2451 18.2075 25.8294 18.7911 25.8296 19.5112C25.8296 20.2315 25.2452 20.8159 24.5249 20.8159C23.8046 20.8159 23.2212 20.2315 23.2212 19.5112C23.2214 18.7911 23.8047 18.2075 24.5249 18.2075Z" fill="#D63D4A"/>
<ellipse cx="28.9724" cy="23.2333" rx="2.36111" ry="1.65278" fill="white"/>
<ellipse cx="11.0276" cy="23.2333" rx="2.36111" ry="1.65278" fill="white"/>
<path fill-rule="evenodd" clip-rule="evenodd" d="M20 22.9971C20.2608 22.9971 20.4722 23.2085 20.4722 23.4693C20.4722 24.6577 19.6555 25.4305 18.7174 25.7082C17.7922 25.982 16.6613 25.8084 15.8906 25.0479C15.7049 24.8647 15.7029 24.5658 15.8861 24.3801C16.0693 24.1945 16.3682 24.1925 16.5539 24.3756C17.0424 24.8576 17.8003 24.9946 18.4493 24.8026C19.0852 24.6143 19.5278 24.1446 19.5278 23.4693C19.5278 23.2085 19.7392 22.9971 20 22.9971Z" fill="#D63D4A"/>
<path fill-rule="evenodd" clip-rule="evenodd" d="M20 22.9971C19.7392 22.9971 19.5278 23.2085 19.5278 23.4693C19.5278 24.6577 20.3445 25.4305 21.2826 25.7082C22.2078 25.982 23.3387 25.8084 24.1094 25.0479C24.2951 24.8647 24.2971 24.5658 24.1139 24.3801C23.9307 24.1945 23.6318 24.1925 23.4461 24.3756C22.9576 24.8576 22.1997 24.9946 21.5507 24.8026C20.9148 24.6143 20.4722 24.1446 20.4722 23.4693C20.4722 23.2085 20.2608 22.9971 20 22.9971Z" fill="#D63D4A"/>
</svg>
