<svg width="32" height="32" viewBox="0 0 32 32" fill="none" xmlns="http://www.w3.org/2000/svg">
<path d="M6.66667 6C6.66667 4.89543 7.5621 4 8.66667 4H23.3333C24.4379 4 25.3333 4.89543 25.3333 6V26C25.3333 27.1046 24.4379 28 23.3333 28H8.66667C7.5621 28 6.66667 27.1046 6.66667 26V6Z" fill="#FA967C"/>
<path fill-rule="evenodd" clip-rule="evenodd" d="M9.59995 9.06667C9.59995 8.47756 10.0775 8 10.6666 8H17.3333C17.9224 8 18.3999 8.47756 18.3999 9.06667C18.3999 9.65577 17.9224 10.1333 17.3333 10.1333H10.6666C10.0775 10.1333 9.59995 9.65577 9.59995 9.06667ZM9.59995 13.5999C9.59995 13.0108 10.0775 12.5332 10.6666 12.5332H19.9999C20.589 12.5332 21.0666 13.0108 21.0666 13.5999C21.0666 14.189 20.589 14.6665 19.9999 14.6665H10.6666C10.0775 14.6665 9.59995 14.189 9.59995 13.5999Z" fill="#D63D4A"/>
<g style="mix-blend-mode:multiply">
<path fill-rule="evenodd" clip-rule="evenodd" d="M18.7125 21.3788C19.129 20.9623 19.8044 20.9623 20.221 21.3788L22.8877 24.0455C23.3042 24.4621 23.3042 25.1374 22.8877 25.554C22.4711 25.9705 21.7957 25.9705 21.3792 25.554L18.7125 22.8873C18.2959 22.4708 18.2959 21.7954 18.7125 21.3788Z" fill="#D63D4A"/>
</g>
<g style="mix-blend-mode:multiply">
<path d="M22 20.667C22 22.8761 20.2091 24.667 18 24.667C15.7909 24.667 14 22.8761 14 20.667C14 18.4579 15.7909 16.667 18 16.667C20.2091 16.667 22 18.4579 22 20.667Z" fill="#D63D4A"/>
</g>
</svg>
