<svg width="32" height="32" viewBox="0 0 32 32" fill="none" xmlns="http://www.w3.org/2000/svg">
<path d="M18.0826 24.4541C18.4858 24.4953 18.8004 24.836 18.8004 25.25C18.8004 25.664 18.4858 26.0047 18.0826 26.0459L18.0006 26.0498H14.0006C13.5588 26.0498 13.2008 25.6918 13.2008 25.25C13.2008 24.8082 13.5588 24.4502 14.0006 24.4502H18.0006L18.0826 24.4541Z" fill="#33363D"/>
<path fill-rule="evenodd" clip-rule="evenodd" d="M15.9996 5.94922C17.9294 5.94922 19.7805 6.7157 21.1451 8.08008C22.5097 9.44468 23.2769 11.2958 23.277 13.2256V17.3896L23.2819 17.5439C23.3072 17.9022 23.4206 18.2499 23.6119 18.5557L24.6998 20.2959L24.7604 20.4004C24.8925 20.6472 24.9659 20.9222 24.9733 21.2031C24.9816 21.5242 24.9034 21.8421 24.7477 22.123C24.592 22.4037 24.3641 22.6378 24.0875 22.8008C23.8453 22.9434 23.573 23.0273 23.2936 23.0459L23.1735 23.0498H8.8258C8.50464 23.0497 8.18846 22.9638 7.91174 22.8008C7.63535 22.6378 7.4072 22.4037 7.25158 22.123C7.09595 21.8422 7.01763 21.5241 7.026 21.2031C7.03443 20.882 7.12921 20.5683 7.29943 20.2959L8.38732 18.5557L8.46545 18.4219C8.61014 18.1499 8.69576 17.8503 8.7174 17.543L8.72326 17.3877V13.2256C8.72338 11.2959 9.48965 9.44466 10.8541 8.08008C12.2187 6.7156 14.0699 5.94938 15.9996 5.94922ZM15.9996 7.54883C14.4943 7.54899 13.0504 8.14749 11.986 9.21191C10.9215 10.2764 10.323 11.7202 10.3229 13.2256V17.3877L10.3131 17.6543C10.2758 18.1857 10.1278 18.7036 9.87756 19.1738L9.74377 19.4043L8.65588 21.1445C8.63723 21.1746 8.62654 21.2097 8.62561 21.2451C8.62474 21.2805 8.63388 21.3156 8.651 21.3467C8.6682 21.3777 8.69373 21.4038 8.72424 21.4219C8.75488 21.4399 8.79025 21.4501 8.8258 21.4502H23.1735L23.2262 21.4434C23.2432 21.4387 23.2596 21.4309 23.275 21.4219C23.3057 21.4038 23.331 21.3778 23.3483 21.3467C23.3655 21.3156 23.3745 21.2807 23.3737 21.2451C23.3727 21.2096 23.3622 21.1747 23.3434 21.1445L22.2555 19.4043C21.8778 18.8006 21.6768 18.1027 21.6764 17.3906V13.2256C21.6763 11.7202 21.0787 10.2764 20.0143 9.21191C18.9497 8.1474 17.5052 7.54883 15.9996 7.54883Z" fill="#33363D"/>
</svg>
