<svg width="32" height="32" viewBox="0 0 32 32" fill="none" xmlns="http://www.w3.org/2000/svg">
<rect x="6.66666" y="5.33301" width="18.6667" height="22.6667" rx="2.66667" fill="#FA967C"/>
<path d="M13.3333 22.667V18.667H18.6667V22.667L16 22.0003L13.3333 22.667Z" fill="#D63D4A"/>
<g style="mix-blend-mode:multiply">
<circle cx="16" cy="14.6663" r="5.33333" fill="#D63D4A"/>
</g>
<path d="M17.6367 12.9442C17.852 12.7432 18.1884 12.7549 18.3893 12.9702C18.5903 13.1856 18.5786 13.5219 18.3633 13.7228L15.5065 16.3895C15.3016 16.5807 14.9836 16.5807 14.7786 16.3895L13.6367 15.3231C13.4214 15.1221 13.4097 14.7845 13.6107 14.5692C13.8115 14.3545 14.1481 14.3429 14.3633 14.5431L15.1419 15.271L17.6367 12.9442Z" fill="white"/>
<g style="mix-blend-mode:multiply">
<rect x="12" y="4" width="8" height="2.66667" rx="1.33333" fill="#D63D4A"/>
</g>
</svg>
