<svg width="17" height="16" viewBox="0 0 17 16" fill="none" xmlns="http://www.w3.org/2000/svg">
<path fill-rule="evenodd" clip-rule="evenodd" d="M10.543 8.30404C11.4049 8.34605 12.2245 8.70161 12.8398 9.30729C13.4964 9.95358 13.8665 10.8323 13.8665 11.75L13.8639 11.8639C13.8353 12.4305 13.5939 12.9671 13.1869 13.3678C12.78 13.7683 12.2387 14.0028 11.6699 14.0306L11.5553 14.0332H4.44467C3.83447 14.0332 3.24718 13.795 2.81316 13.3678C2.40608 12.9671 2.16469 12.4305 2.13607 11.8639L2.13347 11.75C2.13351 10.8323 2.50361 9.95358 3.16016 9.30729C3.81644 8.66132 4.70504 8.30015 5.62956 8.30013H10.3704L10.543 8.30404ZM5.62956 9.36654C4.98261 9.36656 4.36385 9.61992 3.90886 10.0677C3.45416 10.5153 3.19992 11.1207 3.19987 11.75L3.20573 11.8691C3.23356 12.1456 3.35786 12.4072 3.5612 12.6074C3.79396 12.8365 4.11193 12.9668 4.44467 12.9668H11.5553L11.6797 12.9609C11.9665 12.9328 12.2352 12.8079 12.4388 12.6074C12.6711 12.3786 12.8001 12.0699 12.8001 11.75L12.7969 11.6322C12.7672 11.0456 12.5174 10.4873 12.0912 10.0677C11.6646 9.64795 11.0942 9.39928 10.4915 9.36979L10.3704 9.36654H5.62956Z" fill="#33363D"/>
<path d="M13.6999 4C13.9944 4 14.2331 4.23865 14.2331 4.5332V5.86654H15.5332L15.5879 5.86914C15.8567 5.89652 16.0663 6.12372 16.0664 6.39974C16.0664 6.67582 15.8567 6.90295 15.5879 6.93034L15.5332 6.93294H14.2331V8.13346L14.2305 8.1875C14.2033 8.45655 13.9761 8.66667 13.6999 8.66667C13.4237 8.66667 13.1965 8.45655 13.1693 8.1875L13.1667 8.13346V6.93294H11.8665C11.572 6.93294 11.3333 6.69429 11.3333 6.39974C11.3334 6.10526 11.572 5.86654 11.8665 5.86654H13.1667V4.5332C13.1667 4.23865 13.4053 4 13.6999 4Z" fill="#33363D"/>
<path fill-rule="evenodd" clip-rule="evenodd" d="M8.19206 1.4707C8.98288 1.50998 9.73367 1.84113 10.2962 2.40365C10.8963 3.00376 11.2331 3.81797 11.2331 4.66667L11.2292 4.82552C11.1899 5.61637 10.8588 6.36712 10.2962 6.92969C9.73367 7.49221 8.98288 7.82335 8.19206 7.86263L8.03321 7.86654C7.18457 7.86649 6.37027 7.52977 5.77019 6.92969C5.20767 6.36713 4.87652 5.61634 4.83724 4.82552L4.83334 4.66667C4.83334 3.81801 5.17012 3.00375 5.77019 2.40365C6.37027 1.80357 7.18457 1.46684 8.03321 1.4668L8.19206 1.4707ZM8.03321 2.5332C7.46747 2.53325 6.92478 2.75816 6.52474 3.1582C6.12472 3.55827 5.89974 4.10091 5.89974 4.66667L5.90235 4.77214C5.92843 5.2995 6.14964 5.79999 6.52474 6.17513C6.92478 6.57517 7.46747 6.80009 8.03321 6.80013L8.13868 6.79753C8.66604 6.77144 9.16653 6.55023 9.54167 6.17513C9.94175 5.77505 10.1667 5.23246 10.1667 4.66667L10.1641 4.5612C10.138 4.0338 9.91682 3.53335 9.54167 3.1582C9.16653 2.7831 8.66604 2.56189 8.13868 2.53581L8.03321 2.5332Z" fill="#33363D"/>
</svg>
