<svg width="32" height="32" viewBox="0 0 32 32" fill="none" xmlns="http://www.w3.org/2000/svg">
<path d="M8.00003 14.667C8.00003 10.2487 11.5818 6.66699 16 6.66699C20.4183 6.66699 24 10.2487 24 14.667V28.0003H8.00003V14.667Z" fill="#FA967C"/>
<g style="mix-blend-mode:multiply">
<path d="M21.3334 14.6663C21.3334 17.6119 18.9455 19.9997 16 19.9997C13.0545 19.9997 10.6667 17.6119 10.6667 14.6663C10.6667 11.7208 13.0545 9.33301 16 9.33301C18.9455 9.33301 21.3334 11.7208 21.3334 14.6663Z" fill="#D63D4A"/>
</g>
<path d="M17.7778 14.1328L17.8854 14.1432C18.1284 14.193 18.3107 14.4081 18.3107 14.6658C18.3107 14.9235 18.1284 15.1386 17.8854 15.1884L17.7778 15.1988H14.2222C13.9276 15.1988 13.6892 14.9604 13.6892 14.6658C13.6892 14.3712 13.9276 14.1328 14.2222 14.1328H17.7778Z" fill="white"/>
<path d="M16.533 16.444L16.5225 16.5516C16.4728 16.7946 16.2577 16.977 16 16.977C15.7423 16.977 15.5272 16.7946 15.4774 16.5516L15.467 16.444L15.467 12.8885C15.467 12.5939 15.7054 12.3555 16 12.3555C16.2945 12.3555 16.533 12.5939 16.533 12.8885L16.533 16.444Z" fill="white"/>
<g style="mix-blend-mode:multiply">
<path d="M5.33334 26C5.33334 24.8954 6.22877 24 7.33334 24H24.6667C25.7712 24 26.6667 24.8954 26.6667 26C26.6667 27.1046 25.7712 28 24.6667 28H7.33334C6.22877 28 5.33334 27.1046 5.33334 26Z" fill="#D63D4A"/>
</g>
<path d="M17.0664 5.19922L17.0612 5.30859C17.0064 5.84632 16.5522 6.26562 16 6.26562C15.4478 6.26562 14.9936 5.84632 14.9388 5.30859L14.9336 5.19922L14.9336 3.19922C14.9336 2.61011 15.4109 2.13281 16 2.13281C16.5891 2.13281 17.0664 2.61012 17.0664 3.19922L17.0664 5.19922Z" fill="#1E2124"/>
<path d="M17.0664 5.19922L17.0612 5.30859C17.0064 5.84632 16.5522 6.26562 16 6.26562C15.4478 6.26562 14.9936 5.84632 14.9388 5.30859L14.9336 5.19922L14.9336 3.19922C14.9336 2.61011 15.4109 2.13281 16 2.13281C16.5891 2.13281 17.0664 2.61012 17.0664 3.19922L17.0664 5.19922Z" fill="#D63D4A"/>
<path d="M9.00975 7.50105L9.08341 7.58207C9.42491 8.00102 9.4002 8.61872 9.00975 9.00917C8.6193 9.39962 8.0016 9.42433 7.58265 9.08283L7.50163 9.00917L6.08741 7.59496C5.67085 7.1784 5.67085 6.50339 6.08741 6.08683C6.50397 5.67027 7.17898 5.67027 7.59554 6.08683L9.00975 7.50105Z" fill="#1E2124"/>
<path d="M9.00975 7.50105L9.08341 7.58207C9.42491 8.00102 9.4002 8.61872 9.00975 9.00917C8.6193 9.39962 8.0016 9.42433 7.58265 9.08283L7.50163 9.00917L6.08741 7.59496C5.67085 7.1784 5.67085 6.50339 6.08741 6.08683C6.50397 5.67027 7.17898 5.67027 7.59554 6.08683L9.00975 7.50105Z" fill="#D63D4A"/>
<path d="M23.1651 7.50105L23.0914 7.58207C22.7499 8.00102 22.7746 8.61872 23.1651 9.00917C23.5555 9.39962 24.1732 9.42433 24.5922 9.08283L24.6732 9.00917L26.0874 7.59496C26.504 7.1784 26.504 6.50339 26.0874 6.08683C25.6708 5.67027 24.9958 5.67027 24.5793 6.08683L23.1651 7.50105Z" fill="#1E2124"/>
<path d="M23.1651 7.50105L23.0914 7.58207C22.7499 8.00102 22.7746 8.61872 23.1651 9.00917C23.5555 9.39962 24.1732 9.42433 24.5922 9.08283L24.6732 9.00917L26.0874 7.59496C26.504 7.1784 26.504 6.50339 26.0874 6.08683C25.6708 5.67027 24.9958 5.67027 24.5793 6.08683L23.1651 7.50105Z" fill="#D63D4A"/>
</svg>
