<svg width="33" height="32" viewBox="0 0 33 32" fill="none" xmlns="http://www.w3.org/2000/svg">
<g style="mix-blend-mode:multiply">
<g style="mix-blend-mode:multiply">
<path d="M22.7517 20.0212L25.815 29.3664L18.5825 29.3384L16.6658 23.4916L14.3809 29.3222L7.14846 29.2942L10.8008 19.9749L22.7517 20.0212Z" fill="#D63D4A"/>
</g>
<path d="M7.0332 14.9299C7.0332 20.1506 13.9181 23.9974 16.4999 23.9974C19.0817 23.9974 25.9665 20.1506 25.9665 14.9299C25.9665 12.1819 25.9665 9.69479 25.9665 7.95539C25.9665 6.45111 24.9964 5.12082 23.5679 4.66473L18.0655 2.90797C17.0469 2.58276 15.9528 2.58276 14.9343 2.90797L9.43189 4.66473C8.00335 5.12082 7.0332 6.45111 7.0332 7.95539C7.0332 9.69479 7.0332 12.1819 7.0332 14.9299Z" fill="#D63D4A"/>
<path d="M7.0332 14.9299C7.0332 20.1506 13.9181 23.9974 16.4999 23.9974C19.0817 23.9974 25.9665 20.1506 25.9665 14.9299C25.9665 12.1819 25.9665 9.69479 25.9665 7.95539C25.9665 6.45111 24.9964 5.12082 23.5679 4.66473L18.0655 2.90797C17.0469 2.58276 15.9528 2.58276 14.9343 2.90797L9.43189 4.66473C8.00335 5.12082 7.0332 6.45111 7.0332 7.95539C7.0332 9.69479 7.0332 12.1819 7.0332 14.9299Z" fill="#FA967C"/>
<path d="M20.0183 10.0212C20.4483 9.6193 21.1198 9.64261 21.5211 10.0732C21.9224 10.5039 21.8991 11.1765 21.4691 11.5785L15.7645 16.9118C15.3553 17.2943 14.7202 17.2943 14.3111 16.9118L12.0308 14.779C11.6008 14.377 11.5774 13.7018 11.9788 13.2712C12.3799 12.8419 13.0519 12.8185 13.4816 13.2191L15.0365 14.6748L20.0183 10.0212Z" fill="white"/>
</g>
</svg>
