<svg width="120" height="24" viewBox="0 0 120 24" fill="none" xmlns="http://www.w3.org/2000/svg">
<g clip-path="url(#clip0_11756_293347)">
<path d="M46.1175 15.4761C46.1175 13.6882 47.6844 12.2189 49.8017 12.2189C51.9191 12.2189 53.4859 13.686 53.4859 15.4761C53.4859 17.2662 51.9191 18.7507 49.8017 18.7507C47.6844 18.7507 46.1175 17.2662 46.1175 15.4761ZM49.7844 17.1058C50.7401 17.1058 51.516 16.3907 51.516 15.474C51.516 14.5572 50.7401 13.8594 49.7844 13.8594C48.8287 13.8594 48.0875 14.5572 48.0875 15.474C48.0875 16.3907 48.8265 17.1058 49.7844 17.1058ZM2.99287 18.4018H11.0829V16.7374H5.02785V14.1823H2.99287V18.3996V18.4018ZM51.5831 5.73683V12.0953H53.5618V9.58357H55.1611V7.88884H53.5618V5.73683H51.5831ZM45.0794 5.74117C45.0708 7.52909 44.9798 8.99843 42.3618 10.2207L43.3154 11.6771C44.4445 11.3498 45.7166 10.3681 46.202 9.49255C46.6897 10.3681 47.9575 11.3498 49.0887 11.6771L50.0423 10.2207C47.4243 8.99843 47.3333 7.52909 47.3246 5.74117H45.0816H45.0794ZM23.4272 8.74054H22.3826V5.76067H20.5167V18.612H22.3826V10.613H23.4272V18.612H25.3473V5.76067H23.4272V8.74054ZM38.3829 8.74054H37.4792V5.76067H35.5915V18.612H37.4792V10.613H38.3829V18.612H40.3247V5.76067H38.3829V8.74054ZM9.11081 15.2052H11.0894V5.75417H9.11081V8.13373H7.60679V9.78729H9.11081V10.8947H7.60896V12.5483H9.11081V15.2052ZM30.7262 5.19287V6.21361H28.468V7.78265H29.582C28.9166 8.22909 28.5287 9.08295 28.5287 9.98667C28.5287 11.5492 29.8724 12.882 31.7275 12.882C33.5826 12.882 34.9262 11.547 34.9262 9.98667C34.9262 9.08079 34.5405 8.22909 33.873 7.78265H34.9869V6.21361H32.7287V5.19287H30.7262ZM33.0711 9.95633C33.0711 10.6412 32.486 11.3021 31.7253 11.3021C30.9646 11.3021 30.3795 10.6412 30.3795 9.95633C30.3795 9.2715 30.9646 8.61051 31.7253 8.61051C32.486 8.61051 33.0711 9.27366 33.0711 9.95633ZM2.51176 5.20154V6.22445H0V7.79348H1.39566C0.745509 8.22692 0.370587 9.06778 0.370587 9.86314C0.370587 11.4257 1.71424 12.6913 3.56934 12.6913C5.42444 12.6913 6.76809 11.4257 6.76809 9.86314C6.76809 9.06778 6.39317 8.22692 5.74085 7.79348H7.13868V6.22445H4.62692V5.20154H2.51393H2.51176ZM4.91299 9.82846C4.91299 10.5133 4.32568 11.1071 3.56717 11.1071C2.80866 11.1071 2.22136 10.5133 2.22136 9.82846C2.22136 9.14363 2.80866 8.552 3.56717 8.552C4.32568 8.552 4.91299 9.1458 4.91299 9.82846ZM19.8405 12.6848H16.6092V7.80865H19.264V6.12259H14.5938V14.3774H19.8405V12.6848ZM82.9357 18.5882H84.9403V5.73683H82.9335V18.5882H82.9357ZM73.8444 9.65292C73.8444 7.61144 75.5023 5.93405 77.7431 5.93405C79.984 5.93405 81.6419 7.60927 81.6419 9.65292C81.6419 11.6966 79.984 13.3913 77.7431 13.3913C75.5023 13.3913 73.8444 11.6966 73.8444 9.65292ZM77.7236 11.6272C78.7964 11.6272 79.6676 10.7603 79.6676 9.64859C79.6676 8.53682 78.7964 7.69163 77.7236 7.69163C76.6509 7.69163 75.8208 8.53899 75.8208 9.64859C75.8208 10.7582 76.6509 11.6272 77.7236 11.6272ZM72.1648 8.7167H70.132V5.73683H68.149V18.5882H70.1342V10.5783H72.1648V8.71887V8.7167ZM62.2738 12.7108V7.78048H65.9905V6.02723H60.2648V14.4662H67.3212V12.7108H62.2717H62.2738ZM99.714 5.73683H97.7353V11.5254H99.714V5.73683ZM91.1363 12.9752L94.1335 10.2424V11.5254H96.9096V5.73683H95.0372V9.46221H91.223L94.1617 7.06965L93.5592 6.02723H88.579V7.69813H91.3075L88.2734 10.1687L88.7762 11.0399H91.1515L88.2453 13.7034L88.8456 14.7436H92.3434L94.101 13.2483V14.7436H97.731V18.8071H99.7183V12.9752H91.1363ZM102.497 15.3309V17.043H114V15.3309H102.497ZM106.155 9.18915V7.79782H112.143V6.12259H104.181V13.9223H112.357V12.234H106.155V10.808H112.017V9.18698H106.155V9.18915Z" fill="#FF7F32"/>
</g>
<defs>
<clipPath id="clip0_11756_293347">
<rect width="114" height="13.6142" fill="white" transform="translate(0 5.19287)"/>
</clipPath>
</defs>
</svg>
