<svg width="32" height="32" viewBox="0 0 32 32" fill="none" xmlns="http://www.w3.org/2000/svg">
<path d="M14.9338 13.3333C14.9338 12.7442 15.4111 12.2669 16.0002 12.2669C16.5893 12.2669 17.0666 12.7442 17.0666 13.3333V19.4257L18.5797 17.9127C18.9962 17.4961 19.6709 17.4961 20.0875 17.9127C20.504 18.3292 20.504 19.0039 20.0875 19.4205L16.7541 22.7538C16.3376 23.1704 15.6629 23.1704 15.2463 22.7538L11.913 19.4205C11.4964 19.0039 11.4964 18.3292 11.913 17.9127C12.3036 17.5221 12.9211 17.4978 13.3401 17.8398L13.4208 17.9127L14.9338 19.4257V13.3333Z" fill="#33363D"/>
<path d="M24.9338 18.3489C24.9338 16.7028 24.2434 14.9189 23.3479 13.3437C22.6041 12.0364 21.6864 10.8783 20.6513 9.75644C20.5449 10.0178 20.4117 10.2972 20.2307 10.5781C20.0126 10.9165 19.622 11.1034 19.2216 11.0611C18.8212 11.0189 18.4788 10.754 18.3362 10.3775C17.6404 8.54154 16.4544 6.59076 15.0159 5.74602L15.0093 5.74211L14.9625 5.71477L14.956 5.76034C14.4789 8.59984 12.5632 11.1329 10.5601 12.858C7.08935 15.8482 6.53751 18.8686 7.47419 21.207C8.41196 23.5479 10.8406 25.2121 13.3336 25.4882L13.9898 25.5598L14.0185 25.5637C14.3316 25.607 14.9532 25.6208 15.6513 25.6184C16.207 25.6165 16.9483 25.6021 17.2802 25.6002L18.2958 25.4882C20.7821 25.2133 22.4441 24.3884 23.4833 23.1497C24.5204 21.9132 24.9338 20.2661 24.9338 18.3489ZM27.0666 18.3489C27.0666 20.5431 26.5969 22.7585 25.1174 24.5221C23.6176 26.3096 21.3696 27.2941 18.5315 27.608L17.4625 27.7265C17.4236 27.7308 17.3843 27.733 17.3453 27.733C16.9558 27.733 16.4292 27.7486 15.6591 27.7512C15.0037 27.7535 14.2452 27.7436 13.7554 27.6796L13.0992 27.6093C9.91936 27.2572 6.75813 25.1562 5.49372 21.9999C4.12954 18.5939 5.20583 14.6549 9.1669 11.2421C10.9602 9.69775 12.4877 7.57611 12.8518 5.40878L12.9547 4.78638C13.1429 3.6586 14.3395 3.0394 15.3518 3.48039L15.5523 3.58196L16.094 3.90748L16.0953 3.90618C17.4861 4.72263 18.5748 6.12104 19.3674 7.5455C19.5625 7.37135 19.7987 7.24515 20.0627 7.18482C20.556 7.0723 21.06 7.20259 21.4468 7.51425L21.6057 7.65878L22.1031 8.18222C23.0895 9.24022 24.0165 10.3695 24.814 11.6419L25.2021 12.289C26.1739 13.9986 27.0666 16.1653 27.0666 18.3489Z" fill="#33363D"/>
</svg>
