<svg width="36" height="36" viewBox="0 0 36 36" fill="none" xmlns="http://www.w3.org/2000/svg">
<g clip-path="url(#clip0_1806_12901)">
<path d="M34.9929 19.6651C34.9929 18.001 33.9363 16.5214 32.3631 15.9805L29.8566 15.1201H2.71708C1.77298 15.1201 1.00708 15.886 1.00708 16.8301V23.6276H34.9938L34.9929 19.6651Z" fill="#368BFF"/>
<path d="M1.00708 23.6274V24.5571C1.00708 25.4544 1.73428 26.1816 2.63158 26.1816H33.2829C34.227 26.1816 34.9929 25.4157 34.9929 24.4716V23.6274H1.00708Z" fill="#2D67D5"/>
<path d="M28.4392 31.3811C30.9245 31.3811 32.9392 29.3664 32.9392 26.8811C32.9392 24.3958 30.9245 22.3811 28.4392 22.3811C25.9539 22.3811 23.9392 24.3958 23.9392 26.8811C23.9392 29.3664 25.9539 31.3811 28.4392 31.3811Z" fill="#313D4C"/>
<path d="M28.4392 28.6811C29.4333 28.6811 30.2392 27.8752 30.2392 26.8811C30.2392 25.8869 29.4333 25.0811 28.4392 25.0811C27.445 25.0811 26.6392 25.8869 26.6392 26.8811C26.6392 27.8752 27.445 28.6811 28.4392 28.6811Z" fill="#6B7683"/>
<path d="M7.56079 31.3811C10.0461 31.3811 12.0608 29.3664 12.0608 26.8811C12.0608 24.3958 10.0461 22.3811 7.56079 22.3811C5.07551 22.3811 3.06079 24.3958 3.06079 26.8811C3.06079 29.3664 5.07551 31.3811 7.56079 31.3811Z" fill="#313D4C"/>
<path d="M7.56074 28.6811C8.55486 28.6811 9.36074 27.8752 9.36074 26.8811C9.36074 25.8869 8.55486 25.0811 7.56074 25.0811C6.56663 25.0811 5.76074 25.8869 5.76074 26.8811C5.76074 27.8752 6.56663 28.6811 7.56074 28.6811Z" fill="#6B7683"/>
<path d="M34.9929 21.8952H34.2801C33.6897 21.8952 33.2109 21.4164 33.2109 20.826C33.2109 20.2356 33.6897 19.7568 34.2801 19.7568H34.9929V21.8952Z" fill="white"/>
<path d="M1.00708 21.8953H2.57488C3.16528 21.8953 3.64408 21.4165 3.64408 20.827C3.64408 20.2366 3.16528 19.7578 2.57578 19.7578H1.00798V21.8953H1.00708Z" fill="#EF4452"/>
<path d="M24.8219 8.67514C23.948 7.49976 21.8448 6.52954 20.448 6.52954H8.89672C7.16422 6.52954 5.948 7.99976 5.35882 9.46534L3.10962 15.1199H29.8108L24.8219 8.67514Z" fill="#415164"/>
</g>
<defs>
<clipPath id="clip0_1806_12901">
<rect width="36" height="36" fill="white"/>
</clipPath>
</defs>
</svg>
