<svg width="32" height="33" viewBox="0 0 32 33" fill="none" xmlns="http://www.w3.org/2000/svg">
<path fill-rule="evenodd" clip-rule="evenodd" d="M26.8333 12.9467C26.4733 12.9467 26.1667 13.24 26.1667 13.6134V15.3334H25.06C24.9133 13.1867 24.06 11.2267 22.7267 9.69336L23.5533 8.86669L24.58 9.89336C24.8333 10.1467 25.26 10.1467 25.5133 9.89336C25.7667 9.64003 25.7667 9.21336 25.5133 8.96003L22.5267 5.97336C22.2733 5.72003 21.8467 5.72003 21.5933 5.97336C21.34 6.22669 21.34 6.65336 21.5933 6.90669L22.62 7.93336L21.7933 8.76003C20.26 7.42669 18.3133 6.57336 16.1533 6.42669V5.32003H17.8733C18.2333 5.32003 18.54 5.02669 18.54 4.65336C18.54 4.28003 18.2467 3.98669 17.8733 3.98669H13.1C12.74 3.98669 12.4333 4.28003 12.4333 4.65336C12.4333 5.02669 12.7267 5.32003 13.1 5.32003H14.82V6.42669C12.6733 6.57336 10.7133 7.42669 9.18 8.76003L8.35333 7.93336L9.38 6.90669C9.63333 6.65336 9.63333 6.22669 9.38 5.97336C9.12667 5.72003 8.7 5.72003 8.44667 5.97336L5.48667 8.97336C5.23333 9.22669 5.23333 9.65336 5.48667 9.90669C5.74 10.16 6.16667 10.16 6.42 9.90669L7.44667 8.88003L8.27333 9.70669C6.94 11.24 6.08667 13.1867 5.94 15.3467H4.83333V13.6267C4.83333 13.2667 4.54 12.96 4.16667 12.96C3.79333 12.96 3.5 13.2534 3.5 13.6267V18.4C3.5 18.76 3.79333 19.0667 4.16667 19.0667C4.54 19.0667 4.83333 18.7734 4.83333 18.4V16.68H5.94C6.08667 18.8267 6.94 20.7867 8.27333 22.32L7.44667 23.1467L6.42 22.12C6.16667 21.8667 5.74 21.8667 5.48667 22.12C5.23333 22.3734 5.23333 22.8 5.48667 23.0534L8.47333 26.04C8.72667 26.2934 9.15333 26.2934 9.40667 26.04C9.66 25.7867 9.66 25.36 9.40667 25.1067L8.38 24.08L9.20667 23.2534C10.74 24.5867 12.6867 25.44 14.8467 25.5867V26.6934H13.1267C12.7667 26.6934 12.46 26.9867 12.46 27.36C12.46 27.7334 12.7533 28.0267 13.1267 28.0267H17.9C18.26 28.0267 18.5667 27.7334 18.5667 27.36C18.5667 26.9867 18.2733 26.6934 17.9 26.6934H16.18V25.5867C18.3267 25.44 20.2867 24.5867 21.82 23.2534L22.6467 24.08L21.62 25.1067C21.3667 25.36 21.3667 25.7867 21.62 26.04C21.8733 26.2934 22.3 26.2934 22.5533 26.04L25.54 23.0534C25.7933 22.8 25.7933 22.3734 25.54 22.12C25.2867 21.8667 24.86 21.8667 24.6067 22.12L23.58 23.1467L22.7533 22.32C24.0867 20.7867 24.94 18.84 25.0867 16.68H26.1933V18.4C26.1933 18.76 26.4867 19.0667 26.86 19.0667C27.2333 19.0667 27.5267 18.7734 27.5267 18.4V13.6267C27.5267 13.2667 27.2333 12.96 26.86 12.96L26.8333 12.9467Z" fill="#FA967C"/>
<path d="M14.7139 13.0808C14.7139 14.2591 13.7588 15.2142 12.5806 15.2142C11.4024 15.2142 10.4473 14.2591 10.4473 13.0808C10.4473 11.9026 11.4024 10.9475 12.5806 10.9475C13.7588 10.9475 14.7139 11.9026 14.7139 13.0808Z" fill="white"/>
<path d="M15.5002 20C15.5002 20.7363 14.9032 21.3333 14.1668 21.3333C13.4304 21.3333 12.8335 20.7363 12.8335 20C12.8335 19.2636 13.4304 18.6666 14.1668 18.6666C14.9032 18.6666 15.5002 19.2636 15.5002 20Z" fill="white"/>
<path d="M21.2264 15.0734C21.2264 15.957 20.51 16.6734 19.6264 16.6734C18.7427 16.6734 18.0264 15.957 18.0264 15.0734C18.0264 14.1897 18.7427 13.4734 19.6264 13.4734C20.51 13.4734 21.2264 14.1897 21.2264 15.0734Z" fill="white"/>
<g style="mix-blend-mode:multiply">
<path d="M18.873 23.9064C18.873 26.6472 22.4932 28.6668 23.8508 28.6668C25.2084 28.6668 28.8286 26.6472 28.8286 23.9064C28.8286 22.4636 28.8286 21.1579 28.8286 20.2447C28.8286 19.455 28.3185 18.7566 27.5673 18.5171L24.6741 17.5948C24.1385 17.4241 23.5632 17.4241 23.0276 17.5948L20.1343 18.5171C19.3832 18.7566 18.873 19.455 18.873 20.2447C18.873 21.1579 18.873 22.4636 18.873 23.9064Z" fill="#D63D4A"/>
</g>
<path d="M26.1947 20.95C26.435 20.7995 26.7559 20.8331 26.959 21.0463C27.1621 21.2598 27.1797 21.5819 27.0176 21.8146L26.9382 21.9083L23.7338 24.9565C23.6164 25.068 23.4594 25.1288 23.2976 25.1245C23.1356 25.1201 22.9817 25.0509 22.8705 24.9331L20.7403 22.6739L20.6661 22.5763C20.5169 22.3353 20.5521 22.0154 20.7663 21.8133C20.9807 21.6111 21.3026 21.5941 21.5346 21.7573L21.6283 21.838L23.3366 23.6505L26.0971 21.0255L26.1947 20.95Z" fill="white"/>
</svg>
