<svg width="32" height="32" viewBox="0 0 32 32" fill="none" xmlns="http://www.w3.org/2000/svg">
<path d="M23.2359 9.09657C24.7631 10.6237 26.0611 12.1595 27.0294 13.5312C27.6928 14.4709 27.5123 15.7316 26.6991 16.5451L19.7708 23.4733C18.9575 24.2864 17.6977 24.4673 16.7579 23.8046C16.1737 23.3924 15.5597 22.9201 14.9293 22.3959C14.375 21.9349 13.5492 21.9875 13.0801 22.5349L7.30871 29.2684C6.33371 30.4058 4.59674 30.4725 3.53739 29.4131L2.91935 28.7951C1.86 27.7358 1.92664 25.9988 3.06409 25.0238L9.79696 19.2515C10.3442 18.7824 10.3968 17.9567 9.93593 17.4024C9.41199 16.7723 8.93995 16.1585 8.52793 15.5746C7.86522 14.6348 8.0461 13.375 8.85915 12.5616L15.7874 5.63339C16.6009 4.8202 17.8616 4.63968 18.8013 5.30305C20.173 6.27144 21.7088 7.56942 23.2359 9.09657Z" fill="#FA967C"/>
<path d="M13.2328 2.73172C13.9861 1.97842 15.2075 1.97842 15.9608 2.73172C16.7141 3.48501 16.7141 4.70635 15.9608 5.45964L8.68352 12.7369C7.93022 13.4902 6.70889 13.4902 5.9556 12.7369C5.2023 11.9836 5.2023 10.7623 5.9556 10.009L13.2328 2.73172Z" fill="#D63D4A"/>
<path d="M26.8725 16.3713C27.6257 15.618 28.8471 15.618 29.6004 16.3713C30.3537 17.1246 30.3537 18.346 29.6004 19.0993L22.3231 26.3765C21.5698 27.1298 20.3485 27.1298 19.5952 26.3765C18.8419 25.6232 18.8419 24.4019 19.5952 23.6486L26.8725 16.3713Z" fill="#D63D4A"/>
</svg>
