<svg width="32" height="32" viewBox="0 0 32 32" fill="none" xmlns="http://www.w3.org/2000/svg">
<g style="mix-blend-mode:multiply">
<path d="M6.48063 25.5751C6.48057 25.575 6.48047 25.575 6.48047 25.5751V28.1457C6.48047 28.6118 6.85809 28.9894 7.32415 28.9894H10.0362C10.5023 28.9894 10.8799 28.6118 10.8799 28.1457V25.5797C10.8799 25.3468 10.6909 25.1578 10.4581 25.1578H6.91058C6.91058 25.1578 6.90772 25.1578 6.90613 25.1578C6.67238 25.1572 6.48091 25.3413 6.48079 25.575C6.48079 25.5751 6.48069 25.5751 6.48063 25.5751Z" fill="#D63D4A"/>
<path d="M25.8504 25.5751C25.8505 25.575 25.8506 25.575 25.8506 25.5751V28.1457C25.8506 28.6118 25.473 28.9894 25.0069 28.9894H22.2949C21.8288 28.9894 21.4512 28.6118 21.4512 28.1457V25.5797C21.4512 25.3468 21.6401 25.1578 21.873 25.1578H25.4205C25.4205 25.1578 25.4234 25.1578 25.4249 25.1578C25.6587 25.1572 25.8502 25.3413 25.8503 25.575C25.8503 25.5751 25.8504 25.5751 25.8504 25.5751Z" fill="#D63D4A"/>
<path d="M3.57681 8.44629H4.75392C5.165 8.44629 5.4987 8.70273 5.4987 9.01862V13.2073C5.4987 13.5232 5.165 13.7796 4.75392 13.7796H3.57681C3.16573 13.7796 2.83203 13.5232 2.83203 13.2073V9.01862C2.83203 8.70273 3.16573 8.44629 3.57681 8.44629Z" fill="#D63D4A"/>
<path d="M27.5768 8.44629H28.7539C29.165 8.44629 29.4987 8.70273 29.4987 9.01862V13.2073C29.4987 13.5232 29.165 13.7796 28.7539 13.7796H27.5768C27.1657 13.7796 26.832 13.5232 26.832 13.2073V9.01862C26.832 8.70273 27.1657 8.44629 27.5768 8.44629Z" fill="#D63D4A"/>
<rect x="5.5" y="2.83325" width="21.3333" height="21.3333" rx="4" fill="#D63D4A"/>
<rect x="8.16602" y="5.5" width="16" height="8" rx="1.5" fill="white"/>
<path d="M24.4149 26.0217H7.91633C6.41443 26.0217 5.19727 24.8042 5.19727 23.3026V19.7103C5.19727 19.3676 5.31052 19.0355 5.51635 18.7616C9.57697 13.3524 22.7546 13.3524 26.8155 18.7616C27.021 19.0355 27.1346 19.3676 27.1346 19.7103V23.3026C27.1346 24.8045 25.9171 26.0217 24.4155 26.0217H24.4149Z" fill="#FA967C"/>
<rect x="12.166" y="18.1666" width="8" height="1.33333" rx="0.666667" fill="#D63D4A"/>
<rect x="12.166" y="20.8333" width="8" height="1.33333" rx="0.666667" fill="#D63D4A"/>
<path d="M8.34161 23.9582C9.04264 23.9582 9.61095 23.3899 9.61095 22.6889C9.61095 21.9879 9.04264 21.4196 8.34161 21.4196C7.64057 21.4196 7.07227 21.9879 7.07227 22.6889C7.07227 23.3899 7.64057 23.9582 8.34161 23.9582Z" fill="white"/>
<path d="M23.99 23.9582C24.6911 23.9582 25.2594 23.3899 25.2594 22.6889C25.2594 21.9879 24.6911 21.4196 23.99 21.4196C23.289 21.4196 22.7207 21.9879 22.7207 22.6889C22.7207 23.3899 23.289 23.9582 23.99 23.9582Z" fill="white"/>
</g>
</svg>
