<svg width="32" height="33" viewBox="0 0 32 33" fill="none" xmlns="http://www.w3.org/2000/svg">
<g clip-path="url(#clip0_10922_59280)">
<path d="M20.168 14.3635C20.168 13.259 21.0634 12.3635 22.168 12.3635H28.8346C29.9392 12.3635 30.8346 13.259 30.8346 14.3635V27.3332C30.8346 28.4378 29.9392 29.3332 28.8346 29.3332H22.168C21.0634 29.3332 20.168 28.4378 20.168 27.3332V14.3635Z" fill="#D63D4A"/>
<rect x="4.16797" y="4" width="20" height="25.3333" rx="2" fill="#FA967C"/>
<path d="M17.8359 22.6666C18.3881 22.6668 18.8359 23.1144 18.8359 23.6666V29.3336H9.50195V23.6666C9.50195 23.1144 9.94982 22.6668 10.502 22.6666H17.8359ZM18.502 15.3336C19.0542 15.3336 19.502 15.7813 19.502 16.3336V16.9996C19.502 17.5519 19.0542 17.9996 18.502 17.9996H9.83594C9.28365 17.9996 8.83594 17.5519 8.83594 16.9996V16.3336C8.83594 15.7813 9.28365 15.3336 9.83594 15.3336H18.502ZM18.502 9.99963C19.0541 9.99963 19.5018 10.4475 19.502 10.9996V11.6666C19.502 12.2189 19.0542 12.6666 18.502 12.6666H9.83594C9.28365 12.6666 8.83594 12.2189 8.83594 11.6666V10.9996C8.83611 10.4475 9.28376 9.99963 9.83594 9.99963H18.502Z" fill="#D63D4A"/>
</g>
<defs>
<clipPath id="clip0_10922_59280">
<rect width="32" height="32" fill="white" transform="translate(0.167969 0.666626)"/>
</clipPath>
</defs>
</svg>
