<svg width="32" height="32" viewBox="0 0 32 32" fill="none" xmlns="http://www.w3.org/2000/svg">
<g clip-path="url(#clip0_18692_251675)">
<rect width="32" height="32" fill="white"/>
<path d="M13.3066 6.16431C14.5507 4.1674 17.4499 4.1674 18.6941 6.16432L28.8457 22.4579C30.1681 24.5803 28.647 27.3333 26.152 27.3333H5.84868C3.35366 27.3333 1.83256 24.5803 3.15492 22.4579L13.3066 6.16431Z" fill="#FA967C"/>
<path d="M15.9997 20C16.9201 20 17.6663 20.7462 17.6663 21.6667C17.6663 22.5871 16.9201 23.3333 15.9997 23.3333C15.0792 23.3333 14.333 22.5871 14.333 21.6667C14.333 20.7462 15.0792 20 15.9997 20Z" fill="#D63D4A"/>
<path d="M15.9997 12C16.7361 12 17.333 12.597 17.333 13.3333V17.3333C17.333 18.0697 16.7361 18.6667 15.9997 18.6667C15.2633 18.6667 14.6663 18.0697 14.6663 17.3333V13.3333C14.6663 12.597 15.2633 12 15.9997 12Z" fill="#D63D4A"/>
</g>
<defs>
<clipPath id="clip0_18692_251675">
<rect width="32" height="32" fill="white"/>
</clipPath>
</defs>
</svg>
