<svg width="32" height="32" viewBox="0 0 32 32" fill="none" xmlns="http://www.w3.org/2000/svg">
<path d="M27.5236 25.448V25.5254C27.5236 26.7585 27.2828 28.0838 26.8874 29.3824H5.47496C5.06106 28.085 4.80469 26.7589 4.80469 25.5236V25.4549V25.4523C4.80469 23.2607 4.80469 18.8441 9.10468 16.7334C10.657 15.9716 12.014 16.0748 13.1959 16.3362C13.5377 16.4118 13.9047 16.5115 14.2448 16.601C14.4469 16.6571 14.6321 16.7059 14.8004 16.7471C15.2988 16.8726 15.7382 16.9535 16.1642 16.9535C16.6225 16.9421 17.0778 16.8728 17.5195 16.7471C17.6856 16.7036 17.868 16.6543 18.0667 16.5992C18.4181 16.4992 18.7717 16.4074 19.1273 16.3241C20.3194 16.0593 21.6865 15.9579 23.2708 16.7316C27.5236 18.8192 27.5236 23.2642 27.5236 25.448Z" fill="#FA967C"/>
<path fill-rule="evenodd" clip-rule="evenodd" d="M19.7053 21.0197C19.7535 21.1479 19.7758 21.2844 19.7712 21.4213C19.7666 21.5581 19.735 21.6928 19.6783 21.8175C19.6217 21.9422 19.5409 22.0545 19.4408 22.1479C19.3407 22.2414 19.2232 22.3143 19.0949 22.3623C18.0658 22.7476 17.1718 22.9827 16.2328 22.9861C15.2905 22.9877 14.3915 22.7576 13.3524 22.3589C13.2246 22.3099 13.1077 22.2361 13.0084 22.1419C12.9092 22.0477 12.8294 21.9348 12.7737 21.8097C12.718 21.6847 12.6875 21.5499 12.684 21.413C12.6804 21.2762 12.7038 21.14 12.7528 21.0122C12.8019 20.8844 12.8757 20.7675 12.9699 20.6682C13.0641 20.5689 13.177 20.4891 13.3021 20.4334C13.4271 20.3777 13.5619 20.3472 13.6988 20.3437C13.8356 20.3401 13.9718 20.3635 14.0996 20.4126C15.0203 20.7661 15.6457 20.9029 16.2262 20.9012C16.8099 20.8979 17.437 20.7578 18.3644 20.4092C18.6231 20.3125 18.9097 20.3225 19.1612 20.4369C19.4126 20.5514 19.6083 20.761 19.7053 21.0197Z" fill="#D63D4A"/>
<path d="M22.0204 10.7195L16.82 7.88942L13.2933 4.0682C11.3714 4.42101 9.4817 4.99451 7.68687 5.81184C7.4806 5.90577 7.28278 6.00552 7.08318 6.10286L11.4244 10.5593L20.492 13.9727C25.597 16.4141 28.1201 21.047 26.8709 25.5178C26.7784 25.8533 27.0949 26.1735 27.5346 26.1829C27.6146 26.1852 27.6972 26.1798 27.7749 26.1735C27.8689 26.0726 27.9495 25.965 28.0102 25.847C30.7198 20.392 28.3134 14.1484 22.0222 10.7219L22.0204 10.7195Z" fill="#D63D4A"/>
<path d="M10.1359 10.7195L15.3363 7.88942L18.8629 4.0682C20.7849 4.42101 22.6745 4.99451 24.4694 5.81184C24.6757 5.90577 24.8735 6.00552 25.0731 6.10286L20.7319 10.5593L11.6643 13.9727C6.55927 16.4141 4.03618 21.047 5.28537 25.5178C5.37785 25.8533 5.06133 26.1735 4.62161 26.1829C4.54161 26.1852 4.45904 26.1798 4.38135 26.1735C4.28737 26.0726 4.20673 25.965 4.14607 25.847C1.43644 20.392 3.84288 14.1484 10.1341 10.7219L10.1359 10.7195Z" fill="#D63D4A"/>
<circle cx="16.1645" cy="9.8188" r="1.26216" fill="white"/>
</svg>
