<svg width="32" height="32" viewBox="0 0 32 32" fill="none" xmlns="http://www.w3.org/2000/svg">
<g style="mix-blend-mode:multiply">
<path d="M26.8346 18.8335H5.5013C4.76492 18.8335 4.16797 19.4304 4.16797 20.1668V28.1668C4.16797 28.9032 4.76492 29.5002 5.5013 29.5002H26.8346C27.571 29.5002 28.168 28.9032 28.168 28.1668V20.1668C28.168 19.4304 27.571 18.8335 26.8346 18.8335Z" fill="#FA967C"/>
<path d="M24.168 28.1668L24.168 14.8335C24.168 14.0971 23.571 13.5001 22.8346 13.5001L9.5013 13.5001C8.76492 13.5001 8.16797 14.0971 8.16797 14.8335L8.16797 28.1668C8.16797 28.9032 8.76492 29.5001 9.5013 29.5001L22.8346 29.5001C23.571 29.5001 24.168 28.9032 24.168 28.1668Z" fill="#D63D4A"/>
<path fill-rule="evenodd" clip-rule="evenodd" d="M16.1667 3.06592C16.5349 3.06592 16.8333 3.36439 16.8333 3.73258V8.36284C16.8333 8.73103 16.5349 9.0295 16.1667 9.0295C15.7985 9.0295 15.5 8.73103 15.5 8.36284V3.73258C15.5 3.36439 15.7985 3.06592 16.1667 3.06592Z" fill="#FA967C"/>
<path d="M16.4514 6.74034C16.1855 6.83951 15.9023 6.64289 15.9023 6.3591V3.55277C15.9023 3.26898 16.1855 3.07235 16.4514 3.17153L20.2135 4.57469C20.5665 4.70633 20.5665 5.20554 20.2135 5.33717L16.4514 6.74034Z" fill="#FA967C"/>
<path d="M15.4999 7.37229C15.8905 7.05771 16.4475 7.05771 16.8381 7.37229L25.3602 14.236C26.1441 14.8674 25.6976 16.1334 24.6911 16.1334H7.6469C6.64036 16.1334 6.19392 14.8674 6.97783 14.236L15.4999 7.37229Z" fill="#D63D4A"/>
<path d="M16.1695 17.7131C17.1347 17.7131 17.9172 16.8879 17.9172 15.87C17.9172 14.852 17.1347 14.0269 16.1695 14.0269C15.2043 14.0269 14.4219 14.852 14.4219 15.87C14.4219 16.8879 15.2043 17.7131 16.1695 17.7131Z" fill="white"/>
<path d="M13.5 23.5002C13.5 23.132 13.7985 22.8335 14.1667 22.8335H18.1667C18.5349 22.8335 18.8333 23.132 18.8333 23.5002V29.5002H13.5V23.5002Z" fill="white"/>
</g>
</svg>
