<svg width="32" height="32" viewBox="0 0 32 32" fill="none" xmlns="http://www.w3.org/2000/svg">
<rect x="4" y="9.33252" width="24" height="16" rx="2.31882" fill="#FA967C"/>
<rect x="11.2002" y="12.5335" width="9.6" height="9.6" rx="4.8" fill="#D63D4A"/>
<path d="M15.9995 14.5325C16.3861 14.5325 16.6997 14.8461 16.6997 15.2327V16.6321H18.1001C18.4866 16.6321 18.8002 16.9458 18.8003 17.3323C18.8003 17.7189 18.4867 18.0325 18.1001 18.0325H16.6997V19.4329C16.6997 19.8194 16.3861 20.1331 15.9995 20.1331C15.6132 20.1328 15.3003 19.8193 15.3003 19.4329V18.0325H13.8999C13.5134 18.0324 13.1997 17.7188 13.1997 17.3323C13.1998 16.9458 13.5135 16.6322 13.8999 16.6321H15.3003V15.2327C15.3003 14.8463 15.6132 14.5327 15.9995 14.5325Z" fill="white"/>
<path d="M21.2002 5.33276C21.8629 5.33276 22.4004 5.87024 22.4004 6.53296V9.33276H20V7.56812C19.9998 7.21745 19.7159 6.93343 19.3652 6.93335H12.6357C12.285 6.93335 12.0002 7.2174 12 7.56812V9.33276H9.60059V6.53296C9.60061 5.87037 10.1373 5.33298 10.7998 5.33276H21.2002Z" fill="#D63D4A"/>
<path d="M6.6665 25.3338H9.33317V25.8201C9.33317 26.2879 8.95393 26.6671 8.48611 26.6671H7.51356C7.04575 26.6671 6.6665 26.2879 6.6665 25.8201V25.3338Z" fill="#D63D4A"/>
<path d="M22.6665 25.3338H25.3332V25.8201C25.3332 26.2879 24.9539 26.6671 24.4861 26.6671H23.5136C23.0457 26.6671 22.6665 26.2879 22.6665 25.8201V25.3338Z" fill="#D63D4A"/>
</svg>
