<svg width="32" height="32" viewBox="0 0 32 32" fill="none" xmlns="http://www.w3.org/2000/svg">
<path d="M17.0533 3.004L25.8681 6.52643C26.3482 6.71822 26.762 7.06164 27.0541 7.51076C27.3462 7.95989 27.5027 8.49332 27.5026 9.03976V16.2362C27.5026 18.4791 26.9166 20.6776 25.8101 22.5855C24.7036 24.4934 23.1203 26.0353 21.2378 27.0383L17.0142 29.2873C16.7519 29.4271 16.4626 29.4999 16.1693 29.4999C15.8759 29.4999 15.5866 29.4271 15.3243 29.2873L11.1008 27.037C9.21821 26.0339 7.63498 24.4921 6.52847 22.5842C5.42196 20.6763 4.83589 18.4777 4.83594 16.2349V9.0411C4.83562 8.49444 4.99197 7.96071 5.28407 7.51132C5.57617 7.06192 5.99009 6.7183 6.47046 6.52643L15.2853 3.004C15.8552 2.77633 16.4833 2.77633 17.0533 3.004Z" fill="#FA967C"/>
<g style="mix-blend-mode:multiply">
<path fill-rule="evenodd" clip-rule="evenodd" d="M16.2632 20.1894C16.6074 20.1894 16.7935 20.3715 17.1214 20.7313L17.1395 20.751C17.4349 21.075 17.8803 21.5639 18.6861 21.493C19.1667 21.4502 19.6257 21.1408 20.0096 20.7749C20.4098 20.3937 20.801 19.8842 21.1434 19.3166C21.8236 18.1882 22.3584 16.7513 22.3584 15.5041V15.4656C22.3584 14.38 22.3584 12.1703 20.0765 11.1325C19.2264 10.7479 18.4928 10.7983 17.8532 10.9299C17.6624 10.9713 17.4726 11.0169 17.284 11.0667C17.1774 11.0941 17.0796 11.1186 16.9904 11.1402C16.7534 11.2027 16.5092 11.2371 16.2632 11.2428C16.0346 11.2428 15.7989 11.2026 15.5315 11.1402C15.4411 11.1197 15.3417 11.0955 15.2333 11.0676C15.0508 11.0231 14.8539 10.9735 14.6705 10.9359C14.0363 10.806 13.3082 10.7547 12.4753 11.1334C10.1671 12.1831 10.168 14.38 10.168 15.469V15.5032C10.168 16.7573 10.7416 18.1993 11.4372 19.3243C11.7878 19.8919 12.1816 20.3997 12.5728 20.7775C12.768 20.9664 12.9703 21.1305 13.1736 21.2536C13.3732 21.3742 13.6 21.4716 13.8394 21.493C14.6452 21.5639 15.0915 21.0741 15.3869 20.751L15.405 20.7313C15.7329 20.3723 15.919 20.1894 16.2632 20.1894Z" fill="#D63D4A"/>
</g>
<path d="M17.4035 12.875C17.6941 12.7665 18.0309 12.8738 18.2017 13.1471C18.3964 13.4592 18.3014 13.87 17.9894 14.0651L17.7551 14.2018C17.2053 14.5023 16.6305 14.6666 16.0363 14.6666C15.4418 14.6666 14.8663 14.5026 14.3163 14.2018L14.0832 14.0651L13.9764 13.9831C13.7514 13.7694 13.7003 13.4205 13.8709 13.1471C14.0416 12.874 14.3773 12.7669 14.6678 12.875L14.7889 12.9349L14.9556 13.0325C15.3389 13.2422 15.6974 13.3333 16.0363 13.3333C16.4236 13.3333 16.836 13.2138 17.2824 12.9349L17.4035 12.875Z" fill="#FA967C"/>
<path d="M7.00672 7.81431L12.359 5.58624C12.5715 5.49779 12.7631 5.84155 12.5831 5.98498C9.81361 8.19166 7.81988 10.9615 6.60193 15.2601C6.53972 15.4796 6.17136 15.4358 6.17188 15.2076L6.1858 9.04223C6.18702 8.5049 6.51065 8.02081 7.00672 7.81431Z" fill="white"/>
</svg>
