<svg width="32" height="32" viewBox="0 0 32 32" fill="none" xmlns="http://www.w3.org/2000/svg">
<path d="M12.8359 12.1668C15.4133 12.1668 17.5026 10.0775 17.5026 7.50016C17.5026 4.92283 15.4133 2.8335 12.8359 2.8335C10.2586 2.8335 8.16927 4.92283 8.16927 7.50016C8.16927 10.0775 10.2586 12.1668 12.8359 12.1668Z" fill="#FA967C"/>
<path d="M19.4978 17.7268L18.8479 16.4468C17.9273 14.6335 16.0589 13.5002 14.001 13.5002H13.1345C10.1965 13.5002 7.80012 15.7935 7.71888 18.6868V18.8068L6.85239 26.5402C6.67638 28.1135 7.9355 29.5002 9.54664 29.5002H24.0198C25.5768 29.5002 26.8359 28.2602 26.8359 26.7268C26.8359 22.3268 23.6949 18.6468 19.4978 17.7268Z" fill="#FA967C"/>
<g style="mix-blend-mode:multiply">
<path d="M25.9646 20.1666C25.5061 20.1734 25.0575 20.2944 24.6642 20.5176C24.271 20.7407 23.9469 21.2425 23.7248 21.6219C23.5027 21.2425 23.1787 20.7407 22.7854 20.5176C22.3921 20.2944 21.9436 20.1734 21.485 20.1666C20.754 20.1967 20.0652 20.4991 19.5692 21.0078C19.0732 21.5166 18.8103 22.1903 18.8379 22.8818C18.8379 25.4911 23.2997 28.7701 23.4894 28.898C23.6319 28.9933 23.8178 28.9933 23.9602 28.898C24.15 28.7709 28.6117 25.4911 28.6117 22.8818C28.6393 22.1903 28.3764 21.5166 27.8804 21.0078C27.3844 20.4991 26.6957 20.1967 25.9646 20.1666Z" fill="#D63D4A"/>
</g>
</svg>
