<svg width="32" height="32" viewBox="0 0 32 32" fill="none" xmlns="http://www.w3.org/2000/svg">
<path d="M5.63005 13.0741C7.26594 13.0744 8.59189 14.4004 8.59229 16.0363V23.444C8.59229 23.8531 8.26064 24.1847 7.85154 24.1847H5.63005C4.81185 24.1847 4.14827 23.5212 4.14827 22.703V19.0257C4.14827 18.7615 4.00284 18.5228 3.7954 18.3592C3.1087 17.8174 2.66668 16.9803 2.6665 16.0376C2.6665 14.4012 3.99365 13.0741 5.63005 13.0741Z" fill="#8C97C8"/>
<path d="M26.3696 13.0741C28.0058 13.0741 29.3329 14.4002 29.3332 16.0363C29.3332 16.9793 28.8911 17.8171 28.2043 18.3591C27.9968 18.5228 27.8514 18.7615 27.8514 19.0257V22.703C27.8514 23.5212 27.1878 24.1847 26.3696 24.1847H24.1481C23.739 24.1847 23.4074 23.8531 23.4074 23.444V16.0363C23.4077 14.4004 24.7337 13.0744 26.3696 13.0741Z" fill="#8C97C8"/>
<path d="M7.33317 6.96296C7.33317 5.32657 8.65973 4 10.2961 4H21.7035C23.3399 4 24.6665 5.32656 24.6665 6.96296V24.2H7.33317V6.96296Z" fill="#8C97C8"/>
<g style="mix-blend-mode:multiply">
<path d="M12.6659 13.2219C13.2793 13.2219 13.7775 13.6995 13.7778 14.2884C13.7778 14.8775 13.2795 15.3561 12.6659 15.3561C12.0524 15.3558 11.5552 14.8773 11.5552 14.2884C11.5555 13.6997 12.0526 13.2222 12.6659 13.2219Z" fill="#5B658C"/>
<path d="M19.3325 13.2219C19.946 13.2219 20.4442 13.6995 20.4445 14.2884C20.4445 14.8775 19.9462 15.3561 19.3325 15.3561C18.7191 15.3558 18.2218 14.8773 18.2218 14.2884C18.2222 13.6997 18.7193 13.2222 19.3325 13.2219Z" fill="#5B658C"/>
<path d="M12.6659 8.03705C13.2794 8.03705 13.7777 8.51447 13.7778 9.10345C13.7778 9.69256 13.2795 10.1699 12.6659 10.1699C12.0524 10.1696 11.5552 9.69242 11.5552 9.10345C11.5553 8.51461 12.0525 8.03727 12.6659 8.03705Z" fill="#5B658C"/>
<path d="M19.3325 8.03705C19.9461 8.03705 20.4444 8.51447 20.4445 9.10345C20.4445 9.69256 19.9462 10.1699 19.3325 10.1699C18.7191 10.1696 18.2218 9.69242 18.2218 9.10345C18.222 8.51461 18.7192 8.03727 19.3325 8.03705Z" fill="#5B658C"/>
</g>
<g style="mix-blend-mode:multiply">
<path d="M5.62939 24.1852H8.59236V24.9259C8.59236 25.335 8.26072 25.6667 7.85162 25.6667H6.37014C5.96104 25.6667 5.62939 25.335 5.62939 24.9259V24.1852Z" fill="#5B658C"/>
<path d="M23.4072 24.1852H26.3701V24.9259C26.3701 25.335 26.0385 25.6667 25.6294 25.6667H24.1479C23.7388 25.6667 23.4072 25.335 23.4072 24.9259V24.1852Z" fill="#5B658C"/>
<path d="M8.59238 20.4815C8.59238 19.6633 9.25566 19 10.0739 19H21.9257C22.7439 19 23.4072 19.6633 23.4072 20.4815L23.4072 24.1852H8.59236L8.59238 20.4815Z" fill="#5B658C"/>
</g>
</svg>
