<svg width="138" height="34" viewBox="0 0 138 34" fill="none" xmlns="http://www.w3.org/2000/svg">
<path fill-rule="evenodd" clip-rule="evenodd" d="M0.571508 1.49057C0.208592 1.87719 0 2.47224 0 3.24547V30.7491C0 31.5223 0.208592 32.1173 0.585075 32.4905L0.683436 32.5729L16.2312 17.162V16.8157L0.669869 1.4082L0.571508 1.49057Z" fill="url(#paint0_linear_12616_343282)"/>
<path fill-rule="evenodd" clip-rule="evenodd" d="M21.4047 22.3195L16.2188 17.1775V16.8178L21.4064 11.6758L21.5183 11.7447L27.654 15.2007C29.4109 16.1824 29.4109 17.7995 27.654 18.7946L21.5183 22.2506C21.5167 22.2506 21.4047 22.3195 21.4047 22.3195Z" fill="url(#paint1_linear_12616_343282)"/>
<path fill-rule="evenodd" clip-rule="evenodd" d="M21.5143 22.25L16.2164 16.9971L0.570312 32.5054C1.14182 33.1139 2.10338 33.1829 3.17856 32.5878L21.5143 22.25Z" fill="url(#paint2_linear_12616_343282)"/>
<path fill-rule="evenodd" clip-rule="evenodd" d="M21.5143 11.7465L3.17856 1.42216C2.10508 0.813659 1.14182 0.896025 0.570312 1.50453L16.2147 16.9978L21.5143 11.7465Z" fill="url(#paint3_linear_12616_343282)"/>
<path opacity="0.2" fill-rule="evenodd" clip-rule="evenodd" d="M21.4044 22.1396L3.19419 32.3951C2.17666 32.975 1.26937 32.9347 0.684298 32.4085L0.585938 32.506L0.684298 32.5884C1.26937 33.1128 2.17666 33.1549 3.19419 32.5749L21.5299 22.2506L21.4044 22.1396Z" fill="black"/>
<path opacity="0.12" fill-rule="evenodd" clip-rule="evenodd" d="M27.6518 18.6141L21.3906 22.1391L21.5026 22.25L27.6382 18.794C28.5167 18.2964 28.9491 17.6476 28.9491 16.9971C28.8932 17.5921 28.4471 18.1586 27.6518 18.6141Z" fill="black"/>
<path opacity="0.25" fill-rule="evenodd" clip-rule="evenodd" d="M3.17976 1.60164L27.6512 15.382C28.4465 15.8241 28.8926 16.404 28.9621 16.9991C28.9621 16.3502 28.5296 15.6997 27.6512 15.2021L3.17976 1.42178C1.42284 0.426659 0 1.25536 0 3.2456V3.42546C0 1.43522 1.42284 0.619968 3.17976 1.60164Z" fill="white"/>
<path fill-rule="evenodd" clip-rule="evenodd" d="M34.9331 16.1247C34.9331 11.719 38.6691 8.13184 43.114 8.13184C45.5713 8.13184 47.3197 9.08829 48.6391 10.3339L47.0857 11.8736C46.1428 10.9962 44.8641 10.3154 43.1123 10.3154C39.8664 10.3154 37.3293 12.9057 37.3293 16.123C37.3293 19.3404 39.8664 21.9341 43.1106 21.9341C45.2151 21.9341 46.4124 21.0969 47.1807 20.3338C47.8098 19.7102 48.2219 18.8142 48.3813 17.5855H43.114V15.407H50.5283C50.6063 15.7969 50.647 16.2642 50.647 16.7702C50.647 18.4058 50.1942 20.4347 48.7375 21.8786C47.3197 23.341 45.5119 24.121 43.1123 24.121C38.6657 24.121 34.9297 20.5372 34.9297 16.1281L34.9331 16.1247ZM56.6402 13.8252C53.7691 13.8252 51.4254 15.9902 51.4254 18.9706C51.4254 21.9357 53.7674 24.1159 56.6402 24.1159C59.513 24.1159 61.8516 21.9324 61.8516 18.9689C61.8516 15.9886 59.5113 13.8235 56.6402 13.8252ZM56.6402 22.0921C55.0681 22.0921 53.7098 20.8061 53.7098 18.9722C53.7098 17.1198 55.0665 15.8524 56.6402 15.8524C58.2123 15.8524 59.569 17.1182 59.569 18.9722C59.569 20.8045 58.214 22.0921 56.6402 22.0921ZM68.011 13.8252C65.1399 13.8252 62.7996 15.9902 62.7996 18.9706C62.7996 21.9357 65.1399 24.1159 68.011 24.1159C70.8821 24.1159 73.2224 21.9324 73.2224 18.9689C73.2224 15.9886 70.8838 13.8235 68.011 13.8252ZM68.011 22.0921C66.439 22.0921 65.0806 20.8061 65.0806 18.9722C65.0806 17.1198 66.4373 15.8524 68.011 15.8524C69.5831 15.8524 70.9415 17.1182 70.9415 18.9722C70.9415 20.8045 69.5831 22.0921 68.011 22.0921ZM81.9663 14.1378V14.975H81.8883C81.3779 14.3681 80.3943 13.8235 79.1563 13.8235C76.5599 13.8235 74.1772 16.0861 74.1772 18.9924C74.1772 21.8752 76.5582 24.1193 79.1563 24.1193C80.3943 24.1193 81.3779 23.5747 81.8883 22.951H81.9663V23.6906C81.9663 25.659 80.9047 26.713 79.1936 26.713C77.7962 26.713 76.9313 25.7179 76.5769 24.8824L74.5893 25.701C75.1591 27.0643 76.6752 28.7419 79.1919 28.7419C81.8646 28.7419 84.1269 27.1803 84.1269 23.3797V14.1362L81.9663 14.1378ZM79.3513 22.0921C77.7792 22.0921 76.4582 20.7843 76.4582 18.9924C76.4582 17.1803 77.7776 15.8541 79.3513 15.8541C80.9047 15.8541 82.1241 17.1787 82.1241 18.9924C82.1258 20.7843 80.9064 22.0921 79.3513 22.0921ZM85.7024 8.67814H87.985V23.8066H85.7024V8.67814ZM94.2411 22.0921C93.0811 22.0921 92.2535 21.5642 91.7261 20.5338L98.669 17.6846L98.4299 17.0997C97.9991 15.9516 96.6797 13.8252 93.985 13.8252C91.3106 13.8252 89.0873 15.9112 89.0873 18.9722C89.0873 21.855 91.2902 24.1176 94.2411 24.1176C96.6221 24.1176 97.9991 22.677 98.5689 21.8366L96.7984 20.6683C96.2066 21.5273 95.3993 22.0937 94.2411 22.0921ZM94.063 15.8137C94.9669 15.8137 95.7334 16.2626 95.9895 16.9047L91.3462 18.8159C91.2885 16.8274 92.9013 15.8137 94.063 15.8137Z" fill="white"/>
<path fill-rule="evenodd" clip-rule="evenodd" d="M108.684 8.67773H103.227V23.8062H105.504V18.0759H108.686C111.211 18.0759 113.693 16.2638 113.693 13.376C113.693 10.4932 111.212 8.67942 108.689 8.67942L108.684 8.67773ZM108.743 15.9697H105.504V10.7823H108.743C110.446 10.7823 111.416 12.1825 111.416 13.376C111.416 14.5493 110.446 15.9697 108.743 15.9697ZM117.226 23.8062V8.67773H114.948V23.8062H117.226ZM127.457 23.7793V17.9801C127.457 15.2939 125.432 13.7962 122.819 13.7962C121.172 13.7962 119.465 14.5173 118.757 16.1125L120.779 16.948C121.211 16.1125 122.015 15.8385 122.861 15.8385C124.038 15.8385 125.236 16.5395 125.254 17.7868V17.9431C124.842 17.7094 123.96 17.3581 122.878 17.3581C120.699 17.3581 118.481 18.5449 118.481 20.7637C118.481 22.7892 120.268 24.092 122.271 24.092C123.804 24.092 124.647 23.4112 125.176 22.6144H125.254V23.7827H127.455L127.457 23.7793ZM122.548 22.0883C121.801 22.0883 120.76 21.7185 120.76 20.8057C120.76 19.6375 122.058 19.187 123.177 19.187C124.179 19.187 124.649 19.4005 125.259 19.6929C125.085 21.0512 123.926 22.0715 122.548 22.0883ZM135.467 14.1273L132.855 20.6847H132.777L130.067 14.1273H127.613L131.676 23.2952L129.358 28.3935H131.734L137.997 14.1273H135.467Z" fill="white"/>
<defs>
<linearGradient id="paint0_linear_12616_343282" x1="14.8351" y1="2.94984" x2="-10.0403" y2="9.63677" gradientUnits="userSpaceOnUse">
<stop stop-color="#00A0FF"/>
<stop offset="0.007" stop-color="#00A1FF"/>
<stop offset="0.26" stop-color="#00BEFF"/>
<stop offset="0.512" stop-color="#00D2FF"/>
<stop offset="0.76" stop-color="#00DFFF"/>
<stop offset="1" stop-color="#00E3FF"/>
</linearGradient>
<linearGradient id="paint1_linear_12616_343282" x1="29.9402" y1="16.9984" x2="-0.425863" y2="16.9984" gradientUnits="userSpaceOnUse">
<stop stop-color="#FFE000"/>
<stop offset="0.409" stop-color="#FFBD00"/>
<stop offset="0.775" stop-color="#FFA500"/>
<stop offset="1" stop-color="#FF9C00"/>
</linearGradient>
<linearGradient id="paint2_linear_12616_343282" x1="18.6335" y1="19.8547" x2="-1.09999" y2="53.3623" gradientUnits="userSpaceOnUse">
<stop stop-color="#FF3A44"/>
<stop offset="1" stop-color="#C31162"/>
</linearGradient>
<linearGradient id="paint3_linear_12616_343282" x1="-3.3682" y1="-7.65794" x2="5.43544" y2="7.307" gradientUnits="userSpaceOnUse">
<stop stop-color="#32A071"/>
<stop offset="0.069" stop-color="#2DA771"/>
<stop offset="0.476" stop-color="#15CF74"/>
<stop offset="0.801" stop-color="#06E775"/>
<stop offset="1" stop-color="#00F076"/>
</linearGradient>
</defs>
</svg>
