<svg width="138" height="34" viewBox="0 0 138 34" fill="none" xmlns="http://www.w3.org/2000/svg">
<path d="M36.517 23.3406H33.5006V27.5277C34.7474 27.5509 35.9937 27.4591 37.2236 27.2535L37.3344 28.1559C35.918 28.3768 34.4858 28.4807 33.0523 28.4665H32.3984V22.4277H36.517L36.517 23.3406ZM39.0219 25.0223H40.3244V25.941H39.0219V30.5547H37.9092V21.584H39.0219V25.0223Z" fill="white"/>
<path d="M49.2629 26.0041V26.89H45.8352V28.5822H44.712V26.89H41.1523V26.0041H49.2629ZM42.0963 23.6357C42.0963 22.5963 43.3039 21.8428 45.2129 21.8428C47.1219 21.8428 48.3401 22.5963 48.3401 23.6357C48.3401 24.6904 47.1219 25.444 45.2235 25.444C43.3039 25.4439 42.0963 24.6904 42.0963 23.6357ZM43.2617 29.4307H48.3295V30.3119H42.1596V27.7595H43.2617V29.4307ZM43.2301 23.6463C43.2301 24.2205 44.0685 24.5908 45.2076 24.5908C46.3836 24.5908 47.1957 24.2205 47.1957 23.6463C47.1957 23.0604 46.3889 22.6865 45.2129 22.6865C44.0685 22.6865 43.2301 23.0604 43.2301 23.6463Z" fill="white"/>
<path d="M58.384 28.5352V29.4211H50.2734V28.5352H53.7697V27.0738H51.3123V24.1313H56.2324V23.0391H51.2965V22.1484H57.3557V25.0277H52.4197V26.1879H57.5824V27.0738H54.8772V28.5351L58.384 28.5352Z" fill="white"/>
<path d="M67.5051 29.3623H59.3945V28.4764H67.5051L67.5051 29.3623ZM66.4609 23.2404H61.5408V25.7084H66.5295V26.6037H60.4439V22.3428H66.4609L66.4609 23.2404Z" fill="white"/>
<path d="M76.4109 24.6273H71.1797V23.7472H76.4109L76.4109 24.6273ZM73.8422 28.852C73.4756 28.8061 73.1301 28.6555 72.8471 28.4181C72.5641 28.1807 72.3556 27.8666 72.2467 27.5137C72.1377 27.1607 72.133 26.7838 72.233 26.4282C72.333 26.0726 72.5335 25.7534 72.8104 25.5089C73.0873 25.2645 73.429 25.1051 73.7942 25.05C74.1595 24.9949 74.5329 25.0464 74.8696 25.1983C75.2064 25.3502 75.4921 25.5961 75.6925 25.9064C75.893 26.2167 75.9996 26.5782 75.9996 26.9476C75.9932 27.2177 75.931 27.4836 75.817 27.7286C75.703 27.9736 75.5395 28.1923 75.337 28.3711C75.1344 28.5499 74.897 28.685 74.6398 28.7677C74.3826 28.8505 74.111 28.8792 73.8422 28.852ZM75.198 23.0665H72.477V22.1653H75.1981L75.198 23.0665ZM73.8422 27.9754C73.9829 27.9842 74.124 27.9641 74.2566 27.9162C74.3893 27.8684 74.5108 27.7939 74.6135 27.6973C74.7163 27.6008 74.7982 27.4842 74.8542 27.3548C74.9102 27.2253 74.9391 27.0858 74.9391 26.9448C74.9391 26.8038 74.9102 26.6642 74.8542 26.5348C74.7982 26.4054 74.7163 26.2888 74.6135 26.1922C74.5108 26.0957 74.3893 26.0212 74.2566 25.9733C74.124 25.9255 73.9829 25.9053 73.8422 25.9141C73.7036 25.9089 73.5654 25.9317 73.4358 25.9812C73.3062 26.0306 73.1879 26.1057 73.088 26.2019C72.9881 26.2981 72.9086 26.4135 72.8544 26.5412C72.8001 26.6688 72.7721 26.8061 72.7721 26.9448C72.7721 27.0835 72.8001 27.2208 72.8544 27.3484C72.9086 27.476 72.9881 27.5914 73.088 27.6876C73.1879 27.7839 73.3062 27.8589 73.4358 27.9084C73.5654 27.9578 73.7036 27.9806 73.8422 27.9754ZM78.2297 25.2918H79.5164V26.2036H78.2297V30.5548H77.1234V21.5898H78.2297L78.2297 25.2918Z" fill="white"/>
<path d="M80.9941 28.9246L80.3672 28.0551C81.3011 27.6545 82.1159 27.0199 82.733 26.2126C83.35 25.4052 83.7485 24.4524 83.8899 23.4461H80.8676V22.5285H85.0711C85.0586 23.8694 84.6698 25.1799 83.949 26.3107C83.2282 27.4415 82.2044 28.3472 80.9941 28.9246ZM87.7652 30.5605H86.6531V21.584H87.7652V30.5605Z" fill="white"/>
<path d="M40.3918 12.8645H35.5379L34.3731 16.3062H32.3164L36.9148 3.57031H39.05L43.6484 16.3062H41.5566L40.3918 12.8645ZM36.0406 11.2754H39.889L37.9906 5.68909H37.9379L36.0406 11.2754Z" fill="white"/>
<path d="M53.5934 11.6648C53.5934 14.55 52.0488 16.4039 49.7191 16.4039C49.1287 16.435 48.5416 16.2991 48.0248 16.0119C47.5081 15.7246 47.0828 15.2976 46.7977 14.7797H46.7543V19.3781H44.8477V7.02186H46.6922V8.56639H46.7273C47.0256 8.0509 47.4581 7.62596 47.9787 7.33684C48.4994 7.04772 49.0887 6.90524 49.684 6.92459C52.0406 6.92459 53.5934 8.7867 53.5934 11.6648ZM51.634 11.6648C51.634 9.78397 50.6637 8.54881 49.1812 8.54881C47.7246 8.54881 46.7449 9.81093 46.7449 11.6648C46.7449 13.5351 47.7246 14.7891 49.1812 14.7891C50.6637 14.789 51.634 13.5621 51.634 11.6648Z" fill="white"/>
<path d="M63.8355 11.6648C63.8355 14.55 62.291 16.4039 59.9613 16.4039C59.3709 16.435 58.7837 16.2992 58.267 16.0119C57.7503 15.7246 57.325 15.2976 57.0398 14.7797H56.9965V19.3781H55.0898V7.02186H56.9344V8.56639H56.9695C57.2678 8.0509 57.7003 7.62596 58.2209 7.33684C58.7416 7.04772 59.3309 6.90524 59.9262 6.92459C62.2828 6.92459 63.8355 8.7867 63.8355 11.6648ZM61.8762 11.6648C61.8762 9.78397 60.9059 8.54881 59.4234 8.54881C57.9668 8.54881 56.9871 9.81093 56.9871 11.6648C56.9871 13.5351 57.9668 14.7891 59.4234 14.7891C60.9059 14.789 61.8762 13.5621 61.8762 11.6648Z" fill="white"/>
<path d="M70.6174 12.7578C70.7592 14.0199 71.985 14.8496 73.662 14.8496C75.2686 14.8496 76.4252 14.0199 76.4252 12.882C76.4252 11.893 75.728 11.3023 74.0768 10.8957L72.4268 10.4984C70.0878 9.9336 69.0026 8.84023 69.0026 7.06602C69.0026 4.86876 70.9174 3.35938 73.6362 3.35938C76.328 3.35938 78.1725 4.86875 78.2346 7.06602H76.3104C76.1956 5.79454 75.1456 5.02696 73.6092 5.02696C72.074 5.02696 71.0241 5.80391 71.0241 6.9336C71.0241 7.8336 71.6944 8.36329 73.3362 8.76876L74.7389 9.11329C77.351 9.73087 78.4373 10.7809 78.4373 12.6441C78.4373 15.0266 76.54 16.5184 73.5213 16.5184C70.6971 16.5184 68.791 15.0617 68.668 12.7578L70.6174 12.7578Z" fill="white"/>
<path d="M82.5629 4.82324V7.0205H84.3277V8.52987H82.5629V13.6486C82.5629 14.4432 82.9156 14.8135 83.6926 14.8135C83.9018 14.8103 84.1107 14.7958 84.3184 14.7701V16.2701C83.9695 16.335 83.6149 16.3645 83.2601 16.358C81.3793 16.358 80.6469 15.6525 80.6469 13.8514V8.52989H79.2969V7.02051H80.6469V4.82324H82.5629Z" fill="white"/>
<path d="M85.3711 11.6641C85.3711 8.74257 87.0914 6.90625 89.775 6.90625C92.4668 6.90625 94.1789 8.74257 94.1789 11.6641C94.1789 14.5938 92.4762 16.4207 89.775 16.4207C87.0738 16.4207 85.3711 14.5938 85.3711 11.6641ZM92.2371 11.6641C92.2371 9.66015 91.3195 8.47773 89.775 8.47773C88.2305 8.47773 87.3129 9.66836 87.3129 11.6641C87.3129 13.6762 88.2305 14.8492 89.775 14.8492C91.3195 14.8492 92.2371 13.6762 92.2371 11.6641Z" fill="white"/>
<path d="M95.7461 7.02175H97.5637V8.60144H97.6082C97.731 8.10799 98.02 7.67189 98.4266 7.36648C98.8332 7.06107 99.3325 6.90498 99.8406 6.92448C100.061 6.9231 100.28 6.94709 100.495 6.99596V8.77838C100.217 8.69381 99.9278 8.65502 99.6379 8.66354C99.3611 8.65224 99.0852 8.70098 98.829 8.80641C98.5729 8.91185 98.3426 9.07148 98.154 9.27434C97.9654 9.4772 97.8229 9.71848 97.7364 9.98162C97.6499 10.2447 97.6213 10.5235 97.6527 10.7987V16.3065H95.7461V7.02175Z" fill="white"/>
<path d="M109.282 13.5789C109.072 14.4564 108.551 15.2282 107.816 15.7508C107.081 16.2734 106.181 16.5115 105.283 16.4207C102.583 16.4207 100.906 14.6114 100.906 11.7075C100.906 8.79534 102.591 6.90625 105.205 6.90625C107.772 6.90625 109.387 8.67109 109.387 11.4871V12.1398H102.83V12.2547C102.8 12.5964 102.843 12.9406 102.956 13.2645C103.069 13.5884 103.249 13.8845 103.485 14.1333C103.722 14.382 104.008 14.5776 104.326 14.7071C104.643 14.8366 104.985 14.897 105.328 14.8844C105.778 14.9267 106.23 14.8225 106.616 14.5872C107.003 14.352 107.303 13.9984 107.472 13.5789H109.282ZM102.839 10.8075H107.482C107.499 10.5003 107.452 10.1929 107.345 9.90459C107.237 9.61628 107.071 9.35326 106.858 9.13201C106.644 8.91076 106.387 8.73605 106.102 8.61883C105.818 8.50161 105.512 8.44441 105.205 8.45081C104.894 8.4489 104.586 8.50848 104.299 8.62612C104.012 8.74376 103.751 8.91713 103.531 9.13622C103.311 9.35531 103.136 9.61579 103.018 9.90263C102.899 10.1895 102.838 10.497 102.839 10.8075Z" fill="white"/>
<path d="M117.104 3.78379H118.589V15.6982H117.104V9.68419H116.015C115.879 11.8088 115.016 13.6557 113.274 13.6557C111.36 13.6557 110.512 11.4338 110.512 9.06192C110.512 6.68887 111.36 4.51272 113.274 4.51272C114.979 4.51272 115.841 6.23889 116.007 8.29552H117.104L117.104 3.78379ZM114.573 9.06192C114.573 7.31232 114.153 5.97637 113.274 5.97637C112.418 5.97637 112.028 7.3123 112.028 9.06192C112.028 10.8186 112.418 12.1393 113.274 12.1393C114.153 12.1393 114.573 10.8186 114.573 9.06192ZM121.186 3.52832V16.2982H119.7V3.52832H121.186Z" fill="white"/>
<path d="M127.905 6.52462C127.853 7.64986 128.122 8.76683 128.68 9.74517C129.238 10.7235 130.063 11.5229 131.059 12.05L130.136 13.2441C128.771 12.4683 127.706 11.2578 127.11 9.80587C126.569 11.3862 125.483 12.7223 124.046 13.5746L123.07 12.418C124.088 11.8311 124.924 10.9759 125.488 9.9459C126.052 8.91586 126.323 7.75058 126.27 6.57735V4.60273H127.905L127.905 6.52462ZM133.889 16.2992H132.298V9.27968H129.737V7.93672H132.298V3.5293H133.889V16.2992Z" fill="white"/>
<path d="M20.7216 17.3598C20.7345 16.3582 21.0006 15.3762 21.495 14.505C21.9894 13.6339 22.6962 12.9019 23.5495 12.3773C23.0074 11.6031 22.2923 10.966 21.4609 10.5166C20.6295 10.0671 19.7047 9.81768 18.7601 9.78812C16.745 9.57661 14.7915 10.9939 13.7646 10.9939C12.7179 10.9939 11.1369 9.80912 9.43442 9.84415C8.33321 9.87973 7.25999 10.2 6.31934 10.7736C5.37869 11.3473 4.60268 12.1548 4.06691 13.1176C1.74612 17.1357 3.47722 23.041 5.70035 26.2889C6.81263 27.8793 8.11257 29.6559 9.81351 29.5929C11.478 29.5238 12.0996 28.5315 14.1088 28.5315C16.0993 28.5315 16.6825 29.5928 18.418 29.5528C20.204 29.5238 21.3293 27.9553 22.4026 26.3498C23.2018 25.2166 23.8167 23.9641 24.2247 22.6388C23.1871 22.1999 22.3016 21.4653 21.6786 20.5266C21.0557 19.5878 20.7228 18.4865 20.7216 17.3598Z" fill="white"/>
<path d="M17.4467 7.65261C18.4205 6.48356 18.9003 4.98095 18.7841 3.46387C17.2963 3.62013 15.922 4.3312 14.935 5.4554C14.4524 6.0046 14.0828 6.64352 13.8473 7.33565C13.6118 8.02777 13.515 8.75952 13.5625 9.48907C14.3067 9.49673 15.0429 9.33543 15.7157 9.01733C16.3885 8.69922 16.9803 8.2326 17.4467 7.65261Z" fill="white"/>
</svg>
