<svg width="32" height="33" viewBox="0 0 32 33" fill="none" xmlns="http://www.w3.org/2000/svg">
<rect x="3.5" y="8.53174" width="25.3333" height="17.1613" rx="1.34367" fill="#65B9EC"/>
<rect x="3.5" y="8.53174" width="25.3333" height="17.1613" rx="1.34367" fill="#FA967C"/>
<ellipse cx="26.3807" cy="10.8595" rx="0.924666" ry="0.924667" fill="white"/>
<g style="mix-blend-mode:multiply">
<ellipse cx="16.1673" cy="16.6902" rx="5.06667" ry="5.06667" fill="#285FA4"/>
<ellipse cx="16.1673" cy="16.6902" rx="5.06667" ry="5.06667" fill="#D63D4A"/>
</g>
<path d="M12.002 17.2539C12.002 15.9672 12.774 13.265 15.8623 12.7502C14.8329 13.7797 12.8598 16.1816 12.002 17.2539Z" fill="white"/>
<path d="M9.41113 7.73914C9.41113 6.34002 10.5453 5.20581 11.9445 5.20581H20.3889C21.788 5.20581 22.9222 6.34002 22.9222 7.73914V8.58359H9.41113V7.73914Z" fill="#D9D9D9"/>
<path d="M9.41113 7.73914C9.41113 6.34002 10.5453 5.20581 11.9445 5.20581H20.3889C21.788 5.20581 22.9222 6.34002 22.9222 7.73914V8.58359H9.41113V7.73914Z" fill="#313D4C"/>
<path d="M9.41113 7.73914C9.41113 6.34002 10.5453 5.20581 11.9445 5.20581H20.3889C21.788 5.20581 22.9222 6.34002 22.9222 7.73914V8.58359H9.41113V7.73914Z" fill="#D63D4A"/>
</svg>
