<svg width="32" height="33" viewBox="0 0 32 33" fill="none" xmlns="http://www.w3.org/2000/svg">
<path d="M21.6648 5.7334C20.5392 5.75009 19.4381 6.04958 18.4728 6.60162C17.5075 7.15367 16.7121 8.39487 16.167 9.33366C15.6219 8.39487 14.8265 7.15367 13.8612 6.60162C12.8959 6.04958 11.7948 5.75009 10.6692 5.7334C8.87488 5.80771 7.18432 6.55588 5.96689 7.81446C4.74946 9.07304 4.10411 10.7397 4.17183 12.4504C4.17183 18.9054 15.1234 27.0173 15.5892 27.3337L16.167 27.7233L16.7448 27.3337C17.2106 27.0192 28.1622 18.9054 28.1622 12.4504C28.2299 10.7397 27.5845 9.07304 26.3671 7.81446C25.1497 6.55588 23.4591 5.80771 21.6648 5.7334Z" fill="#FA967C"/>
<path d="M16.1674 27.7234L15.5896 27.3337C15.1759 27.0528 6.49226 20.6235 4.55371 14.6667H27.7811C25.8426 20.6239 17.1588 27.0545 16.7452 27.3337L16.1674 27.7234Z" fill="#D63D4A"/>
</svg>
