<svg width="20" height="20" viewBox="0 0 20 20" fill="none" xmlns="http://www.w3.org/2000/svg">
<path d="M10.253 12.6699C10.5891 12.7042 10.8512 12.9881 10.8512 13.3332C10.8512 13.6783 10.5891 13.9622 10.253 13.9964L10.1847 13.9997H6.66659C6.2984 13.9997 6.00008 13.7014 6.00008 13.3332C6.00008 12.965 6.2984 12.6667 6.66659 12.6667H10.1847L10.253 12.6699Z" fill="#8A949E"/>
<path d="M13.4016 9.33659C13.7376 9.37089 13.9998 9.65478 13.9998 9.99984C13.9998 10.3449 13.7376 10.6288 13.4016 10.6631L13.3333 10.6663H6.66659C6.2984 10.6663 6.00008 10.368 6.00008 9.99984C6.00008 9.63165 6.2984 9.33333 6.66659 9.33333H13.3333L13.4016 9.33659Z" fill="#8A949E"/>
<path fill-rule="evenodd" clip-rule="evenodd" d="M9.99992 1C10.8883 1.00006 11.6626 1.56608 11.9335 2.36963C12.7862 2.40568 13.5018 3.05884 13.5725 3.91667H15.1667L15.3197 3.92399C16.0761 4.00084 16.6666 4.63988 16.6666 5.4165V16.8333C16.6665 17.6615 15.9949 18.3329 15.1667 18.3332H4.83309C4.00472 18.3332 3.33334 17.6617 3.33325 16.8333V5.4165C3.33325 4.58808 4.00466 3.91667 4.83309 3.91667H6.42326C6.49405 3.05794 7.21169 2.40444 8.06551 2.36963C8.33633 1.56593 9.11143 1 9.99992 1ZM4.83309 5.24967C4.74104 5.24967 4.66626 5.32446 4.66626 5.4165V16.8333C4.66635 16.9253 4.7411 17.0002 4.83309 17.0002H15.1667C15.2585 16.9999 15.3327 16.9251 15.3328 16.8333V5.4165C15.3328 5.33603 15.276 5.26854 15.2001 5.25293L15.1667 5.24967H13.5831V5.4222C13.5831 6.03972 13.0707 6.49959 12.4934 6.49967H7.50643C6.91886 6.49967 6.41675 6.02989 6.41675 5.4222V5.24967H4.83309ZM9.99992 2.33301C9.59311 2.33301 9.29598 2.64984 9.29598 2.99788V3.03288L9.29272 3.10124C9.25856 3.4372 8.97439 3.69912 8.62948 3.69938H8.13713C7.90553 3.69938 7.74995 3.8779 7.74976 4.05583V5.16667H12.2501V4.74268L12.2468 4.05908V4.05583L12.2395 3.98991C12.2067 3.83643 12.0622 3.69945 11.8595 3.69938H11.3671C11.0221 3.69922 10.738 3.43725 10.7039 3.10124L10.7006 3.03288C10.7006 3.0146 10.7021 2.99796 10.703 2.98324C10.695 2.64098 10.401 2.33309 9.99992 2.33301Z" fill="#8A949E"/>
</svg>
