<svg width="37" height="36" viewBox="0 0 37 36" fill="none" xmlns="http://www.w3.org/2000/svg">
<ellipse cx="18.617" cy="27.9837" rx="17.0667" ry="3.2" fill="#ACB1B6" fill-opacity="0.2"/>
<path d="M29.8622 22.0846C29.2248 25.8953 26.9443 28.5274 18.7848 28.5274C10.6254 28.5274 8.34488 25.8953 7.70749 22.0846C7.38473 21.9936 7.07287 21.8518 6.78407 21.6593L5.91221 21.0781C5.46433 20.7795 5.19531 20.2768 5.19531 19.7385V18.7797C5.19531 14.2314 7.3716 9.95769 11.05 7.28251C11.293 7.10579 11.5903 7.0106 11.8907 7.0106C12.3292 7.0106 12.7128 7.19189 12.9862 7.47331C14.6823 6.46026 16.6656 5.87814 18.7848 5.87814C20.9041 5.87814 22.8873 6.46026 24.5835 7.47331C24.8569 7.19189 25.2404 7.0106 25.6789 7.0106C25.9794 7.0106 26.2767 7.10579 26.5197 7.28251C30.1981 9.95769 32.3744 14.2314 32.3744 18.7797V19.7385C32.3744 20.2768 32.1053 20.7795 31.6575 21.0781L30.7856 21.6593C30.4968 21.8518 30.1849 21.9936 29.8622 22.0846Z" fill="white"/>
<path d="M30.1092 17.2027C30.1092 23.4572 30.1092 28.5274 18.7846 28.5274C7.45996 28.5274 7.45996 23.4572 7.45996 17.2027C7.45996 10.9483 12.5302 5.87814 18.7846 5.87814C25.039 5.87814 30.1092 10.9483 30.1092 17.2027Z" fill="#EECBAE"/>
<ellipse cx="16.2365" cy="22.2994" rx="2.54804" ry="1.69869" fill="white"/>
<ellipse cx="21.3332" cy="22.2994" rx="2.54804" ry="1.69869" fill="white"/>
<path d="M15.9534 17.2028C15.9534 17.8282 15.4464 18.3352 14.8209 18.3352C14.1955 18.3352 13.6885 17.8282 13.6885 17.2028C13.6885 16.5773 14.1955 16.0703 14.8209 16.0703C15.4464 16.0703 15.9534 16.5773 15.9534 17.2028Z" fill="#313D4C"/>
<path d="M21.0495 20.317C21.0495 21.2552 20.0354 22.0157 18.7845 22.0157C17.5337 22.0157 16.5196 21.2552 16.5196 20.317C16.5196 19.3789 17.5337 18.6183 18.7845 18.6183C20.0354 18.6183 21.0495 19.3789 21.0495 20.317Z" fill="#313D4C"/>
<path d="M22.7482 18.3352C23.3736 18.3352 23.8806 17.8282 23.8806 17.2028C23.8806 16.5773 23.3736 16.0703 22.7482 16.0703C22.1227 16.0703 21.6157 16.5773 21.6157 17.2028C21.6157 17.8282 22.1227 18.3352 22.7482 18.3352Z" fill="#313D4C"/>
<path d="M14.3536 6.03194C15.47 5.74382 16.2175 7.15312 15.3528 7.91585L15.2504 8.00619C12.571 10.3696 10.8875 13.6612 10.5397 17.217L10.3907 18.7401C10.3264 19.3967 10.0506 20.0148 9.60482 20.5011C7.93395 22.3239 4.90201 21.5002 4.38322 19.0825L4.23608 18.3968C4.16438 18.0626 4.15452 17.7181 4.207 17.3804L4.23536 17.1979C5.07586 11.7894 9.05376 7.3996 14.3536 6.03194Z" fill="#7E6254"/>
<path d="M23.2168 6.03194C22.1003 5.74382 21.3528 7.15312 22.2175 7.91585L22.3199 8.00619C24.9993 10.3696 26.6828 13.6612 27.0306 17.217L27.1796 18.7401C27.2439 19.3967 27.5197 20.0148 27.9655 20.5011C29.6364 22.3239 32.6683 21.5002 33.1871 19.0825L33.3342 18.3968C33.4059 18.0626 33.4158 17.7181 33.3633 17.3804L33.3349 17.1979C32.4944 11.7894 28.5166 7.3996 23.2168 6.03194Z" fill="#7E6254"/>
</svg>
