<svg width="37" height="36" viewBox="0 0 37 36" fill="none" xmlns="http://www.w3.org/2000/svg">
<ellipse cx="18.117" cy="27.9833" rx="17.0667" ry="3.2" fill="#ACB1B6" fill-opacity="0.2"/>
<path fill-rule="evenodd" clip-rule="evenodd" d="M12.7395 4.79092C12.29 4.79108 11.8486 4.91958 11.4599 5.1634C11.0712 5.40722 10.749 5.7577 10.5261 6.17933L5.9616 14.8087C5.74106 15.2251 5.62503 15.6966 5.625 16.1764V22.3719C5.62503 22.7993 5.71713 23.2209 5.89402 23.6033L7.31947 26.6831C7.5312 27.1408 7.85675 27.5258 8.25963 27.7949C8.66251 28.0639 9.1268 28.2065 9.60045 28.2065H10.725C11.4013 28.2065 12.0499 27.9163 12.5281 27.3996C13.0063 26.883 13.275 26.1823 13.275 25.4517H23.475C23.475 26.1823 23.7437 26.883 24.2219 27.3996C24.7001 27.9163 25.3487 28.2065 26.025 28.2065H27.1495C27.6232 28.2065 28.0875 28.0639 28.4904 27.7949C28.8933 27.5258 29.2188 27.1408 29.4305 26.6831L30.856 23.6033C31.0332 23.2217 31.125 22.7989 31.125 22.3719V16.1764C31.125 15.6966 31.0089 15.2251 30.7884 14.8087L26.2239 6.17933C26.001 5.7577 25.6788 5.40722 25.2901 5.1634C24.9014 4.91958 24.46 4.79108 24.0105 4.79092H12.7395Z" fill="#FA967C"/>
<g style="mix-blend-mode:multiply">
<path d="M8.25249 27.7975C7.84961 27.5284 7.52406 27.1435 7.31233 26.6857L6.59961 25.1458H30.1361L29.4234 26.6857C29.2117 27.1435 28.8861 27.5284 28.4832 27.7975C28.0804 28.0666 27.6161 28.2091 27.1424 28.2091H26.0179C25.3416 28.2091 24.693 27.9189 24.2147 27.4023C23.7365 26.8856 23.4679 26.185 23.4679 25.4543H13.2679C13.2679 26.185 12.9992 26.8856 12.521 27.4023C12.0428 27.9189 11.3942 28.2091 10.7179 28.2091H9.59331C9.11966 28.2091 8.65537 28.0666 8.25249 27.7975Z" fill="#786BEE"/>
</g>
<path d="M9.86958 12.9954L11.9516 8.31093C12.1395 7.888 12.5589 7.61545 13.0217 7.61545H23.9914C24.4543 7.61545 24.8737 7.888 25.0616 8.31093L27.1436 12.9954C27.4878 13.7698 26.9209 14.6421 26.0734 14.6421H10.9398C10.0923 14.6421 9.52539 13.7698 9.86958 12.9954Z" fill="#D5E0FF"/>
<circle cx="12.0653" cy="20.0145" r="1.75667" fill="white"/>
<circle cx="24.9481" cy="20.0145" r="1.75667" fill="white"/>
</svg>
