<svg width="32" height="32" viewBox="0 0 32 32" fill="none" xmlns="http://www.w3.org/2000/svg">
<path d="M13.8548 13.3913L9.91424 5.51013C9.56734 4.81632 10.0719 4 10.8476 4L19.9925 4C20.7682 4 21.2727 4.81632 20.9258 5.51013L16.9852 13.3913H13.8548Z" fill="#FA967C"/>
<path d="M26.8986 19.1306C26.8986 24.1394 22.7247 28.0001 18.5508 28.0001H12.2899C8.11604 28.0001 3.94214 24.1394 3.94214 19.1306C3.94214 12.6516 9.08112 8.6958 15.4204 8.6958C21.7596 8.6958 26.8986 12.6516 26.8986 19.1306Z" fill="#FA967C"/>
<path d="M15.4945 15.2407C15.7058 15.2407 15.9232 15.2999 16.105 15.4358C16.259 15.5508 16.3901 15.7212 16.4654 15.9654L17.509 19.7104L18.5243 15.8526C18.5855 15.6107 18.7219 15.4469 18.8934 15.3489C19.0721 15.2468 19.2959 15.2164 19.5291 15.2655C19.7721 15.3145 19.9451 15.4396 20.0477 15.6058C20.1497 15.771 20.1858 15.9845 20.1252 16.2289L19.5917 18.1245L20.6942 18.1246C20.9143 18.1246 21.1136 18.2132 21.2579 18.3565C21.4022 18.4997 21.4914 18.6976 21.4914 18.9162C21.4914 19.1348 21.4022 19.3327 21.2579 19.476C21.1136 19.6192 20.9143 19.7078 20.6941 19.7078L19.1459 19.7077L18.4979 22.0087C18.4294 22.2578 18.3044 22.4335 18.1556 22.5541C17.9772 22.6989 17.7608 22.7654 17.5483 22.7715C17.3151 22.7719 17.093 22.7124 16.9097 22.5755C16.7519 22.4578 16.6194 22.282 16.5439 22.026L15.4799 18.0834L14.377 22.0087C14.3067 22.2639 14.175 22.4425 14.0185 22.5636C13.8304 22.7091 13.6025 22.772 13.385 22.772C13.1677 22.772 12.9482 22.7125 12.7656 22.5754C12.6104 22.459 12.479 22.2861 12.4037 22.0366L11.7557 19.7077L10.1463 19.7078C9.92619 19.7078 9.72689 19.6192 9.58262 19.476C9.43835 19.3327 9.34912 19.1348 9.34912 18.9162C9.34912 18.6976 9.43835 18.4997 9.58262 18.3565C9.72689 18.2132 9.92619 18.1246 10.1463 18.1246L11.3154 18.1245L10.8135 16.3194C10.7414 16.0652 10.7719 15.8475 10.8671 15.6752C10.9674 15.4934 11.1445 15.3548 11.3876 15.2863C11.6413 15.2246 11.8769 15.226 12.0658 15.3089C12.2464 15.3882 12.3972 15.5369 12.4753 15.8004L13.4655 19.7066L14.5024 16.0048C14.5731 15.7473 14.704 15.568 14.8605 15.4469C15.0459 15.3035 15.2714 15.2407 15.4945 15.2407Z" fill="#D63D4A"/>
<path d="M9.68115 8.41124C9.68115 7.99211 10.0209 7.65234 10.44 7.65234H20.4005C20.8196 7.65234 21.1594 7.99211 21.1594 8.41124V8.9804C21.1594 9.39953 20.8196 9.7393 20.4005 9.7393H10.44C10.0209 9.7393 9.68115 9.39953 9.68115 8.9804V8.41124Z" fill="#FA967C"/>
<path d="M9.68115 8.41124C9.68115 7.99211 10.0209 7.65234 10.44 7.65234H20.4005C20.8196 7.65234 21.1594 7.99211 21.1594 8.41124V8.9804C21.1594 9.39953 20.8196 9.7393 20.4005 9.7393H10.44C10.0209 9.7393 9.68115 9.39953 9.68115 8.9804V8.41124Z" fill="#D63D4A"/>
</svg>
