<svg width="20" height="20" viewBox="0 0 20 20" fill="none" xmlns="http://www.w3.org/2000/svg">
<path fill-rule="evenodd" clip-rule="evenodd" d="M10.0005 1.25C11.7492 1.25023 13.167 2.66775 13.167 4.4165V4.58333H15.5205C16.2721 4.58338 16.9078 5.13959 17.0073 5.8846L18.4518 16.7179L18.4648 16.8856C18.4834 17.7142 17.8154 18.4163 16.965 18.4163H3.03513C2.12802 18.4163 1.42843 17.6171 1.54832 16.7179L2.99282 5.8846L3.01804 5.74788C3.1724 5.0726 3.77476 4.58337 4.47963 4.58333H6.83315V4.4165C6.83315 2.6676 8.25156 1.25 10.0005 1.25ZM4.47963 5.91634C4.41708 5.91637 4.3616 5.9512 4.33315 6.00342L4.31443 6.0612L2.86993 16.8945C2.85666 16.9944 2.93443 17.0833 3.03513 17.0833H16.965C17.0532 17.0833 17.1237 17.0151 17.131 16.9312L17.1302 16.8945L15.6857 6.0612C15.6747 5.97843 15.604 5.91638 15.5205 5.91634H13.167V6.9165C13.167 7.28455 12.8685 7.58277 12.5005 7.58301C12.1323 7.58301 11.8331 7.28469 11.8331 6.9165V5.91634H8.16697V6.9165C8.16697 7.28455 7.86846 7.58277 7.50047 7.58301C7.13228 7.58301 6.83315 7.28469 6.83315 6.9165V5.91634H4.47963ZM10.0005 2.58301C8.98794 2.58301 8.16697 3.40398 8.16697 4.4165V4.58333H11.8331V4.4165C11.8331 3.40413 11.0128 2.58324 10.0005 2.58301Z" fill="#8A949E"/>
</svg>
