<svg width="36" height="36" viewBox="0 0 36 36" fill="none" xmlns="http://www.w3.org/2000/svg">
<ellipse cx="17.7415" cy="27.9837" rx="17.0667" ry="3.2" fill="#ACB1B6" fill-opacity="0.2"/>
<path d="M8.84232 17.0072C9.4625 17.0072 9.97981 17.4636 10.1547 18.0586C11.1507 21.4472 14.2834 23.9213 17.9944 23.9213C21.7052 23.9212 24.838 21.4471 25.8341 18.0586C26.009 17.4636 26.5263 17.0072 27.1465 17.0072H29.7484C30.4893 17.0072 31.0746 17.6472 30.9282 18.3735C29.7126 24.4073 24.3834 28.9514 17.9915 28.9515C11.5996 28.9513 6.27031 24.4072 5.05467 18.3735C4.90834 17.6472 5.49361 17.0072 6.2345 17.0072H8.84232Z" fill="white"/>
<path fill-rule="evenodd" clip-rule="evenodd" d="M17.9985 2.55029C25.2879 2.5506 31.1968 8.46051 31.1968 15.75C31.1967 16.9395 31.0383 18.0919 30.7427 19.188C30.4776 20.1707 29.5383 20.78 28.5205 20.7803C26.861 20.7803 25.7921 18.7147 26.061 17.0771C26.1322 16.6438 26.1694 16.1991 26.1694 15.7456C26.1694 15.4906 25.8924 15.34 25.6694 15.4638L23.0939 16.8926C22.9438 16.9758 22.8362 17.1176 22.7838 17.2811C22.1349 19.3072 20.2371 20.7744 17.9956 20.7744C15.7541 20.7744 13.8563 19.3071 13.2074 17.281C13.155 17.1176 13.0474 16.9758 12.8974 16.8926L10.3248 15.4646C10.1025 15.3412 9.82765 15.4914 9.82764 15.7456C9.82764 16.1986 9.86504 16.6428 9.93604 17.0757C10.2047 18.7138 9.13507 20.7803 7.4751 20.7803C6.45727 20.78 5.51798 20.1707 5.25293 19.188C4.95735 18.0919 4.79888 16.9395 4.79883 15.75C4.79883 8.46032 10.7089 2.55029 17.9985 2.55029ZM17.9985 7.57471C14.7838 7.57471 12.0026 9.4313 10.6687 12.1307C10.4773 12.5181 10.7719 12.9495 11.2039 12.9568L13.4356 12.9946C13.6516 12.9983 13.8521 12.8889 13.9824 12.7166C14.9003 11.5025 16.3562 10.7183 17.9956 10.7183C19.6347 10.7183 21.0896 11.5028 22.0074 12.7167C22.1376 12.889 22.3381 12.9983 22.554 12.9946L24.7916 12.9568C25.2236 12.9495 25.5183 12.518 25.3268 12.1306C23.9929 9.43157 21.2128 7.57489 17.9985 7.57471Z" fill="white"/>
<path d="M8.84244 17.0068C9.46263 17.0068 9.97993 17.4632 10.1548 18.0582C11.1509 21.4468 14.2835 23.9209 17.9945 23.9209C21.7054 23.9208 24.8381 21.4467 25.8342 18.0582C26.0091 17.4632 26.5264 17.0068 27.1466 17.0068H29.7485C30.4894 17.0068 31.0747 17.6469 30.9284 18.3732C29.7127 24.407 24.3836 28.9511 17.9916 28.9512C11.5997 28.9509 6.27043 24.4069 5.05479 18.3731C4.90846 17.6469 5.49373 17.0068 6.23462 17.0068H8.84244Z" fill="#D63D4A"/>
<g style="mix-blend-mode:multiply">
<path fill-rule="evenodd" clip-rule="evenodd" d="M17.9985 2.55029C25.2879 2.5506 31.1968 8.46051 31.1968 15.75C31.1967 16.9395 31.0383 18.0919 30.7427 19.188C30.4776 20.1707 29.5383 20.78 28.5205 20.7803C26.861 20.7803 25.7921 18.7147 26.061 17.0771C26.1322 16.6438 26.1694 16.1991 26.1694 15.7456C26.1694 15.4906 25.8929 15.3408 25.6699 15.4644L23.0933 16.8926C22.9435 16.9758 22.8365 17.1176 22.7842 17.2808C22.3938 18.4996 21.5498 19.5128 20.4521 20.1284C20.0988 20.3266 19.8999 20.742 20.0332 21.1245L20.5796 22.6904C20.7178 23.0868 21.1562 23.2952 21.5347 23.1138C21.6729 23.0474 21.8081 22.9751 21.9419 22.9014C20.7715 23.5493 19.4268 23.9209 17.9941 23.9209C16.6813 23.9209 15.4425 23.6084 14.3438 23.0581C14.7183 23.2305 15.1499 23.0252 15.2871 22.6318L15.8364 21.0571C15.9672 20.6821 15.7783 20.2752 15.4365 20.0728C14.3886 19.4519 13.5853 18.4618 13.207 17.2808C13.1547 17.1176 13.0477 16.9758 12.8979 16.8926L10.3242 15.4644C10.102 15.3415 9.82765 15.4916 9.82764 15.7456C9.82764 16.1986 9.86504 16.6428 9.93604 17.0757C10.2047 18.7138 9.13507 20.7803 7.4751 20.7803C6.45727 20.78 5.51798 20.1707 5.25293 19.188C4.95735 18.0919 4.79888 16.9395 4.79883 15.75C4.79883 8.46032 10.7089 2.55029 17.9985 2.55029ZM17.9985 7.57471C14.7839 7.57471 12.0024 9.43105 10.6685 12.1304C10.477 12.5177 10.7726 12.9492 11.2046 12.9565L13.4355 12.9946C13.6515 12.9983 13.8516 12.8886 13.9819 12.7163C14.8998 11.5022 16.3562 10.7183 17.9956 10.7183C19.6347 10.7183 21.09 11.5025 22.0078 12.7163C22.1381 12.8886 22.3382 12.9983 22.5542 12.9946L24.791 12.9565C25.2231 12.9492 25.5186 12.5178 25.3271 12.1304C23.9932 9.43135 21.2128 7.57489 17.9985 7.57471Z" fill="#FA967C"/>
<path d="M7.41211 23.6396C7.40173 23.6257 7.39021 23.6126 7.37988 23.5986C7.37632 23.5938 7.37304 23.5888 7.36963 23.584C7.38349 23.6028 7.39815 23.6209 7.41211 23.6396Z" fill="#FA967C"/>
<path d="M28.6025 23.5986C28.592 23.6128 28.5794 23.6255 28.5688 23.6396C28.5828 23.6209 28.5975 23.6028 28.6113 23.584C28.6081 23.5886 28.6059 23.594 28.6025 23.5986Z" fill="#FA967C"/>
</g>
<rect x="15.48" y="13.2354" width="5.02824" height="5.02824" rx="2.51412" fill="white"/>
</svg>
