<svg width="32" height="32" viewBox="0 0 32 32" fill="none" xmlns="http://www.w3.org/2000/svg">
<path d="M11.3333 22C12.4378 22 13.3333 22.8954 13.3333 24C13.3333 25.1046 12.4378 26 11.3333 26C10.2287 26 9.33325 25.1046 9.33325 24C9.33325 22.8954 10.2287 22 11.3333 22Z" fill="#D63D4A"/>
<path d="M20.6666 22C21.7712 22 22.6666 22.8954 22.6666 24C22.6666 25.1046 21.7712 26 20.6666 26C19.562 26 18.6666 25.1046 18.6666 24C18.6666 22.8954 19.562 22 20.6666 22Z" fill="#D63D4A"/>
<path d="M20.3334 2.6665C20.8857 2.6665 21.3334 3.11422 21.3334 3.6665C21.3334 4.21879 20.8857 4.6665 20.3334 4.6665H20.0001V6.99984C20.0001 7.55212 19.5524 7.99984 19.0001 7.99984C18.4478 7.99984 18.0001 7.55212 18.0001 6.99984V4.6665H14.0001V6.99984C14.0001 7.55212 13.5524 7.99984 13.0001 7.99984C12.4478 7.99984 12.0001 7.55212 12.0001 6.99984V4.6665H11.6667C11.1145 4.6665 10.6667 4.21879 10.6667 3.6665C10.6667 3.11422 11.1145 2.6665 11.6667 2.6665H20.3334Z" fill="#D63D4A"/>
<path d="M5.33325 8.92308C5.33325 7.30871 6.64196 6 8.25633 6H23.7435C25.3579 6 26.6666 7.30871 26.6666 8.92308V20.4103C26.6666 22.0246 25.3579 23.3333 23.7435 23.3333H8.25633C6.64196 23.3333 5.33325 22.0246 5.33325 20.4103V8.92308Z" fill="#FA967C"/>
<path d="M13 11.3335C13.5523 11.3335 14 11.7812 14 12.3335V17.0002C14 17.5524 13.5523 18.0002 13 18.0002C12.4477 18.0002 12 17.5524 12 17.0002V12.3335C12 11.7812 12.4477 11.3335 13 11.3335Z" fill="#D63D4A"/>
<path d="M19 11.3335C19.5523 11.3335 20 11.7812 20 12.3335V17.0002C20 17.5524 19.5523 18.0002 19 18.0002C18.4477 18.0002 18 17.5524 18 17.0002V12.3335C18 11.7812 18.4477 11.3335 19 11.3335Z" fill="#D63D4A"/>
</svg>
