<svg width="36" height="36" viewBox="0 0 36 36" fill="none" xmlns="http://www.w3.org/2000/svg">
<ellipse cx="17.7415" cy="27.9837" rx="17.0667" ry="3.2" fill="#ACB1B6" fill-opacity="0.2"/>
<path fill-rule="evenodd" clip-rule="evenodd" d="M12.364 4.79102C11.9145 4.79117 11.4731 4.91967 11.0844 5.16349C10.6957 5.40731 10.3735 5.75779 10.1506 6.17942L5.58611 14.8087C5.36557 15.2252 5.24954 15.6967 5.24951 16.1765V22.372C5.24954 22.7994 5.34164 23.221 5.51854 23.6034L6.94399 26.6832C7.15571 27.1409 7.48126 27.5259 7.88414 27.795C8.28702 28.064 8.75131 28.2066 9.22496 28.2066H10.3495C11.0258 28.2066 11.6744 27.9164 12.1526 27.3997C12.6309 26.8831 12.8995 26.1824 12.8995 25.4518H23.0995C23.0995 26.1824 23.3682 26.8831 23.8464 27.3997C24.3246 27.9164 24.9732 28.2066 25.6495 28.2066H26.7741C27.2477 28.2066 27.712 28.064 28.1149 27.795C28.5178 27.5259 28.8433 27.1409 29.055 26.6832L30.4805 23.6034C30.6577 23.2218 30.7495 22.799 30.7495 22.372V16.1765C30.7495 15.6967 30.6335 15.2252 30.4129 14.8087L25.8484 6.17942C25.6255 5.75779 25.3033 5.40731 24.9146 5.16349C24.5259 4.91967 24.0845 4.79117 23.635 4.79102H12.364Z" fill="#FA967C"/>
<g style="mix-blend-mode:multiply">
<path d="M7.87749 27.7972C7.47461 27.5281 7.14906 27.1432 6.93733 26.6854L6.22461 25.1455H29.7611L29.0484 26.6854C28.8367 27.1432 28.5111 27.5281 28.1082 27.7972C27.7054 28.0663 27.2411 28.2088 26.7674 28.2088H25.6429C24.9666 28.2088 24.318 27.9186 23.8397 27.402C23.3615 26.8853 23.0929 26.1847 23.0929 25.454H12.8929C12.8929 26.1847 12.6242 26.8853 12.146 27.402C11.6678 27.9186 11.0192 28.2088 10.3429 28.2088H9.21831C8.74466 28.2088 8.28037 28.0663 7.87749 27.7972Z" fill="#786BEE"/>
</g>
<path d="M9.49409 12.9952L11.5761 8.31071C11.764 7.88779 12.1834 7.61523 12.6462 7.61523H23.616C24.0788 7.61523 24.4982 7.88779 24.6861 8.31071L26.7681 12.9952C27.1123 13.7696 26.5454 14.6419 25.6979 14.6419H10.5643C9.71678 14.6419 9.1499 13.7696 9.49409 12.9952Z" fill="#D5E0FF"/>
<circle cx="11.6905" cy="20.0145" r="1.75667" fill="white"/>
<circle cx="24.5726" cy="20.0145" r="1.75667" fill="white"/>
</svg>
