<svg width="37" height="36" viewBox="0 0 37 36" fill="none" xmlns="http://www.w3.org/2000/svg">
<ellipse cx="17.8674" cy="27.9837" rx="17.0667" ry="3.2" fill="#ACB1B6" fill-opacity="0.2"/>
<path d="M20.75 8.19379C21.0043 8.24947 21.2696 8.19037 21.4816 8.03936C22.8869 7.03835 25.0552 6.1696 26.0633 6.55825C27.0776 6.94964 26.7214 8.63814 26.72 10.7741C26.7199 11.0073 26.8241 11.227 26.9936 11.3872C28.0924 12.4251 28.9322 13.644 29.4321 14.9805C29.5143 15.2002 29.7204 15.3522 29.9549 15.3522C30.877 15.3522 31.6249 16.1 31.6249 17.0221V20.361C31.6249 21.2831 30.877 22.0309 29.9549 22.0309H29.2996C29.0006 22.0309 28.7269 22.1924 28.565 22.4438C28.301 22.8539 28.0031 23.2477 27.6734 23.6223C27.5331 23.7817 27.451 23.985 27.451 24.1973V27.8739C27.451 28.3349 27.0773 28.7086 26.6163 28.7086H23.9287C23.5458 28.7086 23.212 28.4481 23.1189 28.0766L23.0527 27.8121C22.9311 27.3265 22.4128 27.0582 21.9345 27.2058C20.5376 27.6367 19.0201 27.8737 17.4335 27.8737C15.8466 27.8737 14.3289 27.637 12.932 27.206C12.4535 27.0584 11.935 27.3269 11.8136 27.8128L11.7477 28.0762C11.6549 28.4479 11.3209 28.7086 10.9378 28.7086H8.25067C7.78963 28.7086 7.41588 28.3349 7.41588 27.8739V24.1973C7.41588 23.985 7.3338 23.7816 7.19342 23.6223C5.92287 22.1808 5.1159 20.4593 4.94597 18.5961C4.91426 18.2484 4.6922 17.9457 4.37703 17.7955C3.78238 17.5123 3.18026 17.0898 2.63856 16.4767C2.3334 16.1313 2.44159 15.6078 2.82506 15.3522C3.20853 15.0966 3.72025 15.2089 4.04489 15.536C4.08765 15.5791 4.13075 15.6206 4.17415 15.6605C4.57781 16.0322 5.1722 15.7441 5.34861 15.2245C6.79342 10.969 11.6566 7.83961 17.4335 7.8395C18.5815 7.8395 19.6938 7.96246 20.75 8.19379Z" fill="#FBB4C1"/>
<mask id="path-3-inside-1_8335_141545" fill="white">
<path d="M16.5996 3.66541C18.9048 3.66541 20.7734 5.53408 20.7734 7.83923C20.7734 8.89016 20.3842 9.84959 19.7432 10.5834C19.0055 10.4271 18.232 10.3432 17.4346 10.3431C16.1498 10.3431 14.9267 10.5598 13.8164 10.9496C12.963 10.1853 12.4258 9.07502 12.4258 7.83923C12.4258 5.53412 14.2945 3.66546 16.5996 3.66541Z"/>
</mask>
<path d="M16.5996 3.66541C18.9048 3.66541 20.7734 5.53408 20.7734 7.83923C20.7734 8.89016 20.3842 9.84959 19.7432 10.5834C19.0055 10.4271 18.232 10.3432 17.4346 10.3431C16.1498 10.3431 14.9267 10.5598 13.8164 10.9496C12.963 10.1853 12.4258 9.07502 12.4258 7.83923C12.4258 5.53412 14.2945 3.66546 16.5996 3.66541Z" fill="#F8C63C"/>
<path d="M16.5996 3.66541V2.83062H16.5996L16.5996 3.66541ZM20.7734 7.83923H21.6082L21.6082 7.83921L20.7734 7.83923ZM19.7432 10.5834L19.5701 11.4L20.0495 11.5016L20.3718 11.1326L19.7432 10.5834ZM17.4346 10.3431L17.4346 9.50835H17.4346V10.3431ZM13.8164 10.9496L13.2595 11.5715L13.6272 11.9007L14.093 11.7372L13.8164 10.9496ZM12.4258 7.83923L11.591 7.83921V7.83923H12.4258ZM16.5996 3.66541V4.50019C18.4437 4.50019 19.9386 5.99511 19.9387 7.83925L20.7734 7.83923L21.6082 7.83921C21.6082 5.07306 19.3658 2.83062 16.5996 2.83062V3.66541ZM20.7734 7.83923H19.9387C19.9387 8.67997 19.6282 9.44617 19.1145 10.0341L19.7432 10.5834L20.3718 11.1326C21.1403 10.253 21.6082 9.10035 21.6082 7.83923H20.7734ZM19.7432 10.5834L19.9162 9.76672C19.1221 9.59845 18.2905 9.50837 17.4346 9.50835L17.4346 10.3431L17.4346 11.1779C18.1734 11.1779 18.8889 11.2557 19.5701 11.4L19.7432 10.5834ZM17.4346 10.3431V9.50835C16.0562 9.50835 14.7394 9.74076 13.5399 10.1619L13.8164 10.9496L14.093 11.7372C15.1139 11.3788 16.2435 11.1779 17.4346 11.1779V10.3431ZM13.8164 10.9496L14.3733 10.3277C13.6892 9.71506 13.2606 8.82772 13.2606 7.83923H12.4258H11.591C11.591 9.32232 12.2368 10.6556 13.2595 11.5715L13.8164 10.9496ZM12.4258 7.83923L13.2606 7.83925C13.2606 5.99516 14.7555 4.50023 16.5996 4.50019L16.5996 3.66541L16.5996 2.83062C13.8334 2.83068 11.5911 5.07307 11.591 7.83921L12.4258 7.83923Z" fill="#F8C63C" mask="url(#path-3-inside-1_8335_141545)"/>
<path d="M26.9736 15.6701C26.9736 16.3068 26.4574 16.8229 25.8208 16.8229C25.1841 16.8229 24.668 16.3068 24.668 15.6701C24.668 15.0335 25.1841 14.5173 25.8208 14.5173C26.4574 14.5173 26.9736 15.0335 26.9736 15.6701Z" fill="#313D4C"/>
<ellipse cx="25.2471" cy="19.9436" rx="2.08696" ry="1.25218" fill="white"/>
<path d="M21.6078 11.1628C20.3555 10.6391 18.9369 10.3436 17.4339 10.3436C15.404 10.3436 13.528 10.8825 12.0078 11.795" stroke="#D63D4A" stroke-linecap="round"/>
</svg>
