<svg width="32" height="32" viewBox="0 0 32 32" fill="none" xmlns="http://www.w3.org/2000/svg">
<g style="mix-blend-mode:multiply">
<path d="M20.9998 6.33852C20.9998 6.02293 21.2556 5.76709 21.5712 5.76709H24.595C24.9106 5.76709 25.1664 6.02293 25.1664 6.33852V13.267H20.9998V6.33852Z" fill="#D63D4A"/>
</g>
<path d="M5.6762 14.9851L15.6311 6.56183C15.8441 6.38156 16.1562 6.38156 16.3693 6.56183L26.3242 14.9851C26.4525 15.0937 26.5265 15.2533 26.5265 15.4213V26.0872C26.5265 26.7261 26.0028 27.244 25.3569 27.244H18.6318H13.3686H6.64347C5.99752 27.244 5.47388 26.7261 5.47388 26.0872L5.47388 15.4213C5.47388 15.2533 5.54788 15.0937 5.6762 14.9851Z" fill="#FA967C"/>
<path d="M12.6667 20.5055C12.6667 20.1899 12.9226 19.9341 13.2382 19.9341H18.762C19.0776 19.9341 19.3334 20.1899 19.3334 20.5055V27.2443H12.6667L12.6667 20.5055Z" fill="#FDCFC3"/>
<path fill-rule="evenodd" clip-rule="evenodd" d="M15.2531 5.21219C15.6817 4.84073 16.3182 4.84073 16.7468 5.21219L27.2731 14.3349C27.749 14.7474 27.8004 15.4676 27.388 15.9435C26.9755 16.4194 26.2553 16.4709 25.7794 16.0584L15.9999 7.58294L6.22047 16.0584C5.74454 16.4709 5.02434 16.4194 4.61187 15.9435C4.1994 15.4676 4.25084 14.7474 4.72677 14.3349L15.2531 5.21219Z" fill="#285FA4"/>
<path fill-rule="evenodd" clip-rule="evenodd" d="M15.2531 5.21219C15.6817 4.84073 16.3182 4.84073 16.7468 5.21219L27.2731 14.3349C27.749 14.7474 27.8004 15.4676 27.388 15.9435C26.9755 16.4194 26.2553 16.4709 25.7794 16.0584L15.9999 7.58294L6.22047 16.0584C5.74454 16.4709 5.02434 16.4194 4.61187 15.9435C4.1994 15.4676 4.25084 14.7474 4.72677 14.3349L15.2531 5.21219Z" fill="#D63D4A"/>
</svg>
