<svg width="32" height="32" viewBox="0 0 32 32" fill="none" xmlns="http://www.w3.org/2000/svg">
<path d="M3.24097 24.3872H29.0837V25.3934C29.0837 25.958 28.6251 26.4177 28.0593 26.4177H4.26533C3.70065 26.4177 3.24097 25.9591 3.24097 25.3934V24.3872Z" fill="#1A8DFF"/>
<path d="M3.24097 24.3872H29.0837V25.3934C29.0837 25.958 28.6251 26.4177 28.0593 26.4177H4.26533C3.70065 26.4177 3.24097 25.9591 3.24097 25.3934V24.3872Z" fill="#D63D4A"/>
<path d="M26.9407 16.9111H5.38399L3.24097 24.5189H29.0837L26.9407 16.9111Z" fill="#D63D4A"/>
<g style="mix-blend-mode:multiply">
<path d="M6.40815 4.24854H25.9172C26.4819 4.24854 26.9415 4.70714 26.9415 5.2729V6.67872H5.38379V5.2729C5.38379 4.70821 5.8424 4.24854 6.40815 4.24854Z" fill="#D63D4A"/>
</g>
<path d="M26.9405 6.52002H5.38379V16.9105H26.9405V6.52002Z" fill="#FA967C"/>
<g style="mix-blend-mode:multiply">
<path d="M24.8094 22.4773C27.6251 22.4773 29.9077 20.1947 29.9077 17.379C29.9077 14.5633 27.6251 12.2808 24.8094 12.2808C21.9937 12.2808 19.7112 14.5633 19.7112 17.379C19.7112 20.1947 21.9937 22.4773 24.8094 22.4773Z" fill="#D63D4A"/>
</g>
<path d="M23.3552 15.5491C23.2811 15.2898 23.0108 15.1396 22.7515 15.2137C22.4922 15.2878 22.342 15.5581 22.4161 15.8175L22.7266 16.9042H22.3973C22.1276 16.9042 21.9089 17.1229 21.9089 17.3926C21.9089 17.6623 22.1276 17.8809 22.3973 17.8809H23.0056L23.2533 18.7476C23.3111 18.9499 23.4918 19.0924 23.7019 19.1014C23.9121 19.1104 24.1043 18.9839 24.1792 18.7873L24.8391 17.0551L25.499 18.7873C25.5738 18.9839 25.7661 19.1104 25.9763 19.1014C26.1864 19.0924 26.3671 18.9499 26.4249 18.7476L26.6725 17.8809H27.2809C27.5506 17.8809 27.7693 17.6623 27.7693 17.3926C27.7693 17.1229 27.5506 16.9042 27.2809 16.9042H26.9516L27.2621 15.8175C27.3362 15.5581 27.186 15.2878 26.9267 15.2137C26.6674 15.1396 26.3971 15.2898 26.323 15.5491L25.8891 17.0677L25.2955 15.5095C25.2233 15.3201 25.0417 15.1949 24.8391 15.1949C24.6365 15.1949 24.4549 15.3201 24.3827 15.5095L23.7891 17.0677L23.3552 15.5491Z" fill="white"/>
<g style="mix-blend-mode:multiply">
<path d="M15.3914 8.64258H7.80085C7.54935 8.64258 7.34546 8.84646 7.34546 9.09797V9.11404C7.34546 9.36555 7.54935 9.56944 7.80085 9.56944H15.3914C15.6429 9.56944 15.8468 9.36555 15.8468 9.11404V9.09797C15.8468 8.84646 15.6429 8.64258 15.3914 8.64258Z" fill="#D63D4A"/>
</g>
<g style="mix-blend-mode:multiply">
<path d="M11.7944 10.7739H7.80085C7.54935 10.7739 7.34546 10.9778 7.34546 11.2293V11.2454C7.34546 11.4969 7.54935 11.7008 7.80085 11.7008H11.7944C12.0459 11.7008 12.2498 11.4969 12.2498 11.2454V11.2293C12.2498 10.9778 12.0459 10.7739 11.7944 10.7739Z" fill="#D63D4A"/>
</g>
</svg>
