<svg width="36" height="36" viewBox="0 0 36 36" fill="none" xmlns="http://www.w3.org/2000/svg">
<ellipse cx="17.7416" cy="27.9832" rx="17.0667" ry="3.2" fill="#FDCFC3"/>
<g style="mix-blend-mode:multiply">
<path d="M23.1427 6.15792C23.1427 5.68454 23.5265 5.30078 23.9998 5.30078H26.5713C27.0447 5.30078 27.4284 5.68454 27.4284 6.15792V13.0151H23.1427V6.15792Z" fill="#D63D4A"/>
</g>
<path d="M7.47664 14.7014L17.4465 6.26531C17.7661 5.9949 18.2343 5.9949 18.5539 6.26531L28.5238 14.7014C28.7163 14.8642 28.8273 15.1036 28.8273 15.3557L28.8273 26.2015C28.8273 26.8586 28.2887 27.3913 27.6243 27.3913H8.37616C7.71176 27.3913 7.17316 26.8586 7.17316 26.2015V15.3557C7.17316 15.1036 7.28417 14.8642 7.47664 14.7014Z" fill="#FA967C"/>
<path d="M14.5714 20.7297C14.5714 20.2563 14.9551 19.8726 15.4285 19.8726H20.5714C21.0447 19.8726 21.4285 20.2563 21.4285 20.7297V27.3917H14.5714L14.5714 20.7297Z" fill="white"/>
<path fill-rule="evenodd" clip-rule="evenodd" d="M17.2318 4.72992C17.6727 4.34784 18.3273 4.34784 18.7682 4.72992L29.5952 14.1134C30.0848 14.5376 30.1377 15.2784 29.7134 15.7679C29.2892 16.2575 28.5484 16.3104 28.0589 15.8861L18 7.16842L7.94114 15.8861C7.45161 16.3104 6.71084 16.2575 6.28658 15.7679C5.86232 15.2784 5.91523 14.5376 6.40476 14.1134L17.2318 4.72992Z" fill="#285FA4"/>
<path fill-rule="evenodd" clip-rule="evenodd" d="M17.2318 4.72992C17.6727 4.34784 18.3273 4.34784 18.7682 4.72992L29.5952 14.1134C30.0848 14.5376 30.1377 15.2784 29.7134 15.7679C29.2892 16.2575 28.5484 16.3104 28.0589 15.8861L18 7.16842L7.94114 15.8861C7.45161 16.3104 6.71084 16.2575 6.28658 15.7679C5.86232 15.2784 5.91523 14.5376 6.40476 14.1134L17.2318 4.72992Z" fill="#D63D4A"/>
</svg>
