<svg width="32" height="32" viewBox="0 0 32 32" fill="none" xmlns="http://www.w3.org/2000/svg">
<path d="M21.4978 5.06689C20.3722 5.08358 19.2711 5.38307 18.3058 5.93512C17.3405 6.48717 16.5451 7.72837 16 8.66715C15.4549 7.72837 14.6595 6.48717 13.6942 5.93512C12.7289 5.38307 11.6278 5.08358 10.5022 5.06689C8.70788 5.1412 7.01733 5.88937 5.7999 7.14795C4.58247 8.40653 3.93712 10.0732 4.00484 11.7839C4.00484 18.2389 14.9564 26.3508 15.4222 26.6672L16 27.0568L16.5778 26.6672C17.0436 26.3527 27.9952 18.2389 27.9952 11.7839C28.0629 10.0732 27.4175 8.40653 26.2001 7.14795C24.9827 5.88937 23.2921 5.1412 21.4978 5.06689Z" fill="#FA967C"/>
<path d="M15.9999 27.0566L15.4221 26.667C15.0085 26.3861 6.32478 19.9568 4.38623 14H27.6136C25.6751 19.9571 16.9914 26.3877 16.5777 26.667L15.9999 27.0566Z" fill="#D63D4A"/>
</svg>
