<svg width="32" height="32" viewBox="0 0 32 32" fill="none" xmlns="http://www.w3.org/2000/svg">
<g style="mix-blend-mode:multiply">
<g clip-path="url(#clip0_78_588)">
<path d="M6.98629 27.3876H24.0046C26.4777 25.0981 28.0272 20.5532 28.0272 16.9176C28.0272 9.99663 22.3987 4.88891 15.4961 4.38509C8.13432 3.84847 2.96362 7.59299 2.96362 16.9176C2.96362 20.5532 4.51313 25.0981 6.98629 27.3876Z" fill="#FA967C"/>
<g style="mix-blend-mode:multiply">
<path d="M13.9354 10.3369H28.0318C28.0397 10.3369 28.0475 10.3422 28.0515 10.35C28.9214 12.4362 29.3635 14.8975 29.3635 17.7249V19.853L17.0777 17.7289C15.2605 17.4153 13.9341 15.8382 13.9341 13.9948V10.3369H13.9354Z" fill="#D63D4A"/>
</g>
<path d="M13.9355 14.0604C14.9637 14.0604 15.7973 13.2269 15.7973 12.1987C15.7973 11.1705 14.9637 10.3369 13.9355 10.3369C12.9073 10.3369 12.0737 11.1705 12.0737 12.1987C12.0737 13.2269 12.9073 14.0604 13.9355 14.0604Z" fill="#D63D4A"/>
<path d="M13.9356 14.8478C12.4753 14.8478 11.2866 13.6591 11.2866 12.1988C11.2866 10.7385 12.4753 9.5498 13.9356 9.5498C15.3959 9.5498 16.5846 10.7385 16.5846 12.1988C16.5846 13.6591 15.3959 14.8478 13.9356 14.8478ZM13.9356 11.1242C13.3426 11.1242 12.8611 11.6071 12.8611 12.1988C12.8611 12.7905 13.3426 13.2733 13.9356 13.2733C14.5286 13.2733 15.0101 12.7918 15.0101 12.1988C15.0101 11.6057 14.5286 11.1242 13.9356 11.1242Z" fill="white"/>
<path d="M22.6814 12.2197L22.5198 12.2359C22.1547 12.3108 21.8797 12.6341 21.8797 13.0214C21.8797 13.4087 22.1547 13.732 22.5198 13.8069L22.6814 13.8231H26.691C27.1338 13.8231 27.4927 13.4642 27.4927 13.0214C27.4927 12.5786 27.1338 12.2197 26.691 12.2197H22.6814Z" fill="white"/>
<path d="M8.64918 7.89934C8.43433 7.57707 8.02635 7.46085 7.68096 7.60104L7.53678 7.67686L7.37893 7.78872C6.59848 8.36708 5.27771 9.73584 4.65326 11.7237L4.53146 12.1587L4.50784 12.3191C4.49149 12.6918 4.73844 13.0366 5.11437 13.1307C5.49025 13.2247 5.87046 13.0369 6.03163 12.7006L6.08632 12.5478L6.18575 12.1985C6.65361 10.7156 7.61351 9.66218 8.19055 9.18822L8.4267 9.01173L8.55223 8.90857C8.81477 8.64369 8.86411 8.22174 8.64918 7.89934Z" fill="white"/>
</g>
</g>
<defs>
<clipPath id="clip0_78_588">
<rect width="28" height="26.6667" fill="white" transform="translate(2.66675 2.66699)"/>
</clipPath>
</defs>
</svg>
