<svg width="32" height="33" viewBox="0 0 32 33" fill="none" xmlns="http://www.w3.org/2000/svg">
<g style="mix-blend-mode:multiply">
<path d="M24.8333 16C24.8333 18.5773 20.6547 20.6666 15.5 20.6666C10.3453 20.6666 6.16667 18.5773 6.16667 16C6.16667 13.4226 10.3453 11.3333 15.5 11.3333C20.6547 11.3333 24.8333 13.4226 24.8333 16Z" fill="#FA967C"/>
<path d="M23.5 20C23.5 21.8409 19.9183 23.3333 15.5 23.3333C11.0817 23.3333 7.5 21.8409 7.5 20C7.5 18.159 11.0817 16.6666 15.5 16.6666C19.9183 16.6666 23.5 18.159 23.5 20Z" fill="#FA967C"/>
<path d="M27.5 10.6666C27.5 13.9803 22.1274 16.6666 15.5 16.6666C8.87258 16.6666 3.5 13.9803 3.5 10.6666C3.5 7.35292 8.87258 4.66663 15.5 4.66663C22.1274 4.66663 27.5 7.35292 27.5 10.6666Z" fill="#FA967C"/>
<g style="mix-blend-mode:multiply">
<path d="M24.8337 10.6666C24.8337 12.5075 20.655 13.9999 15.5003 13.9999C10.3457 13.9999 6.16699 12.5075 6.16699 10.6666C6.16699 8.82564 10.3457 7.33325 15.5003 7.33325C20.655 7.33325 24.8337 8.82564 24.8337 10.6666Z" fill="#D63D4A"/>
</g>
<path d="M8.40099 29.6378C8.88171 26.6451 9.52574 26.6396 11.5004 25.0838C12.836 24.0315 11.2393 22.7066 10.8337 22.7066C10.6598 22.5821 10.4946 22.4137 10.3674 22.2733L15.1927 21.3333H22.1671C22.1671 22.6262 20.526 25.7303 15.1927 26.3767C11.2501 26.8546 9.56481 28.531 8.57625 29.718C8.51116 29.7962 8.38486 29.7383 8.40099 29.6378Z" fill="#FA967C"/>
<g style="mix-blend-mode:multiply">
<path d="M23.5004 4.48805C23.7967 3.97485 24.5375 3.97485 24.8338 4.48805L29.5004 12.571C29.7967 13.0842 29.4264 13.7257 28.8338 13.7257H19.5004C18.9078 13.7257 18.5375 13.0842 18.8338 12.571L23.5004 4.48805Z" fill="#D63D4A"/>
</g>
<path d="M24.1675 10.5666C23.6796 10.5666 23.2841 10.9621 23.2841 11.4499C23.2841 11.9378 23.6796 12.3333 24.1675 12.3333C24.6553 12.3333 25.0508 11.9378 25.0508 11.4499C25.0508 10.9621 24.6553 10.5666 24.1675 10.5666Z" fill="white"/>
<path d="M24.7312 9.83775C24.7854 9.83775 24.8294 9.7938 24.8294 9.7396L24.8294 8.95442L24.8294 7.21658L24.8294 6.4314C24.8294 6.37719 24.7854 6.33325 24.7312 6.33325L23.6025 6.33325C23.5483 6.33325 23.5044 6.37719 23.5044 6.4314L23.5044 7.21658L23.5044 9.7396C23.5044 9.7938 23.5483 9.83775 23.6025 9.83775L24.7312 9.83775Z" fill="white"/>
<g style="mix-blend-mode:multiply">
<path d="M19.3193 21.152C17.9984 22.3082 15.8809 22.0497 15.8809 22.0497C15.8809 22.0497 15.9049 19.9165 17.2258 18.7603C18.5466 17.6041 20.6642 17.8626 20.6642 17.8626C20.6642 17.8626 20.6402 19.9957 19.3193 21.152Z" fill="#D63D4A"/>
</g>
<g style="mix-blend-mode:multiply">
<path d="M5.76335 17.7643C5.55707 17.4375 5.15306 17.3114 4.80501 17.4427L4.65918 17.5143L4.3597 17.7187C4.06154 17.937 3.77623 18.2 3.57454 18.5117C3.318 18.9084 3.18617 19.4104 3.35579 19.9362L3.44824 20.1628C3.63032 20.5356 3.96812 20.7688 4.24381 20.9167C4.5407 21.0758 4.89671 21.2046 5.27116 21.3112C6.02337 21.5253 6.97037 21.6855 7.95085 21.8047C9.91834 22.0439 12.1423 22.1328 13.5003 22.1328C13.9421 22.1328 14.2998 21.7751 14.2998 21.3333C14.2998 20.8915 13.9422 20.5339 13.5003 20.5339C12.1917 20.5339 10.0336 20.446 8.14355 20.2161C7.19544 20.1008 6.34439 19.9527 5.70996 19.7721C5.39117 19.6814 5.15621 19.5901 5.00033 19.5065C4.94645 19.4776 4.91291 19.4521 4.89095 19.4362C4.89643 19.4235 4.90298 19.4039 4.91829 19.3802C4.98157 19.2826 5.10466 19.1576 5.2972 19.0156L5.51335 18.8685L5.64095 18.7682C5.90957 18.5106 5.9697 18.0913 5.76335 17.7643Z" fill="#D63D4A"/>
</g>
</g>
</svg>
