<svg width="37" height="36" viewBox="0 0 37 36" fill="none" xmlns="http://www.w3.org/2000/svg">
<ellipse cx="18.367" cy="27.9837" rx="17.0667" ry="3.2" fill="#ACB1B6" fill-opacity="0.2"/>
<path d="M21.2462 8.19351C21.5005 8.24918 21.7658 8.18997 21.9778 8.03889C23.3832 7.03747 25.5542 6.16912 26.5628 6.55797C27.3538 6.86293 27.3109 7.95653 27.2529 9.43598C27.2365 9.8537 27.2189 10.3022 27.2185 10.7724C27.2184 11.0057 27.3226 11.2252 27.4923 11.3854C28.5914 12.4235 29.4311 13.643 29.9313 14.9798C30.0136 15.1999 30.2202 15.3523 30.4552 15.3523C31.3773 15.3523 32.1248 16.0998 32.1248 17.0218V20.361C32.1248 21.283 31.3773 22.0305 30.4552 22.0305H29.8034C29.5044 22.0305 29.2306 22.1921 29.0685 22.4434C28.8036 22.8542 28.5041 23.2485 28.1733 23.6237C28.0329 23.783 27.9508 23.9864 27.9508 24.1987V27.8738C27.9508 28.3348 27.5771 28.7085 27.116 28.7085H24.4287C24.0456 28.7085 23.7117 28.4478 23.6188 28.0762L23.5533 27.814C23.4318 27.3283 22.9134 27.0598 22.4349 27.2073C21.038 27.638 19.5202 27.8741 17.9335 27.8741C16.3468 27.8741 14.829 27.638 13.432 27.2073C12.9536 27.0597 12.4351 27.3282 12.3137 27.814L12.2481 28.0762C12.1552 28.4478 11.8213 28.7085 11.4382 28.7085H8.75089C8.28985 28.7085 7.9161 28.3348 7.9161 27.8738V24.1986C7.9161 23.9863 7.83399 23.7828 7.69358 23.6235C6.42329 22.1826 5.61621 20.4616 5.44564 18.5992C5.4138 18.2516 5.19166 17.9489 4.87662 17.7986C4.28183 17.5149 3.6798 17.0912 3.13798 16.4773C2.83291 16.1317 2.94113 15.608 3.32474 15.3523C3.70835 15.0965 4.22022 15.2088 4.54445 15.5366C4.58737 15.58 4.63065 15.6218 4.6742 15.662C5.07732 16.0343 5.67143 15.7465 5.84769 15.2269C7.2915 10.9701 12.1555 7.83922 17.9335 7.83922C19.0803 7.83922 20.191 7.96254 21.2462 8.19351Z" fill="#FBB4C1"/>
<path d="M17.0991 4.08231C19.1738 4.08231 20.8559 5.76451 20.856 7.83914C20.856 8.70018 20.5637 9.49075 20.0767 10.1243C19.3873 9.99466 18.6701 9.92606 17.9341 9.92606C16.6961 9.92606 15.5121 10.1217 14.4233 10.4749C13.7549 9.79633 13.3423 8.86622 13.3423 7.83914C13.3423 5.76454 15.0245 4.08236 17.0991 4.08231Z" fill="#F8C63C" stroke="#F8C63C" stroke-width="0.834785"/>
<path d="M27.4741 15.6702C27.4741 16.3068 26.9579 16.823 26.3213 16.823C25.6846 16.823 25.1685 16.3068 25.1685 15.6702C25.1685 15.0335 25.6846 14.5174 26.3213 14.5174C26.9579 14.5174 27.4741 15.0335 27.4741 15.6702Z" fill="#313D4C"/>
<ellipse cx="25.7471" cy="19.9436" rx="2.08696" ry="1.25218" fill="white"/>
<path d="M22.1078 11.1629C20.8555 10.6391 19.4369 10.3437 17.9339 10.3437C15.904 10.3437 14.028 10.8826 12.5078 11.795" stroke="#D63D4A" stroke-linecap="round"/>
</svg>
