<svg width="36" height="36" viewBox="0 0 36 36" fill="none" xmlns="http://www.w3.org/2000/svg">
<g clip-path="url(#clip0_19298_408754)">
<ellipse cx="17.7416" cy="29.4832" rx="17.0667" ry="3.2" fill="#FDCFC3"/>
<path d="M20.55 14.9353C20.55 13.5269 21.6917 12.3853 23.1 12.3853H28.2C29.6084 12.3853 30.75 13.5269 30.75 14.9353V26.0625C30.75 27.4708 29.6084 28.6125 28.2 28.6125H23.1C21.6917 28.6125 20.55 27.4709 20.55 26.0625V14.9353Z" fill="#D63D4A"/>
<path d="M5.25 6.9377C5.25 5.52937 6.39167 4.3877 7.8 4.3877H21.825C23.2333 4.3877 24.375 5.52937 24.375 6.9377V26.0627C24.375 27.471 23.2333 28.6127 21.825 28.6127H7.8C6.39167 28.6127 5.25 27.471 5.25 26.0627V6.9377Z" fill="#FA967C"/>
<g style="mix-blend-mode:multiply">
<path d="M18.6378 15.2256C19.3419 15.2257 19.9122 15.7959 19.9122 16.5C19.9122 17.2041 19.3419 17.7743 18.6378 17.7744H10.9869C10.2831 17.774 9.71253 17.2039 9.71252 16.5C9.71252 15.7961 10.2831 15.226 10.9869 15.2256H18.6378Z" fill="#D63D4A"/>
<path d="M18.6378 10.125C19.3417 10.1252 19.9119 10.6956 19.9122 11.3994C19.9122 12.1035 19.3418 12.6751 18.6378 12.6753H10.9869C10.283 12.675 9.71252 12.1034 9.71252 11.3994C9.71284 10.6957 10.2832 10.1253 10.9869 10.125H18.6378Z" fill="#D63D4A"/>
</g>
<g style="mix-blend-mode:multiply">
<path d="M10.3501 23.5123C10.3501 22.8081 10.9209 22.2373 11.6251 22.2373H18.0001C18.7043 22.2373 19.2751 22.8081 19.2751 23.5123V28.6123H10.3501V23.5123Z" fill="#D63D4A"/>
</g>
</g>
<defs>
<clipPath id="clip0_19298_408754">
<rect width="36" height="36" fill="white"/>
</clipPath>
</defs>
</svg>
