<svg width="32" height="32" viewBox="0 0 32 32" fill="none" xmlns="http://www.w3.org/2000/svg">
<path d="M6.66675 6C6.66675 4.89543 7.56218 4 8.66675 4H23.3334C24.438 4 25.3334 4.89543 25.3334 6V26C25.3334 27.1046 24.438 28 23.3334 28H8.66675C7.56218 28 6.66675 27.1046 6.66675 26V6Z" fill="#FA967C"/>
<path fill-rule="evenodd" clip-rule="evenodd" d="M9.6001 9.06667C9.6001 8.47756 10.0777 8 10.6668 8H17.3334C17.9225 8 18.4001 8.47756 18.4001 9.06667C18.4001 9.65577 17.9225 10.1333 17.3334 10.1333H10.6668C10.0777 10.1333 9.6001 9.65577 9.6001 9.06667ZM9.6001 13.5999C9.6001 13.0108 10.0777 12.5332 10.6668 12.5332H20.0001C20.5892 12.5332 21.0668 13.0108 21.0668 13.5999C21.0668 14.189 20.5892 14.6665 20.0001 14.6665H10.6668C10.0777 14.6665 9.6001 14.189 9.6001 13.5999Z" fill="#D63D4A"/>
<g style="mix-blend-mode:multiply">
<path fill-rule="evenodd" clip-rule="evenodd" d="M18.7126 21.3793C19.1291 20.9628 19.8045 20.9628 20.2211 21.3793L22.8877 24.046C23.3043 24.4625 23.3043 25.1379 22.8877 25.5545C22.4712 25.971 21.7958 25.971 21.3792 25.5545L18.7126 22.8878C18.296 22.4712 18.296 21.7959 18.7126 21.3793Z" fill="#D63D4A"/>
</g>
<g style="mix-blend-mode:multiply">
<path d="M22 20.6665C22 22.8756 20.2091 24.6665 18 24.6665C15.7909 24.6665 14 22.8756 14 20.6665C14 18.4574 15.7909 16.6665 18 16.6665C20.2091 16.6665 22 18.4574 22 20.6665Z" fill="#D63D4A"/>
</g>
</svg>
