<svg width="36" height="36" viewBox="0 0 36 36" fill="none" xmlns="http://www.w3.org/2000/svg">
<ellipse cx="17.7416" cy="27.9832" rx="17.0667" ry="3.2" fill="#ACB1B6" fill-opacity="0.2"/>
<ellipse cx="17.7416" cy="27.9832" rx="17.0667" ry="3.2" fill="#FDCFC3"/>
<path fill-rule="evenodd" clip-rule="evenodd" d="M12.3641 4.79077C11.9147 4.79093 11.4732 4.91943 11.0845 5.16325C10.6958 5.40707 10.3737 5.75755 10.1507 6.17918L5.58623 14.8085C5.36569 15.225 5.24966 15.6964 5.24963 16.1762V22.3717C5.24966 22.7992 5.34176 23.2208 5.51866 23.6031L6.94411 26.683C7.15583 27.1407 7.48138 27.5257 7.88426 27.7947C8.28714 28.0638 8.75143 28.2063 9.22508 28.2063H10.3496C11.0259 28.2063 11.6745 27.9161 12.1528 27.3995C12.631 26.8829 12.8996 26.1822 12.8996 25.4516H23.0996C23.0996 26.1822 23.3683 26.8829 23.8465 27.3995C24.3247 27.9161 24.9733 28.2063 25.6496 28.2063H26.7742C27.2478 28.2063 27.7121 28.0638 28.115 27.7947C28.5179 27.5257 28.8434 27.1407 29.0552 26.683L30.4806 23.6031C30.6578 23.2216 30.7496 22.7987 30.7496 22.3717V16.1762C30.7496 15.6964 30.6336 15.225 30.413 14.8085L25.8485 6.17918C25.6256 5.75755 25.3035 5.40707 24.9148 5.16325C24.5261 4.91943 24.0846 4.79093 23.6351 4.79077H12.3641Z" fill="#FA967C"/>
<g style="mix-blend-mode:multiply">
<path d="M7.87755 27.7972C7.47467 27.5281 7.14912 27.1432 6.9374 26.6854L6.22467 25.1455H29.7612L29.0484 26.6854C28.8367 27.1432 28.5112 27.5281 28.1083 27.7972C27.7054 28.0663 27.2411 28.2088 26.7675 28.2088H25.6429C24.9666 28.2088 24.318 27.9186 23.8398 27.402C23.3616 26.8853 23.0929 26.1847 23.0929 25.454H12.8929C12.8929 26.1847 12.6243 26.8853 12.146 27.402C11.6678 27.9186 11.0192 28.2088 10.3429 28.2088H9.21837C8.74472 28.2088 8.28043 28.0663 7.87755 27.7972Z" fill="#D63D4A"/>
</g>
<g style="mix-blend-mode:multiply">
<path d="M9.49422 12.9952L11.5762 8.31071C11.7642 7.88779 12.1836 7.61523 12.6464 7.61523H23.6161C24.0789 7.61523 24.4983 7.88779 24.6863 8.31071L26.7682 12.9952C27.1124 13.7696 26.5455 14.6419 25.6981 14.6419H10.5644C9.71691 14.6419 9.15003 13.7696 9.49422 12.9952Z" fill="#D63D4A"/>
</g>
<circle cx="11.6904" cy="20.0145" r="1.75667" fill="white"/>
<circle cx="24.5728" cy="20.0145" r="1.75667" fill="white"/>
</svg>
