<svg width="37" height="36" viewBox="0 0 37 36" fill="none" xmlns="http://www.w3.org/2000/svg">
<ellipse cx="18.6174" cy="27.9833" rx="17.0667" ry="3.2" fill="#ACB1B6" fill-opacity="0.2"/>
<path d="M6.93302 19.557C8.56961 19.557 9.89632 18.2303 9.89632 16.5937C9.89632 14.9571 8.56961 13.6304 6.93302 13.6304C5.29644 13.6304 3.96973 14.9571 3.96973 16.5937C3.96973 18.2303 5.29644 19.557 6.93302 19.557Z" fill="#FDD9BD"/>
<path d="M30.8178 19.557C32.4544 19.557 33.7811 18.2303 33.7811 16.5937C33.7811 14.9571 32.4544 13.6304 30.8178 13.6304C29.1812 13.6304 27.8545 14.9571 27.8545 16.5937C27.8545 18.2303 29.1812 19.557 30.8178 19.557Z" fill="#FDD9BD"/>
<path d="M18.8757 28.481C25.4409 28.481 30.763 23.1589 30.763 16.5937C30.763 10.0285 25.4409 4.7063 18.8757 4.7063C12.3104 4.7063 6.98828 10.0285 6.98828 16.5937C6.98828 23.1589 12.3104 28.481 18.8757 28.481Z" fill="#FDD9BD"/>
<ellipse cx="27.0508" cy="19.41" rx="2.125" ry="1.4875" fill="white"/>
<ellipse cx="10.8008" cy="19.41" rx="2.125" ry="1.4875" fill="white"/>
<path d="M15.5406 17.3314C16.1191 17.3314 16.5881 16.795 16.5881 16.1332C16.5881 15.4715 16.1191 14.9351 15.5406 14.9351C14.9621 14.9351 14.4932 15.4715 14.4932 16.1332C14.4932 16.795 14.9621 17.3314 15.5406 17.3314Z" fill="#313D4C"/>
<path d="M23.258 16.1332C23.258 16.7953 22.7886 17.3314 22.2106 17.3314C21.6325 17.3314 21.1631 16.7953 21.1631 16.1332C21.1631 15.4711 21.6325 14.9351 22.2106 14.9351C22.7886 14.9351 23.258 15.4711 23.258 16.1332Z" fill="#313D4C"/>
<path d="M7.0957 15.5346C7.0957 15.5346 12.0152 13.5152 14.9917 8.34324C14.9917 8.34324 15.2494 10.8674 14.3449 12.7606H23.4057C23.4057 12.7606 23.6633 11.1199 23.0165 8.21703C23.0165 8.21703 25.7353 12.8868 30.6522 14.7773C30.6522 14.7773 30.781 3.9259 19.0041 3.9259C7.22717 3.9259 7.0957 13.2628 7.0957 15.5346Z" fill="#313D4C"/>
<path d="M15.4365 18.996C15.4365 20.8957 16.9756 22.4348 18.8754 22.4348C20.7752 22.4348 22.3142 20.8957 22.3142 18.996H15.439H15.4365Z" fill="#D63D4A"/>
</svg>
