<svg width="32" height="32" viewBox="0 0 32 32" fill="none" xmlns="http://www.w3.org/2000/svg">
<path fill-rule="evenodd" clip-rule="evenodd" d="M10.5451 4.6665C10.1101 4.66666 9.68281 4.79103 9.30658 5.02703C8.93035 5.26302 8.61855 5.60226 8.40277 6.01036L3.98473 14.3628C3.77127 14.7659 3.65896 15.2222 3.65894 15.6866V21.6833C3.65896 22.097 3.74811 22.5051 3.91933 22.8752L5.29904 25.8562C5.50397 26.2992 5.81907 26.6719 6.20902 26.9323C6.59897 27.1927 7.04836 27.3307 7.50682 27.3307H8.59528C9.24988 27.3307 9.87767 27.0498 10.3405 26.5497C10.8034 26.0497 11.0635 25.3715 11.0635 24.6643H20.9362C20.9362 25.3715 21.1962 26.0497 21.6591 26.5497C22.1219 27.0498 22.7497 27.3307 23.4043 27.3307H24.4928C24.9512 27.3307 25.4006 27.1927 25.7906 26.9323C26.1805 26.6719 26.4956 26.2992 26.7006 25.8562L28.0803 22.8752C28.2518 22.5059 28.3407 22.0966 28.3407 21.6833V15.6866C28.3406 15.2222 28.2283 14.7659 28.0149 14.3628L23.5968 6.01036C23.3811 5.60226 23.0693 5.26302 22.693 5.02703C22.3168 4.79103 21.8895 4.66666 21.4545 4.6665H10.5451Z" fill="#FA967C"/>
<g style="mix-blend-mode:multiply">
<path d="M6.20238 26.9348C5.81242 26.6743 5.49732 26.3017 5.29239 25.8587L4.60254 24.3682H27.3838L26.6939 25.8587C26.489 26.3017 26.1739 26.6743 25.7839 26.9348C25.394 27.1952 24.9446 27.3332 24.4861 27.3332H23.3977C22.7431 27.3332 22.1153 27.0523 21.6524 26.5522C21.1895 26.0522 20.9295 25.374 20.9295 24.6668H11.0568C11.0568 25.374 10.7968 26.0522 10.3339 26.5522C9.87103 27.0523 9.24324 27.3332 8.58864 27.3332H7.50018C7.04172 27.3332 6.59233 27.1952 6.20238 26.9348Z" fill="#D63D4A"/>
</g>
<g style="mix-blend-mode:multiply">
<path d="M7.58989 13.0057L9.85696 7.90477C9.99341 7.59776 10.2979 7.3999 10.6338 7.3999H21.6199C21.9558 7.3999 22.2603 7.59776 22.3967 7.90477L24.6638 13.0057C24.9137 13.5679 24.5021 14.2011 23.8869 14.2011H8.36677C7.75155 14.2011 7.34003 13.5679 7.58989 13.0057Z" fill="#D63D4A"/>
</g>
<ellipse cx="9.89317" cy="19.4015" rx="1.7003" ry="1.7003" fill="white"/>
<ellipse cx="22.3619" cy="19.4015" rx="1.7003" ry="1.7003" fill="white"/>
</svg>
