<svg width="36" height="36" viewBox="0 0 36 36" fill="none" xmlns="http://www.w3.org/2000/svg">
<ellipse cx="17.742" cy="27.9837" rx="17.0667" ry="3.2" fill="#ACB1B6" fill-opacity="0.2"/>
<path d="M20.6217 8.1933C20.876 8.24897 21.1413 8.18976 21.3533 8.03868C22.7587 7.03725 24.9297 6.1689 25.9383 6.55775C26.7293 6.86272 26.6864 7.95632 26.6284 9.43577C26.612 9.85349 26.5944 10.302 26.594 10.7721C26.5939 11.0055 26.6981 11.225 26.8677 11.3852C27.9669 12.4233 28.8066 13.6427 29.3067 14.9795C29.3891 15.1997 29.5957 15.352 29.8307 15.352C30.7528 15.352 31.5003 16.0995 31.5003 17.0216V20.3608C31.5003 21.2828 30.7528 22.0303 29.8307 22.0303H29.1789C28.8798 22.0303 28.6061 22.1919 28.444 22.4432C28.179 22.854 27.8796 23.2483 27.5488 23.6235C27.4084 23.7828 27.3263 23.9862 27.3263 24.1985V27.8735C27.3263 28.3346 26.9526 28.7083 26.4915 28.7083H23.8042C23.4211 28.7083 23.0872 28.4476 22.9943 28.076L22.9288 27.8138C22.8073 27.3281 22.2889 27.0596 21.8104 27.2071C20.4135 27.6378 18.8957 27.8738 17.309 27.8738C15.7223 27.8738 14.2045 27.6377 12.8075 27.207C12.329 27.0595 11.8106 27.328 11.6892 27.8138L11.6236 28.076C11.5307 28.4476 11.1968 28.7083 10.8137 28.7083H8.12638C7.66534 28.7083 7.29159 28.3346 7.29159 27.8735V24.1984C7.29159 23.986 7.20948 23.7826 7.06906 23.6233C5.79878 22.1824 4.9917 20.4614 4.82112 18.5989C4.78929 18.2513 4.56715 17.9487 4.25211 17.7984C3.65732 17.5147 3.05529 17.091 2.51347 16.4771C2.2084 16.1314 2.31662 15.6078 2.70023 15.352C3.08384 15.0963 3.59571 15.2086 3.91994 15.5364C3.96286 15.5798 4.00613 15.6216 4.04969 15.6618C4.45281 16.0341 5.04692 15.7463 5.22318 15.2267C6.66699 10.9699 11.531 7.83901 17.309 7.83901C18.4558 7.83901 19.5665 7.96233 20.6217 8.1933Z" fill="#FBB4C1"/>
<path d="M16.4736 4.08203C18.5483 4.08203 20.2304 5.76424 20.2305 7.83887C20.2305 8.6999 19.9382 9.49047 19.4512 10.124C18.7618 9.99439 18.0446 9.92578 17.3086 9.92578C16.0707 9.92579 14.8866 10.1215 13.7979 10.4746C13.1294 9.79606 12.7168 8.86595 12.7168 7.83887C12.7168 5.76427 14.399 4.08208 16.4736 4.08203Z" fill="#F8C63C" stroke="#F8C63C" stroke-width="0.834785"/>
<path d="M26.8491 15.6704C26.8491 16.307 26.3329 16.8232 25.6963 16.8232C25.0596 16.8232 24.5435 16.307 24.5435 15.6704C24.5435 15.0337 25.0596 14.5176 25.6963 14.5176C26.3329 14.5176 26.8491 15.0337 26.8491 15.6704Z" fill="#313D4C"/>
<ellipse cx="25.1221" cy="19.9436" rx="2.08696" ry="1.25218" fill="white"/>
<path d="M21.4828 11.163C20.2305 10.6392 18.8119 10.3438 17.3089 10.3438C15.279 10.3438 13.403 10.8826 11.8828 11.7951" stroke="#D63D4A" stroke-linecap="round"/>
</svg>
