<svg width="32" height="32" viewBox="0 0 32 32" fill="none" xmlns="http://www.w3.org/2000/svg">
<ellipse cx="15.77" cy="24.8744" rx="15.1704" ry="2.84445" fill="#FDCFC3"/>
<rect x="4.66602" y="8.31067" width="22.6667" height="15.1111" rx="2.19" fill="#FA967C"/>
<rect x="11.4668" y="11.3337" width="9.06667" height="9.06667" rx="4.53333" fill="#D63D4A"/>
<path d="M16 13.2224C16.3651 13.2224 16.6611 13.5184 16.6611 13.8835V15.2058H17.9834C18.3485 15.2058 18.6445 15.5018 18.6445 15.8669C18.6443 16.2318 18.3484 16.5281 17.9834 16.5281H16.6611V17.8503C16.6611 18.2154 16.3651 18.5115 16 18.5115C15.6349 18.5115 15.3389 18.2154 15.3389 17.8503V16.5281H14.0166C13.6517 16.528 13.3557 16.2318 13.3555 15.8669C13.3555 15.5019 13.6515 15.2059 14.0166 15.2058H15.3389V13.8835C15.3389 13.5184 15.6349 13.2224 16 13.2224Z" fill="white"/>
<path d="M20.9102 4.53394C21.536 4.53394 22.0439 5.04087 22.0439 5.66675V8.31128H19.7773V6.64526C19.7773 6.31389 19.5081 6.04468 19.1768 6.04468H12.8213C12.49 6.04473 12.2217 6.31393 12.2217 6.64526V8.31128H9.95508V5.66675C9.95513 5.04092 10.4621 4.53401 11.0879 4.53394H20.9102Z" fill="#D63D4A"/>
<path d="M7.18555 23.423H9.70407V23.8822C9.70407 24.3241 9.34589 24.6822 8.90407 24.6822H7.98555C7.54372 24.6822 7.18555 24.3241 7.18555 23.8822V23.423Z" fill="#D63D4A"/>
<path d="M22.2969 23.423H24.8154V23.8822C24.8154 24.3241 24.4572 24.6822 24.0154 24.6822H23.0969C22.655 24.6822 22.2969 24.3241 22.2969 23.8822V23.423Z" fill="#D63D4A"/>
</svg>
