<svg width="36" height="36" viewBox="0 0 36 36" fill="none" xmlns="http://www.w3.org/2000/svg">
<ellipse cx="17.7418" cy="27.9837" rx="17.0667" ry="3.2" fill="#FDCFC3"/>
<path d="M5.25 12.6344C5.25 10.8201 6.72074 9.34937 8.535 9.34937H27.465C29.2793 9.34937 30.75 10.8201 30.75 12.6344V23.0644C30.75 24.8786 29.2793 26.3494 27.465 26.3494H8.535C6.72075 26.3494 5.25 24.8786 5.25 23.0644V12.6344Z" fill="#FA967C"/>
<g style="mix-blend-mode:multiply">
<path d="M12.9 17.8505C12.9 15.0338 15.1833 12.7505 18 12.7505C20.8166 12.7505 23.1 15.0338 23.1 17.8505C23.1 20.6671 20.8166 22.9505 18 22.9505C15.1833 22.9505 12.9 20.6671 12.9 17.8505Z" fill="#D63D4A"/>
</g>
<path d="M17.9995 14.8748C18.4103 14.8748 18.7437 15.2081 18.7437 15.6189V17.1052H20.231C20.6417 17.1052 20.975 17.4386 20.9751 17.8494C20.9751 18.2601 20.6417 18.5935 20.231 18.5935H18.7437V20.0808C18.7437 20.4916 18.4103 20.825 17.9995 20.825C17.589 20.8247 17.2563 20.4914 17.2563 20.0808V18.5935H15.769C15.3583 18.5935 15.0249 18.2601 15.0249 17.8494C15.025 17.4386 15.3583 17.1052 15.769 17.1052H17.2563V15.6189C17.2563 15.2083 17.589 14.875 17.9995 14.8748Z" fill="white"/>
<path d="M23.1004 5.09985C24.0391 5.10006 24.7996 5.86178 24.7996 6.80054V9.34937H22.2493V7.69995C22.2492 7.20296 21.8469 6.80054 21.3499 6.80054H14.6497C14.1529 6.80071 13.7504 7.20307 13.7503 7.69995V9.34937H11.2V6.80054C11.2 5.86165 11.9618 5.09985 12.9007 5.09985H23.1004Z" fill="#D63D4A"/>
<path d="M8.08337 26.3506H10.9167V26.5673C10.9167 27.23 10.3794 27.7673 9.71671 27.7673H9.28337C8.62063 27.7673 8.08337 27.23 8.08337 26.5673V26.3506Z" fill="#D63D4A"/>
<path d="M25.0833 26.3506H27.9166V26.5673C27.9166 27.23 27.3793 27.7673 26.7166 27.7673H26.2833C25.6205 27.7673 25.0833 27.23 25.0833 26.5673V26.3506Z" fill="#D63D4A"/>
</svg>
