<svg width="37" height="36" viewBox="0 0 37 36" fill="none" xmlns="http://www.w3.org/2000/svg">
<ellipse cx="18.3674" cy="27.9837" rx="17.0667" ry="3.2" fill="#ACB1B6" fill-opacity="0.2"/>
<rect x="5.875" y="9.34937" width="25.5" height="17" rx="3.285" fill="#FBC5BA"/>
<rect x="13.5254" y="12.7504" width="10.2" height="10.2" rx="5.1" fill="#D63D4A"/>
<path d="M18.626 14.8748C19.0367 14.8748 19.3691 15.2082 19.3691 15.6189V17.1052H20.8564C21.2672 17.1052 21.6005 17.4386 21.6006 17.8494C21.6006 18.2601 21.2672 18.5935 20.8564 18.5935H19.3691V20.0808C19.3691 20.4915 19.0367 20.8249 18.626 20.825C18.2152 20.825 17.8818 20.4916 17.8818 20.0808V18.5935H16.3945C15.9838 18.5935 15.6504 18.2601 15.6504 17.8494C15.6504 17.4386 15.9838 17.1052 16.3945 17.1052H17.8818V15.6189C17.8818 15.2081 18.2152 14.8748 18.626 14.8748Z" fill="white"/>
<path d="M23.7256 5.09985C24.6643 5.10006 25.4248 5.86129 25.4248 6.80005V9.34985H22.876V7.70044C22.876 7.20342 22.4726 6.8001 21.9756 6.80005H15.2754C14.7784 6.8001 14.376 7.20342 14.376 7.70044V9.34985H11.8252V6.80005C11.8252 5.86116 12.5865 5.09985 13.5254 5.09985H23.7256Z" fill="#7E6254"/>
<path d="M8.70801 26.3507H11.5413V26.5674C11.5413 27.2301 11.0041 27.7674 10.3413 27.7674H9.90801C9.24527 27.7674 8.70801 27.2301 8.70801 26.5674V26.3507Z" fill="#313D4C"/>
<path d="M25.708 26.3507H28.5413V26.5674C28.5413 27.2301 28.0041 27.7674 27.3413 27.7674H26.908C26.2453 27.7674 25.708 27.2301 25.708 26.5674V26.3507Z" fill="#313D4C"/>
</svg>
