<svg width="36" height="36" viewBox="0 0 36 36" fill="none" xmlns="http://www.w3.org/2000/svg">
<ellipse cx="17.7415" cy="27.9837" rx="17.0667" ry="3.2" fill="#ACB1B6" fill-opacity="0.2"/>
<path d="M6.05778 19.5565C7.69436 19.5565 9.02107 18.2298 9.02107 16.5932C9.02107 14.9566 7.69436 13.6299 6.05778 13.6299C4.4212 13.6299 3.09448 14.9566 3.09448 16.5932C3.09448 18.2298 4.4212 19.5565 6.05778 19.5565Z" fill="#FDD9BD"/>
<path d="M29.9433 19.5565C31.5799 19.5565 32.9066 18.2298 32.9066 16.5932C32.9066 14.9566 31.5799 13.6299 29.9433 13.6299C28.3067 13.6299 26.98 14.9566 26.98 16.5932C26.98 18.2298 28.3067 19.5565 29.9433 19.5565Z" fill="#FDD9BD"/>
<path d="M18.0007 28.4808C24.5659 28.4808 29.888 23.1586 29.888 16.5934C29.888 10.0282 24.5659 4.70605 18.0007 4.70605C11.4354 4.70605 6.11328 10.0282 6.11328 16.5934C6.11328 23.1586 11.4354 28.4808 18.0007 28.4808Z" fill="#FDD9BD"/>
<ellipse cx="26.1755" cy="19.4099" rx="2.125" ry="1.4875" fill="white"/>
<ellipse cx="9.92529" cy="19.4099" rx="2.125" ry="1.4875" fill="white"/>
<path d="M14.6654 17.3304C15.2439 17.3304 15.7129 16.794 15.7129 16.1322C15.7129 15.4705 15.2439 14.9341 14.6654 14.9341C14.0869 14.9341 13.6179 15.4705 13.6179 16.1322C13.6179 16.794 14.0869 17.3304 14.6654 17.3304Z" fill="#313D4C"/>
<path d="M22.3825 16.1322C22.3825 16.7943 21.9132 17.3304 21.3351 17.3304C20.757 17.3304 20.2876 16.7943 20.2876 16.1322C20.2876 15.4702 20.757 14.9341 21.3351 14.9341C21.9132 14.9341 22.3825 15.4702 22.3825 16.1322Z" fill="#313D4C"/>
<path d="M6.2207 15.5344C6.2207 15.5344 11.1402 13.5151 14.1167 8.34312C14.1167 8.34312 14.3744 10.8673 13.4699 12.7605H22.5307C22.5307 12.7605 22.7883 11.1197 22.1415 8.21691C22.1415 8.21691 24.8603 12.8867 29.7772 14.7772C29.7772 14.7772 29.906 3.92578 18.1291 3.92578C6.35217 3.92578 6.2207 13.2627 6.2207 15.5344Z" fill="#313D4C"/>
<path d="M14.5615 18.9961C14.5615 20.8959 16.1006 22.435 18.0004 22.435C19.9002 22.435 21.4392 20.8959 21.4392 18.9961H14.564H14.5615Z" fill="#D63D4A"/>
</svg>
