<svg width="32" height="32" viewBox="0 0 32 32" fill="none" xmlns="http://www.w3.org/2000/svg">
<g style="mix-blend-mode:multiply">
<g clip-path="url(#clip0_78_506)">
<path d="M14.1093 7.23928C13.594 6.72804 13.3333 6.09688 13.3333 5.33317C13.3333 4.57262 13.594 3.93514 14.1093 3.42706C14.6216 2.91897 15.2083 2.6665 15.9596 2.6665C16.7108 2.6665 17.3472 2.91897 17.875 3.42706C18.4027 3.93514 18.6666 4.56946 18.6666 5.33317C18.6666 6.09688 18.4027 6.72804 17.875 7.23928C17.3472 7.74737 16.6829 7.99984 15.9596 7.99984C15.2362 7.99984 14.6216 7.74737 14.1093 7.23928Z" fill="white"/>
<path d="M16 21.333C17.4727 21.333 18.6665 22.5271 18.6667 23.9997V26.6663H13.3333V23.9997C13.3335 22.5271 14.5273 21.333 16 21.333Z" fill="#FA967C"/>
<path d="M18.6667 9.33301C21.6121 9.33301 23.9998 11.721 24 14.6663V21.333C24 23.8181 22.3003 25.9063 20 26.4984V23.9997C19.9998 21.7907 18.209 19.9997 16 19.9997C13.791 19.9997 12.0002 21.7907 12 23.9997V26.4984C9.69973 25.9063 8 23.8181 8 21.333V14.6663C8.00018 11.721 10.3879 9.33301 13.3333 9.33301H18.6667Z" fill="#FA967C"/>
<path d="M13.3333 23.9997C13.3333 22.5269 14.5272 21.333 15.9999 21.333C17.4727 21.333 18.6666 22.5269 18.6666 23.9997V27.9997C18.6666 29.4724 17.4727 30.6663 15.9999 30.6663C14.5272 30.6663 13.3333 29.4724 13.3333 27.9997V23.9997Z" fill="#D9D9D9"/>
<path d="M13.3333 23.9997C13.3333 22.5269 14.5272 21.333 15.9999 21.333C17.4727 21.333 18.6666 22.5269 18.6666 23.9997V27.9997C18.6666 29.4724 17.4727 30.6663 15.9999 30.6663C14.5272 30.6663 13.3333 29.4724 13.3333 27.9997V23.9997Z" fill="#D63D4A"/>
<ellipse cx="11.9998" cy="14.6663" rx="1.33333" ry="1.33333" fill="white"/>
<ellipse cx="19.9998" cy="14.6663" rx="1.33333" ry="1.33333" fill="white"/>
<path d="M17.867 6.66634C17.867 6.17952 17.7269 5.79457 17.4478 5.47103L17.3201 5.33691C16.9458 4.97654 16.51 4.79915 15.9595 4.79915C15.4232 4.79916 15.038 4.96592 14.673 5.3278L14.6704 5.3304C14.3154 5.6807 14.1326 6.10948 14.1326 6.66634C14.1326 7.22463 14.3146 7.64929 14.673 8.00488L14.811 8.12988C15.1393 8.40277 15.5105 8.53353 15.9595 8.53353C16.4206 8.53353 16.8325 8.39593 17.1769 8.12207L17.3201 7.99577C17.6857 7.64077 17.867 7.21995 17.867 6.66634ZM19.466 6.66634C19.466 7.63893 19.1204 8.4798 18.4321 9.14681L18.4295 9.14941C17.7454 9.80786 16.879 10.1325 15.9595 10.1325C15.1428 10.1325 14.415 9.8764 13.8019 9.37207L13.5454 9.1403C12.8734 8.47345 12.5337 7.63534 12.5337 6.66634C12.5337 5.70333 12.8715 4.85786 13.5454 4.19238L13.7993 3.96191C14.4051 3.45896 15.1141 3.2002 15.9595 3.2002C16.9113 3.2002 17.7484 3.52774 18.4295 4.18327L18.673 4.44238C19.202 5.06331 19.466 5.81665 19.466 6.66634Z" fill="#D63D4A"/>
<path d="M25.3333 5.33301L25.47 5.33952C26.1421 5.40796 26.6666 5.97611 26.6666 6.66634C26.6666 7.35658 26.1421 7.92472 25.47 7.99316L25.3333 7.99967H6.66659C5.93021 7.99967 5.33325 7.40272 5.33325 6.66634C5.33325 5.92996 5.93021 5.33301 6.66659 5.33301H25.3333Z" fill="#D63D4A"/>
<circle cx="16" cy="6.6665" r="2" fill="white"/>
</g>
</g>
<defs>
<clipPath id="clip0_78_506">
<rect width="21.3333" height="28" fill="white" transform="translate(5.33325 2.6665)"/>
</clipPath>
</defs>
</svg>
