<svg width="32" height="32" viewBox="0 0 32 32" fill="none" xmlns="http://www.w3.org/2000/svg">
<g style="mix-blend-mode:multiply">
<g style="mix-blend-mode:multiply">
<path d="M3.87887 5.3335H18.4243C18.7458 5.3335 19.0541 5.46122 19.2814 5.68854C19.5087 5.91585 19.6364 6.22414 19.6364 6.54562V23.5153H3.87887C3.55739 23.5153 3.2491 23.3876 3.02179 23.1603C2.79447 22.933 2.66675 22.6246 2.66675 22.3032V6.54562C2.66675 6.22414 2.79447 5.91585 3.02179 5.68854C3.2491 5.46122 3.55739 5.3335 3.87887 5.3335Z" fill="#D63D4A"/>
</g>
<path d="M28.1213 23.5269H19.6365V8.98145H23.2728C23.636 8.98166 23.9944 9.06348 24.3217 9.22083C24.6491 9.37817 24.9368 9.60705 25.1637 9.89054L28.8001 14.3754C29.145 14.8051 29.333 15.3395 29.3334 15.8906V22.3148C29.3334 22.6363 29.2057 22.9445 28.9784 23.1719C28.7511 23.3992 28.4428 23.5269 28.1213 23.5269Z" fill="#FA967C"/>
<g style="mix-blend-mode:multiply">
<path d="M8.12112 27.1514C9.79471 27.1514 11.1514 25.7947 11.1514 24.1211C11.1514 22.4475 9.79471 21.0908 8.12112 21.0908C6.44754 21.0908 5.09082 22.4475 5.09082 24.1211C5.09082 25.7947 6.44754 27.1514 8.12112 27.1514Z" fill="#D63D4A"/>
</g>
<path d="M8.1213 25.3334C8.79074 25.3334 9.33342 24.7907 9.33342 24.1213C9.33342 23.4519 8.79074 22.9092 8.1213 22.9092C7.45187 22.9092 6.90918 23.4519 6.90918 24.1213C6.90918 24.7907 7.45187 25.3334 8.1213 25.3334Z" fill="white"/>
<g style="mix-blend-mode:multiply">
<path d="M23.8787 27.1514C25.5523 27.1514 26.909 25.7947 26.909 24.1211C26.909 22.4475 25.5523 21.0908 23.8787 21.0908C22.2051 21.0908 20.8484 22.4475 20.8484 24.1211C20.8484 25.7947 22.2051 27.1514 23.8787 27.1514Z" fill="#D63D4A"/>
</g>
<path d="M23.8789 25.3334C24.5483 25.3334 25.091 24.7907 25.091 24.1213C25.091 23.4519 24.5483 22.9092 23.8789 22.9092C23.2094 22.9092 22.6667 23.4519 22.6667 24.1213C22.6667 24.7907 23.2094 25.3334 23.8789 25.3334Z" fill="white"/>
<g style="mix-blend-mode:multiply">
<path d="M25.406 10.1934H23.2727C22.9512 10.1934 22.6428 10.3211 22.4156 10.5484C22.1883 10.7757 22.0605 11.084 22.0605 11.4055V14.7388C22.0605 15.0603 22.1883 15.3685 22.4156 15.5959C22.6428 15.8232 22.9512 15.951 23.2727 15.951H29.3333C29.3344 15.3845 29.1856 14.8356 28.8242 14.3995L25.406 10.1934Z" fill="#D63D4A"/>
</g>
</g>
</svg>
