<svg width="32" height="32" viewBox="0 0 32 32" fill="none" xmlns="http://www.w3.org/2000/svg">
<ellipse cx="15.77" cy="24.8744" rx="15.1704" ry="2.84445" fill="#FDCFC3"/>
<path d="M18.3293 7.28313C18.5554 7.33262 18.7912 7.27999 18.9796 7.1457C20.2289 6.25554 22.1586 5.48367 23.0552 5.82932C23.7583 6.1004 23.7202 7.07249 23.6686 8.38755C23.654 8.75886 23.6384 9.15751 23.6381 9.57544C23.6379 9.78285 23.7306 9.97798 23.8814 10.1204C24.8584 11.0431 25.6048 12.1271 26.0494 13.3154C26.1226 13.511 26.3062 13.6465 26.5151 13.6465C27.3347 13.6465 27.9992 14.3109 27.9992 15.1305V18.0986C27.9992 18.9183 27.3347 19.5827 26.5151 19.5827H25.9357C25.6699 19.5827 25.4265 19.7263 25.2825 19.9497C25.047 20.3149 24.7808 20.6653 24.4867 20.9989C24.3619 21.1405 24.289 21.3213 24.289 21.51V24.7767C24.289 25.1865 23.9568 25.5187 23.5469 25.5187H21.1582C20.8177 25.5187 20.5209 25.287 20.4383 24.9566L20.38 24.7236C20.2721 24.2918 19.8113 24.0532 19.3859 24.1843C18.1442 24.5671 16.7951 24.777 15.3847 24.777C13.9743 24.777 12.6251 24.5671 11.3834 24.1842C10.9581 24.0531 10.4972 24.2918 10.3893 24.7236L10.331 24.9566C10.2484 25.287 9.95162 25.5187 9.61113 25.5187H7.22236C6.81255 25.5187 6.48033 25.1865 6.48033 24.7767V21.5099C6.48033 21.3211 6.40734 21.1403 6.28253 20.9987C5.15338 19.7179 4.43598 18.1881 4.28436 16.5326C4.25606 16.2236 4.05861 15.9546 3.77857 15.821C3.24987 15.5688 2.71473 15.1922 2.23311 14.6465C1.96194 14.3393 2.05813 13.8738 2.39912 13.6465C2.7401 13.4191 3.1951 13.519 3.48331 13.8103C3.52146 13.8489 3.55992 13.886 3.59864 13.9218C3.95696 14.2527 4.48507 13.9969 4.64174 13.535C5.92513 9.75118 10.2487 6.96821 15.3847 6.96821C16.404 6.96821 17.3914 7.07783 18.3293 7.28313Z" fill="#FA967C"/>
<path d="M14.6436 3.53638C16.5389 3.53638 18.0751 5.07272 18.0752 6.96802C18.0752 7.77622 17.7935 8.51637 17.3262 9.10278C16.7028 8.98202 16.0533 8.91626 15.3857 8.91626C14.2744 8.91628 13.2125 9.09409 12.2393 9.41626C11.605 8.79327 11.2119 7.92676 11.2119 6.96802C11.212 5.07279 12.7483 3.53648 14.6436 3.53638Z" fill="#D63D4A" stroke="#D63D4A" stroke-width="0.556523"/>
<path d="M23.8658 13.929C23.8658 14.4949 23.407 14.9537 22.8411 14.9537C22.2752 14.9537 21.8164 14.4949 21.8164 13.929C21.8164 13.3631 22.2752 12.9043 22.8411 12.9043C23.407 12.9043 23.8658 13.3631 23.8658 13.929Z" fill="#D63D4A"/>
<ellipse cx="22.3297" cy="17.7277" rx="1.85508" ry="1.11305" fill="white"/>
<path d="M19.0959 9.92252C17.9827 9.45695 16.7217 9.19434 15.3857 9.19434C13.5814 9.19434 11.9138 9.67335 10.5625 10.4844" stroke="#D63D4A" stroke-width="0.890437" stroke-linecap="round"/>
</svg>
