<svg width="32" height="32" viewBox="0 0 32 32" fill="none" xmlns="http://www.w3.org/2000/svg">
<path d="M3.33325 9.6568C3.33325 8.66734 4.13536 7.86523 5.12481 7.86523H26.875C27.8645 7.86523 28.6666 8.66734 28.6666 9.6568V23.235C28.6666 24.2244 27.8645 25.0265 26.875 25.0265H5.12481C4.13536 25.0265 3.33325 24.2244 3.33325 23.235V9.6568Z" fill="#65B9EC"/>
<path d="M3.33325 9.6568C3.33325 8.66734 4.13536 7.86523 5.12481 7.86523H26.875C27.8645 7.86523 28.6666 8.66734 28.6666 9.6568V23.235C28.6666 24.2244 27.8645 25.0265 26.875 25.0265H5.12481C4.13536 25.0265 3.33325 24.2244 3.33325 23.235V9.6568Z" fill="#FA967C"/>
<ellipse cx="26.2137" cy="10.1927" rx="0.924666" ry="0.924667" fill="white"/>
<g style="mix-blend-mode:multiply">
<ellipse cx="16" cy="16.0237" rx="5.06667" ry="5.06667" fill="#285FA4"/>
<ellipse cx="16" cy="16.0237" rx="5.06667" ry="5.06667" fill="#D63D4A"/>
</g>
<path d="M11.8345 16.5877C11.8345 15.3009 12.6065 12.5987 15.6948 12.084C14.6654 13.1134 12.6923 15.5154 11.8345 16.5877Z" fill="white"/>
<path d="M9.24438 7.91684C9.24438 6.05135 10.7567 4.53906 12.6222 4.53906H19.3777C21.2432 4.53906 22.7555 6.05135 22.7555 7.91684H9.24438Z" fill="#D9D9D9"/>
<path d="M9.24438 7.91684C9.24438 6.05135 10.7567 4.53906 12.6222 4.53906H19.3777C21.2432 4.53906 22.7555 6.05135 22.7555 7.91684H9.24438Z" fill="#313D4C"/>
<path d="M9.24438 7.91684C9.24438 6.05135 10.7567 4.53906 12.6222 4.53906H19.3777C21.2432 4.53906 22.7555 6.05135 22.7555 7.91684H9.24438Z" fill="#D63D4A"/>
</svg>
