<svg width="32" height="32" viewBox="0 0 32 32" fill="none" xmlns="http://www.w3.org/2000/svg">
<path d="M18.4879 8.2231C18.7259 8.27519 18.9741 8.21979 19.1725 8.07843C20.4875 7.14142 22.5188 6.32893 23.4626 6.69277C24.2027 6.97811 24.1626 8.00136 24.1083 9.38565C24.0929 9.77649 24.0765 10.1961 24.0761 10.6361C24.0759 10.8544 24.1735 11.0598 24.3322 11.2097C25.3607 12.181 26.1464 13.322 26.6143 14.5728C26.6914 14.7788 26.8847 14.9213 27.1046 14.9213C27.9674 14.9213 28.6668 15.6207 28.6668 16.4835V19.6078C28.6668 20.4706 27.9674 21.17 27.1046 21.17H26.4947C26.2149 21.17 25.9587 21.3212 25.8071 21.5564C25.5592 21.9407 25.279 22.3096 24.9695 22.6607C24.8381 22.8098 24.7613 23.0001 24.7613 23.1988V26.6374C24.7613 27.0687 24.4116 27.4184 23.9802 27.4184H21.4657C21.1073 27.4184 20.7949 27.1745 20.708 26.8268L20.6466 26.5815C20.533 26.127 20.0479 25.8757 19.6002 26.0138C18.2931 26.4167 16.873 26.6376 15.3884 26.6376C13.9037 26.6376 12.4836 26.4167 11.1764 26.0137C10.7288 25.8757 10.2437 26.1269 10.13 26.5814L10.0687 26.8268C9.98176 27.1745 9.66934 27.4184 9.31092 27.4184H6.79644C6.36506 27.4184 6.01535 27.0687 6.01535 26.6374V23.1986C6.01535 22.9999 5.93852 22.8096 5.80714 22.6605C4.61856 21.3123 3.8634 19.702 3.7038 17.9594C3.67401 17.6341 3.46617 17.351 3.17139 17.2104C2.61486 16.9449 2.05156 16.5485 1.5446 15.974C1.25915 15.6506 1.36041 15.1606 1.71934 14.9213C2.07827 14.6821 2.55722 14.7871 2.86059 15.0938C2.90075 15.1344 2.94124 15.1735 2.98199 15.2112C3.35918 15.5595 3.91508 15.2902 4.07999 14.804C5.43093 10.821 9.98203 7.8916 15.3884 7.8916C16.4614 7.8916 17.5007 8.00699 18.4879 8.2231Z" fill="#FA967C"/>
<path d="M14.6069 4.2793C16.602 4.2793 18.2192 5.89653 18.2192 7.8916C18.2192 8.74245 17.9222 9.52136 17.4302 10.1387C16.7741 10.0116 16.0907 9.94238 15.3882 9.94238C14.2185 9.9424 13.101 10.1297 12.0767 10.4688C11.4088 9.81295 10.9946 8.90099 10.9946 7.8916C10.9947 5.89658 12.6119 4.27938 14.6069 4.2793Z" fill="#D63D4A" stroke="#D63D4A" stroke-width="0.585814"/>
<path d="M24.315 15.2188C24.315 15.8145 23.8321 16.2974 23.2364 16.2974C22.6406 16.2974 22.1577 15.8145 22.1577 15.2188C22.1577 14.6231 22.6406 14.1401 23.2364 14.1401C23.8321 14.1401 24.315 14.6231 24.315 15.2188Z" fill="#D63D4A"/>
<ellipse cx="22.6991" cy="19.2175" rx="1.95271" ry="1.17163" fill="white"/>
<path d="M19.2938 11.0014C18.122 10.5113 16.7946 10.2349 15.3883 10.2349C13.489 10.2349 11.7337 10.7391 10.3113 11.5929" stroke="#D63D4A" stroke-width="0.937303" stroke-linecap="round"/>
</svg>
