<svg width="20" height="20" viewBox="0 0 20 20" fill="none" xmlns="http://www.w3.org/2000/svg">
<path fill-rule="evenodd" clip-rule="evenodd" d="M6.31675 3.4165C6.02297 3.4166 5.73445 3.49434 5.48039 3.64186C5.22634 3.78937 5.01579 4.00141 4.87008 4.2565L1.88675 9.47734C1.7426 9.72931 1.66677 10.0146 1.66675 10.3048V14.0532C1.66677 14.3118 1.72696 14.5668 1.84258 14.7982L2.77425 16.6615C2.91263 16.9384 3.12541 17.1713 3.38873 17.3341C3.65205 17.4969 3.9555 17.5832 4.26508 17.5832H5.00008C5.44211 17.5832 5.86603 17.4076 6.17859 17.095C6.49115 16.7825 6.66675 16.3585 6.66675 15.9165H13.3334C13.3334 16.3585 13.509 16.7825 13.8216 17.095C14.1341 17.4076 14.5581 17.5832 15.0001 17.5832H15.7351C16.0447 17.5832 16.3481 17.4969 16.6114 17.3341C16.8748 17.1713 17.0875 16.9384 17.2259 16.6615L18.1576 14.7982C18.2734 14.5673 18.3334 14.3115 18.3334 14.0532V10.3048C18.3334 10.0146 18.2576 9.72931 18.1134 9.47734L15.1301 4.2565C14.9844 4.00141 14.7738 3.78937 14.5198 3.64186C14.2657 3.49434 13.9772 3.4166 13.6834 3.4165H6.31675ZM10.0001 10.0832C8.66925 10.0832 7.44008 9.79734 6.20591 9.33734C6.00811 9.23854 5.77916 9.22238 5.56943 9.29239C5.3597 9.3624 5.18637 9.51286 5.08758 9.71067C4.98879 9.90848 4.97262 10.1374 5.04263 10.3472C5.11265 10.5569 5.26311 10.7302 5.46091 10.829C5.87258 11.0332 7.96675 11.7498 10.0001 11.7498C11.5451 11.7498 13.1401 11.5215 14.5376 10.8298C14.7344 10.7298 14.884 10.5564 14.9541 10.347C15.0243 10.1377 15.0094 9.90912 14.9126 9.71067C14.8637 9.6127 14.796 9.52531 14.7133 9.45352C14.6306 9.38172 14.5346 9.32692 14.4308 9.29225C14.3269 9.25758 14.2172 9.24372 14.108 9.25145C13.9988 9.25919 13.8922 9.28837 13.7942 9.33734C12.6567 9.90567 11.2467 10.0832 10.0001 10.0832Z" fill="#285FA4"/>
</svg>
