<svg width="36" height="36" viewBox="0 0 36 36" fill="none" xmlns="http://www.w3.org/2000/svg">
<ellipse cx="17.7416" cy="27.9832" rx="17.0667" ry="3.2" fill="#FDCFC3"/>
<path d="M8.84244 17.0067C9.46263 17.0067 9.97993 17.4631 10.1548 18.0581C11.1509 21.4467 14.2835 23.9208 17.9945 23.9208C21.7054 23.9207 24.8381 21.4466 25.8342 18.0581C26.0091 17.4631 26.5264 17.0067 27.1466 17.0067H29.7485C30.4894 17.0067 31.0747 17.6467 30.9284 18.373C29.7127 24.4068 24.3836 28.9509 17.9916 28.951C11.5997 28.9508 6.27043 24.4067 5.05479 18.373C4.90846 17.6467 5.49373 17.0067 6.23462 17.0067H8.84244Z" fill="white"/>
<path fill-rule="evenodd" clip-rule="evenodd" d="M17.9987 2.5498C25.2881 2.55012 31.1969 8.46002 31.1969 15.7495C31.1968 16.9391 31.0384 18.0914 30.7428 19.1875C30.4777 20.1702 29.5385 20.7795 28.5206 20.7798C26.8612 20.7798 25.7922 18.7142 26.0612 17.0767C26.1323 16.6434 26.1696 16.1986 26.1696 15.7451C26.1695 15.4901 25.8925 15.3396 25.6696 15.4633L23.094 16.8921C22.9439 16.9754 22.8363 17.1171 22.7839 17.2806C22.135 19.3067 20.2372 20.7739 17.9957 20.7739C15.7542 20.7739 13.8564 19.3066 13.2075 17.2805C13.1552 17.1171 13.0476 16.9753 12.8975 16.8921L10.3249 15.4641C10.1026 15.3407 9.82777 15.4909 9.82776 15.7451C9.82776 16.1981 9.86517 16.6424 9.93616 17.0752C10.2048 18.7133 9.13519 20.7798 7.47522 20.7798C6.45739 20.7795 5.5181 20.1702 5.25305 19.1875C4.95747 18.0914 4.799 16.939 4.79895 15.7495C4.79895 8.45983 10.709 2.5498 17.9987 2.5498ZM17.9987 7.57422C14.784 7.57422 12.0027 9.43081 10.6688 12.1302C10.4774 12.5176 10.772 12.949 11.2041 12.9563L13.4357 12.9941C13.6518 12.9978 13.8522 12.8884 13.9825 12.7161C14.9004 11.502 16.3563 10.7178 17.9957 10.7178C19.6349 10.7178 21.0897 11.5023 22.0075 12.7162C22.1378 12.8885 22.3382 12.9978 22.5542 12.9941L24.7917 12.9563C25.2237 12.949 25.5184 12.5175 25.3269 12.1301C23.993 9.43108 21.2129 7.57441 17.9987 7.57422Z" fill="white"/>
<path d="M8.8422 17.0068C9.46238 17.0068 9.97968 17.4632 10.1546 18.0582C11.1506 21.4468 14.2833 23.9209 17.9943 23.9209C21.7051 23.9208 24.8379 21.4467 25.8339 18.0582C26.0088 17.4632 26.5261 17.0068 27.1463 17.0068H29.7483C30.4892 17.0068 31.0744 17.6469 30.9281 18.3732C29.7125 24.407 24.3833 28.9511 17.9913 28.9512C11.5995 28.9509 6.27019 24.4069 5.05455 18.3731C4.90822 17.6469 5.49348 17.0068 6.23437 17.0068H8.8422Z" fill="#D63D4A"/>
<g style="mix-blend-mode:multiply">
<path fill-rule="evenodd" clip-rule="evenodd" d="M17.9986 2.5498C25.288 2.55012 31.1968 8.46002 31.1968 15.7495C31.1968 16.9391 31.0383 18.0914 30.7427 19.1875C30.4777 20.1702 29.5384 20.7795 28.5206 20.7798C26.8611 20.7798 25.7921 18.7142 26.0611 17.0767C26.1323 16.6434 26.1695 16.1986 26.1695 15.7451C26.1695 15.4902 25.893 15.3403 25.67 15.4639L23.0933 16.8921C22.9436 16.9753 22.8366 17.1172 22.7842 17.2803C22.3939 18.4991 21.5499 19.5123 20.4522 20.1279C20.0989 20.3261 19.8999 20.7415 20.0333 21.124L20.5797 22.6899C20.7178 23.0863 21.1563 23.2947 21.5347 23.1133C21.6729 23.0469 21.8082 22.9746 21.942 22.9009C20.7716 23.5488 19.4269 23.9204 17.9942 23.9204C16.6814 23.9204 15.4426 23.608 14.3438 23.0576C14.7183 23.23 15.1499 23.0247 15.2872 22.6313L15.8365 21.0566C15.9673 20.6816 15.7783 20.2747 15.4366 20.0723C14.3886 19.4514 13.5853 18.4613 13.2071 17.2803C13.1548 17.1171 13.0477 16.9753 12.898 16.8921L10.3243 15.4639C10.1021 15.341 9.82771 15.4911 9.8277 15.7451C9.8277 16.1981 9.86511 16.6424 9.9361 17.0752C10.2048 18.7133 9.13513 20.7798 7.47516 20.7798C6.45733 20.7795 5.51804 20.1702 5.25299 19.1875C4.95741 18.0914 4.79894 16.939 4.79889 15.7495C4.79889 8.45983 10.7089 2.5498 17.9986 2.5498ZM17.9986 7.57422C14.784 7.57422 12.0025 9.43057 10.6685 12.1299C10.4771 12.5172 10.7726 12.9487 11.2047 12.9561L13.4356 12.9941C13.6516 12.9978 13.8517 12.8881 13.982 12.7158C14.8999 11.5017 16.3563 10.7178 17.9957 10.7178C19.6348 10.7178 21.0901 11.502 22.0079 12.7158C22.1381 12.8881 22.3383 12.9978 22.5543 12.9941L24.7911 12.9561C25.2231 12.9488 25.5187 12.5173 25.3272 12.1299C23.9933 9.43086 21.2129 7.57441 17.9986 7.57422Z" fill="#FA967C"/>
<path d="M7.41217 23.6392C7.40179 23.6252 7.39027 23.6121 7.37994 23.5981C7.37638 23.5933 7.3731 23.5883 7.36969 23.5835C7.38355 23.6023 7.39821 23.6205 7.41217 23.6392Z" fill="#FA967C"/>
<path d="M28.6026 23.5981C28.5921 23.6123 28.5795 23.625 28.5689 23.6392C28.5829 23.6205 28.5975 23.6023 28.6114 23.5835C28.6081 23.5881 28.606 23.5936 28.6026 23.5981Z" fill="#FA967C"/>
</g>
<rect x="15.4802" y="13.2356" width="5.02824" height="5.02824" rx="2.51412" fill="white"/>
</svg>
