<svg width="33" height="32" viewBox="0 0 33 32" fill="none" xmlns="http://www.w3.org/2000/svg">
<path fill-rule="evenodd" clip-rule="evenodd" d="M11.8422 6C11.4415 6.00014 11.048 6.11469 10.7015 6.33204C10.355 6.54939 10.0678 6.86182 9.86907 7.23768L5.80006 14.9302C5.60346 15.3015 5.50003 15.7218 5.5 16.1495V21.6724C5.50002 22.0535 5.58213 22.4293 5.73982 22.7701L7.01053 25.5156C7.19927 25.9236 7.48948 26.2668 7.84863 26.5067C8.20777 26.7465 8.62166 26.8736 9.0439 26.8736H10.0464C10.6493 26.8736 11.2275 26.6149 11.6538 26.1544C12.0801 25.6938 12.3196 25.0692 12.3196 24.4179H21.4123C21.4123 25.0692 21.6518 25.6938 22.0781 26.1544C22.5044 26.6149 23.0826 26.8736 23.6855 26.8736H24.688C25.1102 26.8736 25.5241 26.7465 25.8832 26.5067C26.2424 26.2668 26.5326 25.9236 26.7213 25.5156L27.9921 22.7701C28.15 22.43 28.2319 22.053 28.2319 21.6724V16.1495C28.2319 15.7218 28.1284 15.3015 27.9318 14.9302L23.8628 7.23768C23.6641 6.86182 23.3769 6.54939 23.0304 6.33204C22.6839 6.11469 22.2904 6.00014 21.8897 6H11.8422Z" fill="#786BEE"/>
<g style="mix-blend-mode:multiply">
<path d="M8.0174 26.6331C7.65825 26.3932 7.36804 26.05 7.1793 25.642L6.54395 24.2692H27.5255L26.8901 25.642C26.7014 26.05 26.4112 26.3932 26.052 26.6331C25.6929 26.8729 25.279 27 24.8567 27H23.8543C23.2514 27 22.6732 26.7413 22.2469 26.2807C21.8206 25.8202 21.5811 25.1956 21.5811 24.5443H12.4883C12.4883 25.1956 12.2488 25.8202 11.8225 26.2807C11.3962 26.7413 10.818 27 10.2151 27H9.21267C8.79043 27 8.37654 26.8729 8.0174 26.6331Z" fill="#313D4C"/>
</g>
<path d="M9.34122 13.1832L11.1148 9.19271C11.2972 8.78223 11.7043 8.51769 12.1535 8.51769H21.8119C22.2611 8.51769 22.6682 8.78223 22.8506 9.19271L24.6242 13.1832C24.9583 13.9349 24.4081 14.7816 23.5855 14.7816H10.3799C9.55736 14.7816 9.00715 13.9349 9.34122 13.1832Z" fill="#D5E0FF"/>
<ellipse cx="11.2418" cy="19.571" rx="1.56597" ry="1.56597" fill="white"/>
<ellipse cx="22.7261" cy="19.571" rx="1.56597" ry="1.56597" fill="white"/>
</svg>
