<svg width="32" height="32" viewBox="0 0 32 32" fill="none" xmlns="http://www.w3.org/2000/svg">
<g style="mix-blend-mode:multiply">
<path d="M24.6666 15.3333C24.6666 17.9107 20.4879 20 15.3333 20C10.1786 20 5.99992 17.9107 5.99992 15.3333C5.99992 12.756 10.1786 10.6667 15.3333 10.6667C20.4879 10.6667 24.6666 12.756 24.6666 15.3333Z" fill="#FA967C"/>
<path d="M23.3333 19.3333C23.3333 21.1743 19.7515 22.6667 15.3333 22.6667C10.915 22.6667 7.33325 21.1743 7.33325 19.3333C7.33325 17.4924 10.915 16 15.3333 16C19.7515 16 23.3333 17.4924 23.3333 19.3333Z" fill="#FA967C"/>
<path d="M27.3333 10C27.3333 13.3137 21.9607 16 15.3333 16C8.70583 16 3.33325 13.3137 3.33325 10C3.33325 6.68629 8.70583 4 15.3333 4C21.9607 4 27.3333 6.68629 27.3333 10Z" fill="#FA967C"/>
<g style="mix-blend-mode:multiply">
<path d="M24.6667 9.99984C24.6667 11.8408 20.488 13.3332 15.3333 13.3332C10.1787 13.3332 6 11.8408 6 9.99984C6 8.15889 10.1787 6.6665 15.3333 6.6665C20.488 6.6665 24.6667 8.15889 24.6667 9.99984Z" fill="#D63D4A"/>
</g>
<path d="M8.234 28.9711C8.71472 25.9784 9.35874 25.9729 11.3334 24.4171C12.669 23.3648 11.0723 22.0398 10.6667 22.0398C10.4928 21.9154 10.3276 21.7469 10.2004 21.6065L15.0257 20.6665H22.0001C22.0001 21.9594 20.3591 25.0635 15.0257 25.71C11.0832 26.1879 9.39782 27.8643 8.40925 29.0513C8.34417 29.1294 8.21787 29.0715 8.234 28.9711Z" fill="#FA967C"/>
<g style="mix-blend-mode:multiply">
<path d="M23.3334 3.82142C23.6297 3.30822 24.3705 3.30822 24.6668 3.82142L29.3335 11.9043C29.6297 12.4175 29.2594 13.059 28.6668 13.059H19.3334C18.7409 13.059 18.3705 12.4175 18.6668 11.9043L23.3334 3.82142Z" fill="#D63D4A"/>
</g>
<path d="M24 9.90033C23.5121 9.90033 23.1166 10.2958 23.1166 10.7837C23.1166 11.2715 23.5121 11.667 24 11.667C24.4878 11.667 24.8833 11.2715 24.8833 10.7837C24.8833 10.2958 24.4878 9.90033 24 9.90033Z" fill="white"/>
<path d="M24.5637 9.17149C24.618 9.17149 24.6619 9.12755 24.6619 9.07334L24.6619 8.28816L24.6619 6.55032L24.6619 5.76514C24.6619 5.71093 24.618 5.66699 24.5637 5.66699L23.435 5.66699C23.3808 5.66699 23.3369 5.71093 23.3369 5.76514L23.3369 6.55032L23.3369 9.07334C23.3369 9.12754 23.3808 9.17149 23.435 9.17149L24.5637 9.17149Z" fill="white"/>
<g style="mix-blend-mode:multiply">
<path d="M19.1518 20.4855C17.8309 21.6417 15.7134 21.3832 15.7134 21.3832C15.7134 21.3832 15.7374 19.25 17.0583 18.0938C18.3792 16.9376 20.4967 17.1961 20.4967 17.1961C20.4967 17.1961 20.4727 19.3292 19.1518 20.4855Z" fill="#D63D4A"/>
</g>
<g style="mix-blend-mode:multiply">
<path d="M5.59635 17.0975C5.39008 16.7706 4.98607 16.6445 4.63802 16.7758L4.49219 16.8475L4.19271 17.0519C3.89454 17.2702 3.60923 17.5332 3.40755 17.8448C3.151 18.2415 3.01917 18.7435 3.1888 19.2693L3.28125 19.4959C3.46333 19.8687 3.80113 20.1019 4.07682 20.2498C4.37371 20.409 4.72972 20.5377 5.10417 20.6443C5.85638 20.8585 6.80338 21.0186 7.78385 21.1378C9.75134 21.377 11.9753 21.4659 13.3333 21.4659C13.7751 21.4659 14.1328 21.1083 14.1328 20.6665C14.1328 20.2246 13.7752 19.867 13.3333 19.867C12.0247 19.867 9.86664 19.7791 7.97656 19.5493C7.02845 19.434 6.1774 19.2858 5.54297 19.1053C5.22418 19.0145 4.98921 18.9232 4.83333 18.8396C4.77945 18.8107 4.74592 18.7852 4.72396 18.7693C4.72944 18.7567 4.73598 18.737 4.7513 18.7133C4.81458 18.6157 4.93766 18.4907 5.13021 18.3488L5.34635 18.2016L5.47396 18.1014C5.74258 17.8437 5.8027 17.4245 5.59635 17.0975Z" fill="#D63D4A"/>
</g>
</g>
</svg>
