<svg width="36" height="36" viewBox="0 0 36 36" fill="none" xmlns="http://www.w3.org/2000/svg">
<ellipse cx="17.7417" cy="27.9837" rx="17.0667" ry="3.2" fill="#FDCFC3"/>
<path d="M28.9874 22.0844C28.35 25.8951 26.0695 28.5271 17.9101 28.5271C9.75064 28.5271 7.47012 25.8951 6.83273 22.0844C6.50998 21.9934 6.19812 21.8516 5.90932 21.6591L5.03745 21.0778C4.58957 20.7793 4.32056 20.2766 4.32056 19.7383V18.7795C4.32056 14.2312 6.49684 9.95748 10.1752 7.2823C10.4182 7.10558 10.7155 7.01039 11.016 7.01039C11.4545 7.01039 11.8381 7.19168 12.1115 7.4731C13.8076 6.46004 15.7909 5.87793 17.9101 5.87793C20.0293 5.87793 22.0126 6.46004 23.7087 7.4731C23.9821 7.19168 24.3657 7.01039 24.8042 7.01039C25.1046 7.01039 25.402 7.10558 25.6449 7.2823C29.3233 9.95748 31.4996 14.2312 31.4996 18.7795V19.7383C31.4996 20.2766 31.2306 20.7793 30.7827 21.0778L29.9109 21.6591C29.6221 21.8516 29.3102 21.9934 28.9874 22.0844Z" fill="white"/>
<path d="M29.2347 17.2025C29.2347 23.4569 29.2347 28.5271 17.9101 28.5271C6.58545 28.5271 6.58545 23.4569 6.58545 17.2025C6.58545 10.9481 11.6556 5.87793 17.9101 5.87793C24.1645 5.87793 29.2347 10.9481 29.2347 17.2025Z" fill="#FA967C"/>
<ellipse cx="15.362" cy="22.2995" rx="2.54804" ry="1.69869" fill="white"/>
<ellipse cx="20.4582" cy="22.2995" rx="2.54804" ry="1.69869" fill="white"/>
<g style="mix-blend-mode:multiply">
<path d="M15.0789 17.2028C15.0789 17.8282 14.5719 18.3352 13.9464 18.3352C13.321 18.3352 12.814 17.8282 12.814 17.2028C12.814 16.5773 13.321 16.0703 13.9464 16.0703C14.5719 16.0703 15.0789 16.5773 15.0789 17.2028Z" fill="#D63D4A"/>
<path d="M20.175 20.317C20.175 21.2552 19.1609 22.0157 17.91 22.0157C16.6592 22.0157 15.6451 21.2552 15.6451 20.317C15.6451 19.3789 16.6592 18.6183 17.91 18.6183C19.1609 18.6183 20.175 19.3789 20.175 20.317Z" fill="#D63D4A"/>
<path d="M21.8737 18.3352C22.4991 18.3352 23.0061 17.8282 23.0061 17.2028C23.0061 16.5773 22.4991 16.0703 21.8737 16.0703C21.2482 16.0703 20.7412 16.5773 20.7412 17.2028C20.7412 17.8282 21.2482 18.3352 21.8737 18.3352Z" fill="#D63D4A"/>
</g>
<path d="M13.4784 6.03191C14.5949 5.74379 15.3424 7.15309 14.4777 7.91582L14.3753 8.00616C11.6958 10.3695 10.0124 13.6611 9.66454 17.217L9.51554 18.7401C9.4513 19.3967 9.17552 20.0147 8.7297 20.5011C7.05883 22.3239 4.02689 21.5001 3.5081 19.0825L3.36096 18.3968C3.28925 18.0626 3.2794 17.7181 3.33188 17.3804L3.36024 17.1979C4.20074 11.7894 8.17863 7.39957 13.4784 6.03191Z" fill="#D63D4A"/>
<path d="M22.3416 6.03191C21.2252 5.74379 20.4776 7.15309 21.3424 7.91582L21.4448 8.00616C24.1242 10.3695 25.8077 13.6611 26.1555 17.217L26.3045 18.7401C26.3688 19.3967 26.6445 20.0147 27.0904 20.5011C28.7612 22.3239 31.7932 21.5001 32.312 19.0825L32.4591 18.3968C32.5308 18.0626 32.5407 17.7181 32.4882 17.3804L32.4598 17.1979C31.6193 11.7894 27.6414 7.39957 22.3416 6.03191Z" fill="#D63D4A"/>
</svg>
