<svg width="20" height="20" viewBox="0 0 20 20" fill="none" xmlns="http://www.w3.org/2000/svg">
<path fill-rule="evenodd" clip-rule="evenodd" d="M10.0005 1.25C11.7492 1.25023 13.167 2.66775 13.167 4.4165V4.58333H15.5205C16.2721 4.58338 16.9078 5.13959 17.0073 5.8846L18.4518 16.7179L18.4648 16.8856C18.4834 17.7142 17.8154 18.4163 16.965 18.4163H3.03513C2.12802 18.4163 1.42843 17.6171 1.54832 16.7179L2.99282 5.8846L3.01804 5.74788C3.1724 5.0726 3.77476 4.58337 4.47963 4.58333H6.83315V4.4165C6.83315 2.6676 8.25156 1.25 10.0005 1.25ZM10.0005 2.58301C8.98794 2.58301 8.16697 3.40398 8.16697 4.4165V4.58333H11.8331V4.4165C11.8331 3.40413 11.0128 2.58324 10.0005 2.58301Z" fill="#33363D"/>
</svg>
