<svg width="36" height="36" viewBox="0 0 36 36" fill="none" xmlns="http://www.w3.org/2000/svg">
<ellipse cx="17.742" cy="27.9837" rx="17.0667" ry="3.2" fill="#ACB1B6" fill-opacity="0.2"/>
<path d="M28.9874 22.0849C28.35 25.8955 26.0695 28.5276 17.9101 28.5276C9.75064 28.5276 7.47012 25.8955 6.83273 22.0849C6.50998 21.9939 6.19812 21.8521 5.90932 21.6596L5.03745 21.0783C4.58957 20.7798 4.32056 20.2771 4.32056 19.7388V18.78C4.32056 14.2317 6.49684 9.95797 10.1752 7.28278C10.4182 7.10607 10.7155 7.01088 11.016 7.01088C11.4545 7.01088 11.8381 7.19217 12.1115 7.47359C13.8076 6.46053 15.7909 5.87842 17.9101 5.87842C20.0293 5.87842 22.0126 6.46053 23.7087 7.47359C23.9821 7.19217 24.3657 7.01088 24.8042 7.01088C25.1046 7.01088 25.402 7.10607 25.6449 7.28278C29.3233 9.95797 31.4996 14.2317 31.4996 18.78V19.7388C31.4996 20.2771 31.2306 20.7798 30.7827 21.0783L29.9109 21.6596C29.6221 21.8521 29.3102 21.9939 28.9874 22.0849Z" fill="white"/>
<path d="M29.2347 17.203C29.2347 23.4574 29.2347 28.5276 17.9101 28.5276C6.58545 28.5276 6.58545 23.4574 6.58545 17.203C6.58545 10.9486 11.6556 5.87842 17.9101 5.87842C24.1645 5.87842 29.2347 10.9486 29.2347 17.203Z" fill="#EECBAE"/>
<ellipse cx="15.362" cy="22.2993" rx="2.54804" ry="1.69869" fill="white"/>
<ellipse cx="20.4579" cy="22.2993" rx="2.54804" ry="1.69869" fill="white"/>
<path d="M15.0789 17.2028C15.0789 17.8282 14.5719 18.3352 13.9464 18.3352C13.321 18.3352 12.814 17.8282 12.814 17.2028C12.814 16.5773 13.321 16.0703 13.9464 16.0703C14.5719 16.0703 15.0789 16.5773 15.0789 17.2028Z" fill="#313D4C"/>
<path d="M20.175 20.317C20.175 21.2552 19.1609 22.0157 17.91 22.0157C16.6592 22.0157 15.6451 21.2552 15.6451 20.317C15.6451 19.3789 16.6592 18.6183 17.91 18.6183C19.1609 18.6183 20.175 19.3789 20.175 20.317Z" fill="#313D4C"/>
<path d="M21.8737 18.3352C22.4991 18.3352 23.0061 17.8282 23.0061 17.2028C23.0061 16.5773 22.4991 16.0703 21.8737 16.0703C21.2482 16.0703 20.7412 16.5773 20.7412 17.2028C20.7412 17.8282 21.2482 18.3352 21.8737 18.3352Z" fill="#313D4C"/>
<path d="M13.4786 6.03142C14.595 5.7433 15.3425 7.1526 14.4778 7.91534L14.3754 8.00567C11.696 10.3691 10.0125 13.6606 9.66466 17.2165L9.51566 18.7396C9.45142 19.3962 9.17564 20.0142 8.72982 20.5006C7.05895 22.3234 4.02701 21.4997 3.50822 19.082L3.36108 18.3963C3.28938 18.0621 3.27952 17.7176 3.332 17.3799L3.36036 17.1974C4.20086 11.7889 8.17876 7.39908 13.4786 6.03142Z" fill="#7E6254"/>
<path d="M22.3418 6.03142C21.2253 5.7433 20.4778 7.1526 21.3425 7.91534L21.4449 8.00567C24.1243 10.3691 25.8078 13.6606 26.1556 17.2165L26.3046 18.7396C26.3689 19.3962 26.6447 20.0142 27.0905 20.5006C28.7614 22.3234 31.7933 21.4997 32.3121 19.082L32.4592 18.3963C32.5309 18.0621 32.5408 17.7176 32.4883 17.3799L32.4599 17.1974C31.6194 11.7889 27.6416 7.39908 22.3418 6.03142Z" fill="#7E6254"/>
</svg>
