<svg width="36" height="36" viewBox="0 0 36 36" fill="none" xmlns="http://www.w3.org/2000/svg">
<ellipse cx="17.7415" cy="27.9837" rx="17.0667" ry="3.2" fill="#ACB1B6" fill-opacity="0.2"/>
<g style="mix-blend-mode:multiply">
<path d="M23.1426 6.15841C23.1426 5.68503 23.5263 5.30127 23.9997 5.30127H26.5711C27.0445 5.30127 27.4283 5.68503 27.4283 6.15841V13.0156H23.1426V6.15841Z" fill="#7E6254"/>
</g>
<path d="M7.47633 14.7014L17.4462 6.26536C17.7658 5.99494 18.234 5.99495 18.5536 6.26536L28.5235 14.7014C28.716 14.8643 28.827 15.1036 28.827 15.3558L28.827 26.2015C28.827 26.8587 28.2884 27.3913 27.624 27.3913H20.7067H15.2931H8.37586C7.71146 27.3913 7.17285 26.8587 7.17285 26.2015L7.17285 15.3558C7.17285 15.1036 7.28386 14.8643 7.47633 14.7014Z" fill="#FFBA89"/>
<path d="M14.5715 20.7302C14.5715 20.2568 14.9553 19.873 15.4287 19.873H20.5715C21.0449 19.873 21.4287 20.2568 21.4287 20.7302V27.3922H14.5715L14.5715 20.7302Z" fill="white"/>
<path fill-rule="evenodd" clip-rule="evenodd" d="M17.2318 4.72992C17.6727 4.34784 18.3273 4.34784 18.7682 4.72992L29.5952 14.1134C30.0848 14.5376 30.1377 15.2784 29.7134 15.7679C29.2892 16.2575 28.5484 16.3104 28.0589 15.8861L18 7.16842L7.94114 15.8861C7.45161 16.3104 6.71084 16.2575 6.28658 15.7679C5.86232 15.2784 5.91523 14.5376 6.40476 14.1134L17.2318 4.72992Z" fill="#D63D4A"/>
</svg>
