<svg width="36" height="36" viewBox="0 0 36 36" fill="none" xmlns="http://www.w3.org/2000/svg">
<ellipse cx="17.7416" cy="27.9832" rx="17.0667" ry="3.2" fill="#FDCFC3"/>
<path d="M6.05766 19.5575C7.69424 19.5575 9.02095 18.2307 9.02095 16.5942C9.02095 14.9576 7.69424 13.6309 6.05766 13.6309C4.42107 13.6309 3.09436 14.9576 3.09436 16.5942C3.09436 18.2307 4.42107 19.5575 6.05766 19.5575Z" fill="#FA967C"/>
<path d="M29.9429 19.5575C31.5795 19.5575 32.9062 18.2307 32.9062 16.5942C32.9062 14.9576 31.5795 13.6309 29.9429 13.6309C28.3063 13.6309 26.9796 14.9576 26.9796 16.5942C26.9796 18.2307 28.3063 19.5575 29.9429 19.5575Z" fill="#FA967C"/>
<path d="M18.0003 28.4813C24.5655 28.4813 29.8877 23.1592 29.8877 16.594C29.8877 7.21354 24.5655 3.90015 18.0003 3.90015C9.75006 3.90015 6.00006 8.90636 6.00006 16.5002C6.00006 23.0654 11.4351 28.4813 18.0003 28.4813Z" fill="#FA967C"/>
<ellipse cx="26.1752" cy="19.4104" rx="2.125" ry="1.4875" fill="white"/>
<ellipse cx="9.92517" cy="19.4104" rx="2.125" ry="1.4875" fill="white"/>
<g style="mix-blend-mode:multiply">
<path d="M14.6653 17.3314C15.2438 17.3314 15.7127 16.795 15.7127 16.1332C15.7127 15.4715 15.2438 14.9351 14.6653 14.9351C14.0868 14.9351 13.6178 15.4715 13.6178 16.1332C13.6178 16.795 14.0868 17.3314 14.6653 17.3314Z" fill="#D63D4A"/>
</g>
<g style="mix-blend-mode:multiply">
<path d="M22.3828 16.1332C22.3828 16.7953 21.9134 17.3314 21.3353 17.3314C20.7572 17.3314 20.2878 16.7953 20.2878 16.1332C20.2878 15.4711 20.7572 14.9351 21.3353 14.9351C21.9134 14.9351 22.3828 15.4711 22.3828 16.1332Z" fill="#D63D4A"/>
</g>
<g style="mix-blend-mode:multiply">
<path d="M6.22089 15.5352C6.22089 15.5352 11.1404 13.5158 14.1169 8.34385C14.1169 8.34385 14.3746 10.868 13.4701 12.7612H22.5308C22.5308 12.7612 22.7885 11.1205 22.1417 8.21764C22.1417 8.21764 24.8605 12.8874 29.7774 14.7779C29.7774 14.7779 29.9062 3.92651 18.1293 3.92651C6.35235 3.92651 6.22089 13.2634 6.22089 15.5352Z" fill="#D63D4A"/>
</g>
<g style="mix-blend-mode:multiply">
<path d="M14.5613 18.9966C14.5613 20.8964 16.1004 22.4354 18.0002 22.4354C19.9 22.4354 21.4391 20.8964 21.4391 18.9966H14.5638H14.5613Z" fill="#D63D4A"/>
</g>
</svg>
