<svg width="32" height="33" viewBox="0 0 32 33" fill="none" xmlns="http://www.w3.org/2000/svg">
<path d="M18.6544 8.89009C18.8924 8.94218 19.1406 8.88678 19.339 8.74542C20.654 7.80841 22.6853 6.99592 23.6291 7.35976C24.3692 7.6451 24.3291 8.66835 24.2748 10.0526C24.2594 10.4435 24.243 10.8631 24.2426 11.303C24.2425 11.5214 24.34 11.7268 24.4987 11.8767C25.5272 12.848 26.3129 13.989 26.7808 15.2398C26.8579 15.4458 27.0512 15.5883 27.2711 15.5883C28.1339 15.5883 28.8333 16.2877 28.8333 17.1505V20.2748C28.8333 21.1376 28.1339 21.837 27.2711 21.837H26.6612C26.3814 21.837 26.1252 21.9882 25.9736 22.2234C25.7257 22.6077 25.4455 22.9766 25.136 23.3277C25.0046 23.4768 24.9278 23.6671 24.9278 23.8657V27.3043C24.9278 27.7357 24.5781 28.0854 24.1467 28.0854H21.6322C21.2738 28.0854 20.9614 27.8415 20.8745 27.4938L20.8131 27.2485C20.6995 26.794 20.2144 26.5427 19.7667 26.6808C18.4596 27.0837 17.0395 27.3046 15.5549 27.3046C14.0702 27.3046 12.6501 27.0837 11.343 26.6807C10.8953 26.5427 10.4102 26.7939 10.2965 27.2484L10.2352 27.4938C10.1483 27.8415 9.83584 28.0854 9.47743 28.0854H6.96294C6.53156 28.0854 6.18186 27.7357 6.18186 27.3043V23.8656C6.18186 23.6669 6.10503 23.4766 5.97364 23.3275C4.78507 21.9793 4.02991 20.369 3.87031 18.6264C3.84052 18.3011 3.63267 18.018 3.33789 17.8773C2.78137 17.6119 2.21806 17.2155 1.7111 16.641C1.42565 16.3176 1.52691 15.8276 1.88584 15.5883C2.24477 15.349 2.72372 15.4541 3.02709 15.7608C3.06725 15.8014 3.10774 15.8405 3.1485 15.8782C3.52568 16.2265 4.08158 15.9572 4.2465 15.471C5.59743 11.488 10.1485 8.55859 15.5549 8.55859C16.6279 8.55859 17.6672 8.67398 18.6544 8.89009Z" fill="#FA967C"/>
<path d="M14.7744 4.94604C16.7695 4.94604 18.3866 6.56328 18.3867 8.55835C18.3867 9.4092 18.0897 10.1881 17.5977 10.8054C16.9416 10.6784 16.2581 10.6091 15.5557 10.6091C14.386 10.6091 13.2685 10.7965 12.2441 11.1355C11.5763 10.4797 11.1621 9.56774 11.1621 8.55835C11.1622 6.56333 12.7794 4.94613 14.7744 4.94604Z" fill="#D63D4A" stroke="#D63D4A" stroke-width="0.585814"/>
<path d="M24.4815 15.8855C24.4815 16.4812 23.9986 16.9642 23.4029 16.9642C22.8071 16.9642 22.3242 16.4812 22.3242 15.8855C22.3242 15.2898 22.8071 14.8069 23.4029 14.8069C23.9986 14.8069 24.4815 15.2898 24.4815 15.8855Z" fill="#D63D4A"/>
<ellipse cx="22.8658" cy="19.884" rx="1.95271" ry="1.17163" fill="white"/>
<path d="M19.461 11.6681C18.2893 11.178 16.9619 10.9016 15.5556 10.9016C13.6563 10.9016 11.9009 11.4058 10.4785 12.2596" stroke="#D63D4A" stroke-width="0.937303" stroke-linecap="round"/>
</svg>
