<svg width="32" height="32" viewBox="0 0 32 32" fill="none" xmlns="http://www.w3.org/2000/svg">
<circle cx="16.0002" cy="15.6667" r="11.6667" fill="white"/>
<circle cx="16.0002" cy="15.6667" r="11.6667" fill="#FA967C"/>
<circle cx="16" cy="15.6665" r="10" fill="#FA967C"/>
<g style="mix-blend-mode:multiply">
<path d="M24.3335 15.9997C24.3335 11.3973 20.6025 7.66634 16.0002 7.66634C11.3978 7.66634 7.66683 11.3973 7.66683 15.9997C7.66683 16.9201 6.92064 17.6663 6.00016 17.6663C5.07969 17.6663 4.3335 16.9201 4.3335 15.9997C4.3335 9.55635 9.55684 4.33301 16.0002 4.33301C22.4435 4.33301 27.6668 9.55635 27.6668 15.9997C27.6668 16.9201 26.9206 17.6663 26.0002 17.6663C25.0797 17.6663 24.3335 16.9201 24.3335 15.9997Z" fill="#D63D4A"/>
</g>
<g style="mix-blend-mode:plus-darker">
<path d="M17.0662 12.6665C18.7598 12.6665 20.1326 14.0392 20.1326 15.7329C20.1326 17.4266 18.7598 18.7993 17.0662 18.7993H14.7996V21.0659C14.7996 21.655 14.3223 22.1323 13.7332 22.1323C13.1441 22.1323 12.6667 21.655 12.6667 21.0659V13.7329C12.6667 13.696 12.668 13.6595 12.6716 13.6235C12.6788 13.5536 12.6927 13.4857 12.7126 13.4204C12.7182 13.4021 12.7257 13.3845 12.7322 13.3667C12.7493 13.32 12.7685 13.2744 12.7917 13.231C12.7993 13.2169 12.8081 13.2036 12.8162 13.1899C12.8237 13.1773 12.8306 13.1642 12.8386 13.1519C12.8501 13.1342 12.8623 13.117 12.8748 13.1001C12.8808 13.0919 12.887 13.0837 12.8933 13.0757C12.9056 13.06 12.9183 13.0447 12.9314 13.0298C12.9422 13.0175 12.9533 13.0054 12.9646 12.9937C12.9764 12.9814 12.9884 12.9692 13.0007 12.9575C13.0093 12.9494 13.0183 12.9419 13.0271 12.9341C13.0437 12.9194 13.0604 12.9048 13.0779 12.8911C13.0871 12.884 13.0968 12.8775 13.1062 12.8706C13.1222 12.8589 13.1383 12.8472 13.155 12.8364C13.1697 12.8269 13.1848 12.8179 13.2 12.8091C13.2113 12.8025 13.2225 12.7957 13.2341 12.7896C13.2535 12.7793 13.2736 12.7703 13.2937 12.7612C13.3332 12.7433 13.3739 12.7274 13.4158 12.7144L13.4353 12.7085C13.4475 12.705 13.4601 12.7028 13.4724 12.6997C13.4915 12.6949 13.5106 12.6898 13.53 12.686C13.5958 12.6734 13.6637 12.6665 13.7332 12.6665H17.0662ZM14.7996 16.6665H17.0662C17.5816 16.6665 17.9998 16.2484 17.9998 15.7329C17.9998 15.2174 17.5816 14.7993 17.0662 14.7993H14.7996V16.6665Z" fill="#D63D4A"/>
</g>
</svg>
