<svg width="32" height="33" viewBox="0 0 32 33" fill="none" xmlns="http://www.w3.org/2000/svg">
<g style="mix-blend-mode:multiply">
<g style="mix-blend-mode:multiply">
<path d="M4.04611 6H18.5916C18.913 6 19.2214 6.12772 19.4486 6.35504C19.6759 6.58235 19.8037 6.89064 19.8037 7.21212V24.1818H4.04611C3.72463 24.1818 3.41634 24.0541 3.18903 23.8268C2.96171 23.5995 2.83398 23.2911 2.83398 22.9697V7.21212C2.83398 6.89064 2.96171 6.58235 3.18903 6.35504C3.41634 6.12772 3.72463 6 4.04611 6Z" fill="#D63D4A"/>
</g>
<path d="M28.2886 24.1936H19.8037V9.64813H23.4401C23.8032 9.64835 24.1616 9.73017 24.4889 9.88751C24.8163 10.0449 25.1041 10.2737 25.331 10.5572L28.9673 15.0421C29.3122 15.4718 29.5002 16.0062 29.5007 16.5573V22.9815C29.5007 23.303 29.3729 23.6112 29.1456 23.8386C28.9184 24.0659 28.61 24.1936 28.2886 24.1936Z" fill="#FA967C"/>
<g style="mix-blend-mode:multiply">
<path d="M8.28811 27.8181C9.9617 27.8181 11.3184 26.4614 11.3184 24.7878C11.3184 23.1142 9.9617 21.7575 8.28811 21.7575C6.61453 21.7575 5.25781 23.1142 5.25781 24.7878C5.25781 26.4614 6.61453 27.8181 8.28811 27.8181Z" fill="#D63D4A"/>
</g>
<path d="M8.28829 25.9999C8.95773 25.9999 9.50041 25.4572 9.50041 24.7878C9.50041 24.1184 8.95773 23.5757 8.28829 23.5757C7.61886 23.5757 7.07617 24.1184 7.07617 24.7878C7.07617 25.4572 7.61886 25.9999 8.28829 25.9999Z" fill="white"/>
<g style="mix-blend-mode:multiply">
<path d="M24.0459 27.8181C25.7195 27.8181 27.0762 26.4614 27.0762 24.7878C27.0762 23.1142 25.7195 21.7575 24.0459 21.7575C22.3724 21.7575 21.0156 23.1142 21.0156 24.7878C21.0156 26.4614 22.3724 27.8181 24.0459 27.8181Z" fill="#D63D4A"/>
</g>
<path d="M24.0461 25.9999C24.7155 25.9999 25.2582 25.4572 25.2582 24.7878C25.2582 24.1184 24.7155 23.5757 24.0461 23.5757C23.3767 23.5757 22.834 24.1184 22.834 24.7878C22.834 25.4572 23.3767 25.9999 24.0461 25.9999Z" fill="white"/>
<g style="mix-blend-mode:multiply">
<path d="M25.573 10.8603H23.4397C23.1182 10.8603 22.8098 10.9879 22.5826 11.2153C22.3553 11.4426 22.2275 11.7509 22.2275 12.0724V15.4057C22.2275 15.7272 22.3553 16.0354 22.5826 16.2628C22.8098 16.4901 23.1182 16.6179 23.4397 16.6179H29.5003C29.5014 16.0514 29.3526 15.5025 28.9912 15.0663L25.573 10.8603Z" fill="#D63D4A"/>
</g>
</g>
</svg>
