<svg width="37" height="36" viewBox="0 0 37 36" fill="none" xmlns="http://www.w3.org/2000/svg">
<g clip-path="url(#clip0_8335_141523)">
<ellipse cx="18.6165" cy="27.9834" rx="17.0667" ry="3.2" fill="#ACB1B6" fill-opacity="0.2"/>
<path fill-rule="evenodd" clip-rule="evenodd" d="M13.0263 5.94666C12.5901 5.94681 12.1616 6.07153 11.7844 6.30818C11.4071 6.54483 11.0944 6.885 10.878 7.29423L6.44779 15.6697C6.23374 16.074 6.12112 16.5316 6.12109 16.9973V23.0105C6.12112 23.4254 6.21051 23.8346 6.38221 24.2057L7.76573 27.1949C7.97123 27.6392 8.2872 28.0129 8.67823 28.274C9.06926 28.5352 9.5199 28.6735 9.97962 28.6735H11.0711C11.7275 28.6735 12.357 28.3918 12.8212 27.8904C13.2853 27.389 13.5461 26.7089 13.5461 25.9998H23.4461C23.4461 26.7089 23.7069 27.389 24.171 27.8904C24.6352 28.3918 25.2647 28.6735 25.9211 28.6735H27.0126C27.4723 28.6735 27.9229 28.5352 28.314 28.274C28.705 28.0129 29.021 27.6392 29.2265 27.1949L30.61 24.2057C30.782 23.8354 30.8711 23.425 30.8711 23.0105V16.9973C30.8711 16.5316 30.7584 16.074 30.5444 15.6697L26.1141 7.29423C25.8978 6.885 25.5851 6.54483 25.2078 6.30818C24.8306 6.07153 24.4021 5.94681 23.9658 5.94666H13.0263Z" fill="#786BEE"/>
<g style="mix-blend-mode:multiply">
<path d="M8.86208 28.4111C8.47104 28.1499 8.15507 27.7763 7.94957 27.332L7.25781 25.8374H30.1021L29.4103 27.332C29.2048 27.7763 28.8888 28.1499 28.4978 28.4111C28.1068 28.6723 27.6561 28.8106 27.1964 28.8106H26.1049C25.4485 28.8106 24.819 28.5289 24.3548 28.0275C23.8907 27.5261 23.6299 26.846 23.6299 26.1369H13.7299C13.7299 26.846 13.4692 27.5261 13.005 28.0275C12.5409 28.5289 11.9113 28.8106 11.2549 28.8106H10.1635C9.70374 28.8106 9.25311 28.6723 8.86208 28.4111Z" fill="#313D4C"/>
</g>
<path d="M10.2416 13.9091L12.2624 9.3624C12.4448 8.95192 12.8519 8.68738 13.3011 8.68738H23.9481C24.3973 8.68738 24.8044 8.95192 24.9868 9.3624L27.0076 13.9091C27.3416 14.6607 26.7914 15.5074 25.9689 15.5074H11.2803C10.4578 15.5074 9.90754 14.6607 10.2416 13.9091Z" fill="#D5E0FF"/>
<circle cx="12.373" cy="20.7225" r="1.705" fill="white"/>
<circle cx="24.8769" cy="20.7225" r="1.705" fill="white"/>
</g>
<defs>
<clipPath id="clip0_8335_141523">
<rect width="36" height="27.6" fill="white" transform="translate(0.75 6.44934)"/>
</clipPath>
</defs>
</svg>
