<svg width="32" height="33" viewBox="0 0 32 33" fill="none" xmlns="http://www.w3.org/2000/svg">
<g style="mix-blend-mode:multiply">
<path d="M21.167 7.00502C21.167 6.68943 21.4228 6.43359 21.7384 6.43359H24.7622C25.0778 6.43359 25.3337 6.68943 25.3337 7.00502V13.9335H21.167V7.00502Z" fill="#D63D4A"/>
</g>
<path d="M5.84295 15.6516L15.7978 7.22834C16.0109 7.04806 16.323 7.04806 16.536 7.22834L26.4909 15.6516C26.6192 15.7602 26.6932 15.9198 26.6932 16.0878V26.7537C26.6932 27.3926 26.1696 27.9105 25.5236 27.9105H18.7985H13.5354H6.81021C6.16427 27.9105 5.64062 27.3926 5.64062 26.7537L5.64063 16.0878C5.64063 15.9198 5.71463 15.7602 5.84295 15.6516Z" fill="#FA967C"/>
<path d="M12.834 21.1719C12.834 20.8563 13.0898 20.6005 13.4054 20.6005H18.9292C19.2448 20.6005 19.5007 20.8563 19.5007 21.1719V27.9107H12.834L12.834 21.1719Z" fill="#FDCFC3"/>
<path fill-rule="evenodd" clip-rule="evenodd" d="M15.4198 5.87845C15.8484 5.50699 16.4849 5.50699 16.9135 5.87845L27.4398 15.0012C27.9157 15.4136 27.9672 16.1338 27.5547 16.6098C27.1422 17.0857 26.422 17.1371 25.9461 16.7247L16.1667 8.2492L6.38722 16.7247C5.91129 17.1371 5.19109 17.0857 4.77862 16.6098C4.36614 16.1338 4.41759 15.4136 4.89352 15.0012L15.4198 5.87845Z" fill="#285FA4"/>
<path fill-rule="evenodd" clip-rule="evenodd" d="M15.4198 5.87845C15.8484 5.50699 16.4849 5.50699 16.9135 5.87845L27.4398 15.0012C27.9157 15.4136 27.9672 16.1338 27.5547 16.6098C27.1422 17.0857 26.422 17.1371 25.9461 16.7247L16.1667 8.2492L6.38722 16.7247C5.91129 17.1371 5.19109 17.0857 4.77862 16.6098C4.36614 16.1338 4.41759 15.4136 4.89352 15.0012L15.4198 5.87845Z" fill="#D63D4A"/>
</svg>
