<svg width="32" height="32" viewBox="0 0 32 32" fill="none" xmlns="http://www.w3.org/2000/svg">
<ellipse cx="15.77" cy="24.8741" rx="15.1704" ry="2.84444" fill="#FDCFC3"/>
<path fill-rule="evenodd" clip-rule="evenodd" d="M10.99 4.25861C10.5905 4.25875 10.1981 4.37297 9.85257 4.5897C9.50706 4.80643 9.22072 5.11796 9.02255 5.49274L4.96522 13.1633C4.76918 13.5335 4.66604 13.9525 4.66602 14.379V19.8861C4.66604 20.2661 4.74791 20.6408 4.90515 20.9807L6.17222 23.7183C6.36041 24.1252 6.64979 24.4674 7.00791 24.7066C7.36602 24.9457 7.77872 25.0724 8.19975 25.0724H9.19935C9.80051 25.0724 10.377 24.8145 10.8021 24.3552C11.2272 23.896 11.466 23.2732 11.466 22.6238H20.5327C20.5327 23.2732 20.7715 23.896 21.1966 24.3552C21.6217 24.8145 22.1982 25.0724 22.7993 25.0724H23.7989C24.22 25.0724 24.6327 24.9457 24.9908 24.7066C25.3489 24.4674 25.6383 24.1252 25.8265 23.7183L27.0935 20.9807C27.2511 20.6416 27.3327 20.2657 27.3327 19.8861V14.379C27.3327 13.9525 27.2295 13.5335 27.0335 13.1633L22.9761 5.49274C22.778 5.11796 22.4916 4.80643 22.1461 4.5897C21.8006 4.37297 21.4082 4.25875 21.0087 4.25861H10.99Z" fill="#FA967C"/>
<g style="mix-blend-mode:multiply">
<path d="M7.00243 24.7089C6.64431 24.4697 6.35494 24.1275 6.16674 23.7207L5.5332 22.3518H26.4545L25.821 23.7207C25.6328 24.1275 25.3434 24.4697 24.9853 24.7089C24.6272 24.9481 24.2145 25.0748 23.7935 25.0748H22.7939C22.1927 25.0748 21.6162 24.8168 21.1911 24.3576C20.766 23.8984 20.5272 23.2755 20.5272 22.6261H11.4605C11.4605 23.2755 11.2217 23.8984 10.7966 24.3576C10.3716 24.8168 9.79503 25.0748 9.19387 25.0748H8.19427C7.77324 25.0748 7.36054 24.9481 7.00243 24.7089Z" fill="#D63D4A"/>
</g>
<g style="mix-blend-mode:multiply">
<path d="M8.27699 11.9174L10.359 7.23294C10.4843 6.95099 10.7639 6.76929 11.0724 6.76929H21.1615C21.4701 6.76929 21.7497 6.95099 21.875 7.23294L23.9569 11.9174C24.1864 12.4337 23.8085 13.0152 23.2435 13.0152H8.99044C8.42545 13.0152 8.04752 12.4337 8.27699 11.9174Z" fill="#D63D4A"/>
</g>
<circle cx="10.3916" cy="17.7907" r="1.56148" fill="white"/>
<ellipse cx="21.8427" cy="17.7907" rx="1.56148" ry="1.56148" fill="white"/>
</svg>
