<svg width="36" height="36" viewBox="0 0 36 36" fill="none" xmlns="http://www.w3.org/2000/svg">
<ellipse cx="17.7415" cy="27.9837" rx="17.0667" ry="3.2" fill="#ACB1B6" fill-opacity="0.2"/>
<path d="M4.89502 16.696C4.1706 16.3378 3.46994 17.2211 3.98357 17.845L7.48228 22.095C7.53488 22.1589 7.57655 22.231 7.60558 22.3085L9.53681 27.4635C9.82032 28.2203 10.9356 28.0551 10.9876 27.2486L11.4267 20.4404C11.4462 20.1383 11.2821 19.8541 11.0106 19.7199L4.89502 16.696Z" fill="#1A5EA7"/>
<path d="M24.5888 13.7672C24.4995 12.9231 24.0568 12.1563 23.3704 11.6569L13.458 4.44514C12.8769 4.02239 12.1014 3.98149 11.479 4.34078C10.6094 4.8429 10.3114 5.95497 10.8135 6.82466L22.4952 27.0579C22.9973 27.9276 24.1094 28.2256 24.979 27.7235C25.6014 27.3642 25.9537 26.6721 25.8781 25.9575L24.5888 13.7672Z" fill="#1A5EA7"/>
<path d="M20.2164 10.1883C22.3251 8.64979 24.9386 7.96792 27.5301 8.28014C29.2369 8.48578 30.2684 10.2724 29.5931 11.8534C28.5677 14.2538 26.6704 16.1762 24.2837 17.2331L10.7433 23.229C9.57328 23.7471 8.20084 23.2996 7.56102 22.1914C6.9212 21.0832 7.21991 19.6709 8.25364 18.9167L20.2164 10.1883Z" fill="#32C9DC"/>
<path d="M23.8684 9.86684C23.4588 9.99903 23.3174 10.4814 23.5326 10.8541L25.3653 14.0285C25.5805 14.4012 26.0689 14.5199 26.3882 14.2313C27.0405 13.6416 27.5458 12.8785 27.8567 11.9937C28.1916 11.0404 27.5335 9.90049 26.5404 9.71388C25.6187 9.54068 24.7052 9.59674 23.8684 9.86684Z" fill="white"/>
</svg>
