<svg width="36" height="36" viewBox="0 0 36 36" fill="none" xmlns="http://www.w3.org/2000/svg">
<ellipse cx="17.7417" cy="27.9837" rx="17.0667" ry="3.2" fill="#FDCFC3"/>
<path d="M20.6214 8.19379C20.8757 8.24946 21.141 8.19025 21.3531 8.03917C22.7585 7.03774 24.9295 6.16939 25.9381 6.55824C26.7291 6.86321 26.6862 7.95681 26.6281 9.43626C26.6118 9.85398 26.5942 10.3025 26.5938 10.7726C26.5936 11.006 26.6979 11.2255 26.8675 11.3857C27.9667 12.4238 28.8064 13.6432 29.3065 14.98C29.3889 15.2002 29.5954 15.3525 29.8305 15.3525C30.7526 15.3525 31.5 16.1 31.5 17.0221V20.3612C31.5 21.2833 30.7526 22.0308 29.8305 22.0308H29.1787C28.8796 22.0308 28.6058 22.1924 28.4437 22.4437C28.1788 22.8545 27.8794 23.2488 27.5486 23.624C27.4081 23.7833 27.3261 23.9867 27.3261 24.199V27.874C27.3261 28.3351 26.9523 28.7088 26.4913 28.7088H23.8039C23.4209 28.7088 23.087 28.4481 22.9941 28.0765L22.9285 27.8143C22.8071 27.3286 22.2886 27.0601 21.8102 27.2076C20.4132 27.6382 18.8955 27.8743 17.3088 27.8743C15.722 27.8743 14.2042 27.6382 12.8073 27.2075C12.3288 27.06 11.8103 27.3285 11.6889 27.8143L11.6234 28.0765C11.5304 28.4481 11.1965 28.7088 10.8135 28.7088H8.12613C7.66509 28.7088 7.29135 28.3351 7.29135 27.874V24.1989C7.29135 23.9865 7.20924 23.7831 7.06882 23.6238C5.79853 22.1829 4.99145 20.4619 4.82088 18.5994C4.78904 18.2518 4.56691 17.9492 4.25186 17.7989C3.65708 17.5152 3.05504 17.0915 2.51323 16.4776C2.20815 16.1319 2.31638 15.6083 2.69998 15.3525C3.08359 15.0968 3.59547 15.2091 3.9197 15.5369C3.96262 15.5803 4.00589 15.6221 4.04945 15.6623C4.45256 16.0346 5.04668 15.7468 5.22294 15.2271C6.66675 10.9703 11.5307 7.8395 17.3088 7.8395C18.4555 7.8395 19.5663 7.96282 20.6214 8.19379Z" fill="#FA967C"/>
<g style="mix-blend-mode:multiply">
<path d="M16.4738 4.08252C18.5484 4.08252 20.2305 5.76472 20.2306 7.83936C20.2306 8.70039 19.9384 9.49096 19.4513 10.1245C18.762 9.99488 18.0447 9.92627 17.3087 9.92627C16.0708 9.92628 14.8867 10.1219 13.798 10.4751C13.1295 9.79654 12.7169 8.86644 12.7169 7.83936C12.717 5.76476 14.3992 4.08257 16.4738 4.08252Z" fill="#D63D4A"/>
<path d="M16.4738 4.08252C18.5484 4.08252 20.2305 5.76472 20.2306 7.83936C20.2306 8.70039 19.9384 9.49096 19.4513 10.1245C18.762 9.99488 18.0447 9.92627 17.3087 9.92627C16.0708 9.92628 14.8867 10.1219 13.798 10.4751C13.1295 9.79654 12.7169 8.86644 12.7169 7.83936C12.717 5.76476 14.3992 4.08257 16.4738 4.08252Z" stroke="#D63D4A" stroke-width="0.834785"/>
</g>
<path d="M26.8491 15.6701C26.8491 16.3068 26.3329 16.8229 25.6963 16.8229C25.0596 16.8229 24.5435 16.3068 24.5435 15.6701C24.5435 15.0335 25.0596 14.5173 25.6963 14.5173C26.3329 14.5173 26.8491 15.0335 26.8491 15.6701Z" fill="#D63D4A"/>
<ellipse cx="25.122" cy="19.9436" rx="2.08696" ry="1.25218" fill="white"/>
<path d="M17.3085 9.67578C18.8987 9.67578 20.406 9.98899 21.7411 10.5474C22.0808 10.6899 22.2406 11.0804 22.0985 11.4204C21.9562 11.7605 21.5656 11.9213 21.2255 11.7793C20.0559 11.2901 18.7242 11.0117 17.3085 11.0117C15.3959 11.0118 13.6398 11.5201 12.2269 12.3682C11.9107 12.558 11.4997 12.4544 11.3099 12.1382C11.1206 11.8222 11.2227 11.4125 11.5384 11.2227C13.1656 10.2459 15.1615 9.67584 17.3085 9.67578Z" fill="#D63D4A"/>
</svg>
