<svg width="32" height="32" viewBox="0 0 32 32" fill="none" xmlns="http://www.w3.org/2000/svg">
<path d="M7.54508 6.91899C8.81597 6.42902 12.1259 8.14452 12.7664 9.32003C10.4962 11.3931 6.19448 15.4568 6.72217 13.0974C7.38165 10.1483 6.27459 7.40925 7.54508 6.91899Z" fill="#D63D4A"/>
<path d="M19.5112 9.32003C20.1516 8.14453 23.4616 6.42907 24.7326 6.91899C26.0035 7.40896 24.896 10.1481 25.5555 13.0974C26.0832 15.4568 21.7814 11.3931 19.5112 9.32003Z" fill="#D63D4A"/>
<path d="M16.1673 8.18652C23.8578 8.18652 27.5007 13.7694 27.5007 19.6462C27.5005 22.3419 26.3383 24.2854 24.5192 25.6002C22.7528 26.877 20.4128 26.6405 18.2442 26.4222C17.5762 26.3549 16.8811 26.3193 16.1673 26.3193C15.4535 26.3193 14.7583 26.3549 14.0902 26.4221C11.9209 26.6403 9.57998 26.8769 7.81341 25.5991C5.9955 24.2842 4.83409 22.3409 4.83398 19.6462C4.83398 13.7694 8.47684 8.18652 16.1673 8.18652Z" fill="#FA967C"/>
<path d="M16.167 18.764C17.0016 18.764 17.6787 19.1877 17.6787 19.7093C17.6785 20.2307 17.0014 20.6533 16.167 20.6533C15.3327 20.6532 14.6568 20.2307 14.6566 19.7093C14.6566 19.1877 15.3326 18.7641 16.167 18.764Z" fill="#D63D4A"/>
<path d="M12.4834 16.066C13.0595 16.066 13.5274 16.533 13.5277 17.109C13.5277 17.6853 13.0596 18.1533 12.4834 18.1533C11.9073 18.1531 11.4404 17.6851 11.4404 17.109C11.4407 16.5331 11.9075 16.0662 12.4834 16.066Z" fill="#D63D4A"/>
<path d="M19.7881 16.066C20.3639 16.0664 20.8308 16.5332 20.8311 17.109C20.8311 17.6851 20.3641 18.153 19.7881 18.1533C19.2118 18.1533 18.7438 17.6853 18.7438 17.109C18.744 16.533 19.212 16.066 19.7881 16.066Z" fill="#D63D4A"/>
<ellipse cx="23.3449" cy="20.0866" rx="1.88889" ry="1.32222" fill="white"/>
<ellipse cx="8.98948" cy="20.0866" rx="1.88889" ry="1.32222" fill="white"/>
<path fill-rule="evenodd" clip-rule="evenodd" d="M16.1666 19.8978C16.3752 19.8978 16.5444 20.067 16.5444 20.2756C16.5444 21.2264 15.891 21.8445 15.1405 22.0667C14.4004 22.2858 13.4956 22.1469 12.879 21.5385C12.7305 21.392 12.7289 21.1528 12.8755 21.0043C13.022 20.8557 13.2612 20.8541 13.4097 21.0007C13.8005 21.3863 14.4069 21.4959 14.926 21.3422C15.4348 21.1916 15.7888 20.8158 15.7888 20.2756C15.7888 20.067 15.958 19.8978 16.1666 19.8978Z" fill="#D63D4A"/>
<path fill-rule="evenodd" clip-rule="evenodd" d="M16.1666 19.8978C15.958 19.8978 15.7888 20.067 15.7888 20.2756C15.7888 21.2264 16.4422 21.8445 17.1927 22.0667C17.9328 22.2858 18.8376 22.1469 19.4542 21.5385C19.6027 21.392 19.6043 21.1528 19.4577 21.0043C19.3112 20.8557 19.072 20.8541 18.9235 21.0007C18.5327 21.3863 17.9263 21.4959 17.4072 21.3422C16.8984 21.1916 16.5444 20.8158 16.5444 20.2756C16.5444 20.067 16.3752 19.8978 16.1666 19.8978Z" fill="#D63D4A"/>
</svg>
