<svg width="32" height="32" viewBox="0 0 32 32" fill="none" xmlns="http://www.w3.org/2000/svg">
<ellipse cx="15.77" cy="24.874" rx="15.1704" ry="2.84444" fill="#FDCFC3"/>
<path d="M5.38404 17.3841C6.83878 17.3841 8.01808 16.2048 8.01808 14.7501C8.01808 13.2953 6.83878 12.116 5.38404 12.116C3.9293 12.116 2.75 13.2953 2.75 14.7501C2.75 16.2048 3.9293 17.3841 5.38404 17.3841Z" fill="#FA967C"/>
<path d="M26.6145 17.3841C28.0693 17.3841 29.2486 16.2047 29.2486 14.75C29.2486 13.2953 28.0693 12.116 26.6145 12.116C25.1598 12.116 23.9805 13.2953 23.9805 14.75C23.9805 16.2047 25.1598 17.3841 26.6145 17.3841Z" fill="#FA967C"/>
<path d="M16.0001 25.3166C21.8359 25.3166 26.5667 20.5858 26.5667 14.75C26.5667 8.91428 21.8359 4.18347 16.0001 4.18347C10.1644 4.18347 5.43359 8.91428 5.43359 14.75C5.43359 20.5858 10.1644 25.3166 16.0001 25.3166Z" fill="#FA967C"/>
<ellipse cx="23.2658" cy="17.2534" rx="1.88889" ry="1.32222" fill="white"/>
<ellipse cx="8.82248" cy="17.2534" rx="1.88889" ry="1.32222" fill="white"/>
<path d="M13.0346 15.4056C13.5488 15.4056 13.9657 14.9288 13.9657 14.3405C13.9657 13.7523 13.5488 13.2755 13.0346 13.2755C12.5204 13.2755 12.1035 13.7523 12.1035 14.3405C12.1035 14.9288 12.5204 15.4056 13.0346 15.4056Z" fill="#D63D4A"/>
<path d="M19.8954 14.3405C19.8954 14.9291 19.4781 15.4056 18.9643 15.4056C18.4504 15.4056 18.0332 14.9291 18.0332 14.3405C18.0332 13.752 18.4504 13.2755 18.9643 13.2755C19.4781 13.2755 19.8954 13.752 19.8954 14.3405Z" fill="#D63D4A"/>
<path d="M5.5293 13.8087C5.5293 13.8087 9.90223 12.0138 12.548 7.41645C12.548 7.41645 12.777 9.66018 11.973 11.343H20.027C20.027 11.343 20.2561 9.88455 19.6811 7.30426C19.6811 7.30426 22.0978 11.4552 26.4684 13.1356C26.4684 13.1356 26.5829 3.48993 16.1145 3.48993C5.64616 3.48993 5.5293 11.7894 5.5293 13.8087Z" fill="#D63D4A"/>
<path d="M12.9434 16.8854C12.9434 18.5741 14.3114 19.9422 16.0001 19.9422C17.6888 19.9422 19.0569 18.5741 19.0569 16.8854H12.9456H12.9434Z" fill="#D63D4A"/>
</svg>
