<svg width="32" height="32" viewBox="0 0 32 32" fill="none" xmlns="http://www.w3.org/2000/svg">
<path fill-rule="evenodd" clip-rule="evenodd" d="M16 25.2153C16.6776 25.2153 17.044 25.6022 17.6896 26.3669L17.7252 26.4087C18.3068 27.0971 19.1836 28.1362 20.7701 27.9854C21.7163 27.8946 22.6198 27.237 23.3757 26.4596C24.1636 25.6494 24.9337 24.5668 25.6078 23.3606C26.9471 20.9628 28 17.9093 28 15.259V15.1773C28 12.8703 28 8.17468 23.5073 5.96945C21.8337 5.15202 20.3895 5.2592 19.1303 5.53894C18.7546 5.62695 18.381 5.72385 18.0098 5.82958C17.7999 5.88771 17.6072 5.93978 17.4317 5.9858C16.9651 6.11852 16.4842 6.19173 16 6.20378C15.55 6.20378 15.0858 6.1184 14.5594 5.9858C14.3815 5.9422 14.1859 5.89073 13.9724 5.83139C13.6132 5.73694 13.2254 5.63158 12.8644 5.55165C11.6158 5.27555 10.1823 5.16656 8.54246 5.97126C3.99822 8.20193 4 12.8703 4 15.1845V15.2572C4 17.922 5.12939 20.9864 6.49889 23.377C7.18897 24.5831 7.96443 25.6621 8.73455 26.465C9.11872 26.8665 9.51712 27.2152 9.9173 27.4768C10.3104 27.7329 10.7568 27.94 11.2281 27.9854C12.8146 28.1362 13.6932 27.0953 14.2748 26.4087L14.3104 26.3669C14.956 25.604 15.3224 25.2153 16 25.2153Z" fill="#FA967C"/>
<path fill-rule="evenodd" clip-rule="evenodd" d="M19.7404 10.4992C19.7913 10.6347 19.8149 10.7788 19.81 10.9234C19.8051 11.0681 19.7718 11.2103 19.7119 11.342C19.652 11.4737 19.5668 11.5924 19.461 11.6911C19.3552 11.7899 19.2311 11.8668 19.0955 11.9175C18.0085 12.3245 17.0641 12.573 16.0721 12.5765C15.0766 12.5783 14.127 12.3351 13.0293 11.914C12.8943 11.8622 12.7708 11.7843 12.6659 11.6847C12.561 11.5852 12.4768 11.4659 12.4179 11.3338C12.3591 11.2017 12.3269 11.0593 12.3231 10.9147C12.3193 10.7702 12.3441 10.6263 12.3959 10.4913C12.4477 10.3563 12.5256 10.2328 12.6252 10.1279C12.7247 10.023 12.844 9.93873 12.9761 9.87992C13.1082 9.8211 13.2506 9.78888 13.3952 9.7851C13.5397 9.78131 13.6836 9.80604 13.8186 9.85787C14.7912 10.2314 15.4519 10.3759 16.0651 10.3741C16.6817 10.3706 17.3442 10.2226 18.3238 9.85435C18.5972 9.75218 18.9 9.76271 19.1656 9.88363C19.4312 10.0045 19.6379 10.2259 19.7404 10.4992Z" fill="#D63D4A"/>
<g style="mix-blend-mode:multiply">
<path d="M29.3334 21.3333C29.3334 24.2789 26.9456 26.6667 24.0001 26.6667C21.0546 26.6667 18.6667 24.2789 18.6667 21.3333C18.6667 18.3878 21.0546 16 24.0001 16C26.9456 16 29.3334 18.3878 29.3334 21.3333Z" fill="white"/>
<path d="M29.3334 21.3333C29.3334 24.2789 26.9456 26.6667 24.0001 26.6667C21.0546 26.6667 18.6667 24.2789 18.6667 21.3333C18.6667 18.3878 21.0546 16 24.0001 16C26.9456 16 29.3334 18.3878 29.3334 21.3333Z" fill="#D63D4A"/>
</g>
<path d="M26.2863 19.4261C26.5266 19.2756 26.8474 19.3092 27.0506 19.5224C27.2536 19.7358 27.2713 20.058 27.1092 20.2906L27.0298 20.3844L23.8253 23.4326C23.7079 23.5441 23.551 23.6049 23.3891 23.6005C23.2271 23.5961 23.0733 23.527 22.962 23.4091L20.8318 21.15L20.7576 21.0524C20.6084 20.8113 20.6437 20.4914 20.8579 20.2893C21.0722 20.0872 21.3942 20.0702 21.6261 20.2333L21.7199 20.3141L23.4282 22.1266L26.1886 19.5016L26.2863 19.4261Z" fill="white"/>
</svg>
