<svg width="37" height="36" viewBox="0 0 37 36" fill="none" xmlns="http://www.w3.org/2000/svg">
<g style="mix-blend-mode:multiply">
<ellipse cx="18.3674" cy="27.2" rx="17.0667" ry="3.2" fill="#ACB1B6" fill-opacity="0.2"/>
<path d="M18.626 3.75635C25.6661 3.75635 31.373 9.46432 31.373 16.5044C31.373 17.5112 31.256 18.4908 31.0352 19.4302C30.9703 19.7056 30.8575 19.955 30.7109 20.1782C30.7077 20.4308 30.6608 20.6918 30.5625 20.9556C29.6487 23.4061 28.0022 25.4995 25.8896 26.9702C25.4369 27.2853 24.8904 27.4292 24.3389 27.4292H12.8936C12.342 27.4292 11.7955 27.2853 11.3428 26.9702C9.22991 25.4995 7.58299 23.4062 6.66895 20.9556C6.56641 20.6806 6.51998 20.4086 6.52051 20.146C6.38436 19.9311 6.27948 19.6922 6.21777 19.4302C5.99664 18.4908 5.87897 17.5112 5.87891 16.5044C5.87891 9.46468 11.5864 3.75694 18.626 3.75635ZM26.5176 16.5024C26.5176 16.2547 26.2489 16.1088 26.0322 16.229L23.6035 17.5767C23.4227 17.6772 23.2934 17.8483 23.2275 18.0444C22.5818 19.9683 20.7653 21.355 18.624 21.355C16.4831 21.3548 14.6655 19.9689 14.0195 18.0454C13.9536 17.8492 13.8245 17.6781 13.6436 17.5776L11.2178 16.231C11.0028 16.1116 10.7354 16.2566 10.7354 16.5024C10.7354 17.0799 10.798 17.643 10.916 18.1851C10.9473 18.3291 10.9623 18.477 10.9688 18.6265C11.031 18.7377 11.0845 18.8553 11.125 18.978C11.7791 20.9575 13.1949 22.59 15.0264 23.5278C15.3838 23.7108 15.785 23.7846 16.1865 23.7847H21.0488C21.4503 23.7846 21.8516 23.7108 22.209 23.5278C24.0403 22.5899 25.4571 20.9575 26.1113 18.978C26.1563 18.842 26.2146 18.7111 26.2861 18.5894C26.2939 18.4519 26.309 18.3158 26.3379 18.1831C26.4557 17.6416 26.5175 17.0793 26.5176 16.5024ZM18.626 8.61084C15.5985 8.61111 12.9696 10.3164 11.6465 12.8188C11.4026 13.28 11.7577 13.8014 12.2793 13.8101L14.1357 13.8413C14.3965 13.8457 14.6381 13.7127 14.7988 13.5073C15.6876 12.372 17.0705 11.6422 18.624 11.6421C20.1775 11.6421 21.5605 12.3721 22.4492 13.5073C22.6099 13.7125 22.8507 13.8456 23.1113 13.8413L24.9746 13.8101C25.496 13.8011 25.8511 13.2799 25.6074 12.8188C24.284 10.3163 21.6536 8.61093 18.626 8.61084Z" fill="white"/>
<path d="M9.78116 17.7141C10.3801 17.7141 10.8797 18.1548 11.0486 18.7294C11.6753 20.8611 13.1776 22.6176 15.1399 23.5833C15.4279 23.725 15.7478 23.785 16.0687 23.785H21.1698C21.4906 23.785 21.8107 23.725 22.0986 23.5833C24.0608 22.6176 25.5632 20.8611 26.1899 18.7294C26.3588 18.1548 26.8584 17.7141 27.4574 17.7141H28.6376C30.0685 17.7143 31.2075 18.9599 30.7791 20.325C29.1555 25.4971 24.3253 29.2493 18.6174 29.2496C12.9094 29.2495 8.0793 25.4972 6.45563 20.325C6.02727 18.9597 7.16617 17.7141 8.59713 17.7141H9.78116Z" fill="#5B658C"/>
<g style="mix-blend-mode:multiply">
<path d="M18.6221 3.75269C25.6618 3.75295 31.3697 9.46004 31.3701 16.4998C31.3701 17.507 31.2525 18.4876 31.0312 19.4275C30.7495 20.6235 29.6077 21.3581 28.3789 21.3582C26.9408 21.3582 26.027 19.5856 26.333 18.1804C26.4511 17.6381 26.5136 17.0746 26.5137 16.4968C26.5137 16.2509 26.2458 16.1058 26.0308 16.2251L23.6009 17.5739C23.4198 17.6744 23.2905 17.8456 23.2247 18.042C22.5792 19.9663 20.7618 21.3533 18.6201 21.3533C16.4779 21.3531 14.6594 19.9655 14.0145 18.0402C13.9487 17.8438 13.8194 17.6724 13.6382 17.5718L11.2123 16.2251C10.9973 16.1058 10.7315 16.251 10.7314 16.4968C10.7315 17.0739 10.7933 17.6367 10.9111 18.1785C11.2169 19.5844 10.303 21.358 8.86426 21.3582C7.63555 21.358 6.49432 20.6235 6.21289 19.4275C5.99192 18.4876 5.875 17.507 5.875 16.4998C5.87538 9.45994 11.5822 3.75277 18.6221 3.75269ZM18.623 8.60522C15.5942 8.60522 12.9627 10.3117 11.6395 12.8157C11.3959 13.2768 11.751 13.798 12.2724 13.8069L14.1328 13.8384C14.3935 13.8428 14.6349 13.7102 14.7957 13.5049C15.6845 12.3701 17.067 11.6405 18.6201 11.6404C20.1732 11.6404 21.5557 12.3702 22.4446 13.5049C22.6054 13.7102 22.8467 13.8428 23.1074 13.8384L24.9707 13.8068C25.4922 13.798 25.8473 13.2768 25.6036 12.8157C24.281 10.312 21.6514 8.60543 18.623 8.60522Z" fill="#8C97C8"/>
</g>
<rect x="16.1904" y="14.0718" width="4.85617" height="4.85617" rx="2.42808" fill="white"/>
<g style="mix-blend-mode:multiply">
<circle cx="18.625" cy="16.4998" r="4.78031" fill="black"/>
<circle cx="18.625" cy="16.4998" r="4.78031" fill="#43465B"/>
</g>
</g>
</svg>
