<svg width="32" height="32" viewBox="0 0 32 32" fill="none" xmlns="http://www.w3.org/2000/svg">
<path d="M2.66675 8.00016C2.66675 6.5274 3.79433 5.3335 5.18527 5.3335H22.8149C24.2058 5.3335 25.3334 6.5274 25.3334 8.00016V21.3335C25.3334 22.8063 24.2058 24.0002 22.8149 24.0002H5.18527C3.79433 24.0002 2.66675 22.8063 2.66675 21.3335V8.00016Z" fill="#FA967C"/>
<g style="mix-blend-mode:multiply">
<path d="M20 2.2666C20.589 2.2666 21.0662 2.74405 21.0664 3.33301V5.33301H23.333C24.4375 5.33301 25.3328 6.22859 25.333 7.33301V10.667H2.66699V7.33301C2.66717 6.22859 3.56253 5.33301 4.66699 5.33301H6.93359V3.33301C6.93377 2.74405 7.41101 2.2666 8 2.2666C8.589 2.2666 9.06623 2.74405 9.06641 3.33301V5.33301H18.9336V3.33301C18.9338 2.74405 19.411 2.2666 20 2.2666Z" fill="#D63D4A"/>
</g>
<g style="mix-blend-mode:multiply">
<circle cx="24.0001" cy="19.9998" r="5.33333" fill="white"/>
<circle cx="24.0001" cy="19.9998" r="5.33333" fill="#D63D4A"/>
</g>
<path d="M22.3795 18.3537C22.2986 18.0705 22.0034 17.9065 21.7202 17.9875C21.437 18.0684 21.273 18.3636 21.3539 18.6468L21.693 19.8335H21.3334C21.0388 19.8335 20.8 20.0723 20.8 20.3669C20.8 20.6614 21.0388 20.9002 21.3334 20.9002H21.9977L22.2681 21.8467C22.3312 22.0675 22.5286 22.2231 22.7581 22.233C22.9876 22.2428 23.1976 22.1046 23.2793 21.89L23.9999 19.9983L24.7206 21.89C24.8023 22.1046 25.0123 22.2428 25.2418 22.233C25.4713 22.2231 25.6687 22.0675 25.7317 21.8467L26.0022 20.9002H26.6665C26.9611 20.9002 27.1998 20.6614 27.1998 20.3669C27.1998 20.0723 26.9611 19.8335 26.6665 19.8335H26.3069L26.646 18.6468C26.7269 18.3636 26.5629 18.0684 26.2797 17.9875C25.9965 17.9065 25.7013 18.0705 25.6204 18.3537L25.1466 20.0121L24.4983 18.3104C24.4195 18.1036 24.2212 17.9669 23.9999 17.9669C23.7786 17.9669 23.5803 18.1036 23.5016 18.3104L22.8533 20.0121L22.3795 18.3537Z" fill="white"/>
</svg>
