<svg width="33" height="32" viewBox="0 0 33 32" fill="none" xmlns="http://www.w3.org/2000/svg">
<g style="mix-blend-mode:multiply">
<path fill-rule="evenodd" clip-rule="evenodd" d="M10.8447 4.66666C10.4097 4.66681 9.98237 4.79118 9.60614 5.02718C9.22991 5.26318 8.91811 5.60241 8.70233 6.01051L4.28429 14.3629C4.07083 14.766 3.95852 15.2224 3.9585 15.6868V21.6835C3.95852 22.0972 4.04767 22.5053 4.21889 22.8753L5.5986 25.8564C5.80353 26.2994 6.11863 26.672 6.50858 26.9324C6.89853 27.1929 7.34792 27.3308 7.80638 27.3309H8.89484C9.54944 27.3309 10.1772 27.0499 10.6401 26.5499C11.103 26.0499 11.363 25.3717 11.363 24.6645H21.2357C21.2357 25.3717 21.4958 26.0499 21.9586 26.5499C22.4215 27.0499 23.0493 27.3309 23.7039 27.3309H24.7924C25.2508 27.3308 25.7002 27.1929 26.0902 26.9324C26.4801 26.672 26.7952 26.2994 27.0001 25.8564L28.3798 22.8753C28.5514 22.5061 28.6402 22.0968 28.6402 21.6835V15.6868C28.6402 15.2224 28.5279 14.766 28.3144 14.3629L23.8964 6.01051C23.6806 5.60241 23.3688 5.26318 22.9926 5.02718C22.6164 4.79118 22.1891 4.66681 21.754 4.66666H10.8447Z" fill="#FA967C"/>
<g style="mix-blend-mode:multiply">
<path d="M6.50218 26.9349C6.11223 26.6745 5.79713 26.3019 5.5922 25.8588L4.90234 24.3683H27.6836L26.9937 25.8588C26.7888 26.3019 26.4737 26.6745 26.0838 26.9349C25.6938 27.1954 25.2444 27.3333 24.786 27.3333H23.6975C23.0429 27.3333 22.4151 27.0524 21.9522 26.5524C21.4894 26.0523 21.2293 25.3741 21.2293 24.667H11.3566C11.3566 25.3741 11.0966 26.0523 10.6337 26.5524C10.1708 27.0524 9.54305 27.3333 8.88845 27.3333H7.79998C7.34153 27.3333 6.89213 27.1954 6.50218 26.9349Z" fill="#D63D4A"/>
</g>
<g style="mix-blend-mode:multiply">
<path d="M7.8897 13.0061L10.1568 7.9052C10.2932 7.59819 10.5977 7.40033 10.9336 7.40033H21.9197C22.2556 7.40033 22.5601 7.59819 22.6965 7.9052L24.9636 13.0061C25.2135 13.5683 24.802 14.2015 24.1867 14.2015H8.66658C8.05136 14.2015 7.63984 13.5683 7.8897 13.0061Z" fill="#D63D4A"/>
</g>
<ellipse cx="10.1925" cy="19.4016" rx="1.7003" ry="1.7003" fill="white"/>
<circle cx="22.6617" cy="19.4016" r="1.7003" fill="white"/>
<g style="mix-blend-mode:multiply">
<ellipse cx="23.9583" cy="8.66668" rx="5.33333" ry="5.33333" fill="#D63D4A"/>
</g>
<path d="M24.1475 4.93402C24.2415 4.93412 24.3236 4.99737 24.3477 5.08832L24.541 5.81781L25.5508 6.23383L26.0527 5.80511C26.135 5.73486 26.2574 5.73946 26.334 5.81586L26.8105 6.29242C26.8865 6.36866 26.8917 6.49046 26.8223 6.57269L26.3945 7.07758L26.8037 8.06781L27.5352 8.25336C27.6271 8.2767 27.6924 8.35964 27.6924 8.45453V8.87152C27.6923 8.96573 27.6282 9.04782 27.5371 9.07172L26.8008 9.2641L26.3906 10.2534L26.8213 10.7612C26.8912 10.8434 26.8868 10.966 26.8105 11.0424L26.3359 11.5161C26.2585 11.5932 26.1348 11.5971 26.0527 11.5248L25.9336 11.4203C25.7917 11.2968 25.6294 11.1581 25.5469 11.0991L24.5566 11.5092L24.3711 12.2436C24.3478 12.3356 24.2648 12.4008 24.1699 12.4008H23.7461C23.6511 12.4007 23.5681 12.3357 23.5449 12.2436L23.3604 11.5082L22.3867 11.1078L21.8643 11.5356C21.7818 11.6029 21.6612 11.5962 21.5859 11.5209L21.1104 11.0453C21.0327 10.9676 21.0294 10.8432 21.1025 10.7612L21.5381 10.2729L21.1221 9.28558L20.3779 9.08148C20.2878 9.05679 20.2256 8.97471 20.2256 8.88129V8.45746C20.2257 8.36114 20.2919 8.27719 20.3857 8.25531L21.1113 8.08636L21.5146 7.09515L21.0898 6.57269C21.0229 6.49021 21.0294 6.36951 21.1045 6.29437L21.5801 5.81879C21.6577 5.74112 21.7832 5.73699 21.8652 5.81L22.3545 6.24652L23.3418 5.83051L23.5371 5.08832C23.5611 4.99736 23.6433 4.93418 23.7373 4.93402H24.1475ZM23.959 6.87543C22.9695 6.87543 22.1672 7.67701 22.167 8.66644C22.1671 9.65603 22.9694 10.4584 23.959 10.4584C24.9483 10.4581 25.7499 9.65583 25.75 8.66644C25.7497 7.6772 24.9482 6.87575 23.959 6.87543Z" fill="white"/>
</g>
</svg>
