<svg width="20" height="20" viewBox="0 0 20 20" fill="none" xmlns="http://www.w3.org/2000/svg">
<path d="M11.7349 13.5036C12.071 13.5378 12.3331 13.8217 12.3331 14.1668C12.3331 14.5119 12.071 14.7958 11.7349 14.8301L11.6666 14.8333H8.33325C7.96506 14.8333 7.66675 14.535 7.66675 14.1668C7.66675 13.7986 7.96506 13.5003 8.33325 13.5003H11.6666L11.7349 13.5036Z" fill="#8A949E"/>
<path fill-rule="evenodd" clip-rule="evenodd" d="M9.99992 2.0835C10.8771 2.0835 11.6712 2.57578 13.2584 3.56136L14.851 4.55013C16.3465 5.47881 17.0956 5.94397 17.5048 6.69368C17.9163 7.4441 17.9166 8.34957 17.9166 10.1613V11.3657C17.9166 14.454 17.9159 15.9979 16.9889 16.9574C16.0618 17.9168 14.5687 17.9168 11.5836 17.9168H8.41626C5.4311 17.9168 3.93879 17.9168 3.01099 16.9574C2.08319 15.9979 2.08325 14.4532 2.08325 11.3657V10.1605C2.08325 8.34956 2.0835 7.4433 2.49504 6.69368C2.90545 5.94323 3.65447 5.47738 5.15291 4.54688L6.74227 3.56136C8.3298 2.57608 9.12291 2.0835 9.99992 2.0835ZM9.99992 3.4165C9.83536 3.4165 9.62317 3.45579 9.2203 3.65169C8.79007 3.86092 8.26232 4.18716 7.44539 4.69417L5.86173 5.67643L5.85685 5.67969C5.08574 6.15853 4.5887 6.4684 4.22681 6.74577C3.88919 7.00453 3.75065 7.17575 3.66447 7.33333L3.66366 7.33496C3.57652 7.49365 3.50354 7.71076 3.46183 8.15365C3.41761 8.62354 3.41626 9.2303 3.41626 10.1605V11.3657C3.41626 12.9459 3.41904 14.0017 3.52124 14.7878C3.61904 15.5399 3.78671 15.8413 3.96965 16.0304C4.14667 16.2135 4.42024 16.3782 5.12606 16.4764C5.87504 16.5806 6.88487 16.5838 8.41626 16.5838H11.5836C13.115 16.5838 14.1255 16.5806 14.8746 16.4764C15.5804 16.3782 15.8538 16.2138 16.0302 16.0312C16.2132 15.8419 16.3799 15.5398 16.4778 14.7878C16.5801 14.0019 16.5836 12.9461 16.5836 11.3657V10.1613C16.5836 9.2308 16.5822 8.62434 16.538 8.15446C16.4964 7.71191 16.4236 7.49438 16.3362 7.33496L16.3346 7.33252C16.249 7.17584 16.1109 7.00497 15.7738 6.74658C15.4126 6.46972 14.9173 6.15991 14.1479 5.68213L12.5553 4.69417C11.7387 4.18711 11.2098 3.86092 10.7795 3.65169C10.3767 3.45586 10.1645 3.4165 9.99992 3.4165Z" fill="#8A949E"/>
</svg>
