<svg width="37" height="36" viewBox="0 0 37 36" fill="none" xmlns="http://www.w3.org/2000/svg">
<ellipse cx="18.117" cy="27.9833" rx="17.0667" ry="3.2" fill="#ACB1B6" fill-opacity="0.2"/>
<path d="M6.43302 19.5571C8.06961 19.5571 9.39632 18.2304 9.39632 16.5939C9.39632 14.9573 8.06961 13.6306 6.43302 13.6306C4.79644 13.6306 3.46973 14.9573 3.46973 16.5939C3.46973 18.2304 4.79644 19.5571 6.43302 19.5571Z" fill="#FDD9BD"/>
<path d="M30.3178 19.5571C31.9544 19.5571 33.2811 18.2304 33.2811 16.5938C33.2811 14.9572 31.9544 13.6305 30.3178 13.6305C28.6812 13.6305 27.3545 14.9572 27.3545 16.5938C27.3545 18.2304 28.6812 19.5571 30.3178 19.5571Z" fill="#FDD9BD"/>
<path d="M18.3752 28.4811C24.9404 28.4811 30.2625 23.159 30.2625 16.5938C30.2625 10.0286 24.9404 4.70641 18.3752 4.70641C11.8099 4.70641 6.48779 10.0286 6.48779 16.5938C6.48779 23.159 11.8099 28.4811 18.3752 28.4811Z" fill="#FDD9BD"/>
<ellipse cx="26.5508" cy="19.4101" rx="2.125" ry="1.4875" fill="white"/>
<ellipse cx="10.3003" cy="19.4101" rx="2.125" ry="1.4875" fill="white"/>
<path d="M15.0406 17.3313C15.6191 17.3313 16.0881 16.7949 16.0881 16.1331C16.0881 15.4714 15.6191 14.935 15.0406 14.935C14.4621 14.935 13.9932 15.4714 13.9932 16.1331C13.9932 16.7949 14.4621 17.3313 15.0406 17.3313Z" fill="#313D4C"/>
<path d="M22.758 16.1331C22.758 16.7952 22.2886 17.3313 21.7106 17.3313C21.1325 17.3313 20.6631 16.7952 20.6631 16.1331C20.6631 15.4711 21.1325 14.935 21.7106 14.935C22.2886 14.935 22.758 15.4711 22.758 16.1331Z" fill="#313D4C"/>
<path d="M6.59619 15.5348C6.59619 15.5348 11.5157 13.5154 14.4922 8.34348C14.4922 8.34348 14.7499 10.8677 13.8454 12.7608H22.9062C22.9062 12.7608 23.1638 11.1201 22.517 8.21727C22.517 8.21727 25.2358 12.887 30.1527 14.7775C30.1527 14.7775 30.2815 3.92615 18.5046 3.92615C6.72766 3.92615 6.59619 13.263 6.59619 15.5348Z" fill="#313D4C"/>
<path d="M14.9365 18.9961C14.9365 20.8959 16.4756 22.435 18.3754 22.435C20.2752 22.435 21.8142 20.8959 21.8142 18.9961H14.939H14.9365Z" fill="#D63D4A"/>
</svg>
