<svg width="37" height="36" viewBox="0 0 37 36" fill="none" xmlns="http://www.w3.org/2000/svg">
<ellipse cx="18.1174" cy="27.9833" rx="17.0667" ry="3.2" fill="#ACB1B6" fill-opacity="0.2"/>
<path d="M5.26954 16.6959C4.54511 16.3377 3.84445 17.221 4.35808 17.8449L7.85679 22.0948C7.9094 22.1587 7.95106 22.2309 7.98009 22.3084L9.91132 27.4634C10.1948 28.2201 11.3101 28.055 11.3621 27.2485L11.8012 20.4403C11.8207 20.1382 11.6566 19.8539 11.3852 19.7197L5.26954 16.6959Z" fill="#1A5EA7"/>
<path d="M24.9636 13.7672C24.8743 12.9231 24.4316 12.1563 23.7451 11.6569L13.8327 4.44514C13.2516 4.02239 12.4761 3.98149 11.8538 4.34078C10.9841 4.8429 10.6861 5.95497 11.1882 6.82466L22.8699 27.0579C23.372 27.9276 24.4841 28.2256 25.3538 27.7235C25.9761 27.3642 26.3285 26.6721 26.2529 25.9575L24.9636 13.7672Z" fill="#1A5EA7"/>
<path d="M20.5917 10.1883C22.7003 8.64979 25.3138 7.96792 27.9053 8.28014C29.6121 8.48578 30.6436 10.2724 29.9683 11.8534C28.9429 14.2538 27.0457 16.1762 24.659 17.2331L11.1186 23.229C9.94853 23.7471 8.57608 23.2996 7.93626 22.1914C7.29645 21.0832 7.59515 19.6709 8.62888 18.9167L20.5917 10.1883Z" fill="#32C9DC"/>
<path d="M24.2431 9.86708C23.8336 9.99927 23.6921 10.4816 23.9073 10.8543L25.7401 14.0287C25.9552 14.4014 26.4437 14.5201 26.7629 14.2315C27.4153 13.6419 27.9206 12.8788 28.2314 11.994C28.5663 11.0406 27.9082 9.90073 26.9152 9.71413C25.9935 9.54093 25.08 9.59698 24.2431 9.86708Z" fill="white"/>
</svg>
